ISO-10303-21;
HEADER;
/* Generated by software containing ST-Developer
 * from STEP Tools, Inc. (www.steptools.com) 
 */

FILE_DESCRIPTION(
/* description */ (''),
/* implementation_level */ '2;1');

FILE_NAME(
/* name */ '01_Wheel_Rim.step',
/* time_stamp */ '2026-10-08T17:08:33+09:00',
/* author */ ('Reaction Wheel Pendulum project'),
/* organization */ (''),
/* preprocessor_version */ 'ST-DEVELOPER v20.1',
/* originating_system */ 'Autodesk Inventor 2026',
/* authorisation */ '');

FILE_SCHEMA (('AUTOMOTIVE_DESIGN { 1 0 10303 214 3 1 1 }'));
ENDSEC;

DATA;
#10=MECHANICAL_DESIGN_GEOMETRIC_PRESENTATION_REPRESENTATION('',(#13),#368);
#11=SHAPE_REPRESENTATION_RELATIONSHIP('SRR','None',#375,#12);
#12=ADVANCED_BREP_SHAPE_REPRESENTATION('',(#14),#367);
#13=STYLED_ITEM('',(#384),#14);
#14=MANIFOLD_SOLID_BREP('\X2\30BD30EA30C330C9\X0\1',#203);
#15=FACE_BOUND('',#50,.T.);
#16=FACE_BOUND('',#51,.T.);
#17=FACE_BOUND('',#52,.T.);
#18=FACE_BOUND('',#53,.T.);
#19=FACE_BOUND('',#54,.T.);
#20=FACE_BOUND('',#55,.T.);
#21=FACE_BOUND('',#56,.T.);
#22=FACE_BOUND('',#58,.T.);
#23=FACE_BOUND('',#59,.T.);
#24=FACE_BOUND('',#60,.T.);
#25=FACE_BOUND('',#61,.T.);
#26=FACE_BOUND('',#62,.T.);
#27=FACE_BOUND('',#63,.T.);
#28=FACE_BOUND('',#64,.T.);
#29=PLANE('',#250);
#30=PLANE('',#251);
#31=FACE_OUTER_BOUND('',#41,.T.);
#32=FACE_OUTER_BOUND('',#42,.T.);
#33=FACE_OUTER_BOUND('',#43,.T.);
#34=FACE_OUTER_BOUND('',#44,.T.);
#35=FACE_OUTER_BOUND('',#45,.T.);
#36=FACE_OUTER_BOUND('',#46,.T.);
#37=FACE_OUTER_BOUND('',#47,.T.);
#38=FACE_OUTER_BOUND('',#48,.T.);
#39=FACE_OUTER_BOUND('',#49,.T.);
#40=FACE_OUTER_BOUND('',#57,.T.);
#41=EDGE_LOOP('',(#137,#138,#139,#140));
#42=EDGE_LOOP('',(#141,#142,#143,#144));
#43=EDGE_LOOP('',(#145,#146,#147,#148));
#44=EDGE_LOOP('',(#149,#150,#151,#152));
#45=EDGE_LOOP('',(#153,#154,#155,#156));
#46=EDGE_LOOP('',(#157,#158,#159,#160));
#47=EDGE_LOOP('',(#161,#162,#163,#164));
#48=EDGE_LOOP('',(#165,#166,#167,#168));
#49=EDGE_LOOP('',(#169));
#50=EDGE_LOOP('',(#170));
#51=EDGE_LOOP('',(#171));
#52=EDGE_LOOP('',(#172));
#53=EDGE_LOOP('',(#173));
#54=EDGE_LOOP('',(#174));
#55=EDGE_LOOP('',(#175));
#56=EDGE_LOOP('',(#176));
#57=EDGE_LOOP('',(#177));
#58=EDGE_LOOP('',(#178));
#59=EDGE_LOOP('',(#179));
#60=EDGE_LOOP('',(#180));
#61=EDGE_LOOP('',(#181));
#62=EDGE_LOOP('',(#182));
#63=EDGE_LOOP('',(#183));
#64=EDGE_LOOP('',(#184));
#65=LINE('',#319,#73);
#66=LINE('',#325,#74);
#67=LINE('',#331,#75);
#68=LINE('',#337,#76);
#69=LINE('',#343,#77);
#70=LINE('',#349,#78);
#71=LINE('',#355,#79);
#72=LINE('',#361,#80);
#73=VECTOR('',#258,1.6);
#74=VECTOR('',#265,1.6);
#75=VECTOR('',#272,1.6);
#76=VECTOR('',#279,1.6);
#77=VECTOR('',#286,1.6);
#78=VECTOR('',#293,1.6);
#79=VECTOR('',#300,68.);
#80=VECTOR('',#307,75.);
#81=CIRCLE('',#227,1.6);
#82=CIRCLE('',#228,1.6);
#83=CIRCLE('',#230,1.6);
#84=CIRCLE('',#231,1.6);
#85=CIRCLE('',#233,1.6);
#86=CIRCLE('',#234,1.6);
#87=CIRCLE('',#236,1.6);
#88=CIRCLE('',#237,1.6);
#89=CIRCLE('',#239,1.6);
#90=CIRCLE('',#240,1.6);
#91=CIRCLE('',#242,1.6);
#92=CIRCLE('',#243,1.6);
#93=CIRCLE('',#245,68.);
#94=CIRCLE('',#246,68.);
#95=CIRCLE('',#248,75.);
#96=CIRCLE('',#249,75.);
#97=VERTEX_POINT('',#316);
#98=VERTEX_POINT('',#318);
#99=VERTEX_POINT('',#322);
#100=VERTEX_POINT('',#324);
#101=VERTEX_POINT('',#328);
#102=VERTEX_POINT('',#330);
#103=VERTEX_POINT('',#334);
#104=VERTEX_POINT('',#336);
#105=VERTEX_POINT('',#340);
#106=VERTEX_POINT('',#342);
#107=VERTEX_POINT('',#346);
#108=VERTEX_POINT('',#348);
#109=VERTEX_POINT('',#352);
#110=VERTEX_POINT('',#354);
#111=VERTEX_POINT('',#358);
#112=VERTEX_POINT('',#360);
#113=EDGE_CURVE('',#97,#97,#81,.T.);
#114=EDGE_CURVE('',#97,#98,#65,.T.);
#115=EDGE_CURVE('',#98,#98,#82,.T.);
#116=EDGE_CURVE('',#99,#99,#83,.T.);
#117=EDGE_CURVE('',#99,#100,#66,.T.);
#118=EDGE_CURVE('',#100,#100,#84,.T.);
#119=EDGE_CURVE('',#101,#101,#85,.T.);
#120=EDGE_CURVE('',#101,#102,#67,.T.);
#121=EDGE_CURVE('',#102,#102,#86,.T.);
#122=EDGE_CURVE('',#103,#103,#87,.T.);
#123=EDGE_CURVE('',#103,#104,#68,.T.);
#124=EDGE_CURVE('',#104,#104,#88,.T.);
#125=EDGE_CURVE('',#105,#105,#89,.T.);
#126=EDGE_CURVE('',#105,#106,#69,.T.);
#127=EDGE_CURVE('',#106,#106,#90,.T.);
#128=EDGE_CURVE('',#107,#107,#91,.T.);
#129=EDGE_CURVE('',#107,#108,#70,.T.);
#130=EDGE_CURVE('',#108,#108,#92,.T.);
#131=EDGE_CURVE('',#109,#109,#93,.T.);
#132=EDGE_CURVE('',#109,#110,#71,.T.);
#133=EDGE_CURVE('',#110,#110,#94,.T.);
#134=EDGE_CURVE('',#111,#111,#95,.T.);
#135=EDGE_CURVE('',#111,#112,#72,.T.);
#136=EDGE_CURVE('',#112,#112,#96,.T.);
#137=ORIENTED_EDGE('',*,*,#113,.F.);
#138=ORIENTED_EDGE('',*,*,#114,.T.);
#139=ORIENTED_EDGE('',*,*,#115,.F.);
#140=ORIENTED_EDGE('',*,*,#114,.F.);
#141=ORIENTED_EDGE('',*,*,#116,.F.);
#142=ORIENTED_EDGE('',*,*,#117,.T.);
#143=ORIENTED_EDGE('',*,*,#118,.F.);
#144=ORIENTED_EDGE('',*,*,#117,.F.);
#145=ORIENTED_EDGE('',*,*,#119,.F.);
#146=ORIENTED_EDGE('',*,*,#120,.T.);
#147=ORIENTED_EDGE('',*,*,#121,.F.);
#148=ORIENTED_EDGE('',*,*,#120,.F.);
#149=ORIENTED_EDGE('',*,*,#122,.F.);
#150=ORIENTED_EDGE('',*,*,#123,.T.);
#151=ORIENTED_EDGE('',*,*,#124,.F.);
#152=ORIENTED_EDGE('',*,*,#123,.F.);
#153=ORIENTED_EDGE('',*,*,#125,.F.);
#154=ORIENTED_EDGE('',*,*,#126,.T.);
#155=ORIENTED_EDGE('',*,*,#127,.F.);
#156=ORIENTED_EDGE('',*,*,#126,.F.);
#157=ORIENTED_EDGE('',*,*,#128,.F.);
#158=ORIENTED_EDGE('',*,*,#129,.T.);
#159=ORIENTED_EDGE('',*,*,#130,.F.);
#160=ORIENTED_EDGE('',*,*,#129,.F.);
#161=ORIENTED_EDGE('',*,*,#131,.F.);
#162=ORIENTED_EDGE('',*,*,#132,.T.);
#163=ORIENTED_EDGE('',*,*,#133,.F.);
#164=ORIENTED_EDGE('',*,*,#132,.F.);
#165=ORIENTED_EDGE('',*,*,#134,.F.);
#166=ORIENTED_EDGE('',*,*,#135,.T.);
#167=ORIENTED_EDGE('',*,*,#136,.F.);
#168=ORIENTED_EDGE('',*,*,#135,.F.);
#169=ORIENTED_EDGE('',*,*,#136,.T.);
#170=ORIENTED_EDGE('',*,*,#113,.T.);
#171=ORIENTED_EDGE('',*,*,#116,.T.);
#172=ORIENTED_EDGE('',*,*,#119,.T.);
#173=ORIENTED_EDGE('',*,*,#122,.T.);
#174=ORIENTED_EDGE('',*,*,#125,.T.);
#175=ORIENTED_EDGE('',*,*,#128,.T.);
#176=ORIENTED_EDGE('',*,*,#131,.T.);
#177=ORIENTED_EDGE('',*,*,#134,.T.);
#178=ORIENTED_EDGE('',*,*,#115,.T.);
#179=ORIENTED_EDGE('',*,*,#118,.T.);
#180=ORIENTED_EDGE('',*,*,#121,.T.);
#181=ORIENTED_EDGE('',*,*,#124,.T.);
#182=ORIENTED_EDGE('',*,*,#127,.T.);
#183=ORIENTED_EDGE('',*,*,#130,.T.);
#184=ORIENTED_EDGE('',*,*,#133,.T.);
#185=CYLINDRICAL_SURFACE('',#226,1.6);
#186=CYLINDRICAL_SURFACE('',#229,1.6);
#187=CYLINDRICAL_SURFACE('',#232,1.6);
#188=CYLINDRICAL_SURFACE('',#235,1.6);
#189=CYLINDRICAL_SURFACE('',#238,1.6);
#190=CYLINDRICAL_SURFACE('',#241,1.6);
#191=CYLINDRICAL_SURFACE('',#244,68.);
#192=CYLINDRICAL_SURFACE('',#247,75.);
#193=ADVANCED_FACE('',(#31),#185,.F.);
#194=ADVANCED_FACE('',(#32),#186,.F.);
#195=ADVANCED_FACE('',(#33),#187,.F.);
#196=ADVANCED_FACE('',(#34),#188,.F.);
#197=ADVANCED_FACE('',(#35),#189,.F.);
#198=ADVANCED_FACE('',(#36),#190,.F.);
#199=ADVANCED_FACE('',(#37),#191,.F.);
#200=ADVANCED_FACE('',(#38),#192,.T.);
#201=ADVANCED_FACE('',(#39,#15,#16,#17,#18,#19,#20,#21),#29,.F.);
#202=ADVANCED_FACE('',(#40,#22,#23,#24,#25,#26,#27,#28),#30,.T.);
#203=CLOSED_SHELL('',(#193,#194,#195,#196,#197,#198,#199,#200,#201,#202));
#204=DERIVED_UNIT_ELEMENT(#207,1.);
#205=DERIVED_UNIT_ELEMENT(#370,-3.);
#206=DIMENSIONAL_EXPONENTS(0.,1.,0.,0.,0.,0.,0.);
#207=(
CONVERSION_BASED_UNIT('gram',#209)
MASS_UNIT()
NAMED_UNIT(#206)
);
#208=(
MASS_UNIT()
NAMED_UNIT(*)
SI_UNIT(.KILO.,.GRAM.)
);
#209=MASS_MEASURE_WITH_UNIT(MASS_MEASURE(0.001),#208);
#210=DERIVED_UNIT((#204,#205));
#211=MEASURE_REPRESENTATION_ITEM('density measure',
POSITIVE_RATIO_MEASURE(2.7),#210);
#212=PROPERTY_DEFINITION_REPRESENTATION(#217,#214);
#213=PROPERTY_DEFINITION_REPRESENTATION(#218,#215);
#214=REPRESENTATION('material name',(#216),#367);
#215=REPRESENTATION('density',(#211),#367);
#216=DESCRIPTIVE_REPRESENTATION_ITEM('\X2\30A230EB30DF30CB30A630E0\X0\ 
6061','\X2\30A230EB30DF30CB30A630E0\X0\ 6061');
#217=PROPERTY_DEFINITION('material property','material name',#377);
#218=PROPERTY_DEFINITION('material property','density of part',#377);
#219=DATE_TIME_ROLE('creation_date');
#220=APPLIED_DATE_AND_TIME_ASSIGNMENT(#221,#219,(#377));
#221=DATE_AND_TIME(#222,#223);
#222=CALENDAR_DATE(2026,8,10);
#223=LOCAL_TIME(0,0,0.,#224);
#224=COORDINATED_UNIVERSAL_TIME_OFFSET(0,0,.BEHIND.);
#225=AXIS2_PLACEMENT_3D('',#314,#252,#253);
#226=AXIS2_PLACEMENT_3D('',#315,#254,#255);
#227=AXIS2_PLACEMENT_3D('',#317,#256,#257);
#228=AXIS2_PLACEMENT_3D('',#320,#259,#260);
#229=AXIS2_PLACEMENT_3D('',#321,#261,#262);
#230=AXIS2_PLACEMENT_3D('',#323,#263,#264);
#231=AXIS2_PLACEMENT_3D('',#326,#266,#267);
#232=AXIS2_PLACEMENT_3D('',#327,#268,#269);
#233=AXIS2_PLACEMENT_3D('',#329,#270,#271);
#234=AXIS2_PLACEMENT_3D('',#332,#273,#274);
#235=AXIS2_PLACEMENT_3D('',#333,#275,#276);
#236=AXIS2_PLACEMENT_3D('',#335,#277,#278);
#237=AXIS2_PLACEMENT_3D('',#338,#280,#281);
#238=AXIS2_PLACEMENT_3D('',#339,#282,#283);
#239=AXIS2_PLACEMENT_3D('',#341,#284,#285);
#240=AXIS2_PLACEMENT_3D('',#344,#287,#288);
#241=AXIS2_PLACEMENT_3D('',#345,#289,#290);
#242=AXIS2_PLACEMENT_3D('',#347,#291,#292);
#243=AXIS2_PLACEMENT_3D('',#350,#294,#295);
#244=AXIS2_PLACEMENT_3D('',#351,#296,#297);
#245=AXIS2_PLACEMENT_3D('',#353,#298,#299);
#246=AXIS2_PLACEMENT_3D('',#356,#301,#302);
#247=AXIS2_PLACEMENT_3D('',#357,#303,#304);
#248=AXIS2_PLACEMENT_3D('',#359,#305,#306);
#249=AXIS2_PLACEMENT_3D('',#362,#308,#309);
#250=AXIS2_PLACEMENT_3D('',#363,#310,#311);
#251=AXIS2_PLACEMENT_3D('',#364,#312,#313);
#252=DIRECTION('axis',(0.,0.,1.));
#253=DIRECTION('refdir',(1.,0.,0.));
#254=DIRECTION('center_axis',(0.,0.,1.));
#255=DIRECTION('ref_axis',(-1.,0.,0.));
#256=DIRECTION('center_axis',(0.,0.,1.));
#257=DIRECTION('ref_axis',(-1.,0.,0.));
#258=DIRECTION('',(0.,0.,1.));
#259=DIRECTION('center_axis',(0.,0.,-1.));
#260=DIRECTION('ref_axis',(-1.,0.,0.));
#261=DIRECTION('center_axis',(0.,0.,1.));
#262=DIRECTION('ref_axis',(-1.,0.,0.));
#263=DIRECTION('center_axis',(0.,0.,1.));
#264=DIRECTION('ref_axis',(-1.,0.,0.));
#265=DIRECTION('',(0.,0.,1.));
#266=DIRECTION('center_axis',(0.,0.,-1.));
#267=DIRECTION('ref_axis',(-1.,0.,0.));
#268=DIRECTION('center_axis',(0.,0.,1.));
#269=DIRECTION('ref_axis',(-1.,0.,0.));
#270=DIRECTION('center_axis',(0.,0.,1.));
#271=DIRECTION('ref_axis',(-1.,0.,0.));
#272=DIRECTION('',(0.,0.,1.));
#273=DIRECTION('center_axis',(0.,0.,-1.));
#274=DIRECTION('ref_axis',(-1.,0.,0.));
#275=DIRECTION('center_axis',(0.,0.,1.));
#276=DIRECTION('ref_axis',(-1.,0.,0.));
#277=DIRECTION('center_axis',(0.,0.,1.));
#278=DIRECTION('ref_axis',(-1.,0.,0.));
#279=DIRECTION('',(0.,0.,1.));
#280=DIRECTION('center_axis',(0.,0.,-1.));
#281=DIRECTION('ref_axis',(-1.,0.,0.));
#282=DIRECTION('center_axis',(0.,0.,1.));
#283=DIRECTION('ref_axis',(-1.,0.,0.));
#284=DIRECTION('center_axis',(0.,0.,1.));
#285=DIRECTION('ref_axis',(-1.,0.,0.));
#286=DIRECTION('',(0.,0.,1.));
#287=DIRECTION('center_axis',(0.,0.,-1.));
#288=DIRECTION('ref_axis',(-1.,0.,0.));
#289=DIRECTION('center_axis',(0.,0.,1.));
#290=DIRECTION('ref_axis',(-1.,0.,0.));
#291=DIRECTION('center_axis',(0.,0.,1.));
#292=DIRECTION('ref_axis',(-1.,0.,0.));
#293=DIRECTION('',(0.,0.,1.));
#294=DIRECTION('center_axis',(0.,0.,-1.));
#295=DIRECTION('ref_axis',(-1.,0.,0.));
#296=DIRECTION('center_axis',(0.,0.,1.));
#297=DIRECTION('ref_axis',(-1.,0.,0.));
#298=DIRECTION('center_axis',(0.,0.,1.));
#299=DIRECTION('ref_axis',(-1.,0.,0.));
#300=DIRECTION('',(0.,0.,1.));
#301=DIRECTION('center_axis',(0.,0.,-1.));
#302=DIRECTION('ref_axis',(-1.,0.,0.));
#303=DIRECTION('center_axis',(0.,0.,1.));
#304=DIRECTION('ref_axis',(-1.,0.,0.));
#305=DIRECTION('center_axis',(0.,0.,1.));
#306=DIRECTION('ref_axis',(-1.,0.,0.));
#307=DIRECTION('',(0.,0.,-1.));
#308=DIRECTION('center_axis',(0.,0.,-1.));
#309=DIRECTION('ref_axis',(-1.,0.,0.));
#310=DIRECTION('center_axis',(0.,0.,1.));
#311=DIRECTION('ref_axis',(1.,0.,0.));
#312=DIRECTION('center_axis',(0.,0.,1.));
#313=DIRECTION('ref_axis',(1.,0.,0.));
#314=CARTESIAN_POINT('',(0.,0.,0.));
#315=CARTESIAN_POINT('Origin',(61.4878036686951,-35.5,51.));
#316=CARTESIAN_POINT('',(63.0878036686951,-35.5,51.));
#317=CARTESIAN_POINT('Origin',(61.4878036686951,-35.5,51.));
#318=CARTESIAN_POINT('',(63.0878036686951,-35.5,58.));
#319=CARTESIAN_POINT('',(63.0878036686951,-35.5,51.));
#320=CARTESIAN_POINT('Origin',(61.4878036686951,-35.5,58.));
#321=CARTESIAN_POINT('Origin',(-1.30424884109193E-14,-71.,51.));
#322=CARTESIAN_POINT('',(1.59999999999999,-71.,51.));
#323=CARTESIAN_POINT('Origin',(-1.30424884109193E-14,-71.,51.));
#324=CARTESIAN_POINT('',(1.59999999999999,-71.,58.));
#325=CARTESIAN_POINT('',(1.59999999999999,-71.,51.));
#326=CARTESIAN_POINT('Origin',(-1.30424884109193E-14,-71.,58.));
#327=CARTESIAN_POINT('Origin',(-61.4878036686952,-35.5,51.));
#328=CARTESIAN_POINT('',(-59.8878036686951,-35.5,51.));
#329=CARTESIAN_POINT('Origin',(-61.4878036686952,-35.5,51.));
#330=CARTESIAN_POINT('',(-59.8878036686951,-35.5,58.));
#331=CARTESIAN_POINT('',(-59.8878036686951,-35.5,51.));
#332=CARTESIAN_POINT('Origin',(-61.4878036686952,-35.5,58.));
#333=CARTESIAN_POINT('Origin',(-61.4878036686952,35.5,51.));
#334=CARTESIAN_POINT('',(-59.8878036686951,35.5,51.));
#335=CARTESIAN_POINT('Origin',(-61.4878036686952,35.5,51.));
#336=CARTESIAN_POINT('',(-59.8878036686951,35.5,58.));
#337=CARTESIAN_POINT('',(-59.8878036686951,35.5,51.));
#338=CARTESIAN_POINT('Origin',(-61.4878036686952,35.5,58.));
#339=CARTESIAN_POINT('Origin',(4.3474961369731E-15,71.,51.));
#340=CARTESIAN_POINT('',(1.6,71.,51.));
#341=CARTESIAN_POINT('Origin',(4.3474961369731E-15,71.,51.));
#342=CARTESIAN_POINT('',(1.6,71.,58.));
#343=CARTESIAN_POINT('',(1.6,71.,51.));
#344=CARTESIAN_POINT('Origin',(4.3474961369731E-15,71.,58.));
#345=CARTESIAN_POINT('Origin',(61.4878036686952,35.5,51.));
#346=CARTESIAN_POINT('',(63.0878036686951,35.5,51.));
#347=CARTESIAN_POINT('Origin',(61.4878036686952,35.5,51.));
#348=CARTESIAN_POINT('',(63.0878036686951,35.5,58.));
#349=CARTESIAN_POINT('',(63.0878036686951,35.5,51.));
#350=CARTESIAN_POINT('Origin',(61.4878036686952,35.5,58.));
#351=CARTESIAN_POINT('Origin',(0.,0.,51.));
#352=CARTESIAN_POINT('',(68.,8.327598234202E-15,51.));
#353=CARTESIAN_POINT('Origin',(0.,0.,51.));
#354=CARTESIAN_POINT('',(68.,8.327598234202E-15,58.));
#355=CARTESIAN_POINT('',(68.,8.327598234202E-15,51.));
#356=CARTESIAN_POINT('Origin',(0.,0.,58.));
#357=CARTESIAN_POINT('Origin',(0.,0.,51.));
#358=CARTESIAN_POINT('',(75.,9.18485099360515E-15,58.));
#359=CARTESIAN_POINT('Origin',(0.,0.,58.));
#360=CARTESIAN_POINT('',(75.,9.18485099360515E-15,51.));
#361=CARTESIAN_POINT('',(75.,9.18485099360515E-15,51.));
#362=CARTESIAN_POINT('Origin',(0.,0.,51.));
#363=CARTESIAN_POINT('Origin',(-7.08133967844577E-15,-1.57898385724467E-15,
51.));
#364=CARTESIAN_POINT('Origin',(-7.08133967844577E-15,-1.57898385724467E-15,
58.));
#365=UNCERTAINTY_MEASURE_WITH_UNIT(LENGTH_MEASURE(0.01),#369,
'DISTANCE_ACCURACY_VALUE',
'Maximum model space distance between geometric entities at asserted c
onnectivities');
#366=UNCERTAINTY_MEASURE_WITH_UNIT(LENGTH_MEASURE(0.01),#369,
'DISTANCE_ACCURACY_VALUE',
'Maximum model space distance between geometric entities at asserted c
onnectivities');
#367=(
GEOMETRIC_REPRESENTATION_CONTEXT(3)
GLOBAL_UNCERTAINTY_ASSIGNED_CONTEXT((#365))
GLOBAL_UNIT_ASSIGNED_CONTEXT((#369,#371,#372))
REPRESENTATION_CONTEXT('','3D')
);
#368=(
GEOMETRIC_REPRESENTATION_CONTEXT(3)
GLOBAL_UNCERTAINTY_ASSIGNED_CONTEXT((#366))
GLOBAL_UNIT_ASSIGNED_CONTEXT((#369,#371,#372))
REPRESENTATION_CONTEXT('','3D')
);
#369=(
LENGTH_UNIT()
NAMED_UNIT(*)
SI_UNIT(.MILLI.,.METRE.)
);
#370=(
LENGTH_UNIT()
NAMED_UNIT(*)
SI_UNIT(.CENTI.,.METRE.)
);
#371=(
NAMED_UNIT(*)
PLANE_ANGLE_UNIT()
SI_UNIT($,.RADIAN.)
);
#372=(
NAMED_UNIT(*)
SI_UNIT($,.STERADIAN.)
SOLID_ANGLE_UNIT()
);
#373=SHAPE_DEFINITION_REPRESENTATION(#374,#375);
#374=PRODUCT_DEFINITION_SHAPE('',$,#377);
#375=SHAPE_REPRESENTATION('',(#225),#367);
#376=PRODUCT_DEFINITION_CONTEXT('part definition',#381,'design');
#377=PRODUCT_DEFINITION('01_Wheel_Rim','01_Wheel_Rim',#378,#376);
#378=PRODUCT_DEFINITION_FORMATION('',$,#383);
#379=PRODUCT_RELATED_PRODUCT_CATEGORY('01_Wheel_Rim','01_Wheel_Rim',(#383));
#380=APPLICATION_PROTOCOL_DEFINITION('international standard',
'automotive_design',2009,#381);
#381=APPLICATION_CONTEXT(
'Core Data for Automotive Mechanical Design Process');
#382=PRODUCT_CONTEXT('part definition',#381,'mechanical');
#383=PRODUCT('01_Wheel_Rim','01_Wheel_Rim',$,(#382));
#384=PRESENTATION_STYLE_ASSIGNMENT((#385));
#385=SURFACE_STYLE_USAGE(.BOTH.,#388);
#386=SURFACE_STYLE_RENDERING_WITH_PROPERTIES($,#392,(#387));
#387=SURFACE_STYLE_TRANSPARENT(0.);
#388=SURFACE_SIDE_STYLE('',(#389,#386));
#389=SURFACE_STYLE_FILL_AREA(#390);
#390=FILL_AREA_STYLE('',(#391));
#391=FILL_AREA_STYLE_COLOUR('',#392);
#392=COLOUR_RGB('',0.996078431372549,0.996078431372549,1.);
ENDSEC;
END-ISO-10303-21;
