ISO-10303-21;
HEADER;
/* Generated by software containing ST-Developer
 * from STEP Tools, Inc. (www.steptools.com) 
 */

FILE_DESCRIPTION(
/* description */ (''),
/* implementation_level */ '2;1');

FILE_NAME(
/* name */ '02_Wheel_Hub.step',
/* time_stamp */ '2026-10-08T17:08:35+09:00',
/* author */ ('Reaction Wheel Pendulum project'),
/* organization */ (''),
/* preprocessor_version */ 'ST-DEVELOPER v20.1',
/* originating_system */ 'Autodesk Inventor 2026',
/* authorisation */ '');

FILE_SCHEMA (('AUTOMOTIVE_DESIGN { 1 0 10303 214 3 1 1 }'));
ENDSEC;

DATA;
#10=MECHANICAL_DESIGN_GEOMETRIC_PRESENTATION_REPRESENTATION('',(#13),#680);
#11=SHAPE_REPRESENTATION_RELATIONSHIP('SRR','None',#687,#12);
#12=ADVANCED_BREP_SHAPE_REPRESENTATION('',(#14),#679);
#13=STYLED_ITEM('',(#696),#14);
#14=MANIFOLD_SOLID_BREP('\X2\30BD30EA30C330C9\X0\1',#387);
#15=CYLINDRICAL_SURFACE('',#420,1.25);
#16=CYLINDRICAL_SURFACE('',#422,1.25);
#17=CYLINDRICAL_SURFACE('',#424,1.25);
#18=CYLINDRICAL_SURFACE('',#426,1.25);
#19=CYLINDRICAL_SURFACE('',#428,1.25);
#20=CYLINDRICAL_SURFACE('',#431,1.25);
#21=CYLINDRICAL_SURFACE('',#434,1.25);
#22=CYLINDRICAL_SURFACE('',#437,1.25);
#23=CYLINDRICAL_SURFACE('',#443,18.);
#24=CYLINDRICAL_SURFACE('',#450,18.);
#25=CYLINDRICAL_SURFACE('',#451,12.);
#26=CYLINDRICAL_SURFACE('',#452,5.);
#27=CYLINDRICAL_SURFACE('',#454,12.);
#28=FACE_BOUND('',#100,.T.);
#29=FACE_BOUND('',#101,.T.);
#30=FACE_BOUND('',#102,.T.);
#31=FACE_BOUND('',#103,.T.);
#32=FACE_BOUND('',#104,.T.);
#33=FACE_BOUND('',#114,.T.);
#34=FACE_BOUND('',#115,.T.);
#35=FACE_BOUND('',#116,.T.);
#36=FACE_BOUND('',#117,.T.);
#37=FACE_BOUND('',#118,.T.);
#38=FACE_BOUND('',#121,.T.);
#39=FACE_BOUND('',#122,.T.);
#40=FACE_BOUND('',#123,.T.);
#41=FACE_BOUND('',#124,.T.);
#42=FACE_BOUND('',#125,.T.);
#43=FACE_BOUND('',#127,.T.);
#44=FACE_BOUND('',#128,.T.);
#45=FACE_BOUND('',#129,.T.);
#46=FACE_BOUND('',#130,.T.);
#47=FACE_BOUND('',#131,.T.);
#48=FACE_BOUND('',#137,.T.);
#49=CIRCLE('',#414,18.);
#50=CIRCLE('',#415,5.);
#51=CIRCLE('',#416,1.25);
#52=CIRCLE('',#417,1.25);
#53=CIRCLE('',#418,1.25);
#54=CIRCLE('',#419,1.25);
#55=CIRCLE('',#421,1.25);
#56=CIRCLE('',#423,1.25);
#57=CIRCLE('',#425,1.25);
#58=CIRCLE('',#427,1.25);
#59=CIRCLE('',#429,1.25);
#60=CIRCLE('',#430,1.25);
#61=CIRCLE('',#432,1.25);
#62=CIRCLE('',#433,1.25);
#63=CIRCLE('',#435,1.25);
#64=CIRCLE('',#436,1.25);
#65=CIRCLE('',#438,1.25);
#66=CIRCLE('',#439,1.25);
#67=CIRCLE('',#441,18.);
#68=CIRCLE('',#442,12.);
#69=CIRCLE('',#445,18.);
#70=CIRCLE('',#446,12.);
#71=CIRCLE('',#448,18.);
#72=CIRCLE('',#449,12.);
#73=CIRCLE('',#453,5.);
#74=CIRCLE('',#455,12.);
#75=FACE_OUTER_BOUND('',#96,.T.);
#76=FACE_OUTER_BOUND('',#97,.T.);
#77=FACE_OUTER_BOUND('',#98,.T.);
#78=FACE_OUTER_BOUND('',#99,.T.);
#79=FACE_OUTER_BOUND('',#105,.T.);
#80=FACE_OUTER_BOUND('',#106,.T.);
#81=FACE_OUTER_BOUND('',#107,.T.);
#82=FACE_OUTER_BOUND('',#108,.T.);
#83=FACE_OUTER_BOUND('',#109,.T.);
#84=FACE_OUTER_BOUND('',#110,.T.);
#85=FACE_OUTER_BOUND('',#111,.T.);
#86=FACE_OUTER_BOUND('',#112,.T.);
#87=FACE_OUTER_BOUND('',#113,.T.);
#88=FACE_OUTER_BOUND('',#119,.T.);
#89=FACE_OUTER_BOUND('',#120,.T.);
#90=FACE_OUTER_BOUND('',#126,.T.);
#91=FACE_OUTER_BOUND('',#132,.T.);
#92=FACE_OUTER_BOUND('',#133,.T.);
#93=FACE_OUTER_BOUND('',#134,.T.);
#94=FACE_OUTER_BOUND('',#135,.T.);
#95=FACE_OUTER_BOUND('',#136,.T.);
#96=EDGE_LOOP('',(#262,#263,#264,#265));
#97=EDGE_LOOP('',(#266,#267,#268,#269));
#98=EDGE_LOOP('',(#270,#271,#272,#273));
#99=EDGE_LOOP('',(#274));
#100=EDGE_LOOP('',(#275,#276,#277,#278));
#101=EDGE_LOOP('',(#279));
#102=EDGE_LOOP('',(#280));
#103=EDGE_LOOP('',(#281));
#104=EDGE_LOOP('',(#282));
#105=EDGE_LOOP('',(#283,#284,#285,#286));
#106=EDGE_LOOP('',(#287,#288,#289,#290));
#107=EDGE_LOOP('',(#291,#292,#293,#294));
#108=EDGE_LOOP('',(#295,#296,#297,#298));
#109=EDGE_LOOP('',(#299,#300,#301,#302));
#110=EDGE_LOOP('',(#303,#304,#305,#306));
#111=EDGE_LOOP('',(#307,#308,#309,#310));
#112=EDGE_LOOP('',(#311,#312,#313,#314));
#113=EDGE_LOOP('',(#315));
#114=EDGE_LOOP('',(#316));
#115=EDGE_LOOP('',(#317));
#116=EDGE_LOOP('',(#318));
#117=EDGE_LOOP('',(#319));
#118=EDGE_LOOP('',(#320));
#119=EDGE_LOOP('',(#321,#322,#323,#324));
#120=EDGE_LOOP('',(#325));
#121=EDGE_LOOP('',(#326));
#122=EDGE_LOOP('',(#327));
#123=EDGE_LOOP('',(#328));
#124=EDGE_LOOP('',(#329));
#125=EDGE_LOOP('',(#330));
#126=EDGE_LOOP('',(#331));
#127=EDGE_LOOP('',(#332));
#128=EDGE_LOOP('',(#333));
#129=EDGE_LOOP('',(#334));
#130=EDGE_LOOP('',(#335));
#131=EDGE_LOOP('',(#336));
#132=EDGE_LOOP('',(#337,#338,#339,#340));
#133=EDGE_LOOP('',(#341,#342,#343,#344));
#134=EDGE_LOOP('',(#345,#346,#347,#348));
#135=EDGE_LOOP('',(#349,#350,#351,#352));
#136=EDGE_LOOP('',(#353));
#137=EDGE_LOOP('',(#354,#355,#356,#357));
#138=LINE('',#579,#160);
#139=LINE('',#581,#161);
#140=LINE('',#583,#162);
#141=LINE('',#584,#163);
#142=LINE('',#587,#164);
#143=LINE('',#589,#165);
#144=LINE('',#590,#166);
#145=LINE('',#594,#167);
#146=LINE('',#595,#168);
#147=LINE('',#596,#169);
#148=LINE('',#612,#170);
#149=LINE('',#616,#171);
#150=LINE('',#620,#172);
#151=LINE('',#624,#173);
#152=LINE('',#629,#174);
#153=LINE('',#635,#175);
#154=LINE('',#641,#176);
#155=LINE('',#647,#177);
#156=LINE('',#655,#178);
#157=LINE('',#667,#179);
#158=LINE('',#669,#180);
#159=LINE('',#674,#181);
#160=VECTOR('',#461,10.);
#161=VECTOR('',#462,10.);
#162=VECTOR('',#463,10.);
#163=VECTOR('',#464,10.);
#164=VECTOR('',#467,10.);
#165=VECTOR('',#468,10.);
#166=VECTOR('',#469,10.);
#167=VECTOR('',#472,10.);
#168=VECTOR('',#473,10.);
#169=VECTOR('',#474,10.);
#170=VECTOR('',#493,1.25);
#171=VECTOR('',#498,1.25);
#172=VECTOR('',#503,1.25);
#173=VECTOR('',#508,1.25);
#174=VECTOR('',#513,1.25);
#175=VECTOR('',#520,1.25);
#176=VECTOR('',#527,1.25);
#177=VECTOR('',#534,1.25);
#178=VECTOR('',#545,18.);
#179=VECTOR('',#560,18.);
#180=VECTOR('',#563,12.);
#181=VECTOR('',#570,12.);
#182=VERTEX_POINT('',#577);
#183=VERTEX_POINT('',#578);
#184=VERTEX_POINT('',#580);
#185=VERTEX_POINT('',#582);
#186=VERTEX_POINT('',#586);
#187=VERTEX_POINT('',#588);
#188=VERTEX_POINT('',#592);
#189=VERTEX_POINT('',#593);
#190=VERTEX_POINT('',#598);
#191=VERTEX_POINT('',#601);
#192=VERTEX_POINT('',#603);
#193=VERTEX_POINT('',#605);
#194=VERTEX_POINT('',#607);
#195=VERTEX_POINT('',#610);
#196=VERTEX_POINT('',#614);
#197=VERTEX_POINT('',#618);
#198=VERTEX_POINT('',#622);
#199=VERTEX_POINT('',#626);
#200=VERTEX_POINT('',#628);
#201=VERTEX_POINT('',#632);
#202=VERTEX_POINT('',#634);
#203=VERTEX_POINT('',#638);
#204=VERTEX_POINT('',#640);
#205=VERTEX_POINT('',#644);
#206=VERTEX_POINT('',#646);
#207=VERTEX_POINT('',#650);
#208=VERTEX_POINT('',#652);
#209=VERTEX_POINT('',#657);
#210=VERTEX_POINT('',#659);
#211=VERTEX_POINT('',#662);
#212=VERTEX_POINT('',#664);
#213=VERTEX_POINT('',#673);
#214=EDGE_CURVE('',#182,#183,#138,.T.);
#215=EDGE_CURVE('',#184,#182,#139,.T.);
#216=EDGE_CURVE('',#184,#185,#140,.T.);
#217=EDGE_CURVE('',#183,#185,#141,.T.);
#218=EDGE_CURVE('',#186,#184,#142,.T.);
#219=EDGE_CURVE('',#186,#187,#143,.T.);
#220=EDGE_CURVE('',#185,#187,#144,.T.);
#221=EDGE_CURVE('',#188,#189,#145,.T.);
#222=EDGE_CURVE('',#187,#188,#146,.T.);
#223=EDGE_CURVE('',#189,#186,#147,.T.);
#224=EDGE_CURVE('',#190,#190,#49,.T.);
#225=EDGE_CURVE('',#188,#183,#50,.T.);
#226=EDGE_CURVE('',#191,#191,#51,.T.);
#227=EDGE_CURVE('',#192,#192,#52,.T.);
#228=EDGE_CURVE('',#193,#193,#53,.T.);
#229=EDGE_CURVE('',#194,#194,#54,.T.);
#230=EDGE_CURVE('',#195,#195,#55,.T.);
#231=EDGE_CURVE('',#195,#194,#148,.T.);
#232=EDGE_CURVE('',#196,#196,#56,.T.);
#233=EDGE_CURVE('',#196,#193,#149,.T.);
#234=EDGE_CURVE('',#197,#197,#57,.T.);
#235=EDGE_CURVE('',#197,#192,#150,.T.);
#236=EDGE_CURVE('',#198,#198,#58,.T.);
#237=EDGE_CURVE('',#198,#191,#151,.T.);
#238=EDGE_CURVE('',#199,#199,#59,.T.);
#239=EDGE_CURVE('',#199,#200,#152,.T.);
#240=EDGE_CURVE('',#200,#200,#60,.T.);
#241=EDGE_CURVE('',#201,#201,#61,.T.);
#242=EDGE_CURVE('',#201,#202,#153,.T.);
#243=EDGE_CURVE('',#202,#202,#62,.T.);
#244=EDGE_CURVE('',#203,#203,#63,.T.);
#245=EDGE_CURVE('',#203,#204,#154,.T.);
#246=EDGE_CURVE('',#204,#204,#64,.T.);
#247=EDGE_CURVE('',#205,#205,#65,.T.);
#248=EDGE_CURVE('',#205,#206,#155,.T.);
#249=EDGE_CURVE('',#206,#206,#66,.T.);
#250=EDGE_CURVE('',#207,#207,#67,.T.);
#251=EDGE_CURVE('',#208,#208,#68,.T.);
#252=EDGE_CURVE('',#190,#207,#156,.T.);
#253=EDGE_CURVE('',#209,#209,#69,.T.);
#254=EDGE_CURVE('',#210,#210,#70,.T.);
#255=EDGE_CURVE('',#211,#211,#71,.T.);
#256=EDGE_CURVE('',#212,#212,#72,.T.);
#257=EDGE_CURVE('',#211,#209,#157,.T.);
#258=EDGE_CURVE('',#208,#212,#158,.T.);
#259=EDGE_CURVE('',#182,#189,#73,.T.);
#260=EDGE_CURVE('',#210,#213,#159,.T.);
#261=EDGE_CURVE('',#213,#213,#74,.T.);
#262=ORIENTED_EDGE('',*,*,#214,.F.);
#263=ORIENTED_EDGE('',*,*,#215,.F.);
#264=ORIENTED_EDGE('',*,*,#216,.T.);
#265=ORIENTED_EDGE('',*,*,#217,.F.);
#266=ORIENTED_EDGE('',*,*,#218,.F.);
#267=ORIENTED_EDGE('',*,*,#219,.T.);
#268=ORIENTED_EDGE('',*,*,#220,.F.);
#269=ORIENTED_EDGE('',*,*,#216,.F.);
#270=ORIENTED_EDGE('',*,*,#221,.F.);
#271=ORIENTED_EDGE('',*,*,#222,.F.);
#272=ORIENTED_EDGE('',*,*,#219,.F.);
#273=ORIENTED_EDGE('',*,*,#223,.F.);
#274=ORIENTED_EDGE('',*,*,#224,.T.);
#275=ORIENTED_EDGE('',*,*,#217,.T.);
#276=ORIENTED_EDGE('',*,*,#220,.T.);
#277=ORIENTED_EDGE('',*,*,#222,.T.);
#278=ORIENTED_EDGE('',*,*,#225,.T.);
#279=ORIENTED_EDGE('',*,*,#226,.T.);
#280=ORIENTED_EDGE('',*,*,#227,.T.);
#281=ORIENTED_EDGE('',*,*,#228,.T.);
#282=ORIENTED_EDGE('',*,*,#229,.T.);
#283=ORIENTED_EDGE('',*,*,#230,.F.);
#284=ORIENTED_EDGE('',*,*,#231,.T.);
#285=ORIENTED_EDGE('',*,*,#229,.F.);
#286=ORIENTED_EDGE('',*,*,#231,.F.);
#287=ORIENTED_EDGE('',*,*,#232,.F.);
#288=ORIENTED_EDGE('',*,*,#233,.T.);
#289=ORIENTED_EDGE('',*,*,#228,.F.);
#290=ORIENTED_EDGE('',*,*,#233,.F.);
#291=ORIENTED_EDGE('',*,*,#234,.F.);
#292=ORIENTED_EDGE('',*,*,#235,.T.);
#293=ORIENTED_EDGE('',*,*,#227,.F.);
#294=ORIENTED_EDGE('',*,*,#235,.F.);
#295=ORIENTED_EDGE('',*,*,#236,.F.);
#296=ORIENTED_EDGE('',*,*,#237,.T.);
#297=ORIENTED_EDGE('',*,*,#226,.F.);
#298=ORIENTED_EDGE('',*,*,#237,.F.);
#299=ORIENTED_EDGE('',*,*,#238,.F.);
#300=ORIENTED_EDGE('',*,*,#239,.T.);
#301=ORIENTED_EDGE('',*,*,#240,.F.);
#302=ORIENTED_EDGE('',*,*,#239,.F.);
#303=ORIENTED_EDGE('',*,*,#241,.F.);
#304=ORIENTED_EDGE('',*,*,#242,.T.);
#305=ORIENTED_EDGE('',*,*,#243,.F.);
#306=ORIENTED_EDGE('',*,*,#242,.F.);
#307=ORIENTED_EDGE('',*,*,#244,.F.);
#308=ORIENTED_EDGE('',*,*,#245,.T.);
#309=ORIENTED_EDGE('',*,*,#246,.F.);
#310=ORIENTED_EDGE('',*,*,#245,.F.);
#311=ORIENTED_EDGE('',*,*,#247,.F.);
#312=ORIENTED_EDGE('',*,*,#248,.T.);
#313=ORIENTED_EDGE('',*,*,#249,.F.);
#314=ORIENTED_EDGE('',*,*,#248,.F.);
#315=ORIENTED_EDGE('',*,*,#250,.T.);
#316=ORIENTED_EDGE('',*,*,#230,.T.);
#317=ORIENTED_EDGE('',*,*,#232,.T.);
#318=ORIENTED_EDGE('',*,*,#234,.T.);
#319=ORIENTED_EDGE('',*,*,#236,.T.);
#320=ORIENTED_EDGE('',*,*,#251,.F.);
#321=ORIENTED_EDGE('',*,*,#224,.F.);
#322=ORIENTED_EDGE('',*,*,#252,.T.);
#323=ORIENTED_EDGE('',*,*,#250,.F.);
#324=ORIENTED_EDGE('',*,*,#252,.F.);
#325=ORIENTED_EDGE('',*,*,#253,.T.);
#326=ORIENTED_EDGE('',*,*,#238,.T.);
#327=ORIENTED_EDGE('',*,*,#241,.T.);
#328=ORIENTED_EDGE('',*,*,#244,.T.);
#329=ORIENTED_EDGE('',*,*,#247,.T.);
#330=ORIENTED_EDGE('',*,*,#254,.F.);
#331=ORIENTED_EDGE('',*,*,#255,.T.);
#332=ORIENTED_EDGE('',*,*,#240,.T.);
#333=ORIENTED_EDGE('',*,*,#243,.T.);
#334=ORIENTED_EDGE('',*,*,#246,.T.);
#335=ORIENTED_EDGE('',*,*,#249,.T.);
#336=ORIENTED_EDGE('',*,*,#256,.F.);
#337=ORIENTED_EDGE('',*,*,#255,.F.);
#338=ORIENTED_EDGE('',*,*,#257,.T.);
#339=ORIENTED_EDGE('',*,*,#253,.F.);
#340=ORIENTED_EDGE('',*,*,#257,.F.);
#341=ORIENTED_EDGE('',*,*,#251,.T.);
#342=ORIENTED_EDGE('',*,*,#258,.T.);
#343=ORIENTED_EDGE('',*,*,#256,.T.);
#344=ORIENTED_EDGE('',*,*,#258,.F.);
#345=ORIENTED_EDGE('',*,*,#214,.T.);
#346=ORIENTED_EDGE('',*,*,#225,.F.);
#347=ORIENTED_EDGE('',*,*,#221,.T.);
#348=ORIENTED_EDGE('',*,*,#259,.F.);
#349=ORIENTED_EDGE('',*,*,#254,.T.);
#350=ORIENTED_EDGE('',*,*,#260,.T.);
#351=ORIENTED_EDGE('',*,*,#261,.F.);
#352=ORIENTED_EDGE('',*,*,#260,.F.);
#353=ORIENTED_EDGE('',*,*,#261,.T.);
#354=ORIENTED_EDGE('',*,*,#215,.T.);
#355=ORIENTED_EDGE('',*,*,#259,.T.);
#356=ORIENTED_EDGE('',*,*,#223,.T.);
#357=ORIENTED_EDGE('',*,*,#218,.T.);
#358=PLANE('',#410);
#359=PLANE('',#411);
#360=PLANE('',#412);
#361=PLANE('',#413);
#362=PLANE('',#440);
#363=PLANE('',#444);
#364=PLANE('',#447);
#365=PLANE('',#456);
#366=ADVANCED_FACE('',(#75),#358,.F.);
#367=ADVANCED_FACE('',(#76),#359,.F.);
#368=ADVANCED_FACE('',(#77),#360,.F.);
#369=ADVANCED_FACE('',(#78,#28,#29,#30,#31,#32),#361,.T.);
#370=ADVANCED_FACE('',(#79),#15,.F.);
#371=ADVANCED_FACE('',(#80),#16,.F.);
#372=ADVANCED_FACE('',(#81),#17,.F.);
#373=ADVANCED_FACE('',(#82),#18,.F.);
#374=ADVANCED_FACE('',(#83),#19,.F.);
#375=ADVANCED_FACE('',(#84),#20,.F.);
#376=ADVANCED_FACE('',(#85),#21,.F.);
#377=ADVANCED_FACE('',(#86),#22,.F.);
#378=ADVANCED_FACE('',(#87,#33,#34,#35,#36,#37),#362,.F.);
#379=ADVANCED_FACE('',(#88),#23,.T.);
#380=ADVANCED_FACE('',(#89,#38,#39,#40,#41,#42),#363,.F.);
#381=ADVANCED_FACE('',(#90,#43,#44,#45,#46,#47),#364,.T.);
#382=ADVANCED_FACE('',(#91),#24,.T.);
#383=ADVANCED_FACE('',(#92),#25,.T.);
#384=ADVANCED_FACE('',(#93),#26,.F.);
#385=ADVANCED_FACE('',(#94),#27,.T.);
#386=ADVANCED_FACE('',(#95,#48),#365,.F.);
#387=CLOSED_SHELL('',(#366,#367,#368,#369,#370,#371,#372,#373,#374,#375,
#376,#377,#378,#379,#380,#381,#382,#383,#384,#385,#386));
#388=DERIVED_UNIT_ELEMENT(#391,1.);
#389=DERIVED_UNIT_ELEMENT(#682,-3.);
#390=DIMENSIONAL_EXPONENTS(0.,1.,0.,0.,0.,0.,0.);
#391=(
CONVERSION_BASED_UNIT('gram',#393)
MASS_UNIT()
NAMED_UNIT(#390)
);
#392=(
MASS_UNIT()
NAMED_UNIT(*)
SI_UNIT(.KILO.,.GRAM.)
);
#393=MASS_MEASURE_WITH_UNIT(MASS_MEASURE(0.001),#392);
#394=DERIVED_UNIT((#388,#389));
#395=MEASURE_REPRESENTATION_ITEM('density measure',
POSITIVE_RATIO_MEASURE(2.7),#394);
#396=PROPERTY_DEFINITION_REPRESENTATION(#401,#398);
#397=PROPERTY_DEFINITION_REPRESENTATION(#402,#399);
#398=REPRESENTATION('material name',(#400),#679);
#399=REPRESENTATION('density',(#395),#679);
#400=DESCRIPTIVE_REPRESENTATION_ITEM('\X2\30A230EB30DF30CB30A630E0\X0\ 
6061','\X2\30A230EB30DF30CB30A630E0\X0\ 6061');
#401=PROPERTY_DEFINITION('material property','material name',#689);
#402=PROPERTY_DEFINITION('material property','density of part',#689);
#403=DATE_TIME_ROLE('creation_date');
#404=APPLIED_DATE_AND_TIME_ASSIGNMENT(#405,#403,(#689));
#405=DATE_AND_TIME(#406,#407);
#406=CALENDAR_DATE(2026,8,10);
#407=LOCAL_TIME(0,0,0.,#408);
#408=COORDINATED_UNIVERSAL_TIME_OFFSET(0,0,.BEHIND.);
#409=AXIS2_PLACEMENT_3D('',#575,#457,#458);
#410=AXIS2_PLACEMENT_3D('',#576,#459,#460);
#411=AXIS2_PLACEMENT_3D('',#585,#465,#466);
#412=AXIS2_PLACEMENT_3D('',#591,#470,#471);
#413=AXIS2_PLACEMENT_3D('',#597,#475,#476);
#414=AXIS2_PLACEMENT_3D('',#599,#477,#478);
#415=AXIS2_PLACEMENT_3D('',#600,#479,#480);
#416=AXIS2_PLACEMENT_3D('',#602,#481,#482);
#417=AXIS2_PLACEMENT_3D('',#604,#483,#484);
#418=AXIS2_PLACEMENT_3D('',#606,#485,#486);
#419=AXIS2_PLACEMENT_3D('',#608,#487,#488);
#420=AXIS2_PLACEMENT_3D('',#609,#489,#490);
#421=AXIS2_PLACEMENT_3D('',#611,#491,#492);
#422=AXIS2_PLACEMENT_3D('',#613,#494,#495);
#423=AXIS2_PLACEMENT_3D('',#615,#496,#497);
#424=AXIS2_PLACEMENT_3D('',#617,#499,#500);
#425=AXIS2_PLACEMENT_3D('',#619,#501,#502);
#426=AXIS2_PLACEMENT_3D('',#621,#504,#505);
#427=AXIS2_PLACEMENT_3D('',#623,#506,#507);
#428=AXIS2_PLACEMENT_3D('',#625,#509,#510);
#429=AXIS2_PLACEMENT_3D('',#627,#511,#512);
#430=AXIS2_PLACEMENT_3D('',#630,#514,#515);
#431=AXIS2_PLACEMENT_3D('',#631,#516,#517);
#432=AXIS2_PLACEMENT_3D('',#633,#518,#519);
#433=AXIS2_PLACEMENT_3D('',#636,#521,#522);
#434=AXIS2_PLACEMENT_3D('',#637,#523,#524);
#435=AXIS2_PLACEMENT_3D('',#639,#525,#526);
#436=AXIS2_PLACEMENT_3D('',#642,#528,#529);
#437=AXIS2_PLACEMENT_3D('',#643,#530,#531);
#438=AXIS2_PLACEMENT_3D('',#645,#532,#533);
#439=AXIS2_PLACEMENT_3D('',#648,#535,#536);
#440=AXIS2_PLACEMENT_3D('',#649,#537,#538);
#441=AXIS2_PLACEMENT_3D('',#651,#539,#540);
#442=AXIS2_PLACEMENT_3D('',#653,#541,#542);
#443=AXIS2_PLACEMENT_3D('',#654,#543,#544);
#444=AXIS2_PLACEMENT_3D('',#656,#546,#547);
#445=AXIS2_PLACEMENT_3D('',#658,#548,#549);
#446=AXIS2_PLACEMENT_3D('',#660,#550,#551);
#447=AXIS2_PLACEMENT_3D('',#661,#552,#553);
#448=AXIS2_PLACEMENT_3D('',#663,#554,#555);
#449=AXIS2_PLACEMENT_3D('',#665,#556,#557);
#450=AXIS2_PLACEMENT_3D('',#666,#558,#559);
#451=AXIS2_PLACEMENT_3D('',#668,#561,#562);
#452=AXIS2_PLACEMENT_3D('',#670,#564,#565);
#453=AXIS2_PLACEMENT_3D('',#671,#566,#567);
#454=AXIS2_PLACEMENT_3D('',#672,#568,#569);
#455=AXIS2_PLACEMENT_3D('',#675,#571,#572);
#456=AXIS2_PLACEMENT_3D('',#676,#573,#574);
#457=DIRECTION('axis',(0.,0.,1.));
#458=DIRECTION('refdir',(1.,0.,0.));
#459=DIRECTION('center_axis',(-1.,0.,0.));
#460=DIRECTION('ref_axis',(0.,-1.,0.));
#461=DIRECTION('',(0.,0.,1.));
#462=DIRECTION('',(0.,-1.,0.));
#463=DIRECTION('',(0.,0.,1.));
#464=DIRECTION('',(0.,1.,0.));
#465=DIRECTION('center_axis',(0.,1.,0.));
#466=DIRECTION('ref_axis',(-1.,0.,0.));
#467=DIRECTION('',(-1.,0.,0.));
#468=DIRECTION('',(0.,0.,1.));
#469=DIRECTION('',(1.,0.,0.));
#470=DIRECTION('center_axis',(1.,0.,0.));
#471=DIRECTION('ref_axis',(0.,1.,0.));
#472=DIRECTION('',(0.,0.,-1.));
#473=DIRECTION('',(0.,-1.,0.));
#474=DIRECTION('',(0.,1.,0.));
#475=DIRECTION('center_axis',(0.,0.,1.));
#476=DIRECTION('ref_axis',(1.,0.,0.));
#477=DIRECTION('center_axis',(0.,0.,1.));
#478=DIRECTION('ref_axis',(-1.,0.,0.));
#479=DIRECTION('center_axis',(0.,0.,-1.));
#480=DIRECTION('ref_axis',(-1.,0.,0.));
#481=DIRECTION('center_axis',(0.,0.,-1.));
#482=DIRECTION('ref_axis',(-1.,0.,0.));
#483=DIRECTION('center_axis',(0.,0.,-1.));
#484=DIRECTION('ref_axis',(-1.,0.,0.));
#485=DIRECTION('center_axis',(0.,0.,-1.));
#486=DIRECTION('ref_axis',(-1.,0.,0.));
#487=DIRECTION('center_axis',(0.,0.,-1.));
#488=DIRECTION('ref_axis',(-1.,0.,0.));
#489=DIRECTION('center_axis',(0.,0.,1.));
#490=DIRECTION('ref_axis',(-1.,0.,0.));
#491=DIRECTION('center_axis',(0.,0.,1.));
#492=DIRECTION('ref_axis',(-1.,0.,0.));
#493=DIRECTION('',(0.,0.,1.));
#494=DIRECTION('center_axis',(0.,0.,1.));
#495=DIRECTION('ref_axis',(-1.,0.,0.));
#496=DIRECTION('center_axis',(0.,0.,1.));
#497=DIRECTION('ref_axis',(-1.,0.,0.));
#498=DIRECTION('',(0.,0.,1.));
#499=DIRECTION('center_axis',(0.,0.,1.));
#500=DIRECTION('ref_axis',(-1.,0.,0.));
#501=DIRECTION('center_axis',(0.,0.,1.));
#502=DIRECTION('ref_axis',(-1.,0.,0.));
#503=DIRECTION('',(0.,0.,1.));
#504=DIRECTION('center_axis',(0.,0.,1.));
#505=DIRECTION('ref_axis',(-1.,0.,0.));
#506=DIRECTION('center_axis',(0.,0.,1.));
#507=DIRECTION('ref_axis',(-1.,0.,0.));
#508=DIRECTION('',(0.,0.,1.));
#509=DIRECTION('center_axis',(0.,0.,1.));
#510=DIRECTION('ref_axis',(-1.,0.,0.));
#511=DIRECTION('center_axis',(0.,0.,1.));
#512=DIRECTION('ref_axis',(-1.,0.,0.));
#513=DIRECTION('',(0.,0.,1.));
#514=DIRECTION('center_axis',(0.,0.,-1.));
#515=DIRECTION('ref_axis',(-1.,0.,0.));
#516=DIRECTION('center_axis',(0.,0.,1.));
#517=DIRECTION('ref_axis',(-1.,0.,0.));
#518=DIRECTION('center_axis',(0.,0.,1.));
#519=DIRECTION('ref_axis',(-1.,0.,0.));
#520=DIRECTION('',(0.,0.,1.));
#521=DIRECTION('center_axis',(0.,0.,-1.));
#522=DIRECTION('ref_axis',(-1.,0.,0.));
#523=DIRECTION('center_axis',(0.,0.,1.));
#524=DIRECTION('ref_axis',(-1.,0.,0.));
#525=DIRECTION('center_axis',(0.,0.,1.));
#526=DIRECTION('ref_axis',(-1.,0.,0.));
#527=DIRECTION('',(0.,0.,1.));
#528=DIRECTION('center_axis',(0.,0.,-1.));
#529=DIRECTION('ref_axis',(-1.,0.,0.));
#530=DIRECTION('center_axis',(0.,0.,1.));
#531=DIRECTION('ref_axis',(-1.,0.,0.));
#532=DIRECTION('center_axis',(0.,0.,1.));
#533=DIRECTION('ref_axis',(-1.,0.,0.));
#534=DIRECTION('',(0.,0.,1.));
#535=DIRECTION('center_axis',(0.,0.,-1.));
#536=DIRECTION('ref_axis',(-1.,0.,0.));
#537=DIRECTION('center_axis',(0.,0.,1.));
#538=DIRECTION('ref_axis',(1.,0.,0.));
#539=DIRECTION('center_axis',(0.,0.,-1.));
#540=DIRECTION('ref_axis',(-1.,0.,0.));
#541=DIRECTION('center_axis',(0.,0.,-1.));
#542=DIRECTION('ref_axis',(-1.,0.,0.));
#543=DIRECTION('center_axis',(0.,0.,1.));
#544=DIRECTION('ref_axis',(-1.,0.,0.));
#545=DIRECTION('',(0.,0.,-1.));
#546=DIRECTION('center_axis',(0.,0.,1.));
#547=DIRECTION('ref_axis',(1.,0.,0.));
#548=DIRECTION('center_axis',(0.,0.,-1.));
#549=DIRECTION('ref_axis',(-1.,0.,0.));
#550=DIRECTION('center_axis',(0.,0.,-1.));
#551=DIRECTION('ref_axis',(-1.,0.,0.));
#552=DIRECTION('center_axis',(0.,0.,1.));
#553=DIRECTION('ref_axis',(1.,0.,0.));
#554=DIRECTION('center_axis',(0.,0.,1.));
#555=DIRECTION('ref_axis',(-1.,0.,0.));
#556=DIRECTION('center_axis',(0.,0.,1.));
#557=DIRECTION('ref_axis',(-1.,0.,0.));
#558=DIRECTION('center_axis',(0.,0.,1.));
#559=DIRECTION('ref_axis',(-1.,0.,0.));
#560=DIRECTION('',(0.,0.,-1.));
#561=DIRECTION('center_axis',(0.,0.,1.));
#562=DIRECTION('ref_axis',(-1.,0.,0.));
#563=DIRECTION('',(0.,0.,-1.));
#564=DIRECTION('center_axis',(0.,0.,1.));
#565=DIRECTION('ref_axis',(-6.12323399573677E-17,-1.,0.));
#566=DIRECTION('center_axis',(0.,0.,1.));
#567=DIRECTION('ref_axis',(-1.,0.,0.));
#568=DIRECTION('center_axis',(0.,0.,1.));
#569=DIRECTION('ref_axis',(-1.,0.,0.));
#570=DIRECTION('',(0.,0.,-1.));
#571=DIRECTION('center_axis',(0.,0.,-1.));
#572=DIRECTION('ref_axis',(-1.,0.,0.));
#573=DIRECTION('center_axis',(0.,0.,1.));
#574=DIRECTION('ref_axis',(1.,0.,0.));
#575=CARTESIAN_POINT('',(0.,0.,0.));
#576=CARTESIAN_POINT('Origin',(-1.5,7.,36.5));
#577=CARTESIAN_POINT('',(-1.5,4.76969600708473,36.5));
#578=CARTESIAN_POINT('',(-1.5,4.76969600708473,49.5));
#579=CARTESIAN_POINT('',(-1.5,4.76969600708473,36.5));
#580=CARTESIAN_POINT('',(-1.5,7.,36.5));
#581=CARTESIAN_POINT('',(-1.5,3.5,36.5));
#582=CARTESIAN_POINT('',(-1.5,7.,49.5));
#583=CARTESIAN_POINT('',(-1.5,7.,36.5));
#584=CARTESIAN_POINT('',(-1.5,3.5,49.5));
#585=CARTESIAN_POINT('Origin',(1.5,7.,36.5));
#586=CARTESIAN_POINT('',(1.5,7.,36.5));
#587=CARTESIAN_POINT('',(0.75,7.,36.5));
#588=CARTESIAN_POINT('',(1.5,7.,49.5));
#589=CARTESIAN_POINT('',(1.5,7.,36.5));
#590=CARTESIAN_POINT('',(0.75,7.,49.5));
#591=CARTESIAN_POINT('Origin',(1.5,4.,36.5));
#592=CARTESIAN_POINT('',(1.5,4.76969600708473,49.5));
#593=CARTESIAN_POINT('',(1.5,4.76969600708473,36.5));
#594=CARTESIAN_POINT('',(1.5,4.76969600708473,36.5));
#595=CARTESIAN_POINT('',(1.5,2.,49.5));
#596=CARTESIAN_POINT('',(1.5,2.,36.5));
#597=CARTESIAN_POINT('Origin',(-7.39255249150933E-16,0.,49.5));
#598=CARTESIAN_POINT('',(18.,2.20436423846524E-15,49.5));
#599=CARTESIAN_POINT('Origin',(0.,0.,49.5));
#600=CARTESIAN_POINT('Origin',(0.,0.,49.5));
#601=CARTESIAN_POINT('',(15.25,1.53080849893419E-16,49.5));
#602=CARTESIAN_POINT('Origin',(14.,0.,49.5));
#603=CARTESIAN_POINT('',(1.25,14.,49.5));
#604=CARTESIAN_POINT('Origin',(8.57252759403147E-16,14.,49.5));
#605=CARTESIAN_POINT('',(-12.75,1.86758636869971E-15,49.5));
#606=CARTESIAN_POINT('Origin',(-14.,1.71450551880629E-15,49.5));
#607=CARTESIAN_POINT('',(1.25,-14.,49.5));
#608=CARTESIAN_POINT('Origin',(-2.57175827820944E-15,-14.,49.5));
#609=CARTESIAN_POINT('Origin',(-2.57175827820944E-15,-14.,46.5));
#610=CARTESIAN_POINT('',(1.25,-14.,46.5));
#611=CARTESIAN_POINT('Origin',(-2.57175827820944E-15,-14.,46.5));
#612=CARTESIAN_POINT('',(1.25,-14.,46.5));
#613=CARTESIAN_POINT('Origin',(-14.,1.71450551880629E-15,46.5));
#614=CARTESIAN_POINT('',(-12.75,1.86758636869971E-15,46.5));
#615=CARTESIAN_POINT('Origin',(-14.,1.71450551880629E-15,46.5));
#616=CARTESIAN_POINT('',(-12.75,1.86758636869971E-15,46.5));
#617=CARTESIAN_POINT('Origin',(8.57252759403147E-16,14.,46.5));
#618=CARTESIAN_POINT('',(1.25,14.,46.5));
#619=CARTESIAN_POINT('Origin',(8.57252759403147E-16,14.,46.5));
#620=CARTESIAN_POINT('',(1.25,14.,46.5));
#621=CARTESIAN_POINT('Origin',(14.,0.,46.5));
#622=CARTESIAN_POINT('',(15.25,1.53080849893419E-16,46.5));
#623=CARTESIAN_POINT('Origin',(14.,0.,46.5));
#624=CARTESIAN_POINT('',(15.25,1.53080849893419E-16,46.5));
#625=CARTESIAN_POINT('Origin',(-2.93915231795365E-15,-16.,39.));
#626=CARTESIAN_POINT('',(1.25,-16.,39.));
#627=CARTESIAN_POINT('Origin',(-2.93915231795365E-15,-16.,39.));
#628=CARTESIAN_POINT('',(1.25,-16.,42.));
#629=CARTESIAN_POINT('',(1.25,-16.,39.));
#630=CARTESIAN_POINT('Origin',(-2.93915231795365E-15,-16.,42.));
#631=CARTESIAN_POINT('Origin',(-16.,1.95943487863577E-15,39.));
#632=CARTESIAN_POINT('',(-14.75,2.11251572852918E-15,39.));
#633=CARTESIAN_POINT('Origin',(-16.,1.95943487863577E-15,39.));
#634=CARTESIAN_POINT('',(-14.75,2.11251572852918E-15,42.));
#635=CARTESIAN_POINT('',(-14.75,2.11251572852918E-15,39.));
#636=CARTESIAN_POINT('Origin',(-16.,1.95943487863577E-15,42.));
#637=CARTESIAN_POINT('Origin',(9.79717439317883E-16,16.,39.));
#638=CARTESIAN_POINT('',(1.25,16.,39.));
#639=CARTESIAN_POINT('Origin',(9.79717439317883E-16,16.,39.));
#640=CARTESIAN_POINT('',(1.25,16.,42.));
#641=CARTESIAN_POINT('',(1.25,16.,39.));
#642=CARTESIAN_POINT('Origin',(9.79717439317883E-16,16.,42.));
#643=CARTESIAN_POINT('Origin',(16.,0.,39.));
#644=CARTESIAN_POINT('',(17.25,1.53080849893419E-16,39.));
#645=CARTESIAN_POINT('Origin',(16.,0.,39.));
#646=CARTESIAN_POINT('',(17.25,1.53080849893419E-16,42.));
#647=CARTESIAN_POINT('',(17.25,1.53080849893419E-16,39.));
#648=CARTESIAN_POINT('Origin',(16.,0.,42.));
#649=CARTESIAN_POINT('Origin',(-1.00608444552037E-15,0.,46.5));
#650=CARTESIAN_POINT('',(18.,2.20436423846524E-15,46.5));
#651=CARTESIAN_POINT('Origin',(0.,0.,46.5));
#652=CARTESIAN_POINT('',(12.,-1.46957615897682E-15,46.5));
#653=CARTESIAN_POINT('Origin',(0.,0.,46.5));
#654=CARTESIAN_POINT('Origin',(0.,0.,46.5));
#655=CARTESIAN_POINT('',(18.,2.20436423846524E-15,46.5));
#656=CARTESIAN_POINT('Origin',(-1.00608444552037E-15,0.,39.));
#657=CARTESIAN_POINT('',(18.,2.20436423846524E-15,39.));
#658=CARTESIAN_POINT('Origin',(0.,0.,39.));
#659=CARTESIAN_POINT('',(12.,-1.46957615897682E-15,39.));
#660=CARTESIAN_POINT('Origin',(0.,0.,39.));
#661=CARTESIAN_POINT('Origin',(-1.00608444552037E-15,0.,42.));
#662=CARTESIAN_POINT('',(18.,2.20436423846524E-15,42.));
#663=CARTESIAN_POINT('Origin',(0.,0.,42.));
#664=CARTESIAN_POINT('',(12.,1.46957615897682E-15,42.));
#665=CARTESIAN_POINT('Origin',(0.,0.,42.));
#666=CARTESIAN_POINT('Origin',(0.,0.,39.));
#667=CARTESIAN_POINT('',(18.,2.20436423846524E-15,39.));
#668=CARTESIAN_POINT('Origin',(0.,0.,36.5));
#669=CARTESIAN_POINT('',(12.,1.46957615897682E-15,36.5));
#670=CARTESIAN_POINT('Origin',(0.,0.,36.5));
#671=CARTESIAN_POINT('Origin',(0.,0.,36.5));
#672=CARTESIAN_POINT('Origin',(0.,0.,36.5));
#673=CARTESIAN_POINT('',(12.,1.46957615897682E-15,36.5));
#674=CARTESIAN_POINT('',(12.,1.46957615897682E-15,36.5));
#675=CARTESIAN_POINT('Origin',(0.,0.,36.5));
#676=CARTESIAN_POINT('Origin',(-7.39255249150933E-16,0.,36.5));
#677=UNCERTAINTY_MEASURE_WITH_UNIT(LENGTH_MEASURE(0.01),#681,
'DISTANCE_ACCURACY_VALUE',
'Maximum model space distance between geometric entities at asserted c
onnectivities');
#678=UNCERTAINTY_MEASURE_WITH_UNIT(LENGTH_MEASURE(0.01),#681,
'DISTANCE_ACCURACY_VALUE',
'Maximum model space distance between geometric entities at asserted c
onnectivities');
#679=(
GEOMETRIC_REPRESENTATION_CONTEXT(3)
GLOBAL_UNCERTAINTY_ASSIGNED_CONTEXT((#677))
GLOBAL_UNIT_ASSIGNED_CONTEXT((#681,#683,#684))
REPRESENTATION_CONTEXT('','3D')
);
#680=(
GEOMETRIC_REPRESENTATION_CONTEXT(3)
GLOBAL_UNCERTAINTY_ASSIGNED_CONTEXT((#678))
GLOBAL_UNIT_ASSIGNED_CONTEXT((#681,#683,#684))
REPRESENTATION_CONTEXT('','3D')
);
#681=(
LENGTH_UNIT()
NAMED_UNIT(*)
SI_UNIT(.MILLI.,.METRE.)
);
#682=(
LENGTH_UNIT()
NAMED_UNIT(*)
SI_UNIT(.CENTI.,.METRE.)
);
#683=(
NAMED_UNIT(*)
PLANE_ANGLE_UNIT()
SI_UNIT($,.RADIAN.)
);
#684=(
NAMED_UNIT(*)
SI_UNIT($,.STERADIAN.)
SOLID_ANGLE_UNIT()
);
#685=SHAPE_DEFINITION_REPRESENTATION(#686,#687);
#686=PRODUCT_DEFINITION_SHAPE('',$,#689);
#687=SHAPE_REPRESENTATION('',(#409),#679);
#688=PRODUCT_DEFINITION_CONTEXT('part definition',#693,'design');
#689=PRODUCT_DEFINITION('02_Wheel_Hub','02_Wheel_Hub',#690,#688);
#690=PRODUCT_DEFINITION_FORMATION('',$,#695);
#691=PRODUCT_RELATED_PRODUCT_CATEGORY('02_Wheel_Hub','02_Wheel_Hub',(#695));
#692=APPLICATION_PROTOCOL_DEFINITION('international standard',
'automotive_design',2009,#693);
#693=APPLICATION_CONTEXT(
'Core Data for Automotive Mechanical Design Process');
#694=PRODUCT_CONTEXT('part definition',#693,'mechanical');
#695=PRODUCT('02_Wheel_Hub','02_Wheel_Hub',$,(#694));
#696=PRESENTATION_STYLE_ASSIGNMENT((#697));
#697=SURFACE_STYLE_USAGE(.BOTH.,#700);
#698=SURFACE_STYLE_RENDERING_WITH_PROPERTIES($,#704,(#699));
#699=SURFACE_STYLE_TRANSPARENT(0.);
#700=SURFACE_SIDE_STYLE('',(#701,#698));
#701=SURFACE_STYLE_FILL_AREA(#702);
#702=FILL_AREA_STYLE('',(#703));
#703=FILL_AREA_STYLE_COLOUR('',#704);
#704=COLOUR_RGB('',0.996078431372549,0.996078431372549,1.);
ENDSEC;
END-ISO-10303-21;
