ISO-10303-21;
HEADER;
/* Generated by software containing ST-Developer
 * from STEP Tools, Inc. (www.steptools.com) 
 */

FILE_DESCRIPTION(
/* description */ (''),
/* implementation_level */ '2;1');

FILE_NAME(
/* name */ '03_Wheel_Spokes.step',
/* time_stamp */ '2026-10-08T17:08:34+09:00',
/* author */ ('Reaction Wheel Pendulum project'),
/* organization */ (''),
/* preprocessor_version */ 'ST-DEVELOPER v20.1',
/* originating_system */ 'Autodesk Inventor 2026',
/* authorisation */ '');

FILE_SCHEMA (('AUTOMOTIVE_DESIGN { 1 0 10303 214 3 1 1 }'));
ENDSEC;

DATA;
#10=MECHANICAL_DESIGN_GEOMETRIC_PRESENTATION_REPRESENTATION('',(#13),#1585);
#11=SHAPE_REPRESENTATION_RELATIONSHIP('SRR','None',#1592,#12);
#12=ADVANCED_BREP_SHAPE_REPRESENTATION('',(#14),#1584);
#13=STYLED_ITEM('',(#1601),#14);
#14=MANIFOLD_SOLID_BREP('\X2\30BD30EA30C330C9\X0\1',#940);
#15=FACE_BOUND('',#144,.T.);
#16=FACE_BOUND('',#145,.T.);
#17=FACE_BOUND('',#146,.T.);
#18=FACE_BOUND('',#147,.T.);
#19=FACE_BOUND('',#148,.T.);
#20=FACE_BOUND('',#149,.T.);
#21=FACE_BOUND('',#150,.T.);
#22=FACE_BOUND('',#151,.T.);
#23=FACE_BOUND('',#152,.T.);
#24=FACE_BOUND('',#153,.T.);
#25=FACE_BOUND('',#154,.T.);
#26=FACE_BOUND('',#155,.T.);
#27=FACE_BOUND('',#156,.T.);
#28=FACE_BOUND('',#157,.T.);
#29=FACE_BOUND('',#158,.T.);
#30=FACE_BOUND('',#171,.T.);
#31=FACE_BOUND('',#172,.T.);
#32=FACE_BOUND('',#173,.T.);
#33=FACE_BOUND('',#174,.T.);
#34=FACE_BOUND('',#175,.T.);
#35=FACE_BOUND('',#176,.T.);
#36=FACE_BOUND('',#177,.T.);
#37=FACE_BOUND('',#178,.T.);
#38=FACE_BOUND('',#179,.T.);
#39=FACE_BOUND('',#180,.T.);
#40=FACE_BOUND('',#181,.T.);
#41=FACE_BOUND('',#182,.T.);
#42=FACE_BOUND('',#183,.T.);
#43=FACE_BOUND('',#184,.T.);
#44=FACE_BOUND('',#185,.T.);
#45=PLANE('',#1008);
#46=PLANE('',#1009);
#47=PLANE('',#1010);
#48=PLANE('',#1011);
#49=PLANE('',#1012);
#50=PLANE('',#1013);
#51=PLANE('',#1014);
#52=PLANE('',#1015);
#53=PLANE('',#1016);
#54=PLANE('',#1017);
#55=PLANE('',#1018);
#56=PLANE('',#1019);
#57=PLANE('',#1020);
#58=PLANE('',#1030);
#59=PLANE('',#1042);
#60=PLANE('',#1043);
#61=PLANE('',#1044);
#62=PLANE('',#1045);
#63=PLANE('',#1046);
#64=PLANE('',#1047);
#65=PLANE('',#1048);
#66=PLANE('',#1051);
#67=FACE_OUTER_BOUND('',#112,.T.);
#68=FACE_OUTER_BOUND('',#113,.T.);
#69=FACE_OUTER_BOUND('',#114,.T.);
#70=FACE_OUTER_BOUND('',#115,.T.);
#71=FACE_OUTER_BOUND('',#116,.T.);
#72=FACE_OUTER_BOUND('',#117,.T.);
#73=FACE_OUTER_BOUND('',#118,.T.);
#74=FACE_OUTER_BOUND('',#119,.T.);
#75=FACE_OUTER_BOUND('',#120,.T.);
#76=FACE_OUTER_BOUND('',#121,.T.);
#77=FACE_OUTER_BOUND('',#122,.T.);
#78=FACE_OUTER_BOUND('',#123,.T.);
#79=FACE_OUTER_BOUND('',#124,.T.);
#80=FACE_OUTER_BOUND('',#125,.T.);
#81=FACE_OUTER_BOUND('',#126,.T.);
#82=FACE_OUTER_BOUND('',#127,.T.);
#83=FACE_OUTER_BOUND('',#128,.T.);
#84=FACE_OUTER_BOUND('',#129,.T.);
#85=FACE_OUTER_BOUND('',#130,.T.);
#86=FACE_OUTER_BOUND('',#131,.T.);
#87=FACE_OUTER_BOUND('',#132,.T.);
#88=FACE_OUTER_BOUND('',#133,.T.);
#89=FACE_OUTER_BOUND('',#134,.T.);
#90=FACE_OUTER_BOUND('',#135,.T.);
#91=FACE_OUTER_BOUND('',#136,.T.);
#92=FACE_OUTER_BOUND('',#137,.T.);
#93=FACE_OUTER_BOUND('',#138,.T.);
#94=FACE_OUTER_BOUND('',#139,.T.);
#95=FACE_OUTER_BOUND('',#140,.T.);
#96=FACE_OUTER_BOUND('',#141,.T.);
#97=FACE_OUTER_BOUND('',#142,.T.);
#98=FACE_OUTER_BOUND('',#143,.T.);
#99=FACE_OUTER_BOUND('',#159,.T.);
#100=FACE_OUTER_BOUND('',#160,.T.);
#101=FACE_OUTER_BOUND('',#161,.T.);
#102=FACE_OUTER_BOUND('',#162,.T.);
#103=FACE_OUTER_BOUND('',#163,.T.);
#104=FACE_OUTER_BOUND('',#164,.T.);
#105=FACE_OUTER_BOUND('',#165,.T.);
#106=FACE_OUTER_BOUND('',#166,.T.);
#107=FACE_OUTER_BOUND('',#167,.T.);
#108=FACE_OUTER_BOUND('',#168,.T.);
#109=FACE_OUTER_BOUND('',#169,.T.);
#110=FACE_OUTER_BOUND('',#170,.T.);
#111=FACE_OUTER_BOUND('',#186,.T.);
#112=EDGE_LOOP('',(#614,#615,#616,#617));
#113=EDGE_LOOP('',(#618,#619,#620,#621));
#114=EDGE_LOOP('',(#622,#623,#624,#625));
#115=EDGE_LOOP('',(#626,#627,#628,#629));
#116=EDGE_LOOP('',(#630,#631,#632,#633));
#117=EDGE_LOOP('',(#634,#635,#636,#637));
#118=EDGE_LOOP('',(#638,#639,#640,#641));
#119=EDGE_LOOP('',(#642,#643,#644,#645));
#120=EDGE_LOOP('',(#646,#647,#648,#649));
#121=EDGE_LOOP('',(#650,#651,#652,#653));
#122=EDGE_LOOP('',(#654,#655,#656,#657));
#123=EDGE_LOOP('',(#658,#659,#660,#661));
#124=EDGE_LOOP('',(#662,#663,#664,#665));
#125=EDGE_LOOP('',(#666,#667,#668,#669));
#126=EDGE_LOOP('',(#670,#671,#672,#673));
#127=EDGE_LOOP('',(#674,#675,#676,#677));
#128=EDGE_LOOP('',(#678,#679,#680,#681));
#129=EDGE_LOOP('',(#682,#683,#684,#685));
#130=EDGE_LOOP('',(#686,#687,#688,#689));
#131=EDGE_LOOP('',(#690,#691,#692,#693));
#132=EDGE_LOOP('',(#694,#695,#696,#697));
#133=EDGE_LOOP('',(#698,#699,#700,#701));
#134=EDGE_LOOP('',(#702,#703,#704,#705));
#135=EDGE_LOOP('',(#706,#707,#708,#709));
#136=EDGE_LOOP('',(#710,#711,#712,#713));
#137=EDGE_LOOP('',(#714,#715,#716,#717));
#138=EDGE_LOOP('',(#718,#719,#720,#721));
#139=EDGE_LOOP('',(#722,#723,#724,#725));
#140=EDGE_LOOP('',(#726,#727,#728,#729));
#141=EDGE_LOOP('',(#730,#731,#732,#733));
#142=EDGE_LOOP('',(#734,#735,#736,#737));
#143=EDGE_LOOP('',(#738,#739,#740,#741,#742,#743,#744,#745,#746,#747,#748,
#749,#750,#751,#752,#753));
#144=EDGE_LOOP('',(#754));
#145=EDGE_LOOP('',(#755));
#146=EDGE_LOOP('',(#756));
#147=EDGE_LOOP('',(#757));
#148=EDGE_LOOP('',(#758));
#149=EDGE_LOOP('',(#759));
#150=EDGE_LOOP('',(#760));
#151=EDGE_LOOP('',(#761));
#152=EDGE_LOOP('',(#762));
#153=EDGE_LOOP('',(#763));
#154=EDGE_LOOP('',(#764));
#155=EDGE_LOOP('',(#765,#766,#767,#768));
#156=EDGE_LOOP('',(#769,#770,#771,#772));
#157=EDGE_LOOP('',(#773,#774,#775,#776));
#158=EDGE_LOOP('',(#777,#778,#779,#780));
#159=EDGE_LOOP('',(#781,#782,#783,#784));
#160=EDGE_LOOP('',(#785,#786,#787,#788));
#161=EDGE_LOOP('',(#789,#790,#791,#792));
#162=EDGE_LOOP('',(#793,#794,#795,#796));
#163=EDGE_LOOP('',(#797,#798,#799,#800));
#164=EDGE_LOOP('',(#801,#802,#803,#804));
#165=EDGE_LOOP('',(#805,#806,#807,#808));
#166=EDGE_LOOP('',(#809,#810,#811,#812));
#167=EDGE_LOOP('',(#813,#814,#815,#816));
#168=EDGE_LOOP('',(#817,#818,#819,#820));
#169=EDGE_LOOP('',(#821,#822,#823,#824));
#170=EDGE_LOOP('',(#825,#826,#827,#828,#829,#830,#831,#832,#833,#834,#835,
#836,#837,#838,#839,#840));
#171=EDGE_LOOP('',(#841));
#172=EDGE_LOOP('',(#842));
#173=EDGE_LOOP('',(#843));
#174=EDGE_LOOP('',(#844));
#175=EDGE_LOOP('',(#845));
#176=EDGE_LOOP('',(#846));
#177=EDGE_LOOP('',(#847));
#178=EDGE_LOOP('',(#848));
#179=EDGE_LOOP('',(#849));
#180=EDGE_LOOP('',(#850));
#181=EDGE_LOOP('',(#851));
#182=EDGE_LOOP('',(#852,#853,#854,#855));
#183=EDGE_LOOP('',(#856,#857,#858,#859));
#184=EDGE_LOOP('',(#860,#861,#862,#863));
#185=EDGE_LOOP('',(#864,#865,#866,#867));
#186=EDGE_LOOP('',(#868,#869,#870,#871));
#187=LINE('',#1326,#270);
#188=LINE('',#1332,#271);
#189=LINE('',#1338,#272);
#190=LINE('',#1344,#273);
#191=LINE('',#1350,#274);
#192=LINE('',#1356,#275);
#193=LINE('',#1362,#276);
#194=LINE('',#1368,#277);
#195=LINE('',#1374,#278);
#196=LINE('',#1380,#279);
#197=LINE('',#1386,#280);
#198=LINE('',#1391,#281);
#199=LINE('',#1395,#282);
#200=LINE('',#1400,#283);
#201=LINE('',#1404,#284);
#202=LINE('',#1409,#285);
#203=LINE('',#1413,#286);
#204=LINE('',#1418,#287);
#205=LINE('',#1422,#288);
#206=LINE('',#1426,#289);
#207=LINE('',#1428,#290);
#208=LINE('',#1429,#291);
#209=LINE('',#1432,#292);
#210=LINE('',#1434,#293);
#211=LINE('',#1435,#294);
#212=LINE('',#1438,#295);
#213=LINE('',#1440,#296);
#214=LINE('',#1441,#297);
#215=LINE('',#1444,#298);
#216=LINE('',#1446,#299);
#217=LINE('',#1447,#300);
#218=LINE('',#1451,#301);
#219=LINE('',#1453,#302);
#220=LINE('',#1455,#303);
#221=LINE('',#1456,#304);
#222=LINE('',#1460,#305);
#223=LINE('',#1462,#306);
#224=LINE('',#1464,#307);
#225=LINE('',#1465,#308);
#226=LINE('',#1469,#309);
#227=LINE('',#1470,#310);
#228=LINE('',#1471,#311);
#229=LINE('',#1474,#312);
#230=LINE('',#1476,#313);
#231=LINE('',#1477,#314);
#232=LINE('',#1481,#315);
#233=LINE('',#1483,#316);
#234=LINE('',#1485,#317);
#235=LINE('',#1486,#318);
#236=LINE('',#1489,#319);
#237=LINE('',#1491,#320);
#238=LINE('',#1492,#321);
#239=LINE('',#1496,#322);
#240=LINE('',#1497,#323);
#241=LINE('',#1498,#324);
#242=LINE('',#1500,#325);
#243=LINE('',#1501,#326);
#244=LINE('',#1504,#327);
#245=LINE('',#1506,#328);
#246=LINE('',#1507,#329);
#247=LINE('',#1518,#330);
#248=LINE('',#1522,#331);
#249=LINE('',#1524,#332);
#250=LINE('',#1526,#333);
#251=LINE('',#1531,#334);
#252=LINE('',#1533,#335);
#253=LINE('',#1535,#336);
#254=LINE('',#1539,#337);
#255=LINE('',#1545,#338);
#256=LINE('',#1550,#339);
#257=LINE('',#1554,#340);
#258=LINE('',#1555,#341);
#259=LINE('',#1556,#342);
#260=LINE('',#1559,#343);
#261=LINE('',#1561,#344);
#262=LINE('',#1562,#345);
#263=LINE('',#1564,#346);
#264=LINE('',#1567,#347);
#265=LINE('',#1568,#348);
#266=LINE('',#1570,#349);
#267=LINE('',#1572,#350);
#268=LINE('',#1575,#351);
#269=LINE('',#1576,#352);
#270=VECTOR('',#1060,1.6);
#271=VECTOR('',#1067,1.6);
#272=VECTOR('',#1074,1.6);
#273=VECTOR('',#1081,1.6);
#274=VECTOR('',#1088,1.6);
#275=VECTOR('',#1095,1.6);
#276=VECTOR('',#1102,1.6);
#277=VECTOR('',#1109,1.6);
#278=VECTOR('',#1116,1.6);
#279=VECTOR('',#1123,1.6);
#280=VECTOR('',#1130,5.);
#281=VECTOR('',#1135,10.);
#282=VECTOR('',#1138,10.);
#283=VECTOR('',#1143,10.);
#284=VECTOR('',#1146,10.);
#285=VECTOR('',#1151,10.);
#286=VECTOR('',#1154,10.);
#287=VECTOR('',#1159,10.);
#288=VECTOR('',#1162,10.);
#289=VECTOR('',#1167,10.);
#290=VECTOR('',#1168,10.);
#291=VECTOR('',#1169,10.);
#292=VECTOR('',#1172,10.);
#293=VECTOR('',#1173,10.);
#294=VECTOR('',#1174,10.);
#295=VECTOR('',#1177,10.);
#296=VECTOR('',#1178,10.);
#297=VECTOR('',#1179,10.);
#298=VECTOR('',#1182,10.);
#299=VECTOR('',#1183,10.);
#300=VECTOR('',#1184,10.);
#301=VECTOR('',#1187,10.);
#302=VECTOR('',#1188,10.);
#303=VECTOR('',#1189,10.);
#304=VECTOR('',#1190,10.);
#305=VECTOR('',#1193,10.);
#306=VECTOR('',#1194,10.);
#307=VECTOR('',#1195,10.);
#308=VECTOR('',#1196,10.);
#309=VECTOR('',#1199,10.);
#310=VECTOR('',#1200,10.);
#311=VECTOR('',#1201,10.);
#312=VECTOR('',#1204,10.);
#313=VECTOR('',#1205,10.);
#314=VECTOR('',#1206,10.);
#315=VECTOR('',#1209,10.);
#316=VECTOR('',#1210,10.);
#317=VECTOR('',#1211,10.);
#318=VECTOR('',#1212,10.);
#319=VECTOR('',#1215,10.);
#320=VECTOR('',#1216,10.);
#321=VECTOR('',#1217,10.);
#322=VECTOR('',#1220,10.);
#323=VECTOR('',#1221,10.);
#324=VECTOR('',#1222,10.);
#325=VECTOR('',#1225,10.);
#326=VECTOR('',#1226,10.);
#327=VECTOR('',#1229,10.);
#328=VECTOR('',#1230,10.);
#329=VECTOR('',#1231,10.);
#330=VECTOR('',#1248,10.);
#331=VECTOR('',#1253,10.);
#332=VECTOR('',#1254,10.);
#333=VECTOR('',#1255,10.);
#334=VECTOR('',#1260,10.);
#335=VECTOR('',#1261,10.);
#336=VECTOR('',#1262,10.);
#337=VECTOR('',#1267,10.);
#338=VECTOR('',#1276,10.);
#339=VECTOR('',#1283,10.);
#340=VECTOR('',#1286,10.);
#341=VECTOR('',#1287,10.);
#342=VECTOR('',#1288,10.);
#343=VECTOR('',#1291,10.);
#344=VECTOR('',#1292,10.);
#345=VECTOR('',#1293,10.);
#346=VECTOR('',#1296,10.);
#347=VECTOR('',#1299,10.);
#348=VECTOR('',#1300,10.);
#349=VECTOR('',#1303,10.);
#350=VECTOR('',#1306,10.);
#351=VECTOR('',#1309,10.);
#352=VECTOR('',#1310,10.);
#353=CIRCLE('',#964,1.6);
#354=CIRCLE('',#965,1.6);
#355=CIRCLE('',#967,1.6);
#356=CIRCLE('',#968,1.6);
#357=CIRCLE('',#970,1.6);
#358=CIRCLE('',#971,1.6);
#359=CIRCLE('',#973,1.6);
#360=CIRCLE('',#974,1.6);
#361=CIRCLE('',#976,1.6);
#362=CIRCLE('',#977,1.6);
#363=CIRCLE('',#979,1.6);
#364=CIRCLE('',#980,1.6);
#365=CIRCLE('',#982,1.6);
#366=CIRCLE('',#983,1.6);
#367=CIRCLE('',#985,1.6);
#368=CIRCLE('',#986,1.6);
#369=CIRCLE('',#988,1.6);
#370=CIRCLE('',#989,1.6);
#371=CIRCLE('',#991,1.6);
#372=CIRCLE('',#992,1.6);
#373=CIRCLE('',#994,5.);
#374=CIRCLE('',#995,5.);
#375=CIRCLE('',#997,18.);
#376=CIRCLE('',#998,18.);
#377=CIRCLE('',#1000,18.);
#378=CIRCLE('',#1001,18.);
#379=CIRCLE('',#1003,18.);
#380=CIRCLE('',#1004,18.);
#381=CIRCLE('',#1006,18.);
#382=CIRCLE('',#1007,18.);
#383=CIRCLE('',#1022,68.);
#384=CIRCLE('',#1023,68.);
#385=CIRCLE('',#1025,68.);
#386=CIRCLE('',#1026,68.);
#387=CIRCLE('',#1028,74.);
#388=CIRCLE('',#1029,74.);
#389=CIRCLE('',#1031,74.);
#390=CIRCLE('',#1032,74.);
#391=CIRCLE('',#1033,74.);
#392=CIRCLE('',#1034,68.);
#393=CIRCLE('',#1035,68.);
#394=CIRCLE('',#1037,68.);
#395=CIRCLE('',#1039,74.);
#396=CIRCLE('',#1041,74.);
#397=CIRCLE('',#1050,68.);
#398=CIRCLE('',#1052,74.);
#399=VERTEX_POINT('',#1323);
#400=VERTEX_POINT('',#1325);
#401=VERTEX_POINT('',#1329);
#402=VERTEX_POINT('',#1331);
#403=VERTEX_POINT('',#1335);
#404=VERTEX_POINT('',#1337);
#405=VERTEX_POINT('',#1341);
#406=VERTEX_POINT('',#1343);
#407=VERTEX_POINT('',#1347);
#408=VERTEX_POINT('',#1349);
#409=VERTEX_POINT('',#1353);
#410=VERTEX_POINT('',#1355);
#411=VERTEX_POINT('',#1359);
#412=VERTEX_POINT('',#1361);
#413=VERTEX_POINT('',#1365);
#414=VERTEX_POINT('',#1367);
#415=VERTEX_POINT('',#1371);
#416=VERTEX_POINT('',#1373);
#417=VERTEX_POINT('',#1377);
#418=VERTEX_POINT('',#1379);
#419=VERTEX_POINT('',#1383);
#420=VERTEX_POINT('',#1385);
#421=VERTEX_POINT('',#1389);
#422=VERTEX_POINT('',#1390);
#423=VERTEX_POINT('',#1392);
#424=VERTEX_POINT('',#1394);
#425=VERTEX_POINT('',#1398);
#426=VERTEX_POINT('',#1399);
#427=VERTEX_POINT('',#1401);
#428=VERTEX_POINT('',#1403);
#429=VERTEX_POINT('',#1407);
#430=VERTEX_POINT('',#1408);
#431=VERTEX_POINT('',#1410);
#432=VERTEX_POINT('',#1412);
#433=VERTEX_POINT('',#1416);
#434=VERTEX_POINT('',#1417);
#435=VERTEX_POINT('',#1419);
#436=VERTEX_POINT('',#1421);
#437=VERTEX_POINT('',#1425);
#438=VERTEX_POINT('',#1427);
#439=VERTEX_POINT('',#1431);
#440=VERTEX_POINT('',#1433);
#441=VERTEX_POINT('',#1437);
#442=VERTEX_POINT('',#1439);
#443=VERTEX_POINT('',#1443);
#444=VERTEX_POINT('',#1445);
#445=VERTEX_POINT('',#1449);
#446=VERTEX_POINT('',#1450);
#447=VERTEX_POINT('',#1452);
#448=VERTEX_POINT('',#1454);
#449=VERTEX_POINT('',#1458);
#450=VERTEX_POINT('',#1459);
#451=VERTEX_POINT('',#1461);
#452=VERTEX_POINT('',#1463);
#453=VERTEX_POINT('',#1467);
#454=VERTEX_POINT('',#1468);
#455=VERTEX_POINT('',#1473);
#456=VERTEX_POINT('',#1475);
#457=VERTEX_POINT('',#1479);
#458=VERTEX_POINT('',#1480);
#459=VERTEX_POINT('',#1482);
#460=VERTEX_POINT('',#1484);
#461=VERTEX_POINT('',#1488);
#462=VERTEX_POINT('',#1490);
#463=VERTEX_POINT('',#1494);
#464=VERTEX_POINT('',#1495);
#465=VERTEX_POINT('',#1503);
#466=VERTEX_POINT('',#1505);
#467=VERTEX_POINT('',#1515);
#468=VERTEX_POINT('',#1517);
#469=VERTEX_POINT('',#1521);
#470=VERTEX_POINT('',#1523);
#471=VERTEX_POINT('',#1525);
#472=VERTEX_POINT('',#1528);
#473=VERTEX_POINT('',#1530);
#474=VERTEX_POINT('',#1532);
#475=VERTEX_POINT('',#1534);
#476=VERTEX_POINT('',#1538);
#477=VERTEX_POINT('',#1544);
#478=VERTEX_POINT('',#1548);
#479=VERTEX_POINT('',#1552);
#480=VERTEX_POINT('',#1553);
#481=VERTEX_POINT('',#1558);
#482=VERTEX_POINT('',#1560);
#483=VERTEX_POINT('',#1566);
#484=VERTEX_POINT('',#1574);
#485=EDGE_CURVE('',#399,#399,#353,.T.);
#486=EDGE_CURVE('',#399,#400,#187,.T.);
#487=EDGE_CURVE('',#400,#400,#354,.T.);
#488=EDGE_CURVE('',#401,#401,#355,.T.);
#489=EDGE_CURVE('',#401,#402,#188,.T.);
#490=EDGE_CURVE('',#402,#402,#356,.T.);
#491=EDGE_CURVE('',#403,#403,#357,.T.);
#492=EDGE_CURVE('',#403,#404,#189,.T.);
#493=EDGE_CURVE('',#404,#404,#358,.T.);
#494=EDGE_CURVE('',#405,#405,#359,.T.);
#495=EDGE_CURVE('',#405,#406,#190,.T.);
#496=EDGE_CURVE('',#406,#406,#360,.T.);
#497=EDGE_CURVE('',#407,#407,#361,.T.);
#498=EDGE_CURVE('',#407,#408,#191,.T.);
#499=EDGE_CURVE('',#408,#408,#362,.T.);
#500=EDGE_CURVE('',#409,#409,#363,.T.);
#501=EDGE_CURVE('',#409,#410,#192,.T.);
#502=EDGE_CURVE('',#410,#410,#364,.T.);
#503=EDGE_CURVE('',#411,#411,#365,.T.);
#504=EDGE_CURVE('',#411,#412,#193,.T.);
#505=EDGE_CURVE('',#412,#412,#366,.T.);
#506=EDGE_CURVE('',#413,#413,#367,.T.);
#507=EDGE_CURVE('',#413,#414,#194,.T.);
#508=EDGE_CURVE('',#414,#414,#368,.T.);
#509=EDGE_CURVE('',#415,#415,#369,.T.);
#510=EDGE_CURVE('',#415,#416,#195,.T.);
#511=EDGE_CURVE('',#416,#416,#370,.T.);
#512=EDGE_CURVE('',#417,#417,#371,.T.);
#513=EDGE_CURVE('',#417,#418,#196,.T.);
#514=EDGE_CURVE('',#418,#418,#372,.T.);
#515=EDGE_CURVE('',#419,#419,#373,.T.);
#516=EDGE_CURVE('',#419,#420,#197,.T.);
#517=EDGE_CURVE('',#420,#420,#374,.T.);
#518=EDGE_CURVE('',#421,#422,#198,.T.);
#519=EDGE_CURVE('',#423,#421,#375,.T.);
#520=EDGE_CURVE('',#424,#423,#199,.T.);
#521=EDGE_CURVE('',#422,#424,#376,.T.);
#522=EDGE_CURVE('',#425,#426,#200,.T.);
#523=EDGE_CURVE('',#427,#425,#377,.T.);
#524=EDGE_CURVE('',#428,#427,#201,.T.);
#525=EDGE_CURVE('',#426,#428,#378,.T.);
#526=EDGE_CURVE('',#429,#430,#202,.T.);
#527=EDGE_CURVE('',#431,#429,#379,.T.);
#528=EDGE_CURVE('',#432,#431,#203,.T.);
#529=EDGE_CURVE('',#430,#432,#380,.T.);
#530=EDGE_CURVE('',#433,#434,#204,.T.);
#531=EDGE_CURVE('',#435,#433,#381,.T.);
#532=EDGE_CURVE('',#436,#435,#205,.T.);
#533=EDGE_CURVE('',#434,#436,#382,.T.);
#534=EDGE_CURVE('',#434,#437,#206,.T.);
#535=EDGE_CURVE('',#438,#437,#207,.T.);
#536=EDGE_CURVE('',#433,#438,#208,.T.);
#537=EDGE_CURVE('',#431,#439,#209,.T.);
#538=EDGE_CURVE('',#440,#439,#210,.T.);
#539=EDGE_CURVE('',#432,#440,#211,.T.);
#540=EDGE_CURVE('',#426,#441,#212,.T.);
#541=EDGE_CURVE('',#442,#441,#213,.T.);
#542=EDGE_CURVE('',#425,#442,#214,.T.);
#543=EDGE_CURVE('',#423,#443,#215,.T.);
#544=EDGE_CURVE('',#444,#443,#216,.T.);
#545=EDGE_CURVE('',#424,#444,#217,.T.);
#546=EDGE_CURVE('',#445,#446,#218,.T.);
#547=EDGE_CURVE('',#447,#445,#219,.T.);
#548=EDGE_CURVE('',#447,#448,#220,.T.);
#549=EDGE_CURVE('',#448,#446,#221,.T.);
#550=EDGE_CURVE('',#449,#450,#222,.T.);
#551=EDGE_CURVE('',#449,#451,#223,.T.);
#552=EDGE_CURVE('',#451,#452,#224,.T.);
#553=EDGE_CURVE('',#450,#452,#225,.T.);
#554=EDGE_CURVE('',#453,#454,#226,.T.);
#555=EDGE_CURVE('',#446,#453,#227,.T.);
#556=EDGE_CURVE('',#448,#454,#228,.T.);
#557=EDGE_CURVE('',#455,#422,#229,.T.);
#558=EDGE_CURVE('',#456,#455,#230,.T.);
#559=EDGE_CURVE('',#456,#421,#231,.T.);
#560=EDGE_CURVE('',#457,#458,#232,.T.);
#561=EDGE_CURVE('',#459,#457,#233,.T.);
#562=EDGE_CURVE('',#460,#459,#234,.T.);
#563=EDGE_CURVE('',#460,#458,#235,.T.);
#564=EDGE_CURVE('',#461,#435,#236,.T.);
#565=EDGE_CURVE('',#462,#461,#237,.T.);
#566=EDGE_CURVE('',#462,#436,#238,.T.);
#567=EDGE_CURVE('',#463,#464,#239,.T.);
#568=EDGE_CURVE('',#463,#447,#240,.T.);
#569=EDGE_CURVE('',#464,#445,#241,.T.);
#570=EDGE_CURVE('',#452,#459,#242,.T.);
#571=EDGE_CURVE('',#451,#460,#243,.T.);
#572=EDGE_CURVE('',#465,#430,#244,.T.);
#573=EDGE_CURVE('',#466,#465,#245,.T.);
#574=EDGE_CURVE('',#466,#429,#246,.T.);
#575=EDGE_CURVE('',#466,#439,#383,.T.);
#576=EDGE_CURVE('',#440,#465,#384,.T.);
#577=EDGE_CURVE('',#444,#455,#385,.T.);
#578=EDGE_CURVE('',#456,#443,#386,.T.);
#579=EDGE_CURVE('',#467,#464,#387,.T.);
#580=EDGE_CURVE('',#467,#468,#247,.T.);
#581=EDGE_CURVE('',#463,#468,#388,.T.);
#582=EDGE_CURVE('',#469,#468,#248,.T.);
#583=EDGE_CURVE('',#470,#469,#249,.T.);
#584=EDGE_CURVE('',#471,#470,#250,.T.);
#585=EDGE_CURVE('',#471,#458,#389,.T.);
#586=EDGE_CURVE('',#449,#472,#390,.T.);
#587=EDGE_CURVE('',#473,#472,#251,.T.);
#588=EDGE_CURVE('',#474,#473,#252,.T.);
#589=EDGE_CURVE('',#475,#474,#253,.T.);
#590=EDGE_CURVE('',#475,#454,#391,.T.);
#591=EDGE_CURVE('',#462,#437,#392,.T.);
#592=EDGE_CURVE('',#476,#428,#254,.T.);
#593=EDGE_CURVE('',#476,#441,#393,.T.);
#594=EDGE_CURVE('',#438,#461,#394,.T.);
#595=EDGE_CURVE('',#471,#477,#255,.T.);
#596=EDGE_CURVE('',#457,#477,#395,.T.);
#597=EDGE_CURVE('',#478,#450,#396,.T.);
#598=EDGE_CURVE('',#478,#472,#256,.T.);
#599=EDGE_CURVE('',#479,#480,#257,.T.);
#600=EDGE_CURVE('',#470,#479,#258,.T.);
#601=EDGE_CURVE('',#469,#480,#259,.T.);
#602=EDGE_CURVE('',#475,#481,#260,.T.);
#603=EDGE_CURVE('',#474,#482,#261,.T.);
#604=EDGE_CURVE('',#481,#482,#262,.T.);
#605=EDGE_CURVE('',#480,#467,#263,.T.);
#606=EDGE_CURVE('',#483,#478,#264,.T.);
#607=EDGE_CURVE('',#473,#483,#265,.T.);
#608=EDGE_CURVE('',#477,#479,#266,.T.);
#609=EDGE_CURVE('',#482,#483,#267,.T.);
#610=EDGE_CURVE('',#484,#427,#268,.T.);
#611=EDGE_CURVE('',#476,#484,#269,.T.);
#612=EDGE_CURVE('',#442,#484,#397,.T.);
#613=EDGE_CURVE('',#453,#481,#398,.T.);
#614=ORIENTED_EDGE('',*,*,#485,.F.);
#615=ORIENTED_EDGE('',*,*,#486,.T.);
#616=ORIENTED_EDGE('',*,*,#487,.F.);
#617=ORIENTED_EDGE('',*,*,#486,.F.);
#618=ORIENTED_EDGE('',*,*,#488,.F.);
#619=ORIENTED_EDGE('',*,*,#489,.T.);
#620=ORIENTED_EDGE('',*,*,#490,.F.);
#621=ORIENTED_EDGE('',*,*,#489,.F.);
#622=ORIENTED_EDGE('',*,*,#491,.F.);
#623=ORIENTED_EDGE('',*,*,#492,.T.);
#624=ORIENTED_EDGE('',*,*,#493,.F.);
#625=ORIENTED_EDGE('',*,*,#492,.F.);
#626=ORIENTED_EDGE('',*,*,#494,.F.);
#627=ORIENTED_EDGE('',*,*,#495,.T.);
#628=ORIENTED_EDGE('',*,*,#496,.F.);
#629=ORIENTED_EDGE('',*,*,#495,.F.);
#630=ORIENTED_EDGE('',*,*,#497,.F.);
#631=ORIENTED_EDGE('',*,*,#498,.T.);
#632=ORIENTED_EDGE('',*,*,#499,.F.);
#633=ORIENTED_EDGE('',*,*,#498,.F.);
#634=ORIENTED_EDGE('',*,*,#500,.F.);
#635=ORIENTED_EDGE('',*,*,#501,.T.);
#636=ORIENTED_EDGE('',*,*,#502,.F.);
#637=ORIENTED_EDGE('',*,*,#501,.F.);
#638=ORIENTED_EDGE('',*,*,#503,.F.);
#639=ORIENTED_EDGE('',*,*,#504,.T.);
#640=ORIENTED_EDGE('',*,*,#505,.F.);
#641=ORIENTED_EDGE('',*,*,#504,.F.);
#642=ORIENTED_EDGE('',*,*,#506,.F.);
#643=ORIENTED_EDGE('',*,*,#507,.T.);
#644=ORIENTED_EDGE('',*,*,#508,.F.);
#645=ORIENTED_EDGE('',*,*,#507,.F.);
#646=ORIENTED_EDGE('',*,*,#509,.F.);
#647=ORIENTED_EDGE('',*,*,#510,.T.);
#648=ORIENTED_EDGE('',*,*,#511,.F.);
#649=ORIENTED_EDGE('',*,*,#510,.F.);
#650=ORIENTED_EDGE('',*,*,#512,.F.);
#651=ORIENTED_EDGE('',*,*,#513,.T.);
#652=ORIENTED_EDGE('',*,*,#514,.F.);
#653=ORIENTED_EDGE('',*,*,#513,.F.);
#654=ORIENTED_EDGE('',*,*,#515,.F.);
#655=ORIENTED_EDGE('',*,*,#516,.T.);
#656=ORIENTED_EDGE('',*,*,#517,.F.);
#657=ORIENTED_EDGE('',*,*,#516,.F.);
#658=ORIENTED_EDGE('',*,*,#518,.F.);
#659=ORIENTED_EDGE('',*,*,#519,.F.);
#660=ORIENTED_EDGE('',*,*,#520,.F.);
#661=ORIENTED_EDGE('',*,*,#521,.F.);
#662=ORIENTED_EDGE('',*,*,#522,.F.);
#663=ORIENTED_EDGE('',*,*,#523,.F.);
#664=ORIENTED_EDGE('',*,*,#524,.F.);
#665=ORIENTED_EDGE('',*,*,#525,.F.);
#666=ORIENTED_EDGE('',*,*,#526,.F.);
#667=ORIENTED_EDGE('',*,*,#527,.F.);
#668=ORIENTED_EDGE('',*,*,#528,.F.);
#669=ORIENTED_EDGE('',*,*,#529,.F.);
#670=ORIENTED_EDGE('',*,*,#530,.F.);
#671=ORIENTED_EDGE('',*,*,#531,.F.);
#672=ORIENTED_EDGE('',*,*,#532,.F.);
#673=ORIENTED_EDGE('',*,*,#533,.F.);
#674=ORIENTED_EDGE('',*,*,#530,.T.);
#675=ORIENTED_EDGE('',*,*,#534,.T.);
#676=ORIENTED_EDGE('',*,*,#535,.F.);
#677=ORIENTED_EDGE('',*,*,#536,.F.);
#678=ORIENTED_EDGE('',*,*,#528,.T.);
#679=ORIENTED_EDGE('',*,*,#537,.T.);
#680=ORIENTED_EDGE('',*,*,#538,.F.);
#681=ORIENTED_EDGE('',*,*,#539,.F.);
#682=ORIENTED_EDGE('',*,*,#522,.T.);
#683=ORIENTED_EDGE('',*,*,#540,.T.);
#684=ORIENTED_EDGE('',*,*,#541,.F.);
#685=ORIENTED_EDGE('',*,*,#542,.F.);
#686=ORIENTED_EDGE('',*,*,#520,.T.);
#687=ORIENTED_EDGE('',*,*,#543,.T.);
#688=ORIENTED_EDGE('',*,*,#544,.F.);
#689=ORIENTED_EDGE('',*,*,#545,.F.);
#690=ORIENTED_EDGE('',*,*,#546,.F.);
#691=ORIENTED_EDGE('',*,*,#547,.F.);
#692=ORIENTED_EDGE('',*,*,#548,.T.);
#693=ORIENTED_EDGE('',*,*,#549,.T.);
#694=ORIENTED_EDGE('',*,*,#550,.F.);
#695=ORIENTED_EDGE('',*,*,#551,.T.);
#696=ORIENTED_EDGE('',*,*,#552,.T.);
#697=ORIENTED_EDGE('',*,*,#553,.F.);
#698=ORIENTED_EDGE('',*,*,#554,.F.);
#699=ORIENTED_EDGE('',*,*,#555,.F.);
#700=ORIENTED_EDGE('',*,*,#549,.F.);
#701=ORIENTED_EDGE('',*,*,#556,.T.);
#702=ORIENTED_EDGE('',*,*,#518,.T.);
#703=ORIENTED_EDGE('',*,*,#557,.F.);
#704=ORIENTED_EDGE('',*,*,#558,.F.);
#705=ORIENTED_EDGE('',*,*,#559,.T.);
#706=ORIENTED_EDGE('',*,*,#560,.F.);
#707=ORIENTED_EDGE('',*,*,#561,.F.);
#708=ORIENTED_EDGE('',*,*,#562,.F.);
#709=ORIENTED_EDGE('',*,*,#563,.T.);
#710=ORIENTED_EDGE('',*,*,#532,.T.);
#711=ORIENTED_EDGE('',*,*,#564,.F.);
#712=ORIENTED_EDGE('',*,*,#565,.F.);
#713=ORIENTED_EDGE('',*,*,#566,.T.);
#714=ORIENTED_EDGE('',*,*,#567,.F.);
#715=ORIENTED_EDGE('',*,*,#568,.T.);
#716=ORIENTED_EDGE('',*,*,#547,.T.);
#717=ORIENTED_EDGE('',*,*,#569,.F.);
#718=ORIENTED_EDGE('',*,*,#570,.F.);
#719=ORIENTED_EDGE('',*,*,#552,.F.);
#720=ORIENTED_EDGE('',*,*,#571,.T.);
#721=ORIENTED_EDGE('',*,*,#562,.T.);
#722=ORIENTED_EDGE('',*,*,#526,.T.);
#723=ORIENTED_EDGE('',*,*,#572,.F.);
#724=ORIENTED_EDGE('',*,*,#573,.F.);
#725=ORIENTED_EDGE('',*,*,#574,.T.);
#726=ORIENTED_EDGE('',*,*,#538,.T.);
#727=ORIENTED_EDGE('',*,*,#575,.F.);
#728=ORIENTED_EDGE('',*,*,#573,.T.);
#729=ORIENTED_EDGE('',*,*,#576,.F.);
#730=ORIENTED_EDGE('',*,*,#558,.T.);
#731=ORIENTED_EDGE('',*,*,#577,.F.);
#732=ORIENTED_EDGE('',*,*,#544,.T.);
#733=ORIENTED_EDGE('',*,*,#578,.F.);
#734=ORIENTED_EDGE('',*,*,#567,.T.);
#735=ORIENTED_EDGE('',*,*,#579,.F.);
#736=ORIENTED_EDGE('',*,*,#580,.T.);
#737=ORIENTED_EDGE('',*,*,#581,.F.);
#738=ORIENTED_EDGE('',*,*,#548,.F.);
#739=ORIENTED_EDGE('',*,*,#568,.F.);
#740=ORIENTED_EDGE('',*,*,#581,.T.);
#741=ORIENTED_EDGE('',*,*,#582,.F.);
#742=ORIENTED_EDGE('',*,*,#583,.F.);
#743=ORIENTED_EDGE('',*,*,#584,.F.);
#744=ORIENTED_EDGE('',*,*,#585,.T.);
#745=ORIENTED_EDGE('',*,*,#563,.F.);
#746=ORIENTED_EDGE('',*,*,#571,.F.);
#747=ORIENTED_EDGE('',*,*,#551,.F.);
#748=ORIENTED_EDGE('',*,*,#586,.T.);
#749=ORIENTED_EDGE('',*,*,#587,.F.);
#750=ORIENTED_EDGE('',*,*,#588,.F.);
#751=ORIENTED_EDGE('',*,*,#589,.F.);
#752=ORIENTED_EDGE('',*,*,#590,.T.);
#753=ORIENTED_EDGE('',*,*,#556,.F.);
#754=ORIENTED_EDGE('',*,*,#485,.T.);
#755=ORIENTED_EDGE('',*,*,#488,.T.);
#756=ORIENTED_EDGE('',*,*,#491,.T.);
#757=ORIENTED_EDGE('',*,*,#494,.T.);
#758=ORIENTED_EDGE('',*,*,#497,.T.);
#759=ORIENTED_EDGE('',*,*,#500,.T.);
#760=ORIENTED_EDGE('',*,*,#503,.T.);
#761=ORIENTED_EDGE('',*,*,#506,.T.);
#762=ORIENTED_EDGE('',*,*,#509,.T.);
#763=ORIENTED_EDGE('',*,*,#512,.T.);
#764=ORIENTED_EDGE('',*,*,#515,.T.);
#765=ORIENTED_EDGE('',*,*,#574,.F.);
#766=ORIENTED_EDGE('',*,*,#575,.T.);
#767=ORIENTED_EDGE('',*,*,#537,.F.);
#768=ORIENTED_EDGE('',*,*,#527,.T.);
#769=ORIENTED_EDGE('',*,*,#559,.F.);
#770=ORIENTED_EDGE('',*,*,#578,.T.);
#771=ORIENTED_EDGE('',*,*,#543,.F.);
#772=ORIENTED_EDGE('',*,*,#519,.T.);
#773=ORIENTED_EDGE('',*,*,#533,.T.);
#774=ORIENTED_EDGE('',*,*,#566,.F.);
#775=ORIENTED_EDGE('',*,*,#591,.T.);
#776=ORIENTED_EDGE('',*,*,#534,.F.);
#777=ORIENTED_EDGE('',*,*,#525,.T.);
#778=ORIENTED_EDGE('',*,*,#592,.F.);
#779=ORIENTED_EDGE('',*,*,#593,.T.);
#780=ORIENTED_EDGE('',*,*,#540,.F.);
#781=ORIENTED_EDGE('',*,*,#565,.T.);
#782=ORIENTED_EDGE('',*,*,#594,.F.);
#783=ORIENTED_EDGE('',*,*,#535,.T.);
#784=ORIENTED_EDGE('',*,*,#591,.F.);
#785=ORIENTED_EDGE('',*,*,#560,.T.);
#786=ORIENTED_EDGE('',*,*,#585,.F.);
#787=ORIENTED_EDGE('',*,*,#595,.T.);
#788=ORIENTED_EDGE('',*,*,#596,.F.);
#789=ORIENTED_EDGE('',*,*,#550,.T.);
#790=ORIENTED_EDGE('',*,*,#597,.F.);
#791=ORIENTED_EDGE('',*,*,#598,.T.);
#792=ORIENTED_EDGE('',*,*,#586,.F.);
#793=ORIENTED_EDGE('',*,*,#599,.F.);
#794=ORIENTED_EDGE('',*,*,#600,.F.);
#795=ORIENTED_EDGE('',*,*,#583,.T.);
#796=ORIENTED_EDGE('',*,*,#601,.T.);
#797=ORIENTED_EDGE('',*,*,#602,.F.);
#798=ORIENTED_EDGE('',*,*,#589,.T.);
#799=ORIENTED_EDGE('',*,*,#603,.T.);
#800=ORIENTED_EDGE('',*,*,#604,.F.);
#801=ORIENTED_EDGE('',*,*,#580,.F.);
#802=ORIENTED_EDGE('',*,*,#605,.F.);
#803=ORIENTED_EDGE('',*,*,#601,.F.);
#804=ORIENTED_EDGE('',*,*,#582,.T.);
#805=ORIENTED_EDGE('',*,*,#598,.F.);
#806=ORIENTED_EDGE('',*,*,#606,.F.);
#807=ORIENTED_EDGE('',*,*,#607,.F.);
#808=ORIENTED_EDGE('',*,*,#587,.T.);
#809=ORIENTED_EDGE('',*,*,#595,.F.);
#810=ORIENTED_EDGE('',*,*,#584,.T.);
#811=ORIENTED_EDGE('',*,*,#600,.T.);
#812=ORIENTED_EDGE('',*,*,#608,.F.);
#813=ORIENTED_EDGE('',*,*,#609,.F.);
#814=ORIENTED_EDGE('',*,*,#603,.F.);
#815=ORIENTED_EDGE('',*,*,#588,.T.);
#816=ORIENTED_EDGE('',*,*,#607,.T.);
#817=ORIENTED_EDGE('',*,*,#524,.T.);
#818=ORIENTED_EDGE('',*,*,#610,.F.);
#819=ORIENTED_EDGE('',*,*,#611,.F.);
#820=ORIENTED_EDGE('',*,*,#592,.T.);
#821=ORIENTED_EDGE('',*,*,#541,.T.);
#822=ORIENTED_EDGE('',*,*,#593,.F.);
#823=ORIENTED_EDGE('',*,*,#611,.T.);
#824=ORIENTED_EDGE('',*,*,#612,.F.);
#825=ORIENTED_EDGE('',*,*,#613,.T.);
#826=ORIENTED_EDGE('',*,*,#604,.T.);
#827=ORIENTED_EDGE('',*,*,#609,.T.);
#828=ORIENTED_EDGE('',*,*,#606,.T.);
#829=ORIENTED_EDGE('',*,*,#597,.T.);
#830=ORIENTED_EDGE('',*,*,#553,.T.);
#831=ORIENTED_EDGE('',*,*,#570,.T.);
#832=ORIENTED_EDGE('',*,*,#561,.T.);
#833=ORIENTED_EDGE('',*,*,#596,.T.);
#834=ORIENTED_EDGE('',*,*,#608,.T.);
#835=ORIENTED_EDGE('',*,*,#599,.T.);
#836=ORIENTED_EDGE('',*,*,#605,.T.);
#837=ORIENTED_EDGE('',*,*,#579,.T.);
#838=ORIENTED_EDGE('',*,*,#569,.T.);
#839=ORIENTED_EDGE('',*,*,#546,.T.);
#840=ORIENTED_EDGE('',*,*,#555,.T.);
#841=ORIENTED_EDGE('',*,*,#487,.T.);
#842=ORIENTED_EDGE('',*,*,#490,.T.);
#843=ORIENTED_EDGE('',*,*,#493,.T.);
#844=ORIENTED_EDGE('',*,*,#496,.T.);
#845=ORIENTED_EDGE('',*,*,#499,.T.);
#846=ORIENTED_EDGE('',*,*,#502,.T.);
#847=ORIENTED_EDGE('',*,*,#505,.T.);
#848=ORIENTED_EDGE('',*,*,#508,.T.);
#849=ORIENTED_EDGE('',*,*,#511,.T.);
#850=ORIENTED_EDGE('',*,*,#514,.T.);
#851=ORIENTED_EDGE('',*,*,#517,.T.);
#852=ORIENTED_EDGE('',*,*,#536,.T.);
#853=ORIENTED_EDGE('',*,*,#594,.T.);
#854=ORIENTED_EDGE('',*,*,#564,.T.);
#855=ORIENTED_EDGE('',*,*,#531,.T.);
#856=ORIENTED_EDGE('',*,*,#542,.T.);
#857=ORIENTED_EDGE('',*,*,#612,.T.);
#858=ORIENTED_EDGE('',*,*,#610,.T.);
#859=ORIENTED_EDGE('',*,*,#523,.T.);
#860=ORIENTED_EDGE('',*,*,#529,.T.);
#861=ORIENTED_EDGE('',*,*,#539,.T.);
#862=ORIENTED_EDGE('',*,*,#576,.T.);
#863=ORIENTED_EDGE('',*,*,#572,.T.);
#864=ORIENTED_EDGE('',*,*,#521,.T.);
#865=ORIENTED_EDGE('',*,*,#545,.T.);
#866=ORIENTED_EDGE('',*,*,#577,.T.);
#867=ORIENTED_EDGE('',*,*,#557,.T.);
#868=ORIENTED_EDGE('',*,*,#554,.T.);
#869=ORIENTED_EDGE('',*,*,#590,.F.);
#870=ORIENTED_EDGE('',*,*,#602,.T.);
#871=ORIENTED_EDGE('',*,*,#613,.F.);
#872=CYLINDRICAL_SURFACE('',#963,1.6);
#873=CYLINDRICAL_SURFACE('',#966,1.6);
#874=CYLINDRICAL_SURFACE('',#969,1.6);
#875=CYLINDRICAL_SURFACE('',#972,1.6);
#876=CYLINDRICAL_SURFACE('',#975,1.6);
#877=CYLINDRICAL_SURFACE('',#978,1.6);
#878=CYLINDRICAL_SURFACE('',#981,1.6);
#879=CYLINDRICAL_SURFACE('',#984,1.6);
#880=CYLINDRICAL_SURFACE('',#987,1.6);
#881=CYLINDRICAL_SURFACE('',#990,1.6);
#882=CYLINDRICAL_SURFACE('',#993,5.);
#883=CYLINDRICAL_SURFACE('',#996,18.);
#884=CYLINDRICAL_SURFACE('',#999,18.);
#885=CYLINDRICAL_SURFACE('',#1002,18.);
#886=CYLINDRICAL_SURFACE('',#1005,18.);
#887=CYLINDRICAL_SURFACE('',#1021,68.);
#888=CYLINDRICAL_SURFACE('',#1024,68.);
#889=CYLINDRICAL_SURFACE('',#1027,74.);
#890=CYLINDRICAL_SURFACE('',#1036,68.);
#891=CYLINDRICAL_SURFACE('',#1038,74.);
#892=CYLINDRICAL_SURFACE('',#1040,74.);
#893=CYLINDRICAL_SURFACE('',#1049,68.);
#894=CYLINDRICAL_SURFACE('',#1053,74.);
#895=ADVANCED_FACE('',(#67),#872,.F.);
#896=ADVANCED_FACE('',(#68),#873,.F.);
#897=ADVANCED_FACE('',(#69),#874,.F.);
#898=ADVANCED_FACE('',(#70),#875,.F.);
#899=ADVANCED_FACE('',(#71),#876,.F.);
#900=ADVANCED_FACE('',(#72),#877,.F.);
#901=ADVANCED_FACE('',(#73),#878,.F.);
#902=ADVANCED_FACE('',(#74),#879,.F.);
#903=ADVANCED_FACE('',(#75),#880,.F.);
#904=ADVANCED_FACE('',(#76),#881,.F.);
#905=ADVANCED_FACE('',(#77),#882,.F.);
#906=ADVANCED_FACE('',(#78),#883,.T.);
#907=ADVANCED_FACE('',(#79),#884,.T.);
#908=ADVANCED_FACE('',(#80),#885,.T.);
#909=ADVANCED_FACE('',(#81),#886,.T.);
#910=ADVANCED_FACE('',(#82),#45,.T.);
#911=ADVANCED_FACE('',(#83),#46,.T.);
#912=ADVANCED_FACE('',(#84),#47,.T.);
#913=ADVANCED_FACE('',(#85),#48,.T.);
#914=ADVANCED_FACE('',(#86),#49,.T.);
#915=ADVANCED_FACE('',(#87),#50,.T.);
#916=ADVANCED_FACE('',(#88),#51,.T.);
#917=ADVANCED_FACE('',(#89),#52,.T.);
#918=ADVANCED_FACE('',(#90),#53,.T.);
#919=ADVANCED_FACE('',(#91),#54,.T.);
#920=ADVANCED_FACE('',(#92),#55,.T.);
#921=ADVANCED_FACE('',(#93),#56,.T.);
#922=ADVANCED_FACE('',(#94),#57,.T.);
#923=ADVANCED_FACE('',(#95),#887,.F.);
#924=ADVANCED_FACE('',(#96),#888,.F.);
#925=ADVANCED_FACE('',(#97),#889,.T.);
#926=ADVANCED_FACE('',(#98,#15,#16,#17,#18,#19,#20,#21,#22,#23,#24,#25,
#26,#27,#28,#29),#58,.F.);
#927=ADVANCED_FACE('',(#99),#890,.F.);
#928=ADVANCED_FACE('',(#100),#891,.T.);
#929=ADVANCED_FACE('',(#101),#892,.T.);
#930=ADVANCED_FACE('',(#102),#59,.T.);
#931=ADVANCED_FACE('',(#103),#60,.T.);
#932=ADVANCED_FACE('',(#104),#61,.T.);
#933=ADVANCED_FACE('',(#105),#62,.T.);
#934=ADVANCED_FACE('',(#106),#63,.T.);
#935=ADVANCED_FACE('',(#107),#64,.T.);
#936=ADVANCED_FACE('',(#108),#65,.T.);
#937=ADVANCED_FACE('',(#109),#893,.F.);
#938=ADVANCED_FACE('',(#110,#30,#31,#32,#33,#34,#35,#36,#37,#38,#39,#40,
#41,#42,#43,#44),#66,.T.);
#939=ADVANCED_FACE('',(#111),#894,.T.);
#940=CLOSED_SHELL('',(#895,#896,#897,#898,#899,#900,#901,#902,#903,#904,
#905,#906,#907,#908,#909,#910,#911,#912,#913,#914,#915,#916,#917,#918,#919,
#920,#921,#922,#923,#924,#925,#926,#927,#928,#929,#930,#931,#932,#933,#934,
#935,#936,#937,#938,#939));
#941=DERIVED_UNIT_ELEMENT(#944,1.);
#942=DERIVED_UNIT_ELEMENT(#1587,-3.);
#943=DIMENSIONAL_EXPONENTS(0.,1.,0.,0.,0.,0.,0.);
#944=(
CONVERSION_BASED_UNIT('gram',#946)
MASS_UNIT()
NAMED_UNIT(#943)
);
#945=(
MASS_UNIT()
NAMED_UNIT(*)
SI_UNIT(.KILO.,.GRAM.)
);
#946=MASS_MEASURE_WITH_UNIT(MASS_MEASURE(0.001),#945);
#947=DERIVED_UNIT((#941,#942));
#948=MEASURE_REPRESENTATION_ITEM('density measure',
POSITIVE_RATIO_MEASURE(2.7),#947);
#949=PROPERTY_DEFINITION_REPRESENTATION(#954,#951);
#950=PROPERTY_DEFINITION_REPRESENTATION(#955,#952);
#951=REPRESENTATION('material name',(#953),#1584);
#952=REPRESENTATION('density',(#948),#1584);
#953=DESCRIPTIVE_REPRESENTATION_ITEM('\X2\30A230EB30DF30CB30A630E0\X0\ 
6061','\X2\30A230EB30DF30CB30A630E0\X0\ 6061');
#954=PROPERTY_DEFINITION('material property','material name',#1594);
#955=PROPERTY_DEFINITION('material property','density of part',#1594);
#956=DATE_TIME_ROLE('creation_date');
#957=APPLIED_DATE_AND_TIME_ASSIGNMENT(#958,#956,(#1594));
#958=DATE_AND_TIME(#959,#960);
#959=CALENDAR_DATE(2026,8,10);
#960=LOCAL_TIME(0,0,0.,#961);
#961=COORDINATED_UNIVERSAL_TIME_OFFSET(0,0,.BEHIND.);
#962=AXIS2_PLACEMENT_3D('',#1321,#1054,#1055);
#963=AXIS2_PLACEMENT_3D('',#1322,#1056,#1057);
#964=AXIS2_PLACEMENT_3D('',#1324,#1058,#1059);
#965=AXIS2_PLACEMENT_3D('',#1327,#1061,#1062);
#966=AXIS2_PLACEMENT_3D('',#1328,#1063,#1064);
#967=AXIS2_PLACEMENT_3D('',#1330,#1065,#1066);
#968=AXIS2_PLACEMENT_3D('',#1333,#1068,#1069);
#969=AXIS2_PLACEMENT_3D('',#1334,#1070,#1071);
#970=AXIS2_PLACEMENT_3D('',#1336,#1072,#1073);
#971=AXIS2_PLACEMENT_3D('',#1339,#1075,#1076);
#972=AXIS2_PLACEMENT_3D('',#1340,#1077,#1078);
#973=AXIS2_PLACEMENT_3D('',#1342,#1079,#1080);
#974=AXIS2_PLACEMENT_3D('',#1345,#1082,#1083);
#975=AXIS2_PLACEMENT_3D('',#1346,#1084,#1085);
#976=AXIS2_PLACEMENT_3D('',#1348,#1086,#1087);
#977=AXIS2_PLACEMENT_3D('',#1351,#1089,#1090);
#978=AXIS2_PLACEMENT_3D('',#1352,#1091,#1092);
#979=AXIS2_PLACEMENT_3D('',#1354,#1093,#1094);
#980=AXIS2_PLACEMENT_3D('',#1357,#1096,#1097);
#981=AXIS2_PLACEMENT_3D('',#1358,#1098,#1099);
#982=AXIS2_PLACEMENT_3D('',#1360,#1100,#1101);
#983=AXIS2_PLACEMENT_3D('',#1363,#1103,#1104);
#984=AXIS2_PLACEMENT_3D('',#1364,#1105,#1106);
#985=AXIS2_PLACEMENT_3D('',#1366,#1107,#1108);
#986=AXIS2_PLACEMENT_3D('',#1369,#1110,#1111);
#987=AXIS2_PLACEMENT_3D('',#1370,#1112,#1113);
#988=AXIS2_PLACEMENT_3D('',#1372,#1114,#1115);
#989=AXIS2_PLACEMENT_3D('',#1375,#1117,#1118);
#990=AXIS2_PLACEMENT_3D('',#1376,#1119,#1120);
#991=AXIS2_PLACEMENT_3D('',#1378,#1121,#1122);
#992=AXIS2_PLACEMENT_3D('',#1381,#1124,#1125);
#993=AXIS2_PLACEMENT_3D('',#1382,#1126,#1127);
#994=AXIS2_PLACEMENT_3D('',#1384,#1128,#1129);
#995=AXIS2_PLACEMENT_3D('',#1387,#1131,#1132);
#996=AXIS2_PLACEMENT_3D('',#1388,#1133,#1134);
#997=AXIS2_PLACEMENT_3D('',#1393,#1136,#1137);
#998=AXIS2_PLACEMENT_3D('',#1396,#1139,#1140);
#999=AXIS2_PLACEMENT_3D('',#1397,#1141,#1142);
#1000=AXIS2_PLACEMENT_3D('',#1402,#1144,#1145);
#1001=AXIS2_PLACEMENT_3D('',#1405,#1147,#1148);
#1002=AXIS2_PLACEMENT_3D('',#1406,#1149,#1150);
#1003=AXIS2_PLACEMENT_3D('',#1411,#1152,#1153);
#1004=AXIS2_PLACEMENT_3D('',#1414,#1155,#1156);
#1005=AXIS2_PLACEMENT_3D('',#1415,#1157,#1158);
#1006=AXIS2_PLACEMENT_3D('',#1420,#1160,#1161);
#1007=AXIS2_PLACEMENT_3D('',#1423,#1163,#1164);
#1008=AXIS2_PLACEMENT_3D('',#1424,#1165,#1166);
#1009=AXIS2_PLACEMENT_3D('',#1430,#1170,#1171);
#1010=AXIS2_PLACEMENT_3D('',#1436,#1175,#1176);
#1011=AXIS2_PLACEMENT_3D('',#1442,#1180,#1181);
#1012=AXIS2_PLACEMENT_3D('',#1448,#1185,#1186);
#1013=AXIS2_PLACEMENT_3D('',#1457,#1191,#1192);
#1014=AXIS2_PLACEMENT_3D('',#1466,#1197,#1198);
#1015=AXIS2_PLACEMENT_3D('',#1472,#1202,#1203);
#1016=AXIS2_PLACEMENT_3D('',#1478,#1207,#1208);
#1017=AXIS2_PLACEMENT_3D('',#1487,#1213,#1214);
#1018=AXIS2_PLACEMENT_3D('',#1493,#1218,#1219);
#1019=AXIS2_PLACEMENT_3D('',#1499,#1223,#1224);
#1020=AXIS2_PLACEMENT_3D('',#1502,#1227,#1228);
#1021=AXIS2_PLACEMENT_3D('',#1508,#1232,#1233);
#1022=AXIS2_PLACEMENT_3D('',#1509,#1234,#1235);
#1023=AXIS2_PLACEMENT_3D('',#1510,#1236,#1237);
#1024=AXIS2_PLACEMENT_3D('',#1511,#1238,#1239);
#1025=AXIS2_PLACEMENT_3D('',#1512,#1240,#1241);
#1026=AXIS2_PLACEMENT_3D('',#1513,#1242,#1243);
#1027=AXIS2_PLACEMENT_3D('',#1514,#1244,#1245);
#1028=AXIS2_PLACEMENT_3D('',#1516,#1246,#1247);
#1029=AXIS2_PLACEMENT_3D('',#1519,#1249,#1250);
#1030=AXIS2_PLACEMENT_3D('',#1520,#1251,#1252);
#1031=AXIS2_PLACEMENT_3D('',#1527,#1256,#1257);
#1032=AXIS2_PLACEMENT_3D('',#1529,#1258,#1259);
#1033=AXIS2_PLACEMENT_3D('',#1536,#1263,#1264);
#1034=AXIS2_PLACEMENT_3D('',#1537,#1265,#1266);
#1035=AXIS2_PLACEMENT_3D('',#1540,#1268,#1269);
#1036=AXIS2_PLACEMENT_3D('',#1541,#1270,#1271);
#1037=AXIS2_PLACEMENT_3D('',#1542,#1272,#1273);
#1038=AXIS2_PLACEMENT_3D('',#1543,#1274,#1275);
#1039=AXIS2_PLACEMENT_3D('',#1546,#1277,#1278);
#1040=AXIS2_PLACEMENT_3D('',#1547,#1279,#1280);
#1041=AXIS2_PLACEMENT_3D('',#1549,#1281,#1282);
#1042=AXIS2_PLACEMENT_3D('',#1551,#1284,#1285);
#1043=AXIS2_PLACEMENT_3D('',#1557,#1289,#1290);
#1044=AXIS2_PLACEMENT_3D('',#1563,#1294,#1295);
#1045=AXIS2_PLACEMENT_3D('',#1565,#1297,#1298);
#1046=AXIS2_PLACEMENT_3D('',#1569,#1301,#1302);
#1047=AXIS2_PLACEMENT_3D('',#1571,#1304,#1305);
#1048=AXIS2_PLACEMENT_3D('',#1573,#1307,#1308);
#1049=AXIS2_PLACEMENT_3D('',#1577,#1311,#1312);
#1050=AXIS2_PLACEMENT_3D('',#1578,#1313,#1314);
#1051=AXIS2_PLACEMENT_3D('',#1579,#1315,#1316);
#1052=AXIS2_PLACEMENT_3D('',#1580,#1317,#1318);
#1053=AXIS2_PLACEMENT_3D('',#1581,#1319,#1320);
#1054=DIRECTION('axis',(0.,0.,1.));
#1055=DIRECTION('refdir',(1.,0.,0.));
#1056=DIRECTION('center_axis',(0.,0.,1.));
#1057=DIRECTION('ref_axis',(-1.,0.,0.));
#1058=DIRECTION('center_axis',(0.,0.,1.));
#1059=DIRECTION('ref_axis',(-1.,0.,0.));
#1060=DIRECTION('',(0.,0.,1.));
#1061=DIRECTION('center_axis',(0.,0.,-1.));
#1062=DIRECTION('ref_axis',(-1.,0.,0.));
#1063=DIRECTION('center_axis',(0.,0.,1.));
#1064=DIRECTION('ref_axis',(-1.,0.,0.));
#1065=DIRECTION('center_axis',(0.,0.,1.));
#1066=DIRECTION('ref_axis',(-1.,0.,0.));
#1067=DIRECTION('',(0.,0.,1.));
#1068=DIRECTION('center_axis',(0.,0.,-1.));
#1069=DIRECTION('ref_axis',(-1.,0.,0.));
#1070=DIRECTION('center_axis',(0.,0.,1.));
#1071=DIRECTION('ref_axis',(-1.,0.,0.));
#1072=DIRECTION('center_axis',(0.,0.,1.));
#1073=DIRECTION('ref_axis',(-1.,0.,0.));
#1074=DIRECTION('',(0.,0.,1.));
#1075=DIRECTION('center_axis',(0.,0.,-1.));
#1076=DIRECTION('ref_axis',(-1.,0.,0.));
#1077=DIRECTION('center_axis',(0.,0.,1.));
#1078=DIRECTION('ref_axis',(-1.,0.,0.));
#1079=DIRECTION('center_axis',(0.,0.,1.));
#1080=DIRECTION('ref_axis',(-1.,0.,0.));
#1081=DIRECTION('',(0.,0.,1.));
#1082=DIRECTION('center_axis',(0.,0.,-1.));
#1083=DIRECTION('ref_axis',(-1.,0.,0.));
#1084=DIRECTION('center_axis',(0.,0.,1.));
#1085=DIRECTION('ref_axis',(-1.,0.,0.));
#1086=DIRECTION('center_axis',(0.,0.,1.));
#1087=DIRECTION('ref_axis',(-1.,0.,0.));
#1088=DIRECTION('',(0.,0.,1.));
#1089=DIRECTION('center_axis',(0.,0.,-1.));
#1090=DIRECTION('ref_axis',(-1.,0.,0.));
#1091=DIRECTION('center_axis',(0.,0.,1.));
#1092=DIRECTION('ref_axis',(-1.,0.,0.));
#1093=DIRECTION('center_axis',(0.,0.,1.));
#1094=DIRECTION('ref_axis',(-1.,0.,0.));
#1095=DIRECTION('',(0.,0.,1.));
#1096=DIRECTION('center_axis',(0.,0.,-1.));
#1097=DIRECTION('ref_axis',(-1.,0.,0.));
#1098=DIRECTION('center_axis',(0.,0.,1.));
#1099=DIRECTION('ref_axis',(-1.,0.,0.));
#1100=DIRECTION('center_axis',(0.,0.,1.));
#1101=DIRECTION('ref_axis',(-1.,0.,0.));
#1102=DIRECTION('',(0.,0.,1.));
#1103=DIRECTION('center_axis',(0.,0.,-1.));
#1104=DIRECTION('ref_axis',(-1.,0.,0.));
#1105=DIRECTION('center_axis',(0.,0.,1.));
#1106=DIRECTION('ref_axis',(-1.,0.,0.));
#1107=DIRECTION('center_axis',(0.,0.,1.));
#1108=DIRECTION('ref_axis',(-1.,0.,0.));
#1109=DIRECTION('',(0.,0.,1.));
#1110=DIRECTION('center_axis',(0.,0.,-1.));
#1111=DIRECTION('ref_axis',(-1.,0.,0.));
#1112=DIRECTION('center_axis',(0.,0.,1.));
#1113=DIRECTION('ref_axis',(-1.,0.,0.));
#1114=DIRECTION('center_axis',(0.,0.,1.));
#1115=DIRECTION('ref_axis',(-1.,0.,0.));
#1116=DIRECTION('',(0.,0.,1.));
#1117=DIRECTION('center_axis',(0.,0.,-1.));
#1118=DIRECTION('ref_axis',(-1.,0.,0.));
#1119=DIRECTION('center_axis',(0.,0.,1.));
#1120=DIRECTION('ref_axis',(-1.,0.,0.));
#1121=DIRECTION('center_axis',(0.,0.,1.));
#1122=DIRECTION('ref_axis',(-1.,0.,0.));
#1123=DIRECTION('',(0.,0.,1.));
#1124=DIRECTION('center_axis',(0.,0.,-1.));
#1125=DIRECTION('ref_axis',(-1.,0.,0.));
#1126=DIRECTION('center_axis',(0.,0.,1.));
#1127=DIRECTION('ref_axis',(-1.,0.,0.));
#1128=DIRECTION('center_axis',(0.,0.,1.));
#1129=DIRECTION('ref_axis',(-1.,0.,0.));
#1130=DIRECTION('',(0.,0.,1.));
#1131=DIRECTION('center_axis',(0.,0.,-1.));
#1132=DIRECTION('ref_axis',(-1.,0.,0.));
#1133=DIRECTION('center_axis',(0.,0.,1.));
#1134=DIRECTION('ref_axis',(-1.,0.,0.));
#1135=DIRECTION('',(0.,0.,1.));
#1136=DIRECTION('center_axis',(0.,0.,-1.));
#1137=DIRECTION('ref_axis',(-1.,0.,0.));
#1138=DIRECTION('',(0.,0.,-1.));
#1139=DIRECTION('center_axis',(0.,0.,1.));
#1140=DIRECTION('ref_axis',(-1.,0.,0.));
#1141=DIRECTION('center_axis',(0.,0.,1.));
#1142=DIRECTION('ref_axis',(-1.,0.,0.));
#1143=DIRECTION('',(0.,0.,-1.));
#1144=DIRECTION('center_axis',(0.,0.,1.));
#1145=DIRECTION('ref_axis',(-1.,0.,0.));
#1146=DIRECTION('',(0.,0.,1.));
#1147=DIRECTION('center_axis',(0.,0.,-1.));
#1148=DIRECTION('ref_axis',(-1.,0.,0.));
#1149=DIRECTION('center_axis',(0.,0.,1.));
#1150=DIRECTION('ref_axis',(-1.,0.,0.));
#1151=DIRECTION('',(0.,0.,1.));
#1152=DIRECTION('center_axis',(0.,0.,-1.));
#1153=DIRECTION('ref_axis',(-1.,0.,0.));
#1154=DIRECTION('',(0.,0.,-1.));
#1155=DIRECTION('center_axis',(0.,0.,1.));
#1156=DIRECTION('ref_axis',(-1.,0.,0.));
#1157=DIRECTION('center_axis',(0.,0.,1.));
#1158=DIRECTION('ref_axis',(-1.,0.,0.));
#1159=DIRECTION('',(0.,0.,-1.));
#1160=DIRECTION('center_axis',(0.,0.,1.));
#1161=DIRECTION('ref_axis',(-1.,0.,0.));
#1162=DIRECTION('',(0.,0.,1.));
#1163=DIRECTION('center_axis',(0.,0.,-1.));
#1164=DIRECTION('ref_axis',(-1.,0.,0.));
#1165=DIRECTION('center_axis',(0.,-1.,0.));
#1166=DIRECTION('ref_axis',(1.,0.,0.));
#1167=DIRECTION('',(1.,0.,0.));
#1168=DIRECTION('',(0.,0.,-1.));
#1169=DIRECTION('',(1.,0.,0.));
#1170=DIRECTION('center_axis',(1.,0.,0.));
#1171=DIRECTION('ref_axis',(0.,1.,0.));
#1172=DIRECTION('',(0.,1.,0.));
#1173=DIRECTION('',(0.,0.,-1.));
#1174=DIRECTION('',(0.,1.,0.));
#1175=DIRECTION('center_axis',(-1.,0.,0.));
#1176=DIRECTION('ref_axis',(0.,-1.,0.));
#1177=DIRECTION('',(0.,-1.,0.));
#1178=DIRECTION('',(0.,0.,-1.));
#1179=DIRECTION('',(0.,-1.,0.));
#1180=DIRECTION('center_axis',(0.,1.,0.));
#1181=DIRECTION('ref_axis',(-1.,0.,0.));
#1182=DIRECTION('',(-1.,0.,0.));
#1183=DIRECTION('',(0.,0.,-1.));
#1184=DIRECTION('',(-1.,0.,0.));
#1185=DIRECTION('center_axis',(0.,1.,0.));
#1186=DIRECTION('ref_axis',(-1.,0.,0.));
#1187=DIRECTION('',(-1.,0.,0.));
#1188=DIRECTION('',(0.,0.,1.));
#1189=DIRECTION('',(-1.,0.,0.));
#1190=DIRECTION('',(0.,0.,1.));
#1191=DIRECTION('center_axis',(-1.,0.,0.));
#1192=DIRECTION('ref_axis',(0.,-1.,0.));
#1193=DIRECTION('',(0.,0.,1.));
#1194=DIRECTION('',(0.,-1.,0.));
#1195=DIRECTION('',(0.,0.,1.));
#1196=DIRECTION('',(0.,-1.,0.));
#1197=DIRECTION('center_axis',(-1.,0.,0.));
#1198=DIRECTION('ref_axis',(0.,-1.,0.));
#1199=DIRECTION('',(0.,0.,-1.));
#1200=DIRECTION('',(0.,-1.,0.));
#1201=DIRECTION('',(0.,-1.,0.));
#1202=DIRECTION('center_axis',(-1.,0.,0.));
#1203=DIRECTION('ref_axis',(0.,-1.,0.));
#1204=DIRECTION('',(0.,-1.,0.));
#1205=DIRECTION('',(0.,0.,1.));
#1206=DIRECTION('',(0.,-1.,0.));
#1207=DIRECTION('center_axis',(1.,0.,0.));
#1208=DIRECTION('ref_axis',(0.,1.,0.));
#1209=DIRECTION('',(0.,0.,-1.));
#1210=DIRECTION('',(0.,1.,0.));
#1211=DIRECTION('',(0.,0.,1.));
#1212=DIRECTION('',(0.,1.,0.));
#1213=DIRECTION('center_axis',(1.,0.,0.));
#1214=DIRECTION('ref_axis',(0.,1.,0.));
#1215=DIRECTION('',(0.,1.,0.));
#1216=DIRECTION('',(0.,0.,1.));
#1217=DIRECTION('',(0.,1.,0.));
#1218=DIRECTION('center_axis',(1.,0.,0.));
#1219=DIRECTION('ref_axis',(0.,1.,0.));
#1220=DIRECTION('',(0.,0.,1.));
#1221=DIRECTION('',(0.,1.,0.));
#1222=DIRECTION('',(0.,1.,0.));
#1223=DIRECTION('center_axis',(0.,-1.,0.));
#1224=DIRECTION('ref_axis',(1.,0.,0.));
#1225=DIRECTION('',(1.,0.,0.));
#1226=DIRECTION('',(1.,0.,0.));
#1227=DIRECTION('center_axis',(0.,1.,0.));
#1228=DIRECTION('ref_axis',(-1.,0.,0.));
#1229=DIRECTION('',(-1.,0.,0.));
#1230=DIRECTION('',(0.,0.,1.));
#1231=DIRECTION('',(-1.,0.,0.));
#1232=DIRECTION('center_axis',(0.,0.,1.));
#1233=DIRECTION('ref_axis',(-1.,0.,0.));
#1234=DIRECTION('center_axis',(0.,0.,1.));
#1235=DIRECTION('ref_axis',(-1.,0.,0.));
#1236=DIRECTION('center_axis',(0.,0.,-1.));
#1237=DIRECTION('ref_axis',(-1.,0.,0.));
#1238=DIRECTION('center_axis',(0.,0.,1.));
#1239=DIRECTION('ref_axis',(-1.,0.,0.));
#1240=DIRECTION('center_axis',(0.,0.,-1.));
#1241=DIRECTION('ref_axis',(-1.,0.,0.));
#1242=DIRECTION('center_axis',(0.,0.,1.));
#1243=DIRECTION('ref_axis',(-1.,0.,0.));
#1244=DIRECTION('center_axis',(0.,0.,1.));
#1245=DIRECTION('ref_axis',(-1.,0.,0.));
#1246=DIRECTION('center_axis',(0.,0.,1.));
#1247=DIRECTION('ref_axis',(-1.,0.,0.));
#1248=DIRECTION('',(0.,0.,-1.));
#1249=DIRECTION('center_axis',(0.,0.,-1.));
#1250=DIRECTION('ref_axis',(-1.,0.,0.));
#1251=DIRECTION('center_axis',(0.,0.,1.));
#1252=DIRECTION('ref_axis',(1.,0.,0.));
#1253=DIRECTION('',(-1.,0.,0.));
#1254=DIRECTION('',(0.,1.,0.));
#1255=DIRECTION('',(1.,0.,0.));
#1256=DIRECTION('center_axis',(0.,0.,-1.));
#1257=DIRECTION('ref_axis',(-1.,0.,0.));
#1258=DIRECTION('center_axis',(0.,0.,-1.));
#1259=DIRECTION('ref_axis',(-1.,0.,0.));
#1260=DIRECTION('',(1.,0.,0.));
#1261=DIRECTION('',(0.,-1.,0.));
#1262=DIRECTION('',(-1.,0.,0.));
#1263=DIRECTION('center_axis',(0.,0.,-1.));
#1264=DIRECTION('ref_axis',(-1.,0.,0.));
#1265=DIRECTION('center_axis',(0.,0.,1.));
#1266=DIRECTION('ref_axis',(-1.,0.,0.));
#1267=DIRECTION('',(1.,0.,0.));
#1268=DIRECTION('center_axis',(0.,0.,1.));
#1269=DIRECTION('ref_axis',(-1.,0.,0.));
#1270=DIRECTION('center_axis',(0.,0.,1.));
#1271=DIRECTION('ref_axis',(-1.,0.,0.));
#1272=DIRECTION('center_axis',(0.,0.,-1.));
#1273=DIRECTION('ref_axis',(-1.,0.,0.));
#1274=DIRECTION('center_axis',(0.,0.,1.));
#1275=DIRECTION('ref_axis',(-1.,0.,0.));
#1276=DIRECTION('',(0.,0.,1.));
#1277=DIRECTION('center_axis',(0.,0.,1.));
#1278=DIRECTION('ref_axis',(-1.,0.,0.));
#1279=DIRECTION('center_axis',(0.,0.,1.));
#1280=DIRECTION('ref_axis',(-1.,0.,0.));
#1281=DIRECTION('center_axis',(0.,0.,1.));
#1282=DIRECTION('ref_axis',(-1.,0.,0.));
#1283=DIRECTION('',(0.,0.,-1.));
#1284=DIRECTION('center_axis',(1.,0.,0.));
#1285=DIRECTION('ref_axis',(0.,1.,0.));
#1286=DIRECTION('',(0.,1.,0.));
#1287=DIRECTION('',(0.,0.,1.));
#1288=DIRECTION('',(0.,0.,1.));
#1289=DIRECTION('center_axis',(0.,1.,0.));
#1290=DIRECTION('ref_axis',(-1.,0.,0.));
#1291=DIRECTION('',(0.,0.,1.));
#1292=DIRECTION('',(0.,0.,1.));
#1293=DIRECTION('',(-1.,0.,0.));
#1294=DIRECTION('center_axis',(0.,1.,0.));
#1295=DIRECTION('ref_axis',(-1.,0.,0.));
#1296=DIRECTION('',(-1.,0.,0.));
#1297=DIRECTION('center_axis',(0.,-1.,0.));
#1298=DIRECTION('ref_axis',(1.,0.,0.));
#1299=DIRECTION('',(1.,0.,0.));
#1300=DIRECTION('',(0.,0.,1.));
#1301=DIRECTION('center_axis',(0.,-1.,0.));
#1302=DIRECTION('ref_axis',(1.,0.,0.));
#1303=DIRECTION('',(1.,0.,0.));
#1304=DIRECTION('center_axis',(-1.,0.,0.));
#1305=DIRECTION('ref_axis',(0.,-1.,0.));
#1306=DIRECTION('',(0.,-1.,0.));
#1307=DIRECTION('center_axis',(0.,-1.,0.));
#1308=DIRECTION('ref_axis',(1.,0.,0.));
#1309=DIRECTION('',(1.,0.,0.));
#1310=DIRECTION('',(0.,0.,1.));
#1311=DIRECTION('center_axis',(0.,0.,1.));
#1312=DIRECTION('ref_axis',(-1.,0.,0.));
#1313=DIRECTION('center_axis',(0.,0.,-1.));
#1314=DIRECTION('ref_axis',(-1.,0.,0.));
#1315=DIRECTION('center_axis',(0.,0.,1.));
#1316=DIRECTION('ref_axis',(1.,0.,0.));
#1317=DIRECTION('center_axis',(0.,0.,1.));
#1318=DIRECTION('ref_axis',(-1.,0.,0.));
#1319=DIRECTION('center_axis',(0.,0.,1.));
#1320=DIRECTION('ref_axis',(-1.,0.,0.));
#1321=CARTESIAN_POINT('',(0.,0.,0.));
#1322=CARTESIAN_POINT('Origin',(-2.57175827820944E-15,-14.,49.5));
#1323=CARTESIAN_POINT('',(1.6,-14.,49.5));
#1324=CARTESIAN_POINT('Origin',(-2.57175827820944E-15,-14.,49.5));
#1325=CARTESIAN_POINT('',(1.6,-14.,51.));
#1326=CARTESIAN_POINT('',(1.6,-14.,49.5));
#1327=CARTESIAN_POINT('Origin',(-2.57175827820944E-15,-14.,51.));
#1328=CARTESIAN_POINT('Origin',(-14.,1.71450551880629E-15,49.5));
#1329=CARTESIAN_POINT('',(-12.4,1.91044900666987E-15,49.5));
#1330=CARTESIAN_POINT('Origin',(-14.,1.71450551880629E-15,49.5));
#1331=CARTESIAN_POINT('',(-12.4,1.91044900666987E-15,51.));
#1332=CARTESIAN_POINT('',(-12.4,1.91044900666987E-15,49.5));
#1333=CARTESIAN_POINT('Origin',(-14.,1.71450551880629E-15,51.));
#1334=CARTESIAN_POINT('Origin',(8.57252759403147E-16,14.,49.5));
#1335=CARTESIAN_POINT('',(1.6,14.,49.5));
#1336=CARTESIAN_POINT('Origin',(8.57252759403147E-16,14.,49.5));
#1337=CARTESIAN_POINT('',(1.6,14.,51.));
#1338=CARTESIAN_POINT('',(1.6,14.,49.5));
#1339=CARTESIAN_POINT('Origin',(8.57252759403147E-16,14.,51.));
#1340=CARTESIAN_POINT('Origin',(14.,0.,49.5));
#1341=CARTESIAN_POINT('',(15.6,1.95943487863576E-16,49.5));
#1342=CARTESIAN_POINT('Origin',(14.,0.,49.5));
#1343=CARTESIAN_POINT('',(15.6,1.95943487863576E-16,51.));
#1344=CARTESIAN_POINT('',(15.6,1.95943487863576E-16,49.5));
#1345=CARTESIAN_POINT('Origin',(14.,0.,51.));
#1346=CARTESIAN_POINT('Origin',(61.4878036686951,-35.5,49.5));
#1347=CARTESIAN_POINT('',(63.0878036686951,-35.5,49.5));
#1348=CARTESIAN_POINT('Origin',(61.4878036686951,-35.5,49.5));
#1349=CARTESIAN_POINT('',(63.0878036686951,-35.5,51.));
#1350=CARTESIAN_POINT('',(63.0878036686951,-35.5,49.5));
#1351=CARTESIAN_POINT('Origin',(61.4878036686951,-35.5,51.));
#1352=CARTESIAN_POINT('Origin',(-1.30424884109193E-14,-71.,49.5));
#1353=CARTESIAN_POINT('',(1.59999999999999,-71.,49.5));
#1354=CARTESIAN_POINT('Origin',(-1.30424884109193E-14,-71.,49.5));
#1355=CARTESIAN_POINT('',(1.59999999999999,-71.,51.));
#1356=CARTESIAN_POINT('',(1.59999999999999,-71.,49.5));
#1357=CARTESIAN_POINT('Origin',(-1.30424884109193E-14,-71.,51.));
#1358=CARTESIAN_POINT('Origin',(-61.4878036686952,-35.5,49.5));
#1359=CARTESIAN_POINT('',(-59.8878036686951,-35.5,49.5));
#1360=CARTESIAN_POINT('Origin',(-61.4878036686952,-35.5,49.5));
#1361=CARTESIAN_POINT('',(-59.8878036686951,-35.5,51.));
#1362=CARTESIAN_POINT('',(-59.8878036686951,-35.5,49.5));
#1363=CARTESIAN_POINT('Origin',(-61.4878036686952,-35.5,51.));
#1364=CARTESIAN_POINT('Origin',(-61.4878036686952,35.5,49.5));
#1365=CARTESIAN_POINT('',(-59.8878036686951,35.5,49.5));
#1366=CARTESIAN_POINT('Origin',(-61.4878036686952,35.5,49.5));
#1367=CARTESIAN_POINT('',(-59.8878036686951,35.5,51.));
#1368=CARTESIAN_POINT('',(-59.8878036686951,35.5,49.5));
#1369=CARTESIAN_POINT('Origin',(-61.4878036686952,35.5,51.));
#1370=CARTESIAN_POINT('Origin',(4.3474961369731E-15,71.,49.5));
#1371=CARTESIAN_POINT('',(1.6,71.,49.5));
#1372=CARTESIAN_POINT('Origin',(4.3474961369731E-15,71.,49.5));
#1373=CARTESIAN_POINT('',(1.6,71.,51.));
#1374=CARTESIAN_POINT('',(1.6,71.,49.5));
#1375=CARTESIAN_POINT('Origin',(4.3474961369731E-15,71.,51.));
#1376=CARTESIAN_POINT('Origin',(61.4878036686952,35.5,49.5));
#1377=CARTESIAN_POINT('',(63.0878036686951,35.5,49.5));
#1378=CARTESIAN_POINT('Origin',(61.4878036686952,35.5,49.5));
#1379=CARTESIAN_POINT('',(63.0878036686951,35.5,51.));
#1380=CARTESIAN_POINT('',(63.0878036686951,35.5,49.5));
#1381=CARTESIAN_POINT('Origin',(61.4878036686952,35.5,51.));
#1382=CARTESIAN_POINT('Origin',(0.,0.,49.5));
#1383=CARTESIAN_POINT('',(5.,6.12323399573677E-16,49.5));
#1384=CARTESIAN_POINT('Origin',(0.,0.,49.5));
#1385=CARTESIAN_POINT('',(5.,6.12323399573677E-16,51.));
#1386=CARTESIAN_POINT('',(5.,6.12323399573677E-16,49.5));
#1387=CARTESIAN_POINT('Origin',(0.,0.,51.));
#1388=CARTESIAN_POINT('Origin',(0.,0.,49.5));
#1389=CARTESIAN_POINT('',(-3.,17.7482393492988,49.5));
#1390=CARTESIAN_POINT('',(-3.,17.7482393492988,51.));
#1391=CARTESIAN_POINT('',(-3.,17.7482393492988,49.5));
#1392=CARTESIAN_POINT('',(-17.7482393492988,3.,49.5));
#1393=CARTESIAN_POINT('Origin',(0.,0.,49.5));
#1394=CARTESIAN_POINT('',(-17.7482393492988,3.,51.));
#1395=CARTESIAN_POINT('',(-17.7482393492988,3.,49.5));
#1396=CARTESIAN_POINT('Origin',(0.,0.,51.));
#1397=CARTESIAN_POINT('Origin',(0.,0.,49.5));
#1398=CARTESIAN_POINT('',(-3.,-17.7482393492988,51.));
#1399=CARTESIAN_POINT('',(-3.,-17.7482393492988,49.5));
#1400=CARTESIAN_POINT('',(-3.,-17.7482393492988,49.5));
#1401=CARTESIAN_POINT('',(-17.7482393492988,-3.,51.));
#1402=CARTESIAN_POINT('Origin',(0.,0.,51.));
#1403=CARTESIAN_POINT('',(-17.7482393492988,-3.,49.5));
#1404=CARTESIAN_POINT('',(-17.7482393492988,-3.,49.5));
#1405=CARTESIAN_POINT('Origin',(0.,0.,49.5));
#1406=CARTESIAN_POINT('Origin',(0.,0.,49.5));
#1407=CARTESIAN_POINT('',(17.7482393492988,3.,49.5));
#1408=CARTESIAN_POINT('',(17.7482393492988,3.,51.));
#1409=CARTESIAN_POINT('',(17.7482393492988,3.,49.5));
#1410=CARTESIAN_POINT('',(3.,17.7482393492988,49.5));
#1411=CARTESIAN_POINT('Origin',(0.,0.,49.5));
#1412=CARTESIAN_POINT('',(3.,17.7482393492988,51.));
#1413=CARTESIAN_POINT('',(3.,17.7482393492988,49.5));
#1414=CARTESIAN_POINT('Origin',(0.,0.,51.));
#1415=CARTESIAN_POINT('Origin',(0.,0.,49.5));
#1416=CARTESIAN_POINT('',(17.7482393492988,-3.,51.));
#1417=CARTESIAN_POINT('',(17.7482393492988,-3.,49.5));
#1418=CARTESIAN_POINT('',(17.7482393492988,-3.,49.5));
#1419=CARTESIAN_POINT('',(3.,-17.7482393492988,51.));
#1420=CARTESIAN_POINT('Origin',(0.,0.,51.));
#1421=CARTESIAN_POINT('',(3.,-17.7482393492988,49.5));
#1422=CARTESIAN_POINT('',(3.,-17.7482393492988,49.5));
#1423=CARTESIAN_POINT('Origin',(0.,0.,49.5));
#1424=CARTESIAN_POINT('Origin',(-74.,-3.,49.5));
#1425=CARTESIAN_POINT('',(67.9337912971152,-3.,49.5));
#1426=CARTESIAN_POINT('',(-74.,-3.,49.5));
#1427=CARTESIAN_POINT('',(67.9337912971152,-3.,51.));
#1428=CARTESIAN_POINT('',(67.9337912971152,-3.,49.5));
#1429=CARTESIAN_POINT('',(-74.,-3.,51.));
#1430=CARTESIAN_POINT('Origin',(3.,-74.,49.5));
#1431=CARTESIAN_POINT('',(3.,67.9337912971152,49.5));
#1432=CARTESIAN_POINT('',(3.,-74.,49.5));
#1433=CARTESIAN_POINT('',(3.,67.9337912971152,51.));
#1434=CARTESIAN_POINT('',(3.,67.9337912971152,49.5));
#1435=CARTESIAN_POINT('',(3.,-74.,51.));
#1436=CARTESIAN_POINT('Origin',(-3.,74.,49.5));
#1437=CARTESIAN_POINT('',(-3.,-67.9337912971152,49.5));
#1438=CARTESIAN_POINT('',(-3.,74.,49.5));
#1439=CARTESIAN_POINT('',(-3.,-67.9337912971152,51.));
#1440=CARTESIAN_POINT('',(-3.,-67.9337912971152,49.5));
#1441=CARTESIAN_POINT('',(-3.,74.,51.));
#1442=CARTESIAN_POINT('Origin',(74.,3.,49.5));
#1443=CARTESIAN_POINT('',(-67.9337912971152,3.,49.5));
#1444=CARTESIAN_POINT('',(74.,3.,49.5));
#1445=CARTESIAN_POINT('',(-67.9337912971152,3.,51.));
#1446=CARTESIAN_POINT('',(-67.9337912971152,3.,49.5));
#1447=CARTESIAN_POINT('',(74.,3.,51.));
#1448=CARTESIAN_POINT('Origin',(3.,74.,49.5));
#1449=CARTESIAN_POINT('',(3.,74.,51.));
#1450=CARTESIAN_POINT('',(-3.,74.,51.));
#1451=CARTESIAN_POINT('',(3.,74.,51.));
#1452=CARTESIAN_POINT('',(3.,74.,49.5));
#1453=CARTESIAN_POINT('',(3.,74.,49.5));
#1454=CARTESIAN_POINT('',(-3.,74.,49.5));
#1455=CARTESIAN_POINT('',(3.,74.,49.5));
#1456=CARTESIAN_POINT('',(-3.,74.,49.5));
#1457=CARTESIAN_POINT('Origin',(-3.,74.,49.5));
#1458=CARTESIAN_POINT('',(-3.,-73.9391641824548,49.5));
#1459=CARTESIAN_POINT('',(-3.,-73.9391641824548,51.));
#1460=CARTESIAN_POINT('',(-3.,-73.9391641824548,49.5));
#1461=CARTESIAN_POINT('',(-3.,-74.,49.5));
#1462=CARTESIAN_POINT('',(-3.,74.,49.5));
#1463=CARTESIAN_POINT('',(-3.,-74.,51.));
#1464=CARTESIAN_POINT('',(-3.,-74.,49.5));
#1465=CARTESIAN_POINT('',(-3.,74.,51.));
#1466=CARTESIAN_POINT('Origin',(-3.,74.,49.5));
#1467=CARTESIAN_POINT('',(-3.,73.9391641824548,51.));
#1468=CARTESIAN_POINT('',(-3.,73.9391641824548,49.5));
#1469=CARTESIAN_POINT('',(-3.,73.9391641824548,49.5));
#1470=CARTESIAN_POINT('',(-3.,74.,51.));
#1471=CARTESIAN_POINT('',(-3.,74.,49.5));
#1472=CARTESIAN_POINT('Origin',(-3.,74.,49.5));
#1473=CARTESIAN_POINT('',(-3.,67.9337912971152,51.));
#1474=CARTESIAN_POINT('',(-3.,74.,51.));
#1475=CARTESIAN_POINT('',(-3.,67.9337912971152,49.5));
#1476=CARTESIAN_POINT('',(-3.,67.9337912971152,49.5));
#1477=CARTESIAN_POINT('',(-3.,74.,49.5));
#1478=CARTESIAN_POINT('Origin',(3.,-74.,49.5));
#1479=CARTESIAN_POINT('',(3.,-73.9391641824548,51.));
#1480=CARTESIAN_POINT('',(3.,-73.9391641824548,49.5));
#1481=CARTESIAN_POINT('',(3.,-73.9391641824548,49.5));
#1482=CARTESIAN_POINT('',(3.,-74.,51.));
#1483=CARTESIAN_POINT('',(3.,-74.,51.));
#1484=CARTESIAN_POINT('',(3.,-74.,49.5));
#1485=CARTESIAN_POINT('',(3.,-74.,49.5));
#1486=CARTESIAN_POINT('',(3.,-74.,49.5));
#1487=CARTESIAN_POINT('Origin',(3.,-74.,49.5));
#1488=CARTESIAN_POINT('',(3.,-67.9337912971152,51.));
#1489=CARTESIAN_POINT('',(3.,-74.,51.));
#1490=CARTESIAN_POINT('',(3.,-67.9337912971152,49.5));
#1491=CARTESIAN_POINT('',(3.,-67.9337912971152,49.5));
#1492=CARTESIAN_POINT('',(3.,-74.,49.5));
#1493=CARTESIAN_POINT('Origin',(3.,-74.,49.5));
#1494=CARTESIAN_POINT('',(3.,73.9391641824548,49.5));
#1495=CARTESIAN_POINT('',(3.,73.9391641824548,51.));
#1496=CARTESIAN_POINT('',(3.,73.9391641824548,49.5));
#1497=CARTESIAN_POINT('',(3.,-74.,49.5));
#1498=CARTESIAN_POINT('',(3.,-74.,51.));
#1499=CARTESIAN_POINT('Origin',(-3.,-74.,49.5));
#1500=CARTESIAN_POINT('',(-3.,-74.,51.));
#1501=CARTESIAN_POINT('',(-3.,-74.,49.5));
#1502=CARTESIAN_POINT('Origin',(74.,3.,49.5));
#1503=CARTESIAN_POINT('',(67.9337912971152,3.,51.));
#1504=CARTESIAN_POINT('',(74.,3.,51.));
#1505=CARTESIAN_POINT('',(67.9337912971152,3.,49.5));
#1506=CARTESIAN_POINT('',(67.9337912971152,3.,49.5));
#1507=CARTESIAN_POINT('',(74.,3.,49.5));
#1508=CARTESIAN_POINT('Origin',(0.,0.,49.5));
#1509=CARTESIAN_POINT('Origin',(0.,0.,49.5));
#1510=CARTESIAN_POINT('Origin',(0.,0.,51.));
#1511=CARTESIAN_POINT('Origin',(0.,0.,49.5));
#1512=CARTESIAN_POINT('Origin',(0.,0.,51.));
#1513=CARTESIAN_POINT('Origin',(0.,0.,49.5));
#1514=CARTESIAN_POINT('Origin',(0.,0.,49.5));
#1515=CARTESIAN_POINT('',(73.9391641824548,3.,51.));
#1516=CARTESIAN_POINT('Origin',(0.,0.,51.));
#1517=CARTESIAN_POINT('',(73.9391641824548,3.,49.5));
#1518=CARTESIAN_POINT('',(73.9391641824548,3.,49.5));
#1519=CARTESIAN_POINT('Origin',(0.,0.,49.5));
#1520=CARTESIAN_POINT('Origin',(-7.15648476722285E-15,1.60032147693716E-15,
49.5));
#1521=CARTESIAN_POINT('',(74.,3.,49.5));
#1522=CARTESIAN_POINT('',(74.,3.,49.5));
#1523=CARTESIAN_POINT('',(74.,-3.,49.5));
#1524=CARTESIAN_POINT('',(74.,-3.,49.5));
#1525=CARTESIAN_POINT('',(73.9391641824548,-3.,49.5));
#1526=CARTESIAN_POINT('',(-74.,-3.,49.5));
#1527=CARTESIAN_POINT('Origin',(0.,0.,49.5));
#1528=CARTESIAN_POINT('',(-73.9391641824548,-3.,49.5));
#1529=CARTESIAN_POINT('Origin',(0.,0.,49.5));
#1530=CARTESIAN_POINT('',(-74.,-3.,49.5));
#1531=CARTESIAN_POINT('',(-74.,-3.,49.5));
#1532=CARTESIAN_POINT('',(-74.,3.,49.5));
#1533=CARTESIAN_POINT('',(-74.,3.,49.5));
#1534=CARTESIAN_POINT('',(-73.9391641824548,3.,49.5));
#1535=CARTESIAN_POINT('',(74.,3.,49.5));
#1536=CARTESIAN_POINT('Origin',(0.,0.,49.5));
#1537=CARTESIAN_POINT('Origin',(0.,0.,49.5));
#1538=CARTESIAN_POINT('',(-67.9337912971152,-3.,49.5));
#1539=CARTESIAN_POINT('',(-74.,-3.,49.5));
#1540=CARTESIAN_POINT('Origin',(0.,0.,49.5));
#1541=CARTESIAN_POINT('Origin',(0.,0.,49.5));
#1542=CARTESIAN_POINT('Origin',(0.,0.,51.));
#1543=CARTESIAN_POINT('Origin',(0.,0.,49.5));
#1544=CARTESIAN_POINT('',(73.9391641824548,-3.,51.));
#1545=CARTESIAN_POINT('',(73.9391641824548,-3.,49.5));
#1546=CARTESIAN_POINT('Origin',(0.,0.,51.));
#1547=CARTESIAN_POINT('Origin',(0.,0.,49.5));
#1548=CARTESIAN_POINT('',(-73.9391641824548,-3.,51.));
#1549=CARTESIAN_POINT('Origin',(0.,0.,51.));
#1550=CARTESIAN_POINT('',(-73.9391641824548,-3.,49.5));
#1551=CARTESIAN_POINT('Origin',(74.,-3.,49.5));
#1552=CARTESIAN_POINT('',(74.,-3.,51.));
#1553=CARTESIAN_POINT('',(74.,3.,51.));
#1554=CARTESIAN_POINT('',(74.,-3.,51.));
#1555=CARTESIAN_POINT('',(74.,-3.,49.5));
#1556=CARTESIAN_POINT('',(74.,3.,49.5));
#1557=CARTESIAN_POINT('Origin',(74.,3.,49.5));
#1558=CARTESIAN_POINT('',(-73.9391641824548,3.,51.));
#1559=CARTESIAN_POINT('',(-73.9391641824548,3.,49.5));
#1560=CARTESIAN_POINT('',(-74.,3.,51.));
#1561=CARTESIAN_POINT('',(-74.,3.,49.5));
#1562=CARTESIAN_POINT('',(74.,3.,51.));
#1563=CARTESIAN_POINT('Origin',(74.,3.,49.5));
#1564=CARTESIAN_POINT('',(74.,3.,51.));
#1565=CARTESIAN_POINT('Origin',(-74.,-3.,49.5));
#1566=CARTESIAN_POINT('',(-74.,-3.,51.));
#1567=CARTESIAN_POINT('',(-74.,-3.,51.));
#1568=CARTESIAN_POINT('',(-74.,-3.,49.5));
#1569=CARTESIAN_POINT('Origin',(-74.,-3.,49.5));
#1570=CARTESIAN_POINT('',(-74.,-3.,51.));
#1571=CARTESIAN_POINT('Origin',(-74.,3.,49.5));
#1572=CARTESIAN_POINT('',(-74.,3.,51.));
#1573=CARTESIAN_POINT('Origin',(-74.,-3.,49.5));
#1574=CARTESIAN_POINT('',(-67.9337912971152,-3.,51.));
#1575=CARTESIAN_POINT('',(-74.,-3.,51.));
#1576=CARTESIAN_POINT('',(-67.9337912971152,-3.,49.5));
#1577=CARTESIAN_POINT('Origin',(0.,0.,49.5));
#1578=CARTESIAN_POINT('Origin',(0.,0.,51.));
#1579=CARTESIAN_POINT('Origin',(-7.15648476722285E-15,1.60032147693716E-15,
51.));
#1580=CARTESIAN_POINT('Origin',(0.,0.,51.));
#1581=CARTESIAN_POINT('Origin',(0.,0.,49.5));
#1582=UNCERTAINTY_MEASURE_WITH_UNIT(LENGTH_MEASURE(0.01),#1586,
'DISTANCE_ACCURACY_VALUE',
'Maximum model space distance between geometric entities at asserted c
onnectivities');
#1583=UNCERTAINTY_MEASURE_WITH_UNIT(LENGTH_MEASURE(0.01),#1586,
'DISTANCE_ACCURACY_VALUE',
'Maximum model space distance between geometric entities at asserted c
onnectivities');
#1584=(
GEOMETRIC_REPRESENTATION_CONTEXT(3)
GLOBAL_UNCERTAINTY_ASSIGNED_CONTEXT((#1582))
GLOBAL_UNIT_ASSIGNED_CONTEXT((#1586,#1588,#1589))
REPRESENTATION_CONTEXT('','3D')
);
#1585=(
GEOMETRIC_REPRESENTATION_CONTEXT(3)
GLOBAL_UNCERTAINTY_ASSIGNED_CONTEXT((#1583))
GLOBAL_UNIT_ASSIGNED_CONTEXT((#1586,#1588,#1589))
REPRESENTATION_CONTEXT('','3D')
);
#1586=(
LENGTH_UNIT()
NAMED_UNIT(*)
SI_UNIT(.MILLI.,.METRE.)
);
#1587=(
LENGTH_UNIT()
NAMED_UNIT(*)
SI_UNIT(.CENTI.,.METRE.)
);
#1588=(
NAMED_UNIT(*)
PLANE_ANGLE_UNIT()
SI_UNIT($,.RADIAN.)
);
#1589=(
NAMED_UNIT(*)
SI_UNIT($,.STERADIAN.)
SOLID_ANGLE_UNIT()
);
#1590=SHAPE_DEFINITION_REPRESENTATION(#1591,#1592);
#1591=PRODUCT_DEFINITION_SHAPE('',$,#1594);
#1592=SHAPE_REPRESENTATION('',(#962),#1584);
#1593=PRODUCT_DEFINITION_CONTEXT('part definition',#1598,'design');
#1594=PRODUCT_DEFINITION('03_Wheel_Spokes','03_Wheel_Spokes',#1595,#1593);
#1595=PRODUCT_DEFINITION_FORMATION('',$,#1600);
#1596=PRODUCT_RELATED_PRODUCT_CATEGORY('03_Wheel_Spokes',
'03_Wheel_Spokes',(#1600));
#1597=APPLICATION_PROTOCOL_DEFINITION('international standard',
'automotive_design',2009,#1598);
#1598=APPLICATION_CONTEXT(
'Core Data for Automotive Mechanical Design Process');
#1599=PRODUCT_CONTEXT('part definition',#1598,'mechanical');
#1600=PRODUCT('03_Wheel_Spokes','03_Wheel_Spokes',$,(#1599));
#1601=PRESENTATION_STYLE_ASSIGNMENT((#1602));
#1602=SURFACE_STYLE_USAGE(.BOTH.,#1605);
#1603=SURFACE_STYLE_RENDERING_WITH_PROPERTIES($,#1609,(#1604));
#1604=SURFACE_STYLE_TRANSPARENT(0.);
#1605=SURFACE_SIDE_STYLE('',(#1606,#1603));
#1606=SURFACE_STYLE_FILL_AREA(#1607);
#1607=FILL_AREA_STYLE('',(#1608));
#1608=FILL_AREA_STYLE_COLOUR('',#1609);
#1609=COLOUR_RGB('',0.996078431372549,0.996078431372549,1.);
ENDSEC;
END-ISO-10303-21;
