ISO-10303-21;
HEADER;
/* Generated by software containing ST-Developer
 * from STEP Tools, Inc. (www.steptools.com) 
 */

FILE_DESCRIPTION(
/* description */ (''),
/* implementation_level */ '2;1');

FILE_NAME(
/* name */ '04_Wheel_Shaft.step',
/* time_stamp */ '2026-10-08T17:08:34+09:00',
/* author */ ('Reaction Wheel Pendulum project'),
/* organization */ (''),
/* preprocessor_version */ 'ST-DEVELOPER v20.1',
/* originating_system */ 'Autodesk Inventor 2026',
/* authorisation */ '');

FILE_SCHEMA (('AUTOMOTIVE_DESIGN { 1 0 10303 214 3 1 1 }'));
ENDSEC;

DATA;
#10=MECHANICAL_DESIGN_GEOMETRIC_PRESENTATION_REPRESENTATION('',(#13),#464);
#11=SHAPE_REPRESENTATION_RELATIONSHIP('SRR','None',#471,#12);
#12=ADVANCED_BREP_SHAPE_REPRESENTATION('',(#14),#463);
#13=STYLED_ITEM('',(#480),#14);
#14=MANIFOLD_SOLID_BREP('\X2\30BD30EA30C330C9\X0\1',#255);
#15=FACE_BOUND('',#60,.T.);
#16=FACE_BOUND('',#62,.T.);
#17=FACE_BOUND('',#65,.T.);
#18=FACE_BOUND('',#67,.T.);
#19=FACE_BOUND('',#70,.T.);
#20=FACE_BOUND('',#74,.T.);
#21=PLANE('',#281);
#22=PLANE('',#282);
#23=PLANE('',#283);
#24=PLANE('',#285);
#25=PLANE('',#286);
#26=PLANE('',#287);
#27=PLANE('',#292);
#28=PLANE('',#294);
#29=PLANE('',#298);
#30=PLANE('',#301);
#31=PLANE('',#308);
#32=PLANE('',#309);
#33=FACE_OUTER_BOUND('',#51,.T.);
#34=FACE_OUTER_BOUND('',#52,.T.);
#35=FACE_OUTER_BOUND('',#53,.T.);
#36=FACE_OUTER_BOUND('',#54,.T.);
#37=FACE_OUTER_BOUND('',#55,.T.);
#38=FACE_OUTER_BOUND('',#56,.T.);
#39=FACE_OUTER_BOUND('',#57,.T.);
#40=FACE_OUTER_BOUND('',#58,.T.);
#41=FACE_OUTER_BOUND('',#59,.T.);
#42=FACE_OUTER_BOUND('',#61,.T.);
#43=FACE_OUTER_BOUND('',#63,.T.);
#44=FACE_OUTER_BOUND('',#64,.T.);
#45=FACE_OUTER_BOUND('',#66,.T.);
#46=FACE_OUTER_BOUND('',#68,.T.);
#47=FACE_OUTER_BOUND('',#69,.T.);
#48=FACE_OUTER_BOUND('',#71,.T.);
#49=FACE_OUTER_BOUND('',#72,.T.);
#50=FACE_OUTER_BOUND('',#73,.T.);
#51=EDGE_LOOP('',(#171,#172,#173,#174));
#52=EDGE_LOOP('',(#175));
#53=EDGE_LOOP('',(#176,#177,#178,#179));
#54=EDGE_LOOP('',(#180,#181,#182,#183));
#55=EDGE_LOOP('',(#184,#185,#186,#187));
#56=EDGE_LOOP('',(#188,#189,#190,#191));
#57=EDGE_LOOP('',(#192,#193,#194,#195));
#58=EDGE_LOOP('',(#196,#197,#198,#199));
#59=EDGE_LOOP('',(#200));
#60=EDGE_LOOP('',(#201));
#61=EDGE_LOOP('',(#202));
#62=EDGE_LOOP('',(#203));
#63=EDGE_LOOP('',(#204,#205,#206,#207));
#64=EDGE_LOOP('',(#208));
#65=EDGE_LOOP('',(#209));
#66=EDGE_LOOP('',(#210));
#67=EDGE_LOOP('',(#211));
#68=EDGE_LOOP('',(#212,#213,#214,#215));
#69=EDGE_LOOP('',(#216,#217,#218,#219));
#70=EDGE_LOOP('',(#220,#221,#222,#223));
#71=EDGE_LOOP('',(#224,#225,#226,#227));
#72=EDGE_LOOP('',(#228));
#73=EDGE_LOOP('',(#229));
#74=EDGE_LOOP('',(#230));
#75=LINE('',#397,#91);
#76=LINE('',#403,#92);
#77=LINE('',#405,#93);
#78=LINE('',#407,#94);
#79=LINE('',#408,#95);
#80=LINE('',#413,#96);
#81=LINE('',#414,#97);
#82=LINE('',#417,#98);
#83=LINE('',#419,#99);
#84=LINE('',#420,#100);
#85=LINE('',#422,#101);
#86=LINE('',#429,#102);
#87=LINE('',#440,#103);
#88=LINE('',#452,#104);
#89=LINE('',#454,#105);
#90=LINE('',#457,#106);
#91=VECTOR('',#316,1.25);
#92=VECTOR('',#323,10.);
#93=VECTOR('',#324,10.);
#94=VECTOR('',#325,10.);
#95=VECTOR('',#326,10.);
#96=VECTOR('',#331,10.);
#97=VECTOR('',#332,10.);
#98=VECTOR('',#335,10.);
#99=VECTOR('',#336,10.);
#100=VECTOR('',#337,10.);
#101=VECTOR('',#340,10.);
#102=VECTOR('',#349,4.6);
#103=VECTOR('',#364,5.);
#104=VECTOR('',#379,6.);
#105=VECTOR('',#382,5.);
#106=VECTOR('',#385,5.);
#107=CIRCLE('',#279,1.25);
#108=CIRCLE('',#280,1.25);
#109=CIRCLE('',#284,5.);
#110=CIRCLE('',#288,5.);
#111=CIRCLE('',#290,4.6);
#112=CIRCLE('',#291,4.6);
#113=CIRCLE('',#293,5.);
#114=CIRCLE('',#295,5.);
#115=CIRCLE('',#297,5.);
#116=CIRCLE('',#299,6.);
#117=CIRCLE('',#300,5.);
#118=CIRCLE('',#302,6.);
#119=CIRCLE('',#303,5.);
#120=CIRCLE('',#307,5.);
#121=VERTEX_POINT('',#394);
#122=VERTEX_POINT('',#396);
#123=VERTEX_POINT('',#401);
#124=VERTEX_POINT('',#402);
#125=VERTEX_POINT('',#404);
#126=VERTEX_POINT('',#406);
#127=VERTEX_POINT('',#410);
#128=VERTEX_POINT('',#412);
#129=VERTEX_POINT('',#416);
#130=VERTEX_POINT('',#418);
#131=VERTEX_POINT('',#426);
#132=VERTEX_POINT('',#428);
#133=VERTEX_POINT('',#432);
#134=VERTEX_POINT('',#435);
#135=VERTEX_POINT('',#438);
#136=VERTEX_POINT('',#442);
#137=VERTEX_POINT('',#444);
#138=VERTEX_POINT('',#447);
#139=VERTEX_POINT('',#449);
#140=VERTEX_POINT('',#456);
#141=EDGE_CURVE('',#121,#121,#107,.T.);
#142=EDGE_CURVE('',#121,#122,#75,.T.);
#143=EDGE_CURVE('',#122,#122,#108,.T.);
#144=EDGE_CURVE('',#123,#124,#76,.T.);
#145=EDGE_CURVE('',#123,#125,#77,.T.);
#146=EDGE_CURVE('',#126,#125,#78,.T.);
#147=EDGE_CURVE('',#124,#126,#79,.T.);
#148=EDGE_CURVE('',#124,#127,#109,.T.);
#149=EDGE_CURVE('',#126,#128,#80,.T.);
#150=EDGE_CURVE('',#128,#127,#81,.T.);
#151=EDGE_CURVE('',#127,#129,#82,.T.);
#152=EDGE_CURVE('',#128,#130,#83,.T.);
#153=EDGE_CURVE('',#130,#129,#84,.T.);
#154=EDGE_CURVE('',#125,#130,#85,.T.);
#155=EDGE_CURVE('',#129,#123,#110,.T.);
#156=EDGE_CURVE('',#131,#131,#111,.T.);
#157=EDGE_CURVE('',#131,#132,#86,.T.);
#158=EDGE_CURVE('',#132,#132,#112,.T.);
#159=EDGE_CURVE('',#133,#133,#113,.T.);
#160=EDGE_CURVE('',#134,#134,#114,.T.);
#161=EDGE_CURVE('',#135,#135,#115,.T.);
#162=EDGE_CURVE('',#135,#134,#87,.T.);
#163=EDGE_CURVE('',#136,#136,#116,.T.);
#164=EDGE_CURVE('',#137,#137,#117,.T.);
#165=EDGE_CURVE('',#138,#138,#118,.T.);
#166=EDGE_CURVE('',#139,#139,#119,.T.);
#167=EDGE_CURVE('',#138,#136,#88,.T.);
#168=EDGE_CURVE('',#133,#139,#89,.T.);
#169=EDGE_CURVE('',#137,#140,#90,.T.);
#170=EDGE_CURVE('',#140,#140,#120,.T.);
#171=ORIENTED_EDGE('',*,*,#141,.T.);
#172=ORIENTED_EDGE('',*,*,#142,.T.);
#173=ORIENTED_EDGE('',*,*,#143,.F.);
#174=ORIENTED_EDGE('',*,*,#142,.F.);
#175=ORIENTED_EDGE('',*,*,#141,.F.);
#176=ORIENTED_EDGE('',*,*,#144,.F.);
#177=ORIENTED_EDGE('',*,*,#145,.T.);
#178=ORIENTED_EDGE('',*,*,#146,.F.);
#179=ORIENTED_EDGE('',*,*,#147,.F.);
#180=ORIENTED_EDGE('',*,*,#148,.F.);
#181=ORIENTED_EDGE('',*,*,#147,.T.);
#182=ORIENTED_EDGE('',*,*,#149,.T.);
#183=ORIENTED_EDGE('',*,*,#150,.T.);
#184=ORIENTED_EDGE('',*,*,#151,.F.);
#185=ORIENTED_EDGE('',*,*,#150,.F.);
#186=ORIENTED_EDGE('',*,*,#152,.T.);
#187=ORIENTED_EDGE('',*,*,#153,.T.);
#188=ORIENTED_EDGE('',*,*,#149,.F.);
#189=ORIENTED_EDGE('',*,*,#146,.T.);
#190=ORIENTED_EDGE('',*,*,#154,.T.);
#191=ORIENTED_EDGE('',*,*,#152,.F.);
#192=ORIENTED_EDGE('',*,*,#155,.F.);
#193=ORIENTED_EDGE('',*,*,#153,.F.);
#194=ORIENTED_EDGE('',*,*,#154,.F.);
#195=ORIENTED_EDGE('',*,*,#145,.F.);
#196=ORIENTED_EDGE('',*,*,#156,.T.);
#197=ORIENTED_EDGE('',*,*,#157,.T.);
#198=ORIENTED_EDGE('',*,*,#158,.T.);
#199=ORIENTED_EDGE('',*,*,#157,.F.);
#200=ORIENTED_EDGE('',*,*,#159,.F.);
#201=ORIENTED_EDGE('',*,*,#158,.F.);
#202=ORIENTED_EDGE('',*,*,#160,.F.);
#203=ORIENTED_EDGE('',*,*,#156,.F.);
#204=ORIENTED_EDGE('',*,*,#161,.F.);
#205=ORIENTED_EDGE('',*,*,#162,.T.);
#206=ORIENTED_EDGE('',*,*,#160,.T.);
#207=ORIENTED_EDGE('',*,*,#162,.F.);
#208=ORIENTED_EDGE('',*,*,#163,.T.);
#209=ORIENTED_EDGE('',*,*,#164,.F.);
#210=ORIENTED_EDGE('',*,*,#165,.T.);
#211=ORIENTED_EDGE('',*,*,#166,.F.);
#212=ORIENTED_EDGE('',*,*,#165,.F.);
#213=ORIENTED_EDGE('',*,*,#167,.T.);
#214=ORIENTED_EDGE('',*,*,#163,.F.);
#215=ORIENTED_EDGE('',*,*,#167,.F.);
#216=ORIENTED_EDGE('',*,*,#159,.T.);
#217=ORIENTED_EDGE('',*,*,#168,.T.);
#218=ORIENTED_EDGE('',*,*,#166,.T.);
#219=ORIENTED_EDGE('',*,*,#168,.F.);
#220=ORIENTED_EDGE('',*,*,#151,.T.);
#221=ORIENTED_EDGE('',*,*,#155,.T.);
#222=ORIENTED_EDGE('',*,*,#144,.T.);
#223=ORIENTED_EDGE('',*,*,#148,.T.);
#224=ORIENTED_EDGE('',*,*,#164,.T.);
#225=ORIENTED_EDGE('',*,*,#169,.T.);
#226=ORIENTED_EDGE('',*,*,#170,.F.);
#227=ORIENTED_EDGE('',*,*,#169,.F.);
#228=ORIENTED_EDGE('',*,*,#170,.T.);
#229=ORIENTED_EDGE('',*,*,#161,.T.);
#230=ORIENTED_EDGE('',*,*,#143,.T.);
#231=CYLINDRICAL_SURFACE('',#278,1.25);
#232=CYLINDRICAL_SURFACE('',#289,4.6);
#233=CYLINDRICAL_SURFACE('',#296,5.);
#234=CYLINDRICAL_SURFACE('',#304,6.);
#235=CYLINDRICAL_SURFACE('',#305,5.);
#236=CYLINDRICAL_SURFACE('',#306,5.);
#237=ADVANCED_FACE('',(#33),#231,.F.);
#238=ADVANCED_FACE('',(#34),#21,.T.);
#239=ADVANCED_FACE('',(#35),#22,.F.);
#240=ADVANCED_FACE('',(#36),#23,.T.);
#241=ADVANCED_FACE('',(#37),#24,.F.);
#242=ADVANCED_FACE('',(#38),#25,.F.);
#243=ADVANCED_FACE('',(#39),#26,.F.);
#244=ADVANCED_FACE('',(#40),#232,.T.);
#245=ADVANCED_FACE('',(#41,#15),#27,.T.);
#246=ADVANCED_FACE('',(#42,#16),#28,.F.);
#247=ADVANCED_FACE('',(#43),#233,.T.);
#248=ADVANCED_FACE('',(#44,#17),#29,.F.);
#249=ADVANCED_FACE('',(#45,#18),#30,.T.);
#250=ADVANCED_FACE('',(#46),#234,.T.);
#251=ADVANCED_FACE('',(#47,#19),#235,.T.);
#252=ADVANCED_FACE('',(#48),#236,.T.);
#253=ADVANCED_FACE('',(#49),#31,.F.);
#254=ADVANCED_FACE('',(#50,#20),#32,.T.);
#255=CLOSED_SHELL('',(#237,#238,#239,#240,#241,#242,#243,#244,#245,#246,
#247,#248,#249,#250,#251,#252,#253,#254));
#256=DERIVED_UNIT_ELEMENT(#259,1.);
#257=DERIVED_UNIT_ELEMENT(#466,-3.);
#258=DIMENSIONAL_EXPONENTS(0.,1.,0.,0.,0.,0.,0.);
#259=(
CONVERSION_BASED_UNIT('gram',#261)
MASS_UNIT()
NAMED_UNIT(#258)
);
#260=(
MASS_UNIT()
NAMED_UNIT(*)
SI_UNIT(.KILO.,.GRAM.)
);
#261=MASS_MEASURE_WITH_UNIT(MASS_MEASURE(0.001),#260);
#262=DERIVED_UNIT((#256,#257));
#263=MEASURE_REPRESENTATION_ITEM('density measure',
POSITIVE_RATIO_MEASURE(7.73),#262);
#264=PROPERTY_DEFINITION_REPRESENTATION(#269,#266);
#265=PROPERTY_DEFINITION_REPRESENTATION(#270,#267);
#266=REPRESENTATION('material name',(#268),#463);
#267=REPRESENTATION('density',(#263),#463);
#268=DESCRIPTIVE_REPRESENTATION_ITEM('\X2\92FC3001540891D192FC\X0\',
'\X2\92FC3001540891D192FC\X0\');
#269=PROPERTY_DEFINITION('material property','material name',#473);
#270=PROPERTY_DEFINITION('material property','density of part',#473);
#271=DATE_TIME_ROLE('creation_date');
#272=APPLIED_DATE_AND_TIME_ASSIGNMENT(#273,#271,(#473));
#273=DATE_AND_TIME(#274,#275);
#274=CALENDAR_DATE(2026,8,10);
#275=LOCAL_TIME(0,0,0.,#276);
#276=COORDINATED_UNIVERSAL_TIME_OFFSET(0,0,.BEHIND.);
#277=AXIS2_PLACEMENT_3D('',#392,#310,#311);
#278=AXIS2_PLACEMENT_3D('',#393,#312,#313);
#279=AXIS2_PLACEMENT_3D('',#395,#314,#315);
#280=AXIS2_PLACEMENT_3D('',#398,#317,#318);
#281=AXIS2_PLACEMENT_3D('',#399,#319,#320);
#282=AXIS2_PLACEMENT_3D('',#400,#321,#322);
#283=AXIS2_PLACEMENT_3D('',#409,#327,#328);
#284=AXIS2_PLACEMENT_3D('',#411,#329,#330);
#285=AXIS2_PLACEMENT_3D('',#415,#333,#334);
#286=AXIS2_PLACEMENT_3D('',#421,#338,#339);
#287=AXIS2_PLACEMENT_3D('',#423,#341,#342);
#288=AXIS2_PLACEMENT_3D('',#424,#343,#344);
#289=AXIS2_PLACEMENT_3D('',#425,#345,#346);
#290=AXIS2_PLACEMENT_3D('',#427,#347,#348);
#291=AXIS2_PLACEMENT_3D('',#430,#350,#351);
#292=AXIS2_PLACEMENT_3D('',#431,#352,#353);
#293=AXIS2_PLACEMENT_3D('',#433,#354,#355);
#294=AXIS2_PLACEMENT_3D('',#434,#356,#357);
#295=AXIS2_PLACEMENT_3D('',#436,#358,#359);
#296=AXIS2_PLACEMENT_3D('',#437,#360,#361);
#297=AXIS2_PLACEMENT_3D('',#439,#362,#363);
#298=AXIS2_PLACEMENT_3D('',#441,#365,#366);
#299=AXIS2_PLACEMENT_3D('',#443,#367,#368);
#300=AXIS2_PLACEMENT_3D('',#445,#369,#370);
#301=AXIS2_PLACEMENT_3D('',#446,#371,#372);
#302=AXIS2_PLACEMENT_3D('',#448,#373,#374);
#303=AXIS2_PLACEMENT_3D('',#450,#375,#376);
#304=AXIS2_PLACEMENT_3D('',#451,#377,#378);
#305=AXIS2_PLACEMENT_3D('',#453,#380,#381);
#306=AXIS2_PLACEMENT_3D('',#455,#383,#384);
#307=AXIS2_PLACEMENT_3D('',#458,#386,#387);
#308=AXIS2_PLACEMENT_3D('',#459,#388,#389);
#309=AXIS2_PLACEMENT_3D('',#460,#390,#391);
#310=DIRECTION('axis',(0.,0.,1.));
#311=DIRECTION('refdir',(1.,0.,0.));
#312=DIRECTION('center_axis',(0.,0.,1.));
#313=DIRECTION('ref_axis',(-1.,0.,0.));
#314=DIRECTION('center_axis',(0.,0.,-1.));
#315=DIRECTION('ref_axis',(-1.,0.,0.));
#316=DIRECTION('',(0.,0.,1.));
#317=DIRECTION('center_axis',(0.,0.,-1.));
#318=DIRECTION('ref_axis',(-1.,0.,0.));
#319=DIRECTION('center_axis',(0.,0.,1.));
#320=DIRECTION('ref_axis',(1.,0.,0.));
#321=DIRECTION('center_axis',(-1.,0.,0.));
#322=DIRECTION('ref_axis',(0.,-1.,0.));
#323=DIRECTION('',(0.,0.,-1.));
#324=DIRECTION('',(0.,-1.,0.));
#325=DIRECTION('',(0.,0.,1.));
#326=DIRECTION('',(0.,-1.,0.));
#327=DIRECTION('center_axis',(0.,0.,1.));
#328=DIRECTION('ref_axis',(1.,0.,0.));
#329=DIRECTION('center_axis',(0.,0.,-1.));
#330=DIRECTION('ref_axis',(-1.,0.,0.));
#331=DIRECTION('',(1.,0.,0.));
#332=DIRECTION('',(0.,1.,0.));
#333=DIRECTION('center_axis',(1.,0.,0.));
#334=DIRECTION('ref_axis',(0.,1.,0.));
#335=DIRECTION('',(0.,0.,1.));
#336=DIRECTION('',(0.,0.,1.));
#337=DIRECTION('',(0.,1.,0.));
#338=DIRECTION('center_axis',(0.,-1.,0.));
#339=DIRECTION('ref_axis',(1.,0.,0.));
#340=DIRECTION('',(1.,0.,0.));
#341=DIRECTION('center_axis',(0.,0.,1.));
#342=DIRECTION('ref_axis',(1.,0.,0.));
#343=DIRECTION('center_axis',(0.,0.,1.));
#344=DIRECTION('ref_axis',(-1.,0.,0.));
#345=DIRECTION('center_axis',(0.,0.,1.));
#346=DIRECTION('ref_axis',(-1.,0.,0.));
#347=DIRECTION('center_axis',(0.,0.,-1.));
#348=DIRECTION('ref_axis',(-1.,0.,0.));
#349=DIRECTION('',(0.,0.,-1.));
#350=DIRECTION('center_axis',(0.,0.,1.));
#351=DIRECTION('ref_axis',(-1.,0.,0.));
#352=DIRECTION('center_axis',(0.,0.,1.));
#353=DIRECTION('ref_axis',(1.,0.,0.));
#354=DIRECTION('center_axis',(0.,0.,-1.));
#355=DIRECTION('ref_axis',(-1.,0.,0.));
#356=DIRECTION('center_axis',(0.,0.,1.));
#357=DIRECTION('ref_axis',(1.,0.,0.));
#358=DIRECTION('center_axis',(0.,0.,1.));
#359=DIRECTION('ref_axis',(-1.,0.,0.));
#360=DIRECTION('center_axis',(0.,0.,1.));
#361=DIRECTION('ref_axis',(-1.,0.,0.));
#362=DIRECTION('center_axis',(0.,0.,1.));
#363=DIRECTION('ref_axis',(-1.,0.,0.));
#364=DIRECTION('',(0.,0.,-1.));
#365=DIRECTION('center_axis',(0.,0.,1.));
#366=DIRECTION('ref_axis',(1.,0.,0.));
#367=DIRECTION('center_axis',(0.,0.,-1.));
#368=DIRECTION('ref_axis',(-1.,0.,0.));
#369=DIRECTION('center_axis',(0.,0.,-1.));
#370=DIRECTION('ref_axis',(-1.,0.,0.));
#371=DIRECTION('center_axis',(0.,0.,1.));
#372=DIRECTION('ref_axis',(1.,0.,0.));
#373=DIRECTION('center_axis',(0.,0.,1.));
#374=DIRECTION('ref_axis',(-1.,0.,0.));
#375=DIRECTION('center_axis',(0.,0.,1.));
#376=DIRECTION('ref_axis',(-1.,0.,0.));
#377=DIRECTION('center_axis',(0.,0.,1.));
#378=DIRECTION('ref_axis',(-1.,0.,0.));
#379=DIRECTION('',(0.,0.,-1.));
#380=DIRECTION('center_axis',(0.,0.,1.));
#381=DIRECTION('ref_axis',(-1.,0.,0.));
#382=DIRECTION('',(0.,0.,-1.));
#383=DIRECTION('center_axis',(0.,0.,1.));
#384=DIRECTION('ref_axis',(-1.,0.,0.));
#385=DIRECTION('',(0.,0.,-1.));
#386=DIRECTION('center_axis',(0.,0.,-1.));
#387=DIRECTION('ref_axis',(-1.,0.,0.));
#388=DIRECTION('center_axis',(0.,0.,1.));
#389=DIRECTION('ref_axis',(1.,0.,0.));
#390=DIRECTION('center_axis',(0.,0.,1.));
#391=DIRECTION('ref_axis',(1.,0.,0.));
#392=CARTESIAN_POINT('',(0.,0.,0.));
#393=CARTESIAN_POINT('Origin',(0.,0.,52.));
#394=CARTESIAN_POINT('',(1.25,1.53080849893419E-16,52.));
#395=CARTESIAN_POINT('Origin',(0.,0.,52.));
#396=CARTESIAN_POINT('',(1.25,1.53080849893419E-16,57.));
#397=CARTESIAN_POINT('',(1.25,1.53080849893419E-16,52.));
#398=CARTESIAN_POINT('Origin',(0.,0.,57.));
#399=CARTESIAN_POINT('Origin',(-5.90160301838331E-17,0.,52.));
#400=CARTESIAN_POINT('Origin',(-1.5,7.,36.5));
#401=CARTESIAN_POINT('',(-1.5,4.76969600708473,49.5));
#402=CARTESIAN_POINT('',(-1.5,4.76969600708473,36.5));
#403=CARTESIAN_POINT('',(-1.5,4.76969600708473,-10.));
#404=CARTESIAN_POINT('',(-1.5,4.,49.5));
#405=CARTESIAN_POINT('',(-1.5,7.,49.5));
#406=CARTESIAN_POINT('',(-1.5,4.,36.5));
#407=CARTESIAN_POINT('',(-1.5,4.,36.5));
#408=CARTESIAN_POINT('',(-1.5,7.,36.5));
#409=CARTESIAN_POINT('Origin',(0.,5.5,36.5));
#410=CARTESIAN_POINT('',(1.5,4.76969600708473,36.5));
#411=CARTESIAN_POINT('Origin',(0.,0.,36.5));
#412=CARTESIAN_POINT('',(1.5,4.,36.5));
#413=CARTESIAN_POINT('',(-1.5,4.,36.5));
#414=CARTESIAN_POINT('',(1.5,4.,36.5));
#415=CARTESIAN_POINT('Origin',(1.5,4.,36.5));
#416=CARTESIAN_POINT('',(1.5,4.76969600708473,49.5));
#417=CARTESIAN_POINT('',(1.5,4.76969600708473,-10.));
#418=CARTESIAN_POINT('',(1.5,4.,49.5));
#419=CARTESIAN_POINT('',(1.5,4.,36.5));
#420=CARTESIAN_POINT('',(1.5,4.,49.5));
#421=CARTESIAN_POINT('Origin',(-1.5,4.,36.5));
#422=CARTESIAN_POINT('',(-1.5,4.,49.5));
#423=CARTESIAN_POINT('Origin',(0.,5.5,49.5));
#424=CARTESIAN_POINT('Origin',(0.,0.,49.5));
#425=CARTESIAN_POINT('Origin',(0.,0.,54.));
#426=CARTESIAN_POINT('',(4.6,5.63337527607783E-16,55.1));
#427=CARTESIAN_POINT('Origin',(0.,0.,55.1));
#428=CARTESIAN_POINT('',(4.6,5.63337527607783E-16,54.));
#429=CARTESIAN_POINT('',(4.6,5.63337527607783E-16,54.));
#430=CARTESIAN_POINT('Origin',(0.,0.,54.));
#431=CARTESIAN_POINT('Origin',(-2.36064120735332E-16,0.,54.));
#432=CARTESIAN_POINT('',(5.,6.12323399573677E-16,54.));
#433=CARTESIAN_POINT('Origin',(0.,0.,54.));
#434=CARTESIAN_POINT('Origin',(-2.36064120735332E-16,0.,55.1));
#435=CARTESIAN_POINT('',(5.,6.12323399573677E-16,55.1));
#436=CARTESIAN_POINT('Origin',(0.,0.,55.1));
#437=CARTESIAN_POINT('Origin',(0.,0.,-10.));
#438=CARTESIAN_POINT('',(5.,6.12323399573677E-16,57.));
#439=CARTESIAN_POINT('Origin',(0.,0.,57.));
#440=CARTESIAN_POINT('',(5.,6.12323399573677E-16,-10.));
#441=CARTESIAN_POINT('Origin',(-3.69627624575467E-16,0.,14.));
#442=CARTESIAN_POINT('',(6.,7.34788079488412E-16,14.));
#443=CARTESIAN_POINT('Origin',(0.,0.,14.));
#444=CARTESIAN_POINT('',(5.,-6.12323399573677E-16,14.));
#445=CARTESIAN_POINT('Origin',(0.,0.,14.));
#446=CARTESIAN_POINT('Origin',(-3.69627624575467E-16,0.,26.));
#447=CARTESIAN_POINT('',(6.,7.34788079488412E-16,26.));
#448=CARTESIAN_POINT('Origin',(0.,0.,26.));
#449=CARTESIAN_POINT('',(5.,6.12323399573677E-16,26.));
#450=CARTESIAN_POINT('Origin',(0.,0.,26.));
#451=CARTESIAN_POINT('Origin',(0.,0.,14.));
#452=CARTESIAN_POINT('',(6.,7.34788079488412E-16,14.));
#453=CARTESIAN_POINT('Origin',(0.,0.,-10.));
#454=CARTESIAN_POINT('',(5.,6.12323399573677E-16,-10.));
#455=CARTESIAN_POINT('Origin',(0.,0.,-10.));
#456=CARTESIAN_POINT('',(5.,6.12323399573677E-16,-10.));
#457=CARTESIAN_POINT('',(5.,6.12323399573677E-16,-10.));
#458=CARTESIAN_POINT('Origin',(0.,0.,-10.));
#459=CARTESIAN_POINT('Origin',(-2.36064120735332E-16,0.,-10.));
#460=CARTESIAN_POINT('Origin',(-2.36064120735332E-16,0.,57.));
#461=UNCERTAINTY_MEASURE_WITH_UNIT(LENGTH_MEASURE(0.01),#465,
'DISTANCE_ACCURACY_VALUE',
'Maximum model space distance between geometric entities at asserted c
onnectivities');
#462=UNCERTAINTY_MEASURE_WITH_UNIT(LENGTH_MEASURE(0.01),#465,
'DISTANCE_ACCURACY_VALUE',
'Maximum model space distance between geometric entities at asserted c
onnectivities');
#463=(
GEOMETRIC_REPRESENTATION_CONTEXT(3)
GLOBAL_UNCERTAINTY_ASSIGNED_CONTEXT((#461))
GLOBAL_UNIT_ASSIGNED_CONTEXT((#465,#467,#468))
REPRESENTATION_CONTEXT('','3D')
);
#464=(
GEOMETRIC_REPRESENTATION_CONTEXT(3)
GLOBAL_UNCERTAINTY_ASSIGNED_CONTEXT((#462))
GLOBAL_UNIT_ASSIGNED_CONTEXT((#465,#467,#468))
REPRESENTATION_CONTEXT('','3D')
);
#465=(
LENGTH_UNIT()
NAMED_UNIT(*)
SI_UNIT(.MILLI.,.METRE.)
);
#466=(
LENGTH_UNIT()
NAMED_UNIT(*)
SI_UNIT(.CENTI.,.METRE.)
);
#467=(
NAMED_UNIT(*)
PLANE_ANGLE_UNIT()
SI_UNIT($,.RADIAN.)
);
#468=(
NAMED_UNIT(*)
SI_UNIT($,.STERADIAN.)
SOLID_ANGLE_UNIT()
);
#469=SHAPE_DEFINITION_REPRESENTATION(#470,#471);
#470=PRODUCT_DEFINITION_SHAPE('',$,#473);
#471=SHAPE_REPRESENTATION('',(#277),#463);
#472=PRODUCT_DEFINITION_CONTEXT('part definition',#477,'design');
#473=PRODUCT_DEFINITION('04_Wheel_Shaft','04_Wheel_Shaft',#474,#472);
#474=PRODUCT_DEFINITION_FORMATION('',$,#479);
#475=PRODUCT_RELATED_PRODUCT_CATEGORY('04_Wheel_Shaft','04_Wheel_Shaft',
(#479));
#476=APPLICATION_PROTOCOL_DEFINITION('international standard',
'automotive_design',2009,#477);
#477=APPLICATION_CONTEXT(
'Core Data for Automotive Mechanical Design Process');
#478=PRODUCT_CONTEXT('part definition',#477,'mechanical');
#479=PRODUCT('04_Wheel_Shaft','04_Wheel_Shaft',$,(#478));
#480=PRESENTATION_STYLE_ASSIGNMENT((#481));
#481=SURFACE_STYLE_USAGE(.BOTH.,#484);
#482=SURFACE_STYLE_RENDERING_WITH_PROPERTIES($,#488,(#483));
#483=SURFACE_STYLE_TRANSPARENT(0.);
#484=SURFACE_SIDE_STYLE('',(#485,#482));
#485=SURFACE_STYLE_FILL_AREA(#486);
#486=FILL_AREA_STYLE('',(#487));
#487=FILL_AREA_STYLE_COLOUR('',#488);
#488=COLOUR_RGB('',0.745098039215686,0.737254901960784,0.729411764705882);
ENDSEC;
END-ISO-10303-21;
