ISO-10303-21;
HEADER;
/* Generated by software containing ST-Developer
 * from STEP Tools, Inc. (www.steptools.com) 
 */

FILE_DESCRIPTION(
/* description */ (''),
/* implementation_level */ '2;1');

FILE_NAME(
/* name */ '05_Bearing_Housing.step',
/* time_stamp */ '2026-10-08T17:08:35+09:00',
/* author */ ('Reaction Wheel Pendulum project'),
/* organization */ (''),
/* preprocessor_version */ 'ST-DEVELOPER v20.1',
/* originating_system */ 'Autodesk Inventor 2026',
/* authorisation */ '');

FILE_SCHEMA (('AUTOMOTIVE_DESIGN { 1 0 10303 214 3 1 1 }'));
ENDSEC;

DATA;
#10=MECHANICAL_DESIGN_GEOMETRIC_PRESENTATION_REPRESENTATION('',(#13),#1161);
#11=SHAPE_REPRESENTATION_RELATIONSHIP('SRR','None',#1168,#12);
#12=ADVANCED_BREP_SHAPE_REPRESENTATION('',(#14),#1160);
#13=STYLED_ITEM('',(#1177),#14);
#14=MANIFOLD_SOLID_BREP('\X2\30BD30EA30C330C9\X0\1',#700);
#15=CYLINDRICAL_SURFACE('',#761,1.25);
#16=CYLINDRICAL_SURFACE('',#762,1.25);
#17=CYLINDRICAL_SURFACE('',#763,1.25);
#18=CYLINDRICAL_SURFACE('',#764,1.25);
#19=CYLINDRICAL_SURFACE('',#765,2.1);
#20=CYLINDRICAL_SURFACE('',#766,2.1);
#21=CYLINDRICAL_SURFACE('',#767,2.1);
#22=CYLINDRICAL_SURFACE('',#768,2.1);
#23=CYLINDRICAL_SURFACE('',#769,13.);
#24=CYLINDRICAL_SURFACE('',#773,13.);
#25=CYLINDRICAL_SURFACE('',#777,11.);
#26=FACE_BOUND('',#107,.T.);
#27=FACE_BOUND('',#108,.T.);
#28=FACE_BOUND('',#109,.T.);
#29=FACE_BOUND('',#110,.T.);
#30=FACE_BOUND('',#111,.T.);
#31=FACE_BOUND('',#112,.T.);
#32=FACE_BOUND('',#113,.T.);
#33=FACE_BOUND('',#114,.T.);
#34=FACE_BOUND('',#115,.T.);
#35=FACE_BOUND('',#128,.T.);
#36=FACE_BOUND('',#129,.T.);
#37=FACE_BOUND('',#130,.T.);
#38=FACE_BOUND('',#131,.T.);
#39=FACE_BOUND('',#132,.T.);
#40=FACE_BOUND('',#133,.T.);
#41=FACE_BOUND('',#134,.T.);
#42=FACE_BOUND('',#135,.T.);
#43=FACE_BOUND('',#136,.T.);
#44=FACE_BOUND('',#151,.T.);
#45=FACE_BOUND('',#154,.T.);
#46=CIRCLE('',#727,13.);
#47=CIRCLE('',#728,2.1);
#48=CIRCLE('',#729,2.1);
#49=CIRCLE('',#730,2.1);
#50=CIRCLE('',#731,2.1);
#51=CIRCLE('',#732,1.25);
#52=CIRCLE('',#733,1.25);
#53=CIRCLE('',#734,1.25);
#54=CIRCLE('',#735,1.25);
#55=CIRCLE('',#748,13.);
#56=CIRCLE('',#749,2.1);
#57=CIRCLE('',#750,2.1);
#58=CIRCLE('',#751,2.1);
#59=CIRCLE('',#752,2.1);
#60=CIRCLE('',#753,1.25);
#61=CIRCLE('',#754,1.25);
#62=CIRCLE('',#755,1.25);
#63=CIRCLE('',#756,1.25);
#64=CIRCLE('',#770,13.);
#65=CIRCLE('',#772,11.);
#66=CIRCLE('',#774,13.);
#67=CIRCLE('',#776,11.);
#68=FACE_OUTER_BOUND('',#103,.T.);
#69=FACE_OUTER_BOUND('',#104,.T.);
#70=FACE_OUTER_BOUND('',#105,.T.);
#71=FACE_OUTER_BOUND('',#106,.T.);
#72=FACE_OUTER_BOUND('',#116,.T.);
#73=FACE_OUTER_BOUND('',#117,.T.);
#74=FACE_OUTER_BOUND('',#118,.T.);
#75=FACE_OUTER_BOUND('',#119,.T.);
#76=FACE_OUTER_BOUND('',#120,.T.);
#77=FACE_OUTER_BOUND('',#121,.T.);
#78=FACE_OUTER_BOUND('',#122,.T.);
#79=FACE_OUTER_BOUND('',#123,.T.);
#80=FACE_OUTER_BOUND('',#124,.T.);
#81=FACE_OUTER_BOUND('',#125,.T.);
#82=FACE_OUTER_BOUND('',#126,.T.);
#83=FACE_OUTER_BOUND('',#127,.T.);
#84=FACE_OUTER_BOUND('',#137,.T.);
#85=FACE_OUTER_BOUND('',#138,.T.);
#86=FACE_OUTER_BOUND('',#139,.T.);
#87=FACE_OUTER_BOUND('',#140,.T.);
#88=FACE_OUTER_BOUND('',#141,.T.);
#89=FACE_OUTER_BOUND('',#142,.T.);
#90=FACE_OUTER_BOUND('',#143,.T.);
#91=FACE_OUTER_BOUND('',#144,.T.);
#92=FACE_OUTER_BOUND('',#145,.T.);
#93=FACE_OUTER_BOUND('',#146,.T.);
#94=FACE_OUTER_BOUND('',#147,.T.);
#95=FACE_OUTER_BOUND('',#148,.T.);
#96=FACE_OUTER_BOUND('',#149,.T.);
#97=FACE_OUTER_BOUND('',#150,.T.);
#98=FACE_OUTER_BOUND('',#152,.T.);
#99=FACE_OUTER_BOUND('',#153,.T.);
#100=FACE_OUTER_BOUND('',#155,.T.);
#101=FACE_OUTER_BOUND('',#156,.T.);
#102=FACE_OUTER_BOUND('',#157,.T.);
#103=EDGE_LOOP('',(#455,#456,#457,#458));
#104=EDGE_LOOP('',(#459,#460,#461,#462));
#105=EDGE_LOOP('',(#463,#464,#465,#466));
#106=EDGE_LOOP('',(#467,#468,#469,#470,#471,#472,#473,#474,#475,#476,#477,
#478,#479,#480,#481,#482,#483,#484,#485,#486));
#107=EDGE_LOOP('',(#487));
#108=EDGE_LOOP('',(#488));
#109=EDGE_LOOP('',(#489));
#110=EDGE_LOOP('',(#490));
#111=EDGE_LOOP('',(#491));
#112=EDGE_LOOP('',(#492));
#113=EDGE_LOOP('',(#493));
#114=EDGE_LOOP('',(#494));
#115=EDGE_LOOP('',(#495));
#116=EDGE_LOOP('',(#496,#497,#498,#499));
#117=EDGE_LOOP('',(#500,#501,#502,#503));
#118=EDGE_LOOP('',(#504,#505,#506,#507));
#119=EDGE_LOOP('',(#508,#509,#510,#511));
#120=EDGE_LOOP('',(#512,#513,#514,#515));
#121=EDGE_LOOP('',(#516,#517,#518,#519));
#122=EDGE_LOOP('',(#520,#521,#522,#523));
#123=EDGE_LOOP('',(#524,#525,#526,#527));
#124=EDGE_LOOP('',(#528,#529,#530,#531));
#125=EDGE_LOOP('',(#532,#533,#534,#535));
#126=EDGE_LOOP('',(#536,#537,#538,#539));
#127=EDGE_LOOP('',(#540,#541,#542,#543,#544,#545,#546,#547,#548,#549,#550,
#551,#552,#553,#554,#555,#556,#557,#558,#559));
#128=EDGE_LOOP('',(#560));
#129=EDGE_LOOP('',(#561));
#130=EDGE_LOOP('',(#562));
#131=EDGE_LOOP('',(#563));
#132=EDGE_LOOP('',(#564));
#133=EDGE_LOOP('',(#565));
#134=EDGE_LOOP('',(#566));
#135=EDGE_LOOP('',(#567));
#136=EDGE_LOOP('',(#568));
#137=EDGE_LOOP('',(#569,#570,#571,#572));
#138=EDGE_LOOP('',(#573,#574,#575,#576));
#139=EDGE_LOOP('',(#577,#578,#579,#580));
#140=EDGE_LOOP('',(#581,#582,#583,#584));
#141=EDGE_LOOP('',(#585,#586,#587,#588));
#142=EDGE_LOOP('',(#589,#590,#591,#592));
#143=EDGE_LOOP('',(#593,#594,#595,#596));
#144=EDGE_LOOP('',(#597,#598,#599,#600));
#145=EDGE_LOOP('',(#601,#602,#603,#604));
#146=EDGE_LOOP('',(#605,#606,#607,#608));
#147=EDGE_LOOP('',(#609,#610,#611,#612));
#148=EDGE_LOOP('',(#613,#614,#615,#616));
#149=EDGE_LOOP('',(#617,#618,#619,#620));
#150=EDGE_LOOP('',(#621));
#151=EDGE_LOOP('',(#622));
#152=EDGE_LOOP('',(#623,#624,#625,#626));
#153=EDGE_LOOP('',(#627));
#154=EDGE_LOOP('',(#628));
#155=EDGE_LOOP('',(#629,#630,#631,#632));
#156=EDGE_LOOP('',(#633,#634,#635,#636));
#157=EDGE_LOOP('',(#637,#638,#639,#640));
#158=LINE('',#971,#229);
#159=LINE('',#973,#230);
#160=LINE('',#975,#231);
#161=LINE('',#976,#232);
#162=LINE('',#979,#233);
#163=LINE('',#981,#234);
#164=LINE('',#982,#235);
#165=LINE('',#985,#236);
#166=LINE('',#987,#237);
#167=LINE('',#988,#238);
#168=LINE('',#991,#239);
#169=LINE('',#993,#240);
#170=LINE('',#995,#241);
#171=LINE('',#997,#242);
#172=LINE('',#999,#243);
#173=LINE('',#1001,#244);
#174=LINE('',#1003,#245);
#175=LINE('',#1005,#246);
#176=LINE('',#1007,#247);
#177=LINE('',#1009,#248);
#178=LINE('',#1011,#249);
#179=LINE('',#1013,#250);
#180=LINE('',#1015,#251);
#181=LINE('',#1017,#252);
#182=LINE('',#1019,#253);
#183=LINE('',#1021,#254);
#184=LINE('',#1022,#255);
#185=LINE('',#1043,#256);
#186=LINE('',#1044,#257);
#187=LINE('',#1048,#258);
#188=LINE('',#1049,#259);
#189=LINE('',#1050,#260);
#190=LINE('',#1054,#261);
#191=LINE('',#1055,#262);
#192=LINE('',#1056,#263);
#193=LINE('',#1058,#264);
#194=LINE('',#1061,#265);
#195=LINE('',#1062,#266);
#196=LINE('',#1064,#267);
#197=LINE('',#1068,#268);
#198=LINE('',#1069,#269);
#199=LINE('',#1070,#270);
#200=LINE('',#1073,#271);
#201=LINE('',#1074,#272);
#202=LINE('',#1077,#273);
#203=LINE('',#1078,#274);
#204=LINE('',#1080,#275);
#205=LINE('',#1083,#276);
#206=LINE('',#1084,#277);
#207=LINE('',#1087,#278);
#208=LINE('',#1089,#279);
#209=LINE('',#1091,#280);
#210=LINE('',#1093,#281);
#211=LINE('',#1095,#282);
#212=LINE('',#1096,#283);
#213=LINE('',#1116,#284);
#214=LINE('',#1117,#285);
#215=LINE('',#1119,#286);
#216=LINE('',#1121,#287);
#217=LINE('',#1123,#288);
#218=LINE('',#1125,#289);
#219=LINE('',#1127,#290);
#220=LINE('',#1129,#291);
#221=LINE('',#1131,#292);
#222=LINE('',#1133,#293);
#223=LINE('',#1135,#294);
#224=LINE('',#1137,#295);
#225=LINE('',#1139,#296);
#226=LINE('',#1143,#297);
#227=LINE('',#1149,#298);
#228=LINE('',#1155,#299);
#229=VECTOR('',#784,10.);
#230=VECTOR('',#785,10.);
#231=VECTOR('',#786,10.);
#232=VECTOR('',#787,10.);
#233=VECTOR('',#790,10.);
#234=VECTOR('',#791,10.);
#235=VECTOR('',#792,10.);
#236=VECTOR('',#795,10.);
#237=VECTOR('',#796,10.);
#238=VECTOR('',#797,10.);
#239=VECTOR('',#800,10.);
#240=VECTOR('',#801,10.);
#241=VECTOR('',#802,10.);
#242=VECTOR('',#803,10.);
#243=VECTOR('',#804,10.);
#244=VECTOR('',#805,10.);
#245=VECTOR('',#806,10.);
#246=VECTOR('',#807,10.);
#247=VECTOR('',#808,10.);
#248=VECTOR('',#809,10.);
#249=VECTOR('',#810,10.);
#250=VECTOR('',#811,10.);
#251=VECTOR('',#812,10.);
#252=VECTOR('',#813,10.);
#253=VECTOR('',#814,10.);
#254=VECTOR('',#815,10.);
#255=VECTOR('',#816,10.);
#256=VECTOR('',#837,10.);
#257=VECTOR('',#838,10.);
#258=VECTOR('',#841,10.);
#259=VECTOR('',#842,10.);
#260=VECTOR('',#843,10.);
#261=VECTOR('',#846,10.);
#262=VECTOR('',#847,10.);
#263=VECTOR('',#848,10.);
#264=VECTOR('',#851,10.);
#265=VECTOR('',#854,10.);
#266=VECTOR('',#855,10.);
#267=VECTOR('',#858,10.);
#268=VECTOR('',#861,10.);
#269=VECTOR('',#862,10.);
#270=VECTOR('',#863,10.);
#271=VECTOR('',#866,10.);
#272=VECTOR('',#867,10.);
#273=VECTOR('',#870,10.);
#274=VECTOR('',#871,10.);
#275=VECTOR('',#874,10.);
#276=VECTOR('',#877,10.);
#277=VECTOR('',#878,10.);
#278=VECTOR('',#881,10.);
#279=VECTOR('',#882,10.);
#280=VECTOR('',#883,10.);
#281=VECTOR('',#884,10.);
#282=VECTOR('',#885,10.);
#283=VECTOR('',#886,10.);
#284=VECTOR('',#907,10.);
#285=VECTOR('',#908,10.);
#286=VECTOR('',#911,10.);
#287=VECTOR('',#914,10.);
#288=VECTOR('',#917,10.);
#289=VECTOR('',#920,1.25);
#290=VECTOR('',#923,1.25);
#291=VECTOR('',#926,1.25);
#292=VECTOR('',#929,1.25);
#293=VECTOR('',#932,2.1);
#294=VECTOR('',#935,2.1);
#295=VECTOR('',#938,2.1);
#296=VECTOR('',#941,2.1);
#297=VECTOR('',#946,13.);
#298=VECTOR('',#953,13.);
#299=VECTOR('',#962,11.);
#300=VERTEX_POINT('',#969);
#301=VERTEX_POINT('',#970);
#302=VERTEX_POINT('',#972);
#303=VERTEX_POINT('',#974);
#304=VERTEX_POINT('',#978);
#305=VERTEX_POINT('',#980);
#306=VERTEX_POINT('',#984);
#307=VERTEX_POINT('',#986);
#308=VERTEX_POINT('',#990);
#309=VERTEX_POINT('',#992);
#310=VERTEX_POINT('',#994);
#311=VERTEX_POINT('',#996);
#312=VERTEX_POINT('',#998);
#313=VERTEX_POINT('',#1000);
#314=VERTEX_POINT('',#1002);
#315=VERTEX_POINT('',#1004);
#316=VERTEX_POINT('',#1006);
#317=VERTEX_POINT('',#1008);
#318=VERTEX_POINT('',#1010);
#319=VERTEX_POINT('',#1012);
#320=VERTEX_POINT('',#1014);
#321=VERTEX_POINT('',#1016);
#322=VERTEX_POINT('',#1018);
#323=VERTEX_POINT('',#1020);
#324=VERTEX_POINT('',#1023);
#325=VERTEX_POINT('',#1025);
#326=VERTEX_POINT('',#1027);
#327=VERTEX_POINT('',#1029);
#328=VERTEX_POINT('',#1031);
#329=VERTEX_POINT('',#1033);
#330=VERTEX_POINT('',#1035);
#331=VERTEX_POINT('',#1037);
#332=VERTEX_POINT('',#1039);
#333=VERTEX_POINT('',#1042);
#334=VERTEX_POINT('',#1046);
#335=VERTEX_POINT('',#1047);
#336=VERTEX_POINT('',#1052);
#337=VERTEX_POINT('',#1053);
#338=VERTEX_POINT('',#1060);
#339=VERTEX_POINT('',#1066);
#340=VERTEX_POINT('',#1067);
#341=VERTEX_POINT('',#1072);
#342=VERTEX_POINT('',#1076);
#343=VERTEX_POINT('',#1082);
#344=VERTEX_POINT('',#1086);
#345=VERTEX_POINT('',#1088);
#346=VERTEX_POINT('',#1090);
#347=VERTEX_POINT('',#1092);
#348=VERTEX_POINT('',#1094);
#349=VERTEX_POINT('',#1097);
#350=VERTEX_POINT('',#1099);
#351=VERTEX_POINT('',#1101);
#352=VERTEX_POINT('',#1103);
#353=VERTEX_POINT('',#1105);
#354=VERTEX_POINT('',#1107);
#355=VERTEX_POINT('',#1109);
#356=VERTEX_POINT('',#1111);
#357=VERTEX_POINT('',#1113);
#358=VERTEX_POINT('',#1141);
#359=VERTEX_POINT('',#1145);
#360=VERTEX_POINT('',#1148);
#361=VERTEX_POINT('',#1152);
#362=EDGE_CURVE('',#300,#301,#158,.T.);
#363=EDGE_CURVE('',#300,#302,#159,.T.);
#364=EDGE_CURVE('',#303,#302,#160,.T.);
#365=EDGE_CURVE('',#301,#303,#161,.T.);
#366=EDGE_CURVE('',#304,#300,#162,.T.);
#367=EDGE_CURVE('',#305,#304,#163,.T.);
#368=EDGE_CURVE('',#302,#305,#164,.T.);
#369=EDGE_CURVE('',#301,#306,#165,.T.);
#370=EDGE_CURVE('',#307,#303,#166,.T.);
#371=EDGE_CURVE('',#306,#307,#167,.T.);
#372=EDGE_CURVE('',#305,#308,#168,.T.);
#373=EDGE_CURVE('',#308,#309,#169,.T.);
#374=EDGE_CURVE('',#309,#310,#170,.T.);
#375=EDGE_CURVE('',#310,#311,#171,.T.);
#376=EDGE_CURVE('',#311,#312,#172,.T.);
#377=EDGE_CURVE('',#312,#313,#173,.T.);
#378=EDGE_CURVE('',#313,#314,#174,.T.);
#379=EDGE_CURVE('',#314,#315,#175,.T.);
#380=EDGE_CURVE('',#315,#316,#176,.T.);
#381=EDGE_CURVE('',#316,#317,#177,.T.);
#382=EDGE_CURVE('',#317,#318,#178,.T.);
#383=EDGE_CURVE('',#318,#319,#179,.T.);
#384=EDGE_CURVE('',#319,#320,#180,.T.);
#385=EDGE_CURVE('',#320,#321,#181,.T.);
#386=EDGE_CURVE('',#321,#322,#182,.T.);
#387=EDGE_CURVE('',#322,#323,#183,.T.);
#388=EDGE_CURVE('',#323,#307,#184,.T.);
#389=EDGE_CURVE('',#324,#324,#46,.T.);
#390=EDGE_CURVE('',#325,#325,#47,.T.);
#391=EDGE_CURVE('',#326,#326,#48,.T.);
#392=EDGE_CURVE('',#327,#327,#49,.T.);
#393=EDGE_CURVE('',#328,#328,#50,.T.);
#394=EDGE_CURVE('',#329,#329,#51,.T.);
#395=EDGE_CURVE('',#330,#330,#52,.T.);
#396=EDGE_CURVE('',#331,#331,#53,.T.);
#397=EDGE_CURVE('',#332,#332,#54,.T.);
#398=EDGE_CURVE('',#304,#333,#185,.T.);
#399=EDGE_CURVE('',#333,#308,#186,.T.);
#400=EDGE_CURVE('',#334,#335,#187,.T.);
#401=EDGE_CURVE('',#312,#334,#188,.T.);
#402=EDGE_CURVE('',#335,#311,#189,.T.);
#403=EDGE_CURVE('',#336,#337,#190,.T.);
#404=EDGE_CURVE('',#336,#310,#191,.T.);
#405=EDGE_CURVE('',#337,#309,#192,.T.);
#406=EDGE_CURVE('',#335,#336,#193,.T.);
#407=EDGE_CURVE('',#334,#338,#194,.T.);
#408=EDGE_CURVE('',#338,#313,#195,.T.);
#409=EDGE_CURVE('',#333,#337,#196,.T.);
#410=EDGE_CURVE('',#339,#340,#197,.T.);
#411=EDGE_CURVE('',#339,#315,#198,.T.);
#412=EDGE_CURVE('',#340,#314,#199,.T.);
#413=EDGE_CURVE('',#341,#339,#200,.T.);
#414=EDGE_CURVE('',#341,#316,#201,.T.);
#415=EDGE_CURVE('',#342,#341,#202,.T.);
#416=EDGE_CURVE('',#317,#342,#203,.T.);
#417=EDGE_CURVE('',#338,#340,#204,.T.);
#418=EDGE_CURVE('',#342,#343,#205,.T.);
#419=EDGE_CURVE('',#343,#318,#206,.T.);
#420=EDGE_CURVE('',#344,#306,#207,.T.);
#421=EDGE_CURVE('',#345,#344,#208,.T.);
#422=EDGE_CURVE('',#345,#346,#209,.T.);
#423=EDGE_CURVE('',#346,#347,#210,.T.);
#424=EDGE_CURVE('',#347,#348,#211,.T.);
#425=EDGE_CURVE('',#343,#348,#212,.T.);
#426=EDGE_CURVE('',#349,#349,#55,.T.);
#427=EDGE_CURVE('',#350,#350,#56,.T.);
#428=EDGE_CURVE('',#351,#351,#57,.T.);
#429=EDGE_CURVE('',#352,#352,#58,.T.);
#430=EDGE_CURVE('',#353,#353,#59,.T.);
#431=EDGE_CURVE('',#354,#354,#60,.T.);
#432=EDGE_CURVE('',#355,#355,#61,.T.);
#433=EDGE_CURVE('',#356,#356,#62,.T.);
#434=EDGE_CURVE('',#357,#357,#63,.T.);
#435=EDGE_CURVE('',#347,#320,#213,.T.);
#436=EDGE_CURVE('',#348,#319,#214,.T.);
#437=EDGE_CURVE('',#346,#321,#215,.T.);
#438=EDGE_CURVE('',#322,#345,#216,.T.);
#439=EDGE_CURVE('',#344,#323,#217,.T.);
#440=EDGE_CURVE('',#357,#332,#218,.T.);
#441=EDGE_CURVE('',#356,#331,#219,.T.);
#442=EDGE_CURVE('',#355,#330,#220,.T.);
#443=EDGE_CURVE('',#354,#329,#221,.T.);
#444=EDGE_CURVE('',#353,#328,#222,.T.);
#445=EDGE_CURVE('',#352,#327,#223,.T.);
#446=EDGE_CURVE('',#351,#326,#224,.T.);
#447=EDGE_CURVE('',#350,#325,#225,.T.);
#448=EDGE_CURVE('',#358,#358,#64,.T.);
#449=EDGE_CURVE('',#358,#324,#226,.T.);
#450=EDGE_CURVE('',#359,#359,#65,.T.);
#451=EDGE_CURVE('',#349,#360,#227,.T.);
#452=EDGE_CURVE('',#360,#360,#66,.T.);
#453=EDGE_CURVE('',#361,#361,#67,.T.);
#454=EDGE_CURVE('',#361,#359,#228,.T.);
#455=ORIENTED_EDGE('',*,*,#362,.F.);
#456=ORIENTED_EDGE('',*,*,#363,.T.);
#457=ORIENTED_EDGE('',*,*,#364,.F.);
#458=ORIENTED_EDGE('',*,*,#365,.F.);
#459=ORIENTED_EDGE('',*,*,#366,.F.);
#460=ORIENTED_EDGE('',*,*,#367,.F.);
#461=ORIENTED_EDGE('',*,*,#368,.F.);
#462=ORIENTED_EDGE('',*,*,#363,.F.);
#463=ORIENTED_EDGE('',*,*,#369,.F.);
#464=ORIENTED_EDGE('',*,*,#365,.T.);
#465=ORIENTED_EDGE('',*,*,#370,.F.);
#466=ORIENTED_EDGE('',*,*,#371,.F.);
#467=ORIENTED_EDGE('',*,*,#370,.T.);
#468=ORIENTED_EDGE('',*,*,#364,.T.);
#469=ORIENTED_EDGE('',*,*,#368,.T.);
#470=ORIENTED_EDGE('',*,*,#372,.T.);
#471=ORIENTED_EDGE('',*,*,#373,.T.);
#472=ORIENTED_EDGE('',*,*,#374,.T.);
#473=ORIENTED_EDGE('',*,*,#375,.T.);
#474=ORIENTED_EDGE('',*,*,#376,.T.);
#475=ORIENTED_EDGE('',*,*,#377,.T.);
#476=ORIENTED_EDGE('',*,*,#378,.T.);
#477=ORIENTED_EDGE('',*,*,#379,.T.);
#478=ORIENTED_EDGE('',*,*,#380,.T.);
#479=ORIENTED_EDGE('',*,*,#381,.T.);
#480=ORIENTED_EDGE('',*,*,#382,.T.);
#481=ORIENTED_EDGE('',*,*,#383,.T.);
#482=ORIENTED_EDGE('',*,*,#384,.T.);
#483=ORIENTED_EDGE('',*,*,#385,.T.);
#484=ORIENTED_EDGE('',*,*,#386,.T.);
#485=ORIENTED_EDGE('',*,*,#387,.T.);
#486=ORIENTED_EDGE('',*,*,#388,.T.);
#487=ORIENTED_EDGE('',*,*,#389,.T.);
#488=ORIENTED_EDGE('',*,*,#390,.T.);
#489=ORIENTED_EDGE('',*,*,#391,.T.);
#490=ORIENTED_EDGE('',*,*,#392,.T.);
#491=ORIENTED_EDGE('',*,*,#393,.T.);
#492=ORIENTED_EDGE('',*,*,#394,.T.);
#493=ORIENTED_EDGE('',*,*,#395,.T.);
#494=ORIENTED_EDGE('',*,*,#396,.T.);
#495=ORIENTED_EDGE('',*,*,#397,.T.);
#496=ORIENTED_EDGE('',*,*,#367,.T.);
#497=ORIENTED_EDGE('',*,*,#398,.T.);
#498=ORIENTED_EDGE('',*,*,#399,.T.);
#499=ORIENTED_EDGE('',*,*,#372,.F.);
#500=ORIENTED_EDGE('',*,*,#400,.F.);
#501=ORIENTED_EDGE('',*,*,#401,.F.);
#502=ORIENTED_EDGE('',*,*,#376,.F.);
#503=ORIENTED_EDGE('',*,*,#402,.F.);
#504=ORIENTED_EDGE('',*,*,#403,.F.);
#505=ORIENTED_EDGE('',*,*,#404,.T.);
#506=ORIENTED_EDGE('',*,*,#374,.F.);
#507=ORIENTED_EDGE('',*,*,#405,.F.);
#508=ORIENTED_EDGE('',*,*,#406,.F.);
#509=ORIENTED_EDGE('',*,*,#402,.T.);
#510=ORIENTED_EDGE('',*,*,#375,.F.);
#511=ORIENTED_EDGE('',*,*,#404,.F.);
#512=ORIENTED_EDGE('',*,*,#401,.T.);
#513=ORIENTED_EDGE('',*,*,#407,.T.);
#514=ORIENTED_EDGE('',*,*,#408,.T.);
#515=ORIENTED_EDGE('',*,*,#377,.F.);
#516=ORIENTED_EDGE('',*,*,#405,.T.);
#517=ORIENTED_EDGE('',*,*,#373,.F.);
#518=ORIENTED_EDGE('',*,*,#399,.F.);
#519=ORIENTED_EDGE('',*,*,#409,.T.);
#520=ORIENTED_EDGE('',*,*,#410,.F.);
#521=ORIENTED_EDGE('',*,*,#411,.T.);
#522=ORIENTED_EDGE('',*,*,#379,.F.);
#523=ORIENTED_EDGE('',*,*,#412,.F.);
#524=ORIENTED_EDGE('',*,*,#413,.F.);
#525=ORIENTED_EDGE('',*,*,#414,.T.);
#526=ORIENTED_EDGE('',*,*,#380,.F.);
#527=ORIENTED_EDGE('',*,*,#411,.F.);
#528=ORIENTED_EDGE('',*,*,#415,.F.);
#529=ORIENTED_EDGE('',*,*,#416,.F.);
#530=ORIENTED_EDGE('',*,*,#381,.F.);
#531=ORIENTED_EDGE('',*,*,#414,.F.);
#532=ORIENTED_EDGE('',*,*,#412,.T.);
#533=ORIENTED_EDGE('',*,*,#378,.F.);
#534=ORIENTED_EDGE('',*,*,#408,.F.);
#535=ORIENTED_EDGE('',*,*,#417,.T.);
#536=ORIENTED_EDGE('',*,*,#416,.T.);
#537=ORIENTED_EDGE('',*,*,#418,.T.);
#538=ORIENTED_EDGE('',*,*,#419,.T.);
#539=ORIENTED_EDGE('',*,*,#382,.F.);
#540=ORIENTED_EDGE('',*,*,#369,.T.);
#541=ORIENTED_EDGE('',*,*,#420,.F.);
#542=ORIENTED_EDGE('',*,*,#421,.F.);
#543=ORIENTED_EDGE('',*,*,#422,.T.);
#544=ORIENTED_EDGE('',*,*,#423,.T.);
#545=ORIENTED_EDGE('',*,*,#424,.T.);
#546=ORIENTED_EDGE('',*,*,#425,.F.);
#547=ORIENTED_EDGE('',*,*,#418,.F.);
#548=ORIENTED_EDGE('',*,*,#415,.T.);
#549=ORIENTED_EDGE('',*,*,#413,.T.);
#550=ORIENTED_EDGE('',*,*,#410,.T.);
#551=ORIENTED_EDGE('',*,*,#417,.F.);
#552=ORIENTED_EDGE('',*,*,#407,.F.);
#553=ORIENTED_EDGE('',*,*,#400,.T.);
#554=ORIENTED_EDGE('',*,*,#406,.T.);
#555=ORIENTED_EDGE('',*,*,#403,.T.);
#556=ORIENTED_EDGE('',*,*,#409,.F.);
#557=ORIENTED_EDGE('',*,*,#398,.F.);
#558=ORIENTED_EDGE('',*,*,#366,.T.);
#559=ORIENTED_EDGE('',*,*,#362,.T.);
#560=ORIENTED_EDGE('',*,*,#426,.T.);
#561=ORIENTED_EDGE('',*,*,#427,.T.);
#562=ORIENTED_EDGE('',*,*,#428,.T.);
#563=ORIENTED_EDGE('',*,*,#429,.T.);
#564=ORIENTED_EDGE('',*,*,#430,.T.);
#565=ORIENTED_EDGE('',*,*,#431,.T.);
#566=ORIENTED_EDGE('',*,*,#432,.T.);
#567=ORIENTED_EDGE('',*,*,#433,.T.);
#568=ORIENTED_EDGE('',*,*,#434,.T.);
#569=ORIENTED_EDGE('',*,*,#424,.F.);
#570=ORIENTED_EDGE('',*,*,#435,.T.);
#571=ORIENTED_EDGE('',*,*,#384,.F.);
#572=ORIENTED_EDGE('',*,*,#436,.F.);
#573=ORIENTED_EDGE('',*,*,#423,.F.);
#574=ORIENTED_EDGE('',*,*,#437,.T.);
#575=ORIENTED_EDGE('',*,*,#385,.F.);
#576=ORIENTED_EDGE('',*,*,#435,.F.);
#577=ORIENTED_EDGE('',*,*,#422,.F.);
#578=ORIENTED_EDGE('',*,*,#438,.F.);
#579=ORIENTED_EDGE('',*,*,#386,.F.);
#580=ORIENTED_EDGE('',*,*,#437,.F.);
#581=ORIENTED_EDGE('',*,*,#438,.T.);
#582=ORIENTED_EDGE('',*,*,#421,.T.);
#583=ORIENTED_EDGE('',*,*,#439,.T.);
#584=ORIENTED_EDGE('',*,*,#387,.F.);
#585=ORIENTED_EDGE('',*,*,#434,.F.);
#586=ORIENTED_EDGE('',*,*,#440,.T.);
#587=ORIENTED_EDGE('',*,*,#397,.F.);
#588=ORIENTED_EDGE('',*,*,#440,.F.);
#589=ORIENTED_EDGE('',*,*,#433,.F.);
#590=ORIENTED_EDGE('',*,*,#441,.T.);
#591=ORIENTED_EDGE('',*,*,#396,.F.);
#592=ORIENTED_EDGE('',*,*,#441,.F.);
#593=ORIENTED_EDGE('',*,*,#432,.F.);
#594=ORIENTED_EDGE('',*,*,#442,.T.);
#595=ORIENTED_EDGE('',*,*,#395,.F.);
#596=ORIENTED_EDGE('',*,*,#442,.F.);
#597=ORIENTED_EDGE('',*,*,#431,.F.);
#598=ORIENTED_EDGE('',*,*,#443,.T.);
#599=ORIENTED_EDGE('',*,*,#394,.F.);
#600=ORIENTED_EDGE('',*,*,#443,.F.);
#601=ORIENTED_EDGE('',*,*,#430,.F.);
#602=ORIENTED_EDGE('',*,*,#444,.T.);
#603=ORIENTED_EDGE('',*,*,#393,.F.);
#604=ORIENTED_EDGE('',*,*,#444,.F.);
#605=ORIENTED_EDGE('',*,*,#429,.F.);
#606=ORIENTED_EDGE('',*,*,#445,.T.);
#607=ORIENTED_EDGE('',*,*,#392,.F.);
#608=ORIENTED_EDGE('',*,*,#445,.F.);
#609=ORIENTED_EDGE('',*,*,#428,.F.);
#610=ORIENTED_EDGE('',*,*,#446,.T.);
#611=ORIENTED_EDGE('',*,*,#391,.F.);
#612=ORIENTED_EDGE('',*,*,#446,.F.);
#613=ORIENTED_EDGE('',*,*,#427,.F.);
#614=ORIENTED_EDGE('',*,*,#447,.T.);
#615=ORIENTED_EDGE('',*,*,#390,.F.);
#616=ORIENTED_EDGE('',*,*,#447,.F.);
#617=ORIENTED_EDGE('',*,*,#448,.T.);
#618=ORIENTED_EDGE('',*,*,#449,.T.);
#619=ORIENTED_EDGE('',*,*,#389,.F.);
#620=ORIENTED_EDGE('',*,*,#449,.F.);
#621=ORIENTED_EDGE('',*,*,#448,.F.);
#622=ORIENTED_EDGE('',*,*,#450,.F.);
#623=ORIENTED_EDGE('',*,*,#426,.F.);
#624=ORIENTED_EDGE('',*,*,#451,.T.);
#625=ORIENTED_EDGE('',*,*,#452,.T.);
#626=ORIENTED_EDGE('',*,*,#451,.F.);
#627=ORIENTED_EDGE('',*,*,#452,.F.);
#628=ORIENTED_EDGE('',*,*,#453,.F.);
#629=ORIENTED_EDGE('',*,*,#453,.T.);
#630=ORIENTED_EDGE('',*,*,#454,.T.);
#631=ORIENTED_EDGE('',*,*,#450,.T.);
#632=ORIENTED_EDGE('',*,*,#454,.F.);
#633=ORIENTED_EDGE('',*,*,#371,.T.);
#634=ORIENTED_EDGE('',*,*,#388,.F.);
#635=ORIENTED_EDGE('',*,*,#439,.F.);
#636=ORIENTED_EDGE('',*,*,#420,.T.);
#637=ORIENTED_EDGE('',*,*,#436,.T.);
#638=ORIENTED_EDGE('',*,*,#383,.F.);
#639=ORIENTED_EDGE('',*,*,#419,.F.);
#640=ORIENTED_EDGE('',*,*,#425,.T.);
#641=PLANE('',#723);
#642=PLANE('',#724);
#643=PLANE('',#725);
#644=PLANE('',#726);
#645=PLANE('',#736);
#646=PLANE('',#737);
#647=PLANE('',#738);
#648=PLANE('',#739);
#649=PLANE('',#740);
#650=PLANE('',#741);
#651=PLANE('',#742);
#652=PLANE('',#743);
#653=PLANE('',#744);
#654=PLANE('',#745);
#655=PLANE('',#746);
#656=PLANE('',#747);
#657=PLANE('',#757);
#658=PLANE('',#758);
#659=PLANE('',#759);
#660=PLANE('',#760);
#661=PLANE('',#771);
#662=PLANE('',#775);
#663=PLANE('',#778);
#664=PLANE('',#779);
#665=ADVANCED_FACE('',(#68),#641,.F.);
#666=ADVANCED_FACE('',(#69),#642,.F.);
#667=ADVANCED_FACE('',(#70),#643,.F.);
#668=ADVANCED_FACE('',(#71,#26,#27,#28,#29,#30,#31,#32,#33,#34),#644,.T.);
#669=ADVANCED_FACE('',(#72),#645,.T.);
#670=ADVANCED_FACE('',(#73),#646,.F.);
#671=ADVANCED_FACE('',(#74),#647,.F.);
#672=ADVANCED_FACE('',(#75),#648,.F.);
#673=ADVANCED_FACE('',(#76),#649,.T.);
#674=ADVANCED_FACE('',(#77),#650,.T.);
#675=ADVANCED_FACE('',(#78),#651,.F.);
#676=ADVANCED_FACE('',(#79),#652,.F.);
#677=ADVANCED_FACE('',(#80),#653,.F.);
#678=ADVANCED_FACE('',(#81),#654,.T.);
#679=ADVANCED_FACE('',(#82),#655,.T.);
#680=ADVANCED_FACE('',(#83,#35,#36,#37,#38,#39,#40,#41,#42,#43),#656,.F.);
#681=ADVANCED_FACE('',(#84),#657,.F.);
#682=ADVANCED_FACE('',(#85),#658,.F.);
#683=ADVANCED_FACE('',(#86),#659,.F.);
#684=ADVANCED_FACE('',(#87),#660,.T.);
#685=ADVANCED_FACE('',(#88),#15,.F.);
#686=ADVANCED_FACE('',(#89),#16,.F.);
#687=ADVANCED_FACE('',(#90),#17,.F.);
#688=ADVANCED_FACE('',(#91),#18,.F.);
#689=ADVANCED_FACE('',(#92),#19,.F.);
#690=ADVANCED_FACE('',(#93),#20,.F.);
#691=ADVANCED_FACE('',(#94),#21,.F.);
#692=ADVANCED_FACE('',(#95),#22,.F.);
#693=ADVANCED_FACE('',(#96),#23,.F.);
#694=ADVANCED_FACE('',(#97,#44),#661,.T.);
#695=ADVANCED_FACE('',(#98),#24,.F.);
#696=ADVANCED_FACE('',(#99,#45),#662,.F.);
#697=ADVANCED_FACE('',(#100),#25,.F.);
#698=ADVANCED_FACE('',(#101),#663,.T.);
#699=ADVANCED_FACE('',(#102),#664,.T.);
#700=CLOSED_SHELL('',(#665,#666,#667,#668,#669,#670,#671,#672,#673,#674,
#675,#676,#677,#678,#679,#680,#681,#682,#683,#684,#685,#686,#687,#688,#689,
#690,#691,#692,#693,#694,#695,#696,#697,#698,#699));
#701=DERIVED_UNIT_ELEMENT(#704,1.);
#702=DERIVED_UNIT_ELEMENT(#1163,-3.);
#703=DIMENSIONAL_EXPONENTS(0.,1.,0.,0.,0.,0.,0.);
#704=(
CONVERSION_BASED_UNIT('gram',#706)
MASS_UNIT()
NAMED_UNIT(#703)
);
#705=(
MASS_UNIT()
NAMED_UNIT(*)
SI_UNIT(.KILO.,.GRAM.)
);
#706=MASS_MEASURE_WITH_UNIT(MASS_MEASURE(0.001),#705);
#707=DERIVED_UNIT((#701,#702));
#708=MEASURE_REPRESENTATION_ITEM('density measure',
POSITIVE_RATIO_MEASURE(2.7),#707);
#709=PROPERTY_DEFINITION_REPRESENTATION(#714,#711);
#710=PROPERTY_DEFINITION_REPRESENTATION(#715,#712);
#711=REPRESENTATION('material name',(#713),#1160);
#712=REPRESENTATION('density',(#708),#1160);
#713=DESCRIPTIVE_REPRESENTATION_ITEM('\X2\30A230EB30DF30CB30A630E0\X0\ 
6061','\X2\30A230EB30DF30CB30A630E0\X0\ 6061');
#714=PROPERTY_DEFINITION('material property','material name',#1170);
#715=PROPERTY_DEFINITION('material property','density of part',#1170);
#716=DATE_TIME_ROLE('creation_date');
#717=APPLIED_DATE_AND_TIME_ASSIGNMENT(#718,#716,(#1170));
#718=DATE_AND_TIME(#719,#720);
#719=CALENDAR_DATE(2026,8,10);
#720=LOCAL_TIME(0,0,0.,#721);
#721=COORDINATED_UNIVERSAL_TIME_OFFSET(0,0,.BEHIND.);
#722=AXIS2_PLACEMENT_3D('',#967,#780,#781);
#723=AXIS2_PLACEMENT_3D('',#968,#782,#783);
#724=AXIS2_PLACEMENT_3D('',#977,#788,#789);
#725=AXIS2_PLACEMENT_3D('',#983,#793,#794);
#726=AXIS2_PLACEMENT_3D('',#989,#798,#799);
#727=AXIS2_PLACEMENT_3D('',#1024,#817,#818);
#728=AXIS2_PLACEMENT_3D('',#1026,#819,#820);
#729=AXIS2_PLACEMENT_3D('',#1028,#821,#822);
#730=AXIS2_PLACEMENT_3D('',#1030,#823,#824);
#731=AXIS2_PLACEMENT_3D('',#1032,#825,#826);
#732=AXIS2_PLACEMENT_3D('',#1034,#827,#828);
#733=AXIS2_PLACEMENT_3D('',#1036,#829,#830);
#734=AXIS2_PLACEMENT_3D('',#1038,#831,#832);
#735=AXIS2_PLACEMENT_3D('',#1040,#833,#834);
#736=AXIS2_PLACEMENT_3D('',#1041,#835,#836);
#737=AXIS2_PLACEMENT_3D('',#1045,#839,#840);
#738=AXIS2_PLACEMENT_3D('',#1051,#844,#845);
#739=AXIS2_PLACEMENT_3D('',#1057,#849,#850);
#740=AXIS2_PLACEMENT_3D('',#1059,#852,#853);
#741=AXIS2_PLACEMENT_3D('',#1063,#856,#857);
#742=AXIS2_PLACEMENT_3D('',#1065,#859,#860);
#743=AXIS2_PLACEMENT_3D('',#1071,#864,#865);
#744=AXIS2_PLACEMENT_3D('',#1075,#868,#869);
#745=AXIS2_PLACEMENT_3D('',#1079,#872,#873);
#746=AXIS2_PLACEMENT_3D('',#1081,#875,#876);
#747=AXIS2_PLACEMENT_3D('',#1085,#879,#880);
#748=AXIS2_PLACEMENT_3D('',#1098,#887,#888);
#749=AXIS2_PLACEMENT_3D('',#1100,#889,#890);
#750=AXIS2_PLACEMENT_3D('',#1102,#891,#892);
#751=AXIS2_PLACEMENT_3D('',#1104,#893,#894);
#752=AXIS2_PLACEMENT_3D('',#1106,#895,#896);
#753=AXIS2_PLACEMENT_3D('',#1108,#897,#898);
#754=AXIS2_PLACEMENT_3D('',#1110,#899,#900);
#755=AXIS2_PLACEMENT_3D('',#1112,#901,#902);
#756=AXIS2_PLACEMENT_3D('',#1114,#903,#904);
#757=AXIS2_PLACEMENT_3D('',#1115,#905,#906);
#758=AXIS2_PLACEMENT_3D('',#1118,#909,#910);
#759=AXIS2_PLACEMENT_3D('',#1120,#912,#913);
#760=AXIS2_PLACEMENT_3D('',#1122,#915,#916);
#761=AXIS2_PLACEMENT_3D('',#1124,#918,#919);
#762=AXIS2_PLACEMENT_3D('',#1126,#921,#922);
#763=AXIS2_PLACEMENT_3D('',#1128,#924,#925);
#764=AXIS2_PLACEMENT_3D('',#1130,#927,#928);
#765=AXIS2_PLACEMENT_3D('',#1132,#930,#931);
#766=AXIS2_PLACEMENT_3D('',#1134,#933,#934);
#767=AXIS2_PLACEMENT_3D('',#1136,#936,#937);
#768=AXIS2_PLACEMENT_3D('',#1138,#939,#940);
#769=AXIS2_PLACEMENT_3D('',#1140,#942,#943);
#770=AXIS2_PLACEMENT_3D('',#1142,#944,#945);
#771=AXIS2_PLACEMENT_3D('',#1144,#947,#948);
#772=AXIS2_PLACEMENT_3D('',#1146,#949,#950);
#773=AXIS2_PLACEMENT_3D('',#1147,#951,#952);
#774=AXIS2_PLACEMENT_3D('',#1150,#954,#955);
#775=AXIS2_PLACEMENT_3D('',#1151,#956,#957);
#776=AXIS2_PLACEMENT_3D('',#1153,#958,#959);
#777=AXIS2_PLACEMENT_3D('',#1154,#960,#961);
#778=AXIS2_PLACEMENT_3D('',#1156,#963,#964);
#779=AXIS2_PLACEMENT_3D('',#1157,#965,#966);
#780=DIRECTION('axis',(0.,0.,1.));
#781=DIRECTION('refdir',(1.,0.,0.));
#782=DIRECTION('center_axis',(-1.,0.,0.));
#783=DIRECTION('ref_axis',(0.,-1.,0.));
#784=DIRECTION('',(0.,-1.,0.));
#785=DIRECTION('',(0.,0.,1.));
#786=DIRECTION('',(0.,1.,0.));
#787=DIRECTION('',(0.,0.,1.));
#788=DIRECTION('center_axis',(0.,1.,0.));
#789=DIRECTION('ref_axis',(-1.,0.,0.));
#790=DIRECTION('',(-1.,0.,0.));
#791=DIRECTION('',(0.,0.,-1.));
#792=DIRECTION('',(1.,0.,0.));
#793=DIRECTION('center_axis',(0.,-1.,0.));
#794=DIRECTION('ref_axis',(1.,0.,0.));
#795=DIRECTION('',(1.,0.,0.));
#796=DIRECTION('',(-1.,0.,0.));
#797=DIRECTION('',(0.,0.,1.));
#798=DIRECTION('center_axis',(0.,0.,1.));
#799=DIRECTION('ref_axis',(1.,0.,0.));
#800=DIRECTION('',(0.,1.,0.));
#801=DIRECTION('',(-1.,0.,0.));
#802=DIRECTION('',(0.,-1.,0.));
#803=DIRECTION('',(-1.,0.,0.));
#804=DIRECTION('',(0.,1.,0.));
#805=DIRECTION('',(-1.,0.,0.));
#806=DIRECTION('',(0.,-1.,0.));
#807=DIRECTION('',(1.,0.,0.));
#808=DIRECTION('',(0.,-1.,0.));
#809=DIRECTION('',(-1.,0.,0.));
#810=DIRECTION('',(0.,-1.,0.));
#811=DIRECTION('',(1.,0.,0.));
#812=DIRECTION('',(0.,1.,0.));
#813=DIRECTION('',(1.,0.,0.));
#814=DIRECTION('',(0.,-1.,0.));
#815=DIRECTION('',(1.,0.,0.));
#816=DIRECTION('',(0.,1.,0.));
#817=DIRECTION('center_axis',(0.,0.,-1.));
#818=DIRECTION('ref_axis',(-1.,0.,0.));
#819=DIRECTION('center_axis',(0.,0.,-1.));
#820=DIRECTION('ref_axis',(-1.,0.,0.));
#821=DIRECTION('center_axis',(0.,0.,-1.));
#822=DIRECTION('ref_axis',(-1.,0.,0.));
#823=DIRECTION('center_axis',(0.,0.,-1.));
#824=DIRECTION('ref_axis',(-1.,0.,0.));
#825=DIRECTION('center_axis',(0.,0.,-1.));
#826=DIRECTION('ref_axis',(-1.,0.,0.));
#827=DIRECTION('center_axis',(0.,0.,-1.));
#828=DIRECTION('ref_axis',(-1.,0.,0.));
#829=DIRECTION('center_axis',(0.,0.,-1.));
#830=DIRECTION('ref_axis',(-1.,0.,0.));
#831=DIRECTION('center_axis',(0.,0.,-1.));
#832=DIRECTION('ref_axis',(-1.,0.,0.));
#833=DIRECTION('center_axis',(0.,0.,-1.));
#834=DIRECTION('ref_axis',(-1.,0.,0.));
#835=DIRECTION('center_axis',(1.,0.,0.));
#836=DIRECTION('ref_axis',(0.,1.,0.));
#837=DIRECTION('',(0.,1.,0.));
#838=DIRECTION('',(0.,0.,1.));
#839=DIRECTION('center_axis',(-1.,0.,0.));
#840=DIRECTION('ref_axis',(0.,-1.,0.));
#841=DIRECTION('',(0.,-1.,0.));
#842=DIRECTION('',(0.,0.,-1.));
#843=DIRECTION('',(0.,0.,1.));
#844=DIRECTION('center_axis',(1.,0.,0.));
#845=DIRECTION('ref_axis',(0.,1.,0.));
#846=DIRECTION('',(0.,1.,0.));
#847=DIRECTION('',(0.,0.,1.));
#848=DIRECTION('',(0.,0.,1.));
#849=DIRECTION('center_axis',(0.,-1.,0.));
#850=DIRECTION('ref_axis',(1.,0.,0.));
#851=DIRECTION('',(1.,0.,0.));
#852=DIRECTION('center_axis',(0.,1.,0.));
#853=DIRECTION('ref_axis',(-1.,0.,0.));
#854=DIRECTION('',(-1.,0.,0.));
#855=DIRECTION('',(0.,0.,1.));
#856=DIRECTION('center_axis',(0.,1.,0.));
#857=DIRECTION('ref_axis',(-1.,0.,0.));
#858=DIRECTION('',(-1.,0.,0.));
#859=DIRECTION('center_axis',(0.,1.,0.));
#860=DIRECTION('ref_axis',(-1.,0.,0.));
#861=DIRECTION('',(-1.,0.,0.));
#862=DIRECTION('',(0.,0.,1.));
#863=DIRECTION('',(0.,0.,1.));
#864=DIRECTION('center_axis',(1.,0.,0.));
#865=DIRECTION('ref_axis',(0.,1.,0.));
#866=DIRECTION('',(0.,1.,0.));
#867=DIRECTION('',(0.,0.,1.));
#868=DIRECTION('center_axis',(0.,-1.,0.));
#869=DIRECTION('ref_axis',(1.,0.,0.));
#870=DIRECTION('',(1.,0.,0.));
#871=DIRECTION('',(0.,0.,-1.));
#872=DIRECTION('center_axis',(-1.,0.,0.));
#873=DIRECTION('ref_axis',(0.,-1.,0.));
#874=DIRECTION('',(0.,-1.,0.));
#875=DIRECTION('center_axis',(-1.,0.,0.));
#876=DIRECTION('ref_axis',(0.,-1.,0.));
#877=DIRECTION('',(0.,-1.,0.));
#878=DIRECTION('',(0.,0.,1.));
#879=DIRECTION('center_axis',(0.,0.,1.));
#880=DIRECTION('ref_axis',(1.,0.,0.));
#881=DIRECTION('',(0.,1.,0.));
#882=DIRECTION('',(1.,0.,0.));
#883=DIRECTION('',(0.,1.,0.));
#884=DIRECTION('',(-1.,0.,0.));
#885=DIRECTION('',(0.,-1.,0.));
#886=DIRECTION('',(1.,0.,0.));
#887=DIRECTION('center_axis',(0.,0.,1.));
#888=DIRECTION('ref_axis',(-1.,0.,0.));
#889=DIRECTION('center_axis',(0.,0.,1.));
#890=DIRECTION('ref_axis',(-1.,0.,0.));
#891=DIRECTION('center_axis',(0.,0.,1.));
#892=DIRECTION('ref_axis',(-1.,0.,0.));
#893=DIRECTION('center_axis',(0.,0.,1.));
#894=DIRECTION('ref_axis',(-1.,0.,0.));
#895=DIRECTION('center_axis',(0.,0.,1.));
#896=DIRECTION('ref_axis',(-1.,0.,0.));
#897=DIRECTION('center_axis',(0.,0.,1.));
#898=DIRECTION('ref_axis',(-1.,0.,0.));
#899=DIRECTION('center_axis',(0.,0.,1.));
#900=DIRECTION('ref_axis',(-1.,0.,0.));
#901=DIRECTION('center_axis',(0.,0.,1.));
#902=DIRECTION('ref_axis',(-1.,0.,0.));
#903=DIRECTION('center_axis',(0.,0.,1.));
#904=DIRECTION('ref_axis',(-1.,0.,0.));
#905=DIRECTION('center_axis',(-1.,0.,0.));
#906=DIRECTION('ref_axis',(0.,-1.,0.));
#907=DIRECTION('',(0.,0.,1.));
#908=DIRECTION('',(0.,0.,1.));
#909=DIRECTION('center_axis',(0.,1.,0.));
#910=DIRECTION('ref_axis',(-1.,0.,0.));
#911=DIRECTION('',(0.,0.,1.));
#912=DIRECTION('center_axis',(1.,0.,0.));
#913=DIRECTION('ref_axis',(0.,1.,0.));
#914=DIRECTION('',(0.,0.,-1.));
#915=DIRECTION('center_axis',(0.,-1.,0.));
#916=DIRECTION('ref_axis',(1.,0.,0.));
#917=DIRECTION('',(0.,0.,1.));
#918=DIRECTION('center_axis',(0.,0.,1.));
#919=DIRECTION('ref_axis',(-1.,0.,0.));
#920=DIRECTION('',(0.,0.,1.));
#921=DIRECTION('center_axis',(0.,0.,1.));
#922=DIRECTION('ref_axis',(-1.,0.,0.));
#923=DIRECTION('',(0.,0.,1.));
#924=DIRECTION('center_axis',(0.,0.,1.));
#925=DIRECTION('ref_axis',(-1.,0.,0.));
#926=DIRECTION('',(0.,0.,1.));
#927=DIRECTION('center_axis',(0.,0.,1.));
#928=DIRECTION('ref_axis',(-1.,0.,0.));
#929=DIRECTION('',(0.,0.,1.));
#930=DIRECTION('center_axis',(0.,0.,1.));
#931=DIRECTION('ref_axis',(-1.,0.,0.));
#932=DIRECTION('',(0.,0.,1.));
#933=DIRECTION('center_axis',(0.,0.,1.));
#934=DIRECTION('ref_axis',(-1.,0.,0.));
#935=DIRECTION('',(0.,0.,1.));
#936=DIRECTION('center_axis',(0.,0.,1.));
#937=DIRECTION('ref_axis',(-1.,0.,0.));
#938=DIRECTION('',(0.,0.,1.));
#939=DIRECTION('center_axis',(0.,0.,1.));
#940=DIRECTION('ref_axis',(-1.,0.,0.));
#941=DIRECTION('',(0.,0.,1.));
#942=DIRECTION('center_axis',(0.,0.,1.));
#943=DIRECTION('ref_axis',(-1.,0.,0.));
#944=DIRECTION('center_axis',(0.,0.,-1.));
#945=DIRECTION('ref_axis',(-1.,0.,0.));
#946=DIRECTION('',(0.,0.,1.));
#947=DIRECTION('center_axis',(0.,0.,1.));
#948=DIRECTION('ref_axis',(1.,0.,0.));
#949=DIRECTION('center_axis',(0.,0.,1.));
#950=DIRECTION('ref_axis',(-1.,0.,0.));
#951=DIRECTION('center_axis',(0.,0.,1.));
#952=DIRECTION('ref_axis',(-1.,0.,0.));
#953=DIRECTION('',(0.,0.,1.));
#954=DIRECTION('center_axis',(0.,0.,1.));
#955=DIRECTION('ref_axis',(-1.,0.,0.));
#956=DIRECTION('center_axis',(0.,0.,1.));
#957=DIRECTION('ref_axis',(1.,0.,0.));
#958=DIRECTION('center_axis',(0.,0.,-1.));
#959=DIRECTION('ref_axis',(-1.,0.,0.));
#960=DIRECTION('center_axis',(0.,0.,1.));
#961=DIRECTION('ref_axis',(-1.,0.,0.));
#962=DIRECTION('',(0.,0.,1.));
#963=DIRECTION('center_axis',(1.,0.,0.));
#964=DIRECTION('ref_axis',(0.,1.,0.));
#965=DIRECTION('center_axis',(0.,-1.,0.));
#966=DIRECTION('ref_axis',(1.,0.,0.));
#967=CARTESIAN_POINT('',(0.,0.,0.));
#968=CARTESIAN_POINT('Origin',(14.,10.,6.));
#969=CARTESIAN_POINT('',(14.,10.,6.));
#970=CARTESIAN_POINT('',(14.,-10.,6.));
#971=CARTESIAN_POINT('',(14.,5.,6.));
#972=CARTESIAN_POINT('',(14.,10.,34.));
#973=CARTESIAN_POINT('',(14.,10.,6.));
#974=CARTESIAN_POINT('',(14.,-10.,34.));
#975=CARTESIAN_POINT('',(14.,5.,34.));
#976=CARTESIAN_POINT('',(14.,-10.,6.));
#977=CARTESIAN_POINT('Origin',(26.,10.,6.));
#978=CARTESIAN_POINT('',(26.,10.,6.));
#979=CARTESIAN_POINT('',(13.,10.,6.));
#980=CARTESIAN_POINT('',(26.,10.,34.));
#981=CARTESIAN_POINT('',(26.,10.,6.));
#982=CARTESIAN_POINT('',(13.,10.,34.));
#983=CARTESIAN_POINT('Origin',(14.,-10.,6.));
#984=CARTESIAN_POINT('',(26.,-10.,6.));
#985=CARTESIAN_POINT('',(7.,-10.,6.));
#986=CARTESIAN_POINT('',(26.,-10.,34.));
#987=CARTESIAN_POINT('',(7.,-10.,34.));
#988=CARTESIAN_POINT('',(26.,-10.,6.));
#989=CARTESIAN_POINT('Origin',(0.,0.,34.));
#990=CARTESIAN_POINT('',(26.,26.,34.));
#991=CARTESIAN_POINT('',(26.,-26.,34.));
#992=CARTESIAN_POINT('',(10.,26.,34.));
#993=CARTESIAN_POINT('',(26.,26.,34.));
#994=CARTESIAN_POINT('',(10.,14.,34.));
#995=CARTESIAN_POINT('',(10.,7.,34.));
#996=CARTESIAN_POINT('',(-10.,14.,34.));
#997=CARTESIAN_POINT('',(-5.,14.,34.));
#998=CARTESIAN_POINT('',(-10.,26.,34.));
#999=CARTESIAN_POINT('',(-10.,13.,34.));
#1000=CARTESIAN_POINT('',(-26.,26.,34.));
#1001=CARTESIAN_POINT('',(26.,26.,34.));
#1002=CARTESIAN_POINT('',(-26.,10.,34.));
#1003=CARTESIAN_POINT('',(-26.,26.,34.));
#1004=CARTESIAN_POINT('',(-14.,10.,34.));
#1005=CARTESIAN_POINT('',(-7.,10.,34.));
#1006=CARTESIAN_POINT('',(-14.,-10.,34.));
#1007=CARTESIAN_POINT('',(-14.,-5.,34.));
#1008=CARTESIAN_POINT('',(-26.,-10.,34.));
#1009=CARTESIAN_POINT('',(-13.,-10.,34.));
#1010=CARTESIAN_POINT('',(-26.,-26.,34.));
#1011=CARTESIAN_POINT('',(-26.,26.,34.));
#1012=CARTESIAN_POINT('',(-10.,-26.,34.));
#1013=CARTESIAN_POINT('',(-26.,-26.,34.));
#1014=CARTESIAN_POINT('',(-10.,-14.,34.));
#1015=CARTESIAN_POINT('',(-10.,-7.,34.));
#1016=CARTESIAN_POINT('',(10.,-14.,34.));
#1017=CARTESIAN_POINT('',(5.,-14.,34.));
#1018=CARTESIAN_POINT('',(10.,-26.,34.));
#1019=CARTESIAN_POINT('',(10.,-13.,34.));
#1020=CARTESIAN_POINT('',(26.,-26.,34.));
#1021=CARTESIAN_POINT('',(-26.,-26.,34.));
#1022=CARTESIAN_POINT('',(26.,-26.,34.));
#1023=CARTESIAN_POINT('',(13.,1.59204083889156E-15,34.));
#1024=CARTESIAN_POINT('Origin',(0.,0.,34.));
#1025=CARTESIAN_POINT('',(-19.9,-22.,34.));
#1026=CARTESIAN_POINT('Origin',(-22.,-22.,34.));
#1027=CARTESIAN_POINT('',(-19.9,22.,34.));
#1028=CARTESIAN_POINT('Origin',(-22.,22.,34.));
#1029=CARTESIAN_POINT('',(24.1,-22.,34.));
#1030=CARTESIAN_POINT('Origin',(22.,-22.,34.));
#1031=CARTESIAN_POINT('',(24.1,22.,34.));
#1032=CARTESIAN_POINT('Origin',(22.,22.,34.));
#1033=CARTESIAN_POINT('',(-14.75,-16.,34.));
#1034=CARTESIAN_POINT('Origin',(-16.,-16.,34.));
#1035=CARTESIAN_POINT('',(-14.75,16.,34.));
#1036=CARTESIAN_POINT('Origin',(-16.,16.,34.));
#1037=CARTESIAN_POINT('',(17.25,-16.,34.));
#1038=CARTESIAN_POINT('Origin',(16.,-16.,34.));
#1039=CARTESIAN_POINT('',(17.25,16.,34.));
#1040=CARTESIAN_POINT('Origin',(16.,16.,34.));
#1041=CARTESIAN_POINT('Origin',(26.,-26.,6.));
#1042=CARTESIAN_POINT('',(26.,26.,6.));
#1043=CARTESIAN_POINT('',(26.,-26.,6.));
#1044=CARTESIAN_POINT('',(26.,26.,6.));
#1045=CARTESIAN_POINT('Origin',(-10.,26.,6.));
#1046=CARTESIAN_POINT('',(-10.,26.,6.));
#1047=CARTESIAN_POINT('',(-10.,14.,6.));
#1048=CARTESIAN_POINT('',(-10.,13.,6.));
#1049=CARTESIAN_POINT('',(-10.,26.,6.));
#1050=CARTESIAN_POINT('',(-10.,14.,6.));
#1051=CARTESIAN_POINT('Origin',(10.,14.,6.));
#1052=CARTESIAN_POINT('',(10.,14.,6.));
#1053=CARTESIAN_POINT('',(10.,26.,6.));
#1054=CARTESIAN_POINT('',(10.,7.,6.));
#1055=CARTESIAN_POINT('',(10.,14.,6.));
#1056=CARTESIAN_POINT('',(10.,26.,6.));
#1057=CARTESIAN_POINT('Origin',(-10.,14.,6.));
#1058=CARTESIAN_POINT('',(-5.,14.,6.));
#1059=CARTESIAN_POINT('Origin',(26.,26.,6.));
#1060=CARTESIAN_POINT('',(-26.,26.,6.));
#1061=CARTESIAN_POINT('',(26.,26.,6.));
#1062=CARTESIAN_POINT('',(-26.,26.,6.));
#1063=CARTESIAN_POINT('Origin',(26.,26.,6.));
#1064=CARTESIAN_POINT('',(26.,26.,6.));
#1065=CARTESIAN_POINT('Origin',(-14.,10.,6.));
#1066=CARTESIAN_POINT('',(-14.,10.,6.));
#1067=CARTESIAN_POINT('',(-26.,10.,6.));
#1068=CARTESIAN_POINT('',(-7.,10.,6.));
#1069=CARTESIAN_POINT('',(-14.,10.,6.));
#1070=CARTESIAN_POINT('',(-26.,10.,6.));
#1071=CARTESIAN_POINT('Origin',(-14.,-10.,6.));
#1072=CARTESIAN_POINT('',(-14.,-10.,6.));
#1073=CARTESIAN_POINT('',(-14.,-5.,6.));
#1074=CARTESIAN_POINT('',(-14.,-10.,6.));
#1075=CARTESIAN_POINT('Origin',(-26.,-10.,6.));
#1076=CARTESIAN_POINT('',(-26.,-10.,6.));
#1077=CARTESIAN_POINT('',(-13.,-10.,6.));
#1078=CARTESIAN_POINT('',(-26.,-10.,6.));
#1079=CARTESIAN_POINT('Origin',(-26.,26.,6.));
#1080=CARTESIAN_POINT('',(-26.,26.,6.));
#1081=CARTESIAN_POINT('Origin',(-26.,26.,6.));
#1082=CARTESIAN_POINT('',(-26.,-26.,6.));
#1083=CARTESIAN_POINT('',(-26.,26.,6.));
#1084=CARTESIAN_POINT('',(-26.,-26.,6.));
#1085=CARTESIAN_POINT('Origin',(0.,0.,6.));
#1086=CARTESIAN_POINT('',(26.,-26.,6.));
#1087=CARTESIAN_POINT('',(26.,-26.,6.));
#1088=CARTESIAN_POINT('',(10.,-26.,6.));
#1089=CARTESIAN_POINT('',(-26.,-26.,6.));
#1090=CARTESIAN_POINT('',(10.,-14.,6.));
#1091=CARTESIAN_POINT('',(10.,-13.,6.));
#1092=CARTESIAN_POINT('',(-10.,-14.,6.));
#1093=CARTESIAN_POINT('',(5.,-14.,6.));
#1094=CARTESIAN_POINT('',(-10.,-26.,6.));
#1095=CARTESIAN_POINT('',(-10.,-7.,6.));
#1096=CARTESIAN_POINT('',(-26.,-26.,6.));
#1097=CARTESIAN_POINT('',(13.,1.59204083889156E-15,6.));
#1098=CARTESIAN_POINT('Origin',(0.,0.,6.));
#1099=CARTESIAN_POINT('',(-19.9,-22.,6.));
#1100=CARTESIAN_POINT('Origin',(-22.,-22.,6.));
#1101=CARTESIAN_POINT('',(-19.9,22.,6.));
#1102=CARTESIAN_POINT('Origin',(-22.,22.,6.));
#1103=CARTESIAN_POINT('',(24.1,-22.,6.));
#1104=CARTESIAN_POINT('Origin',(22.,-22.,6.));
#1105=CARTESIAN_POINT('',(24.1,22.,6.));
#1106=CARTESIAN_POINT('Origin',(22.,22.,6.));
#1107=CARTESIAN_POINT('',(-14.75,-16.,6.));
#1108=CARTESIAN_POINT('Origin',(-16.,-16.,6.));
#1109=CARTESIAN_POINT('',(-14.75,16.,6.));
#1110=CARTESIAN_POINT('Origin',(-16.,16.,6.));
#1111=CARTESIAN_POINT('',(17.25,-16.,6.));
#1112=CARTESIAN_POINT('Origin',(16.,-16.,6.));
#1113=CARTESIAN_POINT('',(17.25,16.,6.));
#1114=CARTESIAN_POINT('Origin',(16.,16.,6.));
#1115=CARTESIAN_POINT('Origin',(-10.,-14.,6.));
#1116=CARTESIAN_POINT('',(-10.,-14.,6.));
#1117=CARTESIAN_POINT('',(-10.,-26.,6.));
#1118=CARTESIAN_POINT('Origin',(10.,-14.,6.));
#1119=CARTESIAN_POINT('',(10.,-14.,6.));
#1120=CARTESIAN_POINT('Origin',(10.,-26.,6.));
#1121=CARTESIAN_POINT('',(10.,-26.,6.));
#1122=CARTESIAN_POINT('Origin',(-26.,-26.,6.));
#1123=CARTESIAN_POINT('',(26.,-26.,6.));
#1124=CARTESIAN_POINT('Origin',(16.,16.,6.));
#1125=CARTESIAN_POINT('',(17.25,16.,6.));
#1126=CARTESIAN_POINT('Origin',(16.,-16.,6.));
#1127=CARTESIAN_POINT('',(17.25,-16.,6.));
#1128=CARTESIAN_POINT('Origin',(-16.,16.,6.));
#1129=CARTESIAN_POINT('',(-14.75,16.,6.));
#1130=CARTESIAN_POINT('Origin',(-16.,-16.,6.));
#1131=CARTESIAN_POINT('',(-14.75,-16.,6.));
#1132=CARTESIAN_POINT('Origin',(22.,22.,6.));
#1133=CARTESIAN_POINT('',(24.1,22.,6.));
#1134=CARTESIAN_POINT('Origin',(22.,-22.,6.));
#1135=CARTESIAN_POINT('',(24.1,-22.,6.));
#1136=CARTESIAN_POINT('Origin',(-22.,22.,6.));
#1137=CARTESIAN_POINT('',(-19.9,22.,6.));
#1138=CARTESIAN_POINT('Origin',(-22.,-22.,6.));
#1139=CARTESIAN_POINT('',(-19.9,-22.,6.));
#1140=CARTESIAN_POINT('Origin',(0.,0.,26.));
#1141=CARTESIAN_POINT('',(13.,1.59204083889156E-15,26.));
#1142=CARTESIAN_POINT('Origin',(0.,0.,26.));
#1143=CARTESIAN_POINT('',(13.,1.59204083889156E-15,26.));
#1144=CARTESIAN_POINT('Origin',(-1.3267006990763E-16,0.,26.));
#1145=CARTESIAN_POINT('',(11.,1.34711147906209E-15,26.));
#1146=CARTESIAN_POINT('Origin',(0.,0.,26.));
#1147=CARTESIAN_POINT('Origin',(0.,0.,6.));
#1148=CARTESIAN_POINT('',(13.,1.59204083889156E-15,14.));
#1149=CARTESIAN_POINT('',(13.,1.59204083889156E-15,6.));
#1150=CARTESIAN_POINT('Origin',(0.,0.,14.));
#1151=CARTESIAN_POINT('Origin',(-1.3267006990763E-16,0.,14.));
#1152=CARTESIAN_POINT('',(11.,-1.34711147906209E-15,14.));
#1153=CARTESIAN_POINT('Origin',(0.,0.,14.));
#1154=CARTESIAN_POINT('Origin',(0.,0.,6.));
#1155=CARTESIAN_POINT('',(11.,1.34711147906209E-15,6.));
#1156=CARTESIAN_POINT('Origin',(26.,-26.,6.));
#1157=CARTESIAN_POINT('Origin',(-26.,-26.,6.));
#1158=UNCERTAINTY_MEASURE_WITH_UNIT(LENGTH_MEASURE(0.01),#1162,
'DISTANCE_ACCURACY_VALUE',
'Maximum model space distance between geometric entities at asserted c
onnectivities');
#1159=UNCERTAINTY_MEASURE_WITH_UNIT(LENGTH_MEASURE(0.01),#1162,
'DISTANCE_ACCURACY_VALUE',
'Maximum model space distance between geometric entities at asserted c
onnectivities');
#1160=(
GEOMETRIC_REPRESENTATION_CONTEXT(3)
GLOBAL_UNCERTAINTY_ASSIGNED_CONTEXT((#1158))
GLOBAL_UNIT_ASSIGNED_CONTEXT((#1162,#1164,#1165))
REPRESENTATION_CONTEXT('','3D')
);
#1161=(
GEOMETRIC_REPRESENTATION_CONTEXT(3)
GLOBAL_UNCERTAINTY_ASSIGNED_CONTEXT((#1159))
GLOBAL_UNIT_ASSIGNED_CONTEXT((#1162,#1164,#1165))
REPRESENTATION_CONTEXT('','3D')
);
#1162=(
LENGTH_UNIT()
NAMED_UNIT(*)
SI_UNIT(.MILLI.,.METRE.)
);
#1163=(
LENGTH_UNIT()
NAMED_UNIT(*)
SI_UNIT(.CENTI.,.METRE.)
);
#1164=(
NAMED_UNIT(*)
PLANE_ANGLE_UNIT()
SI_UNIT($,.RADIAN.)
);
#1165=(
NAMED_UNIT(*)
SI_UNIT($,.STERADIAN.)
SOLID_ANGLE_UNIT()
);
#1166=SHAPE_DEFINITION_REPRESENTATION(#1167,#1168);
#1167=PRODUCT_DEFINITION_SHAPE('',$,#1170);
#1168=SHAPE_REPRESENTATION('',(#722),#1160);
#1169=PRODUCT_DEFINITION_CONTEXT('part definition',#1174,'design');
#1170=PRODUCT_DEFINITION('05_Bearing_Housing','05_Bearing_Housing',#1171,
#1169);
#1171=PRODUCT_DEFINITION_FORMATION('',$,#1176);
#1172=PRODUCT_RELATED_PRODUCT_CATEGORY('05_Bearing_Housing',
'05_Bearing_Housing',(#1176));
#1173=APPLICATION_PROTOCOL_DEFINITION('international standard',
'automotive_design',2009,#1174);
#1174=APPLICATION_CONTEXT(
'Core Data for Automotive Mechanical Design Process');
#1175=PRODUCT_CONTEXT('part definition',#1174,'mechanical');
#1176=PRODUCT('05_Bearing_Housing','05_Bearing_Housing',$,(#1175));
#1177=PRESENTATION_STYLE_ASSIGNMENT((#1178));
#1178=SURFACE_STYLE_USAGE(.BOTH.,#1181);
#1179=SURFACE_STYLE_RENDERING_WITH_PROPERTIES($,#1185,(#1180));
#1180=SURFACE_STYLE_TRANSPARENT(0.);
#1181=SURFACE_SIDE_STYLE('',(#1182,#1179));
#1182=SURFACE_STYLE_FILL_AREA(#1183);
#1183=FILL_AREA_STYLE('',(#1184));
#1184=FILL_AREA_STYLE_COLOUR('',#1185);
#1185=COLOUR_RGB('',0.996078431372549,0.996078431372549,1.);
ENDSEC;
END-ISO-10303-21;
