ISO-10303-21;
HEADER;
/* Generated by software containing ST-Developer
 * from STEP Tools, Inc. (www.steptools.com) 
 */

FILE_DESCRIPTION(
/* description */ (''),
/* implementation_level */ '2;1');

FILE_NAME(
/* name */ '06_Motor_Mount.step',
/* time_stamp */ '2026-10-08T17:08:34+09:00',
/* author */ ('Reaction Wheel Pendulum project'),
/* organization */ (''),
/* preprocessor_version */ 'ST-DEVELOPER v20.1',
/* originating_system */ 'Autodesk Inventor 2026',
/* authorisation */ '');

FILE_SCHEMA (('AUTOMOTIVE_DESIGN { 1 0 10303 214 3 1 1 }'));
ENDSEC;

DATA;
#10=MECHANICAL_DESIGN_GEOMETRIC_PRESENTATION_REPRESENTATION('',(#13),#621);
#11=SHAPE_REPRESENTATION_RELATIONSHIP('SRR','None',#628,#12);
#12=ADVANCED_BREP_SHAPE_REPRESENTATION('',(#14),#620);
#13=STYLED_ITEM('',(#637),#14);
#14=MANIFOLD_SOLID_BREP('\X2\30BD30EA30C330C9\X0\1',#360);
#15=FACE_BOUND('',#76,.T.);
#16=FACE_BOUND('',#77,.T.);
#17=FACE_BOUND('',#78,.T.);
#18=FACE_BOUND('',#79,.T.);
#19=FACE_BOUND('',#80,.T.);
#20=FACE_BOUND('',#81,.T.);
#21=FACE_BOUND('',#82,.T.);
#22=FACE_BOUND('',#83,.T.);
#23=FACE_BOUND('',#84,.T.);
#24=FACE_BOUND('',#85,.T.);
#25=FACE_BOUND('',#86,.T.);
#26=FACE_BOUND('',#88,.T.);
#27=FACE_BOUND('',#89,.T.);
#28=FACE_BOUND('',#90,.T.);
#29=FACE_BOUND('',#91,.T.);
#30=FACE_BOUND('',#92,.T.);
#31=FACE_BOUND('',#93,.T.);
#32=FACE_BOUND('',#94,.T.);
#33=FACE_BOUND('',#95,.T.);
#34=FACE_BOUND('',#96,.T.);
#35=FACE_BOUND('',#97,.T.);
#36=FACE_BOUND('',#98,.T.);
#37=PLANE('',#416);
#38=PLANE('',#417);
#39=PLANE('',#418);
#40=PLANE('',#419);
#41=PLANE('',#420);
#42=PLANE('',#421);
#43=FACE_OUTER_BOUND('',#60,.T.);
#44=FACE_OUTER_BOUND('',#61,.T.);
#45=FACE_OUTER_BOUND('',#62,.T.);
#46=FACE_OUTER_BOUND('',#63,.T.);
#47=FACE_OUTER_BOUND('',#64,.T.);
#48=FACE_OUTER_BOUND('',#65,.T.);
#49=FACE_OUTER_BOUND('',#66,.T.);
#50=FACE_OUTER_BOUND('',#67,.T.);
#51=FACE_OUTER_BOUND('',#68,.T.);
#52=FACE_OUTER_BOUND('',#69,.T.);
#53=FACE_OUTER_BOUND('',#70,.T.);
#54=FACE_OUTER_BOUND('',#71,.T.);
#55=FACE_OUTER_BOUND('',#72,.T.);
#56=FACE_OUTER_BOUND('',#73,.T.);
#57=FACE_OUTER_BOUND('',#74,.T.);
#58=FACE_OUTER_BOUND('',#75,.T.);
#59=FACE_OUTER_BOUND('',#87,.T.);
#60=EDGE_LOOP('',(#242,#243,#244,#245));
#61=EDGE_LOOP('',(#246,#247,#248,#249));
#62=EDGE_LOOP('',(#250,#251,#252,#253));
#63=EDGE_LOOP('',(#254,#255,#256,#257));
#64=EDGE_LOOP('',(#258,#259,#260,#261));
#65=EDGE_LOOP('',(#262,#263,#264,#265));
#66=EDGE_LOOP('',(#266,#267,#268,#269));
#67=EDGE_LOOP('',(#270,#271,#272,#273));
#68=EDGE_LOOP('',(#274,#275,#276,#277));
#69=EDGE_LOOP('',(#278,#279,#280,#281));
#70=EDGE_LOOP('',(#282,#283,#284,#285));
#71=EDGE_LOOP('',(#286,#287,#288,#289));
#72=EDGE_LOOP('',(#290,#291,#292,#293));
#73=EDGE_LOOP('',(#294,#295,#296,#297));
#74=EDGE_LOOP('',(#298,#299,#300,#301));
#75=EDGE_LOOP('',(#302,#303,#304,#305));
#76=EDGE_LOOP('',(#306));
#77=EDGE_LOOP('',(#307));
#78=EDGE_LOOP('',(#308));
#79=EDGE_LOOP('',(#309));
#80=EDGE_LOOP('',(#310));
#81=EDGE_LOOP('',(#311));
#82=EDGE_LOOP('',(#312));
#83=EDGE_LOOP('',(#313));
#84=EDGE_LOOP('',(#314));
#85=EDGE_LOOP('',(#315));
#86=EDGE_LOOP('',(#316));
#87=EDGE_LOOP('',(#317,#318,#319,#320));
#88=EDGE_LOOP('',(#321));
#89=EDGE_LOOP('',(#322));
#90=EDGE_LOOP('',(#323));
#91=EDGE_LOOP('',(#324));
#92=EDGE_LOOP('',(#325));
#93=EDGE_LOOP('',(#326));
#94=EDGE_LOOP('',(#327));
#95=EDGE_LOOP('',(#328));
#96=EDGE_LOOP('',(#329));
#97=EDGE_LOOP('',(#330));
#98=EDGE_LOOP('',(#331));
#99=LINE('',#530,#122);
#100=LINE('',#536,#123);
#101=LINE('',#542,#124);
#102=LINE('',#548,#125);
#103=LINE('',#554,#126);
#104=LINE('',#560,#127);
#105=LINE('',#566,#128);
#106=LINE('',#572,#129);
#107=LINE('',#578,#130);
#108=LINE('',#584,#131);
#109=LINE('',#590,#132);
#110=LINE('',#595,#133);
#111=LINE('',#597,#134);
#112=LINE('',#599,#135);
#113=LINE('',#600,#136);
#114=LINE('',#603,#137);
#115=LINE('',#605,#138);
#116=LINE('',#606,#139);
#117=LINE('',#609,#140);
#118=LINE('',#611,#141);
#119=LINE('',#612,#142);
#120=LINE('',#614,#143);
#121=LINE('',#615,#144);
#122=VECTOR('',#428,2.1);
#123=VECTOR('',#435,2.1);
#124=VECTOR('',#442,2.1);
#125=VECTOR('',#449,2.1);
#126=VECTOR('',#456,1.6);
#127=VECTOR('',#463,1.6);
#128=VECTOR('',#470,1.6);
#129=VECTOR('',#477,1.6);
#130=VECTOR('',#484,1.6);
#131=VECTOR('',#491,1.6);
#132=VECTOR('',#498,8.05);
#133=VECTOR('',#503,10.);
#134=VECTOR('',#504,10.);
#135=VECTOR('',#505,10.);
#136=VECTOR('',#506,10.);
#137=VECTOR('',#509,10.);
#138=VECTOR('',#510,10.);
#139=VECTOR('',#511,10.);
#140=VECTOR('',#514,10.);
#141=VECTOR('',#515,10.);
#142=VECTOR('',#516,10.);
#143=VECTOR('',#519,10.);
#144=VECTOR('',#520,10.);
#145=CIRCLE('',#384,2.1);
#146=CIRCLE('',#385,2.1);
#147=CIRCLE('',#387,2.1);
#148=CIRCLE('',#388,2.1);
#149=CIRCLE('',#390,2.1);
#150=CIRCLE('',#391,2.1);
#151=CIRCLE('',#393,2.1);
#152=CIRCLE('',#394,2.1);
#153=CIRCLE('',#396,1.6);
#154=CIRCLE('',#397,1.6);
#155=CIRCLE('',#399,1.6);
#156=CIRCLE('',#400,1.6);
#157=CIRCLE('',#402,1.6);
#158=CIRCLE('',#403,1.6);
#159=CIRCLE('',#405,1.6);
#160=CIRCLE('',#406,1.6);
#161=CIRCLE('',#408,1.6);
#162=CIRCLE('',#409,1.6);
#163=CIRCLE('',#411,1.6);
#164=CIRCLE('',#412,1.6);
#165=CIRCLE('',#414,8.05);
#166=CIRCLE('',#415,8.05);
#167=VERTEX_POINT('',#527);
#168=VERTEX_POINT('',#529);
#169=VERTEX_POINT('',#533);
#170=VERTEX_POINT('',#535);
#171=VERTEX_POINT('',#539);
#172=VERTEX_POINT('',#541);
#173=VERTEX_POINT('',#545);
#174=VERTEX_POINT('',#547);
#175=VERTEX_POINT('',#551);
#176=VERTEX_POINT('',#553);
#177=VERTEX_POINT('',#557);
#178=VERTEX_POINT('',#559);
#179=VERTEX_POINT('',#563);
#180=VERTEX_POINT('',#565);
#181=VERTEX_POINT('',#569);
#182=VERTEX_POINT('',#571);
#183=VERTEX_POINT('',#575);
#184=VERTEX_POINT('',#577);
#185=VERTEX_POINT('',#581);
#186=VERTEX_POINT('',#583);
#187=VERTEX_POINT('',#587);
#188=VERTEX_POINT('',#589);
#189=VERTEX_POINT('',#593);
#190=VERTEX_POINT('',#594);
#191=VERTEX_POINT('',#596);
#192=VERTEX_POINT('',#598);
#193=VERTEX_POINT('',#602);
#194=VERTEX_POINT('',#604);
#195=VERTEX_POINT('',#608);
#196=VERTEX_POINT('',#610);
#197=EDGE_CURVE('',#167,#167,#145,.T.);
#198=EDGE_CURVE('',#167,#168,#99,.T.);
#199=EDGE_CURVE('',#168,#168,#146,.T.);
#200=EDGE_CURVE('',#169,#169,#147,.T.);
#201=EDGE_CURVE('',#169,#170,#100,.T.);
#202=EDGE_CURVE('',#170,#170,#148,.T.);
#203=EDGE_CURVE('',#171,#171,#149,.T.);
#204=EDGE_CURVE('',#171,#172,#101,.T.);
#205=EDGE_CURVE('',#172,#172,#150,.T.);
#206=EDGE_CURVE('',#173,#173,#151,.T.);
#207=EDGE_CURVE('',#173,#174,#102,.T.);
#208=EDGE_CURVE('',#174,#174,#152,.T.);
#209=EDGE_CURVE('',#175,#175,#153,.T.);
#210=EDGE_CURVE('',#175,#176,#103,.T.);
#211=EDGE_CURVE('',#176,#176,#154,.T.);
#212=EDGE_CURVE('',#177,#177,#155,.T.);
#213=EDGE_CURVE('',#177,#178,#104,.T.);
#214=EDGE_CURVE('',#178,#178,#156,.T.);
#215=EDGE_CURVE('',#179,#179,#157,.T.);
#216=EDGE_CURVE('',#179,#180,#105,.T.);
#217=EDGE_CURVE('',#180,#180,#158,.T.);
#218=EDGE_CURVE('',#181,#181,#159,.T.);
#219=EDGE_CURVE('',#181,#182,#106,.T.);
#220=EDGE_CURVE('',#182,#182,#160,.T.);
#221=EDGE_CURVE('',#183,#183,#161,.T.);
#222=EDGE_CURVE('',#183,#184,#107,.T.);
#223=EDGE_CURVE('',#184,#184,#162,.T.);
#224=EDGE_CURVE('',#185,#185,#163,.T.);
#225=EDGE_CURVE('',#185,#186,#108,.T.);
#226=EDGE_CURVE('',#186,#186,#164,.T.);
#227=EDGE_CURVE('',#187,#187,#165,.T.);
#228=EDGE_CURVE('',#187,#188,#109,.T.);
#229=EDGE_CURVE('',#188,#188,#166,.T.);
#230=EDGE_CURVE('',#189,#190,#110,.T.);
#231=EDGE_CURVE('',#190,#191,#111,.T.);
#232=EDGE_CURVE('',#192,#191,#112,.T.);
#233=EDGE_CURVE('',#189,#192,#113,.T.);
#234=EDGE_CURVE('',#193,#189,#114,.T.);
#235=EDGE_CURVE('',#194,#192,#115,.T.);
#236=EDGE_CURVE('',#193,#194,#116,.T.);
#237=EDGE_CURVE('',#195,#193,#117,.T.);
#238=EDGE_CURVE('',#196,#194,#118,.T.);
#239=EDGE_CURVE('',#195,#196,#119,.T.);
#240=EDGE_CURVE('',#190,#195,#120,.T.);
#241=EDGE_CURVE('',#191,#196,#121,.T.);
#242=ORIENTED_EDGE('',*,*,#197,.F.);
#243=ORIENTED_EDGE('',*,*,#198,.T.);
#244=ORIENTED_EDGE('',*,*,#199,.F.);
#245=ORIENTED_EDGE('',*,*,#198,.F.);
#246=ORIENTED_EDGE('',*,*,#200,.F.);
#247=ORIENTED_EDGE('',*,*,#201,.T.);
#248=ORIENTED_EDGE('',*,*,#202,.F.);
#249=ORIENTED_EDGE('',*,*,#201,.F.);
#250=ORIENTED_EDGE('',*,*,#203,.F.);
#251=ORIENTED_EDGE('',*,*,#204,.T.);
#252=ORIENTED_EDGE('',*,*,#205,.F.);
#253=ORIENTED_EDGE('',*,*,#204,.F.);
#254=ORIENTED_EDGE('',*,*,#206,.F.);
#255=ORIENTED_EDGE('',*,*,#207,.T.);
#256=ORIENTED_EDGE('',*,*,#208,.F.);
#257=ORIENTED_EDGE('',*,*,#207,.F.);
#258=ORIENTED_EDGE('',*,*,#209,.F.);
#259=ORIENTED_EDGE('',*,*,#210,.T.);
#260=ORIENTED_EDGE('',*,*,#211,.F.);
#261=ORIENTED_EDGE('',*,*,#210,.F.);
#262=ORIENTED_EDGE('',*,*,#212,.F.);
#263=ORIENTED_EDGE('',*,*,#213,.T.);
#264=ORIENTED_EDGE('',*,*,#214,.F.);
#265=ORIENTED_EDGE('',*,*,#213,.F.);
#266=ORIENTED_EDGE('',*,*,#215,.F.);
#267=ORIENTED_EDGE('',*,*,#216,.T.);
#268=ORIENTED_EDGE('',*,*,#217,.F.);
#269=ORIENTED_EDGE('',*,*,#216,.F.);
#270=ORIENTED_EDGE('',*,*,#218,.F.);
#271=ORIENTED_EDGE('',*,*,#219,.T.);
#272=ORIENTED_EDGE('',*,*,#220,.F.);
#273=ORIENTED_EDGE('',*,*,#219,.F.);
#274=ORIENTED_EDGE('',*,*,#221,.F.);
#275=ORIENTED_EDGE('',*,*,#222,.T.);
#276=ORIENTED_EDGE('',*,*,#223,.F.);
#277=ORIENTED_EDGE('',*,*,#222,.F.);
#278=ORIENTED_EDGE('',*,*,#224,.F.);
#279=ORIENTED_EDGE('',*,*,#225,.T.);
#280=ORIENTED_EDGE('',*,*,#226,.F.);
#281=ORIENTED_EDGE('',*,*,#225,.F.);
#282=ORIENTED_EDGE('',*,*,#227,.F.);
#283=ORIENTED_EDGE('',*,*,#228,.T.);
#284=ORIENTED_EDGE('',*,*,#229,.F.);
#285=ORIENTED_EDGE('',*,*,#228,.F.);
#286=ORIENTED_EDGE('',*,*,#230,.T.);
#287=ORIENTED_EDGE('',*,*,#231,.T.);
#288=ORIENTED_EDGE('',*,*,#232,.F.);
#289=ORIENTED_EDGE('',*,*,#233,.F.);
#290=ORIENTED_EDGE('',*,*,#234,.T.);
#291=ORIENTED_EDGE('',*,*,#233,.T.);
#292=ORIENTED_EDGE('',*,*,#235,.F.);
#293=ORIENTED_EDGE('',*,*,#236,.F.);
#294=ORIENTED_EDGE('',*,*,#237,.T.);
#295=ORIENTED_EDGE('',*,*,#236,.T.);
#296=ORIENTED_EDGE('',*,*,#238,.F.);
#297=ORIENTED_EDGE('',*,*,#239,.F.);
#298=ORIENTED_EDGE('',*,*,#240,.T.);
#299=ORIENTED_EDGE('',*,*,#239,.T.);
#300=ORIENTED_EDGE('',*,*,#241,.F.);
#301=ORIENTED_EDGE('',*,*,#231,.F.);
#302=ORIENTED_EDGE('',*,*,#241,.T.);
#303=ORIENTED_EDGE('',*,*,#238,.T.);
#304=ORIENTED_EDGE('',*,*,#235,.T.);
#305=ORIENTED_EDGE('',*,*,#232,.T.);
#306=ORIENTED_EDGE('',*,*,#199,.T.);
#307=ORIENTED_EDGE('',*,*,#202,.T.);
#308=ORIENTED_EDGE('',*,*,#205,.T.);
#309=ORIENTED_EDGE('',*,*,#208,.T.);
#310=ORIENTED_EDGE('',*,*,#211,.T.);
#311=ORIENTED_EDGE('',*,*,#214,.T.);
#312=ORIENTED_EDGE('',*,*,#217,.T.);
#313=ORIENTED_EDGE('',*,*,#220,.T.);
#314=ORIENTED_EDGE('',*,*,#223,.T.);
#315=ORIENTED_EDGE('',*,*,#226,.T.);
#316=ORIENTED_EDGE('',*,*,#229,.T.);
#317=ORIENTED_EDGE('',*,*,#240,.F.);
#318=ORIENTED_EDGE('',*,*,#230,.F.);
#319=ORIENTED_EDGE('',*,*,#234,.F.);
#320=ORIENTED_EDGE('',*,*,#237,.F.);
#321=ORIENTED_EDGE('',*,*,#197,.T.);
#322=ORIENTED_EDGE('',*,*,#200,.T.);
#323=ORIENTED_EDGE('',*,*,#203,.T.);
#324=ORIENTED_EDGE('',*,*,#206,.T.);
#325=ORIENTED_EDGE('',*,*,#209,.T.);
#326=ORIENTED_EDGE('',*,*,#212,.T.);
#327=ORIENTED_EDGE('',*,*,#215,.T.);
#328=ORIENTED_EDGE('',*,*,#218,.T.);
#329=ORIENTED_EDGE('',*,*,#221,.T.);
#330=ORIENTED_EDGE('',*,*,#224,.T.);
#331=ORIENTED_EDGE('',*,*,#227,.T.);
#332=CYLINDRICAL_SURFACE('',#383,2.1);
#333=CYLINDRICAL_SURFACE('',#386,2.1);
#334=CYLINDRICAL_SURFACE('',#389,2.1);
#335=CYLINDRICAL_SURFACE('',#392,2.1);
#336=CYLINDRICAL_SURFACE('',#395,1.6);
#337=CYLINDRICAL_SURFACE('',#398,1.6);
#338=CYLINDRICAL_SURFACE('',#401,1.6);
#339=CYLINDRICAL_SURFACE('',#404,1.6);
#340=CYLINDRICAL_SURFACE('',#407,1.6);
#341=CYLINDRICAL_SURFACE('',#410,1.6);
#342=CYLINDRICAL_SURFACE('',#413,8.05);
#343=ADVANCED_FACE('',(#43),#332,.F.);
#344=ADVANCED_FACE('',(#44),#333,.F.);
#345=ADVANCED_FACE('',(#45),#334,.F.);
#346=ADVANCED_FACE('',(#46),#335,.F.);
#347=ADVANCED_FACE('',(#47),#336,.F.);
#348=ADVANCED_FACE('',(#48),#337,.F.);
#349=ADVANCED_FACE('',(#49),#338,.F.);
#350=ADVANCED_FACE('',(#50),#339,.F.);
#351=ADVANCED_FACE('',(#51),#340,.F.);
#352=ADVANCED_FACE('',(#52),#341,.F.);
#353=ADVANCED_FACE('',(#53),#342,.F.);
#354=ADVANCED_FACE('',(#54),#37,.T.);
#355=ADVANCED_FACE('',(#55),#38,.T.);
#356=ADVANCED_FACE('',(#56),#39,.T.);
#357=ADVANCED_FACE('',(#57),#40,.T.);
#358=ADVANCED_FACE('',(#58,#15,#16,#17,#18,#19,#20,#21,#22,#23,#24,#25),
#41,.T.);
#359=ADVANCED_FACE('',(#59,#26,#27,#28,#29,#30,#31,#32,#33,#34,#35,#36),
#42,.F.);
#360=CLOSED_SHELL('',(#343,#344,#345,#346,#347,#348,#349,#350,#351,#352,
#353,#354,#355,#356,#357,#358,#359));
#361=DERIVED_UNIT_ELEMENT(#364,1.);
#362=DERIVED_UNIT_ELEMENT(#623,-3.);
#363=DIMENSIONAL_EXPONENTS(0.,1.,0.,0.,0.,0.,0.);
#364=(
CONVERSION_BASED_UNIT('gram',#366)
MASS_UNIT()
NAMED_UNIT(#363)
);
#365=(
MASS_UNIT()
NAMED_UNIT(*)
SI_UNIT(.KILO.,.GRAM.)
);
#366=MASS_MEASURE_WITH_UNIT(MASS_MEASURE(0.001),#365);
#367=DERIVED_UNIT((#361,#362));
#368=MEASURE_REPRESENTATION_ITEM('density measure',
POSITIVE_RATIO_MEASURE(2.7),#367);
#369=PROPERTY_DEFINITION_REPRESENTATION(#374,#371);
#370=PROPERTY_DEFINITION_REPRESENTATION(#375,#372);
#371=REPRESENTATION('material name',(#373),#620);
#372=REPRESENTATION('density',(#368),#620);
#373=DESCRIPTIVE_REPRESENTATION_ITEM('\X2\30A230EB30DF30CB30A630E0\X0\ 
6061','\X2\30A230EB30DF30CB30A630E0\X0\ 6061');
#374=PROPERTY_DEFINITION('material property','material name',#630);
#375=PROPERTY_DEFINITION('material property','density of part',#630);
#376=DATE_TIME_ROLE('creation_date');
#377=APPLIED_DATE_AND_TIME_ASSIGNMENT(#378,#376,(#630));
#378=DATE_AND_TIME(#379,#380);
#379=CALENDAR_DATE(2026,8,10);
#380=LOCAL_TIME(0,0,0.,#381);
#381=COORDINATED_UNIVERSAL_TIME_OFFSET(0,0,.BEHIND.);
#382=AXIS2_PLACEMENT_3D('',#525,#422,#423);
#383=AXIS2_PLACEMENT_3D('',#526,#424,#425);
#384=AXIS2_PLACEMENT_3D('',#528,#426,#427);
#385=AXIS2_PLACEMENT_3D('',#531,#429,#430);
#386=AXIS2_PLACEMENT_3D('',#532,#431,#432);
#387=AXIS2_PLACEMENT_3D('',#534,#433,#434);
#388=AXIS2_PLACEMENT_3D('',#537,#436,#437);
#389=AXIS2_PLACEMENT_3D('',#538,#438,#439);
#390=AXIS2_PLACEMENT_3D('',#540,#440,#441);
#391=AXIS2_PLACEMENT_3D('',#543,#443,#444);
#392=AXIS2_PLACEMENT_3D('',#544,#445,#446);
#393=AXIS2_PLACEMENT_3D('',#546,#447,#448);
#394=AXIS2_PLACEMENT_3D('',#549,#450,#451);
#395=AXIS2_PLACEMENT_3D('',#550,#452,#453);
#396=AXIS2_PLACEMENT_3D('',#552,#454,#455);
#397=AXIS2_PLACEMENT_3D('',#555,#457,#458);
#398=AXIS2_PLACEMENT_3D('',#556,#459,#460);
#399=AXIS2_PLACEMENT_3D('',#558,#461,#462);
#400=AXIS2_PLACEMENT_3D('',#561,#464,#465);
#401=AXIS2_PLACEMENT_3D('',#562,#466,#467);
#402=AXIS2_PLACEMENT_3D('',#564,#468,#469);
#403=AXIS2_PLACEMENT_3D('',#567,#471,#472);
#404=AXIS2_PLACEMENT_3D('',#568,#473,#474);
#405=AXIS2_PLACEMENT_3D('',#570,#475,#476);
#406=AXIS2_PLACEMENT_3D('',#573,#478,#479);
#407=AXIS2_PLACEMENT_3D('',#574,#480,#481);
#408=AXIS2_PLACEMENT_3D('',#576,#482,#483);
#409=AXIS2_PLACEMENT_3D('',#579,#485,#486);
#410=AXIS2_PLACEMENT_3D('',#580,#487,#488);
#411=AXIS2_PLACEMENT_3D('',#582,#489,#490);
#412=AXIS2_PLACEMENT_3D('',#585,#492,#493);
#413=AXIS2_PLACEMENT_3D('',#586,#494,#495);
#414=AXIS2_PLACEMENT_3D('',#588,#496,#497);
#415=AXIS2_PLACEMENT_3D('',#591,#499,#500);
#416=AXIS2_PLACEMENT_3D('',#592,#501,#502);
#417=AXIS2_PLACEMENT_3D('',#601,#507,#508);
#418=AXIS2_PLACEMENT_3D('',#607,#512,#513);
#419=AXIS2_PLACEMENT_3D('',#613,#517,#518);
#420=AXIS2_PLACEMENT_3D('',#616,#521,#522);
#421=AXIS2_PLACEMENT_3D('',#617,#523,#524);
#422=DIRECTION('axis',(0.,0.,1.));
#423=DIRECTION('refdir',(1.,0.,0.));
#424=DIRECTION('center_axis',(0.,0.,1.));
#425=DIRECTION('ref_axis',(-1.,0.,0.));
#426=DIRECTION('center_axis',(0.,0.,1.));
#427=DIRECTION('ref_axis',(-1.,0.,0.));
#428=DIRECTION('',(0.,0.,1.));
#429=DIRECTION('center_axis',(0.,0.,-1.));
#430=DIRECTION('ref_axis',(-1.,0.,0.));
#431=DIRECTION('center_axis',(0.,0.,1.));
#432=DIRECTION('ref_axis',(-1.,0.,0.));
#433=DIRECTION('center_axis',(0.,0.,1.));
#434=DIRECTION('ref_axis',(-1.,0.,0.));
#435=DIRECTION('',(0.,0.,1.));
#436=DIRECTION('center_axis',(0.,0.,-1.));
#437=DIRECTION('ref_axis',(-1.,0.,0.));
#438=DIRECTION('center_axis',(0.,0.,1.));
#439=DIRECTION('ref_axis',(-1.,0.,0.));
#440=DIRECTION('center_axis',(0.,0.,1.));
#441=DIRECTION('ref_axis',(-1.,0.,0.));
#442=DIRECTION('',(0.,0.,1.));
#443=DIRECTION('center_axis',(0.,0.,-1.));
#444=DIRECTION('ref_axis',(-1.,0.,0.));
#445=DIRECTION('center_axis',(0.,0.,1.));
#446=DIRECTION('ref_axis',(-1.,0.,0.));
#447=DIRECTION('center_axis',(0.,0.,1.));
#448=DIRECTION('ref_axis',(-1.,0.,0.));
#449=DIRECTION('',(0.,0.,1.));
#450=DIRECTION('center_axis',(0.,0.,-1.));
#451=DIRECTION('ref_axis',(-1.,0.,0.));
#452=DIRECTION('center_axis',(0.,0.,1.));
#453=DIRECTION('ref_axis',(-1.,0.,0.));
#454=DIRECTION('center_axis',(0.,0.,1.));
#455=DIRECTION('ref_axis',(-1.,0.,0.));
#456=DIRECTION('',(0.,0.,1.));
#457=DIRECTION('center_axis',(0.,0.,-1.));
#458=DIRECTION('ref_axis',(-1.,0.,0.));
#459=DIRECTION('center_axis',(0.,0.,1.));
#460=DIRECTION('ref_axis',(-1.,0.,0.));
#461=DIRECTION('center_axis',(0.,0.,1.));
#462=DIRECTION('ref_axis',(-1.,0.,0.));
#463=DIRECTION('',(0.,0.,1.));
#464=DIRECTION('center_axis',(0.,0.,-1.));
#465=DIRECTION('ref_axis',(-1.,0.,0.));
#466=DIRECTION('center_axis',(0.,0.,1.));
#467=DIRECTION('ref_axis',(-1.,0.,0.));
#468=DIRECTION('center_axis',(0.,0.,1.));
#469=DIRECTION('ref_axis',(-1.,0.,0.));
#470=DIRECTION('',(0.,0.,1.));
#471=DIRECTION('center_axis',(0.,0.,-1.));
#472=DIRECTION('ref_axis',(-1.,0.,0.));
#473=DIRECTION('center_axis',(0.,0.,1.));
#474=DIRECTION('ref_axis',(-1.,0.,0.));
#475=DIRECTION('center_axis',(0.,0.,1.));
#476=DIRECTION('ref_axis',(-1.,0.,0.));
#477=DIRECTION('',(0.,0.,1.));
#478=DIRECTION('center_axis',(0.,0.,-1.));
#479=DIRECTION('ref_axis',(-1.,0.,0.));
#480=DIRECTION('center_axis',(0.,0.,1.));
#481=DIRECTION('ref_axis',(-1.,0.,0.));
#482=DIRECTION('center_axis',(0.,0.,1.));
#483=DIRECTION('ref_axis',(-1.,0.,0.));
#484=DIRECTION('',(0.,0.,1.));
#485=DIRECTION('center_axis',(0.,0.,-1.));
#486=DIRECTION('ref_axis',(-1.,0.,0.));
#487=DIRECTION('center_axis',(0.,0.,1.));
#488=DIRECTION('ref_axis',(-1.,0.,0.));
#489=DIRECTION('center_axis',(0.,0.,1.));
#490=DIRECTION('ref_axis',(-1.,0.,0.));
#491=DIRECTION('',(0.,0.,1.));
#492=DIRECTION('center_axis',(0.,0.,-1.));
#493=DIRECTION('ref_axis',(-1.,0.,0.));
#494=DIRECTION('center_axis',(0.,0.,1.));
#495=DIRECTION('ref_axis',(-1.,0.,0.));
#496=DIRECTION('center_axis',(0.,0.,1.));
#497=DIRECTION('ref_axis',(-1.,0.,0.));
#498=DIRECTION('',(0.,0.,1.));
#499=DIRECTION('center_axis',(0.,0.,-1.));
#500=DIRECTION('ref_axis',(-1.,0.,0.));
#501=DIRECTION('center_axis',(-1.,0.,0.));
#502=DIRECTION('ref_axis',(0.,-1.,0.));
#503=DIRECTION('',(0.,-1.,0.));
#504=DIRECTION('',(0.,0.,1.));
#505=DIRECTION('',(0.,-1.,0.));
#506=DIRECTION('',(0.,0.,1.));
#507=DIRECTION('center_axis',(0.,1.,0.));
#508=DIRECTION('ref_axis',(-1.,0.,0.));
#509=DIRECTION('',(-1.,0.,0.));
#510=DIRECTION('',(-1.,0.,0.));
#511=DIRECTION('',(0.,0.,1.));
#512=DIRECTION('center_axis',(1.,0.,0.));
#513=DIRECTION('ref_axis',(0.,1.,0.));
#514=DIRECTION('',(0.,1.,0.));
#515=DIRECTION('',(0.,1.,0.));
#516=DIRECTION('',(0.,0.,1.));
#517=DIRECTION('center_axis',(0.,-1.,0.));
#518=DIRECTION('ref_axis',(1.,0.,0.));
#519=DIRECTION('',(1.,0.,0.));
#520=DIRECTION('',(1.,0.,0.));
#521=DIRECTION('center_axis',(0.,0.,1.));
#522=DIRECTION('ref_axis',(1.,0.,0.));
#523=DIRECTION('center_axis',(0.,0.,1.));
#524=DIRECTION('ref_axis',(1.,0.,0.));
#525=CARTESIAN_POINT('',(0.,0.,0.));
#526=CARTESIAN_POINT('Origin',(22.,22.,-24.));
#527=CARTESIAN_POINT('',(24.1,22.,-24.));
#528=CARTESIAN_POINT('Origin',(22.,22.,-24.));
#529=CARTESIAN_POINT('',(24.1,22.,-21.));
#530=CARTESIAN_POINT('',(24.1,22.,-24.));
#531=CARTESIAN_POINT('Origin',(22.,22.,-21.));
#532=CARTESIAN_POINT('Origin',(22.,-22.,-24.));
#533=CARTESIAN_POINT('',(24.1,-22.,-24.));
#534=CARTESIAN_POINT('Origin',(22.,-22.,-24.));
#535=CARTESIAN_POINT('',(24.1,-22.,-21.));
#536=CARTESIAN_POINT('',(24.1,-22.,-24.));
#537=CARTESIAN_POINT('Origin',(22.,-22.,-21.));
#538=CARTESIAN_POINT('Origin',(-22.,22.,-24.));
#539=CARTESIAN_POINT('',(-19.9,22.,-24.));
#540=CARTESIAN_POINT('Origin',(-22.,22.,-24.));
#541=CARTESIAN_POINT('',(-19.9,22.,-21.));
#542=CARTESIAN_POINT('',(-19.9,22.,-24.));
#543=CARTESIAN_POINT('Origin',(-22.,22.,-21.));
#544=CARTESIAN_POINT('Origin',(-22.,-22.,-24.));
#545=CARTESIAN_POINT('',(-19.9,-22.,-24.));
#546=CARTESIAN_POINT('Origin',(-22.,-22.,-24.));
#547=CARTESIAN_POINT('',(-19.9,-22.,-21.));
#548=CARTESIAN_POINT('',(-19.9,-22.,-24.));
#549=CARTESIAN_POINT('Origin',(-22.,-22.,-21.));
#550=CARTESIAN_POINT('Origin',(9.52627944162883,5.49999999999999,-24.));
#551=CARTESIAN_POINT('',(11.1262794416288,5.49999999999999,-24.));
#552=CARTESIAN_POINT('Origin',(9.52627944162883,5.49999999999999,-24.));
#553=CARTESIAN_POINT('',(11.1262794416288,5.49999999999999,-21.));
#554=CARTESIAN_POINT('',(11.1262794416288,5.49999999999999,-24.));
#555=CARTESIAN_POINT('Origin',(9.52627944162883,5.49999999999999,-21.));
#556=CARTESIAN_POINT('Origin',(9.52627944162882,-5.50000000000001,-24.));
#557=CARTESIAN_POINT('',(11.1262794416288,-5.50000000000001,-24.));
#558=CARTESIAN_POINT('Origin',(9.52627944162882,-5.50000000000001,-24.));
#559=CARTESIAN_POINT('',(11.1262794416288,-5.50000000000001,-21.));
#560=CARTESIAN_POINT('',(11.1262794416288,-5.50000000000001,-24.));
#561=CARTESIAN_POINT('Origin',(9.52627944162882,-5.50000000000001,-21.));
#562=CARTESIAN_POINT('Origin',(-2.02066721859313E-15,-11.,-24.));
#563=CARTESIAN_POINT('',(1.6,-11.,-24.));
#564=CARTESIAN_POINT('Origin',(-2.02066721859313E-15,-11.,-24.));
#565=CARTESIAN_POINT('',(1.6,-11.,-21.));
#566=CARTESIAN_POINT('',(1.6,-11.,-24.));
#567=CARTESIAN_POINT('Origin',(-2.02066721859313E-15,-11.,-21.));
#568=CARTESIAN_POINT('Origin',(-9.52627944162882,-5.5,-24.));
#569=CARTESIAN_POINT('',(-7.92627944162882,-5.5,-24.));
#570=CARTESIAN_POINT('Origin',(-9.52627944162882,-5.5,-24.));
#571=CARTESIAN_POINT('',(-7.92627944162882,-5.5,-21.));
#572=CARTESIAN_POINT('',(-7.92627944162882,-5.5,-24.));
#573=CARTESIAN_POINT('Origin',(-9.52627944162882,-5.5,-21.));
#574=CARTESIAN_POINT('Origin',(-9.52627944162883,5.5,-24.));
#575=CARTESIAN_POINT('',(-7.92627944162883,5.5,-24.));
#576=CARTESIAN_POINT('Origin',(-9.52627944162883,5.5,-24.));
#577=CARTESIAN_POINT('',(-7.92627944162883,5.5,-21.));
#578=CARTESIAN_POINT('',(-7.92627944162883,5.5,-24.));
#579=CARTESIAN_POINT('Origin',(-9.52627944162883,5.5,-21.));
#580=CARTESIAN_POINT('Origin',(6.73555739531044E-16,11.,-24.));
#581=CARTESIAN_POINT('',(1.6,11.,-24.));
#582=CARTESIAN_POINT('Origin',(6.73555739531044E-16,11.,-24.));
#583=CARTESIAN_POINT('',(1.6,11.,-21.));
#584=CARTESIAN_POINT('',(1.6,11.,-24.));
#585=CARTESIAN_POINT('Origin',(6.73555739531044E-16,11.,-21.));
#586=CARTESIAN_POINT('Origin',(0.,0.,-24.));
#587=CARTESIAN_POINT('',(8.05,9.85840673313619E-16,-24.));
#588=CARTESIAN_POINT('Origin',(0.,0.,-24.));
#589=CARTESIAN_POINT('',(8.05,9.85840673313619E-16,-21.));
#590=CARTESIAN_POINT('',(8.05,9.85840673313619E-16,-24.));
#591=CARTESIAN_POINT('Origin',(0.,0.,-21.));
#592=CARTESIAN_POINT('Origin',(-26.,26.,-24.));
#593=CARTESIAN_POINT('',(-26.,26.,-24.));
#594=CARTESIAN_POINT('',(-26.,-26.,-24.));
#595=CARTESIAN_POINT('',(-26.,26.,-24.));
#596=CARTESIAN_POINT('',(-26.,-26.,-21.));
#597=CARTESIAN_POINT('',(-26.,-26.,-24.));
#598=CARTESIAN_POINT('',(-26.,26.,-21.));
#599=CARTESIAN_POINT('',(-26.,26.,-21.));
#600=CARTESIAN_POINT('',(-26.,26.,-24.));
#601=CARTESIAN_POINT('Origin',(26.,26.,-24.));
#602=CARTESIAN_POINT('',(26.,26.,-24.));
#603=CARTESIAN_POINT('',(26.,26.,-24.));
#604=CARTESIAN_POINT('',(26.,26.,-21.));
#605=CARTESIAN_POINT('',(26.,26.,-21.));
#606=CARTESIAN_POINT('',(26.,26.,-24.));
#607=CARTESIAN_POINT('Origin',(26.,-26.,-24.));
#608=CARTESIAN_POINT('',(26.,-26.,-24.));
#609=CARTESIAN_POINT('',(26.,-26.,-24.));
#610=CARTESIAN_POINT('',(26.,-26.,-21.));
#611=CARTESIAN_POINT('',(26.,-26.,-21.));
#612=CARTESIAN_POINT('',(26.,-26.,-24.));
#613=CARTESIAN_POINT('Origin',(-26.,-26.,-24.));
#614=CARTESIAN_POINT('',(-26.,-26.,-24.));
#615=CARTESIAN_POINT('',(-26.,-26.,-21.));
#616=CARTESIAN_POINT('Origin',(0.,0.,-21.));
#617=CARTESIAN_POINT('Origin',(0.,0.,-24.));
#618=UNCERTAINTY_MEASURE_WITH_UNIT(LENGTH_MEASURE(0.01),#622,
'DISTANCE_ACCURACY_VALUE',
'Maximum model space distance between geometric entities at asserted c
onnectivities');
#619=UNCERTAINTY_MEASURE_WITH_UNIT(LENGTH_MEASURE(0.01),#622,
'DISTANCE_ACCURACY_VALUE',
'Maximum model space distance between geometric entities at asserted c
onnectivities');
#620=(
GEOMETRIC_REPRESENTATION_CONTEXT(3)
GLOBAL_UNCERTAINTY_ASSIGNED_CONTEXT((#618))
GLOBAL_UNIT_ASSIGNED_CONTEXT((#622,#624,#625))
REPRESENTATION_CONTEXT('','3D')
);
#621=(
GEOMETRIC_REPRESENTATION_CONTEXT(3)
GLOBAL_UNCERTAINTY_ASSIGNED_CONTEXT((#619))
GLOBAL_UNIT_ASSIGNED_CONTEXT((#622,#624,#625))
REPRESENTATION_CONTEXT('','3D')
);
#622=(
LENGTH_UNIT()
NAMED_UNIT(*)
SI_UNIT(.MILLI.,.METRE.)
);
#623=(
LENGTH_UNIT()
NAMED_UNIT(*)
SI_UNIT(.CENTI.,.METRE.)
);
#624=(
NAMED_UNIT(*)
PLANE_ANGLE_UNIT()
SI_UNIT($,.RADIAN.)
);
#625=(
NAMED_UNIT(*)
SI_UNIT($,.STERADIAN.)
SOLID_ANGLE_UNIT()
);
#626=SHAPE_DEFINITION_REPRESENTATION(#627,#628);
#627=PRODUCT_DEFINITION_SHAPE('',$,#630);
#628=SHAPE_REPRESENTATION('',(#382),#620);
#629=PRODUCT_DEFINITION_CONTEXT('part definition',#634,'design');
#630=PRODUCT_DEFINITION('06_Motor_Mount','06_Motor_Mount',#631,#629);
#631=PRODUCT_DEFINITION_FORMATION('',$,#636);
#632=PRODUCT_RELATED_PRODUCT_CATEGORY('06_Motor_Mount','06_Motor_Mount',
(#636));
#633=APPLICATION_PROTOCOL_DEFINITION('international standard',
'automotive_design',2009,#634);
#634=APPLICATION_CONTEXT(
'Core Data for Automotive Mechanical Design Process');
#635=PRODUCT_CONTEXT('part definition',#634,'mechanical');
#636=PRODUCT('06_Motor_Mount','06_Motor_Mount',$,(#635));
#637=PRESENTATION_STYLE_ASSIGNMENT((#638));
#638=SURFACE_STYLE_USAGE(.BOTH.,#641);
#639=SURFACE_STYLE_RENDERING_WITH_PROPERTIES($,#645,(#640));
#640=SURFACE_STYLE_TRANSPARENT(0.);
#641=SURFACE_SIDE_STYLE('',(#642,#639));
#642=SURFACE_STYLE_FILL_AREA(#643);
#643=FILL_AREA_STYLE('',(#644));
#644=FILL_AREA_STYLE_COLOUR('',#645);
#645=COLOUR_RGB('',0.996078431372549,0.996078431372549,1.);
ENDSEC;
END-ISO-10303-21;
