ISO-10303-21;
HEADER;
/* Generated by software containing ST-Developer
 * from STEP Tools, Inc. (www.steptools.com) 
 */

FILE_DESCRIPTION(
/* description */ (''),
/* implementation_level */ '2;1');

FILE_NAME(
/* name */ '09_Brake_Actuator_Bracket.step',
/* time_stamp */ '2026-10-08T17:08:31+09:00',
/* author */ ('Reaction Wheel Pendulum project'),
/* organization */ (''),
/* preprocessor_version */ 'ST-DEVELOPER v20.1',
/* originating_system */ 'Autodesk Inventor 2026',
/* authorisation */ '');

FILE_SCHEMA (('AUTOMOTIVE_DESIGN { 1 0 10303 214 3 1 1 }'));
ENDSEC;

DATA;
#10=MECHANICAL_DESIGN_GEOMETRIC_PRESENTATION_REPRESENTATION('',(#13),#856);
#11=SHAPE_REPRESENTATION_RELATIONSHIP('SRR','None',#863,#12);
#12=ADVANCED_BREP_SHAPE_REPRESENTATION('',(#14),#855);
#13=STYLED_ITEM('',(#872),#14);
#14=MANIFOLD_SOLID_BREP('\X2\30BD30EA30C330C9\X0\1',#511);
#15=FACE_BOUND('',#90,.T.);
#16=FACE_BOUND('',#91,.T.);
#17=FACE_BOUND('',#93,.T.);
#18=FACE_BOUND('',#94,.T.);
#19=FACE_BOUND('',#96,.T.);
#20=FACE_BOUND('',#97,.T.);
#21=FACE_BOUND('',#100,.T.);
#22=FACE_BOUND('',#103,.T.);
#23=FACE_BOUND('',#104,.T.);
#24=FACE_BOUND('',#107,.T.);
#25=FACE_BOUND('',#108,.T.);
#26=FACE_BOUND('',#113,.T.);
#27=FACE_BOUND('',#114,.T.);
#28=FACE_BOUND('',#116,.T.);
#29=FACE_BOUND('',#117,.T.);
#30=PLANE('',#537);
#31=PLANE('',#541);
#32=PLANE('',#560);
#33=PLANE('',#561);
#34=PLANE('',#562);
#35=PLANE('',#563);
#36=PLANE('',#564);
#37=PLANE('',#565);
#38=PLANE('',#566);
#39=PLANE('',#567);
#40=PLANE('',#568);
#41=PLANE('',#569);
#42=PLANE('',#570);
#43=PLANE('',#571);
#44=PLANE('',#572);
#45=PLANE('',#573);
#46=PLANE('',#574);
#47=PLANE('',#575);
#48=PLANE('',#576);
#49=FACE_OUTER_BOUND('',#76,.T.);
#50=FACE_OUTER_BOUND('',#77,.T.);
#51=FACE_OUTER_BOUND('',#78,.T.);
#52=FACE_OUTER_BOUND('',#79,.T.);
#53=FACE_OUTER_BOUND('',#80,.T.);
#54=FACE_OUTER_BOUND('',#81,.T.);
#55=FACE_OUTER_BOUND('',#82,.T.);
#56=FACE_OUTER_BOUND('',#83,.T.);
#57=FACE_OUTER_BOUND('',#84,.T.);
#58=FACE_OUTER_BOUND('',#85,.T.);
#59=FACE_OUTER_BOUND('',#86,.T.);
#60=FACE_OUTER_BOUND('',#87,.T.);
#61=FACE_OUTER_BOUND('',#88,.T.);
#62=FACE_OUTER_BOUND('',#89,.T.);
#63=FACE_OUTER_BOUND('',#92,.T.);
#64=FACE_OUTER_BOUND('',#95,.T.);
#65=FACE_OUTER_BOUND('',#98,.T.);
#66=FACE_OUTER_BOUND('',#99,.T.);
#67=FACE_OUTER_BOUND('',#101,.T.);
#68=FACE_OUTER_BOUND('',#102,.T.);
#69=FACE_OUTER_BOUND('',#105,.T.);
#70=FACE_OUTER_BOUND('',#106,.T.);
#71=FACE_OUTER_BOUND('',#109,.T.);
#72=FACE_OUTER_BOUND('',#110,.T.);
#73=FACE_OUTER_BOUND('',#111,.T.);
#74=FACE_OUTER_BOUND('',#112,.T.);
#75=FACE_OUTER_BOUND('',#115,.T.);
#76=EDGE_LOOP('',(#344,#345,#346,#347));
#77=EDGE_LOOP('',(#348));
#78=EDGE_LOOP('',(#349,#350,#351,#352));
#79=EDGE_LOOP('',(#353));
#80=EDGE_LOOP('',(#354,#355,#356,#357));
#81=EDGE_LOOP('',(#358,#359,#360,#361));
#82=EDGE_LOOP('',(#362,#363,#364,#365));
#83=EDGE_LOOP('',(#366,#367,#368,#369));
#84=EDGE_LOOP('',(#370,#371,#372,#373));
#85=EDGE_LOOP('',(#374,#375,#376,#377));
#86=EDGE_LOOP('',(#378,#379,#380,#381));
#87=EDGE_LOOP('',(#382,#383,#384,#385));
#88=EDGE_LOOP('',(#386,#387,#388,#389));
#89=EDGE_LOOP('',(#390,#391,#392,#393));
#90=EDGE_LOOP('',(#394));
#91=EDGE_LOOP('',(#395));
#92=EDGE_LOOP('',(#396,#397,#398,#399));
#93=EDGE_LOOP('',(#400));
#94=EDGE_LOOP('',(#401));
#95=EDGE_LOOP('',(#402,#403,#404,#405));
#96=EDGE_LOOP('',(#406));
#97=EDGE_LOOP('',(#407));
#98=EDGE_LOOP('',(#408,#409,#410,#411));
#99=EDGE_LOOP('',(#412,#413,#414,#415));
#100=EDGE_LOOP('',(#416,#417,#418,#419));
#101=EDGE_LOOP('',(#420,#421,#422,#423,#424,#425,#426,#427,#428,#429));
#102=EDGE_LOOP('',(#430,#431,#432,#433));
#103=EDGE_LOOP('',(#434));
#104=EDGE_LOOP('',(#435));
#105=EDGE_LOOP('',(#436,#437,#438,#439));
#106=EDGE_LOOP('',(#440,#441,#442,#443));
#107=EDGE_LOOP('',(#444));
#108=EDGE_LOOP('',(#445));
#109=EDGE_LOOP('',(#446,#447,#448,#449));
#110=EDGE_LOOP('',(#450,#451,#452,#453));
#111=EDGE_LOOP('',(#454,#455,#456,#457,#458,#459,#460,#461,#462,#463));
#112=EDGE_LOOP('',(#464,#465,#466,#467));
#113=EDGE_LOOP('',(#468));
#114=EDGE_LOOP('',(#469));
#115=EDGE_LOOP('',(#470,#471,#472,#473));
#116=EDGE_LOOP('',(#474));
#117=EDGE_LOOP('',(#475));
#118=LINE('',#720,#168);
#119=LINE('',#727,#169);
#120=LINE('',#734,#170);
#121=LINE('',#740,#171);
#122=LINE('',#746,#172);
#123=LINE('',#752,#173);
#124=LINE('',#758,#174);
#125=LINE('',#764,#175);
#126=LINE('',#769,#176);
#127=LINE('',#771,#177);
#128=LINE('',#773,#178);
#129=LINE('',#774,#179);
#130=LINE('',#777,#180);
#131=LINE('',#779,#181);
#132=LINE('',#780,#182);
#133=LINE('',#783,#183);
#134=LINE('',#785,#184);
#135=LINE('',#786,#185);
#136=LINE('',#788,#186);
#137=LINE('',#790,#187);
#138=LINE('',#794,#188);
#139=LINE('',#796,#189);
#140=LINE('',#798,#190);
#141=LINE('',#799,#191);
#142=LINE('',#802,#192);
#143=LINE('',#804,#193);
#144=LINE('',#805,#194);
#145=LINE('',#809,#195);
#146=LINE('',#811,#196);
#147=LINE('',#813,#197);
#148=LINE('',#814,#198);
#149=LINE('',#817,#199);
#150=LINE('',#819,#200);
#151=LINE('',#821,#201);
#152=LINE('',#823,#202);
#153=LINE('',#825,#203);
#154=LINE('',#826,#204);
#155=LINE('',#827,#205);
#156=LINE('',#830,#206);
#157=LINE('',#832,#207);
#158=LINE('',#833,#208);
#159=LINE('',#836,#209);
#160=LINE('',#837,#210);
#161=LINE('',#840,#211);
#162=LINE('',#841,#212);
#163=LINE('',#843,#213);
#164=LINE('',#846,#214);
#165=LINE('',#847,#215);
#166=LINE('',#849,#216);
#167=LINE('',#850,#217);
#168=VECTOR('',#583,1.25);
#169=VECTOR('',#592,1.25);
#170=VECTOR('',#601,1.5);
#171=VECTOR('',#608,1.5);
#172=VECTOR('',#615,1.5);
#173=VECTOR('',#622,1.5);
#174=VECTOR('',#629,2.10000000000001);
#175=VECTOR('',#636,2.1);
#176=VECTOR('',#641,10.);
#177=VECTOR('',#642,10.);
#178=VECTOR('',#643,10.);
#179=VECTOR('',#644,10.);
#180=VECTOR('',#647,10.);
#181=VECTOR('',#648,10.);
#182=VECTOR('',#649,10.);
#183=VECTOR('',#652,10.);
#184=VECTOR('',#653,10.);
#185=VECTOR('',#654,10.);
#186=VECTOR('',#657,10.);
#187=VECTOR('',#660,10.);
#188=VECTOR('',#663,10.);
#189=VECTOR('',#664,10.);
#190=VECTOR('',#665,10.);
#191=VECTOR('',#666,10.);
#192=VECTOR('',#669,10.);
#193=VECTOR('',#670,10.);
#194=VECTOR('',#671,10.);
#195=VECTOR('',#674,10.);
#196=VECTOR('',#675,10.);
#197=VECTOR('',#676,10.);
#198=VECTOR('',#677,10.);
#199=VECTOR('',#680,10.);
#200=VECTOR('',#681,10.);
#201=VECTOR('',#682,10.);
#202=VECTOR('',#683,10.);
#203=VECTOR('',#684,10.);
#204=VECTOR('',#685,10.);
#205=VECTOR('',#686,10.);
#206=VECTOR('',#689,10.);
#207=VECTOR('',#690,10.);
#208=VECTOR('',#691,10.);
#209=VECTOR('',#694,10.);
#210=VECTOR('',#695,10.);
#211=VECTOR('',#698,10.);
#212=VECTOR('',#699,10.);
#213=VECTOR('',#702,10.);
#214=VECTOR('',#705,10.);
#215=VECTOR('',#706,10.);
#216=VECTOR('',#709,10.);
#217=VECTOR('',#710,10.);
#218=CIRCLE('',#535,1.25);
#219=CIRCLE('',#536,1.25);
#220=CIRCLE('',#539,1.25);
#221=CIRCLE('',#540,1.25);
#222=CIRCLE('',#543,1.5);
#223=CIRCLE('',#544,1.5);
#224=CIRCLE('',#546,1.5);
#225=CIRCLE('',#547,1.5);
#226=CIRCLE('',#549,1.5);
#227=CIRCLE('',#550,1.5);
#228=CIRCLE('',#552,1.5);
#229=CIRCLE('',#553,1.5);
#230=CIRCLE('',#555,2.10000000000001);
#231=CIRCLE('',#556,2.10000000000001);
#232=CIRCLE('',#558,2.1);
#233=CIRCLE('',#559,2.1);
#234=VERTEX_POINT('',#717);
#235=VERTEX_POINT('',#719);
#236=VERTEX_POINT('',#724);
#237=VERTEX_POINT('',#726);
#238=VERTEX_POINT('',#731);
#239=VERTEX_POINT('',#733);
#240=VERTEX_POINT('',#737);
#241=VERTEX_POINT('',#739);
#242=VERTEX_POINT('',#743);
#243=VERTEX_POINT('',#745);
#244=VERTEX_POINT('',#749);
#245=VERTEX_POINT('',#751);
#246=VERTEX_POINT('',#755);
#247=VERTEX_POINT('',#757);
#248=VERTEX_POINT('',#761);
#249=VERTEX_POINT('',#763);
#250=VERTEX_POINT('',#767);
#251=VERTEX_POINT('',#768);
#252=VERTEX_POINT('',#770);
#253=VERTEX_POINT('',#772);
#254=VERTEX_POINT('',#776);
#255=VERTEX_POINT('',#778);
#256=VERTEX_POINT('',#782);
#257=VERTEX_POINT('',#784);
#258=VERTEX_POINT('',#792);
#259=VERTEX_POINT('',#793);
#260=VERTEX_POINT('',#795);
#261=VERTEX_POINT('',#797);
#262=VERTEX_POINT('',#801);
#263=VERTEX_POINT('',#803);
#264=VERTEX_POINT('',#807);
#265=VERTEX_POINT('',#808);
#266=VERTEX_POINT('',#810);
#267=VERTEX_POINT('',#812);
#268=VERTEX_POINT('',#816);
#269=VERTEX_POINT('',#818);
#270=VERTEX_POINT('',#820);
#271=VERTEX_POINT('',#822);
#272=VERTEX_POINT('',#824);
#273=VERTEX_POINT('',#829);
#274=VERTEX_POINT('',#831);
#275=VERTEX_POINT('',#835);
#276=VERTEX_POINT('',#839);
#277=VERTEX_POINT('',#845);
#278=EDGE_CURVE('',#234,#234,#218,.T.);
#279=EDGE_CURVE('',#234,#235,#118,.T.);
#280=EDGE_CURVE('',#235,#235,#219,.T.);
#281=EDGE_CURVE('',#236,#236,#220,.T.);
#282=EDGE_CURVE('',#236,#237,#119,.T.);
#283=EDGE_CURVE('',#237,#237,#221,.T.);
#284=EDGE_CURVE('',#238,#238,#222,.T.);
#285=EDGE_CURVE('',#238,#239,#120,.T.);
#286=EDGE_CURVE('',#239,#239,#223,.T.);
#287=EDGE_CURVE('',#240,#240,#224,.T.);
#288=EDGE_CURVE('',#240,#241,#121,.T.);
#289=EDGE_CURVE('',#241,#241,#225,.T.);
#290=EDGE_CURVE('',#242,#242,#226,.T.);
#291=EDGE_CURVE('',#242,#243,#122,.T.);
#292=EDGE_CURVE('',#243,#243,#227,.T.);
#293=EDGE_CURVE('',#244,#244,#228,.T.);
#294=EDGE_CURVE('',#244,#245,#123,.T.);
#295=EDGE_CURVE('',#245,#245,#229,.T.);
#296=EDGE_CURVE('',#246,#246,#230,.T.);
#297=EDGE_CURVE('',#246,#247,#124,.T.);
#298=EDGE_CURVE('',#247,#247,#231,.T.);
#299=EDGE_CURVE('',#248,#248,#232,.T.);
#300=EDGE_CURVE('',#248,#249,#125,.T.);
#301=EDGE_CURVE('',#249,#249,#233,.T.);
#302=EDGE_CURVE('',#250,#251,#126,.T.);
#303=EDGE_CURVE('',#252,#251,#127,.T.);
#304=EDGE_CURVE('',#253,#252,#128,.T.);
#305=EDGE_CURVE('',#250,#253,#129,.T.);
#306=EDGE_CURVE('',#254,#250,#130,.T.);
#307=EDGE_CURVE('',#255,#253,#131,.T.);
#308=EDGE_CURVE('',#254,#255,#132,.T.);
#309=EDGE_CURVE('',#256,#254,#133,.T.);
#310=EDGE_CURVE('',#257,#255,#134,.T.);
#311=EDGE_CURVE('',#256,#257,#135,.T.);
#312=EDGE_CURVE('',#257,#252,#136,.T.);
#313=EDGE_CURVE('',#251,#256,#137,.T.);
#314=EDGE_CURVE('',#258,#259,#138,.T.);
#315=EDGE_CURVE('',#260,#258,#139,.T.);
#316=EDGE_CURVE('',#261,#260,#140,.T.);
#317=EDGE_CURVE('',#259,#261,#141,.T.);
#318=EDGE_CURVE('',#260,#262,#142,.T.);
#319=EDGE_CURVE('',#263,#262,#143,.T.);
#320=EDGE_CURVE('',#261,#263,#144,.T.);
#321=EDGE_CURVE('',#264,#265,#145,.T.);
#322=EDGE_CURVE('',#264,#266,#146,.T.);
#323=EDGE_CURVE('',#266,#267,#147,.T.);
#324=EDGE_CURVE('',#265,#267,#148,.T.);
#325=EDGE_CURVE('',#268,#258,#149,.T.);
#326=EDGE_CURVE('',#269,#268,#150,.T.);
#327=EDGE_CURVE('',#270,#269,#151,.T.);
#328=EDGE_CURVE('',#270,#271,#152,.T.);
#329=EDGE_CURVE('',#272,#271,#153,.T.);
#330=EDGE_CURVE('',#272,#264,#154,.T.);
#331=EDGE_CURVE('',#262,#265,#155,.T.);
#332=EDGE_CURVE('',#271,#273,#156,.T.);
#333=EDGE_CURVE('',#274,#270,#157,.T.);
#334=EDGE_CURVE('',#273,#274,#158,.T.);
#335=EDGE_CURVE('',#275,#269,#159,.T.);
#336=EDGE_CURVE('',#274,#275,#160,.T.);
#337=EDGE_CURVE('',#276,#268,#161,.T.);
#338=EDGE_CURVE('',#276,#275,#162,.T.);
#339=EDGE_CURVE('',#276,#259,#163,.T.);
#340=EDGE_CURVE('',#277,#273,#164,.T.);
#341=EDGE_CURVE('',#277,#272,#165,.T.);
#342=EDGE_CURVE('',#266,#277,#166,.T.);
#343=EDGE_CURVE('',#267,#263,#167,.T.);
#344=ORIENTED_EDGE('',*,*,#278,.F.);
#345=ORIENTED_EDGE('',*,*,#279,.T.);
#346=ORIENTED_EDGE('',*,*,#280,.T.);
#347=ORIENTED_EDGE('',*,*,#279,.F.);
#348=ORIENTED_EDGE('',*,*,#280,.F.);
#349=ORIENTED_EDGE('',*,*,#281,.F.);
#350=ORIENTED_EDGE('',*,*,#282,.T.);
#351=ORIENTED_EDGE('',*,*,#283,.T.);
#352=ORIENTED_EDGE('',*,*,#282,.F.);
#353=ORIENTED_EDGE('',*,*,#283,.F.);
#354=ORIENTED_EDGE('',*,*,#284,.F.);
#355=ORIENTED_EDGE('',*,*,#285,.T.);
#356=ORIENTED_EDGE('',*,*,#286,.F.);
#357=ORIENTED_EDGE('',*,*,#285,.F.);
#358=ORIENTED_EDGE('',*,*,#287,.F.);
#359=ORIENTED_EDGE('',*,*,#288,.T.);
#360=ORIENTED_EDGE('',*,*,#289,.F.);
#361=ORIENTED_EDGE('',*,*,#288,.F.);
#362=ORIENTED_EDGE('',*,*,#290,.F.);
#363=ORIENTED_EDGE('',*,*,#291,.T.);
#364=ORIENTED_EDGE('',*,*,#292,.F.);
#365=ORIENTED_EDGE('',*,*,#291,.F.);
#366=ORIENTED_EDGE('',*,*,#293,.F.);
#367=ORIENTED_EDGE('',*,*,#294,.T.);
#368=ORIENTED_EDGE('',*,*,#295,.F.);
#369=ORIENTED_EDGE('',*,*,#294,.F.);
#370=ORIENTED_EDGE('',*,*,#296,.F.);
#371=ORIENTED_EDGE('',*,*,#297,.T.);
#372=ORIENTED_EDGE('',*,*,#298,.F.);
#373=ORIENTED_EDGE('',*,*,#297,.F.);
#374=ORIENTED_EDGE('',*,*,#299,.F.);
#375=ORIENTED_EDGE('',*,*,#300,.T.);
#376=ORIENTED_EDGE('',*,*,#301,.F.);
#377=ORIENTED_EDGE('',*,*,#300,.F.);
#378=ORIENTED_EDGE('',*,*,#302,.T.);
#379=ORIENTED_EDGE('',*,*,#303,.F.);
#380=ORIENTED_EDGE('',*,*,#304,.F.);
#381=ORIENTED_EDGE('',*,*,#305,.F.);
#382=ORIENTED_EDGE('',*,*,#306,.T.);
#383=ORIENTED_EDGE('',*,*,#305,.T.);
#384=ORIENTED_EDGE('',*,*,#307,.F.);
#385=ORIENTED_EDGE('',*,*,#308,.F.);
#386=ORIENTED_EDGE('',*,*,#309,.T.);
#387=ORIENTED_EDGE('',*,*,#308,.T.);
#388=ORIENTED_EDGE('',*,*,#310,.F.);
#389=ORIENTED_EDGE('',*,*,#311,.F.);
#390=ORIENTED_EDGE('',*,*,#310,.T.);
#391=ORIENTED_EDGE('',*,*,#307,.T.);
#392=ORIENTED_EDGE('',*,*,#304,.T.);
#393=ORIENTED_EDGE('',*,*,#312,.F.);
#394=ORIENTED_EDGE('',*,*,#298,.T.);
#395=ORIENTED_EDGE('',*,*,#301,.T.);
#396=ORIENTED_EDGE('',*,*,#309,.F.);
#397=ORIENTED_EDGE('',*,*,#313,.F.);
#398=ORIENTED_EDGE('',*,*,#302,.F.);
#399=ORIENTED_EDGE('',*,*,#306,.F.);
#400=ORIENTED_EDGE('',*,*,#296,.T.);
#401=ORIENTED_EDGE('',*,*,#299,.T.);
#402=ORIENTED_EDGE('',*,*,#314,.F.);
#403=ORIENTED_EDGE('',*,*,#315,.F.);
#404=ORIENTED_EDGE('',*,*,#316,.F.);
#405=ORIENTED_EDGE('',*,*,#317,.F.);
#406=ORIENTED_EDGE('',*,*,#287,.T.);
#407=ORIENTED_EDGE('',*,*,#293,.T.);
#408=ORIENTED_EDGE('',*,*,#316,.T.);
#409=ORIENTED_EDGE('',*,*,#318,.T.);
#410=ORIENTED_EDGE('',*,*,#319,.F.);
#411=ORIENTED_EDGE('',*,*,#320,.F.);
#412=ORIENTED_EDGE('',*,*,#321,.F.);
#413=ORIENTED_EDGE('',*,*,#322,.T.);
#414=ORIENTED_EDGE('',*,*,#323,.T.);
#415=ORIENTED_EDGE('',*,*,#324,.F.);
#416=ORIENTED_EDGE('',*,*,#311,.T.);
#417=ORIENTED_EDGE('',*,*,#312,.T.);
#418=ORIENTED_EDGE('',*,*,#303,.T.);
#419=ORIENTED_EDGE('',*,*,#313,.T.);
#420=ORIENTED_EDGE('',*,*,#325,.F.);
#421=ORIENTED_EDGE('',*,*,#326,.F.);
#422=ORIENTED_EDGE('',*,*,#327,.F.);
#423=ORIENTED_EDGE('',*,*,#328,.T.);
#424=ORIENTED_EDGE('',*,*,#329,.F.);
#425=ORIENTED_EDGE('',*,*,#330,.T.);
#426=ORIENTED_EDGE('',*,*,#321,.T.);
#427=ORIENTED_EDGE('',*,*,#331,.F.);
#428=ORIENTED_EDGE('',*,*,#318,.F.);
#429=ORIENTED_EDGE('',*,*,#315,.T.);
#430=ORIENTED_EDGE('',*,*,#332,.F.);
#431=ORIENTED_EDGE('',*,*,#328,.F.);
#432=ORIENTED_EDGE('',*,*,#333,.F.);
#433=ORIENTED_EDGE('',*,*,#334,.F.);
#434=ORIENTED_EDGE('',*,*,#284,.T.);
#435=ORIENTED_EDGE('',*,*,#290,.T.);
#436=ORIENTED_EDGE('',*,*,#333,.T.);
#437=ORIENTED_EDGE('',*,*,#327,.T.);
#438=ORIENTED_EDGE('',*,*,#335,.F.);
#439=ORIENTED_EDGE('',*,*,#336,.F.);
#440=ORIENTED_EDGE('',*,*,#337,.F.);
#441=ORIENTED_EDGE('',*,*,#338,.T.);
#442=ORIENTED_EDGE('',*,*,#335,.T.);
#443=ORIENTED_EDGE('',*,*,#326,.T.);
#444=ORIENTED_EDGE('',*,*,#286,.T.);
#445=ORIENTED_EDGE('',*,*,#292,.T.);
#446=ORIENTED_EDGE('',*,*,#314,.T.);
#447=ORIENTED_EDGE('',*,*,#339,.F.);
#448=ORIENTED_EDGE('',*,*,#337,.T.);
#449=ORIENTED_EDGE('',*,*,#325,.T.);
#450=ORIENTED_EDGE('',*,*,#332,.T.);
#451=ORIENTED_EDGE('',*,*,#340,.F.);
#452=ORIENTED_EDGE('',*,*,#341,.T.);
#453=ORIENTED_EDGE('',*,*,#329,.T.);
#454=ORIENTED_EDGE('',*,*,#323,.F.);
#455=ORIENTED_EDGE('',*,*,#342,.T.);
#456=ORIENTED_EDGE('',*,*,#340,.T.);
#457=ORIENTED_EDGE('',*,*,#334,.T.);
#458=ORIENTED_EDGE('',*,*,#336,.T.);
#459=ORIENTED_EDGE('',*,*,#338,.F.);
#460=ORIENTED_EDGE('',*,*,#339,.T.);
#461=ORIENTED_EDGE('',*,*,#317,.T.);
#462=ORIENTED_EDGE('',*,*,#320,.T.);
#463=ORIENTED_EDGE('',*,*,#343,.F.);
#464=ORIENTED_EDGE('',*,*,#331,.T.);
#465=ORIENTED_EDGE('',*,*,#324,.T.);
#466=ORIENTED_EDGE('',*,*,#343,.T.);
#467=ORIENTED_EDGE('',*,*,#319,.T.);
#468=ORIENTED_EDGE('',*,*,#289,.T.);
#469=ORIENTED_EDGE('',*,*,#295,.T.);
#470=ORIENTED_EDGE('',*,*,#330,.F.);
#471=ORIENTED_EDGE('',*,*,#341,.F.);
#472=ORIENTED_EDGE('',*,*,#342,.F.);
#473=ORIENTED_EDGE('',*,*,#322,.F.);
#474=ORIENTED_EDGE('',*,*,#278,.T.);
#475=ORIENTED_EDGE('',*,*,#281,.T.);
#476=CYLINDRICAL_SURFACE('',#534,1.25);
#477=CYLINDRICAL_SURFACE('',#538,1.25);
#478=CYLINDRICAL_SURFACE('',#542,1.5);
#479=CYLINDRICAL_SURFACE('',#545,1.5);
#480=CYLINDRICAL_SURFACE('',#548,1.5);
#481=CYLINDRICAL_SURFACE('',#551,1.5);
#482=CYLINDRICAL_SURFACE('',#554,2.10000000000001);
#483=CYLINDRICAL_SURFACE('',#557,2.1);
#484=ADVANCED_FACE('',(#49),#476,.F.);
#485=ADVANCED_FACE('',(#50),#30,.F.);
#486=ADVANCED_FACE('',(#51),#477,.F.);
#487=ADVANCED_FACE('',(#52),#31,.F.);
#488=ADVANCED_FACE('',(#53),#478,.F.);
#489=ADVANCED_FACE('',(#54),#479,.F.);
#490=ADVANCED_FACE('',(#55),#480,.F.);
#491=ADVANCED_FACE('',(#56),#481,.F.);
#492=ADVANCED_FACE('',(#57),#482,.F.);
#493=ADVANCED_FACE('',(#58),#483,.F.);
#494=ADVANCED_FACE('',(#59),#32,.T.);
#495=ADVANCED_FACE('',(#60),#33,.T.);
#496=ADVANCED_FACE('',(#61),#34,.T.);
#497=ADVANCED_FACE('',(#62,#15,#16),#35,.T.);
#498=ADVANCED_FACE('',(#63,#17,#18),#36,.F.);
#499=ADVANCED_FACE('',(#64,#19,#20),#37,.F.);
#500=ADVANCED_FACE('',(#65),#38,.T.);
#501=ADVANCED_FACE('',(#66,#21),#39,.T.);
#502=ADVANCED_FACE('',(#67),#40,.T.);
#503=ADVANCED_FACE('',(#68,#22,#23),#41,.F.);
#504=ADVANCED_FACE('',(#69),#42,.T.);
#505=ADVANCED_FACE('',(#70,#24,#25),#43,.T.);
#506=ADVANCED_FACE('',(#71),#44,.T.);
#507=ADVANCED_FACE('',(#72),#45,.T.);
#508=ADVANCED_FACE('',(#73),#46,.T.);
#509=ADVANCED_FACE('',(#74,#26,#27),#47,.T.);
#510=ADVANCED_FACE('',(#75,#28,#29),#48,.F.);
#511=CLOSED_SHELL('',(#484,#485,#486,#487,#488,#489,#490,#491,#492,#493,
#494,#495,#496,#497,#498,#499,#500,#501,#502,#503,#504,#505,#506,#507,#508,
#509,#510));
#512=DERIVED_UNIT_ELEMENT(#515,1.);
#513=DERIVED_UNIT_ELEMENT(#858,-3.);
#514=DIMENSIONAL_EXPONENTS(0.,1.,0.,0.,0.,0.,0.);
#515=(
CONVERSION_BASED_UNIT('gram',#517)
MASS_UNIT()
NAMED_UNIT(#514)
);
#516=(
MASS_UNIT()
NAMED_UNIT(*)
SI_UNIT(.KILO.,.GRAM.)
);
#517=MASS_MEASURE_WITH_UNIT(MASS_MEASURE(0.001),#516);
#518=DERIVED_UNIT((#512,#513));
#519=MEASURE_REPRESENTATION_ITEM('density measure',
POSITIVE_RATIO_MEASURE(2.7),#518);
#520=PROPERTY_DEFINITION_REPRESENTATION(#525,#522);
#521=PROPERTY_DEFINITION_REPRESENTATION(#526,#523);
#522=REPRESENTATION('material name',(#524),#855);
#523=REPRESENTATION('density',(#519),#855);
#524=DESCRIPTIVE_REPRESENTATION_ITEM('\X2\30A230EB30DF30CB30A630E0\X0\ 
6061','\X2\30A230EB30DF30CB30A630E0\X0\ 6061');
#525=PROPERTY_DEFINITION('material property','material name',#865);
#526=PROPERTY_DEFINITION('material property','density of part',#865);
#527=DATE_TIME_ROLE('creation_date');
#528=APPLIED_DATE_AND_TIME_ASSIGNMENT(#529,#527,(#865));
#529=DATE_AND_TIME(#530,#531);
#530=CALENDAR_DATE(2026,8,10);
#531=LOCAL_TIME(0,0,0.,#532);
#532=COORDINATED_UNIVERSAL_TIME_OFFSET(0,0,.BEHIND.);
#533=AXIS2_PLACEMENT_3D('',#715,#577,#578);
#534=AXIS2_PLACEMENT_3D('',#716,#579,#580);
#535=AXIS2_PLACEMENT_3D('',#718,#581,#582);
#536=AXIS2_PLACEMENT_3D('',#721,#584,#585);
#537=AXIS2_PLACEMENT_3D('',#722,#586,#587);
#538=AXIS2_PLACEMENT_3D('',#723,#588,#589);
#539=AXIS2_PLACEMENT_3D('',#725,#590,#591);
#540=AXIS2_PLACEMENT_3D('',#728,#593,#594);
#541=AXIS2_PLACEMENT_3D('',#729,#595,#596);
#542=AXIS2_PLACEMENT_3D('',#730,#597,#598);
#543=AXIS2_PLACEMENT_3D('',#732,#599,#600);
#544=AXIS2_PLACEMENT_3D('',#735,#602,#603);
#545=AXIS2_PLACEMENT_3D('',#736,#604,#605);
#546=AXIS2_PLACEMENT_3D('',#738,#606,#607);
#547=AXIS2_PLACEMENT_3D('',#741,#609,#610);
#548=AXIS2_PLACEMENT_3D('',#742,#611,#612);
#549=AXIS2_PLACEMENT_3D('',#744,#613,#614);
#550=AXIS2_PLACEMENT_3D('',#747,#616,#617);
#551=AXIS2_PLACEMENT_3D('',#748,#618,#619);
#552=AXIS2_PLACEMENT_3D('',#750,#620,#621);
#553=AXIS2_PLACEMENT_3D('',#753,#623,#624);
#554=AXIS2_PLACEMENT_3D('',#754,#625,#626);
#555=AXIS2_PLACEMENT_3D('',#756,#627,#628);
#556=AXIS2_PLACEMENT_3D('',#759,#630,#631);
#557=AXIS2_PLACEMENT_3D('',#760,#632,#633);
#558=AXIS2_PLACEMENT_3D('',#762,#634,#635);
#559=AXIS2_PLACEMENT_3D('',#765,#637,#638);
#560=AXIS2_PLACEMENT_3D('',#766,#639,#640);
#561=AXIS2_PLACEMENT_3D('',#775,#645,#646);
#562=AXIS2_PLACEMENT_3D('',#781,#650,#651);
#563=AXIS2_PLACEMENT_3D('',#787,#655,#656);
#564=AXIS2_PLACEMENT_3D('',#789,#658,#659);
#565=AXIS2_PLACEMENT_3D('',#791,#661,#662);
#566=AXIS2_PLACEMENT_3D('',#800,#667,#668);
#567=AXIS2_PLACEMENT_3D('',#806,#672,#673);
#568=AXIS2_PLACEMENT_3D('',#815,#678,#679);
#569=AXIS2_PLACEMENT_3D('',#828,#687,#688);
#570=AXIS2_PLACEMENT_3D('',#834,#692,#693);
#571=AXIS2_PLACEMENT_3D('',#838,#696,#697);
#572=AXIS2_PLACEMENT_3D('',#842,#700,#701);
#573=AXIS2_PLACEMENT_3D('',#844,#703,#704);
#574=AXIS2_PLACEMENT_3D('',#848,#707,#708);
#575=AXIS2_PLACEMENT_3D('',#851,#711,#712);
#576=AXIS2_PLACEMENT_3D('',#852,#713,#714);
#577=DIRECTION('axis',(0.,0.,1.));
#578=DIRECTION('refdir',(1.,0.,0.));
#579=DIRECTION('center_axis',(0.,0.,1.));
#580=DIRECTION('ref_axis',(-1.,0.,0.));
#581=DIRECTION('center_axis',(0.,0.,1.));
#582=DIRECTION('ref_axis',(-1.,0.,0.));
#583=DIRECTION('',(0.,0.,1.));
#584=DIRECTION('center_axis',(0.,0.,1.));
#585=DIRECTION('ref_axis',(-1.,0.,0.));
#586=DIRECTION('center_axis',(0.,0.,1.));
#587=DIRECTION('ref_axis',(1.,0.,0.));
#588=DIRECTION('center_axis',(0.,0.,1.));
#589=DIRECTION('ref_axis',(-1.,0.,0.));
#590=DIRECTION('center_axis',(0.,0.,1.));
#591=DIRECTION('ref_axis',(-1.,0.,0.));
#592=DIRECTION('',(0.,0.,1.));
#593=DIRECTION('center_axis',(0.,0.,1.));
#594=DIRECTION('ref_axis',(-1.,0.,0.));
#595=DIRECTION('center_axis',(0.,0.,1.));
#596=DIRECTION('ref_axis',(1.,0.,0.));
#597=DIRECTION('center_axis',(0.,0.,1.));
#598=DIRECTION('ref_axis',(-1.,0.,0.));
#599=DIRECTION('center_axis',(0.,0.,1.));
#600=DIRECTION('ref_axis',(-1.,0.,0.));
#601=DIRECTION('',(0.,0.,1.));
#602=DIRECTION('center_axis',(0.,0.,-1.));
#603=DIRECTION('ref_axis',(-1.,0.,0.));
#604=DIRECTION('center_axis',(0.,0.,1.));
#605=DIRECTION('ref_axis',(-1.,0.,0.));
#606=DIRECTION('center_axis',(0.,0.,1.));
#607=DIRECTION('ref_axis',(-1.,0.,0.));
#608=DIRECTION('',(0.,0.,1.));
#609=DIRECTION('center_axis',(0.,0.,-1.));
#610=DIRECTION('ref_axis',(-1.,0.,0.));
#611=DIRECTION('center_axis',(0.,0.,1.));
#612=DIRECTION('ref_axis',(-1.,0.,0.));
#613=DIRECTION('center_axis',(0.,0.,1.));
#614=DIRECTION('ref_axis',(-1.,0.,0.));
#615=DIRECTION('',(0.,0.,1.));
#616=DIRECTION('center_axis',(0.,0.,-1.));
#617=DIRECTION('ref_axis',(-1.,0.,0.));
#618=DIRECTION('center_axis',(0.,0.,1.));
#619=DIRECTION('ref_axis',(-1.,0.,0.));
#620=DIRECTION('center_axis',(0.,0.,1.));
#621=DIRECTION('ref_axis',(-1.,0.,0.));
#622=DIRECTION('',(0.,0.,1.));
#623=DIRECTION('center_axis',(0.,0.,-1.));
#624=DIRECTION('ref_axis',(-1.,0.,0.));
#625=DIRECTION('center_axis',(0.,0.,1.));
#626=DIRECTION('ref_axis',(-1.,0.,0.));
#627=DIRECTION('center_axis',(0.,0.,1.));
#628=DIRECTION('ref_axis',(-1.,0.,0.));
#629=DIRECTION('',(0.,0.,1.));
#630=DIRECTION('center_axis',(0.,0.,-1.));
#631=DIRECTION('ref_axis',(-1.,0.,0.));
#632=DIRECTION('center_axis',(0.,0.,1.));
#633=DIRECTION('ref_axis',(-1.,0.,0.));
#634=DIRECTION('center_axis',(0.,0.,1.));
#635=DIRECTION('ref_axis',(-1.,0.,0.));
#636=DIRECTION('',(0.,0.,1.));
#637=DIRECTION('center_axis',(0.,0.,-1.));
#638=DIRECTION('ref_axis',(-1.,0.,0.));
#639=DIRECTION('center_axis',(0.,1.,0.));
#640=DIRECTION('ref_axis',(-1.,0.,0.));
#641=DIRECTION('',(-1.,0.,0.));
#642=DIRECTION('',(0.,0.,-1.));
#643=DIRECTION('',(-1.,0.,0.));
#644=DIRECTION('',(0.,0.,1.));
#645=DIRECTION('center_axis',(1.,0.,0.));
#646=DIRECTION('ref_axis',(0.,1.,0.));
#647=DIRECTION('',(0.,1.,0.));
#648=DIRECTION('',(0.,1.,0.));
#649=DIRECTION('',(0.,0.,1.));
#650=DIRECTION('center_axis',(0.,-1.,0.));
#651=DIRECTION('ref_axis',(1.,0.,0.));
#652=DIRECTION('',(1.,0.,0.));
#653=DIRECTION('',(1.,0.,0.));
#654=DIRECTION('',(0.,0.,1.));
#655=DIRECTION('center_axis',(0.,0.,1.));
#656=DIRECTION('ref_axis',(1.,0.,0.));
#657=DIRECTION('',(0.,1.,0.));
#658=DIRECTION('center_axis',(0.,0.,1.));
#659=DIRECTION('ref_axis',(1.,0.,0.));
#660=DIRECTION('',(0.,-1.,0.));
#661=DIRECTION('center_axis',(0.,0.,1.));
#662=DIRECTION('ref_axis',(1.,0.,0.));
#663=DIRECTION('',(0.,1.,0.));
#664=DIRECTION('',(1.,0.,0.));
#665=DIRECTION('',(0.,-1.,0.));
#666=DIRECTION('',(-1.,0.,0.));
#667=DIRECTION('center_axis',(-1.,0.,0.));
#668=DIRECTION('ref_axis',(0.,-1.,0.));
#669=DIRECTION('',(0.,0.,1.));
#670=DIRECTION('',(0.,-1.,0.));
#671=DIRECTION('',(0.,0.,1.));
#672=DIRECTION('center_axis',(1.,0.,0.));
#673=DIRECTION('ref_axis',(0.,1.,0.));
#674=DIRECTION('',(0.,0.,1.));
#675=DIRECTION('',(0.,1.,0.));
#676=DIRECTION('',(0.,0.,1.));
#677=DIRECTION('',(0.,1.,0.));
#678=DIRECTION('center_axis',(0.,-1.,0.));
#679=DIRECTION('ref_axis',(1.,0.,0.));
#680=DIRECTION('',(0.,0.,1.));
#681=DIRECTION('',(1.,0.,0.));
#682=DIRECTION('',(0.,0.,1.));
#683=DIRECTION('',(1.,0.,0.));
#684=DIRECTION('',(0.,0.,1.));
#685=DIRECTION('',(1.,0.,0.));
#686=DIRECTION('',(1.,0.,0.));
#687=DIRECTION('center_axis',(0.,0.,1.));
#688=DIRECTION('ref_axis',(1.,0.,0.));
#689=DIRECTION('',(0.,1.,0.));
#690=DIRECTION('',(0.,-1.,0.));
#691=DIRECTION('',(-1.,0.,0.));
#692=DIRECTION('center_axis',(-1.,0.,0.));
#693=DIRECTION('ref_axis',(0.,-1.,0.));
#694=DIRECTION('',(0.,-1.,0.));
#695=DIRECTION('',(0.,0.,1.));
#696=DIRECTION('center_axis',(0.,0.,1.));
#697=DIRECTION('ref_axis',(1.,0.,0.));
#698=DIRECTION('',(0.,-1.,0.));
#699=DIRECTION('',(-1.,0.,0.));
#700=DIRECTION('center_axis',(-1.,0.,0.));
#701=DIRECTION('ref_axis',(0.,-1.,0.));
#702=DIRECTION('',(0.,0.,1.));
#703=DIRECTION('center_axis',(-1.,0.,0.));
#704=DIRECTION('ref_axis',(0.,-1.,0.));
#705=DIRECTION('',(0.,0.,1.));
#706=DIRECTION('',(0.,-1.,0.));
#707=DIRECTION('center_axis',(0.,1.,0.));
#708=DIRECTION('ref_axis',(-1.,0.,0.));
#709=DIRECTION('',(-1.,0.,0.));
#710=DIRECTION('',(-1.,0.,0.));
#711=DIRECTION('center_axis',(0.,0.,1.));
#712=DIRECTION('ref_axis',(1.,0.,0.));
#713=DIRECTION('center_axis',(0.,0.,1.));
#714=DIRECTION('ref_axis',(1.,0.,0.));
#715=CARTESIAN_POINT('',(0.,0.,0.));
#716=CARTESIAN_POINT('Origin',(65.,8.,4.));
#717=CARTESIAN_POINT('',(66.25,8.,4.));
#718=CARTESIAN_POINT('Origin',(65.,8.,4.));
#719=CARTESIAN_POINT('',(66.25,8.,29.));
#720=CARTESIAN_POINT('',(66.25,8.,4.));
#721=CARTESIAN_POINT('Origin',(65.,8.,29.));
#722=CARTESIAN_POINT('Origin',(65.,8.,29.));
#723=CARTESIAN_POINT('Origin',(65.,-8.,4.));
#724=CARTESIAN_POINT('',(66.25,-8.,4.));
#725=CARTESIAN_POINT('Origin',(65.,-8.,4.));
#726=CARTESIAN_POINT('',(66.25,-8.,29.));
#727=CARTESIAN_POINT('',(66.25,-8.,4.));
#728=CARTESIAN_POINT('Origin',(65.,-8.,29.));
#729=CARTESIAN_POINT('Origin',(65.,-8.,29.));
#730=CARTESIAN_POINT('Origin',(49.,32.,29.));
#731=CARTESIAN_POINT('',(50.5,32.,29.));
#732=CARTESIAN_POINT('Origin',(49.,32.,29.));
#733=CARTESIAN_POINT('',(50.5,32.,32.));
#734=CARTESIAN_POINT('',(50.5,32.,29.));
#735=CARTESIAN_POINT('Origin',(49.,32.,32.));
#736=CARTESIAN_POINT('Origin',(49.,32.,29.));
#737=CARTESIAN_POINT('',(50.5,32.,43.));
#738=CARTESIAN_POINT('Origin',(49.,32.,43.));
#739=CARTESIAN_POINT('',(50.5,32.,46.));
#740=CARTESIAN_POINT('',(50.5,32.,29.));
#741=CARTESIAN_POINT('Origin',(49.,32.,46.));
#742=CARTESIAN_POINT('Origin',(49.,-32.,29.));
#743=CARTESIAN_POINT('',(50.5,-32.,29.));
#744=CARTESIAN_POINT('Origin',(49.,-32.,29.));
#745=CARTESIAN_POINT('',(50.5,-32.,32.));
#746=CARTESIAN_POINT('',(50.5,-32.,29.));
#747=CARTESIAN_POINT('Origin',(49.,-32.,32.));
#748=CARTESIAN_POINT('Origin',(49.,-32.,29.));
#749=CARTESIAN_POINT('',(50.5,-32.,43.));
#750=CARTESIAN_POINT('Origin',(49.,-32.,43.));
#751=CARTESIAN_POINT('',(50.5,-32.,46.));
#752=CARTESIAN_POINT('',(50.5,-32.,29.));
#753=CARTESIAN_POINT('Origin',(49.,-32.,46.));
#754=CARTESIAN_POINT('Origin',(84.,12.,29.));
#755=CARTESIAN_POINT('',(86.1,12.,29.));
#756=CARTESIAN_POINT('Origin',(84.,12.,29.));
#757=CARTESIAN_POINT('',(86.1,12.,32.));
#758=CARTESIAN_POINT('',(86.1,12.,29.));
#759=CARTESIAN_POINT('Origin',(84.,12.,32.));
#760=CARTESIAN_POINT('Origin',(76.,-12.,29.));
#761=CARTESIAN_POINT('',(78.1,-12.,29.));
#762=CARTESIAN_POINT('Origin',(76.,-12.,29.));
#763=CARTESIAN_POINT('',(78.1,-12.,32.));
#764=CARTESIAN_POINT('',(78.1,-12.,29.));
#765=CARTESIAN_POINT('Origin',(76.,-12.,32.));
#766=CARTESIAN_POINT('Origin',(88.,18.,29.));
#767=CARTESIAN_POINT('',(88.,18.,29.));
#768=CARTESIAN_POINT('',(70.,18.,29.));
#769=CARTESIAN_POINT('',(88.,18.,29.));
#770=CARTESIAN_POINT('',(70.,18.,32.));
#771=CARTESIAN_POINT('',(70.,18.,16.5));
#772=CARTESIAN_POINT('',(88.,18.,32.));
#773=CARTESIAN_POINT('',(88.,18.,32.));
#774=CARTESIAN_POINT('',(88.,18.,29.));
#775=CARTESIAN_POINT('Origin',(88.,-18.,29.));
#776=CARTESIAN_POINT('',(88.,-18.,29.));
#777=CARTESIAN_POINT('',(88.,-18.,29.));
#778=CARTESIAN_POINT('',(88.,-18.,32.));
#779=CARTESIAN_POINT('',(88.,-18.,32.));
#780=CARTESIAN_POINT('',(88.,-18.,29.));
#781=CARTESIAN_POINT('Origin',(70.,-18.,29.));
#782=CARTESIAN_POINT('',(70.,-18.,29.));
#783=CARTESIAN_POINT('',(70.,-18.,29.));
#784=CARTESIAN_POINT('',(70.,-18.,32.));
#785=CARTESIAN_POINT('',(70.,-18.,32.));
#786=CARTESIAN_POINT('',(70.,-18.,16.5));
#787=CARTESIAN_POINT('Origin',(79.,0.,32.));
#788=CARTESIAN_POINT('',(70.,-20.,32.));
#789=CARTESIAN_POINT('Origin',(79.,0.,29.));
#790=CARTESIAN_POINT('',(70.,-20.,29.));
#791=CARTESIAN_POINT('Origin',(53.,0.,43.));
#792=CARTESIAN_POINT('',(60.,-40.,43.));
#793=CARTESIAN_POINT('',(60.,40.,43.));
#794=CARTESIAN_POINT('',(60.,20.,43.));
#795=CARTESIAN_POINT('',(36.,-40.,43.));
#796=CARTESIAN_POINT('',(36.,-40.,43.));
#797=CARTESIAN_POINT('',(36.,40.,43.));
#798=CARTESIAN_POINT('',(36.,40.,43.));
#799=CARTESIAN_POINT('',(70.,40.,43.));
#800=CARTESIAN_POINT('Origin',(36.,40.,43.));
#801=CARTESIAN_POINT('',(36.,-40.,46.));
#802=CARTESIAN_POINT('',(36.,-40.,43.));
#803=CARTESIAN_POINT('',(36.,40.,46.));
#804=CARTESIAN_POINT('',(36.,40.,46.));
#805=CARTESIAN_POINT('',(36.,40.,43.));
#806=CARTESIAN_POINT('Origin',(70.,-40.,4.));
#807=CARTESIAN_POINT('',(70.,-40.,4.));
#808=CARTESIAN_POINT('',(70.,-40.,46.));
#809=CARTESIAN_POINT('',(70.,-40.,4.));
#810=CARTESIAN_POINT('',(70.,40.,4.));
#811=CARTESIAN_POINT('',(70.,-40.,4.));
#812=CARTESIAN_POINT('',(70.,40.,46.));
#813=CARTESIAN_POINT('',(70.,40.,4.));
#814=CARTESIAN_POINT('',(70.,-40.,46.));
#815=CARTESIAN_POINT('Origin',(60.,-40.,4.));
#816=CARTESIAN_POINT('',(60.,-40.,32.));
#817=CARTESIAN_POINT('',(60.,-40.,4.));
#818=CARTESIAN_POINT('',(36.,-40.,32.));
#819=CARTESIAN_POINT('',(36.,-40.,32.));
#820=CARTESIAN_POINT('',(36.,-40.,29.));
#821=CARTESIAN_POINT('',(36.,-40.,29.));
#822=CARTESIAN_POINT('',(60.,-40.,29.));
#823=CARTESIAN_POINT('',(36.,-40.,29.));
#824=CARTESIAN_POINT('',(60.,-40.,4.));
#825=CARTESIAN_POINT('',(60.,-40.,4.));
#826=CARTESIAN_POINT('',(60.,-40.,4.));
#827=CARTESIAN_POINT('',(36.,-40.,46.));
#828=CARTESIAN_POINT('Origin',(53.,0.,29.));
#829=CARTESIAN_POINT('',(60.,40.,29.));
#830=CARTESIAN_POINT('',(60.,20.,29.));
#831=CARTESIAN_POINT('',(36.,40.,29.));
#832=CARTESIAN_POINT('',(36.,40.,29.));
#833=CARTESIAN_POINT('',(70.,40.,29.));
#834=CARTESIAN_POINT('Origin',(36.,40.,29.));
#835=CARTESIAN_POINT('',(36.,40.,32.));
#836=CARTESIAN_POINT('',(36.,40.,32.));
#837=CARTESIAN_POINT('',(36.,40.,29.));
#838=CARTESIAN_POINT('Origin',(53.,0.,32.));
#839=CARTESIAN_POINT('',(60.,40.,32.));
#840=CARTESIAN_POINT('',(60.,20.,32.));
#841=CARTESIAN_POINT('',(70.,40.,32.));
#842=CARTESIAN_POINT('Origin',(60.,40.,4.));
#843=CARTESIAN_POINT('',(60.,40.,4.));
#844=CARTESIAN_POINT('Origin',(60.,40.,4.));
#845=CARTESIAN_POINT('',(60.,40.,4.));
#846=CARTESIAN_POINT('',(60.,40.,4.));
#847=CARTESIAN_POINT('',(60.,40.,4.));
#848=CARTESIAN_POINT('Origin',(70.,40.,4.));
#849=CARTESIAN_POINT('',(70.,40.,4.));
#850=CARTESIAN_POINT('',(70.,40.,46.));
#851=CARTESIAN_POINT('Origin',(65.,0.,46.));
#852=CARTESIAN_POINT('Origin',(65.,0.,4.));
#853=UNCERTAINTY_MEASURE_WITH_UNIT(LENGTH_MEASURE(0.01),#857,
'DISTANCE_ACCURACY_VALUE',
'Maximum model space distance between geometric entities at asserted c
onnectivities');
#854=UNCERTAINTY_MEASURE_WITH_UNIT(LENGTH_MEASURE(0.01),#857,
'DISTANCE_ACCURACY_VALUE',
'Maximum model space distance between geometric entities at asserted c
onnectivities');
#855=(
GEOMETRIC_REPRESENTATION_CONTEXT(3)
GLOBAL_UNCERTAINTY_ASSIGNED_CONTEXT((#853))
GLOBAL_UNIT_ASSIGNED_CONTEXT((#857,#859,#860))
REPRESENTATION_CONTEXT('','3D')
);
#856=(
GEOMETRIC_REPRESENTATION_CONTEXT(3)
GLOBAL_UNCERTAINTY_ASSIGNED_CONTEXT((#854))
GLOBAL_UNIT_ASSIGNED_CONTEXT((#857,#859,#860))
REPRESENTATION_CONTEXT('','3D')
);
#857=(
LENGTH_UNIT()
NAMED_UNIT(*)
SI_UNIT(.MILLI.,.METRE.)
);
#858=(
LENGTH_UNIT()
NAMED_UNIT(*)
SI_UNIT(.CENTI.,.METRE.)
);
#859=(
NAMED_UNIT(*)
PLANE_ANGLE_UNIT()
SI_UNIT($,.RADIAN.)
);
#860=(
NAMED_UNIT(*)
SI_UNIT($,.STERADIAN.)
SOLID_ANGLE_UNIT()
);
#861=SHAPE_DEFINITION_REPRESENTATION(#862,#863);
#862=PRODUCT_DEFINITION_SHAPE('',$,#865);
#863=SHAPE_REPRESENTATION('',(#533),#855);
#864=PRODUCT_DEFINITION_CONTEXT('part definition',#869,'design');
#865=PRODUCT_DEFINITION('09_Brake_Actuator_Bracket',
'09_Brake_Actuator_Bracket',#866,#864);
#866=PRODUCT_DEFINITION_FORMATION('',$,#871);
#867=PRODUCT_RELATED_PRODUCT_CATEGORY('09_Brake_Actuator_Bracket',
'09_Brake_Actuator_Bracket',(#871));
#868=APPLICATION_PROTOCOL_DEFINITION('international standard',
'automotive_design',2009,#869);
#869=APPLICATION_CONTEXT(
'Core Data for Automotive Mechanical Design Process');
#870=PRODUCT_CONTEXT('part definition',#869,'mechanical');
#871=PRODUCT('09_Brake_Actuator_Bracket','09_Brake_Actuator_Bracket',$,
(#870));
#872=PRESENTATION_STYLE_ASSIGNMENT((#873));
#873=SURFACE_STYLE_USAGE(.BOTH.,#876);
#874=SURFACE_STYLE_RENDERING_WITH_PROPERTIES($,#880,(#875));
#875=SURFACE_STYLE_TRANSPARENT(0.);
#876=SURFACE_SIDE_STYLE('',(#877,#874));
#877=SURFACE_STYLE_FILL_AREA(#878);
#878=FILL_AREA_STYLE('',(#879));
#879=FILL_AREA_STYLE_COLOUR('',#880);
#880=COLOUR_RGB('',0.996078431372549,0.996078431372549,1.);
ENDSEC;
END-ISO-10303-21;
