ISO-10303-21;
HEADER;
/* Generated by software containing ST-Developer
 * from STEP Tools, Inc. (www.steptools.com) 
 */

FILE_DESCRIPTION(
/* description */ (''),
/* implementation_level */ '2;1');

FILE_NAME(
/* name */ '11_Module_Frame.step',
/* time_stamp */ '2026-10-08T17:08:35+09:00',
/* author */ ('Reaction Wheel Pendulum project'),
/* organization */ (''),
/* preprocessor_version */ 'ST-DEVELOPER v20.1',
/* originating_system */ 'Autodesk Inventor 2026',
/* authorisation */ '');

FILE_SCHEMA (('AUTOMOTIVE_DESIGN { 1 0 10303 214 3 1 1 }'));
ENDSEC;

DATA;
#10=MECHANICAL_DESIGN_GEOMETRIC_PRESENTATION_REPRESENTATION('',(#13),#1693);
#11=SHAPE_REPRESENTATION_RELATIONSHIP('SRR','None',#1700,#12);
#12=ADVANCED_BREP_SHAPE_REPRESENTATION('',(#14),#1692);
#13=STYLED_ITEM('',(#1709),#14);
#14=MANIFOLD_SOLID_BREP('\X2\30BD30EA30C330C9\X0\1',#1048);
#15=FACE_BOUND('',#150,.T.);
#16=FACE_BOUND('',#151,.T.);
#17=FACE_BOUND('',#152,.T.);
#18=FACE_BOUND('',#153,.T.);
#19=FACE_BOUND('',#154,.T.);
#20=FACE_BOUND('',#155,.T.);
#21=FACE_BOUND('',#156,.T.);
#22=FACE_BOUND('',#157,.T.);
#23=FACE_BOUND('',#158,.T.);
#24=FACE_BOUND('',#159,.T.);
#25=FACE_BOUND('',#160,.T.);
#26=FACE_BOUND('',#161,.T.);
#27=FACE_BOUND('',#162,.T.);
#28=FACE_BOUND('',#163,.T.);
#29=FACE_BOUND('',#164,.T.);
#30=FACE_BOUND('',#185,.T.);
#31=FACE_BOUND('',#186,.T.);
#32=FACE_BOUND('',#187,.T.);
#33=FACE_BOUND('',#188,.T.);
#34=FACE_BOUND('',#189,.T.);
#35=FACE_BOUND('',#190,.T.);
#36=FACE_BOUND('',#191,.T.);
#37=FACE_BOUND('',#192,.T.);
#38=FACE_BOUND('',#193,.T.);
#39=FACE_BOUND('',#194,.T.);
#40=FACE_BOUND('',#195,.T.);
#41=FACE_BOUND('',#196,.T.);
#42=FACE_BOUND('',#197,.T.);
#43=FACE_BOUND('',#198,.T.);
#44=FACE_BOUND('',#199,.T.);
#45=PLANE('',#1104);
#46=PLANE('',#1105);
#47=PLANE('',#1106);
#48=PLANE('',#1107);
#49=PLANE('',#1108);
#50=PLANE('',#1109);
#51=PLANE('',#1110);
#52=PLANE('',#1111);
#53=PLANE('',#1112);
#54=PLANE('',#1113);
#55=PLANE('',#1114);
#56=PLANE('',#1115);
#57=PLANE('',#1116);
#58=PLANE('',#1117);
#59=PLANE('',#1118);
#60=PLANE('',#1119);
#61=PLANE('',#1120);
#62=PLANE('',#1121);
#63=PLANE('',#1122);
#64=PLANE('',#1123);
#65=PLANE('',#1124);
#66=PLANE('',#1125);
#67=PLANE('',#1126);
#68=PLANE('',#1127);
#69=PLANE('',#1128);
#70=PLANE('',#1129);
#71=PLANE('',#1130);
#72=PLANE('',#1131);
#73=PLANE('',#1132);
#74=PLANE('',#1133);
#75=PLANE('',#1134);
#76=PLANE('',#1135);
#77=PLANE('',#1136);
#78=PLANE('',#1137);
#79=PLANE('',#1138);
#80=PLANE('',#1139);
#81=PLANE('',#1140);
#82=PLANE('',#1141);
#83=FACE_OUTER_BOUND('',#132,.T.);
#84=FACE_OUTER_BOUND('',#133,.T.);
#85=FACE_OUTER_BOUND('',#134,.T.);
#86=FACE_OUTER_BOUND('',#135,.T.);
#87=FACE_OUTER_BOUND('',#136,.T.);
#88=FACE_OUTER_BOUND('',#137,.T.);
#89=FACE_OUTER_BOUND('',#138,.T.);
#90=FACE_OUTER_BOUND('',#139,.T.);
#91=FACE_OUTER_BOUND('',#140,.T.);
#92=FACE_OUTER_BOUND('',#141,.T.);
#93=FACE_OUTER_BOUND('',#142,.T.);
#94=FACE_OUTER_BOUND('',#143,.T.);
#95=FACE_OUTER_BOUND('',#144,.T.);
#96=FACE_OUTER_BOUND('',#145,.T.);
#97=FACE_OUTER_BOUND('',#146,.T.);
#98=FACE_OUTER_BOUND('',#147,.T.);
#99=FACE_OUTER_BOUND('',#148,.T.);
#100=FACE_OUTER_BOUND('',#149,.T.);
#101=FACE_OUTER_BOUND('',#165,.T.);
#102=FACE_OUTER_BOUND('',#166,.T.);
#103=FACE_OUTER_BOUND('',#167,.T.);
#104=FACE_OUTER_BOUND('',#168,.T.);
#105=FACE_OUTER_BOUND('',#169,.T.);
#106=FACE_OUTER_BOUND('',#170,.T.);
#107=FACE_OUTER_BOUND('',#171,.T.);
#108=FACE_OUTER_BOUND('',#172,.T.);
#109=FACE_OUTER_BOUND('',#173,.T.);
#110=FACE_OUTER_BOUND('',#174,.T.);
#111=FACE_OUTER_BOUND('',#175,.T.);
#112=FACE_OUTER_BOUND('',#176,.T.);
#113=FACE_OUTER_BOUND('',#177,.T.);
#114=FACE_OUTER_BOUND('',#178,.T.);
#115=FACE_OUTER_BOUND('',#179,.T.);
#116=FACE_OUTER_BOUND('',#180,.T.);
#117=FACE_OUTER_BOUND('',#181,.T.);
#118=FACE_OUTER_BOUND('',#182,.T.);
#119=FACE_OUTER_BOUND('',#183,.T.);
#120=FACE_OUTER_BOUND('',#184,.T.);
#121=FACE_OUTER_BOUND('',#200,.T.);
#122=FACE_OUTER_BOUND('',#201,.T.);
#123=FACE_OUTER_BOUND('',#202,.T.);
#124=FACE_OUTER_BOUND('',#203,.T.);
#125=FACE_OUTER_BOUND('',#204,.T.);
#126=FACE_OUTER_BOUND('',#205,.T.);
#127=FACE_OUTER_BOUND('',#206,.T.);
#128=FACE_OUTER_BOUND('',#207,.T.);
#129=FACE_OUTER_BOUND('',#208,.T.);
#130=FACE_OUTER_BOUND('',#209,.T.);
#131=FACE_OUTER_BOUND('',#210,.T.);
#132=EDGE_LOOP('',(#706,#707,#708,#709));
#133=EDGE_LOOP('',(#710,#711,#712,#713));
#134=EDGE_LOOP('',(#714,#715,#716,#717));
#135=EDGE_LOOP('',(#718,#719,#720,#721));
#136=EDGE_LOOP('',(#722,#723,#724,#725));
#137=EDGE_LOOP('',(#726,#727,#728,#729));
#138=EDGE_LOOP('',(#730,#731,#732,#733));
#139=EDGE_LOOP('',(#734,#735,#736,#737));
#140=EDGE_LOOP('',(#738,#739,#740,#741));
#141=EDGE_LOOP('',(#742,#743,#744,#745));
#142=EDGE_LOOP('',(#746,#747,#748,#749));
#143=EDGE_LOOP('',(#750,#751,#752,#753));
#144=EDGE_LOOP('',(#754,#755,#756,#757));
#145=EDGE_LOOP('',(#758,#759,#760,#761));
#146=EDGE_LOOP('',(#762,#763,#764,#765));
#147=EDGE_LOOP('',(#766,#767,#768,#769));
#148=EDGE_LOOP('',(#770,#771,#772,#773));
#149=EDGE_LOOP('',(#774,#775,#776,#777));
#150=EDGE_LOOP('',(#778));
#151=EDGE_LOOP('',(#779));
#152=EDGE_LOOP('',(#780));
#153=EDGE_LOOP('',(#781));
#154=EDGE_LOOP('',(#782));
#155=EDGE_LOOP('',(#783));
#156=EDGE_LOOP('',(#784));
#157=EDGE_LOOP('',(#785));
#158=EDGE_LOOP('',(#786));
#159=EDGE_LOOP('',(#787));
#160=EDGE_LOOP('',(#788));
#161=EDGE_LOOP('',(#789,#790,#791,#792,#793,#794,#795,#796,#797,#798));
#162=EDGE_LOOP('',(#799,#800,#801,#802,#803,#804));
#163=EDGE_LOOP('',(#805,#806,#807,#808,#809,#810));
#164=EDGE_LOOP('',(#811,#812,#813,#814,#815,#816,#817,#818,#819,#820));
#165=EDGE_LOOP('',(#821,#822,#823,#824));
#166=EDGE_LOOP('',(#825,#826,#827,#828));
#167=EDGE_LOOP('',(#829,#830,#831,#832));
#168=EDGE_LOOP('',(#833,#834,#835,#836));
#169=EDGE_LOOP('',(#837,#838,#839,#840));
#170=EDGE_LOOP('',(#841,#842,#843,#844));
#171=EDGE_LOOP('',(#845,#846,#847,#848));
#172=EDGE_LOOP('',(#849,#850,#851,#852));
#173=EDGE_LOOP('',(#853,#854,#855,#856));
#174=EDGE_LOOP('',(#857,#858,#859,#860));
#175=EDGE_LOOP('',(#861,#862,#863,#864));
#176=EDGE_LOOP('',(#865,#866,#867,#868));
#177=EDGE_LOOP('',(#869,#870,#871,#872));
#178=EDGE_LOOP('',(#873,#874,#875,#876));
#179=EDGE_LOOP('',(#877,#878,#879,#880));
#180=EDGE_LOOP('',(#881,#882,#883,#884));
#181=EDGE_LOOP('',(#885,#886,#887,#888));
#182=EDGE_LOOP('',(#889,#890,#891,#892));
#183=EDGE_LOOP('',(#893,#894,#895,#896));
#184=EDGE_LOOP('',(#897,#898,#899,#900));
#185=EDGE_LOOP('',(#901));
#186=EDGE_LOOP('',(#902));
#187=EDGE_LOOP('',(#903));
#188=EDGE_LOOP('',(#904));
#189=EDGE_LOOP('',(#905));
#190=EDGE_LOOP('',(#906));
#191=EDGE_LOOP('',(#907));
#192=EDGE_LOOP('',(#908));
#193=EDGE_LOOP('',(#909));
#194=EDGE_LOOP('',(#910));
#195=EDGE_LOOP('',(#911));
#196=EDGE_LOOP('',(#912,#913,#914,#915,#916,#917,#918,#919,#920,#921));
#197=EDGE_LOOP('',(#922,#923,#924,#925,#926,#927,#928,#929,#930,#931));
#198=EDGE_LOOP('',(#932,#933,#934,#935,#936,#937));
#199=EDGE_LOOP('',(#938,#939,#940,#941,#942,#943));
#200=EDGE_LOOP('',(#944,#945,#946,#947));
#201=EDGE_LOOP('',(#948,#949,#950,#951));
#202=EDGE_LOOP('',(#952,#953,#954,#955));
#203=EDGE_LOOP('',(#956,#957,#958,#959));
#204=EDGE_LOOP('',(#960,#961,#962,#963));
#205=EDGE_LOOP('',(#964,#965,#966,#967));
#206=EDGE_LOOP('',(#968,#969,#970,#971));
#207=EDGE_LOOP('',(#972,#973,#974,#975));
#208=EDGE_LOOP('',(#976,#977,#978,#979));
#209=EDGE_LOOP('',(#980,#981,#982,#983));
#210=EDGE_LOOP('',(#984,#985,#986,#987));
#211=LINE('',#1410,#330);
#212=LINE('',#1416,#331);
#213=LINE('',#1422,#332);
#214=LINE('',#1428,#333);
#215=LINE('',#1434,#334);
#216=LINE('',#1440,#335);
#217=LINE('',#1446,#336);
#218=LINE('',#1452,#337);
#219=LINE('',#1458,#338);
#220=LINE('',#1464,#339);
#221=LINE('',#1470,#340);
#222=LINE('',#1475,#341);
#223=LINE('',#1477,#342);
#224=LINE('',#1479,#343);
#225=LINE('',#1480,#344);
#226=LINE('',#1484,#345);
#227=LINE('',#1486,#346);
#228=LINE('',#1488,#347);
#229=LINE('',#1489,#348);
#230=LINE('',#1493,#349);
#231=LINE('',#1495,#350);
#232=LINE('',#1497,#351);
#233=LINE('',#1498,#352);
#234=LINE('',#1500,#353);
#235=LINE('',#1501,#354);
#236=LINE('',#1505,#355);
#237=LINE('',#1507,#356);
#238=LINE('',#1509,#357);
#239=LINE('',#1510,#358);
#240=LINE('',#1512,#359);
#241=LINE('',#1513,#360);
#242=LINE('',#1517,#361);
#243=LINE('',#1519,#362);
#244=LINE('',#1521,#363);
#245=LINE('',#1522,#364);
#246=LINE('',#1524,#365);
#247=LINE('',#1526,#366);
#248=LINE('',#1528,#367);
#249=LINE('',#1530,#368);
#250=LINE('',#1532,#369);
#251=LINE('',#1534,#370);
#252=LINE('',#1535,#371);
#253=LINE('',#1538,#372);
#254=LINE('',#1540,#373);
#255=LINE('',#1542,#374);
#256=LINE('',#1544,#375);
#257=LINE('',#1546,#376);
#258=LINE('',#1547,#377);
#259=LINE('',#1550,#378);
#260=LINE('',#1552,#379);
#261=LINE('',#1554,#380);
#262=LINE('',#1556,#381);
#263=LINE('',#1558,#382);
#264=LINE('',#1559,#383);
#265=LINE('',#1561,#384);
#266=LINE('',#1563,#385);
#267=LINE('',#1565,#386);
#268=LINE('',#1567,#387);
#269=LINE('',#1569,#388);
#270=LINE('',#1571,#389);
#271=LINE('',#1572,#390);
#272=LINE('',#1575,#391);
#273=LINE('',#1576,#392);
#274=LINE('',#1579,#393);
#275=LINE('',#1580,#394);
#276=LINE('',#1583,#395);
#277=LINE('',#1585,#396);
#278=LINE('',#1586,#397);
#279=LINE('',#1589,#398);
#280=LINE('',#1591,#399);
#281=LINE('',#1592,#400);
#282=LINE('',#1595,#401);
#283=LINE('',#1597,#402);
#284=LINE('',#1598,#403);
#285=LINE('',#1601,#404);
#286=LINE('',#1603,#405);
#287=LINE('',#1604,#406);
#288=LINE('',#1607,#407);
#289=LINE('',#1608,#408);
#290=LINE('',#1611,#409);
#291=LINE('',#1612,#410);
#292=LINE('',#1615,#411);
#293=LINE('',#1616,#412);
#294=LINE('',#1619,#413);
#295=LINE('',#1620,#414);
#296=LINE('',#1623,#415);
#297=LINE('',#1624,#416);
#298=LINE('',#1626,#417);
#299=LINE('',#1629,#418);
#300=LINE('',#1630,#419);
#301=LINE('',#1633,#420);
#302=LINE('',#1634,#421);
#303=LINE('',#1637,#422);
#304=LINE('',#1638,#423);
#305=LINE('',#1641,#424);
#306=LINE('',#1642,#425);
#307=LINE('',#1645,#426);
#308=LINE('',#1647,#427);
#309=LINE('',#1648,#428);
#310=LINE('',#1651,#429);
#311=LINE('',#1652,#430);
#312=LINE('',#1654,#431);
#313=LINE('',#1657,#432);
#314=LINE('',#1659,#433);
#315=LINE('',#1660,#434);
#316=LINE('',#1662,#435);
#317=LINE('',#1663,#436);
#318=LINE('',#1665,#437);
#319=LINE('',#1666,#438);
#320=LINE('',#1667,#439);
#321=LINE('',#1669,#440);
#322=LINE('',#1671,#441);
#323=LINE('',#1672,#442);
#324=LINE('',#1674,#443);
#325=LINE('',#1675,#444);
#326=LINE('',#1677,#445);
#327=LINE('',#1679,#446);
#328=LINE('',#1681,#447);
#329=LINE('',#1685,#448);
#330=VECTOR('',#1148,1.7);
#331=VECTOR('',#1155,1.7);
#332=VECTOR('',#1162,2.1);
#333=VECTOR('',#1169,2.1);
#334=VECTOR('',#1176,2.1);
#335=VECTOR('',#1183,2.1);
#336=VECTOR('',#1190,2.10000000000001);
#337=VECTOR('',#1197,2.10000000000001);
#338=VECTOR('',#1204,2.10000000000001);
#339=VECTOR('',#1211,2.10000000000001);
#340=VECTOR('',#1218,7.);
#341=VECTOR('',#1223,10.);
#342=VECTOR('',#1224,10.);
#343=VECTOR('',#1225,10.);
#344=VECTOR('',#1226,10.);
#345=VECTOR('',#1229,10.);
#346=VECTOR('',#1230,10.);
#347=VECTOR('',#1231,10.);
#348=VECTOR('',#1232,10.);
#349=VECTOR('',#1235,10.);
#350=VECTOR('',#1236,10.);
#351=VECTOR('',#1237,10.);
#352=VECTOR('',#1238,10.);
#353=VECTOR('',#1241,10.);
#354=VECTOR('',#1242,10.);
#355=VECTOR('',#1245,10.);
#356=VECTOR('',#1246,10.);
#357=VECTOR('',#1247,10.);
#358=VECTOR('',#1248,10.);
#359=VECTOR('',#1251,10.);
#360=VECTOR('',#1252,10.);
#361=VECTOR('',#1255,10.);
#362=VECTOR('',#1256,10.);
#363=VECTOR('',#1257,10.);
#364=VECTOR('',#1258,10.);
#365=VECTOR('',#1259,10.);
#366=VECTOR('',#1260,10.);
#367=VECTOR('',#1261,10.);
#368=VECTOR('',#1262,10.);
#369=VECTOR('',#1263,10.);
#370=VECTOR('',#1264,10.);
#371=VECTOR('',#1265,10.);
#372=VECTOR('',#1266,10.);
#373=VECTOR('',#1267,10.);
#374=VECTOR('',#1268,10.);
#375=VECTOR('',#1269,10.);
#376=VECTOR('',#1270,10.);
#377=VECTOR('',#1271,10.);
#378=VECTOR('',#1272,10.);
#379=VECTOR('',#1273,10.);
#380=VECTOR('',#1274,10.);
#381=VECTOR('',#1275,10.);
#382=VECTOR('',#1276,10.);
#383=VECTOR('',#1277,10.);
#384=VECTOR('',#1278,10.);
#385=VECTOR('',#1279,10.);
#386=VECTOR('',#1280,10.);
#387=VECTOR('',#1281,10.);
#388=VECTOR('',#1282,10.);
#389=VECTOR('',#1283,10.);
#390=VECTOR('',#1284,10.);
#391=VECTOR('',#1287,10.);
#392=VECTOR('',#1288,10.);
#393=VECTOR('',#1291,10.);
#394=VECTOR('',#1292,10.);
#395=VECTOR('',#1295,10.);
#396=VECTOR('',#1296,10.);
#397=VECTOR('',#1297,10.);
#398=VECTOR('',#1300,10.);
#399=VECTOR('',#1301,10.);
#400=VECTOR('',#1302,10.);
#401=VECTOR('',#1305,10.);
#402=VECTOR('',#1306,10.);
#403=VECTOR('',#1307,10.);
#404=VECTOR('',#1310,10.);
#405=VECTOR('',#1311,10.);
#406=VECTOR('',#1312,10.);
#407=VECTOR('',#1315,10.);
#408=VECTOR('',#1316,10.);
#409=VECTOR('',#1319,10.);
#410=VECTOR('',#1320,10.);
#411=VECTOR('',#1323,10.);
#412=VECTOR('',#1324,10.);
#413=VECTOR('',#1327,10.);
#414=VECTOR('',#1328,10.);
#415=VECTOR('',#1331,10.);
#416=VECTOR('',#1332,10.);
#417=VECTOR('',#1335,10.);
#418=VECTOR('',#1338,10.);
#419=VECTOR('',#1339,10.);
#420=VECTOR('',#1342,10.);
#421=VECTOR('',#1343,10.);
#422=VECTOR('',#1346,10.);
#423=VECTOR('',#1347,10.);
#424=VECTOR('',#1350,10.);
#425=VECTOR('',#1351,10.);
#426=VECTOR('',#1354,10.);
#427=VECTOR('',#1355,10.);
#428=VECTOR('',#1356,10.);
#429=VECTOR('',#1359,10.);
#430=VECTOR('',#1360,10.);
#431=VECTOR('',#1363,10.);
#432=VECTOR('',#1366,10.);
#433=VECTOR('',#1367,10.);
#434=VECTOR('',#1368,10.);
#435=VECTOR('',#1369,10.);
#436=VECTOR('',#1370,10.);
#437=VECTOR('',#1371,10.);
#438=VECTOR('',#1372,10.);
#439=VECTOR('',#1373,10.);
#440=VECTOR('',#1374,10.);
#441=VECTOR('',#1375,10.);
#442=VECTOR('',#1376,10.);
#443=VECTOR('',#1379,10.);
#444=VECTOR('',#1380,10.);
#445=VECTOR('',#1383,10.);
#446=VECTOR('',#1386,10.);
#447=VECTOR('',#1389,10.);
#448=VECTOR('',#1396,10.);
#449=CIRCLE('',#1072,1.7);
#450=CIRCLE('',#1073,1.7);
#451=CIRCLE('',#1075,1.7);
#452=CIRCLE('',#1076,1.7);
#453=CIRCLE('',#1078,2.1);
#454=CIRCLE('',#1079,2.1);
#455=CIRCLE('',#1081,2.1);
#456=CIRCLE('',#1082,2.1);
#457=CIRCLE('',#1084,2.1);
#458=CIRCLE('',#1085,2.1);
#459=CIRCLE('',#1087,2.1);
#460=CIRCLE('',#1088,2.1);
#461=CIRCLE('',#1090,2.10000000000001);
#462=CIRCLE('',#1091,2.10000000000001);
#463=CIRCLE('',#1093,2.10000000000001);
#464=CIRCLE('',#1094,2.10000000000001);
#465=CIRCLE('',#1096,2.10000000000001);
#466=CIRCLE('',#1097,2.10000000000001);
#467=CIRCLE('',#1099,2.10000000000001);
#468=CIRCLE('',#1100,2.10000000000001);
#469=CIRCLE('',#1102,7.);
#470=CIRCLE('',#1103,7.);
#471=VERTEX_POINT('',#1407);
#472=VERTEX_POINT('',#1409);
#473=VERTEX_POINT('',#1413);
#474=VERTEX_POINT('',#1415);
#475=VERTEX_POINT('',#1419);
#476=VERTEX_POINT('',#1421);
#477=VERTEX_POINT('',#1425);
#478=VERTEX_POINT('',#1427);
#479=VERTEX_POINT('',#1431);
#480=VERTEX_POINT('',#1433);
#481=VERTEX_POINT('',#1437);
#482=VERTEX_POINT('',#1439);
#483=VERTEX_POINT('',#1443);
#484=VERTEX_POINT('',#1445);
#485=VERTEX_POINT('',#1449);
#486=VERTEX_POINT('',#1451);
#487=VERTEX_POINT('',#1455);
#488=VERTEX_POINT('',#1457);
#489=VERTEX_POINT('',#1461);
#490=VERTEX_POINT('',#1463);
#491=VERTEX_POINT('',#1467);
#492=VERTEX_POINT('',#1469);
#493=VERTEX_POINT('',#1473);
#494=VERTEX_POINT('',#1474);
#495=VERTEX_POINT('',#1476);
#496=VERTEX_POINT('',#1478);
#497=VERTEX_POINT('',#1482);
#498=VERTEX_POINT('',#1483);
#499=VERTEX_POINT('',#1485);
#500=VERTEX_POINT('',#1487);
#501=VERTEX_POINT('',#1491);
#502=VERTEX_POINT('',#1492);
#503=VERTEX_POINT('',#1494);
#504=VERTEX_POINT('',#1496);
#505=VERTEX_POINT('',#1503);
#506=VERTEX_POINT('',#1504);
#507=VERTEX_POINT('',#1506);
#508=VERTEX_POINT('',#1508);
#509=VERTEX_POINT('',#1515);
#510=VERTEX_POINT('',#1516);
#511=VERTEX_POINT('',#1518);
#512=VERTEX_POINT('',#1520);
#513=VERTEX_POINT('',#1523);
#514=VERTEX_POINT('',#1525);
#515=VERTEX_POINT('',#1527);
#516=VERTEX_POINT('',#1529);
#517=VERTEX_POINT('',#1531);
#518=VERTEX_POINT('',#1533);
#519=VERTEX_POINT('',#1536);
#520=VERTEX_POINT('',#1537);
#521=VERTEX_POINT('',#1539);
#522=VERTEX_POINT('',#1541);
#523=VERTEX_POINT('',#1543);
#524=VERTEX_POINT('',#1545);
#525=VERTEX_POINT('',#1548);
#526=VERTEX_POINT('',#1549);
#527=VERTEX_POINT('',#1551);
#528=VERTEX_POINT('',#1553);
#529=VERTEX_POINT('',#1555);
#530=VERTEX_POINT('',#1557);
#531=VERTEX_POINT('',#1560);
#532=VERTEX_POINT('',#1562);
#533=VERTEX_POINT('',#1564);
#534=VERTEX_POINT('',#1566);
#535=VERTEX_POINT('',#1568);
#536=VERTEX_POINT('',#1570);
#537=VERTEX_POINT('',#1574);
#538=VERTEX_POINT('',#1578);
#539=VERTEX_POINT('',#1582);
#540=VERTEX_POINT('',#1584);
#541=VERTEX_POINT('',#1588);
#542=VERTEX_POINT('',#1590);
#543=VERTEX_POINT('',#1594);
#544=VERTEX_POINT('',#1596);
#545=VERTEX_POINT('',#1600);
#546=VERTEX_POINT('',#1602);
#547=VERTEX_POINT('',#1606);
#548=VERTEX_POINT('',#1610);
#549=VERTEX_POINT('',#1614);
#550=VERTEX_POINT('',#1618);
#551=VERTEX_POINT('',#1622);
#552=VERTEX_POINT('',#1628);
#553=VERTEX_POINT('',#1632);
#554=VERTEX_POINT('',#1636);
#555=VERTEX_POINT('',#1640);
#556=VERTEX_POINT('',#1644);
#557=VERTEX_POINT('',#1646);
#558=VERTEX_POINT('',#1650);
#559=VERTEX_POINT('',#1656);
#560=VERTEX_POINT('',#1658);
#561=VERTEX_POINT('',#1661);
#562=VERTEX_POINT('',#1664);
#563=VERTEX_POINT('',#1668);
#564=VERTEX_POINT('',#1670);
#565=EDGE_CURVE('',#471,#471,#449,.T.);
#566=EDGE_CURVE('',#471,#472,#211,.T.);
#567=EDGE_CURVE('',#472,#472,#450,.T.);
#568=EDGE_CURVE('',#473,#473,#451,.T.);
#569=EDGE_CURVE('',#473,#474,#212,.T.);
#570=EDGE_CURVE('',#474,#474,#452,.T.);
#571=EDGE_CURVE('',#475,#475,#453,.T.);
#572=EDGE_CURVE('',#475,#476,#213,.T.);
#573=EDGE_CURVE('',#476,#476,#454,.T.);
#574=EDGE_CURVE('',#477,#477,#455,.T.);
#575=EDGE_CURVE('',#477,#478,#214,.T.);
#576=EDGE_CURVE('',#478,#478,#456,.T.);
#577=EDGE_CURVE('',#479,#479,#457,.T.);
#578=EDGE_CURVE('',#479,#480,#215,.T.);
#579=EDGE_CURVE('',#480,#480,#458,.T.);
#580=EDGE_CURVE('',#481,#481,#459,.T.);
#581=EDGE_CURVE('',#481,#482,#216,.T.);
#582=EDGE_CURVE('',#482,#482,#460,.T.);
#583=EDGE_CURVE('',#483,#483,#461,.T.);
#584=EDGE_CURVE('',#483,#484,#217,.T.);
#585=EDGE_CURVE('',#484,#484,#462,.T.);
#586=EDGE_CURVE('',#485,#485,#463,.T.);
#587=EDGE_CURVE('',#485,#486,#218,.T.);
#588=EDGE_CURVE('',#486,#486,#464,.T.);
#589=EDGE_CURVE('',#487,#487,#465,.T.);
#590=EDGE_CURVE('',#487,#488,#219,.T.);
#591=EDGE_CURVE('',#488,#488,#466,.T.);
#592=EDGE_CURVE('',#489,#489,#467,.T.);
#593=EDGE_CURVE('',#489,#490,#220,.T.);
#594=EDGE_CURVE('',#490,#490,#468,.T.);
#595=EDGE_CURVE('',#491,#491,#469,.T.);
#596=EDGE_CURVE('',#491,#492,#221,.T.);
#597=EDGE_CURVE('',#492,#492,#470,.T.);
#598=EDGE_CURVE('',#493,#494,#222,.T.);
#599=EDGE_CURVE('',#495,#493,#223,.T.);
#600=EDGE_CURVE('',#496,#495,#224,.T.);
#601=EDGE_CURVE('',#496,#494,#225,.T.);
#602=EDGE_CURVE('',#497,#498,#226,.T.);
#603=EDGE_CURVE('',#497,#499,#227,.T.);
#604=EDGE_CURVE('',#499,#500,#228,.T.);
#605=EDGE_CURVE('',#498,#500,#229,.T.);
#606=EDGE_CURVE('',#501,#502,#230,.T.);
#607=EDGE_CURVE('',#501,#503,#231,.T.);
#608=EDGE_CURVE('',#503,#504,#232,.T.);
#609=EDGE_CURVE('',#502,#504,#233,.T.);
#610=EDGE_CURVE('',#503,#496,#234,.T.);
#611=EDGE_CURVE('',#504,#495,#235,.T.);
#612=EDGE_CURVE('',#505,#506,#236,.T.);
#613=EDGE_CURVE('',#507,#505,#237,.T.);
#614=EDGE_CURVE('',#508,#507,#238,.T.);
#615=EDGE_CURVE('',#508,#506,#239,.T.);
#616=EDGE_CURVE('',#499,#508,#240,.T.);
#617=EDGE_CURVE('',#500,#507,#241,.T.);
#618=EDGE_CURVE('',#509,#510,#242,.T.);
#619=EDGE_CURVE('',#510,#511,#243,.T.);
#620=EDGE_CURVE('',#511,#512,#244,.T.);
#621=EDGE_CURVE('',#512,#509,#245,.T.);
#622=EDGE_CURVE('',#493,#513,#246,.T.);
#623=EDGE_CURVE('',#513,#514,#247,.T.);
#624=EDGE_CURVE('',#514,#515,#248,.T.);
#625=EDGE_CURVE('',#515,#516,#249,.T.);
#626=EDGE_CURVE('',#516,#517,#250,.T.);
#627=EDGE_CURVE('',#517,#518,#251,.T.);
#628=EDGE_CURVE('',#518,#502,#252,.T.);
#629=EDGE_CURVE('',#519,#520,#253,.T.);
#630=EDGE_CURVE('',#520,#521,#254,.T.);
#631=EDGE_CURVE('',#521,#522,#255,.T.);
#632=EDGE_CURVE('',#522,#523,#256,.T.);
#633=EDGE_CURVE('',#523,#524,#257,.T.);
#634=EDGE_CURVE('',#524,#519,#258,.T.);
#635=EDGE_CURVE('',#525,#526,#259,.T.);
#636=EDGE_CURVE('',#526,#527,#260,.T.);
#637=EDGE_CURVE('',#527,#528,#261,.T.);
#638=EDGE_CURVE('',#528,#529,#262,.T.);
#639=EDGE_CURVE('',#529,#530,#263,.T.);
#640=EDGE_CURVE('',#530,#525,#264,.T.);
#641=EDGE_CURVE('',#505,#531,#265,.T.);
#642=EDGE_CURVE('',#531,#532,#266,.T.);
#643=EDGE_CURVE('',#532,#533,#267,.T.);
#644=EDGE_CURVE('',#533,#534,#268,.T.);
#645=EDGE_CURVE('',#534,#535,#269,.T.);
#646=EDGE_CURVE('',#535,#536,#270,.T.);
#647=EDGE_CURVE('',#536,#498,#271,.T.);
#648=EDGE_CURVE('',#506,#537,#272,.T.);
#649=EDGE_CURVE('',#531,#537,#273,.T.);
#650=EDGE_CURVE('',#538,#518,#274,.T.);
#651=EDGE_CURVE('',#538,#501,#275,.T.);
#652=EDGE_CURVE('',#515,#539,#276,.T.);
#653=EDGE_CURVE('',#540,#514,#277,.T.);
#654=EDGE_CURVE('',#540,#539,#278,.T.);
#655=EDGE_CURVE('',#541,#525,#279,.T.);
#656=EDGE_CURVE('',#541,#542,#280,.T.);
#657=EDGE_CURVE('',#542,#526,#281,.T.);
#658=EDGE_CURVE('',#543,#519,#282,.T.);
#659=EDGE_CURVE('',#543,#544,#283,.T.);
#660=EDGE_CURVE('',#544,#520,#284,.T.);
#661=EDGE_CURVE('',#536,#545,#285,.T.);
#662=EDGE_CURVE('',#546,#535,#286,.T.);
#663=EDGE_CURVE('',#546,#545,#287,.T.);
#664=EDGE_CURVE('',#547,#534,#288,.T.);
#665=EDGE_CURVE('',#547,#546,#289,.T.);
#666=EDGE_CURVE('',#527,#548,#290,.T.);
#667=EDGE_CURVE('',#542,#548,#291,.T.);
#668=EDGE_CURVE('',#549,#513,#292,.T.);
#669=EDGE_CURVE('',#549,#540,#293,.T.);
#670=EDGE_CURVE('',#521,#550,#294,.T.);
#671=EDGE_CURVE('',#544,#550,#295,.T.);
#672=EDGE_CURVE('',#548,#551,#296,.T.);
#673=EDGE_CURVE('',#528,#551,#297,.T.);
#674=EDGE_CURVE('',#494,#549,#298,.T.);
#675=EDGE_CURVE('',#550,#552,#299,.T.);
#676=EDGE_CURVE('',#522,#552,#300,.T.);
#677=EDGE_CURVE('',#553,#533,#301,.T.);
#678=EDGE_CURVE('',#553,#547,#302,.T.);
#679=EDGE_CURVE('',#539,#554,#303,.T.);
#680=EDGE_CURVE('',#516,#554,#304,.T.);
#681=EDGE_CURVE('',#555,#530,#305,.T.);
#682=EDGE_CURVE('',#555,#541,#306,.T.);
#683=EDGE_CURVE('',#556,#509,#307,.T.);
#684=EDGE_CURVE('',#556,#557,#308,.T.);
#685=EDGE_CURVE('',#557,#510,#309,.T.);
#686=EDGE_CURVE('',#558,#529,#310,.T.);
#687=EDGE_CURVE('',#555,#558,#311,.T.);
#688=EDGE_CURVE('',#545,#497,#312,.T.);
#689=EDGE_CURVE('',#559,#556,#313,.T.);
#690=EDGE_CURVE('',#560,#559,#314,.T.);
#691=EDGE_CURVE('',#557,#560,#315,.T.);
#692=EDGE_CURVE('',#553,#561,#316,.T.);
#693=EDGE_CURVE('',#561,#537,#317,.T.);
#694=EDGE_CURVE('',#538,#562,#318,.T.);
#695=EDGE_CURVE('',#562,#554,#319,.T.);
#696=EDGE_CURVE('',#558,#551,#320,.T.);
#697=EDGE_CURVE('',#563,#543,#321,.T.);
#698=EDGE_CURVE('',#563,#564,#322,.T.);
#699=EDGE_CURVE('',#564,#552,#323,.T.);
#700=EDGE_CURVE('',#560,#511,#324,.T.);
#701=EDGE_CURVE('',#559,#512,#325,.T.);
#702=EDGE_CURVE('',#561,#532,#326,.T.);
#703=EDGE_CURVE('',#563,#524,#327,.T.);
#704=EDGE_CURVE('',#564,#523,#328,.T.);
#705=EDGE_CURVE('',#562,#517,#329,.T.);
#706=ORIENTED_EDGE('',*,*,#565,.F.);
#707=ORIENTED_EDGE('',*,*,#566,.T.);
#708=ORIENTED_EDGE('',*,*,#567,.F.);
#709=ORIENTED_EDGE('',*,*,#566,.F.);
#710=ORIENTED_EDGE('',*,*,#568,.F.);
#711=ORIENTED_EDGE('',*,*,#569,.T.);
#712=ORIENTED_EDGE('',*,*,#570,.F.);
#713=ORIENTED_EDGE('',*,*,#569,.F.);
#714=ORIENTED_EDGE('',*,*,#571,.F.);
#715=ORIENTED_EDGE('',*,*,#572,.T.);
#716=ORIENTED_EDGE('',*,*,#573,.F.);
#717=ORIENTED_EDGE('',*,*,#572,.F.);
#718=ORIENTED_EDGE('',*,*,#574,.F.);
#719=ORIENTED_EDGE('',*,*,#575,.T.);
#720=ORIENTED_EDGE('',*,*,#576,.F.);
#721=ORIENTED_EDGE('',*,*,#575,.F.);
#722=ORIENTED_EDGE('',*,*,#577,.F.);
#723=ORIENTED_EDGE('',*,*,#578,.T.);
#724=ORIENTED_EDGE('',*,*,#579,.F.);
#725=ORIENTED_EDGE('',*,*,#578,.F.);
#726=ORIENTED_EDGE('',*,*,#580,.F.);
#727=ORIENTED_EDGE('',*,*,#581,.T.);
#728=ORIENTED_EDGE('',*,*,#582,.F.);
#729=ORIENTED_EDGE('',*,*,#581,.F.);
#730=ORIENTED_EDGE('',*,*,#583,.F.);
#731=ORIENTED_EDGE('',*,*,#584,.T.);
#732=ORIENTED_EDGE('',*,*,#585,.F.);
#733=ORIENTED_EDGE('',*,*,#584,.F.);
#734=ORIENTED_EDGE('',*,*,#586,.F.);
#735=ORIENTED_EDGE('',*,*,#587,.T.);
#736=ORIENTED_EDGE('',*,*,#588,.F.);
#737=ORIENTED_EDGE('',*,*,#587,.F.);
#738=ORIENTED_EDGE('',*,*,#589,.F.);
#739=ORIENTED_EDGE('',*,*,#590,.T.);
#740=ORIENTED_EDGE('',*,*,#591,.F.);
#741=ORIENTED_EDGE('',*,*,#590,.F.);
#742=ORIENTED_EDGE('',*,*,#592,.F.);
#743=ORIENTED_EDGE('',*,*,#593,.T.);
#744=ORIENTED_EDGE('',*,*,#594,.F.);
#745=ORIENTED_EDGE('',*,*,#593,.F.);
#746=ORIENTED_EDGE('',*,*,#595,.F.);
#747=ORIENTED_EDGE('',*,*,#596,.T.);
#748=ORIENTED_EDGE('',*,*,#597,.F.);
#749=ORIENTED_EDGE('',*,*,#596,.F.);
#750=ORIENTED_EDGE('',*,*,#598,.F.);
#751=ORIENTED_EDGE('',*,*,#599,.F.);
#752=ORIENTED_EDGE('',*,*,#600,.F.);
#753=ORIENTED_EDGE('',*,*,#601,.T.);
#754=ORIENTED_EDGE('',*,*,#602,.F.);
#755=ORIENTED_EDGE('',*,*,#603,.T.);
#756=ORIENTED_EDGE('',*,*,#604,.T.);
#757=ORIENTED_EDGE('',*,*,#605,.F.);
#758=ORIENTED_EDGE('',*,*,#606,.F.);
#759=ORIENTED_EDGE('',*,*,#607,.T.);
#760=ORIENTED_EDGE('',*,*,#608,.T.);
#761=ORIENTED_EDGE('',*,*,#609,.F.);
#762=ORIENTED_EDGE('',*,*,#610,.T.);
#763=ORIENTED_EDGE('',*,*,#600,.T.);
#764=ORIENTED_EDGE('',*,*,#611,.F.);
#765=ORIENTED_EDGE('',*,*,#608,.F.);
#766=ORIENTED_EDGE('',*,*,#612,.F.);
#767=ORIENTED_EDGE('',*,*,#613,.F.);
#768=ORIENTED_EDGE('',*,*,#614,.F.);
#769=ORIENTED_EDGE('',*,*,#615,.T.);
#770=ORIENTED_EDGE('',*,*,#616,.T.);
#771=ORIENTED_EDGE('',*,*,#614,.T.);
#772=ORIENTED_EDGE('',*,*,#617,.F.);
#773=ORIENTED_EDGE('',*,*,#604,.F.);
#774=ORIENTED_EDGE('',*,*,#618,.T.);
#775=ORIENTED_EDGE('',*,*,#619,.T.);
#776=ORIENTED_EDGE('',*,*,#620,.T.);
#777=ORIENTED_EDGE('',*,*,#621,.T.);
#778=ORIENTED_EDGE('',*,*,#567,.T.);
#779=ORIENTED_EDGE('',*,*,#570,.T.);
#780=ORIENTED_EDGE('',*,*,#573,.T.);
#781=ORIENTED_EDGE('',*,*,#576,.T.);
#782=ORIENTED_EDGE('',*,*,#579,.T.);
#783=ORIENTED_EDGE('',*,*,#582,.T.);
#784=ORIENTED_EDGE('',*,*,#585,.T.);
#785=ORIENTED_EDGE('',*,*,#588,.T.);
#786=ORIENTED_EDGE('',*,*,#591,.T.);
#787=ORIENTED_EDGE('',*,*,#594,.T.);
#788=ORIENTED_EDGE('',*,*,#597,.T.);
#789=ORIENTED_EDGE('',*,*,#622,.T.);
#790=ORIENTED_EDGE('',*,*,#623,.T.);
#791=ORIENTED_EDGE('',*,*,#624,.T.);
#792=ORIENTED_EDGE('',*,*,#625,.T.);
#793=ORIENTED_EDGE('',*,*,#626,.T.);
#794=ORIENTED_EDGE('',*,*,#627,.T.);
#795=ORIENTED_EDGE('',*,*,#628,.T.);
#796=ORIENTED_EDGE('',*,*,#609,.T.);
#797=ORIENTED_EDGE('',*,*,#611,.T.);
#798=ORIENTED_EDGE('',*,*,#599,.T.);
#799=ORIENTED_EDGE('',*,*,#629,.T.);
#800=ORIENTED_EDGE('',*,*,#630,.T.);
#801=ORIENTED_EDGE('',*,*,#631,.T.);
#802=ORIENTED_EDGE('',*,*,#632,.T.);
#803=ORIENTED_EDGE('',*,*,#633,.T.);
#804=ORIENTED_EDGE('',*,*,#634,.T.);
#805=ORIENTED_EDGE('',*,*,#635,.T.);
#806=ORIENTED_EDGE('',*,*,#636,.T.);
#807=ORIENTED_EDGE('',*,*,#637,.T.);
#808=ORIENTED_EDGE('',*,*,#638,.T.);
#809=ORIENTED_EDGE('',*,*,#639,.T.);
#810=ORIENTED_EDGE('',*,*,#640,.T.);
#811=ORIENTED_EDGE('',*,*,#641,.T.);
#812=ORIENTED_EDGE('',*,*,#642,.T.);
#813=ORIENTED_EDGE('',*,*,#643,.T.);
#814=ORIENTED_EDGE('',*,*,#644,.T.);
#815=ORIENTED_EDGE('',*,*,#645,.T.);
#816=ORIENTED_EDGE('',*,*,#646,.T.);
#817=ORIENTED_EDGE('',*,*,#647,.T.);
#818=ORIENTED_EDGE('',*,*,#605,.T.);
#819=ORIENTED_EDGE('',*,*,#617,.T.);
#820=ORIENTED_EDGE('',*,*,#613,.T.);
#821=ORIENTED_EDGE('',*,*,#612,.T.);
#822=ORIENTED_EDGE('',*,*,#648,.T.);
#823=ORIENTED_EDGE('',*,*,#649,.F.);
#824=ORIENTED_EDGE('',*,*,#641,.F.);
#825=ORIENTED_EDGE('',*,*,#606,.T.);
#826=ORIENTED_EDGE('',*,*,#628,.F.);
#827=ORIENTED_EDGE('',*,*,#650,.F.);
#828=ORIENTED_EDGE('',*,*,#651,.T.);
#829=ORIENTED_EDGE('',*,*,#652,.F.);
#830=ORIENTED_EDGE('',*,*,#624,.F.);
#831=ORIENTED_EDGE('',*,*,#653,.F.);
#832=ORIENTED_EDGE('',*,*,#654,.T.);
#833=ORIENTED_EDGE('',*,*,#655,.F.);
#834=ORIENTED_EDGE('',*,*,#656,.T.);
#835=ORIENTED_EDGE('',*,*,#657,.T.);
#836=ORIENTED_EDGE('',*,*,#635,.F.);
#837=ORIENTED_EDGE('',*,*,#658,.F.);
#838=ORIENTED_EDGE('',*,*,#659,.T.);
#839=ORIENTED_EDGE('',*,*,#660,.T.);
#840=ORIENTED_EDGE('',*,*,#629,.F.);
#841=ORIENTED_EDGE('',*,*,#661,.F.);
#842=ORIENTED_EDGE('',*,*,#646,.F.);
#843=ORIENTED_EDGE('',*,*,#662,.F.);
#844=ORIENTED_EDGE('',*,*,#663,.T.);
#845=ORIENTED_EDGE('',*,*,#664,.F.);
#846=ORIENTED_EDGE('',*,*,#665,.T.);
#847=ORIENTED_EDGE('',*,*,#662,.T.);
#848=ORIENTED_EDGE('',*,*,#645,.F.);
#849=ORIENTED_EDGE('',*,*,#666,.F.);
#850=ORIENTED_EDGE('',*,*,#636,.F.);
#851=ORIENTED_EDGE('',*,*,#657,.F.);
#852=ORIENTED_EDGE('',*,*,#667,.T.);
#853=ORIENTED_EDGE('',*,*,#668,.F.);
#854=ORIENTED_EDGE('',*,*,#669,.T.);
#855=ORIENTED_EDGE('',*,*,#653,.T.);
#856=ORIENTED_EDGE('',*,*,#623,.F.);
#857=ORIENTED_EDGE('',*,*,#670,.F.);
#858=ORIENTED_EDGE('',*,*,#630,.F.);
#859=ORIENTED_EDGE('',*,*,#660,.F.);
#860=ORIENTED_EDGE('',*,*,#671,.T.);
#861=ORIENTED_EDGE('',*,*,#666,.T.);
#862=ORIENTED_EDGE('',*,*,#672,.T.);
#863=ORIENTED_EDGE('',*,*,#673,.F.);
#864=ORIENTED_EDGE('',*,*,#637,.F.);
#865=ORIENTED_EDGE('',*,*,#598,.T.);
#866=ORIENTED_EDGE('',*,*,#674,.T.);
#867=ORIENTED_EDGE('',*,*,#668,.T.);
#868=ORIENTED_EDGE('',*,*,#622,.F.);
#869=ORIENTED_EDGE('',*,*,#670,.T.);
#870=ORIENTED_EDGE('',*,*,#675,.T.);
#871=ORIENTED_EDGE('',*,*,#676,.F.);
#872=ORIENTED_EDGE('',*,*,#631,.F.);
#873=ORIENTED_EDGE('',*,*,#664,.T.);
#874=ORIENTED_EDGE('',*,*,#644,.F.);
#875=ORIENTED_EDGE('',*,*,#677,.F.);
#876=ORIENTED_EDGE('',*,*,#678,.T.);
#877=ORIENTED_EDGE('',*,*,#652,.T.);
#878=ORIENTED_EDGE('',*,*,#679,.T.);
#879=ORIENTED_EDGE('',*,*,#680,.F.);
#880=ORIENTED_EDGE('',*,*,#625,.F.);
#881=ORIENTED_EDGE('',*,*,#655,.T.);
#882=ORIENTED_EDGE('',*,*,#640,.F.);
#883=ORIENTED_EDGE('',*,*,#681,.F.);
#884=ORIENTED_EDGE('',*,*,#682,.T.);
#885=ORIENTED_EDGE('',*,*,#618,.F.);
#886=ORIENTED_EDGE('',*,*,#683,.F.);
#887=ORIENTED_EDGE('',*,*,#684,.T.);
#888=ORIENTED_EDGE('',*,*,#685,.T.);
#889=ORIENTED_EDGE('',*,*,#681,.T.);
#890=ORIENTED_EDGE('',*,*,#639,.F.);
#891=ORIENTED_EDGE('',*,*,#686,.F.);
#892=ORIENTED_EDGE('',*,*,#687,.F.);
#893=ORIENTED_EDGE('',*,*,#602,.T.);
#894=ORIENTED_EDGE('',*,*,#647,.F.);
#895=ORIENTED_EDGE('',*,*,#661,.T.);
#896=ORIENTED_EDGE('',*,*,#688,.T.);
#897=ORIENTED_EDGE('',*,*,#684,.F.);
#898=ORIENTED_EDGE('',*,*,#689,.F.);
#899=ORIENTED_EDGE('',*,*,#690,.F.);
#900=ORIENTED_EDGE('',*,*,#691,.F.);
#901=ORIENTED_EDGE('',*,*,#565,.T.);
#902=ORIENTED_EDGE('',*,*,#568,.T.);
#903=ORIENTED_EDGE('',*,*,#571,.T.);
#904=ORIENTED_EDGE('',*,*,#574,.T.);
#905=ORIENTED_EDGE('',*,*,#577,.T.);
#906=ORIENTED_EDGE('',*,*,#580,.T.);
#907=ORIENTED_EDGE('',*,*,#583,.T.);
#908=ORIENTED_EDGE('',*,*,#586,.T.);
#909=ORIENTED_EDGE('',*,*,#589,.T.);
#910=ORIENTED_EDGE('',*,*,#592,.T.);
#911=ORIENTED_EDGE('',*,*,#595,.T.);
#912=ORIENTED_EDGE('',*,*,#688,.F.);
#913=ORIENTED_EDGE('',*,*,#663,.F.);
#914=ORIENTED_EDGE('',*,*,#665,.F.);
#915=ORIENTED_EDGE('',*,*,#678,.F.);
#916=ORIENTED_EDGE('',*,*,#692,.T.);
#917=ORIENTED_EDGE('',*,*,#693,.T.);
#918=ORIENTED_EDGE('',*,*,#648,.F.);
#919=ORIENTED_EDGE('',*,*,#615,.F.);
#920=ORIENTED_EDGE('',*,*,#616,.F.);
#921=ORIENTED_EDGE('',*,*,#603,.F.);
#922=ORIENTED_EDGE('',*,*,#651,.F.);
#923=ORIENTED_EDGE('',*,*,#694,.T.);
#924=ORIENTED_EDGE('',*,*,#695,.T.);
#925=ORIENTED_EDGE('',*,*,#679,.F.);
#926=ORIENTED_EDGE('',*,*,#654,.F.);
#927=ORIENTED_EDGE('',*,*,#669,.F.);
#928=ORIENTED_EDGE('',*,*,#674,.F.);
#929=ORIENTED_EDGE('',*,*,#601,.F.);
#930=ORIENTED_EDGE('',*,*,#610,.F.);
#931=ORIENTED_EDGE('',*,*,#607,.F.);
#932=ORIENTED_EDGE('',*,*,#682,.F.);
#933=ORIENTED_EDGE('',*,*,#687,.T.);
#934=ORIENTED_EDGE('',*,*,#696,.T.);
#935=ORIENTED_EDGE('',*,*,#672,.F.);
#936=ORIENTED_EDGE('',*,*,#667,.F.);
#937=ORIENTED_EDGE('',*,*,#656,.F.);
#938=ORIENTED_EDGE('',*,*,#697,.F.);
#939=ORIENTED_EDGE('',*,*,#698,.T.);
#940=ORIENTED_EDGE('',*,*,#699,.T.);
#941=ORIENTED_EDGE('',*,*,#675,.F.);
#942=ORIENTED_EDGE('',*,*,#671,.F.);
#943=ORIENTED_EDGE('',*,*,#659,.F.);
#944=ORIENTED_EDGE('',*,*,#620,.F.);
#945=ORIENTED_EDGE('',*,*,#700,.F.);
#946=ORIENTED_EDGE('',*,*,#690,.T.);
#947=ORIENTED_EDGE('',*,*,#701,.T.);
#948=ORIENTED_EDGE('',*,*,#677,.T.);
#949=ORIENTED_EDGE('',*,*,#643,.F.);
#950=ORIENTED_EDGE('',*,*,#702,.F.);
#951=ORIENTED_EDGE('',*,*,#692,.F.);
#952=ORIENTED_EDGE('',*,*,#658,.T.);
#953=ORIENTED_EDGE('',*,*,#634,.F.);
#954=ORIENTED_EDGE('',*,*,#703,.F.);
#955=ORIENTED_EDGE('',*,*,#697,.T.);
#956=ORIENTED_EDGE('',*,*,#703,.T.);
#957=ORIENTED_EDGE('',*,*,#633,.F.);
#958=ORIENTED_EDGE('',*,*,#704,.F.);
#959=ORIENTED_EDGE('',*,*,#698,.F.);
#960=ORIENTED_EDGE('',*,*,#649,.T.);
#961=ORIENTED_EDGE('',*,*,#693,.F.);
#962=ORIENTED_EDGE('',*,*,#702,.T.);
#963=ORIENTED_EDGE('',*,*,#642,.F.);
#964=ORIENTED_EDGE('',*,*,#673,.T.);
#965=ORIENTED_EDGE('',*,*,#696,.F.);
#966=ORIENTED_EDGE('',*,*,#686,.T.);
#967=ORIENTED_EDGE('',*,*,#638,.F.);
#968=ORIENTED_EDGE('',*,*,#680,.T.);
#969=ORIENTED_EDGE('',*,*,#695,.F.);
#970=ORIENTED_EDGE('',*,*,#705,.T.);
#971=ORIENTED_EDGE('',*,*,#626,.F.);
#972=ORIENTED_EDGE('',*,*,#650,.T.);
#973=ORIENTED_EDGE('',*,*,#627,.F.);
#974=ORIENTED_EDGE('',*,*,#705,.F.);
#975=ORIENTED_EDGE('',*,*,#694,.F.);
#976=ORIENTED_EDGE('',*,*,#676,.T.);
#977=ORIENTED_EDGE('',*,*,#699,.F.);
#978=ORIENTED_EDGE('',*,*,#704,.T.);
#979=ORIENTED_EDGE('',*,*,#632,.F.);
#980=ORIENTED_EDGE('',*,*,#619,.F.);
#981=ORIENTED_EDGE('',*,*,#685,.F.);
#982=ORIENTED_EDGE('',*,*,#691,.T.);
#983=ORIENTED_EDGE('',*,*,#700,.T.);
#984=ORIENTED_EDGE('',*,*,#689,.T.);
#985=ORIENTED_EDGE('',*,*,#683,.T.);
#986=ORIENTED_EDGE('',*,*,#621,.F.);
#987=ORIENTED_EDGE('',*,*,#701,.F.);
#988=CYLINDRICAL_SURFACE('',#1071,1.7);
#989=CYLINDRICAL_SURFACE('',#1074,1.7);
#990=CYLINDRICAL_SURFACE('',#1077,2.1);
#991=CYLINDRICAL_SURFACE('',#1080,2.1);
#992=CYLINDRICAL_SURFACE('',#1083,2.1);
#993=CYLINDRICAL_SURFACE('',#1086,2.1);
#994=CYLINDRICAL_SURFACE('',#1089,2.10000000000001);
#995=CYLINDRICAL_SURFACE('',#1092,2.10000000000001);
#996=CYLINDRICAL_SURFACE('',#1095,2.10000000000001);
#997=CYLINDRICAL_SURFACE('',#1098,2.10000000000001);
#998=CYLINDRICAL_SURFACE('',#1101,7.);
#999=ADVANCED_FACE('',(#83),#988,.F.);
#1000=ADVANCED_FACE('',(#84),#989,.F.);
#1001=ADVANCED_FACE('',(#85),#990,.F.);
#1002=ADVANCED_FACE('',(#86),#991,.F.);
#1003=ADVANCED_FACE('',(#87),#992,.F.);
#1004=ADVANCED_FACE('',(#88),#993,.F.);
#1005=ADVANCED_FACE('',(#89),#994,.F.);
#1006=ADVANCED_FACE('',(#90),#995,.F.);
#1007=ADVANCED_FACE('',(#91),#996,.F.);
#1008=ADVANCED_FACE('',(#92),#997,.F.);
#1009=ADVANCED_FACE('',(#93),#998,.F.);
#1010=ADVANCED_FACE('',(#94),#45,.T.);
#1011=ADVANCED_FACE('',(#95),#46,.T.);
#1012=ADVANCED_FACE('',(#96),#47,.T.);
#1013=ADVANCED_FACE('',(#97),#48,.T.);
#1014=ADVANCED_FACE('',(#98),#49,.T.);
#1015=ADVANCED_FACE('',(#99),#50,.T.);
#1016=ADVANCED_FACE('',(#100,#15,#16,#17,#18,#19,#20,#21,#22,#23,#24,#25,
#26,#27,#28,#29),#51,.T.);
#1017=ADVANCED_FACE('',(#101),#52,.T.);
#1018=ADVANCED_FACE('',(#102),#53,.T.);
#1019=ADVANCED_FACE('',(#103),#54,.T.);
#1020=ADVANCED_FACE('',(#104),#55,.T.);
#1021=ADVANCED_FACE('',(#105),#56,.T.);
#1022=ADVANCED_FACE('',(#106),#57,.T.);
#1023=ADVANCED_FACE('',(#107),#58,.T.);
#1024=ADVANCED_FACE('',(#108),#59,.T.);
#1025=ADVANCED_FACE('',(#109),#60,.T.);
#1026=ADVANCED_FACE('',(#110),#61,.T.);
#1027=ADVANCED_FACE('',(#111),#62,.T.);
#1028=ADVANCED_FACE('',(#112),#63,.T.);
#1029=ADVANCED_FACE('',(#113),#64,.T.);
#1030=ADVANCED_FACE('',(#114),#65,.T.);
#1031=ADVANCED_FACE('',(#115),#66,.T.);
#1032=ADVANCED_FACE('',(#116),#67,.T.);
#1033=ADVANCED_FACE('',(#117),#68,.T.);
#1034=ADVANCED_FACE('',(#118),#69,.F.);
#1035=ADVANCED_FACE('',(#119),#70,.T.);
#1036=ADVANCED_FACE('',(#120,#30,#31,#32,#33,#34,#35,#36,#37,#38,#39,#40,
#41,#42,#43,#44),#71,.F.);
#1037=ADVANCED_FACE('',(#121),#72,.T.);
#1038=ADVANCED_FACE('',(#122),#73,.F.);
#1039=ADVANCED_FACE('',(#123),#74,.T.);
#1040=ADVANCED_FACE('',(#124),#75,.F.);
#1041=ADVANCED_FACE('',(#125),#76,.F.);
#1042=ADVANCED_FACE('',(#126),#77,.F.);
#1043=ADVANCED_FACE('',(#127),#78,.F.);
#1044=ADVANCED_FACE('',(#128),#79,.F.);
#1045=ADVANCED_FACE('',(#129),#80,.F.);
#1046=ADVANCED_FACE('',(#130),#81,.T.);
#1047=ADVANCED_FACE('',(#131),#82,.T.);
#1048=CLOSED_SHELL('',(#999,#1000,#1001,#1002,#1003,#1004,#1005,#1006,#1007,
#1008,#1009,#1010,#1011,#1012,#1013,#1014,#1015,#1016,#1017,#1018,#1019,
#1020,#1021,#1022,#1023,#1024,#1025,#1026,#1027,#1028,#1029,#1030,#1031,
#1032,#1033,#1034,#1035,#1036,#1037,#1038,#1039,#1040,#1041,#1042,#1043,
#1044,#1045,#1046,#1047));
#1049=DERIVED_UNIT_ELEMENT(#1052,1.);
#1050=DERIVED_UNIT_ELEMENT(#1695,-3.);
#1051=DIMENSIONAL_EXPONENTS(0.,1.,0.,0.,0.,0.,0.);
#1052=(
CONVERSION_BASED_UNIT('gram',#1054)
MASS_UNIT()
NAMED_UNIT(#1051)
);
#1053=(
MASS_UNIT()
NAMED_UNIT(*)
SI_UNIT(.KILO.,.GRAM.)
);
#1054=MASS_MEASURE_WITH_UNIT(MASS_MEASURE(0.001),#1053);
#1055=DERIVED_UNIT((#1049,#1050));
#1056=MEASURE_REPRESENTATION_ITEM('density measure',
POSITIVE_RATIO_MEASURE(1.541),#1055);
#1057=PROPERTY_DEFINITION_REPRESENTATION(#1062,#1059);
#1058=PROPERTY_DEFINITION_REPRESENTATION(#1063,#1060);
#1059=REPRESENTATION('material name',(#1061),#1692);
#1060=REPRESENTATION('density',(#1056),#1692);
#1061=DESCRIPTIVE_REPRESENTATION_ITEM('PET \X2\30D730E930B930C130C330AF\X0\',
'PET \X2\30D730E930B930C130C330AF\X0\');
#1062=PROPERTY_DEFINITION('material property','material name',#1702);
#1063=PROPERTY_DEFINITION('material property','density of part',#1702);
#1064=DATE_TIME_ROLE('creation_date');
#1065=APPLIED_DATE_AND_TIME_ASSIGNMENT(#1066,#1064,(#1702));
#1066=DATE_AND_TIME(#1067,#1068);
#1067=CALENDAR_DATE(2026,8,10);
#1068=LOCAL_TIME(0,0,0.,#1069);
#1069=COORDINATED_UNIVERSAL_TIME_OFFSET(0,0,.BEHIND.);
#1070=AXIS2_PLACEMENT_3D('',#1405,#1142,#1143);
#1071=AXIS2_PLACEMENT_3D('',#1406,#1144,#1145);
#1072=AXIS2_PLACEMENT_3D('',#1408,#1146,#1147);
#1073=AXIS2_PLACEMENT_3D('',#1411,#1149,#1150);
#1074=AXIS2_PLACEMENT_3D('',#1412,#1151,#1152);
#1075=AXIS2_PLACEMENT_3D('',#1414,#1153,#1154);
#1076=AXIS2_PLACEMENT_3D('',#1417,#1156,#1157);
#1077=AXIS2_PLACEMENT_3D('',#1418,#1158,#1159);
#1078=AXIS2_PLACEMENT_3D('',#1420,#1160,#1161);
#1079=AXIS2_PLACEMENT_3D('',#1423,#1163,#1164);
#1080=AXIS2_PLACEMENT_3D('',#1424,#1165,#1166);
#1081=AXIS2_PLACEMENT_3D('',#1426,#1167,#1168);
#1082=AXIS2_PLACEMENT_3D('',#1429,#1170,#1171);
#1083=AXIS2_PLACEMENT_3D('',#1430,#1172,#1173);
#1084=AXIS2_PLACEMENT_3D('',#1432,#1174,#1175);
#1085=AXIS2_PLACEMENT_3D('',#1435,#1177,#1178);
#1086=AXIS2_PLACEMENT_3D('',#1436,#1179,#1180);
#1087=AXIS2_PLACEMENT_3D('',#1438,#1181,#1182);
#1088=AXIS2_PLACEMENT_3D('',#1441,#1184,#1185);
#1089=AXIS2_PLACEMENT_3D('',#1442,#1186,#1187);
#1090=AXIS2_PLACEMENT_3D('',#1444,#1188,#1189);
#1091=AXIS2_PLACEMENT_3D('',#1447,#1191,#1192);
#1092=AXIS2_PLACEMENT_3D('',#1448,#1193,#1194);
#1093=AXIS2_PLACEMENT_3D('',#1450,#1195,#1196);
#1094=AXIS2_PLACEMENT_3D('',#1453,#1198,#1199);
#1095=AXIS2_PLACEMENT_3D('',#1454,#1200,#1201);
#1096=AXIS2_PLACEMENT_3D('',#1456,#1202,#1203);
#1097=AXIS2_PLACEMENT_3D('',#1459,#1205,#1206);
#1098=AXIS2_PLACEMENT_3D('',#1460,#1207,#1208);
#1099=AXIS2_PLACEMENT_3D('',#1462,#1209,#1210);
#1100=AXIS2_PLACEMENT_3D('',#1465,#1212,#1213);
#1101=AXIS2_PLACEMENT_3D('',#1466,#1214,#1215);
#1102=AXIS2_PLACEMENT_3D('',#1468,#1216,#1217);
#1103=AXIS2_PLACEMENT_3D('',#1471,#1219,#1220);
#1104=AXIS2_PLACEMENT_3D('',#1472,#1221,#1222);
#1105=AXIS2_PLACEMENT_3D('',#1481,#1227,#1228);
#1106=AXIS2_PLACEMENT_3D('',#1490,#1233,#1234);
#1107=AXIS2_PLACEMENT_3D('',#1499,#1239,#1240);
#1108=AXIS2_PLACEMENT_3D('',#1502,#1243,#1244);
#1109=AXIS2_PLACEMENT_3D('',#1511,#1249,#1250);
#1110=AXIS2_PLACEMENT_3D('',#1514,#1253,#1254);
#1111=AXIS2_PLACEMENT_3D('',#1573,#1285,#1286);
#1112=AXIS2_PLACEMENT_3D('',#1577,#1289,#1290);
#1113=AXIS2_PLACEMENT_3D('',#1581,#1293,#1294);
#1114=AXIS2_PLACEMENT_3D('',#1587,#1298,#1299);
#1115=AXIS2_PLACEMENT_3D('',#1593,#1303,#1304);
#1116=AXIS2_PLACEMENT_3D('',#1599,#1308,#1309);
#1117=AXIS2_PLACEMENT_3D('',#1605,#1313,#1314);
#1118=AXIS2_PLACEMENT_3D('',#1609,#1317,#1318);
#1119=AXIS2_PLACEMENT_3D('',#1613,#1321,#1322);
#1120=AXIS2_PLACEMENT_3D('',#1617,#1325,#1326);
#1121=AXIS2_PLACEMENT_3D('',#1621,#1329,#1330);
#1122=AXIS2_PLACEMENT_3D('',#1625,#1333,#1334);
#1123=AXIS2_PLACEMENT_3D('',#1627,#1336,#1337);
#1124=AXIS2_PLACEMENT_3D('',#1631,#1340,#1341);
#1125=AXIS2_PLACEMENT_3D('',#1635,#1344,#1345);
#1126=AXIS2_PLACEMENT_3D('',#1639,#1348,#1349);
#1127=AXIS2_PLACEMENT_3D('',#1643,#1352,#1353);
#1128=AXIS2_PLACEMENT_3D('',#1649,#1357,#1358);
#1129=AXIS2_PLACEMENT_3D('',#1653,#1361,#1362);
#1130=AXIS2_PLACEMENT_3D('',#1655,#1364,#1365);
#1131=AXIS2_PLACEMENT_3D('',#1673,#1377,#1378);
#1132=AXIS2_PLACEMENT_3D('',#1676,#1381,#1382);
#1133=AXIS2_PLACEMENT_3D('',#1678,#1384,#1385);
#1134=AXIS2_PLACEMENT_3D('',#1680,#1387,#1388);
#1135=AXIS2_PLACEMENT_3D('',#1682,#1390,#1391);
#1136=AXIS2_PLACEMENT_3D('',#1683,#1392,#1393);
#1137=AXIS2_PLACEMENT_3D('',#1684,#1394,#1395);
#1138=AXIS2_PLACEMENT_3D('',#1686,#1397,#1398);
#1139=AXIS2_PLACEMENT_3D('',#1687,#1399,#1400);
#1140=AXIS2_PLACEMENT_3D('',#1688,#1401,#1402);
#1141=AXIS2_PLACEMENT_3D('',#1689,#1403,#1404);
#1142=DIRECTION('axis',(0.,0.,1.));
#1143=DIRECTION('refdir',(1.,0.,0.));
#1144=DIRECTION('center_axis',(0.,0.,1.));
#1145=DIRECTION('ref_axis',(-1.,0.,0.));
#1146=DIRECTION('center_axis',(0.,0.,1.));
#1147=DIRECTION('ref_axis',(-1.,0.,0.));
#1148=DIRECTION('',(0.,0.,1.));
#1149=DIRECTION('center_axis',(0.,0.,-1.));
#1150=DIRECTION('ref_axis',(-1.,0.,0.));
#1151=DIRECTION('center_axis',(0.,0.,1.));
#1152=DIRECTION('ref_axis',(-1.,0.,0.));
#1153=DIRECTION('center_axis',(0.,0.,1.));
#1154=DIRECTION('ref_axis',(-1.,0.,0.));
#1155=DIRECTION('',(0.,0.,1.));
#1156=DIRECTION('center_axis',(0.,0.,-1.));
#1157=DIRECTION('ref_axis',(-1.,0.,0.));
#1158=DIRECTION('center_axis',(0.,0.,1.));
#1159=DIRECTION('ref_axis',(-1.,0.,0.));
#1160=DIRECTION('center_axis',(0.,0.,1.));
#1161=DIRECTION('ref_axis',(-1.,0.,0.));
#1162=DIRECTION('',(0.,0.,1.));
#1163=DIRECTION('center_axis',(0.,0.,-1.));
#1164=DIRECTION('ref_axis',(-1.,0.,0.));
#1165=DIRECTION('center_axis',(0.,0.,1.));
#1166=DIRECTION('ref_axis',(-1.,0.,0.));
#1167=DIRECTION('center_axis',(0.,0.,1.));
#1168=DIRECTION('ref_axis',(-1.,0.,0.));
#1169=DIRECTION('',(0.,0.,1.));
#1170=DIRECTION('center_axis',(0.,0.,-1.));
#1171=DIRECTION('ref_axis',(-1.,0.,0.));
#1172=DIRECTION('center_axis',(0.,0.,1.));
#1173=DIRECTION('ref_axis',(-1.,0.,0.));
#1174=DIRECTION('center_axis',(0.,0.,1.));
#1175=DIRECTION('ref_axis',(-1.,0.,0.));
#1176=DIRECTION('',(0.,0.,1.));
#1177=DIRECTION('center_axis',(0.,0.,-1.));
#1178=DIRECTION('ref_axis',(-1.,0.,0.));
#1179=DIRECTION('center_axis',(0.,0.,1.));
#1180=DIRECTION('ref_axis',(-1.,0.,0.));
#1181=DIRECTION('center_axis',(0.,0.,1.));
#1182=DIRECTION('ref_axis',(-1.,0.,0.));
#1183=DIRECTION('',(0.,0.,1.));
#1184=DIRECTION('center_axis',(0.,0.,-1.));
#1185=DIRECTION('ref_axis',(-1.,0.,0.));
#1186=DIRECTION('center_axis',(0.,0.,1.));
#1187=DIRECTION('ref_axis',(-1.,0.,0.));
#1188=DIRECTION('center_axis',(0.,0.,1.));
#1189=DIRECTION('ref_axis',(-1.,0.,0.));
#1190=DIRECTION('',(0.,0.,1.));
#1191=DIRECTION('center_axis',(0.,0.,-1.));
#1192=DIRECTION('ref_axis',(-1.,0.,0.));
#1193=DIRECTION('center_axis',(0.,0.,1.));
#1194=DIRECTION('ref_axis',(-1.,0.,0.));
#1195=DIRECTION('center_axis',(0.,0.,1.));
#1196=DIRECTION('ref_axis',(-1.,0.,0.));
#1197=DIRECTION('',(0.,0.,1.));
#1198=DIRECTION('center_axis',(0.,0.,-1.));
#1199=DIRECTION('ref_axis',(-1.,0.,0.));
#1200=DIRECTION('center_axis',(0.,0.,1.));
#1201=DIRECTION('ref_axis',(-1.,0.,0.));
#1202=DIRECTION('center_axis',(0.,0.,1.));
#1203=DIRECTION('ref_axis',(-1.,0.,0.));
#1204=DIRECTION('',(0.,0.,1.));
#1205=DIRECTION('center_axis',(0.,0.,-1.));
#1206=DIRECTION('ref_axis',(-1.,0.,0.));
#1207=DIRECTION('center_axis',(0.,0.,1.));
#1208=DIRECTION('ref_axis',(-1.,0.,0.));
#1209=DIRECTION('center_axis',(0.,0.,1.));
#1210=DIRECTION('ref_axis',(-1.,0.,0.));
#1211=DIRECTION('',(0.,0.,1.));
#1212=DIRECTION('center_axis',(0.,0.,-1.));
#1213=DIRECTION('ref_axis',(-1.,0.,0.));
#1214=DIRECTION('center_axis',(0.,0.,1.));
#1215=DIRECTION('ref_axis',(-1.,0.,0.));
#1216=DIRECTION('center_axis',(0.,0.,1.));
#1217=DIRECTION('ref_axis',(-1.,0.,0.));
#1218=DIRECTION('',(0.,0.,1.));
#1219=DIRECTION('center_axis',(0.,0.,-1.));
#1220=DIRECTION('ref_axis',(-1.,0.,0.));
#1221=DIRECTION('center_axis',(-1.,0.,0.));
#1222=DIRECTION('ref_axis',(0.,-1.,0.));
#1223=DIRECTION('',(0.,0.,-1.));
#1224=DIRECTION('',(0.,-1.,0.));
#1225=DIRECTION('',(0.,0.,1.));
#1226=DIRECTION('',(0.,-1.,0.));
#1227=DIRECTION('center_axis',(-1.,0.,0.));
#1228=DIRECTION('ref_axis',(0.,-1.,0.));
#1229=DIRECTION('',(0.,0.,1.));
#1230=DIRECTION('',(0.,-1.,0.));
#1231=DIRECTION('',(0.,0.,1.));
#1232=DIRECTION('',(0.,-1.,0.));
#1233=DIRECTION('center_axis',(1.,0.,0.));
#1234=DIRECTION('ref_axis',(0.,1.,0.));
#1235=DIRECTION('',(0.,0.,1.));
#1236=DIRECTION('',(0.,1.,0.));
#1237=DIRECTION('',(0.,0.,1.));
#1238=DIRECTION('',(0.,1.,0.));
#1239=DIRECTION('center_axis',(0.,1.,0.));
#1240=DIRECTION('ref_axis',(-1.,0.,0.));
#1241=DIRECTION('',(-1.,0.,0.));
#1242=DIRECTION('',(-1.,0.,0.));
#1243=DIRECTION('center_axis',(1.,0.,0.));
#1244=DIRECTION('ref_axis',(0.,1.,0.));
#1245=DIRECTION('',(0.,0.,-1.));
#1246=DIRECTION('',(0.,1.,0.));
#1247=DIRECTION('',(0.,0.,1.));
#1248=DIRECTION('',(0.,1.,0.));
#1249=DIRECTION('center_axis',(0.,-1.,0.));
#1250=DIRECTION('ref_axis',(1.,0.,0.));
#1251=DIRECTION('',(1.,0.,0.));
#1252=DIRECTION('',(1.,0.,0.));
#1253=DIRECTION('center_axis',(0.,0.,1.));
#1254=DIRECTION('ref_axis',(1.,0.,0.));
#1255=DIRECTION('',(-1.,0.,0.));
#1256=DIRECTION('',(0.,-1.,0.));
#1257=DIRECTION('',(1.,0.,0.));
#1258=DIRECTION('',(0.,1.,0.));
#1259=DIRECTION('',(-1.,0.,0.));
#1260=DIRECTION('',(0.,1.,0.));
#1261=DIRECTION('',(-1.,0.,0.));
#1262=DIRECTION('',(0.,1.,0.));
#1263=DIRECTION('',(1.,0.,0.));
#1264=DIRECTION('',(0.,-1.,0.));
#1265=DIRECTION('',(-1.,0.,0.));
#1266=DIRECTION('',(0.,-1.,0.));
#1267=DIRECTION('',(1.,0.,0.));
#1268=DIRECTION('',(0.,-1.,0.));
#1269=DIRECTION('',(-1.,0.,0.));
#1270=DIRECTION('',(0.,1.,0.));
#1271=DIRECTION('',(1.,0.,0.));
#1272=DIRECTION('',(-1.,0.,0.));
#1273=DIRECTION('',(0.,-1.,0.));
#1274=DIRECTION('',(-1.,0.,0.));
#1275=DIRECTION('',(0.,1.,0.));
#1276=DIRECTION('',(1.,0.,0.));
#1277=DIRECTION('',(0.,-1.,0.));
#1278=DIRECTION('',(1.,0.,0.));
#1279=DIRECTION('',(0.,-1.,0.));
#1280=DIRECTION('',(-1.,0.,0.));
#1281=DIRECTION('',(0.,1.,0.));
#1282=DIRECTION('',(1.,0.,0.));
#1283=DIRECTION('',(0.,1.,0.));
#1284=DIRECTION('',(1.,0.,0.));
#1285=DIRECTION('center_axis',(0.,-1.,0.));
#1286=DIRECTION('ref_axis',(1.,0.,0.));
#1287=DIRECTION('',(1.,0.,0.));
#1288=DIRECTION('',(0.,0.,-1.));
#1289=DIRECTION('center_axis',(0.,1.,0.));
#1290=DIRECTION('ref_axis',(-1.,0.,0.));
#1291=DIRECTION('',(0.,0.,1.));
#1292=DIRECTION('',(-1.,0.,0.));
#1293=DIRECTION('center_axis',(0.,1.,0.));
#1294=DIRECTION('ref_axis',(-1.,0.,0.));
#1295=DIRECTION('',(0.,0.,-1.));
#1296=DIRECTION('',(0.,0.,1.));
#1297=DIRECTION('',(-1.,0.,0.));
#1298=DIRECTION('center_axis',(0.,1.,0.));
#1299=DIRECTION('ref_axis',(-1.,0.,0.));
#1300=DIRECTION('',(0.,0.,1.));
#1301=DIRECTION('',(-1.,0.,0.));
#1302=DIRECTION('',(0.,0.,1.));
#1303=DIRECTION('center_axis',(-1.,0.,0.));
#1304=DIRECTION('ref_axis',(0.,-1.,0.));
#1305=DIRECTION('',(0.,0.,1.));
#1306=DIRECTION('',(0.,-1.,0.));
#1307=DIRECTION('',(0.,0.,1.));
#1308=DIRECTION('center_axis',(1.,0.,0.));
#1309=DIRECTION('ref_axis',(0.,1.,0.));
#1310=DIRECTION('',(0.,0.,-1.));
#1311=DIRECTION('',(0.,0.,1.));
#1312=DIRECTION('',(0.,1.,0.));
#1313=DIRECTION('center_axis',(0.,-1.,0.));
#1314=DIRECTION('ref_axis',(1.,0.,0.));
#1315=DIRECTION('',(0.,0.,1.));
#1316=DIRECTION('',(1.,0.,0.));
#1317=DIRECTION('center_axis',(-1.,0.,0.));
#1318=DIRECTION('ref_axis',(0.,-1.,0.));
#1319=DIRECTION('',(0.,0.,-1.));
#1320=DIRECTION('',(0.,-1.,0.));
#1321=DIRECTION('center_axis',(1.,0.,0.));
#1322=DIRECTION('ref_axis',(0.,1.,0.));
#1323=DIRECTION('',(0.,0.,1.));
#1324=DIRECTION('',(0.,1.,0.));
#1325=DIRECTION('center_axis',(0.,-1.,0.));
#1326=DIRECTION('ref_axis',(1.,0.,0.));
#1327=DIRECTION('',(0.,0.,-1.));
#1328=DIRECTION('',(1.,0.,0.));
#1329=DIRECTION('center_axis',(0.,1.,0.));
#1330=DIRECTION('ref_axis',(-1.,0.,0.));
#1331=DIRECTION('',(-1.,0.,0.));
#1332=DIRECTION('',(0.,0.,-1.));
#1333=DIRECTION('center_axis',(0.,1.,0.));
#1334=DIRECTION('ref_axis',(-1.,0.,0.));
#1335=DIRECTION('',(-1.,0.,0.));
#1336=DIRECTION('center_axis',(-1.,0.,0.));
#1337=DIRECTION('ref_axis',(0.,-1.,0.));
#1338=DIRECTION('',(0.,-1.,0.));
#1339=DIRECTION('',(0.,0.,-1.));
#1340=DIRECTION('center_axis',(1.,0.,0.));
#1341=DIRECTION('ref_axis',(0.,1.,0.));
#1342=DIRECTION('',(0.,0.,1.));
#1343=DIRECTION('',(0.,1.,0.));
#1344=DIRECTION('center_axis',(1.,0.,0.));
#1345=DIRECTION('ref_axis',(0.,1.,0.));
#1346=DIRECTION('',(0.,1.,0.));
#1347=DIRECTION('',(0.,0.,-1.));
#1348=DIRECTION('center_axis',(-1.,0.,0.));
#1349=DIRECTION('ref_axis',(0.,-1.,0.));
#1350=DIRECTION('',(0.,0.,1.));
#1351=DIRECTION('',(0.,-1.,0.));
#1352=DIRECTION('center_axis',(0.,1.,0.));
#1353=DIRECTION('ref_axis',(-1.,0.,0.));
#1354=DIRECTION('',(0.,0.,1.));
#1355=DIRECTION('',(-1.,0.,0.));
#1356=DIRECTION('',(0.,0.,1.));
#1357=DIRECTION('center_axis',(0.,1.,0.));
#1358=DIRECTION('ref_axis',(-1.,0.,0.));
#1359=DIRECTION('',(0.,0.,1.));
#1360=DIRECTION('',(-1.,0.,0.));
#1361=DIRECTION('center_axis',(0.,-1.,0.));
#1362=DIRECTION('ref_axis',(1.,0.,0.));
#1363=DIRECTION('',(1.,0.,0.));
#1364=DIRECTION('center_axis',(0.,0.,1.));
#1365=DIRECTION('ref_axis',(1.,0.,0.));
#1366=DIRECTION('',(0.,1.,0.));
#1367=DIRECTION('',(1.,0.,0.));
#1368=DIRECTION('',(0.,-1.,0.));
#1369=DIRECTION('',(1.,0.,0.));
#1370=DIRECTION('',(0.,1.,0.));
#1371=DIRECTION('',(0.,1.,0.));
#1372=DIRECTION('',(-1.,0.,0.));
#1373=DIRECTION('',(0.,-1.,0.));
#1374=DIRECTION('',(1.,0.,0.));
#1375=DIRECTION('',(0.,-1.,0.));
#1376=DIRECTION('',(1.,0.,0.));
#1377=DIRECTION('center_axis',(0.,-1.,0.));
#1378=DIRECTION('ref_axis',(1.,0.,0.));
#1379=DIRECTION('',(0.,0.,1.));
#1380=DIRECTION('',(0.,0.,1.));
#1381=DIRECTION('center_axis',(0.,-1.,0.));
#1382=DIRECTION('ref_axis',(1.,0.,0.));
#1383=DIRECTION('',(0.,0.,1.));
#1384=DIRECTION('center_axis',(0.,-1.,0.));
#1385=DIRECTION('ref_axis',(1.,0.,0.));
#1386=DIRECTION('',(0.,0.,1.));
#1387=DIRECTION('center_axis',(-1.,0.,0.));
#1388=DIRECTION('ref_axis',(0.,-1.,0.));
#1389=DIRECTION('',(0.,0.,1.));
#1390=DIRECTION('center_axis',(1.,0.,0.));
#1391=DIRECTION('ref_axis',(0.,1.,0.));
#1392=DIRECTION('center_axis',(-1.,0.,0.));
#1393=DIRECTION('ref_axis',(0.,-1.,0.));
#1394=DIRECTION('center_axis',(0.,1.,0.));
#1395=DIRECTION('ref_axis',(-1.,0.,0.));
#1396=DIRECTION('',(0.,0.,1.));
#1397=DIRECTION('center_axis',(1.,0.,0.));
#1398=DIRECTION('ref_axis',(0.,1.,0.));
#1399=DIRECTION('center_axis',(0.,-1.,0.));
#1400=DIRECTION('ref_axis',(1.,0.,0.));
#1401=DIRECTION('center_axis',(-1.,0.,0.));
#1402=DIRECTION('ref_axis',(0.,-1.,0.));
#1403=DIRECTION('center_axis',(1.,0.,0.));
#1404=DIRECTION('ref_axis',(0.,1.,0.));
#1405=CARTESIAN_POINT('',(0.,0.,0.));
#1406=CARTESIAN_POINT('Origin',(65.,8.,0.));
#1407=CARTESIAN_POINT('',(66.7,8.,0.));
#1408=CARTESIAN_POINT('Origin',(65.,8.,0.));
#1409=CARTESIAN_POINT('',(66.7,8.,4.));
#1410=CARTESIAN_POINT('',(66.7,8.,0.));
#1411=CARTESIAN_POINT('Origin',(65.,8.,4.));
#1412=CARTESIAN_POINT('Origin',(65.,-8.,0.));
#1413=CARTESIAN_POINT('',(66.7,-8.,0.));
#1414=CARTESIAN_POINT('Origin',(65.,-8.,0.));
#1415=CARTESIAN_POINT('',(66.7,-8.,4.));
#1416=CARTESIAN_POINT('',(66.7,-8.,0.));
#1417=CARTESIAN_POINT('Origin',(65.,-8.,4.));
#1418=CARTESIAN_POINT('Origin',(22.,22.,0.));
#1419=CARTESIAN_POINT('',(24.1,22.,0.));
#1420=CARTESIAN_POINT('Origin',(22.,22.,0.));
#1421=CARTESIAN_POINT('',(24.1,22.,4.));
#1422=CARTESIAN_POINT('',(24.1,22.,0.));
#1423=CARTESIAN_POINT('Origin',(22.,22.,4.));
#1424=CARTESIAN_POINT('Origin',(22.,-22.,0.));
#1425=CARTESIAN_POINT('',(24.1,-22.,0.));
#1426=CARTESIAN_POINT('Origin',(22.,-22.,0.));
#1427=CARTESIAN_POINT('',(24.1,-22.,4.));
#1428=CARTESIAN_POINT('',(24.1,-22.,0.));
#1429=CARTESIAN_POINT('Origin',(22.,-22.,4.));
#1430=CARTESIAN_POINT('Origin',(-22.,22.,0.));
#1431=CARTESIAN_POINT('',(-19.9,22.,0.));
#1432=CARTESIAN_POINT('Origin',(-22.,22.,0.));
#1433=CARTESIAN_POINT('',(-19.9,22.,4.));
#1434=CARTESIAN_POINT('',(-19.9,22.,0.));
#1435=CARTESIAN_POINT('Origin',(-22.,22.,4.));
#1436=CARTESIAN_POINT('Origin',(-22.,-22.,0.));
#1437=CARTESIAN_POINT('',(-19.9,-22.,0.));
#1438=CARTESIAN_POINT('Origin',(-22.,-22.,0.));
#1439=CARTESIAN_POINT('',(-19.9,-22.,4.));
#1440=CARTESIAN_POINT('',(-19.9,-22.,0.));
#1441=CARTESIAN_POINT('Origin',(-22.,-22.,4.));
#1442=CARTESIAN_POINT('Origin',(84.,84.,0.));
#1443=CARTESIAN_POINT('',(86.1,84.,0.));
#1444=CARTESIAN_POINT('Origin',(84.,84.,0.));
#1445=CARTESIAN_POINT('',(86.1,84.,4.));
#1446=CARTESIAN_POINT('',(86.1,84.,0.));
#1447=CARTESIAN_POINT('Origin',(84.,84.,4.));
#1448=CARTESIAN_POINT('Origin',(84.,-84.,0.));
#1449=CARTESIAN_POINT('',(86.1,-84.,0.));
#1450=CARTESIAN_POINT('Origin',(84.,-84.,0.));
#1451=CARTESIAN_POINT('',(86.1,-84.,4.));
#1452=CARTESIAN_POINT('',(86.1,-84.,0.));
#1453=CARTESIAN_POINT('Origin',(84.,-84.,4.));
#1454=CARTESIAN_POINT('Origin',(-84.,84.,0.));
#1455=CARTESIAN_POINT('',(-81.9,84.,0.));
#1456=CARTESIAN_POINT('Origin',(-84.,84.,0.));
#1457=CARTESIAN_POINT('',(-81.9,84.,4.));
#1458=CARTESIAN_POINT('',(-81.9,84.,0.));
#1459=CARTESIAN_POINT('Origin',(-84.,84.,4.));
#1460=CARTESIAN_POINT('Origin',(-84.,-84.,0.));
#1461=CARTESIAN_POINT('',(-81.9,-84.,0.));
#1462=CARTESIAN_POINT('Origin',(-84.,-84.,0.));
#1463=CARTESIAN_POINT('',(-81.9,-84.,4.));
#1464=CARTESIAN_POINT('',(-81.9,-84.,0.));
#1465=CARTESIAN_POINT('Origin',(-84.,-84.,4.));
#1466=CARTESIAN_POINT('Origin',(0.,0.,0.));
#1467=CARTESIAN_POINT('',(7.,8.57252759403147E-16,0.));
#1468=CARTESIAN_POINT('Origin',(0.,0.,0.));
#1469=CARTESIAN_POINT('',(7.,8.57252759403147E-16,4.));
#1470=CARTESIAN_POINT('',(7.,8.57252759403147E-16,0.));
#1471=CARTESIAN_POINT('Origin',(0.,0.,4.));
#1472=CARTESIAN_POINT('Origin',(56.,12.,0.));
#1473=CARTESIAN_POINT('',(56.,5.,4.));
#1474=CARTESIAN_POINT('',(56.,5.,0.));
#1475=CARTESIAN_POINT('',(56.,5.,0.));
#1476=CARTESIAN_POINT('',(56.,12.,4.));
#1477=CARTESIAN_POINT('',(56.,12.,4.));
#1478=CARTESIAN_POINT('',(56.,12.,0.));
#1479=CARTESIAN_POINT('',(56.,12.,0.));
#1480=CARTESIAN_POINT('',(56.,12.,0.));
#1481=CARTESIAN_POINT('Origin',(56.,12.,0.));
#1482=CARTESIAN_POINT('',(56.,-5.,0.));
#1483=CARTESIAN_POINT('',(56.,-5.,4.));
#1484=CARTESIAN_POINT('',(56.,-5.,0.));
#1485=CARTESIAN_POINT('',(56.,-12.,0.));
#1486=CARTESIAN_POINT('',(56.,12.,0.));
#1487=CARTESIAN_POINT('',(56.,-12.,4.));
#1488=CARTESIAN_POINT('',(56.,-12.,0.));
#1489=CARTESIAN_POINT('',(56.,12.,4.));
#1490=CARTESIAN_POINT('Origin',(74.,-12.,0.));
#1491=CARTESIAN_POINT('',(74.,5.,0.));
#1492=CARTESIAN_POINT('',(74.,5.,4.));
#1493=CARTESIAN_POINT('',(74.,5.,0.));
#1494=CARTESIAN_POINT('',(74.,12.,0.));
#1495=CARTESIAN_POINT('',(74.,-12.,0.));
#1496=CARTESIAN_POINT('',(74.,12.,4.));
#1497=CARTESIAN_POINT('',(74.,12.,0.));
#1498=CARTESIAN_POINT('',(74.,-12.,4.));
#1499=CARTESIAN_POINT('Origin',(74.,12.,0.));
#1500=CARTESIAN_POINT('',(74.,12.,0.));
#1501=CARTESIAN_POINT('',(74.,12.,4.));
#1502=CARTESIAN_POINT('Origin',(74.,-12.,0.));
#1503=CARTESIAN_POINT('',(74.,-5.,4.));
#1504=CARTESIAN_POINT('',(74.,-5.,0.));
#1505=CARTESIAN_POINT('',(74.,-5.,0.));
#1506=CARTESIAN_POINT('',(74.,-12.,4.));
#1507=CARTESIAN_POINT('',(74.,-12.,4.));
#1508=CARTESIAN_POINT('',(74.,-12.,0.));
#1509=CARTESIAN_POINT('',(74.,-12.,0.));
#1510=CARTESIAN_POINT('',(74.,-12.,0.));
#1511=CARTESIAN_POINT('Origin',(56.,-12.,0.));
#1512=CARTESIAN_POINT('',(56.,-12.,0.));
#1513=CARTESIAN_POINT('',(56.,-12.,4.));
#1514=CARTESIAN_POINT('Origin',(0.,0.,4.));
#1515=CARTESIAN_POINT('',(90.,90.,4.));
#1516=CARTESIAN_POINT('',(-90.,90.,4.));
#1517=CARTESIAN_POINT('',(90.,90.,4.));
#1518=CARTESIAN_POINT('',(-90.,-90.,4.));
#1519=CARTESIAN_POINT('',(-90.,90.,4.));
#1520=CARTESIAN_POINT('',(90.,-90.,4.));
#1521=CARTESIAN_POINT('',(-90.,-90.,4.));
#1522=CARTESIAN_POINT('',(90.,-90.,4.));
#1523=CARTESIAN_POINT('',(26.,5.,4.));
#1524=CARTESIAN_POINT('',(90.,5.,4.));
#1525=CARTESIAN_POINT('',(26.,26.,4.));
#1526=CARTESIAN_POINT('',(26.,-26.,4.));
#1527=CARTESIAN_POINT('',(5.,26.,4.));
#1528=CARTESIAN_POINT('',(26.,26.,4.));
#1529=CARTESIAN_POINT('',(5.,80.,4.));
#1530=CARTESIAN_POINT('',(5.,-90.,4.));
#1531=CARTESIAN_POINT('',(80.,80.,4.));
#1532=CARTESIAN_POINT('',(40.,80.,4.));
#1533=CARTESIAN_POINT('',(80.,5.,4.));
#1534=CARTESIAN_POINT('',(80.,-40.,4.));
#1535=CARTESIAN_POINT('',(90.,5.,4.));
#1536=CARTESIAN_POINT('',(-26.,-5.,4.));
#1537=CARTESIAN_POINT('',(-26.,-26.,4.));
#1538=CARTESIAN_POINT('',(-26.,26.,4.));
#1539=CARTESIAN_POINT('',(-5.,-26.,4.));
#1540=CARTESIAN_POINT('',(-26.,-26.,4.));
#1541=CARTESIAN_POINT('',(-5.,-80.,4.));
#1542=CARTESIAN_POINT('',(-5.,90.,4.));
#1543=CARTESIAN_POINT('',(-80.,-80.,4.));
#1544=CARTESIAN_POINT('',(-40.,-80.,4.));
#1545=CARTESIAN_POINT('',(-80.,-5.,4.));
#1546=CARTESIAN_POINT('',(-80.,40.,4.));
#1547=CARTESIAN_POINT('',(-90.,-5.,4.));
#1548=CARTESIAN_POINT('',(-5.,26.,4.));
#1549=CARTESIAN_POINT('',(-26.,26.,4.));
#1550=CARTESIAN_POINT('',(26.,26.,4.));
#1551=CARTESIAN_POINT('',(-26.,5.,4.));
#1552=CARTESIAN_POINT('',(-26.,26.,4.));
#1553=CARTESIAN_POINT('',(-80.,5.,4.));
#1554=CARTESIAN_POINT('',(90.,5.,4.));
#1555=CARTESIAN_POINT('',(-80.,80.,4.));
#1556=CARTESIAN_POINT('',(-80.,40.,4.));
#1557=CARTESIAN_POINT('',(-5.,80.,4.));
#1558=CARTESIAN_POINT('',(40.,80.,4.));
#1559=CARTESIAN_POINT('',(-5.,90.,4.));
#1560=CARTESIAN_POINT('',(80.,-5.,4.));
#1561=CARTESIAN_POINT('',(-90.,-5.,4.));
#1562=CARTESIAN_POINT('',(80.,-80.,4.));
#1563=CARTESIAN_POINT('',(80.,-40.,4.));
#1564=CARTESIAN_POINT('',(5.,-80.,4.));
#1565=CARTESIAN_POINT('',(-40.,-80.,4.));
#1566=CARTESIAN_POINT('',(5.,-26.,4.));
#1567=CARTESIAN_POINT('',(5.,-90.,4.));
#1568=CARTESIAN_POINT('',(26.,-26.,4.));
#1569=CARTESIAN_POINT('',(-26.,-26.,4.));
#1570=CARTESIAN_POINT('',(26.,-5.,4.));
#1571=CARTESIAN_POINT('',(26.,-26.,4.));
#1572=CARTESIAN_POINT('',(-90.,-5.,4.));
#1573=CARTESIAN_POINT('Origin',(-90.,-5.,0.));
#1574=CARTESIAN_POINT('',(80.,-5.,0.));
#1575=CARTESIAN_POINT('',(-90.,-5.,0.));
#1576=CARTESIAN_POINT('',(80.,-5.,0.));
#1577=CARTESIAN_POINT('Origin',(90.,5.,0.));
#1578=CARTESIAN_POINT('',(80.,5.,0.));
#1579=CARTESIAN_POINT('',(80.,5.,0.));
#1580=CARTESIAN_POINT('',(90.,5.,0.));
#1581=CARTESIAN_POINT('Origin',(26.,26.,0.));
#1582=CARTESIAN_POINT('',(5.,26.,0.));
#1583=CARTESIAN_POINT('',(5.,26.,0.));
#1584=CARTESIAN_POINT('',(26.,26.,0.));
#1585=CARTESIAN_POINT('',(26.,26.,0.));
#1586=CARTESIAN_POINT('',(26.,26.,0.));
#1587=CARTESIAN_POINT('Origin',(26.,26.,0.));
#1588=CARTESIAN_POINT('',(-5.,26.,0.));
#1589=CARTESIAN_POINT('',(-5.,26.,0.));
#1590=CARTESIAN_POINT('',(-26.,26.,0.));
#1591=CARTESIAN_POINT('',(26.,26.,0.));
#1592=CARTESIAN_POINT('',(-26.,26.,0.));
#1593=CARTESIAN_POINT('Origin',(-26.,26.,0.));
#1594=CARTESIAN_POINT('',(-26.,-5.,0.));
#1595=CARTESIAN_POINT('',(-26.,-5.,0.));
#1596=CARTESIAN_POINT('',(-26.,-26.,0.));
#1597=CARTESIAN_POINT('',(-26.,26.,0.));
#1598=CARTESIAN_POINT('',(-26.,-26.,0.));
#1599=CARTESIAN_POINT('Origin',(26.,-26.,0.));
#1600=CARTESIAN_POINT('',(26.,-5.,0.));
#1601=CARTESIAN_POINT('',(26.,-5.,0.));
#1602=CARTESIAN_POINT('',(26.,-26.,0.));
#1603=CARTESIAN_POINT('',(26.,-26.,0.));
#1604=CARTESIAN_POINT('',(26.,-26.,0.));
#1605=CARTESIAN_POINT('Origin',(-26.,-26.,0.));
#1606=CARTESIAN_POINT('',(5.,-26.,0.));
#1607=CARTESIAN_POINT('',(5.,-26.,0.));
#1608=CARTESIAN_POINT('',(-26.,-26.,0.));
#1609=CARTESIAN_POINT('Origin',(-26.,26.,0.));
#1610=CARTESIAN_POINT('',(-26.,5.,0.));
#1611=CARTESIAN_POINT('',(-26.,5.,0.));
#1612=CARTESIAN_POINT('',(-26.,26.,0.));
#1613=CARTESIAN_POINT('Origin',(26.,-26.,0.));
#1614=CARTESIAN_POINT('',(26.,5.,0.));
#1615=CARTESIAN_POINT('',(26.,5.,0.));
#1616=CARTESIAN_POINT('',(26.,-26.,0.));
#1617=CARTESIAN_POINT('Origin',(-26.,-26.,0.));
#1618=CARTESIAN_POINT('',(-5.,-26.,0.));
#1619=CARTESIAN_POINT('',(-5.,-26.,0.));
#1620=CARTESIAN_POINT('',(-26.,-26.,0.));
#1621=CARTESIAN_POINT('Origin',(90.,5.,0.));
#1622=CARTESIAN_POINT('',(-80.,5.,0.));
#1623=CARTESIAN_POINT('',(90.,5.,0.));
#1624=CARTESIAN_POINT('',(-80.,5.,0.));
#1625=CARTESIAN_POINT('Origin',(90.,5.,0.));
#1626=CARTESIAN_POINT('',(90.,5.,0.));
#1627=CARTESIAN_POINT('Origin',(-5.,90.,0.));
#1628=CARTESIAN_POINT('',(-5.,-80.,0.));
#1629=CARTESIAN_POINT('',(-5.,90.,0.));
#1630=CARTESIAN_POINT('',(-5.,-80.,0.));
#1631=CARTESIAN_POINT('Origin',(5.,-90.,0.));
#1632=CARTESIAN_POINT('',(5.,-80.,0.));
#1633=CARTESIAN_POINT('',(5.,-80.,0.));
#1634=CARTESIAN_POINT('',(5.,-90.,0.));
#1635=CARTESIAN_POINT('Origin',(5.,-90.,0.));
#1636=CARTESIAN_POINT('',(5.,80.,0.));
#1637=CARTESIAN_POINT('',(5.,-90.,0.));
#1638=CARTESIAN_POINT('',(5.,80.,0.));
#1639=CARTESIAN_POINT('Origin',(-5.,90.,0.));
#1640=CARTESIAN_POINT('',(-5.,80.,0.));
#1641=CARTESIAN_POINT('',(-5.,80.,0.));
#1642=CARTESIAN_POINT('',(-5.,90.,0.));
#1643=CARTESIAN_POINT('Origin',(90.,90.,0.));
#1644=CARTESIAN_POINT('',(90.,90.,0.));
#1645=CARTESIAN_POINT('',(90.,90.,0.));
#1646=CARTESIAN_POINT('',(-90.,90.,0.));
#1647=CARTESIAN_POINT('',(90.,90.,0.));
#1648=CARTESIAN_POINT('',(-90.,90.,0.));
#1649=CARTESIAN_POINT('Origin',(80.,80.,0.));
#1650=CARTESIAN_POINT('',(-80.,80.,0.));
#1651=CARTESIAN_POINT('',(-80.,80.,0.));
#1652=CARTESIAN_POINT('',(40.,80.,0.));
#1653=CARTESIAN_POINT('Origin',(-90.,-5.,0.));
#1654=CARTESIAN_POINT('',(-90.,-5.,0.));
#1655=CARTESIAN_POINT('Origin',(0.,0.,0.));
#1656=CARTESIAN_POINT('',(90.,-90.,0.));
#1657=CARTESIAN_POINT('',(90.,-90.,0.));
#1658=CARTESIAN_POINT('',(-90.,-90.,0.));
#1659=CARTESIAN_POINT('',(-90.,-90.,0.));
#1660=CARTESIAN_POINT('',(-90.,90.,0.));
#1661=CARTESIAN_POINT('',(80.,-80.,0.));
#1662=CARTESIAN_POINT('',(-40.,-80.,0.));
#1663=CARTESIAN_POINT('',(80.,-40.,0.));
#1664=CARTESIAN_POINT('',(80.,80.,0.));
#1665=CARTESIAN_POINT('',(80.,-40.,0.));
#1666=CARTESIAN_POINT('',(40.,80.,0.));
#1667=CARTESIAN_POINT('',(-80.,40.,0.));
#1668=CARTESIAN_POINT('',(-80.,-5.,0.));
#1669=CARTESIAN_POINT('',(-90.,-5.,0.));
#1670=CARTESIAN_POINT('',(-80.,-80.,0.));
#1671=CARTESIAN_POINT('',(-80.,40.,0.));
#1672=CARTESIAN_POINT('',(-40.,-80.,0.));
#1673=CARTESIAN_POINT('Origin',(-90.,-90.,0.));
#1674=CARTESIAN_POINT('',(-90.,-90.,0.));
#1675=CARTESIAN_POINT('',(90.,-90.,0.));
#1676=CARTESIAN_POINT('Origin',(-80.,-80.,0.));
#1677=CARTESIAN_POINT('',(80.,-80.,0.));
#1678=CARTESIAN_POINT('Origin',(-90.,-5.,0.));
#1679=CARTESIAN_POINT('',(-80.,-5.,0.));
#1680=CARTESIAN_POINT('Origin',(-80.,80.,0.));
#1681=CARTESIAN_POINT('',(-80.,-80.,0.));
#1682=CARTESIAN_POINT('Origin',(80.,-80.,0.));
#1683=CARTESIAN_POINT('Origin',(-80.,80.,0.));
#1684=CARTESIAN_POINT('Origin',(80.,80.,0.));
#1685=CARTESIAN_POINT('',(80.,80.,0.));
#1686=CARTESIAN_POINT('Origin',(80.,-80.,0.));
#1687=CARTESIAN_POINT('Origin',(-80.,-80.,0.));
#1688=CARTESIAN_POINT('Origin',(-90.,90.,0.));
#1689=CARTESIAN_POINT('Origin',(90.,-90.,0.));
#1690=UNCERTAINTY_MEASURE_WITH_UNIT(LENGTH_MEASURE(0.01),#1694,
'DISTANCE_ACCURACY_VALUE',
'Maximum model space distance between geometric entities at asserted c
onnectivities');
#1691=UNCERTAINTY_MEASURE_WITH_UNIT(LENGTH_MEASURE(0.01),#1694,
'DISTANCE_ACCURACY_VALUE',
'Maximum model space distance between geometric entities at asserted c
onnectivities');
#1692=(
GEOMETRIC_REPRESENTATION_CONTEXT(3)
GLOBAL_UNCERTAINTY_ASSIGNED_CONTEXT((#1690))
GLOBAL_UNIT_ASSIGNED_CONTEXT((#1694,#1696,#1697))
REPRESENTATION_CONTEXT('','3D')
);
#1693=(
GEOMETRIC_REPRESENTATION_CONTEXT(3)
GLOBAL_UNCERTAINTY_ASSIGNED_CONTEXT((#1691))
GLOBAL_UNIT_ASSIGNED_CONTEXT((#1694,#1696,#1697))
REPRESENTATION_CONTEXT('','3D')
);
#1694=(
LENGTH_UNIT()
NAMED_UNIT(*)
SI_UNIT(.MILLI.,.METRE.)
);
#1695=(
LENGTH_UNIT()
NAMED_UNIT(*)
SI_UNIT(.CENTI.,.METRE.)
);
#1696=(
NAMED_UNIT(*)
PLANE_ANGLE_UNIT()
SI_UNIT($,.RADIAN.)
);
#1697=(
NAMED_UNIT(*)
SI_UNIT($,.STERADIAN.)
SOLID_ANGLE_UNIT()
);
#1698=SHAPE_DEFINITION_REPRESENTATION(#1699,#1700);
#1699=PRODUCT_DEFINITION_SHAPE('',$,#1702);
#1700=SHAPE_REPRESENTATION('',(#1070),#1692);
#1701=PRODUCT_DEFINITION_CONTEXT('part definition',#1706,'design');
#1702=PRODUCT_DEFINITION('11_Module_Frame','11_Module_Frame',#1703,#1701);
#1703=PRODUCT_DEFINITION_FORMATION('',$,#1708);
#1704=PRODUCT_RELATED_PRODUCT_CATEGORY('11_Module_Frame',
'11_Module_Frame',(#1708));
#1705=APPLICATION_PROTOCOL_DEFINITION('international standard',
'automotive_design',2009,#1706);
#1706=APPLICATION_CONTEXT(
'Core Data for Automotive Mechanical Design Process');
#1707=PRODUCT_CONTEXT('part definition',#1706,'mechanical');
#1708=PRODUCT('11_Module_Frame','11_Module_Frame',$,(#1707));
#1709=PRESENTATION_STYLE_ASSIGNMENT((#1710));
#1710=SURFACE_STYLE_USAGE(.BOTH.,#1713);
#1711=SURFACE_STYLE_RENDERING_WITH_PROPERTIES($,#1717,(#1712));
#1712=SURFACE_STYLE_TRANSPARENT(0.53999999165535);
#1713=SURFACE_SIDE_STYLE('',(#1714,#1711));
#1714=SURFACE_STYLE_FILL_AREA(#1715);
#1715=FILL_AREA_STYLE('',(#1716));
#1716=FILL_AREA_STYLE_COLOUR('',#1717);
#1717=COLOUR_RGB('',0.8,0.8,0.8);
ENDSEC;
END-ISO-10303-21;
