ISO-10303-21;
HEADER;
/* Generated by software containing ST-Developer
 * from STEP Tools, Inc. (www.steptools.com) 
 */

FILE_DESCRIPTION(
/* description */ (''),
/* implementation_level */ '2;1');

FILE_NAME(
/* name */ '12_Wheel_Guard.step',
/* time_stamp */ '2026-10-08T17:08:31+09:00',
/* author */ ('Reaction Wheel Pendulum project'),
/* organization */ (''),
/* preprocessor_version */ 'ST-DEVELOPER v20.1',
/* originating_system */ 'Autodesk Inventor 2026',
/* authorisation */ '');

FILE_SCHEMA (('AUTOMOTIVE_DESIGN { 1 0 10303 214 3 1 1 }'));
ENDSEC;

DATA;
#10=MECHANICAL_DESIGN_GEOMETRIC_PRESENTATION_REPRESENTATION('',(#13),#1807);
#11=SHAPE_REPRESENTATION_RELATIONSHIP('SRR','None',#1814,#12);
#12=ADVANCED_BREP_SHAPE_REPRESENTATION('',(#14),#1806);
#13=STYLED_ITEM('',(#1823),#14);
#14=MANIFOLD_SOLID_BREP('\X2\30BD30EA30C330C9\X0\1',#1122);
#15=FACE_BOUND('',#168,.T.);
#16=FACE_BOUND('',#169,.T.);
#17=FACE_BOUND('',#170,.T.);
#18=FACE_BOUND('',#171,.T.);
#19=FACE_BOUND('',#172,.T.);
#20=FACE_BOUND('',#173,.T.);
#21=FACE_BOUND('',#174,.T.);
#22=FACE_BOUND('',#175,.T.);
#23=FACE_BOUND('',#176,.T.);
#24=FACE_BOUND('',#178,.T.);
#25=FACE_BOUND('',#179,.T.);
#26=FACE_BOUND('',#180,.T.);
#27=FACE_BOUND('',#181,.T.);
#28=FACE_BOUND('',#182,.T.);
#29=FACE_BOUND('',#183,.T.);
#30=FACE_BOUND('',#184,.T.);
#31=FACE_BOUND('',#185,.T.);
#32=FACE_BOUND('',#186,.T.);
#33=FACE_BOUND('',#188,.T.);
#34=FACE_BOUND('',#192,.T.);
#35=FACE_BOUND('',#196,.T.);
#36=FACE_BOUND('',#200,.T.);
#37=FACE_BOUND('',#203,.T.);
#38=FACE_BOUND('',#207,.T.);
#39=FACE_BOUND('',#210,.T.);
#40=FACE_BOUND('',#214,.T.);
#41=PLANE('',#1169);
#42=PLANE('',#1170);
#43=PLANE('',#1171);
#44=PLANE('',#1172);
#45=PLANE('',#1173);
#46=PLANE('',#1174);
#47=PLANE('',#1175);
#48=PLANE('',#1176);
#49=PLANE('',#1177);
#50=PLANE('',#1178);
#51=PLANE('',#1179);
#52=PLANE('',#1180);
#53=PLANE('',#1181);
#54=PLANE('',#1182);
#55=PLANE('',#1183);
#56=PLANE('',#1184);
#57=PLANE('',#1188);
#58=PLANE('',#1189);
#59=PLANE('',#1190);
#60=PLANE('',#1191);
#61=PLANE('',#1192);
#62=PLANE('',#1193);
#63=PLANE('',#1194);
#64=PLANE('',#1195);
#65=PLANE('',#1196);
#66=PLANE('',#1197);
#67=PLANE('',#1198);
#68=PLANE('',#1199);
#69=PLANE('',#1200);
#70=PLANE('',#1201);
#71=PLANE('',#1202);
#72=PLANE('',#1203);
#73=PLANE('',#1204);
#74=PLANE('',#1205);
#75=PLANE('',#1206);
#76=PLANE('',#1207);
#77=PLANE('',#1208);
#78=PLANE('',#1209);
#79=PLANE('',#1210);
#80=PLANE('',#1211);
#81=PLANE('',#1212);
#82=PLANE('',#1213);
#83=PLANE('',#1214);
#84=PLANE('',#1215);
#85=PLANE('',#1216);
#86=PLANE('',#1217);
#87=FACE_OUTER_BOUND('',#142,.T.);
#88=FACE_OUTER_BOUND('',#143,.T.);
#89=FACE_OUTER_BOUND('',#144,.T.);
#90=FACE_OUTER_BOUND('',#145,.T.);
#91=FACE_OUTER_BOUND('',#146,.T.);
#92=FACE_OUTER_BOUND('',#147,.T.);
#93=FACE_OUTER_BOUND('',#148,.T.);
#94=FACE_OUTER_BOUND('',#149,.T.);
#95=FACE_OUTER_BOUND('',#150,.T.);
#96=FACE_OUTER_BOUND('',#151,.T.);
#97=FACE_OUTER_BOUND('',#152,.T.);
#98=FACE_OUTER_BOUND('',#153,.T.);
#99=FACE_OUTER_BOUND('',#154,.T.);
#100=FACE_OUTER_BOUND('',#155,.T.);
#101=FACE_OUTER_BOUND('',#156,.T.);
#102=FACE_OUTER_BOUND('',#157,.T.);
#103=FACE_OUTER_BOUND('',#158,.T.);
#104=FACE_OUTER_BOUND('',#159,.T.);
#105=FACE_OUTER_BOUND('',#160,.T.);
#106=FACE_OUTER_BOUND('',#161,.T.);
#107=FACE_OUTER_BOUND('',#162,.T.);
#108=FACE_OUTER_BOUND('',#163,.T.);
#109=FACE_OUTER_BOUND('',#164,.T.);
#110=FACE_OUTER_BOUND('',#165,.T.);
#111=FACE_OUTER_BOUND('',#166,.T.);
#112=FACE_OUTER_BOUND('',#167,.T.);
#113=FACE_OUTER_BOUND('',#177,.T.);
#114=FACE_OUTER_BOUND('',#187,.T.);
#115=FACE_OUTER_BOUND('',#189,.T.);
#116=FACE_OUTER_BOUND('',#190,.T.);
#117=FACE_OUTER_BOUND('',#191,.T.);
#118=FACE_OUTER_BOUND('',#193,.T.);
#119=FACE_OUTER_BOUND('',#194,.T.);
#120=FACE_OUTER_BOUND('',#195,.T.);
#121=FACE_OUTER_BOUND('',#197,.T.);
#122=FACE_OUTER_BOUND('',#198,.T.);
#123=FACE_OUTER_BOUND('',#199,.T.);
#124=FACE_OUTER_BOUND('',#201,.T.);
#125=FACE_OUTER_BOUND('',#202,.T.);
#126=FACE_OUTER_BOUND('',#204,.T.);
#127=FACE_OUTER_BOUND('',#205,.T.);
#128=FACE_OUTER_BOUND('',#206,.T.);
#129=FACE_OUTER_BOUND('',#208,.T.);
#130=FACE_OUTER_BOUND('',#209,.T.);
#131=FACE_OUTER_BOUND('',#211,.T.);
#132=FACE_OUTER_BOUND('',#212,.T.);
#133=FACE_OUTER_BOUND('',#213,.T.);
#134=FACE_OUTER_BOUND('',#215,.T.);
#135=FACE_OUTER_BOUND('',#216,.T.);
#136=FACE_OUTER_BOUND('',#217,.T.);
#137=FACE_OUTER_BOUND('',#218,.T.);
#138=FACE_OUTER_BOUND('',#219,.T.);
#139=FACE_OUTER_BOUND('',#220,.T.);
#140=FACE_OUTER_BOUND('',#221,.T.);
#141=FACE_OUTER_BOUND('',#222,.T.);
#142=EDGE_LOOP('',(#756,#757,#758,#759));
#143=EDGE_LOOP('',(#760,#761,#762,#763));
#144=EDGE_LOOP('',(#764,#765,#766,#767));
#145=EDGE_LOOP('',(#768,#769,#770,#771));
#146=EDGE_LOOP('',(#772,#773,#774,#775));
#147=EDGE_LOOP('',(#776,#777,#778,#779));
#148=EDGE_LOOP('',(#780,#781,#782,#783));
#149=EDGE_LOOP('',(#784,#785,#786,#787));
#150=EDGE_LOOP('',(#788,#789,#790,#791));
#151=EDGE_LOOP('',(#792,#793,#794,#795));
#152=EDGE_LOOP('',(#796,#797,#798,#799));
#153=EDGE_LOOP('',(#800,#801,#802,#803));
#154=EDGE_LOOP('',(#804,#805,#806,#807));
#155=EDGE_LOOP('',(#808,#809,#810,#811));
#156=EDGE_LOOP('',(#812,#813,#814,#815));
#157=EDGE_LOOP('',(#816,#817,#818,#819));
#158=EDGE_LOOP('',(#820,#821,#822,#823));
#159=EDGE_LOOP('',(#824,#825,#826,#827));
#160=EDGE_LOOP('',(#828,#829,#830,#831));
#161=EDGE_LOOP('',(#832,#833,#834,#835));
#162=EDGE_LOOP('',(#836,#837,#838,#839));
#163=EDGE_LOOP('',(#840,#841,#842,#843));
#164=EDGE_LOOP('',(#844,#845,#846,#847));
#165=EDGE_LOOP('',(#848,#849,#850,#851));
#166=EDGE_LOOP('',(#852,#853,#854,#855));
#167=EDGE_LOOP('',(#856,#857,#858,#859));
#168=EDGE_LOOP('',(#860));
#169=EDGE_LOOP('',(#861));
#170=EDGE_LOOP('',(#862));
#171=EDGE_LOOP('',(#863));
#172=EDGE_LOOP('',(#864,#865,#866,#867));
#173=EDGE_LOOP('',(#868,#869,#870,#871));
#174=EDGE_LOOP('',(#872,#873,#874,#875));
#175=EDGE_LOOP('',(#876,#877,#878,#879));
#176=EDGE_LOOP('',(#880));
#177=EDGE_LOOP('',(#881,#882,#883,#884));
#178=EDGE_LOOP('',(#885));
#179=EDGE_LOOP('',(#886));
#180=EDGE_LOOP('',(#887));
#181=EDGE_LOOP('',(#888));
#182=EDGE_LOOP('',(#889,#890,#891,#892));
#183=EDGE_LOOP('',(#893,#894,#895,#896));
#184=EDGE_LOOP('',(#897,#898,#899,#900));
#185=EDGE_LOOP('',(#901,#902,#903,#904));
#186=EDGE_LOOP('',(#905));
#187=EDGE_LOOP('',(#906,#907,#908,#909));
#188=EDGE_LOOP('',(#910));
#189=EDGE_LOOP('',(#911,#912,#913,#914,#915));
#190=EDGE_LOOP('',(#916,#917,#918,#919,#920));
#191=EDGE_LOOP('',(#921,#922,#923,#924));
#192=EDGE_LOOP('',(#925));
#193=EDGE_LOOP('',(#926,#927,#928,#929));
#194=EDGE_LOOP('',(#930,#931,#932,#933));
#195=EDGE_LOOP('',(#934,#935,#936,#937));
#196=EDGE_LOOP('',(#938));
#197=EDGE_LOOP('',(#939,#940,#941,#942,#943));
#198=EDGE_LOOP('',(#944,#945,#946,#947,#948));
#199=EDGE_LOOP('',(#949,#950,#951,#952));
#200=EDGE_LOOP('',(#953));
#201=EDGE_LOOP('',(#954,#955,#956,#957));
#202=EDGE_LOOP('',(#958,#959,#960,#961));
#203=EDGE_LOOP('',(#962));
#204=EDGE_LOOP('',(#963,#964,#965,#966,#967));
#205=EDGE_LOOP('',(#968,#969,#970,#971,#972));
#206=EDGE_LOOP('',(#973,#974,#975,#976));
#207=EDGE_LOOP('',(#977));
#208=EDGE_LOOP('',(#978,#979,#980,#981));
#209=EDGE_LOOP('',(#982,#983,#984,#985));
#210=EDGE_LOOP('',(#986));
#211=EDGE_LOOP('',(#987,#988,#989,#990,#991));
#212=EDGE_LOOP('',(#992,#993,#994,#995,#996));
#213=EDGE_LOOP('',(#997,#998,#999,#1000));
#214=EDGE_LOOP('',(#1001));
#215=EDGE_LOOP('',(#1002,#1003,#1004,#1005,#1006,#1007));
#216=EDGE_LOOP('',(#1008,#1009,#1010,#1011,#1012,#1013));
#217=EDGE_LOOP('',(#1014,#1015,#1016,#1017,#1018,#1019));
#218=EDGE_LOOP('',(#1020,#1021,#1022,#1023,#1024,#1025));
#219=EDGE_LOOP('',(#1026,#1027,#1028,#1029,#1030,#1031,#1032,#1033));
#220=EDGE_LOOP('',(#1034,#1035,#1036,#1037,#1038,#1039,#1040,#1041));
#221=EDGE_LOOP('',(#1042,#1043,#1044,#1045,#1046,#1047,#1048,#1049));
#222=EDGE_LOOP('',(#1050,#1051,#1052,#1053,#1054,#1055,#1056,#1057));
#223=LINE('',#1504,#356);
#224=LINE('',#1510,#357);
#225=LINE('',#1516,#358);
#226=LINE('',#1522,#359);
#227=LINE('',#1528,#360);
#228=LINE('',#1534,#361);
#229=LINE('',#1540,#362);
#230=LINE('',#1546,#363);
#231=LINE('',#1551,#364);
#232=LINE('',#1553,#365);
#233=LINE('',#1555,#366);
#234=LINE('',#1556,#367);
#235=LINE('',#1559,#368);
#236=LINE('',#1561,#369);
#237=LINE('',#1562,#370);
#238=LINE('',#1565,#371);
#239=LINE('',#1567,#372);
#240=LINE('',#1568,#373);
#241=LINE('',#1570,#374);
#242=LINE('',#1571,#375);
#243=LINE('',#1575,#376);
#244=LINE('',#1577,#377);
#245=LINE('',#1579,#378);
#246=LINE('',#1580,#379);
#247=LINE('',#1583,#380);
#248=LINE('',#1585,#381);
#249=LINE('',#1586,#382);
#250=LINE('',#1589,#383);
#251=LINE('',#1591,#384);
#252=LINE('',#1592,#385);
#253=LINE('',#1594,#386);
#254=LINE('',#1595,#387);
#255=LINE('',#1599,#388);
#256=LINE('',#1601,#389);
#257=LINE('',#1603,#390);
#258=LINE('',#1604,#391);
#259=LINE('',#1607,#392);
#260=LINE('',#1609,#393);
#261=LINE('',#1610,#394);
#262=LINE('',#1613,#395);
#263=LINE('',#1615,#396);
#264=LINE('',#1616,#397);
#265=LINE('',#1618,#398);
#266=LINE('',#1619,#399);
#267=LINE('',#1623,#400);
#268=LINE('',#1625,#401);
#269=LINE('',#1627,#402);
#270=LINE('',#1628,#403);
#271=LINE('',#1631,#404);
#272=LINE('',#1633,#405);
#273=LINE('',#1634,#406);
#274=LINE('',#1637,#407);
#275=LINE('',#1639,#408);
#276=LINE('',#1640,#409);
#277=LINE('',#1642,#410);
#278=LINE('',#1643,#411);
#279=LINE('',#1648,#412);
#280=LINE('',#1653,#413);
#281=LINE('',#1655,#414);
#282=LINE('',#1657,#415);
#283=LINE('',#1658,#416);
#284=LINE('',#1662,#417);
#285=LINE('',#1664,#418);
#286=LINE('',#1666,#419);
#287=LINE('',#1667,#420);
#288=LINE('',#1671,#421);
#289=LINE('',#1673,#422);
#290=LINE('',#1675,#423);
#291=LINE('',#1676,#424);
#292=LINE('',#1680,#425);
#293=LINE('',#1681,#426);
#294=LINE('',#1683,#427);
#295=LINE('',#1684,#428);
#296=LINE('',#1687,#429);
#297=LINE('',#1689,#430);
#298=LINE('',#1690,#431);
#299=LINE('',#1693,#432);
#300=LINE('',#1694,#433);
#301=LINE('',#1697,#434);
#302=LINE('',#1699,#435);
#303=LINE('',#1700,#436);
#304=LINE('',#1703,#437);
#305=LINE('',#1705,#438);
#306=LINE('',#1706,#439);
#307=LINE('',#1710,#440);
#308=LINE('',#1711,#441);
#309=LINE('',#1713,#442);
#310=LINE('',#1714,#443);
#311=LINE('',#1718,#444);
#312=LINE('',#1720,#445);
#313=LINE('',#1721,#446);
#314=LINE('',#1722,#447);
#315=LINE('',#1725,#448);
#316=LINE('',#1726,#449);
#317=LINE('',#1729,#450);
#318=LINE('',#1730,#451);
#319=LINE('',#1733,#452);
#320=LINE('',#1735,#453);
#321=LINE('',#1736,#454);
#322=LINE('',#1739,#455);
#323=LINE('',#1741,#456);
#324=LINE('',#1743,#457);
#325=LINE('',#1744,#458);
#326=LINE('',#1748,#459);
#327=LINE('',#1749,#460);
#328=LINE('',#1750,#461);
#329=LINE('',#1753,#462);
#330=LINE('',#1755,#463);
#331=LINE('',#1756,#464);
#332=LINE('',#1759,#465);
#333=LINE('',#1760,#466);
#334=LINE('',#1763,#467);
#335=LINE('',#1765,#468);
#336=LINE('',#1766,#469);
#337=LINE('',#1769,#470);
#338=LINE('',#1770,#471);
#339=LINE('',#1772,#472);
#340=LINE('',#1773,#473);
#341=LINE('',#1777,#474);
#342=LINE('',#1778,#475);
#343=LINE('',#1779,#476);
#344=LINE('',#1782,#477);
#345=LINE('',#1783,#478);
#346=LINE('',#1786,#479);
#347=LINE('',#1787,#480);
#348=LINE('',#1789,#481);
#349=LINE('',#1790,#482);
#350=LINE('',#1792,#483);
#351=LINE('',#1794,#484);
#352=LINE('',#1797,#485);
#353=LINE('',#1798,#486);
#354=LINE('',#1800,#487);
#355=LINE('',#1802,#488);
#356=VECTOR('',#1224,2.10000000000001);
#357=VECTOR('',#1231,2.10000000000001);
#358=VECTOR('',#1238,2.10000000000001);
#359=VECTOR('',#1245,2.10000000000001);
#360=VECTOR('',#1252,2.10000000000001);
#361=VECTOR('',#1259,2.10000000000001);
#362=VECTOR('',#1266,2.10000000000001);
#363=VECTOR('',#1273,2.10000000000001);
#364=VECTOR('',#1278,10.);
#365=VECTOR('',#1279,10.);
#366=VECTOR('',#1280,10.);
#367=VECTOR('',#1281,10.);
#368=VECTOR('',#1284,10.);
#369=VECTOR('',#1285,10.);
#370=VECTOR('',#1286,10.);
#371=VECTOR('',#1289,10.);
#372=VECTOR('',#1290,10.);
#373=VECTOR('',#1291,10.);
#374=VECTOR('',#1294,10.);
#375=VECTOR('',#1295,10.);
#376=VECTOR('',#1298,10.);
#377=VECTOR('',#1299,10.);
#378=VECTOR('',#1300,10.);
#379=VECTOR('',#1301,10.);
#380=VECTOR('',#1304,10.);
#381=VECTOR('',#1305,10.);
#382=VECTOR('',#1306,10.);
#383=VECTOR('',#1309,10.);
#384=VECTOR('',#1310,10.);
#385=VECTOR('',#1311,10.);
#386=VECTOR('',#1314,10.);
#387=VECTOR('',#1315,10.);
#388=VECTOR('',#1318,10.);
#389=VECTOR('',#1319,10.);
#390=VECTOR('',#1320,10.);
#391=VECTOR('',#1321,10.);
#392=VECTOR('',#1324,10.);
#393=VECTOR('',#1325,10.);
#394=VECTOR('',#1326,10.);
#395=VECTOR('',#1329,10.);
#396=VECTOR('',#1330,10.);
#397=VECTOR('',#1331,10.);
#398=VECTOR('',#1334,10.);
#399=VECTOR('',#1335,10.);
#400=VECTOR('',#1338,10.);
#401=VECTOR('',#1339,10.);
#402=VECTOR('',#1340,10.);
#403=VECTOR('',#1341,10.);
#404=VECTOR('',#1344,10.);
#405=VECTOR('',#1345,10.);
#406=VECTOR('',#1346,10.);
#407=VECTOR('',#1349,10.);
#408=VECTOR('',#1350,10.);
#409=VECTOR('',#1351,10.);
#410=VECTOR('',#1354,10.);
#411=VECTOR('',#1355,10.);
#412=VECTOR('',#1360,12.);
#413=VECTOR('',#1365,10.);
#414=VECTOR('',#1366,10.);
#415=VECTOR('',#1367,10.);
#416=VECTOR('',#1368,10.);
#417=VECTOR('',#1371,10.);
#418=VECTOR('',#1372,10.);
#419=VECTOR('',#1373,10.);
#420=VECTOR('',#1374,10.);
#421=VECTOR('',#1377,10.);
#422=VECTOR('',#1378,10.);
#423=VECTOR('',#1379,10.);
#424=VECTOR('',#1380,10.);
#425=VECTOR('',#1383,10.);
#426=VECTOR('',#1384,10.);
#427=VECTOR('',#1385,10.);
#428=VECTOR('',#1386,10.);
#429=VECTOR('',#1389,10.);
#430=VECTOR('',#1390,10.);
#431=VECTOR('',#1391,10.);
#432=VECTOR('',#1394,10.);
#433=VECTOR('',#1395,10.);
#434=VECTOR('',#1398,10.);
#435=VECTOR('',#1399,10.);
#436=VECTOR('',#1400,10.);
#437=VECTOR('',#1403,10.);
#438=VECTOR('',#1404,10.);
#439=VECTOR('',#1405,10.);
#440=VECTOR('',#1408,10.);
#441=VECTOR('',#1409,10.);
#442=VECTOR('',#1410,10.);
#443=VECTOR('',#1411,10.);
#444=VECTOR('',#1414,10.);
#445=VECTOR('',#1415,10.);
#446=VECTOR('',#1416,10.);
#447=VECTOR('',#1417,10.);
#448=VECTOR('',#1420,10.);
#449=VECTOR('',#1421,10.);
#450=VECTOR('',#1424,10.);
#451=VECTOR('',#1425,10.);
#452=VECTOR('',#1428,10.);
#453=VECTOR('',#1429,10.);
#454=VECTOR('',#1430,10.);
#455=VECTOR('',#1433,10.);
#456=VECTOR('',#1434,10.);
#457=VECTOR('',#1435,10.);
#458=VECTOR('',#1436,10.);
#459=VECTOR('',#1439,10.);
#460=VECTOR('',#1440,10.);
#461=VECTOR('',#1441,10.);
#462=VECTOR('',#1444,10.);
#463=VECTOR('',#1445,10.);
#464=VECTOR('',#1446,10.);
#465=VECTOR('',#1449,10.);
#466=VECTOR('',#1450,10.);
#467=VECTOR('',#1453,10.);
#468=VECTOR('',#1454,10.);
#469=VECTOR('',#1455,10.);
#470=VECTOR('',#1458,10.);
#471=VECTOR('',#1459,10.);
#472=VECTOR('',#1460,10.);
#473=VECTOR('',#1461,10.);
#474=VECTOR('',#1464,10.);
#475=VECTOR('',#1465,10.);
#476=VECTOR('',#1466,10.);
#477=VECTOR('',#1469,10.);
#478=VECTOR('',#1470,10.);
#479=VECTOR('',#1473,10.);
#480=VECTOR('',#1474,10.);
#481=VECTOR('',#1477,10.);
#482=VECTOR('',#1478,10.);
#483=VECTOR('',#1481,10.);
#484=VECTOR('',#1484,10.);
#485=VECTOR('',#1489,10.);
#486=VECTOR('',#1490,10.);
#487=VECTOR('',#1493,10.);
#488=VECTOR('',#1496,10.);
#489=CIRCLE('',#1146,2.10000000000001);
#490=CIRCLE('',#1147,2.10000000000001);
#491=CIRCLE('',#1149,2.10000000000001);
#492=CIRCLE('',#1150,2.10000000000001);
#493=CIRCLE('',#1152,2.10000000000001);
#494=CIRCLE('',#1153,2.10000000000001);
#495=CIRCLE('',#1155,2.10000000000001);
#496=CIRCLE('',#1156,2.10000000000001);
#497=CIRCLE('',#1158,2.10000000000001);
#498=CIRCLE('',#1159,2.10000000000001);
#499=CIRCLE('',#1161,2.10000000000001);
#500=CIRCLE('',#1162,2.10000000000001);
#501=CIRCLE('',#1164,2.10000000000001);
#502=CIRCLE('',#1165,2.10000000000001);
#503=CIRCLE('',#1167,2.10000000000001);
#504=CIRCLE('',#1168,2.10000000000001);
#505=CIRCLE('',#1186,12.);
#506=CIRCLE('',#1187,12.);
#507=VERTEX_POINT('',#1501);
#508=VERTEX_POINT('',#1503);
#509=VERTEX_POINT('',#1507);
#510=VERTEX_POINT('',#1509);
#511=VERTEX_POINT('',#1513);
#512=VERTEX_POINT('',#1515);
#513=VERTEX_POINT('',#1519);
#514=VERTEX_POINT('',#1521);
#515=VERTEX_POINT('',#1525);
#516=VERTEX_POINT('',#1527);
#517=VERTEX_POINT('',#1531);
#518=VERTEX_POINT('',#1533);
#519=VERTEX_POINT('',#1537);
#520=VERTEX_POINT('',#1539);
#521=VERTEX_POINT('',#1543);
#522=VERTEX_POINT('',#1545);
#523=VERTEX_POINT('',#1549);
#524=VERTEX_POINT('',#1550);
#525=VERTEX_POINT('',#1552);
#526=VERTEX_POINT('',#1554);
#527=VERTEX_POINT('',#1558);
#528=VERTEX_POINT('',#1560);
#529=VERTEX_POINT('',#1564);
#530=VERTEX_POINT('',#1566);
#531=VERTEX_POINT('',#1573);
#532=VERTEX_POINT('',#1574);
#533=VERTEX_POINT('',#1576);
#534=VERTEX_POINT('',#1578);
#535=VERTEX_POINT('',#1582);
#536=VERTEX_POINT('',#1584);
#537=VERTEX_POINT('',#1588);
#538=VERTEX_POINT('',#1590);
#539=VERTEX_POINT('',#1597);
#540=VERTEX_POINT('',#1598);
#541=VERTEX_POINT('',#1600);
#542=VERTEX_POINT('',#1602);
#543=VERTEX_POINT('',#1606);
#544=VERTEX_POINT('',#1608);
#545=VERTEX_POINT('',#1612);
#546=VERTEX_POINT('',#1614);
#547=VERTEX_POINT('',#1621);
#548=VERTEX_POINT('',#1622);
#549=VERTEX_POINT('',#1624);
#550=VERTEX_POINT('',#1626);
#551=VERTEX_POINT('',#1630);
#552=VERTEX_POINT('',#1632);
#553=VERTEX_POINT('',#1636);
#554=VERTEX_POINT('',#1638);
#555=VERTEX_POINT('',#1645);
#556=VERTEX_POINT('',#1647);
#557=VERTEX_POINT('',#1651);
#558=VERTEX_POINT('',#1652);
#559=VERTEX_POINT('',#1654);
#560=VERTEX_POINT('',#1656);
#561=VERTEX_POINT('',#1660);
#562=VERTEX_POINT('',#1661);
#563=VERTEX_POINT('',#1663);
#564=VERTEX_POINT('',#1665);
#565=VERTEX_POINT('',#1669);
#566=VERTEX_POINT('',#1670);
#567=VERTEX_POINT('',#1672);
#568=VERTEX_POINT('',#1674);
#569=VERTEX_POINT('',#1678);
#570=VERTEX_POINT('',#1679);
#571=VERTEX_POINT('',#1682);
#572=VERTEX_POINT('',#1686);
#573=VERTEX_POINT('',#1688);
#574=VERTEX_POINT('',#1692);
#575=VERTEX_POINT('',#1696);
#576=VERTEX_POINT('',#1698);
#577=VERTEX_POINT('',#1702);
#578=VERTEX_POINT('',#1704);
#579=VERTEX_POINT('',#1708);
#580=VERTEX_POINT('',#1709);
#581=VERTEX_POINT('',#1712);
#582=VERTEX_POINT('',#1716);
#583=VERTEX_POINT('',#1717);
#584=VERTEX_POINT('',#1719);
#585=VERTEX_POINT('',#1724);
#586=VERTEX_POINT('',#1728);
#587=VERTEX_POINT('',#1732);
#588=VERTEX_POINT('',#1734);
#589=VERTEX_POINT('',#1738);
#590=VERTEX_POINT('',#1740);
#591=VERTEX_POINT('',#1742);
#592=VERTEX_POINT('',#1746);
#593=VERTEX_POINT('',#1747);
#594=VERTEX_POINT('',#1752);
#595=VERTEX_POINT('',#1754);
#596=VERTEX_POINT('',#1758);
#597=VERTEX_POINT('',#1762);
#598=VERTEX_POINT('',#1764);
#599=VERTEX_POINT('',#1768);
#600=VERTEX_POINT('',#1771);
#601=VERTEX_POINT('',#1775);
#602=VERTEX_POINT('',#1776);
#603=VERTEX_POINT('',#1781);
#604=VERTEX_POINT('',#1785);
#605=EDGE_CURVE('',#507,#507,#489,.T.);
#606=EDGE_CURVE('',#507,#508,#223,.T.);
#607=EDGE_CURVE('',#508,#508,#490,.T.);
#608=EDGE_CURVE('',#509,#509,#491,.T.);
#609=EDGE_CURVE('',#509,#510,#224,.T.);
#610=EDGE_CURVE('',#510,#510,#492,.T.);
#611=EDGE_CURVE('',#511,#511,#493,.T.);
#612=EDGE_CURVE('',#511,#512,#225,.T.);
#613=EDGE_CURVE('',#512,#512,#494,.T.);
#614=EDGE_CURVE('',#513,#513,#495,.T.);
#615=EDGE_CURVE('',#513,#514,#226,.T.);
#616=EDGE_CURVE('',#514,#514,#496,.T.);
#617=EDGE_CURVE('',#515,#515,#497,.T.);
#618=EDGE_CURVE('',#515,#516,#227,.T.);
#619=EDGE_CURVE('',#516,#516,#498,.T.);
#620=EDGE_CURVE('',#517,#517,#499,.T.);
#621=EDGE_CURVE('',#517,#518,#228,.T.);
#622=EDGE_CURVE('',#518,#518,#500,.T.);
#623=EDGE_CURVE('',#519,#519,#501,.T.);
#624=EDGE_CURVE('',#519,#520,#229,.T.);
#625=EDGE_CURVE('',#520,#520,#502,.T.);
#626=EDGE_CURVE('',#521,#521,#503,.T.);
#627=EDGE_CURVE('',#521,#522,#230,.T.);
#628=EDGE_CURVE('',#522,#522,#504,.T.);
#629=EDGE_CURVE('',#523,#524,#231,.T.);
#630=EDGE_CURVE('',#523,#525,#232,.T.);
#631=EDGE_CURVE('',#526,#525,#233,.T.);
#632=EDGE_CURVE('',#524,#526,#234,.T.);
#633=EDGE_CURVE('',#527,#523,#235,.T.);
#634=EDGE_CURVE('',#527,#528,#236,.T.);
#635=EDGE_CURVE('',#525,#528,#237,.T.);
#636=EDGE_CURVE('',#529,#527,#238,.T.);
#637=EDGE_CURVE('',#529,#530,#239,.T.);
#638=EDGE_CURVE('',#528,#530,#240,.T.);
#639=EDGE_CURVE('',#524,#529,#241,.T.);
#640=EDGE_CURVE('',#530,#526,#242,.T.);
#641=EDGE_CURVE('',#531,#532,#243,.T.);
#642=EDGE_CURVE('',#531,#533,#244,.T.);
#643=EDGE_CURVE('',#534,#533,#245,.T.);
#644=EDGE_CURVE('',#532,#534,#246,.T.);
#645=EDGE_CURVE('',#535,#531,#247,.T.);
#646=EDGE_CURVE('',#535,#536,#248,.T.);
#647=EDGE_CURVE('',#533,#536,#249,.T.);
#648=EDGE_CURVE('',#537,#535,#250,.T.);
#649=EDGE_CURVE('',#537,#538,#251,.T.);
#650=EDGE_CURVE('',#536,#538,#252,.T.);
#651=EDGE_CURVE('',#532,#537,#253,.T.);
#652=EDGE_CURVE('',#538,#534,#254,.T.);
#653=EDGE_CURVE('',#539,#540,#255,.T.);
#654=EDGE_CURVE('',#539,#541,#256,.T.);
#655=EDGE_CURVE('',#542,#541,#257,.T.);
#656=EDGE_CURVE('',#540,#542,#258,.T.);
#657=EDGE_CURVE('',#543,#539,#259,.T.);
#658=EDGE_CURVE('',#543,#544,#260,.T.);
#659=EDGE_CURVE('',#541,#544,#261,.T.);
#660=EDGE_CURVE('',#545,#543,#262,.T.);
#661=EDGE_CURVE('',#545,#546,#263,.T.);
#662=EDGE_CURVE('',#544,#546,#264,.T.);
#663=EDGE_CURVE('',#540,#545,#265,.T.);
#664=EDGE_CURVE('',#546,#542,#266,.T.);
#665=EDGE_CURVE('',#547,#548,#267,.T.);
#666=EDGE_CURVE('',#547,#549,#268,.T.);
#667=EDGE_CURVE('',#550,#549,#269,.T.);
#668=EDGE_CURVE('',#548,#550,#270,.T.);
#669=EDGE_CURVE('',#551,#547,#271,.T.);
#670=EDGE_CURVE('',#551,#552,#272,.T.);
#671=EDGE_CURVE('',#549,#552,#273,.T.);
#672=EDGE_CURVE('',#553,#551,#274,.T.);
#673=EDGE_CURVE('',#553,#554,#275,.T.);
#674=EDGE_CURVE('',#552,#554,#276,.T.);
#675=EDGE_CURVE('',#548,#553,#277,.T.);
#676=EDGE_CURVE('',#554,#550,#278,.T.);
#677=EDGE_CURVE('',#555,#555,#505,.T.);
#678=EDGE_CURVE('',#555,#556,#279,.T.);
#679=EDGE_CURVE('',#556,#556,#506,.T.);
#680=EDGE_CURVE('',#557,#558,#280,.T.);
#681=EDGE_CURVE('',#558,#559,#281,.T.);
#682=EDGE_CURVE('',#559,#560,#282,.T.);
#683=EDGE_CURVE('',#560,#557,#283,.T.);
#684=EDGE_CURVE('',#561,#562,#284,.T.);
#685=EDGE_CURVE('',#562,#563,#285,.T.);
#686=EDGE_CURVE('',#563,#564,#286,.T.);
#687=EDGE_CURVE('',#564,#561,#287,.T.);
#688=EDGE_CURVE('',#565,#566,#288,.T.);
#689=EDGE_CURVE('',#566,#567,#289,.T.);
#690=EDGE_CURVE('',#567,#568,#290,.T.);
#691=EDGE_CURVE('',#568,#565,#291,.T.);
#692=EDGE_CURVE('',#569,#570,#292,.T.);
#693=EDGE_CURVE('',#570,#568,#293,.T.);
#694=EDGE_CURVE('',#571,#567,#294,.T.);
#695=EDGE_CURVE('',#569,#571,#295,.T.);
#696=EDGE_CURVE('',#570,#572,#296,.T.);
#697=EDGE_CURVE('',#572,#573,#297,.T.);
#698=EDGE_CURVE('',#565,#573,#298,.T.);
#699=EDGE_CURVE('',#574,#569,#299,.T.);
#700=EDGE_CURVE('',#572,#574,#300,.T.);
#701=EDGE_CURVE('',#567,#575,#301,.T.);
#702=EDGE_CURVE('',#575,#576,#302,.T.);
#703=EDGE_CURVE('',#571,#576,#303,.T.);
#704=EDGE_CURVE('',#577,#573,#304,.T.);
#705=EDGE_CURVE('',#577,#578,#305,.T.);
#706=EDGE_CURVE('',#578,#565,#306,.T.);
#707=EDGE_CURVE('',#579,#580,#307,.T.);
#708=EDGE_CURVE('',#580,#578,#308,.T.);
#709=EDGE_CURVE('',#578,#581,#309,.T.);
#710=EDGE_CURVE('',#581,#579,#310,.T.);
#711=EDGE_CURVE('',#582,#583,#311,.T.);
#712=EDGE_CURVE('',#583,#584,#312,.T.);
#713=EDGE_CURVE('',#579,#584,#313,.T.);
#714=EDGE_CURVE('',#582,#581,#314,.T.);
#715=EDGE_CURVE('',#585,#582,#315,.T.);
#716=EDGE_CURVE('',#585,#577,#316,.T.);
#717=EDGE_CURVE('',#583,#586,#317,.T.);
#718=EDGE_CURVE('',#586,#585,#318,.T.);
#719=EDGE_CURVE('',#587,#584,#319,.T.);
#720=EDGE_CURVE('',#587,#588,#320,.T.);
#721=EDGE_CURVE('',#588,#579,#321,.T.);
#722=EDGE_CURVE('',#575,#589,#322,.T.);
#723=EDGE_CURVE('',#589,#590,#323,.T.);
#724=EDGE_CURVE('',#590,#591,#324,.T.);
#725=EDGE_CURVE('',#591,#575,#325,.T.);
#726=EDGE_CURVE('',#592,#593,#326,.T.);
#727=EDGE_CURVE('',#593,#576,#327,.T.);
#728=EDGE_CURVE('',#592,#591,#328,.T.);
#729=EDGE_CURVE('',#594,#592,#329,.T.);
#730=EDGE_CURVE('',#595,#590,#330,.T.);
#731=EDGE_CURVE('',#594,#595,#331,.T.);
#732=EDGE_CURVE('',#596,#594,#332,.T.);
#733=EDGE_CURVE('',#593,#596,#333,.T.);
#734=EDGE_CURVE('',#590,#597,#334,.T.);
#735=EDGE_CURVE('',#597,#598,#335,.T.);
#736=EDGE_CURVE('',#595,#598,#336,.T.);
#737=EDGE_CURVE('',#597,#599,#337,.T.);
#738=EDGE_CURVE('',#599,#588,#338,.T.);
#739=EDGE_CURVE('',#588,#600,#339,.T.);
#740=EDGE_CURVE('',#600,#597,#340,.T.);
#741=EDGE_CURVE('',#601,#602,#341,.T.);
#742=EDGE_CURVE('',#602,#598,#342,.T.);
#743=EDGE_CURVE('',#601,#600,#343,.T.);
#744=EDGE_CURVE('',#603,#601,#344,.T.);
#745=EDGE_CURVE('',#603,#587,#345,.T.);
#746=EDGE_CURVE('',#604,#603,#346,.T.);
#747=EDGE_CURVE('',#602,#604,#347,.T.);
#748=EDGE_CURVE('',#589,#558,#348,.T.);
#749=EDGE_CURVE('',#599,#557,#349,.T.);
#750=EDGE_CURVE('',#566,#559,#350,.T.);
#751=EDGE_CURVE('',#580,#560,#351,.T.);
#752=EDGE_CURVE('',#604,#561,#352,.T.);
#753=EDGE_CURVE('',#596,#564,#353,.T.);
#754=EDGE_CURVE('',#574,#563,#354,.T.);
#755=EDGE_CURVE('',#586,#562,#355,.T.);
#756=ORIENTED_EDGE('',*,*,#605,.F.);
#757=ORIENTED_EDGE('',*,*,#606,.T.);
#758=ORIENTED_EDGE('',*,*,#607,.F.);
#759=ORIENTED_EDGE('',*,*,#606,.F.);
#760=ORIENTED_EDGE('',*,*,#608,.F.);
#761=ORIENTED_EDGE('',*,*,#609,.T.);
#762=ORIENTED_EDGE('',*,*,#610,.F.);
#763=ORIENTED_EDGE('',*,*,#609,.F.);
#764=ORIENTED_EDGE('',*,*,#611,.F.);
#765=ORIENTED_EDGE('',*,*,#612,.T.);
#766=ORIENTED_EDGE('',*,*,#613,.F.);
#767=ORIENTED_EDGE('',*,*,#612,.F.);
#768=ORIENTED_EDGE('',*,*,#614,.F.);
#769=ORIENTED_EDGE('',*,*,#615,.T.);
#770=ORIENTED_EDGE('',*,*,#616,.F.);
#771=ORIENTED_EDGE('',*,*,#615,.F.);
#772=ORIENTED_EDGE('',*,*,#617,.F.);
#773=ORIENTED_EDGE('',*,*,#618,.T.);
#774=ORIENTED_EDGE('',*,*,#619,.F.);
#775=ORIENTED_EDGE('',*,*,#618,.F.);
#776=ORIENTED_EDGE('',*,*,#620,.F.);
#777=ORIENTED_EDGE('',*,*,#621,.T.);
#778=ORIENTED_EDGE('',*,*,#622,.F.);
#779=ORIENTED_EDGE('',*,*,#621,.F.);
#780=ORIENTED_EDGE('',*,*,#623,.F.);
#781=ORIENTED_EDGE('',*,*,#624,.T.);
#782=ORIENTED_EDGE('',*,*,#625,.F.);
#783=ORIENTED_EDGE('',*,*,#624,.F.);
#784=ORIENTED_EDGE('',*,*,#626,.F.);
#785=ORIENTED_EDGE('',*,*,#627,.T.);
#786=ORIENTED_EDGE('',*,*,#628,.F.);
#787=ORIENTED_EDGE('',*,*,#627,.F.);
#788=ORIENTED_EDGE('',*,*,#629,.F.);
#789=ORIENTED_EDGE('',*,*,#630,.T.);
#790=ORIENTED_EDGE('',*,*,#631,.F.);
#791=ORIENTED_EDGE('',*,*,#632,.F.);
#792=ORIENTED_EDGE('',*,*,#633,.F.);
#793=ORIENTED_EDGE('',*,*,#634,.T.);
#794=ORIENTED_EDGE('',*,*,#635,.F.);
#795=ORIENTED_EDGE('',*,*,#630,.F.);
#796=ORIENTED_EDGE('',*,*,#636,.F.);
#797=ORIENTED_EDGE('',*,*,#637,.T.);
#798=ORIENTED_EDGE('',*,*,#638,.F.);
#799=ORIENTED_EDGE('',*,*,#634,.F.);
#800=ORIENTED_EDGE('',*,*,#639,.F.);
#801=ORIENTED_EDGE('',*,*,#632,.T.);
#802=ORIENTED_EDGE('',*,*,#640,.F.);
#803=ORIENTED_EDGE('',*,*,#637,.F.);
#804=ORIENTED_EDGE('',*,*,#641,.F.);
#805=ORIENTED_EDGE('',*,*,#642,.T.);
#806=ORIENTED_EDGE('',*,*,#643,.F.);
#807=ORIENTED_EDGE('',*,*,#644,.F.);
#808=ORIENTED_EDGE('',*,*,#645,.F.);
#809=ORIENTED_EDGE('',*,*,#646,.T.);
#810=ORIENTED_EDGE('',*,*,#647,.F.);
#811=ORIENTED_EDGE('',*,*,#642,.F.);
#812=ORIENTED_EDGE('',*,*,#648,.F.);
#813=ORIENTED_EDGE('',*,*,#649,.T.);
#814=ORIENTED_EDGE('',*,*,#650,.F.);
#815=ORIENTED_EDGE('',*,*,#646,.F.);
#816=ORIENTED_EDGE('',*,*,#651,.F.);
#817=ORIENTED_EDGE('',*,*,#644,.T.);
#818=ORIENTED_EDGE('',*,*,#652,.F.);
#819=ORIENTED_EDGE('',*,*,#649,.F.);
#820=ORIENTED_EDGE('',*,*,#653,.F.);
#821=ORIENTED_EDGE('',*,*,#654,.T.);
#822=ORIENTED_EDGE('',*,*,#655,.F.);
#823=ORIENTED_EDGE('',*,*,#656,.F.);
#824=ORIENTED_EDGE('',*,*,#657,.F.);
#825=ORIENTED_EDGE('',*,*,#658,.T.);
#826=ORIENTED_EDGE('',*,*,#659,.F.);
#827=ORIENTED_EDGE('',*,*,#654,.F.);
#828=ORIENTED_EDGE('',*,*,#660,.F.);
#829=ORIENTED_EDGE('',*,*,#661,.T.);
#830=ORIENTED_EDGE('',*,*,#662,.F.);
#831=ORIENTED_EDGE('',*,*,#658,.F.);
#832=ORIENTED_EDGE('',*,*,#663,.F.);
#833=ORIENTED_EDGE('',*,*,#656,.T.);
#834=ORIENTED_EDGE('',*,*,#664,.F.);
#835=ORIENTED_EDGE('',*,*,#661,.F.);
#836=ORIENTED_EDGE('',*,*,#665,.F.);
#837=ORIENTED_EDGE('',*,*,#666,.T.);
#838=ORIENTED_EDGE('',*,*,#667,.F.);
#839=ORIENTED_EDGE('',*,*,#668,.F.);
#840=ORIENTED_EDGE('',*,*,#669,.F.);
#841=ORIENTED_EDGE('',*,*,#670,.T.);
#842=ORIENTED_EDGE('',*,*,#671,.F.);
#843=ORIENTED_EDGE('',*,*,#666,.F.);
#844=ORIENTED_EDGE('',*,*,#672,.F.);
#845=ORIENTED_EDGE('',*,*,#673,.T.);
#846=ORIENTED_EDGE('',*,*,#674,.F.);
#847=ORIENTED_EDGE('',*,*,#670,.F.);
#848=ORIENTED_EDGE('',*,*,#675,.F.);
#849=ORIENTED_EDGE('',*,*,#668,.T.);
#850=ORIENTED_EDGE('',*,*,#676,.F.);
#851=ORIENTED_EDGE('',*,*,#673,.F.);
#852=ORIENTED_EDGE('',*,*,#677,.F.);
#853=ORIENTED_EDGE('',*,*,#678,.T.);
#854=ORIENTED_EDGE('',*,*,#679,.F.);
#855=ORIENTED_EDGE('',*,*,#678,.F.);
#856=ORIENTED_EDGE('',*,*,#680,.T.);
#857=ORIENTED_EDGE('',*,*,#681,.T.);
#858=ORIENTED_EDGE('',*,*,#682,.T.);
#859=ORIENTED_EDGE('',*,*,#683,.T.);
#860=ORIENTED_EDGE('',*,*,#608,.T.);
#861=ORIENTED_EDGE('',*,*,#614,.T.);
#862=ORIENTED_EDGE('',*,*,#620,.T.);
#863=ORIENTED_EDGE('',*,*,#626,.T.);
#864=ORIENTED_EDGE('',*,*,#629,.T.);
#865=ORIENTED_EDGE('',*,*,#639,.T.);
#866=ORIENTED_EDGE('',*,*,#636,.T.);
#867=ORIENTED_EDGE('',*,*,#633,.T.);
#868=ORIENTED_EDGE('',*,*,#641,.T.);
#869=ORIENTED_EDGE('',*,*,#651,.T.);
#870=ORIENTED_EDGE('',*,*,#648,.T.);
#871=ORIENTED_EDGE('',*,*,#645,.T.);
#872=ORIENTED_EDGE('',*,*,#653,.T.);
#873=ORIENTED_EDGE('',*,*,#663,.T.);
#874=ORIENTED_EDGE('',*,*,#660,.T.);
#875=ORIENTED_EDGE('',*,*,#657,.T.);
#876=ORIENTED_EDGE('',*,*,#665,.T.);
#877=ORIENTED_EDGE('',*,*,#675,.T.);
#878=ORIENTED_EDGE('',*,*,#672,.T.);
#879=ORIENTED_EDGE('',*,*,#669,.T.);
#880=ORIENTED_EDGE('',*,*,#677,.T.);
#881=ORIENTED_EDGE('',*,*,#684,.T.);
#882=ORIENTED_EDGE('',*,*,#685,.T.);
#883=ORIENTED_EDGE('',*,*,#686,.T.);
#884=ORIENTED_EDGE('',*,*,#687,.T.);
#885=ORIENTED_EDGE('',*,*,#610,.T.);
#886=ORIENTED_EDGE('',*,*,#616,.T.);
#887=ORIENTED_EDGE('',*,*,#622,.T.);
#888=ORIENTED_EDGE('',*,*,#628,.T.);
#889=ORIENTED_EDGE('',*,*,#631,.T.);
#890=ORIENTED_EDGE('',*,*,#635,.T.);
#891=ORIENTED_EDGE('',*,*,#638,.T.);
#892=ORIENTED_EDGE('',*,*,#640,.T.);
#893=ORIENTED_EDGE('',*,*,#643,.T.);
#894=ORIENTED_EDGE('',*,*,#647,.T.);
#895=ORIENTED_EDGE('',*,*,#650,.T.);
#896=ORIENTED_EDGE('',*,*,#652,.T.);
#897=ORIENTED_EDGE('',*,*,#655,.T.);
#898=ORIENTED_EDGE('',*,*,#659,.T.);
#899=ORIENTED_EDGE('',*,*,#662,.T.);
#900=ORIENTED_EDGE('',*,*,#664,.T.);
#901=ORIENTED_EDGE('',*,*,#667,.T.);
#902=ORIENTED_EDGE('',*,*,#671,.T.);
#903=ORIENTED_EDGE('',*,*,#674,.T.);
#904=ORIENTED_EDGE('',*,*,#676,.T.);
#905=ORIENTED_EDGE('',*,*,#679,.T.);
#906=ORIENTED_EDGE('',*,*,#688,.T.);
#907=ORIENTED_EDGE('',*,*,#689,.T.);
#908=ORIENTED_EDGE('',*,*,#690,.T.);
#909=ORIENTED_EDGE('',*,*,#691,.T.);
#910=ORIENTED_EDGE('',*,*,#607,.T.);
#911=ORIENTED_EDGE('',*,*,#692,.T.);
#912=ORIENTED_EDGE('',*,*,#693,.T.);
#913=ORIENTED_EDGE('',*,*,#690,.F.);
#914=ORIENTED_EDGE('',*,*,#694,.F.);
#915=ORIENTED_EDGE('',*,*,#695,.F.);
#916=ORIENTED_EDGE('',*,*,#696,.T.);
#917=ORIENTED_EDGE('',*,*,#697,.T.);
#918=ORIENTED_EDGE('',*,*,#698,.F.);
#919=ORIENTED_EDGE('',*,*,#691,.F.);
#920=ORIENTED_EDGE('',*,*,#693,.F.);
#921=ORIENTED_EDGE('',*,*,#696,.F.);
#922=ORIENTED_EDGE('',*,*,#692,.F.);
#923=ORIENTED_EDGE('',*,*,#699,.F.);
#924=ORIENTED_EDGE('',*,*,#700,.F.);
#925=ORIENTED_EDGE('',*,*,#605,.T.);
#926=ORIENTED_EDGE('',*,*,#694,.T.);
#927=ORIENTED_EDGE('',*,*,#701,.T.);
#928=ORIENTED_EDGE('',*,*,#702,.T.);
#929=ORIENTED_EDGE('',*,*,#703,.F.);
#930=ORIENTED_EDGE('',*,*,#698,.T.);
#931=ORIENTED_EDGE('',*,*,#704,.F.);
#932=ORIENTED_EDGE('',*,*,#705,.T.);
#933=ORIENTED_EDGE('',*,*,#706,.T.);
#934=ORIENTED_EDGE('',*,*,#707,.T.);
#935=ORIENTED_EDGE('',*,*,#708,.T.);
#936=ORIENTED_EDGE('',*,*,#709,.T.);
#937=ORIENTED_EDGE('',*,*,#710,.T.);
#938=ORIENTED_EDGE('',*,*,#613,.T.);
#939=ORIENTED_EDGE('',*,*,#711,.T.);
#940=ORIENTED_EDGE('',*,*,#712,.T.);
#941=ORIENTED_EDGE('',*,*,#713,.F.);
#942=ORIENTED_EDGE('',*,*,#710,.F.);
#943=ORIENTED_EDGE('',*,*,#714,.F.);
#944=ORIENTED_EDGE('',*,*,#715,.T.);
#945=ORIENTED_EDGE('',*,*,#714,.T.);
#946=ORIENTED_EDGE('',*,*,#709,.F.);
#947=ORIENTED_EDGE('',*,*,#705,.F.);
#948=ORIENTED_EDGE('',*,*,#716,.F.);
#949=ORIENTED_EDGE('',*,*,#717,.F.);
#950=ORIENTED_EDGE('',*,*,#711,.F.);
#951=ORIENTED_EDGE('',*,*,#715,.F.);
#952=ORIENTED_EDGE('',*,*,#718,.F.);
#953=ORIENTED_EDGE('',*,*,#611,.T.);
#954=ORIENTED_EDGE('',*,*,#713,.T.);
#955=ORIENTED_EDGE('',*,*,#719,.F.);
#956=ORIENTED_EDGE('',*,*,#720,.T.);
#957=ORIENTED_EDGE('',*,*,#721,.T.);
#958=ORIENTED_EDGE('',*,*,#722,.T.);
#959=ORIENTED_EDGE('',*,*,#723,.T.);
#960=ORIENTED_EDGE('',*,*,#724,.T.);
#961=ORIENTED_EDGE('',*,*,#725,.T.);
#962=ORIENTED_EDGE('',*,*,#619,.T.);
#963=ORIENTED_EDGE('',*,*,#726,.T.);
#964=ORIENTED_EDGE('',*,*,#727,.T.);
#965=ORIENTED_EDGE('',*,*,#702,.F.);
#966=ORIENTED_EDGE('',*,*,#725,.F.);
#967=ORIENTED_EDGE('',*,*,#728,.F.);
#968=ORIENTED_EDGE('',*,*,#729,.T.);
#969=ORIENTED_EDGE('',*,*,#728,.T.);
#970=ORIENTED_EDGE('',*,*,#724,.F.);
#971=ORIENTED_EDGE('',*,*,#730,.F.);
#972=ORIENTED_EDGE('',*,*,#731,.F.);
#973=ORIENTED_EDGE('',*,*,#729,.F.);
#974=ORIENTED_EDGE('',*,*,#732,.F.);
#975=ORIENTED_EDGE('',*,*,#733,.F.);
#976=ORIENTED_EDGE('',*,*,#726,.F.);
#977=ORIENTED_EDGE('',*,*,#617,.T.);
#978=ORIENTED_EDGE('',*,*,#730,.T.);
#979=ORIENTED_EDGE('',*,*,#734,.T.);
#980=ORIENTED_EDGE('',*,*,#735,.T.);
#981=ORIENTED_EDGE('',*,*,#736,.F.);
#982=ORIENTED_EDGE('',*,*,#737,.T.);
#983=ORIENTED_EDGE('',*,*,#738,.T.);
#984=ORIENTED_EDGE('',*,*,#739,.T.);
#985=ORIENTED_EDGE('',*,*,#740,.T.);
#986=ORIENTED_EDGE('',*,*,#625,.T.);
#987=ORIENTED_EDGE('',*,*,#741,.T.);
#988=ORIENTED_EDGE('',*,*,#742,.T.);
#989=ORIENTED_EDGE('',*,*,#735,.F.);
#990=ORIENTED_EDGE('',*,*,#740,.F.);
#991=ORIENTED_EDGE('',*,*,#743,.F.);
#992=ORIENTED_EDGE('',*,*,#744,.T.);
#993=ORIENTED_EDGE('',*,*,#743,.T.);
#994=ORIENTED_EDGE('',*,*,#739,.F.);
#995=ORIENTED_EDGE('',*,*,#720,.F.);
#996=ORIENTED_EDGE('',*,*,#745,.F.);
#997=ORIENTED_EDGE('',*,*,#746,.F.);
#998=ORIENTED_EDGE('',*,*,#747,.F.);
#999=ORIENTED_EDGE('',*,*,#741,.F.);
#1000=ORIENTED_EDGE('',*,*,#744,.F.);
#1001=ORIENTED_EDGE('',*,*,#623,.T.);
#1002=ORIENTED_EDGE('',*,*,#723,.F.);
#1003=ORIENTED_EDGE('',*,*,#748,.T.);
#1004=ORIENTED_EDGE('',*,*,#680,.F.);
#1005=ORIENTED_EDGE('',*,*,#749,.F.);
#1006=ORIENTED_EDGE('',*,*,#737,.F.);
#1007=ORIENTED_EDGE('',*,*,#734,.F.);
#1008=ORIENTED_EDGE('',*,*,#689,.F.);
#1009=ORIENTED_EDGE('',*,*,#750,.T.);
#1010=ORIENTED_EDGE('',*,*,#681,.F.);
#1011=ORIENTED_EDGE('',*,*,#748,.F.);
#1012=ORIENTED_EDGE('',*,*,#722,.F.);
#1013=ORIENTED_EDGE('',*,*,#701,.F.);
#1014=ORIENTED_EDGE('',*,*,#708,.F.);
#1015=ORIENTED_EDGE('',*,*,#751,.T.);
#1016=ORIENTED_EDGE('',*,*,#682,.F.);
#1017=ORIENTED_EDGE('',*,*,#750,.F.);
#1018=ORIENTED_EDGE('',*,*,#688,.F.);
#1019=ORIENTED_EDGE('',*,*,#706,.F.);
#1020=ORIENTED_EDGE('',*,*,#738,.F.);
#1021=ORIENTED_EDGE('',*,*,#749,.T.);
#1022=ORIENTED_EDGE('',*,*,#683,.F.);
#1023=ORIENTED_EDGE('',*,*,#751,.F.);
#1024=ORIENTED_EDGE('',*,*,#707,.F.);
#1025=ORIENTED_EDGE('',*,*,#721,.F.);
#1026=ORIENTED_EDGE('',*,*,#736,.T.);
#1027=ORIENTED_EDGE('',*,*,#742,.F.);
#1028=ORIENTED_EDGE('',*,*,#747,.T.);
#1029=ORIENTED_EDGE('',*,*,#752,.T.);
#1030=ORIENTED_EDGE('',*,*,#687,.F.);
#1031=ORIENTED_EDGE('',*,*,#753,.F.);
#1032=ORIENTED_EDGE('',*,*,#732,.T.);
#1033=ORIENTED_EDGE('',*,*,#731,.T.);
#1034=ORIENTED_EDGE('',*,*,#703,.T.);
#1035=ORIENTED_EDGE('',*,*,#727,.F.);
#1036=ORIENTED_EDGE('',*,*,#733,.T.);
#1037=ORIENTED_EDGE('',*,*,#753,.T.);
#1038=ORIENTED_EDGE('',*,*,#686,.F.);
#1039=ORIENTED_EDGE('',*,*,#754,.F.);
#1040=ORIENTED_EDGE('',*,*,#699,.T.);
#1041=ORIENTED_EDGE('',*,*,#695,.T.);
#1042=ORIENTED_EDGE('',*,*,#704,.T.);
#1043=ORIENTED_EDGE('',*,*,#697,.F.);
#1044=ORIENTED_EDGE('',*,*,#700,.T.);
#1045=ORIENTED_EDGE('',*,*,#754,.T.);
#1046=ORIENTED_EDGE('',*,*,#685,.F.);
#1047=ORIENTED_EDGE('',*,*,#755,.F.);
#1048=ORIENTED_EDGE('',*,*,#718,.T.);
#1049=ORIENTED_EDGE('',*,*,#716,.T.);
#1050=ORIENTED_EDGE('',*,*,#719,.T.);
#1051=ORIENTED_EDGE('',*,*,#712,.F.);
#1052=ORIENTED_EDGE('',*,*,#717,.T.);
#1053=ORIENTED_EDGE('',*,*,#755,.T.);
#1054=ORIENTED_EDGE('',*,*,#684,.F.);
#1055=ORIENTED_EDGE('',*,*,#752,.F.);
#1056=ORIENTED_EDGE('',*,*,#746,.T.);
#1057=ORIENTED_EDGE('',*,*,#745,.T.);
#1058=CYLINDRICAL_SURFACE('',#1145,2.10000000000001);
#1059=CYLINDRICAL_SURFACE('',#1148,2.10000000000001);
#1060=CYLINDRICAL_SURFACE('',#1151,2.10000000000001);
#1061=CYLINDRICAL_SURFACE('',#1154,2.10000000000001);
#1062=CYLINDRICAL_SURFACE('',#1157,2.10000000000001);
#1063=CYLINDRICAL_SURFACE('',#1160,2.10000000000001);
#1064=CYLINDRICAL_SURFACE('',#1163,2.10000000000001);
#1065=CYLINDRICAL_SURFACE('',#1166,2.10000000000001);
#1066=CYLINDRICAL_SURFACE('',#1185,12.);
#1067=ADVANCED_FACE('',(#87),#1058,.F.);
#1068=ADVANCED_FACE('',(#88),#1059,.F.);
#1069=ADVANCED_FACE('',(#89),#1060,.F.);
#1070=ADVANCED_FACE('',(#90),#1061,.F.);
#1071=ADVANCED_FACE('',(#91),#1062,.F.);
#1072=ADVANCED_FACE('',(#92),#1063,.F.);
#1073=ADVANCED_FACE('',(#93),#1064,.F.);
#1074=ADVANCED_FACE('',(#94),#1065,.F.);
#1075=ADVANCED_FACE('',(#95),#41,.F.);
#1076=ADVANCED_FACE('',(#96),#42,.F.);
#1077=ADVANCED_FACE('',(#97),#43,.F.);
#1078=ADVANCED_FACE('',(#98),#44,.F.);
#1079=ADVANCED_FACE('',(#99),#45,.F.);
#1080=ADVANCED_FACE('',(#100),#46,.F.);
#1081=ADVANCED_FACE('',(#101),#47,.F.);
#1082=ADVANCED_FACE('',(#102),#48,.F.);
#1083=ADVANCED_FACE('',(#103),#49,.F.);
#1084=ADVANCED_FACE('',(#104),#50,.F.);
#1085=ADVANCED_FACE('',(#105),#51,.F.);
#1086=ADVANCED_FACE('',(#106),#52,.F.);
#1087=ADVANCED_FACE('',(#107),#53,.F.);
#1088=ADVANCED_FACE('',(#108),#54,.F.);
#1089=ADVANCED_FACE('',(#109),#55,.F.);
#1090=ADVANCED_FACE('',(#110),#56,.F.);
#1091=ADVANCED_FACE('',(#111),#1066,.F.);
#1092=ADVANCED_FACE('',(#112,#15,#16,#17,#18,#19,#20,#21,#22,#23),#57,.F.);
#1093=ADVANCED_FACE('',(#113,#24,#25,#26,#27,#28,#29,#30,#31,#32),#58,.T.);
#1094=ADVANCED_FACE('',(#114,#33),#59,.T.);
#1095=ADVANCED_FACE('',(#115),#60,.T.);
#1096=ADVANCED_FACE('',(#116),#61,.T.);
#1097=ADVANCED_FACE('',(#117,#34),#62,.F.);
#1098=ADVANCED_FACE('',(#118),#63,.F.);
#1099=ADVANCED_FACE('',(#119),#64,.F.);
#1100=ADVANCED_FACE('',(#120,#35),#65,.T.);
#1101=ADVANCED_FACE('',(#121),#66,.T.);
#1102=ADVANCED_FACE('',(#122),#67,.T.);
#1103=ADVANCED_FACE('',(#123,#36),#68,.F.);
#1104=ADVANCED_FACE('',(#124),#69,.F.);
#1105=ADVANCED_FACE('',(#125,#37),#70,.T.);
#1106=ADVANCED_FACE('',(#126),#71,.T.);
#1107=ADVANCED_FACE('',(#127),#72,.T.);
#1108=ADVANCED_FACE('',(#128,#38),#73,.F.);
#1109=ADVANCED_FACE('',(#129),#74,.F.);
#1110=ADVANCED_FACE('',(#130,#39),#75,.T.);
#1111=ADVANCED_FACE('',(#131),#76,.T.);
#1112=ADVANCED_FACE('',(#132),#77,.T.);
#1113=ADVANCED_FACE('',(#133,#40),#78,.F.);
#1114=ADVANCED_FACE('',(#134),#79,.F.);
#1115=ADVANCED_FACE('',(#135),#80,.F.);
#1116=ADVANCED_FACE('',(#136),#81,.F.);
#1117=ADVANCED_FACE('',(#137),#82,.F.);
#1118=ADVANCED_FACE('',(#138),#83,.T.);
#1119=ADVANCED_FACE('',(#139),#84,.T.);
#1120=ADVANCED_FACE('',(#140),#85,.T.);
#1121=ADVANCED_FACE('',(#141),#86,.T.);
#1122=CLOSED_SHELL('',(#1067,#1068,#1069,#1070,#1071,#1072,#1073,#1074,
#1075,#1076,#1077,#1078,#1079,#1080,#1081,#1082,#1083,#1084,#1085,#1086,
#1087,#1088,#1089,#1090,#1091,#1092,#1093,#1094,#1095,#1096,#1097,#1098,
#1099,#1100,#1101,#1102,#1103,#1104,#1105,#1106,#1107,#1108,#1109,#1110,
#1111,#1112,#1113,#1114,#1115,#1116,#1117,#1118,#1119,#1120,#1121));
#1123=DERIVED_UNIT_ELEMENT(#1126,1.);
#1124=DERIVED_UNIT_ELEMENT(#1809,-3.);
#1125=DIMENSIONAL_EXPONENTS(0.,1.,0.,0.,0.,0.,0.);
#1126=(
CONVERSION_BASED_UNIT('gram',#1128)
MASS_UNIT()
NAMED_UNIT(#1125)
);
#1127=(
MASS_UNIT()
NAMED_UNIT(*)
SI_UNIT(.KILO.,.GRAM.)
);
#1128=MASS_MEASURE_WITH_UNIT(MASS_MEASURE(0.001),#1127);
#1129=DERIVED_UNIT((#1123,#1124));
#1130=MEASURE_REPRESENTATION_ITEM('density measure',
POSITIVE_RATIO_MEASURE(1.541),#1129);
#1131=PROPERTY_DEFINITION_REPRESENTATION(#1136,#1133);
#1132=PROPERTY_DEFINITION_REPRESENTATION(#1137,#1134);
#1133=REPRESENTATION('material name',(#1135),#1806);
#1134=REPRESENTATION('density',(#1130),#1806);
#1135=DESCRIPTIVE_REPRESENTATION_ITEM('PET \X2\30D730E930B930C130C330AF\X0\',
'PET \X2\30D730E930B930C130C330AF\X0\');
#1136=PROPERTY_DEFINITION('material property','material name',#1816);
#1137=PROPERTY_DEFINITION('material property','density of part',#1816);
#1138=DATE_TIME_ROLE('creation_date');
#1139=APPLIED_DATE_AND_TIME_ASSIGNMENT(#1140,#1138,(#1816));
#1140=DATE_AND_TIME(#1141,#1142);
#1141=CALENDAR_DATE(2026,8,10);
#1142=LOCAL_TIME(0,0,0.,#1143);
#1143=COORDINATED_UNIVERSAL_TIME_OFFSET(0,0,.BEHIND.);
#1144=AXIS2_PLACEMENT_3D('',#1499,#1218,#1219);
#1145=AXIS2_PLACEMENT_3D('',#1500,#1220,#1221);
#1146=AXIS2_PLACEMENT_3D('',#1502,#1222,#1223);
#1147=AXIS2_PLACEMENT_3D('',#1505,#1225,#1226);
#1148=AXIS2_PLACEMENT_3D('',#1506,#1227,#1228);
#1149=AXIS2_PLACEMENT_3D('',#1508,#1229,#1230);
#1150=AXIS2_PLACEMENT_3D('',#1511,#1232,#1233);
#1151=AXIS2_PLACEMENT_3D('',#1512,#1234,#1235);
#1152=AXIS2_PLACEMENT_3D('',#1514,#1236,#1237);
#1153=AXIS2_PLACEMENT_3D('',#1517,#1239,#1240);
#1154=AXIS2_PLACEMENT_3D('',#1518,#1241,#1242);
#1155=AXIS2_PLACEMENT_3D('',#1520,#1243,#1244);
#1156=AXIS2_PLACEMENT_3D('',#1523,#1246,#1247);
#1157=AXIS2_PLACEMENT_3D('',#1524,#1248,#1249);
#1158=AXIS2_PLACEMENT_3D('',#1526,#1250,#1251);
#1159=AXIS2_PLACEMENT_3D('',#1529,#1253,#1254);
#1160=AXIS2_PLACEMENT_3D('',#1530,#1255,#1256);
#1161=AXIS2_PLACEMENT_3D('',#1532,#1257,#1258);
#1162=AXIS2_PLACEMENT_3D('',#1535,#1260,#1261);
#1163=AXIS2_PLACEMENT_3D('',#1536,#1262,#1263);
#1164=AXIS2_PLACEMENT_3D('',#1538,#1264,#1265);
#1165=AXIS2_PLACEMENT_3D('',#1541,#1267,#1268);
#1166=AXIS2_PLACEMENT_3D('',#1542,#1269,#1270);
#1167=AXIS2_PLACEMENT_3D('',#1544,#1271,#1272);
#1168=AXIS2_PLACEMENT_3D('',#1547,#1274,#1275);
#1169=AXIS2_PLACEMENT_3D('',#1548,#1276,#1277);
#1170=AXIS2_PLACEMENT_3D('',#1557,#1282,#1283);
#1171=AXIS2_PLACEMENT_3D('',#1563,#1287,#1288);
#1172=AXIS2_PLACEMENT_3D('',#1569,#1292,#1293);
#1173=AXIS2_PLACEMENT_3D('',#1572,#1296,#1297);
#1174=AXIS2_PLACEMENT_3D('',#1581,#1302,#1303);
#1175=AXIS2_PLACEMENT_3D('',#1587,#1307,#1308);
#1176=AXIS2_PLACEMENT_3D('',#1593,#1312,#1313);
#1177=AXIS2_PLACEMENT_3D('',#1596,#1316,#1317);
#1178=AXIS2_PLACEMENT_3D('',#1605,#1322,#1323);
#1179=AXIS2_PLACEMENT_3D('',#1611,#1327,#1328);
#1180=AXIS2_PLACEMENT_3D('',#1617,#1332,#1333);
#1181=AXIS2_PLACEMENT_3D('',#1620,#1336,#1337);
#1182=AXIS2_PLACEMENT_3D('',#1629,#1342,#1343);
#1183=AXIS2_PLACEMENT_3D('',#1635,#1347,#1348);
#1184=AXIS2_PLACEMENT_3D('',#1641,#1352,#1353);
#1185=AXIS2_PLACEMENT_3D('',#1644,#1356,#1357);
#1186=AXIS2_PLACEMENT_3D('',#1646,#1358,#1359);
#1187=AXIS2_PLACEMENT_3D('',#1649,#1361,#1362);
#1188=AXIS2_PLACEMENT_3D('',#1650,#1363,#1364);
#1189=AXIS2_PLACEMENT_3D('',#1659,#1369,#1370);
#1190=AXIS2_PLACEMENT_3D('',#1668,#1375,#1376);
#1191=AXIS2_PLACEMENT_3D('',#1677,#1381,#1382);
#1192=AXIS2_PLACEMENT_3D('',#1685,#1387,#1388);
#1193=AXIS2_PLACEMENT_3D('',#1691,#1392,#1393);
#1194=AXIS2_PLACEMENT_3D('',#1695,#1396,#1397);
#1195=AXIS2_PLACEMENT_3D('',#1701,#1401,#1402);
#1196=AXIS2_PLACEMENT_3D('',#1707,#1406,#1407);
#1197=AXIS2_PLACEMENT_3D('',#1715,#1412,#1413);
#1198=AXIS2_PLACEMENT_3D('',#1723,#1418,#1419);
#1199=AXIS2_PLACEMENT_3D('',#1727,#1422,#1423);
#1200=AXIS2_PLACEMENT_3D('',#1731,#1426,#1427);
#1201=AXIS2_PLACEMENT_3D('',#1737,#1431,#1432);
#1202=AXIS2_PLACEMENT_3D('',#1745,#1437,#1438);
#1203=AXIS2_PLACEMENT_3D('',#1751,#1442,#1443);
#1204=AXIS2_PLACEMENT_3D('',#1757,#1447,#1448);
#1205=AXIS2_PLACEMENT_3D('',#1761,#1451,#1452);
#1206=AXIS2_PLACEMENT_3D('',#1767,#1456,#1457);
#1207=AXIS2_PLACEMENT_3D('',#1774,#1462,#1463);
#1208=AXIS2_PLACEMENT_3D('',#1780,#1467,#1468);
#1209=AXIS2_PLACEMENT_3D('',#1784,#1471,#1472);
#1210=AXIS2_PLACEMENT_3D('',#1788,#1475,#1476);
#1211=AXIS2_PLACEMENT_3D('',#1791,#1479,#1480);
#1212=AXIS2_PLACEMENT_3D('',#1793,#1482,#1483);
#1213=AXIS2_PLACEMENT_3D('',#1795,#1485,#1486);
#1214=AXIS2_PLACEMENT_3D('',#1796,#1487,#1488);
#1215=AXIS2_PLACEMENT_3D('',#1799,#1491,#1492);
#1216=AXIS2_PLACEMENT_3D('',#1801,#1494,#1495);
#1217=AXIS2_PLACEMENT_3D('',#1803,#1497,#1498);
#1218=DIRECTION('axis',(0.,0.,1.));
#1219=DIRECTION('refdir',(1.,0.,0.));
#1220=DIRECTION('center_axis',(0.,0.,1.));
#1221=DIRECTION('ref_axis',(-1.,0.,0.));
#1222=DIRECTION('center_axis',(0.,0.,1.));
#1223=DIRECTION('ref_axis',(-1.,0.,0.));
#1224=DIRECTION('',(0.,0.,1.));
#1225=DIRECTION('center_axis',(0.,0.,-1.));
#1226=DIRECTION('ref_axis',(-1.,0.,0.));
#1227=DIRECTION('center_axis',(0.,0.,1.));
#1228=DIRECTION('ref_axis',(-1.,0.,0.));
#1229=DIRECTION('center_axis',(0.,0.,1.));
#1230=DIRECTION('ref_axis',(-1.,0.,0.));
#1231=DIRECTION('',(0.,0.,1.));
#1232=DIRECTION('center_axis',(0.,0.,-1.));
#1233=DIRECTION('ref_axis',(-1.,0.,0.));
#1234=DIRECTION('center_axis',(0.,0.,1.));
#1235=DIRECTION('ref_axis',(-1.,0.,0.));
#1236=DIRECTION('center_axis',(0.,0.,1.));
#1237=DIRECTION('ref_axis',(-1.,0.,0.));
#1238=DIRECTION('',(0.,0.,1.));
#1239=DIRECTION('center_axis',(0.,0.,-1.));
#1240=DIRECTION('ref_axis',(-1.,0.,0.));
#1241=DIRECTION('center_axis',(0.,0.,1.));
#1242=DIRECTION('ref_axis',(-1.,0.,0.));
#1243=DIRECTION('center_axis',(0.,0.,1.));
#1244=DIRECTION('ref_axis',(-1.,0.,0.));
#1245=DIRECTION('',(0.,0.,1.));
#1246=DIRECTION('center_axis',(0.,0.,-1.));
#1247=DIRECTION('ref_axis',(-1.,0.,0.));
#1248=DIRECTION('center_axis',(0.,0.,1.));
#1249=DIRECTION('ref_axis',(-1.,0.,0.));
#1250=DIRECTION('center_axis',(0.,0.,1.));
#1251=DIRECTION('ref_axis',(-1.,0.,0.));
#1252=DIRECTION('',(0.,0.,1.));
#1253=DIRECTION('center_axis',(0.,0.,-1.));
#1254=DIRECTION('ref_axis',(-1.,0.,0.));
#1255=DIRECTION('center_axis',(0.,0.,1.));
#1256=DIRECTION('ref_axis',(-1.,0.,0.));
#1257=DIRECTION('center_axis',(0.,0.,1.));
#1258=DIRECTION('ref_axis',(-1.,0.,0.));
#1259=DIRECTION('',(0.,0.,1.));
#1260=DIRECTION('center_axis',(0.,0.,-1.));
#1261=DIRECTION('ref_axis',(-1.,0.,0.));
#1262=DIRECTION('center_axis',(0.,0.,1.));
#1263=DIRECTION('ref_axis',(-1.,0.,0.));
#1264=DIRECTION('center_axis',(0.,0.,1.));
#1265=DIRECTION('ref_axis',(-1.,0.,0.));
#1266=DIRECTION('',(0.,0.,1.));
#1267=DIRECTION('center_axis',(0.,0.,-1.));
#1268=DIRECTION('ref_axis',(-1.,0.,0.));
#1269=DIRECTION('center_axis',(0.,0.,1.));
#1270=DIRECTION('ref_axis',(-1.,0.,0.));
#1271=DIRECTION('center_axis',(0.,0.,1.));
#1272=DIRECTION('ref_axis',(-1.,0.,0.));
#1273=DIRECTION('',(0.,0.,1.));
#1274=DIRECTION('center_axis',(0.,0.,-1.));
#1275=DIRECTION('ref_axis',(-1.,0.,0.));
#1276=DIRECTION('center_axis',(-1.,0.,0.));
#1277=DIRECTION('ref_axis',(0.,-1.,0.));
#1278=DIRECTION('',(0.,-1.,0.));
#1279=DIRECTION('',(0.,0.,1.));
#1280=DIRECTION('',(0.,1.,0.));
#1281=DIRECTION('',(0.,0.,1.));
#1282=DIRECTION('center_axis',(0.,1.,0.));
#1283=DIRECTION('ref_axis',(-1.,0.,0.));
#1284=DIRECTION('',(-1.,0.,0.));
#1285=DIRECTION('',(0.,0.,1.));
#1286=DIRECTION('',(1.,0.,0.));
#1287=DIRECTION('center_axis',(1.,0.,0.));
#1288=DIRECTION('ref_axis',(0.,1.,0.));
#1289=DIRECTION('',(0.,1.,0.));
#1290=DIRECTION('',(0.,0.,1.));
#1291=DIRECTION('',(0.,-1.,0.));
#1292=DIRECTION('center_axis',(0.,-1.,0.));
#1293=DIRECTION('ref_axis',(1.,0.,0.));
#1294=DIRECTION('',(1.,0.,0.));
#1295=DIRECTION('',(-1.,0.,0.));
#1296=DIRECTION('center_axis',(-1.,0.,0.));
#1297=DIRECTION('ref_axis',(0.,-1.,0.));
#1298=DIRECTION('',(0.,-1.,0.));
#1299=DIRECTION('',(0.,0.,1.));
#1300=DIRECTION('',(0.,1.,0.));
#1301=DIRECTION('',(0.,0.,1.));
#1302=DIRECTION('center_axis',(0.,1.,0.));
#1303=DIRECTION('ref_axis',(-1.,0.,0.));
#1304=DIRECTION('',(-1.,0.,0.));
#1305=DIRECTION('',(0.,0.,1.));
#1306=DIRECTION('',(1.,0.,0.));
#1307=DIRECTION('center_axis',(1.,0.,0.));
#1308=DIRECTION('ref_axis',(0.,1.,0.));
#1309=DIRECTION('',(0.,1.,0.));
#1310=DIRECTION('',(0.,0.,1.));
#1311=DIRECTION('',(0.,-1.,0.));
#1312=DIRECTION('center_axis',(0.,-1.,0.));
#1313=DIRECTION('ref_axis',(1.,0.,0.));
#1314=DIRECTION('',(1.,0.,0.));
#1315=DIRECTION('',(-1.,0.,0.));
#1316=DIRECTION('center_axis',(-1.,0.,0.));
#1317=DIRECTION('ref_axis',(0.,-1.,0.));
#1318=DIRECTION('',(0.,-1.,0.));
#1319=DIRECTION('',(0.,0.,1.));
#1320=DIRECTION('',(0.,1.,0.));
#1321=DIRECTION('',(0.,0.,1.));
#1322=DIRECTION('center_axis',(0.,1.,0.));
#1323=DIRECTION('ref_axis',(-1.,0.,0.));
#1324=DIRECTION('',(-1.,0.,0.));
#1325=DIRECTION('',(0.,0.,1.));
#1326=DIRECTION('',(1.,0.,0.));
#1327=DIRECTION('center_axis',(1.,0.,0.));
#1328=DIRECTION('ref_axis',(0.,1.,0.));
#1329=DIRECTION('',(0.,1.,0.));
#1330=DIRECTION('',(0.,0.,1.));
#1331=DIRECTION('',(0.,-1.,0.));
#1332=DIRECTION('center_axis',(0.,-1.,0.));
#1333=DIRECTION('ref_axis',(1.,0.,0.));
#1334=DIRECTION('',(1.,0.,0.));
#1335=DIRECTION('',(-1.,0.,0.));
#1336=DIRECTION('center_axis',(-1.,0.,0.));
#1337=DIRECTION('ref_axis',(0.,-1.,0.));
#1338=DIRECTION('',(0.,-1.,0.));
#1339=DIRECTION('',(0.,0.,1.));
#1340=DIRECTION('',(0.,1.,0.));
#1341=DIRECTION('',(0.,0.,1.));
#1342=DIRECTION('center_axis',(0.,1.,0.));
#1343=DIRECTION('ref_axis',(-1.,0.,0.));
#1344=DIRECTION('',(-1.,0.,0.));
#1345=DIRECTION('',(0.,0.,1.));
#1346=DIRECTION('',(1.,0.,0.));
#1347=DIRECTION('center_axis',(1.,0.,0.));
#1348=DIRECTION('ref_axis',(0.,1.,0.));
#1349=DIRECTION('',(0.,1.,0.));
#1350=DIRECTION('',(0.,0.,1.));
#1351=DIRECTION('',(0.,-1.,0.));
#1352=DIRECTION('center_axis',(0.,-1.,0.));
#1353=DIRECTION('ref_axis',(1.,0.,0.));
#1354=DIRECTION('',(1.,0.,0.));
#1355=DIRECTION('',(-1.,0.,0.));
#1356=DIRECTION('center_axis',(0.,0.,1.));
#1357=DIRECTION('ref_axis',(-1.,0.,0.));
#1358=DIRECTION('center_axis',(0.,0.,1.));
#1359=DIRECTION('ref_axis',(-1.,0.,0.));
#1360=DIRECTION('',(0.,0.,1.));
#1361=DIRECTION('center_axis',(0.,0.,-1.));
#1362=DIRECTION('ref_axis',(-1.,0.,0.));
#1363=DIRECTION('center_axis',(0.,0.,1.));
#1364=DIRECTION('ref_axis',(1.,0.,0.));
#1365=DIRECTION('',(0.,1.,0.));
#1366=DIRECTION('',(1.,0.,0.));
#1367=DIRECTION('',(0.,-1.,0.));
#1368=DIRECTION('',(-1.,0.,0.));
#1369=DIRECTION('center_axis',(0.,0.,1.));
#1370=DIRECTION('ref_axis',(1.,0.,0.));
#1371=DIRECTION('',(1.,0.,0.));
#1372=DIRECTION('',(0.,1.,0.));
#1373=DIRECTION('',(-1.,0.,0.));
#1374=DIRECTION('',(0.,-1.,0.));
#1375=DIRECTION('center_axis',(0.,0.,1.));
#1376=DIRECTION('ref_axis',(1.,0.,0.));
#1377=DIRECTION('',(0.,1.,0.));
#1378=DIRECTION('',(-1.,0.,0.));
#1379=DIRECTION('',(0.,-1.,0.));
#1380=DIRECTION('',(1.,0.,0.));
#1381=DIRECTION('center_axis',(-1.,0.,0.));
#1382=DIRECTION('ref_axis',(0.,-1.,0.));
#1383=DIRECTION('',(0.,-1.,0.));
#1384=DIRECTION('',(0.,0.,1.));
#1385=DIRECTION('',(0.,-1.,0.));
#1386=DIRECTION('',(0.,0.,1.));
#1387=DIRECTION('center_axis',(0.,-1.,0.));
#1388=DIRECTION('ref_axis',(1.,0.,0.));
#1389=DIRECTION('',(1.,0.,0.));
#1390=DIRECTION('',(0.,0.,1.));
#1391=DIRECTION('',(1.,0.,0.));
#1392=DIRECTION('center_axis',(0.,0.,1.));
#1393=DIRECTION('ref_axis',(1.,0.,0.));
#1394=DIRECTION('',(-1.,0.,0.));
#1395=DIRECTION('',(0.,1.,0.));
#1396=DIRECTION('center_axis',(0.,0.,1.));
#1397=DIRECTION('ref_axis',(1.,0.,0.));
#1398=DIRECTION('',(-1.,0.,0.));
#1399=DIRECTION('',(0.,1.,0.));
#1400=DIRECTION('',(-1.,0.,0.));
#1401=DIRECTION('center_axis',(0.,0.,1.));
#1402=DIRECTION('ref_axis',(1.,0.,0.));
#1403=DIRECTION('',(0.,1.,0.));
#1404=DIRECTION('',(-1.,0.,0.));
#1405=DIRECTION('',(0.,1.,0.));
#1406=DIRECTION('center_axis',(0.,0.,1.));
#1407=DIRECTION('ref_axis',(1.,0.,0.));
#1408=DIRECTION('',(1.,0.,0.));
#1409=DIRECTION('',(0.,1.,0.));
#1410=DIRECTION('',(-1.,0.,0.));
#1411=DIRECTION('',(0.,-1.,0.));
#1412=DIRECTION('center_axis',(-1.,0.,0.));
#1413=DIRECTION('ref_axis',(0.,-1.,0.));
#1414=DIRECTION('',(0.,-1.,0.));
#1415=DIRECTION('',(0.,0.,1.));
#1416=DIRECTION('',(0.,-1.,0.));
#1417=DIRECTION('',(0.,0.,1.));
#1418=DIRECTION('center_axis',(0.,1.,0.));
#1419=DIRECTION('ref_axis',(-1.,0.,0.));
#1420=DIRECTION('',(-1.,0.,0.));
#1421=DIRECTION('',(0.,0.,1.));
#1422=DIRECTION('center_axis',(0.,0.,1.));
#1423=DIRECTION('ref_axis',(1.,0.,0.));
#1424=DIRECTION('',(1.,0.,0.));
#1425=DIRECTION('',(0.,1.,0.));
#1426=DIRECTION('center_axis',(0.,0.,1.));
#1427=DIRECTION('ref_axis',(1.,0.,0.));
#1428=DIRECTION('',(1.,0.,0.));
#1429=DIRECTION('',(0.,1.,0.));
#1430=DIRECTION('',(1.,0.,0.));
#1431=DIRECTION('center_axis',(0.,0.,1.));
#1432=DIRECTION('ref_axis',(1.,0.,0.));
#1433=DIRECTION('',(-1.,0.,0.));
#1434=DIRECTION('',(0.,-1.,0.));
#1435=DIRECTION('',(1.,0.,0.));
#1436=DIRECTION('',(0.,1.,0.));
#1437=DIRECTION('center_axis',(1.,0.,0.));
#1438=DIRECTION('ref_axis',(0.,1.,0.));
#1439=DIRECTION('',(0.,1.,0.));
#1440=DIRECTION('',(0.,0.,1.));
#1441=DIRECTION('',(0.,0.,1.));
#1442=DIRECTION('center_axis',(0.,-1.,0.));
#1443=DIRECTION('ref_axis',(1.,0.,0.));
#1444=DIRECTION('',(1.,0.,0.));
#1445=DIRECTION('',(1.,0.,0.));
#1446=DIRECTION('',(0.,0.,1.));
#1447=DIRECTION('center_axis',(0.,0.,1.));
#1448=DIRECTION('ref_axis',(1.,0.,0.));
#1449=DIRECTION('',(0.,-1.,0.));
#1450=DIRECTION('',(-1.,0.,0.));
#1451=DIRECTION('center_axis',(0.,0.,1.));
#1452=DIRECTION('ref_axis',(1.,0.,0.));
#1453=DIRECTION('',(0.,-1.,0.));
#1454=DIRECTION('',(-1.,0.,0.));
#1455=DIRECTION('',(0.,-1.,0.));
#1456=DIRECTION('center_axis',(0.,0.,1.));
#1457=DIRECTION('ref_axis',(1.,0.,0.));
#1458=DIRECTION('',(0.,-1.,0.));
#1459=DIRECTION('',(1.,0.,0.));
#1460=DIRECTION('',(0.,1.,0.));
#1461=DIRECTION('',(-1.,0.,0.));
#1462=DIRECTION('center_axis',(0.,1.,0.));
#1463=DIRECTION('ref_axis',(-1.,0.,0.));
#1464=DIRECTION('',(-1.,0.,0.));
#1465=DIRECTION('',(0.,0.,1.));
#1466=DIRECTION('',(0.,0.,1.));
#1467=DIRECTION('center_axis',(1.,0.,0.));
#1468=DIRECTION('ref_axis',(0.,1.,0.));
#1469=DIRECTION('',(0.,1.,0.));
#1470=DIRECTION('',(0.,0.,1.));
#1471=DIRECTION('center_axis',(0.,0.,1.));
#1472=DIRECTION('ref_axis',(1.,0.,0.));
#1473=DIRECTION('',(1.,0.,0.));
#1474=DIRECTION('',(0.,-1.,0.));
#1475=DIRECTION('center_axis',(-1.,0.,0.));
#1476=DIRECTION('ref_axis',(0.,-1.,0.));
#1477=DIRECTION('',(0.,0.,1.));
#1478=DIRECTION('',(0.,0.,1.));
#1479=DIRECTION('center_axis',(0.,1.,0.));
#1480=DIRECTION('ref_axis',(-1.,0.,0.));
#1481=DIRECTION('',(0.,0.,1.));
#1482=DIRECTION('center_axis',(1.,0.,0.));
#1483=DIRECTION('ref_axis',(0.,1.,0.));
#1484=DIRECTION('',(0.,0.,1.));
#1485=DIRECTION('center_axis',(0.,-1.,0.));
#1486=DIRECTION('ref_axis',(1.,0.,0.));
#1487=DIRECTION('center_axis',(-1.,0.,0.));
#1488=DIRECTION('ref_axis',(0.,-1.,0.));
#1489=DIRECTION('',(0.,0.,1.));
#1490=DIRECTION('',(0.,0.,1.));
#1491=DIRECTION('center_axis',(0.,1.,0.));
#1492=DIRECTION('ref_axis',(-1.,0.,0.));
#1493=DIRECTION('',(0.,0.,1.));
#1494=DIRECTION('center_axis',(1.,0.,0.));
#1495=DIRECTION('ref_axis',(0.,1.,0.));
#1496=DIRECTION('',(0.,0.,1.));
#1497=DIRECTION('center_axis',(0.,-1.,0.));
#1498=DIRECTION('ref_axis',(1.,0.,0.));
#1499=CARTESIAN_POINT('',(0.,0.,0.));
#1500=CARTESIAN_POINT('Origin',(84.,84.,4.));
#1501=CARTESIAN_POINT('',(86.1,84.,4.));
#1502=CARTESIAN_POINT('Origin',(84.,84.,4.));
#1503=CARTESIAN_POINT('',(86.1,84.,46.));
#1504=CARTESIAN_POINT('',(86.1,84.,4.));
#1505=CARTESIAN_POINT('Origin',(84.,84.,46.));
#1506=CARTESIAN_POINT('Origin',(84.,84.,4.));
#1507=CARTESIAN_POINT('',(86.1,84.,66.));
#1508=CARTESIAN_POINT('Origin',(84.,84.,66.));
#1509=CARTESIAN_POINT('',(86.1,84.,67.5));
#1510=CARTESIAN_POINT('',(86.1,84.,4.));
#1511=CARTESIAN_POINT('Origin',(84.,84.,67.5));
#1512=CARTESIAN_POINT('Origin',(84.,-84.,4.));
#1513=CARTESIAN_POINT('',(86.1,-84.,4.));
#1514=CARTESIAN_POINT('Origin',(84.,-84.,4.));
#1515=CARTESIAN_POINT('',(86.1,-84.,46.));
#1516=CARTESIAN_POINT('',(86.1,-84.,4.));
#1517=CARTESIAN_POINT('Origin',(84.,-84.,46.));
#1518=CARTESIAN_POINT('Origin',(84.,-84.,4.));
#1519=CARTESIAN_POINT('',(86.1,-84.,66.));
#1520=CARTESIAN_POINT('Origin',(84.,-84.,66.));
#1521=CARTESIAN_POINT('',(86.1,-84.,67.5));
#1522=CARTESIAN_POINT('',(86.1,-84.,4.));
#1523=CARTESIAN_POINT('Origin',(84.,-84.,67.5));
#1524=CARTESIAN_POINT('Origin',(-84.,84.,4.));
#1525=CARTESIAN_POINT('',(-81.9,84.,4.));
#1526=CARTESIAN_POINT('Origin',(-84.,84.,4.));
#1527=CARTESIAN_POINT('',(-81.9,84.,46.));
#1528=CARTESIAN_POINT('',(-81.9,84.,4.));
#1529=CARTESIAN_POINT('Origin',(-84.,84.,46.));
#1530=CARTESIAN_POINT('Origin',(-84.,84.,4.));
#1531=CARTESIAN_POINT('',(-81.9,84.,66.));
#1532=CARTESIAN_POINT('Origin',(-84.,84.,66.));
#1533=CARTESIAN_POINT('',(-81.9,84.,67.5));
#1534=CARTESIAN_POINT('',(-81.9,84.,4.));
#1535=CARTESIAN_POINT('Origin',(-84.,84.,67.5));
#1536=CARTESIAN_POINT('Origin',(-84.,-84.,4.));
#1537=CARTESIAN_POINT('',(-81.9,-84.,4.));
#1538=CARTESIAN_POINT('Origin',(-84.,-84.,4.));
#1539=CARTESIAN_POINT('',(-81.9,-84.,46.));
#1540=CARTESIAN_POINT('',(-81.9,-84.,4.));
#1541=CARTESIAN_POINT('Origin',(-84.,-84.,46.));
#1542=CARTESIAN_POINT('Origin',(-84.,-84.,4.));
#1543=CARTESIAN_POINT('',(-81.9,-84.,66.));
#1544=CARTESIAN_POINT('Origin',(-84.,-84.,66.));
#1545=CARTESIAN_POINT('',(-81.9,-84.,67.5));
#1546=CARTESIAN_POINT('',(-81.9,-84.,4.));
#1547=CARTESIAN_POINT('Origin',(-84.,-84.,67.5));
#1548=CARTESIAN_POINT('Origin',(-65.,60.,66.));
#1549=CARTESIAN_POINT('',(-65.,60.,66.));
#1550=CARTESIAN_POINT('',(-65.,50.,66.));
#1551=CARTESIAN_POINT('',(-65.,30.,66.));
#1552=CARTESIAN_POINT('',(-65.,60.,67.5));
#1553=CARTESIAN_POINT('',(-65.,60.,66.));
#1554=CARTESIAN_POINT('',(-65.,50.,67.5));
#1555=CARTESIAN_POINT('',(-65.,30.,67.5));
#1556=CARTESIAN_POINT('',(-65.,50.,66.));
#1557=CARTESIAN_POINT('Origin',(65.,60.,66.));
#1558=CARTESIAN_POINT('',(65.,60.,66.));
#1559=CARTESIAN_POINT('',(32.5,60.,66.));
#1560=CARTESIAN_POINT('',(65.,60.,67.5));
#1561=CARTESIAN_POINT('',(65.,60.,66.));
#1562=CARTESIAN_POINT('',(32.5,60.,67.5));
#1563=CARTESIAN_POINT('Origin',(65.,50.,66.));
#1564=CARTESIAN_POINT('',(65.,50.,66.));
#1565=CARTESIAN_POINT('',(65.,25.,66.));
#1566=CARTESIAN_POINT('',(65.,50.,67.5));
#1567=CARTESIAN_POINT('',(65.,50.,66.));
#1568=CARTESIAN_POINT('',(65.,25.,67.5));
#1569=CARTESIAN_POINT('Origin',(-65.,50.,66.));
#1570=CARTESIAN_POINT('',(-32.5,50.,66.));
#1571=CARTESIAN_POINT('',(-32.5,50.,67.5));
#1572=CARTESIAN_POINT('Origin',(-65.,35.,66.));
#1573=CARTESIAN_POINT('',(-65.,35.,66.));
#1574=CARTESIAN_POINT('',(-65.,25.,66.));
#1575=CARTESIAN_POINT('',(-65.,17.5,66.));
#1576=CARTESIAN_POINT('',(-65.,35.,67.5));
#1577=CARTESIAN_POINT('',(-65.,35.,66.));
#1578=CARTESIAN_POINT('',(-65.,25.,67.5));
#1579=CARTESIAN_POINT('',(-65.,17.5,67.5));
#1580=CARTESIAN_POINT('',(-65.,25.,66.));
#1581=CARTESIAN_POINT('Origin',(65.,35.,66.));
#1582=CARTESIAN_POINT('',(65.,35.,66.));
#1583=CARTESIAN_POINT('',(32.5,35.,66.));
#1584=CARTESIAN_POINT('',(65.,35.,67.5));
#1585=CARTESIAN_POINT('',(65.,35.,66.));
#1586=CARTESIAN_POINT('',(32.5,35.,67.5));
#1587=CARTESIAN_POINT('Origin',(65.,25.,66.));
#1588=CARTESIAN_POINT('',(65.,25.,66.));
#1589=CARTESIAN_POINT('',(65.,12.5,66.));
#1590=CARTESIAN_POINT('',(65.,25.,67.5));
#1591=CARTESIAN_POINT('',(65.,25.,66.));
#1592=CARTESIAN_POINT('',(65.,12.5,67.5));
#1593=CARTESIAN_POINT('Origin',(-65.,25.,66.));
#1594=CARTESIAN_POINT('',(-32.5,25.,66.));
#1595=CARTESIAN_POINT('',(-32.5,25.,67.5));
#1596=CARTESIAN_POINT('Origin',(-65.,-25.,66.));
#1597=CARTESIAN_POINT('',(-65.,-25.,66.));
#1598=CARTESIAN_POINT('',(-65.,-35.,66.));
#1599=CARTESIAN_POINT('',(-65.,-12.5,66.));
#1600=CARTESIAN_POINT('',(-65.,-25.,67.5));
#1601=CARTESIAN_POINT('',(-65.,-25.,66.));
#1602=CARTESIAN_POINT('',(-65.,-35.,67.5));
#1603=CARTESIAN_POINT('',(-65.,-12.5,67.5));
#1604=CARTESIAN_POINT('',(-65.,-35.,66.));
#1605=CARTESIAN_POINT('Origin',(65.,-25.,66.));
#1606=CARTESIAN_POINT('',(65.,-25.,66.));
#1607=CARTESIAN_POINT('',(32.5,-25.,66.));
#1608=CARTESIAN_POINT('',(65.,-25.,67.5));
#1609=CARTESIAN_POINT('',(65.,-25.,66.));
#1610=CARTESIAN_POINT('',(32.5,-25.,67.5));
#1611=CARTESIAN_POINT('Origin',(65.,-35.,66.));
#1612=CARTESIAN_POINT('',(65.,-35.,66.));
#1613=CARTESIAN_POINT('',(65.,-17.5,66.));
#1614=CARTESIAN_POINT('',(65.,-35.,67.5));
#1615=CARTESIAN_POINT('',(65.,-35.,66.));
#1616=CARTESIAN_POINT('',(65.,-17.5,67.5));
#1617=CARTESIAN_POINT('Origin',(-65.,-35.,66.));
#1618=CARTESIAN_POINT('',(-32.5,-35.,66.));
#1619=CARTESIAN_POINT('',(-32.5,-35.,67.5));
#1620=CARTESIAN_POINT('Origin',(-65.,-50.,66.));
#1621=CARTESIAN_POINT('',(-65.,-50.,66.));
#1622=CARTESIAN_POINT('',(-65.,-60.,66.));
#1623=CARTESIAN_POINT('',(-65.,-25.,66.));
#1624=CARTESIAN_POINT('',(-65.,-50.,67.5));
#1625=CARTESIAN_POINT('',(-65.,-50.,66.));
#1626=CARTESIAN_POINT('',(-65.,-60.,67.5));
#1627=CARTESIAN_POINT('',(-65.,-25.,67.5));
#1628=CARTESIAN_POINT('',(-65.,-60.,66.));
#1629=CARTESIAN_POINT('Origin',(65.,-50.,66.));
#1630=CARTESIAN_POINT('',(65.,-50.,66.));
#1631=CARTESIAN_POINT('',(32.5,-50.,66.));
#1632=CARTESIAN_POINT('',(65.,-50.,67.5));
#1633=CARTESIAN_POINT('',(65.,-50.,66.));
#1634=CARTESIAN_POINT('',(32.5,-50.,67.5));
#1635=CARTESIAN_POINT('Origin',(65.,-60.,66.));
#1636=CARTESIAN_POINT('',(65.,-60.,66.));
#1637=CARTESIAN_POINT('',(65.,-30.,66.));
#1638=CARTESIAN_POINT('',(65.,-60.,67.5));
#1639=CARTESIAN_POINT('',(65.,-60.,66.));
#1640=CARTESIAN_POINT('',(65.,-30.,67.5));
#1641=CARTESIAN_POINT('Origin',(-65.,-60.,66.));
#1642=CARTESIAN_POINT('',(-32.5,-60.,66.));
#1643=CARTESIAN_POINT('',(-32.5,-60.,67.5));
#1644=CARTESIAN_POINT('Origin',(0.,0.,66.));
#1645=CARTESIAN_POINT('',(12.,1.46957615897682E-15,66.));
#1646=CARTESIAN_POINT('Origin',(0.,0.,66.));
#1647=CARTESIAN_POINT('',(12.,1.46957615897682E-15,67.5));
#1648=CARTESIAN_POINT('',(12.,1.46957615897682E-15,66.));
#1649=CARTESIAN_POINT('Origin',(0.,0.,67.5));
#1650=CARTESIAN_POINT('Origin',(0.,0.,66.));
#1651=CARTESIAN_POINT('',(-88.,-88.,66.));
#1652=CARTESIAN_POINT('',(-88.,88.,66.));
#1653=CARTESIAN_POINT('',(-88.,44.,66.));
#1654=CARTESIAN_POINT('',(88.,88.,66.));
#1655=CARTESIAN_POINT('',(44.,88.,66.));
#1656=CARTESIAN_POINT('',(88.,-88.,66.));
#1657=CARTESIAN_POINT('',(88.,-44.,66.));
#1658=CARTESIAN_POINT('',(-44.,-88.,66.));
#1659=CARTESIAN_POINT('Origin',(0.,0.,67.5));
#1660=CARTESIAN_POINT('',(-90.,-90.,67.5));
#1661=CARTESIAN_POINT('',(90.,-90.,67.5));
#1662=CARTESIAN_POINT('',(-90.,-90.,67.5));
#1663=CARTESIAN_POINT('',(90.,90.,67.5));
#1664=CARTESIAN_POINT('',(90.,-90.,67.5));
#1665=CARTESIAN_POINT('',(-90.,90.,67.5));
#1666=CARTESIAN_POINT('',(90.,90.,67.5));
#1667=CARTESIAN_POINT('',(-90.,90.,67.5));
#1668=CARTESIAN_POINT('Origin',(85.,85.,46.));
#1669=CARTESIAN_POINT('',(88.,80.,46.));
#1670=CARTESIAN_POINT('',(88.,88.,46.));
#1671=CARTESIAN_POINT('',(88.,-44.,46.));
#1672=CARTESIAN_POINT('',(80.,88.,46.));
#1673=CARTESIAN_POINT('',(44.,88.,46.));
#1674=CARTESIAN_POINT('',(80.,80.,46.));
#1675=CARTESIAN_POINT('',(80.,90.,46.));
#1676=CARTESIAN_POINT('',(80.,80.,46.));
#1677=CARTESIAN_POINT('Origin',(80.,90.,4.));
#1678=CARTESIAN_POINT('',(80.,90.,4.));
#1679=CARTESIAN_POINT('',(80.,80.,4.));
#1680=CARTESIAN_POINT('',(80.,90.,4.));
#1681=CARTESIAN_POINT('',(80.,80.,4.));
#1682=CARTESIAN_POINT('',(80.,90.,46.));
#1683=CARTESIAN_POINT('',(80.,45.,46.));
#1684=CARTESIAN_POINT('',(80.,90.,4.));
#1685=CARTESIAN_POINT('Origin',(80.,80.,4.));
#1686=CARTESIAN_POINT('',(90.,80.,4.));
#1687=CARTESIAN_POINT('',(80.,80.,4.));
#1688=CARTESIAN_POINT('',(90.,80.,46.));
#1689=CARTESIAN_POINT('',(90.,80.,4.));
#1690=CARTESIAN_POINT('',(40.,80.,46.));
#1691=CARTESIAN_POINT('Origin',(85.,85.,4.));
#1692=CARTESIAN_POINT('',(90.,90.,4.));
#1693=CARTESIAN_POINT('',(90.,90.,4.));
#1694=CARTESIAN_POINT('',(90.,80.,4.));
#1695=CARTESIAN_POINT('Origin',(0.,0.,46.));
#1696=CARTESIAN_POINT('',(-80.,88.,46.));
#1697=CARTESIAN_POINT('',(44.,88.,46.));
#1698=CARTESIAN_POINT('',(-80.,90.,46.));
#1699=CARTESIAN_POINT('',(-80.,40.,46.));
#1700=CARTESIAN_POINT('',(90.,90.,46.));
#1701=CARTESIAN_POINT('Origin',(0.,0.,46.));
#1702=CARTESIAN_POINT('',(90.,-80.,46.));
#1703=CARTESIAN_POINT('',(90.,-90.,46.));
#1704=CARTESIAN_POINT('',(88.,-80.,46.));
#1705=CARTESIAN_POINT('',(45.,-80.,46.));
#1706=CARTESIAN_POINT('',(88.,-44.,46.));
#1707=CARTESIAN_POINT('Origin',(85.,-85.,46.));
#1708=CARTESIAN_POINT('',(80.,-88.,46.));
#1709=CARTESIAN_POINT('',(88.,-88.,46.));
#1710=CARTESIAN_POINT('',(-44.,-88.,46.));
#1711=CARTESIAN_POINT('',(88.,-44.,46.));
#1712=CARTESIAN_POINT('',(80.,-80.,46.));
#1713=CARTESIAN_POINT('',(90.,-80.,46.));
#1714=CARTESIAN_POINT('',(80.,-80.,46.));
#1715=CARTESIAN_POINT('Origin',(80.,-80.,4.));
#1716=CARTESIAN_POINT('',(80.,-80.,4.));
#1717=CARTESIAN_POINT('',(80.,-90.,4.));
#1718=CARTESIAN_POINT('',(80.,-80.,4.));
#1719=CARTESIAN_POINT('',(80.,-90.,46.));
#1720=CARTESIAN_POINT('',(80.,-90.,4.));
#1721=CARTESIAN_POINT('',(80.,-40.,46.));
#1722=CARTESIAN_POINT('',(80.,-80.,4.));
#1723=CARTESIAN_POINT('Origin',(90.,-80.,4.));
#1724=CARTESIAN_POINT('',(90.,-80.,4.));
#1725=CARTESIAN_POINT('',(90.,-80.,4.));
#1726=CARTESIAN_POINT('',(90.,-80.,4.));
#1727=CARTESIAN_POINT('Origin',(85.,-85.,4.));
#1728=CARTESIAN_POINT('',(90.,-90.,4.));
#1729=CARTESIAN_POINT('',(80.,-90.,4.));
#1730=CARTESIAN_POINT('',(90.,-90.,4.));
#1731=CARTESIAN_POINT('Origin',(0.,0.,46.));
#1732=CARTESIAN_POINT('',(-80.,-90.,46.));
#1733=CARTESIAN_POINT('',(-90.,-90.,46.));
#1734=CARTESIAN_POINT('',(-80.,-88.,46.));
#1735=CARTESIAN_POINT('',(-80.,-45.,46.));
#1736=CARTESIAN_POINT('',(-44.,-88.,46.));
#1737=CARTESIAN_POINT('Origin',(-85.,85.,46.));
#1738=CARTESIAN_POINT('',(-88.,88.,46.));
#1739=CARTESIAN_POINT('',(44.,88.,46.));
#1740=CARTESIAN_POINT('',(-88.,80.,46.));
#1741=CARTESIAN_POINT('',(-88.,44.,46.));
#1742=CARTESIAN_POINT('',(-80.,80.,46.));
#1743=CARTESIAN_POINT('',(-90.,80.,46.));
#1744=CARTESIAN_POINT('',(-80.,80.,46.));
#1745=CARTESIAN_POINT('Origin',(-80.,80.,4.));
#1746=CARTESIAN_POINT('',(-80.,80.,4.));
#1747=CARTESIAN_POINT('',(-80.,90.,4.));
#1748=CARTESIAN_POINT('',(-80.,80.,4.));
#1749=CARTESIAN_POINT('',(-80.,90.,4.));
#1750=CARTESIAN_POINT('',(-80.,80.,4.));
#1751=CARTESIAN_POINT('Origin',(-90.,80.,4.));
#1752=CARTESIAN_POINT('',(-90.,80.,4.));
#1753=CARTESIAN_POINT('',(-90.,80.,4.));
#1754=CARTESIAN_POINT('',(-90.,80.,46.));
#1755=CARTESIAN_POINT('',(-45.,80.,46.));
#1756=CARTESIAN_POINT('',(-90.,80.,4.));
#1757=CARTESIAN_POINT('Origin',(-85.,85.,4.));
#1758=CARTESIAN_POINT('',(-90.,90.,4.));
#1759=CARTESIAN_POINT('',(-90.,90.,4.));
#1760=CARTESIAN_POINT('',(-80.,90.,4.));
#1761=CARTESIAN_POINT('Origin',(0.,0.,46.));
#1762=CARTESIAN_POINT('',(-88.,-80.,46.));
#1763=CARTESIAN_POINT('',(-88.,44.,46.));
#1764=CARTESIAN_POINT('',(-90.,-80.,46.));
#1765=CARTESIAN_POINT('',(-40.,-80.,46.));
#1766=CARTESIAN_POINT('',(-90.,90.,46.));
#1767=CARTESIAN_POINT('Origin',(-85.,-85.,46.));
#1768=CARTESIAN_POINT('',(-88.,-88.,46.));
#1769=CARTESIAN_POINT('',(-88.,44.,46.));
#1770=CARTESIAN_POINT('',(-44.,-88.,46.));
#1771=CARTESIAN_POINT('',(-80.,-80.,46.));
#1772=CARTESIAN_POINT('',(-80.,-90.,46.));
#1773=CARTESIAN_POINT('',(-80.,-80.,46.));
#1774=CARTESIAN_POINT('Origin',(-80.,-80.,4.));
#1775=CARTESIAN_POINT('',(-80.,-80.,4.));
#1776=CARTESIAN_POINT('',(-90.,-80.,4.));
#1777=CARTESIAN_POINT('',(-80.,-80.,4.));
#1778=CARTESIAN_POINT('',(-90.,-80.,4.));
#1779=CARTESIAN_POINT('',(-80.,-80.,4.));
#1780=CARTESIAN_POINT('Origin',(-80.,-90.,4.));
#1781=CARTESIAN_POINT('',(-80.,-90.,4.));
#1782=CARTESIAN_POINT('',(-80.,-90.,4.));
#1783=CARTESIAN_POINT('',(-80.,-90.,4.));
#1784=CARTESIAN_POINT('Origin',(-85.,-85.,4.));
#1785=CARTESIAN_POINT('',(-90.,-90.,4.));
#1786=CARTESIAN_POINT('',(-90.,-90.,4.));
#1787=CARTESIAN_POINT('',(-90.,-80.,4.));
#1788=CARTESIAN_POINT('Origin',(-88.,88.,46.));
#1789=CARTESIAN_POINT('',(-88.,88.,46.));
#1790=CARTESIAN_POINT('',(-88.,-88.,46.));
#1791=CARTESIAN_POINT('Origin',(88.,88.,46.));
#1792=CARTESIAN_POINT('',(88.,88.,46.));
#1793=CARTESIAN_POINT('Origin',(88.,-88.,46.));
#1794=CARTESIAN_POINT('',(88.,-88.,46.));
#1795=CARTESIAN_POINT('Origin',(-88.,-88.,46.));
#1796=CARTESIAN_POINT('Origin',(-90.,90.,46.));
#1797=CARTESIAN_POINT('',(-90.,-90.,4.));
#1798=CARTESIAN_POINT('',(-90.,90.,46.));
#1799=CARTESIAN_POINT('Origin',(90.,90.,46.));
#1800=CARTESIAN_POINT('',(90.,90.,46.));
#1801=CARTESIAN_POINT('Origin',(90.,-90.,46.));
#1802=CARTESIAN_POINT('',(90.,-90.,46.));
#1803=CARTESIAN_POINT('Origin',(-90.,-90.,46.));
#1804=UNCERTAINTY_MEASURE_WITH_UNIT(LENGTH_MEASURE(0.01),#1808,
'DISTANCE_ACCURACY_VALUE',
'Maximum model space distance between geometric entities at asserted c
onnectivities');
#1805=UNCERTAINTY_MEASURE_WITH_UNIT(LENGTH_MEASURE(0.01),#1808,
'DISTANCE_ACCURACY_VALUE',
'Maximum model space distance between geometric entities at asserted c
onnectivities');
#1806=(
GEOMETRIC_REPRESENTATION_CONTEXT(3)
GLOBAL_UNCERTAINTY_ASSIGNED_CONTEXT((#1804))
GLOBAL_UNIT_ASSIGNED_CONTEXT((#1808,#1810,#1811))
REPRESENTATION_CONTEXT('','3D')
);
#1807=(
GEOMETRIC_REPRESENTATION_CONTEXT(3)
GLOBAL_UNCERTAINTY_ASSIGNED_CONTEXT((#1805))
GLOBAL_UNIT_ASSIGNED_CONTEXT((#1808,#1810,#1811))
REPRESENTATION_CONTEXT('','3D')
);
#1808=(
LENGTH_UNIT()
NAMED_UNIT(*)
SI_UNIT(.MILLI.,.METRE.)
);
#1809=(
LENGTH_UNIT()
NAMED_UNIT(*)
SI_UNIT(.CENTI.,.METRE.)
);
#1810=(
NAMED_UNIT(*)
PLANE_ANGLE_UNIT()
SI_UNIT($,.RADIAN.)
);
#1811=(
NAMED_UNIT(*)
SI_UNIT($,.STERADIAN.)
SOLID_ANGLE_UNIT()
);
#1812=SHAPE_DEFINITION_REPRESENTATION(#1813,#1814);
#1813=PRODUCT_DEFINITION_SHAPE('',$,#1816);
#1814=SHAPE_REPRESENTATION('',(#1144),#1806);
#1815=PRODUCT_DEFINITION_CONTEXT('part definition',#1820,'design');
#1816=PRODUCT_DEFINITION('12_Wheel_Guard','12_Wheel_Guard',#1817,#1815);
#1817=PRODUCT_DEFINITION_FORMATION('',$,#1822);
#1818=PRODUCT_RELATED_PRODUCT_CATEGORY('12_Wheel_Guard',
'12_Wheel_Guard',(#1822));
#1819=APPLICATION_PROTOCOL_DEFINITION('international standard',
'automotive_design',2009,#1820);
#1820=APPLICATION_CONTEXT(
'Core Data for Automotive Mechanical Design Process');
#1821=PRODUCT_CONTEXT('part definition',#1820,'mechanical');
#1822=PRODUCT('12_Wheel_Guard','12_Wheel_Guard',$,(#1821));
#1823=PRESENTATION_STYLE_ASSIGNMENT((#1824));
#1824=SURFACE_STYLE_USAGE(.BOTH.,#1827);
#1825=SURFACE_STYLE_RENDERING_WITH_PROPERTIES($,#1831,(#1826));
#1826=SURFACE_STYLE_TRANSPARENT(0.53999999165535);
#1827=SURFACE_SIDE_STYLE('',(#1828,#1825));
#1828=SURFACE_STYLE_FILL_AREA(#1829);
#1829=FILL_AREA_STYLE('',(#1830));
#1830=FILL_AREA_STYLE_COLOUR('',#1831);
#1831=COLOUR_RGB('',0.8,0.8,0.8);
ENDSEC;
END-ISO-10303-21;
