ISO-10303-21;
HEADER;
/* Generated by software containing ST-Developer
 * from STEP Tools, Inc. (www.steptools.com) 
 */

FILE_DESCRIPTION(
/* description */ (''),
/* implementation_level */ '2;1');

FILE_NAME(
/* name */ '13_Torsional_Coupling.step',
/* time_stamp */ '2026-10-08T17:08:31+09:00',
/* author */ ('Reaction Wheel Pendulum project'),
/* organization */ (''),
/* preprocessor_version */ 'ST-DEVELOPER v20.1',
/* originating_system */ 'Autodesk Inventor 2026',
/* authorisation */ '');

FILE_SCHEMA (('AUTOMOTIVE_DESIGN { 1 0 10303 214 3 1 1 }'));
ENDSEC;

DATA;
#10=MECHANICAL_DESIGN_GEOMETRIC_PRESENTATION_REPRESENTATION('',(#13),#459);
#11=SHAPE_REPRESENTATION_RELATIONSHIP('SRR','None',#466,#12);
#12=ADVANCED_BREP_SHAPE_REPRESENTATION('',(#14),#458);
#13=STYLED_ITEM('',(#475),#14);
#14=MANIFOLD_SOLID_BREP('\X2\30BD30EA30C330C9\X0\1',#258);
#15=FACE_BOUND('',#62,.T.);
#16=FACE_BOUND('',#63,.T.);
#17=FACE_BOUND('',#65,.T.);
#18=FACE_BOUND('',#68,.T.);
#19=FACE_BOUND('',#69,.T.);
#20=FACE_BOUND('',#71,.T.);
#21=FACE_BOUND('',#73,.T.);
#22=CYLINDRICAL_SURFACE('',#297,5.);
#23=CYLINDRICAL_SURFACE('',#302,2.5);
#24=CYLINDRICAL_SURFACE('',#304,9.);
#25=CIRCLE('',#284,5.);
#26=CIRCLE('',#285,9.);
#27=CIRCLE('',#287,5.);
#28=CIRCLE('',#288,9.);
#29=CIRCLE('',#290,5.);
#30=CIRCLE('',#291,9.);
#31=CIRCLE('',#295,5.);
#32=CIRCLE('',#296,9.);
#33=CIRCLE('',#298,5.);
#34=CIRCLE('',#299,5.);
#35=CIRCLE('',#301,2.5);
#36=CIRCLE('',#303,2.5);
#37=CIRCLE('',#305,9.);
#38=CIRCLE('',#306,9.);
#39=FACE_OUTER_BOUND('',#53,.T.);
#40=FACE_OUTER_BOUND('',#54,.T.);
#41=FACE_OUTER_BOUND('',#55,.T.);
#42=FACE_OUTER_BOUND('',#56,.T.);
#43=FACE_OUTER_BOUND('',#57,.T.);
#44=FACE_OUTER_BOUND('',#58,.T.);
#45=FACE_OUTER_BOUND('',#59,.T.);
#46=FACE_OUTER_BOUND('',#60,.T.);
#47=FACE_OUTER_BOUND('',#61,.T.);
#48=FACE_OUTER_BOUND('',#64,.T.);
#49=FACE_OUTER_BOUND('',#66,.T.);
#50=FACE_OUTER_BOUND('',#67,.T.);
#51=FACE_OUTER_BOUND('',#70,.T.);
#52=FACE_OUTER_BOUND('',#72,.T.);
#53=EDGE_LOOP('',(#167,#168,#169,#170));
#54=EDGE_LOOP('',(#171,#172,#173,#174));
#55=EDGE_LOOP('',(#175,#176,#177,#178));
#56=EDGE_LOOP('',(#179,#180,#181,#182));
#57=EDGE_LOOP('',(#183,#184,#185,#186));
#58=EDGE_LOOP('',(#187,#188,#189,#190));
#59=EDGE_LOOP('',(#191,#192,#193,#194));
#60=EDGE_LOOP('',(#195,#196,#197,#198));
#61=EDGE_LOOP('',(#199,#200,#201,#202));
#62=EDGE_LOOP('',(#203,#204,#205,#206));
#63=EDGE_LOOP('',(#207,#208,#209,#210));
#64=EDGE_LOOP('',(#211));
#65=EDGE_LOOP('',(#212));
#66=EDGE_LOOP('',(#213,#214,#215,#216));
#67=EDGE_LOOP('',(#217,#218,#219,#220));
#68=EDGE_LOOP('',(#221,#222,#223,#224));
#69=EDGE_LOOP('',(#225,#226,#227,#228));
#70=EDGE_LOOP('',(#229));
#71=EDGE_LOOP('',(#230));
#72=EDGE_LOOP('',(#231));
#73=EDGE_LOOP('',(#232));
#74=LINE('',#390,#93);
#75=LINE('',#392,#94);
#76=LINE('',#394,#95);
#77=LINE('',#395,#96);
#78=LINE('',#399,#97);
#79=LINE('',#401,#98);
#80=LINE('',#403,#99);
#81=LINE('',#404,#100);
#82=LINE('',#410,#101);
#83=LINE('',#415,#102);
#84=LINE('',#422,#103);
#85=LINE('',#424,#104);
#86=LINE('',#425,#105);
#87=LINE('',#428,#106);
#88=LINE('',#430,#107);
#89=LINE('',#431,#108);
#90=LINE('',#439,#109);
#91=LINE('',#447,#110);
#92=LINE('',#452,#111);
#93=VECTOR('',#313,10.);
#94=VECTOR('',#314,10.);
#95=VECTOR('',#315,10.);
#96=VECTOR('',#316,10.);
#97=VECTOR('',#319,10.);
#98=VECTOR('',#320,10.);
#99=VECTOR('',#321,10.);
#100=VECTOR('',#322,10.);
#101=VECTOR('',#329,10.);
#102=VECTOR('',#334,10.);
#103=VECTOR('',#343,10.);
#104=VECTOR('',#346,10.);
#105=VECTOR('',#347,10.);
#106=VECTOR('',#350,10.);
#107=VECTOR('',#351,10.);
#108=VECTOR('',#352,10.);
#109=VECTOR('',#363,5.);
#110=VECTOR('',#374,2.5);
#111=VECTOR('',#379,9.);
#112=VERTEX_POINT('',#388);
#113=VERTEX_POINT('',#389);
#114=VERTEX_POINT('',#391);
#115=VERTEX_POINT('',#393);
#116=VERTEX_POINT('',#397);
#117=VERTEX_POINT('',#398);
#118=VERTEX_POINT('',#400);
#119=VERTEX_POINT('',#402);
#120=VERTEX_POINT('',#406);
#121=VERTEX_POINT('',#408);
#122=VERTEX_POINT('',#412);
#123=VERTEX_POINT('',#414);
#124=VERTEX_POINT('',#418);
#125=VERTEX_POINT('',#420);
#126=VERTEX_POINT('',#427);
#127=VERTEX_POINT('',#429);
#128=VERTEX_POINT('',#436);
#129=VERTEX_POINT('',#438);
#130=VERTEX_POINT('',#442);
#131=VERTEX_POINT('',#445);
#132=VERTEX_POINT('',#449);
#133=VERTEX_POINT('',#451);
#134=EDGE_CURVE('',#112,#113,#74,.T.);
#135=EDGE_CURVE('',#114,#112,#75,.T.);
#136=EDGE_CURVE('',#115,#114,#76,.T.);
#137=EDGE_CURVE('',#115,#113,#77,.T.);
#138=EDGE_CURVE('',#116,#117,#78,.T.);
#139=EDGE_CURVE('',#116,#118,#79,.T.);
#140=EDGE_CURVE('',#119,#118,#80,.T.);
#141=EDGE_CURVE('',#117,#119,#81,.T.);
#142=EDGE_CURVE('',#113,#120,#25,.T.);
#143=EDGE_CURVE('',#121,#115,#26,.T.);
#144=EDGE_CURVE('',#120,#121,#82,.T.);
#145=EDGE_CURVE('',#122,#112,#27,.T.);
#146=EDGE_CURVE('',#122,#123,#83,.T.);
#147=EDGE_CURVE('',#114,#123,#28,.T.);
#148=EDGE_CURVE('',#117,#124,#29,.T.);
#149=EDGE_CURVE('',#125,#119,#30,.T.);
#150=EDGE_CURVE('',#125,#124,#84,.T.);
#151=EDGE_CURVE('',#120,#122,#85,.T.);
#152=EDGE_CURVE('',#123,#121,#86,.T.);
#153=EDGE_CURVE('',#124,#126,#87,.T.);
#154=EDGE_CURVE('',#127,#125,#88,.T.);
#155=EDGE_CURVE('',#127,#126,#89,.T.);
#156=EDGE_CURVE('',#126,#116,#31,.T.);
#157=EDGE_CURVE('',#118,#127,#32,.T.);
#158=EDGE_CURVE('',#128,#128,#33,.T.);
#159=EDGE_CURVE('',#128,#129,#90,.T.);
#160=EDGE_CURVE('',#129,#129,#34,.T.);
#161=EDGE_CURVE('',#130,#130,#35,.T.);
#162=EDGE_CURVE('',#131,#131,#36,.T.);
#163=EDGE_CURVE('',#131,#130,#91,.T.);
#164=EDGE_CURVE('',#132,#132,#37,.T.);
#165=EDGE_CURVE('',#132,#133,#92,.T.);
#166=EDGE_CURVE('',#133,#133,#38,.T.);
#167=ORIENTED_EDGE('',*,*,#134,.F.);
#168=ORIENTED_EDGE('',*,*,#135,.F.);
#169=ORIENTED_EDGE('',*,*,#136,.F.);
#170=ORIENTED_EDGE('',*,*,#137,.T.);
#171=ORIENTED_EDGE('',*,*,#138,.F.);
#172=ORIENTED_EDGE('',*,*,#139,.T.);
#173=ORIENTED_EDGE('',*,*,#140,.F.);
#174=ORIENTED_EDGE('',*,*,#141,.F.);
#175=ORIENTED_EDGE('',*,*,#142,.F.);
#176=ORIENTED_EDGE('',*,*,#137,.F.);
#177=ORIENTED_EDGE('',*,*,#143,.F.);
#178=ORIENTED_EDGE('',*,*,#144,.F.);
#179=ORIENTED_EDGE('',*,*,#145,.F.);
#180=ORIENTED_EDGE('',*,*,#146,.T.);
#181=ORIENTED_EDGE('',*,*,#147,.F.);
#182=ORIENTED_EDGE('',*,*,#135,.T.);
#183=ORIENTED_EDGE('',*,*,#148,.F.);
#184=ORIENTED_EDGE('',*,*,#141,.T.);
#185=ORIENTED_EDGE('',*,*,#149,.F.);
#186=ORIENTED_EDGE('',*,*,#150,.T.);
#187=ORIENTED_EDGE('',*,*,#151,.F.);
#188=ORIENTED_EDGE('',*,*,#144,.T.);
#189=ORIENTED_EDGE('',*,*,#152,.F.);
#190=ORIENTED_EDGE('',*,*,#146,.F.);
#191=ORIENTED_EDGE('',*,*,#153,.F.);
#192=ORIENTED_EDGE('',*,*,#150,.F.);
#193=ORIENTED_EDGE('',*,*,#154,.F.);
#194=ORIENTED_EDGE('',*,*,#155,.T.);
#195=ORIENTED_EDGE('',*,*,#156,.F.);
#196=ORIENTED_EDGE('',*,*,#155,.F.);
#197=ORIENTED_EDGE('',*,*,#157,.F.);
#198=ORIENTED_EDGE('',*,*,#139,.F.);
#199=ORIENTED_EDGE('',*,*,#158,.T.);
#200=ORIENTED_EDGE('',*,*,#159,.T.);
#201=ORIENTED_EDGE('',*,*,#160,.F.);
#202=ORIENTED_EDGE('',*,*,#159,.F.);
#203=ORIENTED_EDGE('',*,*,#153,.T.);
#204=ORIENTED_EDGE('',*,*,#156,.T.);
#205=ORIENTED_EDGE('',*,*,#138,.T.);
#206=ORIENTED_EDGE('',*,*,#148,.T.);
#207=ORIENTED_EDGE('',*,*,#151,.T.);
#208=ORIENTED_EDGE('',*,*,#145,.T.);
#209=ORIENTED_EDGE('',*,*,#134,.T.);
#210=ORIENTED_EDGE('',*,*,#142,.T.);
#211=ORIENTED_EDGE('',*,*,#158,.F.);
#212=ORIENTED_EDGE('',*,*,#161,.F.);
#213=ORIENTED_EDGE('',*,*,#162,.F.);
#214=ORIENTED_EDGE('',*,*,#163,.T.);
#215=ORIENTED_EDGE('',*,*,#161,.T.);
#216=ORIENTED_EDGE('',*,*,#163,.F.);
#217=ORIENTED_EDGE('',*,*,#164,.F.);
#218=ORIENTED_EDGE('',*,*,#165,.T.);
#219=ORIENTED_EDGE('',*,*,#166,.F.);
#220=ORIENTED_EDGE('',*,*,#165,.F.);
#221=ORIENTED_EDGE('',*,*,#154,.T.);
#222=ORIENTED_EDGE('',*,*,#149,.T.);
#223=ORIENTED_EDGE('',*,*,#140,.T.);
#224=ORIENTED_EDGE('',*,*,#157,.T.);
#225=ORIENTED_EDGE('',*,*,#152,.T.);
#226=ORIENTED_EDGE('',*,*,#143,.T.);
#227=ORIENTED_EDGE('',*,*,#136,.T.);
#228=ORIENTED_EDGE('',*,*,#147,.T.);
#229=ORIENTED_EDGE('',*,*,#166,.T.);
#230=ORIENTED_EDGE('',*,*,#162,.T.);
#231=ORIENTED_EDGE('',*,*,#164,.T.);
#232=ORIENTED_EDGE('',*,*,#160,.T.);
#233=PLANE('',#281);
#234=PLANE('',#282);
#235=PLANE('',#283);
#236=PLANE('',#286);
#237=PLANE('',#289);
#238=PLANE('',#292);
#239=PLANE('',#293);
#240=PLANE('',#294);
#241=PLANE('',#300);
#242=PLANE('',#307);
#243=PLANE('',#308);
#244=ADVANCED_FACE('',(#39),#233,.F.);
#245=ADVANCED_FACE('',(#40),#234,.F.);
#246=ADVANCED_FACE('',(#41),#235,.F.);
#247=ADVANCED_FACE('',(#42),#236,.T.);
#248=ADVANCED_FACE('',(#43),#237,.T.);
#249=ADVANCED_FACE('',(#44),#238,.F.);
#250=ADVANCED_FACE('',(#45),#239,.F.);
#251=ADVANCED_FACE('',(#46),#240,.F.);
#252=ADVANCED_FACE('',(#47,#15,#16),#22,.F.);
#253=ADVANCED_FACE('',(#48,#17),#241,.T.);
#254=ADVANCED_FACE('',(#49),#23,.F.);
#255=ADVANCED_FACE('',(#50,#18,#19),#24,.T.);
#256=ADVANCED_FACE('',(#51,#20),#242,.F.);
#257=ADVANCED_FACE('',(#52,#21),#243,.T.);
#258=CLOSED_SHELL('',(#244,#245,#246,#247,#248,#249,#250,#251,#252,#253,
#254,#255,#256,#257));
#259=DERIVED_UNIT_ELEMENT(#262,1.);
#260=DERIVED_UNIT_ELEMENT(#461,-3.);
#261=DIMENSIONAL_EXPONENTS(0.,1.,0.,0.,0.,0.,0.);
#262=(
CONVERSION_BASED_UNIT('gram',#264)
MASS_UNIT()
NAMED_UNIT(#261)
);
#263=(
MASS_UNIT()
NAMED_UNIT(*)
SI_UNIT(.KILO.,.GRAM.)
);
#264=MASS_MEASURE_WITH_UNIT(MASS_MEASURE(0.001),#263);
#265=DERIVED_UNIT((#259,#260));
#266=MEASURE_REPRESENTATION_ITEM('density measure',
POSITIVE_RATIO_MEASURE(2.7),#265);
#267=PROPERTY_DEFINITION_REPRESENTATION(#272,#269);
#268=PROPERTY_DEFINITION_REPRESENTATION(#273,#270);
#269=REPRESENTATION('material name',(#271),#458);
#270=REPRESENTATION('density',(#266),#458);
#271=DESCRIPTIVE_REPRESENTATION_ITEM('\X2\30A230EB30DF30CB30A630E0\X0\ 
6061','\X2\30A230EB30DF30CB30A630E0\X0\ 6061');
#272=PROPERTY_DEFINITION('material property','material name',#468);
#273=PROPERTY_DEFINITION('material property','density of part',#468);
#274=DATE_TIME_ROLE('creation_date');
#275=APPLIED_DATE_AND_TIME_ASSIGNMENT(#276,#274,(#468));
#276=DATE_AND_TIME(#277,#278);
#277=CALENDAR_DATE(2026,8,10);
#278=LOCAL_TIME(0,0,0.,#279);
#279=COORDINATED_UNIVERSAL_TIME_OFFSET(0,0,.BEHIND.);
#280=AXIS2_PLACEMENT_3D('',#386,#309,#310);
#281=AXIS2_PLACEMENT_3D('',#387,#311,#312);
#282=AXIS2_PLACEMENT_3D('',#396,#317,#318);
#283=AXIS2_PLACEMENT_3D('',#405,#323,#324);
#284=AXIS2_PLACEMENT_3D('',#407,#325,#326);
#285=AXIS2_PLACEMENT_3D('',#409,#327,#328);
#286=AXIS2_PLACEMENT_3D('',#411,#330,#331);
#287=AXIS2_PLACEMENT_3D('',#413,#332,#333);
#288=AXIS2_PLACEMENT_3D('',#416,#335,#336);
#289=AXIS2_PLACEMENT_3D('',#417,#337,#338);
#290=AXIS2_PLACEMENT_3D('',#419,#339,#340);
#291=AXIS2_PLACEMENT_3D('',#421,#341,#342);
#292=AXIS2_PLACEMENT_3D('',#423,#344,#345);
#293=AXIS2_PLACEMENT_3D('',#426,#348,#349);
#294=AXIS2_PLACEMENT_3D('',#432,#353,#354);
#295=AXIS2_PLACEMENT_3D('',#433,#355,#356);
#296=AXIS2_PLACEMENT_3D('',#434,#357,#358);
#297=AXIS2_PLACEMENT_3D('',#435,#359,#360);
#298=AXIS2_PLACEMENT_3D('',#437,#361,#362);
#299=AXIS2_PLACEMENT_3D('',#440,#364,#365);
#300=AXIS2_PLACEMENT_3D('',#441,#366,#367);
#301=AXIS2_PLACEMENT_3D('',#443,#368,#369);
#302=AXIS2_PLACEMENT_3D('',#444,#370,#371);
#303=AXIS2_PLACEMENT_3D('',#446,#372,#373);
#304=AXIS2_PLACEMENT_3D('',#448,#375,#376);
#305=AXIS2_PLACEMENT_3D('',#450,#377,#378);
#306=AXIS2_PLACEMENT_3D('',#453,#380,#381);
#307=AXIS2_PLACEMENT_3D('',#454,#382,#383);
#308=AXIS2_PLACEMENT_3D('',#455,#384,#385);
#309=DIRECTION('axis',(0.,0.,1.));
#310=DIRECTION('refdir',(1.,0.,0.));
#311=DIRECTION('center_axis',(-1.,0.,0.));
#312=DIRECTION('ref_axis',(0.,-1.,0.));
#313=DIRECTION('',(0.,0.,1.));
#314=DIRECTION('',(0.,-1.,0.));
#315=DIRECTION('',(0.,0.,-1.));
#316=DIRECTION('',(0.,-1.,0.));
#317=DIRECTION('center_axis',(-1.,0.,0.));
#318=DIRECTION('ref_axis',(0.,-1.,0.));
#319=DIRECTION('',(0.,0.,-1.));
#320=DIRECTION('',(0.,-1.,0.));
#321=DIRECTION('',(0.,0.,1.));
#322=DIRECTION('',(0.,-1.,0.));
#323=DIRECTION('center_axis',(0.,0.,1.));
#324=DIRECTION('ref_axis',(1.,0.,0.));
#325=DIRECTION('center_axis',(0.,0.,-1.));
#326=DIRECTION('ref_axis',(-1.,0.,0.));
#327=DIRECTION('center_axis',(0.,0.,1.));
#328=DIRECTION('ref_axis',(-1.,0.,0.));
#329=DIRECTION('',(0.,1.,0.));
#330=DIRECTION('center_axis',(0.,0.,1.));
#331=DIRECTION('ref_axis',(1.,0.,0.));
#332=DIRECTION('center_axis',(0.,0.,1.));
#333=DIRECTION('ref_axis',(-1.,0.,0.));
#334=DIRECTION('',(0.,1.,0.));
#335=DIRECTION('center_axis',(0.,0.,-1.));
#336=DIRECTION('ref_axis',(-1.,0.,0.));
#337=DIRECTION('center_axis',(0.,0.,1.));
#338=DIRECTION('ref_axis',(1.,0.,0.));
#339=DIRECTION('center_axis',(0.,0.,1.));
#340=DIRECTION('ref_axis',(-1.,0.,0.));
#341=DIRECTION('center_axis',(0.,0.,-1.));
#342=DIRECTION('ref_axis',(-1.,0.,0.));
#343=DIRECTION('',(0.,1.,0.));
#344=DIRECTION('center_axis',(1.,0.,0.));
#345=DIRECTION('ref_axis',(0.,1.,0.));
#346=DIRECTION('',(0.,0.,-1.));
#347=DIRECTION('',(0.,0.,1.));
#348=DIRECTION('center_axis',(1.,0.,0.));
#349=DIRECTION('ref_axis',(0.,1.,0.));
#350=DIRECTION('',(0.,0.,1.));
#351=DIRECTION('',(0.,0.,-1.));
#352=DIRECTION('',(0.,1.,0.));
#353=DIRECTION('center_axis',(0.,0.,1.));
#354=DIRECTION('ref_axis',(1.,0.,0.));
#355=DIRECTION('center_axis',(0.,0.,-1.));
#356=DIRECTION('ref_axis',(-1.,0.,0.));
#357=DIRECTION('center_axis',(0.,0.,1.));
#358=DIRECTION('ref_axis',(-1.,0.,0.));
#359=DIRECTION('center_axis',(0.,0.,1.));
#360=DIRECTION('ref_axis',(-1.,0.,0.));
#361=DIRECTION('center_axis',(0.,0.,-1.));
#362=DIRECTION('ref_axis',(-1.,0.,0.));
#363=DIRECTION('',(0.,0.,1.));
#364=DIRECTION('center_axis',(0.,0.,-1.));
#365=DIRECTION('ref_axis',(-1.,0.,0.));
#366=DIRECTION('center_axis',(0.,0.,1.));
#367=DIRECTION('ref_axis',(1.,0.,0.));
#368=DIRECTION('center_axis',(0.,0.,1.));
#369=DIRECTION('ref_axis',(-1.,0.,0.));
#370=DIRECTION('center_axis',(0.,0.,1.));
#371=DIRECTION('ref_axis',(-1.,0.,0.));
#372=DIRECTION('center_axis',(0.,0.,1.));
#373=DIRECTION('ref_axis',(-1.,0.,0.));
#374=DIRECTION('',(0.,0.,1.));
#375=DIRECTION('center_axis',(0.,0.,1.));
#376=DIRECTION('ref_axis',(-1.,0.,0.));
#377=DIRECTION('center_axis',(0.,0.,1.));
#378=DIRECTION('ref_axis',(-1.,0.,0.));
#379=DIRECTION('',(0.,0.,-1.));
#380=DIRECTION('center_axis',(0.,0.,-1.));
#381=DIRECTION('ref_axis',(-1.,0.,0.));
#382=DIRECTION('center_axis',(0.,0.,1.));
#383=DIRECTION('ref_axis',(1.,0.,0.));
#384=DIRECTION('center_axis',(0.,0.,1.));
#385=DIRECTION('ref_axis',(1.,0.,0.));
#386=CARTESIAN_POINT('',(0.,0.,0.));
#387=CARTESIAN_POINT('Origin',(-1.,10.,-10.5));
#388=CARTESIAN_POINT('',(-1.,4.89897948556636,-10.5));
#389=CARTESIAN_POINT('',(-1.,4.89897948556636,-9.5));
#390=CARTESIAN_POINT('',(-1.,4.89897948556636,-11.));
#391=CARTESIAN_POINT('',(-1.,8.94427190999916,-10.5));
#392=CARTESIAN_POINT('',(-1.,10.,-10.5));
#393=CARTESIAN_POINT('',(-1.,8.94427190999916,-9.5));
#394=CARTESIAN_POINT('',(-1.,8.94427190999916,-20.));
#395=CARTESIAN_POINT('',(-1.,10.,-9.5));
#396=CARTESIAN_POINT('Origin',(-1.,10.,-10.5));
#397=CARTESIAN_POINT('',(-1.,-4.89897948556636,-9.5));
#398=CARTESIAN_POINT('',(-1.,-4.89897948556636,-10.5));
#399=CARTESIAN_POINT('',(-1.,-4.89897948556636,-11.));
#400=CARTESIAN_POINT('',(-1.,-8.94427190999916,-9.5));
#401=CARTESIAN_POINT('',(-1.,10.,-9.5));
#402=CARTESIAN_POINT('',(-1.,-8.94427190999916,-10.5));
#403=CARTESIAN_POINT('',(-1.,-8.94427190999916,-20.));
#404=CARTESIAN_POINT('',(-1.,10.,-10.5));
#405=CARTESIAN_POINT('Origin',(0.,0.,-9.5));
#406=CARTESIAN_POINT('',(1.,4.89897948556636,-9.5));
#407=CARTESIAN_POINT('Origin',(0.,0.,-9.5));
#408=CARTESIAN_POINT('',(1.,8.94427190999916,-9.5));
#409=CARTESIAN_POINT('Origin',(0.,0.,-9.5));
#410=CARTESIAN_POINT('',(1.,-10.,-9.5));
#411=CARTESIAN_POINT('Origin',(0.,0.,-10.5));
#412=CARTESIAN_POINT('',(1.,4.89897948556636,-10.5));
#413=CARTESIAN_POINT('Origin',(0.,0.,-10.5));
#414=CARTESIAN_POINT('',(1.,8.94427190999916,-10.5));
#415=CARTESIAN_POINT('',(1.,-10.,-10.5));
#416=CARTESIAN_POINT('Origin',(0.,0.,-10.5));
#417=CARTESIAN_POINT('Origin',(0.,0.,-10.5));
#418=CARTESIAN_POINT('',(1.,-4.89897948556636,-10.5));
#419=CARTESIAN_POINT('Origin',(0.,0.,-10.5));
#420=CARTESIAN_POINT('',(1.,-8.94427190999916,-10.5));
#421=CARTESIAN_POINT('Origin',(0.,0.,-10.5));
#422=CARTESIAN_POINT('',(1.,-10.,-10.5));
#423=CARTESIAN_POINT('Origin',(1.,-10.,-10.5));
#424=CARTESIAN_POINT('',(1.,4.89897948556636,-11.));
#425=CARTESIAN_POINT('',(1.,8.94427190999916,-20.));
#426=CARTESIAN_POINT('Origin',(1.,-10.,-10.5));
#427=CARTESIAN_POINT('',(1.,-4.89897948556636,-9.5));
#428=CARTESIAN_POINT('',(1.,-4.89897948556636,-11.));
#429=CARTESIAN_POINT('',(1.,-8.94427190999916,-9.5));
#430=CARTESIAN_POINT('',(1.,-8.94427190999916,-20.));
#431=CARTESIAN_POINT('',(1.,-10.,-9.5));
#432=CARTESIAN_POINT('Origin',(0.,0.,-9.5));
#433=CARTESIAN_POINT('Origin',(0.,0.,-9.5));
#434=CARTESIAN_POINT('Origin',(0.,0.,-9.5));
#435=CARTESIAN_POINT('Origin',(0.,0.,-11.));
#436=CARTESIAN_POINT('',(5.,6.12323399573677E-16,-11.));
#437=CARTESIAN_POINT('Origin',(0.,0.,-11.));
#438=CARTESIAN_POINT('',(5.,6.12323399573677E-16,-4.));
#439=CARTESIAN_POINT('',(5.,6.12323399573677E-16,-11.));
#440=CARTESIAN_POINT('Origin',(0.,0.,-4.));
#441=CARTESIAN_POINT('Origin',(-2.36064120735332E-16,0.,-11.));
#442=CARTESIAN_POINT('',(2.5,3.06161699786838E-16,-11.));
#443=CARTESIAN_POINT('Origin',(0.,0.,-11.));
#444=CARTESIAN_POINT('Origin',(0.,0.,-20.));
#445=CARTESIAN_POINT('',(2.5,3.06161699786838E-16,-20.));
#446=CARTESIAN_POINT('Origin',(0.,0.,-20.));
#447=CARTESIAN_POINT('',(2.5,3.06161699786838E-16,-20.));
#448=CARTESIAN_POINT('Origin',(0.,0.,-20.));
#449=CARTESIAN_POINT('',(9.,1.10218211923262E-15,-4.));
#450=CARTESIAN_POINT('Origin',(0.,0.,-4.));
#451=CARTESIAN_POINT('',(9.,1.10218211923262E-15,-20.));
#452=CARTESIAN_POINT('',(9.,1.10218211923262E-15,-20.));
#453=CARTESIAN_POINT('Origin',(0.,0.,-20.));
#454=CARTESIAN_POINT('Origin',(-5.03042222760184E-16,0.,-20.));
#455=CARTESIAN_POINT('Origin',(-5.03042222760184E-16,0.,-4.));
#456=UNCERTAINTY_MEASURE_WITH_UNIT(LENGTH_MEASURE(0.01),#460,
'DISTANCE_ACCURACY_VALUE',
'Maximum model space distance between geometric entities at asserted c
onnectivities');
#457=UNCERTAINTY_MEASURE_WITH_UNIT(LENGTH_MEASURE(0.01),#460,
'DISTANCE_ACCURACY_VALUE',
'Maximum model space distance between geometric entities at asserted c
onnectivities');
#458=(
GEOMETRIC_REPRESENTATION_CONTEXT(3)
GLOBAL_UNCERTAINTY_ASSIGNED_CONTEXT((#456))
GLOBAL_UNIT_ASSIGNED_CONTEXT((#460,#462,#463))
REPRESENTATION_CONTEXT('','3D')
);
#459=(
GEOMETRIC_REPRESENTATION_CONTEXT(3)
GLOBAL_UNCERTAINTY_ASSIGNED_CONTEXT((#457))
GLOBAL_UNIT_ASSIGNED_CONTEXT((#460,#462,#463))
REPRESENTATION_CONTEXT('','3D')
);
#460=(
LENGTH_UNIT()
NAMED_UNIT(*)
SI_UNIT(.MILLI.,.METRE.)
);
#461=(
LENGTH_UNIT()
NAMED_UNIT(*)
SI_UNIT(.CENTI.,.METRE.)
);
#462=(
NAMED_UNIT(*)
PLANE_ANGLE_UNIT()
SI_UNIT($,.RADIAN.)
);
#463=(
NAMED_UNIT(*)
SI_UNIT($,.STERADIAN.)
SOLID_ANGLE_UNIT()
);
#464=SHAPE_DEFINITION_REPRESENTATION(#465,#466);
#465=PRODUCT_DEFINITION_SHAPE('',$,#468);
#466=SHAPE_REPRESENTATION('',(#280),#458);
#467=PRODUCT_DEFINITION_CONTEXT('part definition',#472,'design');
#468=PRODUCT_DEFINITION('13_Torsional_Coupling','13_Torsional_Coupling',
#469,#467);
#469=PRODUCT_DEFINITION_FORMATION('',$,#474);
#470=PRODUCT_RELATED_PRODUCT_CATEGORY('13_Torsional_Coupling',
'13_Torsional_Coupling',(#474));
#471=APPLICATION_PROTOCOL_DEFINITION('international standard',
'automotive_design',2009,#472);
#472=APPLICATION_CONTEXT(
'Core Data for Automotive Mechanical Design Process');
#473=PRODUCT_CONTEXT('part definition',#472,'mechanical');
#474=PRODUCT('13_Torsional_Coupling','13_Torsional_Coupling',$,(#473));
#475=PRESENTATION_STYLE_ASSIGNMENT((#476));
#476=SURFACE_STYLE_USAGE(.BOTH.,#479);
#477=SURFACE_STYLE_RENDERING_WITH_PROPERTIES($,#483,(#478));
#478=SURFACE_STYLE_TRANSPARENT(0.);
#479=SURFACE_SIDE_STYLE('',(#480,#477));
#480=SURFACE_STYLE_FILL_AREA(#481);
#481=FILL_AREA_STYLE('',(#482));
#482=FILL_AREA_STYLE_COLOUR('',#483);
#483=COLOUR_RGB('',0.996078431372549,0.996078431372549,1.);
ENDSEC;
END-ISO-10303-21;
