ISO-10303-21;
HEADER;
/* Generated by software containing ST-Developer
 * from STEP Tools, Inc. (www.steptools.com) 
 */

FILE_DESCRIPTION(
/* description */ (''),
/* implementation_level */ '2;1');

FILE_NAME(
/* name */ '02_Wheel_Hub.step',
/* time_stamp */ '2026-10-08T19:41:05+09:00',
/* author */ ('Reaction Wheel Pendulum project'),
/* organization */ (''),
/* preprocessor_version */ 'ST-DEVELOPER v20.1',
/* originating_system */ 'Autodesk Inventor 2026',
/* authorisation */ '');

FILE_SCHEMA (('AUTOMOTIVE_DESIGN { 1 0 10303 214 3 1 1 }'));
ENDSEC;

DATA;
#10=MECHANICAL_DESIGN_GEOMETRIC_PRESENTATION_REPRESENTATION('',(#13),#715);
#11=SHAPE_REPRESENTATION_RELATIONSHIP('SRR','None',#722,#12);
#12=ADVANCED_BREP_SHAPE_REPRESENTATION('',(#14),#714);
#13=STYLED_ITEM('',(#731),#14);
#14=MANIFOLD_SOLID_BREP('\X2\30BD30EA30C330C9\X0\1',#406);
#15=FACE_BOUND('',#113,.T.);
#16=FACE_BOUND('',#114,.T.);
#17=FACE_BOUND('',#115,.T.);
#18=FACE_BOUND('',#116,.T.);
#19=FACE_BOUND('',#117,.T.);
#20=FACE_BOUND('',#120,.T.);
#21=FACE_BOUND('',#121,.T.);
#22=FACE_BOUND('',#122,.T.);
#23=FACE_BOUND('',#123,.T.);
#24=FACE_BOUND('',#124,.T.);
#25=FACE_BOUND('',#126,.T.);
#26=FACE_BOUND('',#127,.T.);
#27=FACE_BOUND('',#128,.T.);
#28=FACE_BOUND('',#129,.T.);
#29=FACE_BOUND('',#130,.T.);
#30=FACE_BOUND('',#135,.T.);
#31=FACE_BOUND('',#137,.T.);
#32=FACE_BOUND('',#138,.T.);
#33=FACE_BOUND('',#139,.T.);
#34=FACE_BOUND('',#140,.T.);
#35=FACE_BOUND('',#141,.T.);
#36=CYLINDRICAL_SURFACE('',#434,5.);
#37=CYLINDRICAL_SURFACE('',#438,1.25);
#38=CYLINDRICAL_SURFACE('',#441,1.25);
#39=CYLINDRICAL_SURFACE('',#444,1.25);
#40=CYLINDRICAL_SURFACE('',#447,1.25);
#41=CYLINDRICAL_SURFACE('',#450,1.25);
#42=CYLINDRICAL_SURFACE('',#453,1.25);
#43=CYLINDRICAL_SURFACE('',#456,1.25);
#44=CYLINDRICAL_SURFACE('',#459,1.25);
#45=CYLINDRICAL_SURFACE('',#465,18.);
#46=CYLINDRICAL_SURFACE('',#473,18.);
#47=CYLINDRICAL_SURFACE('',#474,9.);
#48=CYLINDRICAL_SURFACE('',#475,9.);
#49=CIRCLE('',#431,5.);
#50=CIRCLE('',#435,5.);
#51=CIRCLE('',#436,5.);
#52=CIRCLE('',#437,5.);
#53=CIRCLE('',#439,1.25);
#54=CIRCLE('',#440,1.25);
#55=CIRCLE('',#442,1.25);
#56=CIRCLE('',#443,1.25);
#57=CIRCLE('',#445,1.25);
#58=CIRCLE('',#446,1.25);
#59=CIRCLE('',#448,1.25);
#60=CIRCLE('',#449,1.25);
#61=CIRCLE('',#451,1.25);
#62=CIRCLE('',#452,1.25);
#63=CIRCLE('',#454,1.25);
#64=CIRCLE('',#455,1.25);
#65=CIRCLE('',#457,1.25);
#66=CIRCLE('',#458,1.25);
#67=CIRCLE('',#460,1.25);
#68=CIRCLE('',#461,1.25);
#69=CIRCLE('',#463,18.);
#70=CIRCLE('',#464,9.);
#71=CIRCLE('',#466,18.);
#72=CIRCLE('',#468,18.);
#73=CIRCLE('',#469,9.);
#74=CIRCLE('',#471,18.);
#75=CIRCLE('',#472,9.);
#76=CIRCLE('',#476,9.);
#77=FACE_OUTER_BOUND('',#99,.T.);
#78=FACE_OUTER_BOUND('',#100,.T.);
#79=FACE_OUTER_BOUND('',#101,.T.);
#80=FACE_OUTER_BOUND('',#102,.T.);
#81=FACE_OUTER_BOUND('',#103,.T.);
#82=FACE_OUTER_BOUND('',#104,.T.);
#83=FACE_OUTER_BOUND('',#105,.T.);
#84=FACE_OUTER_BOUND('',#106,.T.);
#85=FACE_OUTER_BOUND('',#107,.T.);
#86=FACE_OUTER_BOUND('',#108,.T.);
#87=FACE_OUTER_BOUND('',#109,.T.);
#88=FACE_OUTER_BOUND('',#110,.T.);
#89=FACE_OUTER_BOUND('',#111,.T.);
#90=FACE_OUTER_BOUND('',#112,.T.);
#91=FACE_OUTER_BOUND('',#118,.T.);
#92=FACE_OUTER_BOUND('',#119,.T.);
#93=FACE_OUTER_BOUND('',#125,.T.);
#94=FACE_OUTER_BOUND('',#131,.T.);
#95=FACE_OUTER_BOUND('',#132,.T.);
#96=FACE_OUTER_BOUND('',#133,.T.);
#97=FACE_OUTER_BOUND('',#134,.T.);
#98=FACE_OUTER_BOUND('',#136,.T.);
#99=EDGE_LOOP('',(#273,#274,#275,#276));
#100=EDGE_LOOP('',(#277,#278,#279,#280));
#101=EDGE_LOOP('',(#281,#282,#283,#284));
#102=EDGE_LOOP('',(#285,#286,#287,#288));
#103=EDGE_LOOP('',(#289,#290,#291,#292,#293,#294,#295,#296));
#104=EDGE_LOOP('',(#297,#298,#299,#300));
#105=EDGE_LOOP('',(#301,#302,#303,#304));
#106=EDGE_LOOP('',(#305,#306,#307,#308));
#107=EDGE_LOOP('',(#309,#310,#311,#312));
#108=EDGE_LOOP('',(#313,#314,#315,#316));
#109=EDGE_LOOP('',(#317,#318,#319,#320));
#110=EDGE_LOOP('',(#321,#322,#323,#324));
#111=EDGE_LOOP('',(#325,#326,#327,#328));
#112=EDGE_LOOP('',(#329));
#113=EDGE_LOOP('',(#330));
#114=EDGE_LOOP('',(#331));
#115=EDGE_LOOP('',(#332));
#116=EDGE_LOOP('',(#333));
#117=EDGE_LOOP('',(#334));
#118=EDGE_LOOP('',(#335,#336,#337,#338));
#119=EDGE_LOOP('',(#339));
#120=EDGE_LOOP('',(#340));
#121=EDGE_LOOP('',(#341));
#122=EDGE_LOOP('',(#342));
#123=EDGE_LOOP('',(#343));
#124=EDGE_LOOP('',(#344));
#125=EDGE_LOOP('',(#345));
#126=EDGE_LOOP('',(#346));
#127=EDGE_LOOP('',(#347));
#128=EDGE_LOOP('',(#348));
#129=EDGE_LOOP('',(#349));
#130=EDGE_LOOP('',(#350));
#131=EDGE_LOOP('',(#351,#352,#353,#354));
#132=EDGE_LOOP('',(#355,#356,#357,#358));
#133=EDGE_LOOP('',(#359,#360,#361,#362));
#134=EDGE_LOOP('',(#363));
#135=EDGE_LOOP('',(#364,#365,#366,#367,#368));
#136=EDGE_LOOP('',(#369));
#137=EDGE_LOOP('',(#370));
#138=EDGE_LOOP('',(#371));
#139=EDGE_LOOP('',(#372));
#140=EDGE_LOOP('',(#373));
#141=EDGE_LOOP('',(#374));
#142=LINE('',#608,#165);
#143=LINE('',#610,#166);
#144=LINE('',#612,#167);
#145=LINE('',#613,#168);
#146=LINE('',#618,#169);
#147=LINE('',#619,#170);
#148=LINE('',#622,#171);
#149=LINE('',#623,#172);
#150=LINE('',#626,#173);
#151=LINE('',#627,#174);
#152=LINE('',#632,#175);
#153=LINE('',#639,#176);
#154=LINE('',#645,#177);
#155=LINE('',#651,#178);
#156=LINE('',#657,#179);
#157=LINE('',#663,#180);
#158=LINE('',#669,#181);
#159=LINE('',#675,#182);
#160=LINE('',#681,#183);
#161=LINE('',#691,#184);
#162=LINE('',#703,#185);
#163=LINE('',#705,#186);
#164=LINE('',#708,#187);
#165=VECTOR('',#483,10.);
#166=VECTOR('',#484,10.);
#167=VECTOR('',#485,10.);
#168=VECTOR('',#486,10.);
#169=VECTOR('',#491,10.);
#170=VECTOR('',#492,10.);
#171=VECTOR('',#495,10.);
#172=VECTOR('',#496,10.);
#173=VECTOR('',#499,10.);
#174=VECTOR('',#500,10.);
#175=VECTOR('',#505,5.);
#176=VECTOR('',#514,1.25);
#177=VECTOR('',#521,1.25);
#178=VECTOR('',#528,1.25);
#179=VECTOR('',#535,1.25);
#180=VECTOR('',#542,1.25);
#181=VECTOR('',#549,1.25);
#182=VECTOR('',#556,1.25);
#183=VECTOR('',#563,1.25);
#184=VECTOR('',#576,18.);
#185=VECTOR('',#591,18.);
#186=VECTOR('',#594,9.);
#187=VECTOR('',#597,9.);
#188=VERTEX_POINT('',#606);
#189=VERTEX_POINT('',#607);
#190=VERTEX_POINT('',#609);
#191=VERTEX_POINT('',#611);
#192=VERTEX_POINT('',#615);
#193=VERTEX_POINT('',#617);
#194=VERTEX_POINT('',#621);
#195=VERTEX_POINT('',#625);
#196=VERTEX_POINT('',#629);
#197=VERTEX_POINT('',#631);
#198=VERTEX_POINT('',#636);
#199=VERTEX_POINT('',#638);
#200=VERTEX_POINT('',#642);
#201=VERTEX_POINT('',#644);
#202=VERTEX_POINT('',#648);
#203=VERTEX_POINT('',#650);
#204=VERTEX_POINT('',#654);
#205=VERTEX_POINT('',#656);
#206=VERTEX_POINT('',#660);
#207=VERTEX_POINT('',#662);
#208=VERTEX_POINT('',#666);
#209=VERTEX_POINT('',#668);
#210=VERTEX_POINT('',#672);
#211=VERTEX_POINT('',#674);
#212=VERTEX_POINT('',#678);
#213=VERTEX_POINT('',#680);
#214=VERTEX_POINT('',#684);
#215=VERTEX_POINT('',#686);
#216=VERTEX_POINT('',#689);
#217=VERTEX_POINT('',#693);
#218=VERTEX_POINT('',#695);
#219=VERTEX_POINT('',#698);
#220=VERTEX_POINT('',#700);
#221=VERTEX_POINT('',#707);
#222=EDGE_CURVE('',#188,#189,#142,.T.);
#223=EDGE_CURVE('',#190,#188,#143,.T.);
#224=EDGE_CURVE('',#190,#191,#144,.T.);
#225=EDGE_CURVE('',#191,#189,#145,.T.);
#226=EDGE_CURVE('',#189,#192,#49,.T.);
#227=EDGE_CURVE('',#193,#191,#146,.T.);
#228=EDGE_CURVE('',#192,#193,#147,.T.);
#229=EDGE_CURVE('',#194,#190,#148,.T.);
#230=EDGE_CURVE('',#194,#193,#149,.T.);
#231=EDGE_CURVE('',#192,#195,#150,.T.);
#232=EDGE_CURVE('',#195,#194,#151,.T.);
#233=EDGE_CURVE('',#196,#195,#50,.T.);
#234=EDGE_CURVE('',#196,#197,#152,.T.);
#235=EDGE_CURVE('',#197,#197,#51,.T.);
#236=EDGE_CURVE('',#188,#196,#52,.T.);
#237=EDGE_CURVE('',#198,#198,#53,.T.);
#238=EDGE_CURVE('',#198,#199,#153,.T.);
#239=EDGE_CURVE('',#199,#199,#54,.T.);
#240=EDGE_CURVE('',#200,#200,#55,.T.);
#241=EDGE_CURVE('',#200,#201,#154,.T.);
#242=EDGE_CURVE('',#201,#201,#56,.T.);
#243=EDGE_CURVE('',#202,#202,#57,.T.);
#244=EDGE_CURVE('',#202,#203,#155,.T.);
#245=EDGE_CURVE('',#203,#203,#58,.T.);
#246=EDGE_CURVE('',#204,#204,#59,.T.);
#247=EDGE_CURVE('',#204,#205,#156,.T.);
#248=EDGE_CURVE('',#205,#205,#60,.T.);
#249=EDGE_CURVE('',#206,#206,#61,.T.);
#250=EDGE_CURVE('',#206,#207,#157,.T.);
#251=EDGE_CURVE('',#207,#207,#62,.T.);
#252=EDGE_CURVE('',#208,#208,#63,.T.);
#253=EDGE_CURVE('',#208,#209,#158,.T.);
#254=EDGE_CURVE('',#209,#209,#64,.T.);
#255=EDGE_CURVE('',#210,#210,#65,.T.);
#256=EDGE_CURVE('',#210,#211,#159,.T.);
#257=EDGE_CURVE('',#211,#211,#66,.T.);
#258=EDGE_CURVE('',#212,#212,#67,.T.);
#259=EDGE_CURVE('',#212,#213,#160,.T.);
#260=EDGE_CURVE('',#213,#213,#68,.T.);
#261=EDGE_CURVE('',#214,#214,#69,.T.);
#262=EDGE_CURVE('',#215,#215,#70,.T.);
#263=EDGE_CURVE('',#216,#216,#71,.T.);
#264=EDGE_CURVE('',#216,#214,#161,.T.);
#265=EDGE_CURVE('',#217,#217,#72,.T.);
#266=EDGE_CURVE('',#218,#218,#73,.T.);
#267=EDGE_CURVE('',#219,#219,#74,.T.);
#268=EDGE_CURVE('',#220,#220,#75,.T.);
#269=EDGE_CURVE('',#219,#217,#162,.T.);
#270=EDGE_CURVE('',#215,#220,#163,.T.);
#271=EDGE_CURVE('',#218,#221,#164,.T.);
#272=EDGE_CURVE('',#221,#221,#76,.T.);
#273=ORIENTED_EDGE('',*,*,#222,.F.);
#274=ORIENTED_EDGE('',*,*,#223,.F.);
#275=ORIENTED_EDGE('',*,*,#224,.T.);
#276=ORIENTED_EDGE('',*,*,#225,.T.);
#277=ORIENTED_EDGE('',*,*,#226,.F.);
#278=ORIENTED_EDGE('',*,*,#225,.F.);
#279=ORIENTED_EDGE('',*,*,#227,.F.);
#280=ORIENTED_EDGE('',*,*,#228,.F.);
#281=ORIENTED_EDGE('',*,*,#229,.F.);
#282=ORIENTED_EDGE('',*,*,#230,.T.);
#283=ORIENTED_EDGE('',*,*,#227,.T.);
#284=ORIENTED_EDGE('',*,*,#224,.F.);
#285=ORIENTED_EDGE('',*,*,#231,.F.);
#286=ORIENTED_EDGE('',*,*,#228,.T.);
#287=ORIENTED_EDGE('',*,*,#230,.F.);
#288=ORIENTED_EDGE('',*,*,#232,.F.);
#289=ORIENTED_EDGE('',*,*,#222,.T.);
#290=ORIENTED_EDGE('',*,*,#226,.T.);
#291=ORIENTED_EDGE('',*,*,#231,.T.);
#292=ORIENTED_EDGE('',*,*,#233,.F.);
#293=ORIENTED_EDGE('',*,*,#234,.T.);
#294=ORIENTED_EDGE('',*,*,#235,.F.);
#295=ORIENTED_EDGE('',*,*,#234,.F.);
#296=ORIENTED_EDGE('',*,*,#236,.F.);
#297=ORIENTED_EDGE('',*,*,#237,.F.);
#298=ORIENTED_EDGE('',*,*,#238,.T.);
#299=ORIENTED_EDGE('',*,*,#239,.F.);
#300=ORIENTED_EDGE('',*,*,#238,.F.);
#301=ORIENTED_EDGE('',*,*,#240,.F.);
#302=ORIENTED_EDGE('',*,*,#241,.T.);
#303=ORIENTED_EDGE('',*,*,#242,.F.);
#304=ORIENTED_EDGE('',*,*,#241,.F.);
#305=ORIENTED_EDGE('',*,*,#243,.F.);
#306=ORIENTED_EDGE('',*,*,#244,.T.);
#307=ORIENTED_EDGE('',*,*,#245,.F.);
#308=ORIENTED_EDGE('',*,*,#244,.F.);
#309=ORIENTED_EDGE('',*,*,#246,.F.);
#310=ORIENTED_EDGE('',*,*,#247,.T.);
#311=ORIENTED_EDGE('',*,*,#248,.F.);
#312=ORIENTED_EDGE('',*,*,#247,.F.);
#313=ORIENTED_EDGE('',*,*,#249,.F.);
#314=ORIENTED_EDGE('',*,*,#250,.T.);
#315=ORIENTED_EDGE('',*,*,#251,.F.);
#316=ORIENTED_EDGE('',*,*,#250,.F.);
#317=ORIENTED_EDGE('',*,*,#252,.F.);
#318=ORIENTED_EDGE('',*,*,#253,.T.);
#319=ORIENTED_EDGE('',*,*,#254,.F.);
#320=ORIENTED_EDGE('',*,*,#253,.F.);
#321=ORIENTED_EDGE('',*,*,#255,.F.);
#322=ORIENTED_EDGE('',*,*,#256,.T.);
#323=ORIENTED_EDGE('',*,*,#257,.F.);
#324=ORIENTED_EDGE('',*,*,#256,.F.);
#325=ORIENTED_EDGE('',*,*,#258,.F.);
#326=ORIENTED_EDGE('',*,*,#259,.T.);
#327=ORIENTED_EDGE('',*,*,#260,.F.);
#328=ORIENTED_EDGE('',*,*,#259,.F.);
#329=ORIENTED_EDGE('',*,*,#261,.T.);
#330=ORIENTED_EDGE('',*,*,#237,.T.);
#331=ORIENTED_EDGE('',*,*,#240,.T.);
#332=ORIENTED_EDGE('',*,*,#243,.T.);
#333=ORIENTED_EDGE('',*,*,#246,.T.);
#334=ORIENTED_EDGE('',*,*,#262,.F.);
#335=ORIENTED_EDGE('',*,*,#263,.F.);
#336=ORIENTED_EDGE('',*,*,#264,.T.);
#337=ORIENTED_EDGE('',*,*,#261,.F.);
#338=ORIENTED_EDGE('',*,*,#264,.F.);
#339=ORIENTED_EDGE('',*,*,#265,.T.);
#340=ORIENTED_EDGE('',*,*,#249,.T.);
#341=ORIENTED_EDGE('',*,*,#252,.T.);
#342=ORIENTED_EDGE('',*,*,#255,.T.);
#343=ORIENTED_EDGE('',*,*,#258,.T.);
#344=ORIENTED_EDGE('',*,*,#266,.F.);
#345=ORIENTED_EDGE('',*,*,#267,.T.);
#346=ORIENTED_EDGE('',*,*,#251,.T.);
#347=ORIENTED_EDGE('',*,*,#254,.T.);
#348=ORIENTED_EDGE('',*,*,#257,.T.);
#349=ORIENTED_EDGE('',*,*,#260,.T.);
#350=ORIENTED_EDGE('',*,*,#268,.F.);
#351=ORIENTED_EDGE('',*,*,#267,.F.);
#352=ORIENTED_EDGE('',*,*,#269,.T.);
#353=ORIENTED_EDGE('',*,*,#265,.F.);
#354=ORIENTED_EDGE('',*,*,#269,.F.);
#355=ORIENTED_EDGE('',*,*,#262,.T.);
#356=ORIENTED_EDGE('',*,*,#270,.T.);
#357=ORIENTED_EDGE('',*,*,#268,.T.);
#358=ORIENTED_EDGE('',*,*,#270,.F.);
#359=ORIENTED_EDGE('',*,*,#266,.T.);
#360=ORIENTED_EDGE('',*,*,#271,.T.);
#361=ORIENTED_EDGE('',*,*,#272,.F.);
#362=ORIENTED_EDGE('',*,*,#271,.F.);
#363=ORIENTED_EDGE('',*,*,#272,.T.);
#364=ORIENTED_EDGE('',*,*,#223,.T.);
#365=ORIENTED_EDGE('',*,*,#236,.T.);
#366=ORIENTED_EDGE('',*,*,#233,.T.);
#367=ORIENTED_EDGE('',*,*,#232,.T.);
#368=ORIENTED_EDGE('',*,*,#229,.T.);
#369=ORIENTED_EDGE('',*,*,#263,.T.);
#370=ORIENTED_EDGE('',*,*,#239,.T.);
#371=ORIENTED_EDGE('',*,*,#242,.T.);
#372=ORIENTED_EDGE('',*,*,#245,.T.);
#373=ORIENTED_EDGE('',*,*,#248,.T.);
#374=ORIENTED_EDGE('',*,*,#235,.T.);
#375=PLANE('',#429);
#376=PLANE('',#430);
#377=PLANE('',#432);
#378=PLANE('',#433);
#379=PLANE('',#462);
#380=PLANE('',#467);
#381=PLANE('',#470);
#382=PLANE('',#477);
#383=PLANE('',#478);
#384=ADVANCED_FACE('',(#77),#375,.F.);
#385=ADVANCED_FACE('',(#78),#376,.F.);
#386=ADVANCED_FACE('',(#79),#377,.F.);
#387=ADVANCED_FACE('',(#80),#378,.F.);
#388=ADVANCED_FACE('',(#81),#36,.F.);
#389=ADVANCED_FACE('',(#82),#37,.F.);
#390=ADVANCED_FACE('',(#83),#38,.F.);
#391=ADVANCED_FACE('',(#84),#39,.F.);
#392=ADVANCED_FACE('',(#85),#40,.F.);
#393=ADVANCED_FACE('',(#86),#41,.F.);
#394=ADVANCED_FACE('',(#87),#42,.F.);
#395=ADVANCED_FACE('',(#88),#43,.F.);
#396=ADVANCED_FACE('',(#89),#44,.F.);
#397=ADVANCED_FACE('',(#90,#15,#16,#17,#18,#19),#379,.F.);
#398=ADVANCED_FACE('',(#91),#45,.T.);
#399=ADVANCED_FACE('',(#92,#20,#21,#22,#23,#24),#380,.F.);
#400=ADVANCED_FACE('',(#93,#25,#26,#27,#28,#29),#381,.T.);
#401=ADVANCED_FACE('',(#94),#46,.T.);
#402=ADVANCED_FACE('',(#95),#47,.T.);
#403=ADVANCED_FACE('',(#96),#48,.T.);
#404=ADVANCED_FACE('',(#97,#30),#382,.F.);
#405=ADVANCED_FACE('',(#98,#31,#32,#33,#34,#35),#383,.T.);
#406=CLOSED_SHELL('',(#384,#385,#386,#387,#388,#389,#390,#391,#392,#393,
#394,#395,#396,#397,#398,#399,#400,#401,#402,#403,#404,#405));
#407=DERIVED_UNIT_ELEMENT(#410,1.);
#408=DERIVED_UNIT_ELEMENT(#717,-3.);
#409=DIMENSIONAL_EXPONENTS(0.,1.,0.,0.,0.,0.,0.);
#410=(
CONVERSION_BASED_UNIT('gram',#412)
MASS_UNIT()
NAMED_UNIT(#409)
);
#411=(
MASS_UNIT()
NAMED_UNIT(*)
SI_UNIT(.KILO.,.GRAM.)
);
#412=MASS_MEASURE_WITH_UNIT(MASS_MEASURE(0.001),#411);
#413=DERIVED_UNIT((#407,#408));
#414=MEASURE_REPRESENTATION_ITEM('density measure',
POSITIVE_RATIO_MEASURE(2.7),#413);
#415=PROPERTY_DEFINITION_REPRESENTATION(#420,#417);
#416=PROPERTY_DEFINITION_REPRESENTATION(#421,#418);
#417=REPRESENTATION('material name',(#419),#714);
#418=REPRESENTATION('density',(#414),#714);
#419=DESCRIPTIVE_REPRESENTATION_ITEM('\X2\30A230EB30DF30CB30A630E0\X0\ 
6061','\X2\30A230EB30DF30CB30A630E0\X0\ 6061');
#420=PROPERTY_DEFINITION('material property','material name',#724);
#421=PROPERTY_DEFINITION('material property','density of part',#724);
#422=DATE_TIME_ROLE('creation_date');
#423=APPLIED_DATE_AND_TIME_ASSIGNMENT(#424,#422,(#724));
#424=DATE_AND_TIME(#425,#426);
#425=CALENDAR_DATE(2026,8,10);
#426=LOCAL_TIME(0,0,0.,#427);
#427=COORDINATED_UNIVERSAL_TIME_OFFSET(0,0,.BEHIND.);
#428=AXIS2_PLACEMENT_3D('',#604,#479,#480);
#429=AXIS2_PLACEMENT_3D('',#605,#481,#482);
#430=AXIS2_PLACEMENT_3D('',#614,#487,#488);
#431=AXIS2_PLACEMENT_3D('',#616,#489,#490);
#432=AXIS2_PLACEMENT_3D('',#620,#493,#494);
#433=AXIS2_PLACEMENT_3D('',#624,#497,#498);
#434=AXIS2_PLACEMENT_3D('',#628,#501,#502);
#435=AXIS2_PLACEMENT_3D('',#630,#503,#504);
#436=AXIS2_PLACEMENT_3D('',#633,#506,#507);
#437=AXIS2_PLACEMENT_3D('',#634,#508,#509);
#438=AXIS2_PLACEMENT_3D('',#635,#510,#511);
#439=AXIS2_PLACEMENT_3D('',#637,#512,#513);
#440=AXIS2_PLACEMENT_3D('',#640,#515,#516);
#441=AXIS2_PLACEMENT_3D('',#641,#517,#518);
#442=AXIS2_PLACEMENT_3D('',#643,#519,#520);
#443=AXIS2_PLACEMENT_3D('',#646,#522,#523);
#444=AXIS2_PLACEMENT_3D('',#647,#524,#525);
#445=AXIS2_PLACEMENT_3D('',#649,#526,#527);
#446=AXIS2_PLACEMENT_3D('',#652,#529,#530);
#447=AXIS2_PLACEMENT_3D('',#653,#531,#532);
#448=AXIS2_PLACEMENT_3D('',#655,#533,#534);
#449=AXIS2_PLACEMENT_3D('',#658,#536,#537);
#450=AXIS2_PLACEMENT_3D('',#659,#538,#539);
#451=AXIS2_PLACEMENT_3D('',#661,#540,#541);
#452=AXIS2_PLACEMENT_3D('',#664,#543,#544);
#453=AXIS2_PLACEMENT_3D('',#665,#545,#546);
#454=AXIS2_PLACEMENT_3D('',#667,#547,#548);
#455=AXIS2_PLACEMENT_3D('',#670,#550,#551);
#456=AXIS2_PLACEMENT_3D('',#671,#552,#553);
#457=AXIS2_PLACEMENT_3D('',#673,#554,#555);
#458=AXIS2_PLACEMENT_3D('',#676,#557,#558);
#459=AXIS2_PLACEMENT_3D('',#677,#559,#560);
#460=AXIS2_PLACEMENT_3D('',#679,#561,#562);
#461=AXIS2_PLACEMENT_3D('',#682,#564,#565);
#462=AXIS2_PLACEMENT_3D('',#683,#566,#567);
#463=AXIS2_PLACEMENT_3D('',#685,#568,#569);
#464=AXIS2_PLACEMENT_3D('',#687,#570,#571);
#465=AXIS2_PLACEMENT_3D('',#688,#572,#573);
#466=AXIS2_PLACEMENT_3D('',#690,#574,#575);
#467=AXIS2_PLACEMENT_3D('',#692,#577,#578);
#468=AXIS2_PLACEMENT_3D('',#694,#579,#580);
#469=AXIS2_PLACEMENT_3D('',#696,#581,#582);
#470=AXIS2_PLACEMENT_3D('',#697,#583,#584);
#471=AXIS2_PLACEMENT_3D('',#699,#585,#586);
#472=AXIS2_PLACEMENT_3D('',#701,#587,#588);
#473=AXIS2_PLACEMENT_3D('',#702,#589,#590);
#474=AXIS2_PLACEMENT_3D('',#704,#592,#593);
#475=AXIS2_PLACEMENT_3D('',#706,#595,#596);
#476=AXIS2_PLACEMENT_3D('',#709,#598,#599);
#477=AXIS2_PLACEMENT_3D('',#710,#600,#601);
#478=AXIS2_PLACEMENT_3D('',#711,#602,#603);
#479=DIRECTION('axis',(0.,0.,1.));
#480=DIRECTION('refdir',(1.,0.,0.));
#481=DIRECTION('center_axis',(-1.,0.,0.));
#482=DIRECTION('ref_axis',(0.,-1.,0.));
#483=DIRECTION('',(0.,0.,1.));
#484=DIRECTION('',(0.,-1.,0.));
#485=DIRECTION('',(0.,0.,1.));
#486=DIRECTION('',(0.,-1.,0.));
#487=DIRECTION('center_axis',(0.,0.,1.));
#488=DIRECTION('ref_axis',(1.,0.,0.));
#489=DIRECTION('center_axis',(0.,0.,-1.));
#490=DIRECTION('ref_axis',(-1.,0.,0.));
#491=DIRECTION('',(-1.,0.,0.));
#492=DIRECTION('',(0.,1.,0.));
#493=DIRECTION('center_axis',(0.,1.,0.));
#494=DIRECTION('ref_axis',(-1.,0.,0.));
#495=DIRECTION('',(-1.,0.,0.));
#496=DIRECTION('',(0.,0.,1.));
#497=DIRECTION('center_axis',(1.,0.,0.));
#498=DIRECTION('ref_axis',(0.,1.,0.));
#499=DIRECTION('',(0.,0.,-1.));
#500=DIRECTION('',(0.,1.,0.));
#501=DIRECTION('center_axis',(0.,0.,1.));
#502=DIRECTION('ref_axis',(-1.,0.,0.));
#503=DIRECTION('center_axis',(0.,0.,1.));
#504=DIRECTION('ref_axis',(-1.,0.,0.));
#505=DIRECTION('',(0.,0.,1.));
#506=DIRECTION('center_axis',(0.,0.,-1.));
#507=DIRECTION('ref_axis',(-1.,0.,0.));
#508=DIRECTION('center_axis',(0.,0.,1.));
#509=DIRECTION('ref_axis',(-1.,0.,0.));
#510=DIRECTION('center_axis',(0.,0.,1.));
#511=DIRECTION('ref_axis',(-1.,0.,0.));
#512=DIRECTION('center_axis',(0.,0.,1.));
#513=DIRECTION('ref_axis',(-1.,0.,0.));
#514=DIRECTION('',(0.,0.,1.));
#515=DIRECTION('center_axis',(0.,0.,-1.));
#516=DIRECTION('ref_axis',(-1.,0.,0.));
#517=DIRECTION('center_axis',(0.,0.,1.));
#518=DIRECTION('ref_axis',(-1.,0.,0.));
#519=DIRECTION('center_axis',(0.,0.,1.));
#520=DIRECTION('ref_axis',(-1.,0.,0.));
#521=DIRECTION('',(0.,0.,1.));
#522=DIRECTION('center_axis',(0.,0.,-1.));
#523=DIRECTION('ref_axis',(-1.,0.,0.));
#524=DIRECTION('center_axis',(0.,0.,1.));
#525=DIRECTION('ref_axis',(-1.,0.,0.));
#526=DIRECTION('center_axis',(0.,0.,1.));
#527=DIRECTION('ref_axis',(-1.,0.,0.));
#528=DIRECTION('',(0.,0.,1.));
#529=DIRECTION('center_axis',(0.,0.,-1.));
#530=DIRECTION('ref_axis',(-1.,0.,0.));
#531=DIRECTION('center_axis',(0.,0.,1.));
#532=DIRECTION('ref_axis',(-1.,0.,0.));
#533=DIRECTION('center_axis',(0.,0.,1.));
#534=DIRECTION('ref_axis',(-1.,0.,0.));
#535=DIRECTION('',(0.,0.,1.));
#536=DIRECTION('center_axis',(0.,0.,-1.));
#537=DIRECTION('ref_axis',(-1.,0.,0.));
#538=DIRECTION('center_axis',(0.,0.,1.));
#539=DIRECTION('ref_axis',(-1.,0.,0.));
#540=DIRECTION('center_axis',(0.,0.,1.));
#541=DIRECTION('ref_axis',(-1.,0.,0.));
#542=DIRECTION('',(0.,0.,1.));
#543=DIRECTION('center_axis',(0.,0.,-1.));
#544=DIRECTION('ref_axis',(-1.,0.,0.));
#545=DIRECTION('center_axis',(0.,0.,1.));
#546=DIRECTION('ref_axis',(-1.,0.,0.));
#547=DIRECTION('center_axis',(0.,0.,1.));
#548=DIRECTION('ref_axis',(-1.,0.,0.));
#549=DIRECTION('',(0.,0.,1.));
#550=DIRECTION('center_axis',(0.,0.,-1.));
#551=DIRECTION('ref_axis',(-1.,0.,0.));
#552=DIRECTION('center_axis',(0.,0.,1.));
#553=DIRECTION('ref_axis',(-1.,0.,0.));
#554=DIRECTION('center_axis',(0.,0.,1.));
#555=DIRECTION('ref_axis',(-1.,0.,0.));
#556=DIRECTION('',(0.,0.,1.));
#557=DIRECTION('center_axis',(0.,0.,-1.));
#558=DIRECTION('ref_axis',(-1.,0.,0.));
#559=DIRECTION('center_axis',(0.,0.,1.));
#560=DIRECTION('ref_axis',(-1.,0.,0.));
#561=DIRECTION('center_axis',(0.,0.,1.));
#562=DIRECTION('ref_axis',(-1.,0.,0.));
#563=DIRECTION('',(0.,0.,1.));
#564=DIRECTION('center_axis',(0.,0.,-1.));
#565=DIRECTION('ref_axis',(-1.,0.,0.));
#566=DIRECTION('center_axis',(0.,0.,1.));
#567=DIRECTION('ref_axis',(1.,0.,0.));
#568=DIRECTION('center_axis',(0.,0.,-1.));
#569=DIRECTION('ref_axis',(-1.,0.,0.));
#570=DIRECTION('center_axis',(0.,0.,-1.));
#571=DIRECTION('ref_axis',(-1.,0.,0.));
#572=DIRECTION('center_axis',(0.,0.,1.));
#573=DIRECTION('ref_axis',(-1.,0.,0.));
#574=DIRECTION('center_axis',(0.,0.,1.));
#575=DIRECTION('ref_axis',(-1.,0.,0.));
#576=DIRECTION('',(0.,0.,-1.));
#577=DIRECTION('center_axis',(0.,0.,1.));
#578=DIRECTION('ref_axis',(1.,0.,0.));
#579=DIRECTION('center_axis',(0.,0.,-1.));
#580=DIRECTION('ref_axis',(-1.,0.,0.));
#581=DIRECTION('center_axis',(0.,0.,-1.));
#582=DIRECTION('ref_axis',(-1.,0.,0.));
#583=DIRECTION('center_axis',(0.,0.,1.));
#584=DIRECTION('ref_axis',(1.,0.,0.));
#585=DIRECTION('center_axis',(0.,0.,1.));
#586=DIRECTION('ref_axis',(-1.,0.,0.));
#587=DIRECTION('center_axis',(0.,0.,1.));
#588=DIRECTION('ref_axis',(-1.,0.,0.));
#589=DIRECTION('center_axis',(0.,0.,1.));
#590=DIRECTION('ref_axis',(-1.,0.,0.));
#591=DIRECTION('',(0.,0.,-1.));
#592=DIRECTION('center_axis',(0.,0.,1.));
#593=DIRECTION('ref_axis',(-1.,0.,0.));
#594=DIRECTION('',(0.,0.,-1.));
#595=DIRECTION('center_axis',(0.,0.,1.));
#596=DIRECTION('ref_axis',(-1.,0.,0.));
#597=DIRECTION('',(0.,0.,-1.));
#598=DIRECTION('center_axis',(0.,0.,-1.));
#599=DIRECTION('ref_axis',(-1.,0.,0.));
#600=DIRECTION('center_axis',(0.,0.,1.));
#601=DIRECTION('ref_axis',(1.,0.,0.));
#602=DIRECTION('center_axis',(0.,0.,1.));
#603=DIRECTION('ref_axis',(1.,0.,0.));
#604=CARTESIAN_POINT('',(0.,0.,0.));
#605=CARTESIAN_POINT('Origin',(-1.5,7.,36.5));
#606=CARTESIAN_POINT('',(-1.5,4.76969600708473,36.5));
#607=CARTESIAN_POINT('',(-1.5,4.76969600708473,49.5));
#608=CARTESIAN_POINT('',(-1.5,4.76969600708473,36.5));
#609=CARTESIAN_POINT('',(-1.5,7.,36.5));
#610=CARTESIAN_POINT('',(-1.5,3.5,36.5));
#611=CARTESIAN_POINT('',(-1.5,7.,49.5));
#612=CARTESIAN_POINT('',(-1.5,7.,36.5));
#613=CARTESIAN_POINT('',(-1.5,7.,49.5));
#614=CARTESIAN_POINT('Origin',(0.,5.5,49.5));
#615=CARTESIAN_POINT('',(1.5,4.76969600708473,49.5));
#616=CARTESIAN_POINT('Origin',(0.,0.,49.5));
#617=CARTESIAN_POINT('',(1.5,7.,49.5));
#618=CARTESIAN_POINT('',(1.5,7.,49.5));
#619=CARTESIAN_POINT('',(1.5,4.,49.5));
#620=CARTESIAN_POINT('Origin',(1.5,7.,36.5));
#621=CARTESIAN_POINT('',(1.5,7.,36.5));
#622=CARTESIAN_POINT('',(0.75,7.,36.5));
#623=CARTESIAN_POINT('',(1.5,7.,36.5));
#624=CARTESIAN_POINT('Origin',(1.5,4.,36.5));
#625=CARTESIAN_POINT('',(1.5,4.76969600708473,36.5));
#626=CARTESIAN_POINT('',(1.5,4.76969600708473,36.5));
#627=CARTESIAN_POINT('',(1.5,2.,36.5));
#628=CARTESIAN_POINT('Origin',(0.,0.,36.5));
#629=CARTESIAN_POINT('',(5.,6.12323399573677E-16,36.5));
#630=CARTESIAN_POINT('Origin',(0.,0.,36.5));
#631=CARTESIAN_POINT('',(5.,6.12323399573677E-16,50.5));
#632=CARTESIAN_POINT('',(5.,6.12323399573677E-16,36.5));
#633=CARTESIAN_POINT('Origin',(0.,0.,50.5));
#634=CARTESIAN_POINT('Origin',(0.,0.,36.5));
#635=CARTESIAN_POINT('Origin',(-2.57175827820944E-15,-14.,47.5));
#636=CARTESIAN_POINT('',(1.25,-14.,47.5));
#637=CARTESIAN_POINT('Origin',(-2.57175827820944E-15,-14.,47.5));
#638=CARTESIAN_POINT('',(1.25,-14.,50.5));
#639=CARTESIAN_POINT('',(1.25,-14.,47.5));
#640=CARTESIAN_POINT('Origin',(-2.57175827820944E-15,-14.,50.5));
#641=CARTESIAN_POINT('Origin',(-14.,1.71450551880629E-15,47.5));
#642=CARTESIAN_POINT('',(-12.75,1.86758636869971E-15,47.5));
#643=CARTESIAN_POINT('Origin',(-14.,1.71450551880629E-15,47.5));
#644=CARTESIAN_POINT('',(-12.75,1.86758636869971E-15,50.5));
#645=CARTESIAN_POINT('',(-12.75,1.86758636869971E-15,47.5));
#646=CARTESIAN_POINT('Origin',(-14.,1.71450551880629E-15,50.5));
#647=CARTESIAN_POINT('Origin',(8.57252759403147E-16,14.,47.5));
#648=CARTESIAN_POINT('',(1.25,14.,47.5));
#649=CARTESIAN_POINT('Origin',(8.57252759403147E-16,14.,47.5));
#650=CARTESIAN_POINT('',(1.25,14.,50.5));
#651=CARTESIAN_POINT('',(1.25,14.,47.5));
#652=CARTESIAN_POINT('Origin',(8.57252759403147E-16,14.,50.5));
#653=CARTESIAN_POINT('Origin',(14.,0.,47.5));
#654=CARTESIAN_POINT('',(15.25,1.53080849893419E-16,47.5));
#655=CARTESIAN_POINT('Origin',(14.,0.,47.5));
#656=CARTESIAN_POINT('',(15.25,1.53080849893419E-16,50.5));
#657=CARTESIAN_POINT('',(15.25,1.53080849893419E-16,47.5));
#658=CARTESIAN_POINT('Origin',(14.,0.,50.5));
#659=CARTESIAN_POINT('Origin',(-2.93915231795365E-15,-16.,39.));
#660=CARTESIAN_POINT('',(1.25,-16.,39.));
#661=CARTESIAN_POINT('Origin',(-2.93915231795365E-15,-16.,39.));
#662=CARTESIAN_POINT('',(1.25,-16.,41.));
#663=CARTESIAN_POINT('',(1.25,-16.,39.));
#664=CARTESIAN_POINT('Origin',(-2.93915231795365E-15,-16.,41.));
#665=CARTESIAN_POINT('Origin',(-16.,1.95943487863577E-15,39.));
#666=CARTESIAN_POINT('',(-14.75,2.11251572852918E-15,39.));
#667=CARTESIAN_POINT('Origin',(-16.,1.95943487863577E-15,39.));
#668=CARTESIAN_POINT('',(-14.75,2.11251572852918E-15,41.));
#669=CARTESIAN_POINT('',(-14.75,2.11251572852918E-15,39.));
#670=CARTESIAN_POINT('Origin',(-16.,1.95943487863577E-15,41.));
#671=CARTESIAN_POINT('Origin',(9.79717439317883E-16,16.,39.));
#672=CARTESIAN_POINT('',(1.25,16.,39.));
#673=CARTESIAN_POINT('Origin',(9.79717439317883E-16,16.,39.));
#674=CARTESIAN_POINT('',(1.25,16.,41.));
#675=CARTESIAN_POINT('',(1.25,16.,39.));
#676=CARTESIAN_POINT('Origin',(9.79717439317883E-16,16.,41.));
#677=CARTESIAN_POINT('Origin',(16.,0.,39.));
#678=CARTESIAN_POINT('',(17.25,1.53080849893419E-16,39.));
#679=CARTESIAN_POINT('Origin',(16.,0.,39.));
#680=CARTESIAN_POINT('',(17.25,1.53080849893419E-16,41.));
#681=CARTESIAN_POINT('',(17.25,1.53080849893419E-16,39.));
#682=CARTESIAN_POINT('Origin',(16.,0.,41.));
#683=CARTESIAN_POINT('Origin',(-1.00608444552037E-15,0.,47.5));
#684=CARTESIAN_POINT('',(18.,2.20436423846524E-15,47.5));
#685=CARTESIAN_POINT('Origin',(0.,0.,47.5));
#686=CARTESIAN_POINT('',(9.,-1.10218211923262E-15,47.5));
#687=CARTESIAN_POINT('Origin',(0.,0.,47.5));
#688=CARTESIAN_POINT('Origin',(0.,0.,47.5));
#689=CARTESIAN_POINT('',(18.,2.20436423846524E-15,50.5));
#690=CARTESIAN_POINT('Origin',(0.,0.,50.5));
#691=CARTESIAN_POINT('',(18.,2.20436423846524E-15,47.5));
#692=CARTESIAN_POINT('Origin',(-1.00608444552037E-15,0.,39.));
#693=CARTESIAN_POINT('',(18.,2.20436423846524E-15,39.));
#694=CARTESIAN_POINT('Origin',(0.,0.,39.));
#695=CARTESIAN_POINT('',(9.,-1.10218211923262E-15,39.));
#696=CARTESIAN_POINT('Origin',(0.,0.,39.));
#697=CARTESIAN_POINT('Origin',(-1.00608444552037E-15,0.,41.));
#698=CARTESIAN_POINT('',(18.,2.20436423846524E-15,41.));
#699=CARTESIAN_POINT('Origin',(0.,0.,41.));
#700=CARTESIAN_POINT('',(9.,1.10218211923262E-15,41.));
#701=CARTESIAN_POINT('Origin',(0.,0.,41.));
#702=CARTESIAN_POINT('Origin',(0.,0.,39.));
#703=CARTESIAN_POINT('',(18.,2.20436423846524E-15,39.));
#704=CARTESIAN_POINT('Origin',(0.,0.,36.5));
#705=CARTESIAN_POINT('',(9.,1.10218211923262E-15,36.5));
#706=CARTESIAN_POINT('Origin',(0.,0.,36.5));
#707=CARTESIAN_POINT('',(9.,1.10218211923262E-15,36.5));
#708=CARTESIAN_POINT('',(9.,1.10218211923262E-15,36.5));
#709=CARTESIAN_POINT('Origin',(0.,0.,36.5));
#710=CARTESIAN_POINT('Origin',(-5.03042222760184E-16,0.,36.5));
#711=CARTESIAN_POINT('Origin',(-5.03042222760184E-16,0.,50.5));
#712=UNCERTAINTY_MEASURE_WITH_UNIT(LENGTH_MEASURE(0.01),#716,
'DISTANCE_ACCURACY_VALUE',
'Maximum model space distance between geometric entities at asserted c
onnectivities');
#713=UNCERTAINTY_MEASURE_WITH_UNIT(LENGTH_MEASURE(0.01),#716,
'DISTANCE_ACCURACY_VALUE',
'Maximum model space distance between geometric entities at asserted c
onnectivities');
#714=(
GEOMETRIC_REPRESENTATION_CONTEXT(3)
GLOBAL_UNCERTAINTY_ASSIGNED_CONTEXT((#712))
GLOBAL_UNIT_ASSIGNED_CONTEXT((#716,#718,#719))
REPRESENTATION_CONTEXT('','3D')
);
#715=(
GEOMETRIC_REPRESENTATION_CONTEXT(3)
GLOBAL_UNCERTAINTY_ASSIGNED_CONTEXT((#713))
GLOBAL_UNIT_ASSIGNED_CONTEXT((#716,#718,#719))
REPRESENTATION_CONTEXT('','3D')
);
#716=(
LENGTH_UNIT()
NAMED_UNIT(*)
SI_UNIT(.MILLI.,.METRE.)
);
#717=(
LENGTH_UNIT()
NAMED_UNIT(*)
SI_UNIT(.CENTI.,.METRE.)
);
#718=(
NAMED_UNIT(*)
PLANE_ANGLE_UNIT()
SI_UNIT($,.RADIAN.)
);
#719=(
NAMED_UNIT(*)
SI_UNIT($,.STERADIAN.)
SOLID_ANGLE_UNIT()
);
#720=SHAPE_DEFINITION_REPRESENTATION(#721,#722);
#721=PRODUCT_DEFINITION_SHAPE('',$,#724);
#722=SHAPE_REPRESENTATION('',(#428),#714);
#723=PRODUCT_DEFINITION_CONTEXT('part definition',#728,'design');
#724=PRODUCT_DEFINITION('02_Wheel_Hub','02_Wheel_Hub',#725,#723);
#725=PRODUCT_DEFINITION_FORMATION('',$,#730);
#726=PRODUCT_RELATED_PRODUCT_CATEGORY('02_Wheel_Hub','02_Wheel_Hub',(#730));
#727=APPLICATION_PROTOCOL_DEFINITION('international standard',
'automotive_design',2009,#728);
#728=APPLICATION_CONTEXT(
'Core Data for Automotive Mechanical Design Process');
#729=PRODUCT_CONTEXT('part definition',#728,'mechanical');
#730=PRODUCT('02_Wheel_Hub','02_Wheel_Hub',$,(#729));
#731=PRESENTATION_STYLE_ASSIGNMENT((#732));
#732=SURFACE_STYLE_USAGE(.BOTH.,#735);
#733=SURFACE_STYLE_RENDERING_WITH_PROPERTIES($,#739,(#734));
#734=SURFACE_STYLE_TRANSPARENT(0.);
#735=SURFACE_SIDE_STYLE('',(#736,#733));
#736=SURFACE_STYLE_FILL_AREA(#737);
#737=FILL_AREA_STYLE('',(#738));
#738=FILL_AREA_STYLE_COLOUR('',#739);
#739=COLOUR_RGB('',0.996078431372549,0.996078431372549,1.);
ENDSEC;
END-ISO-10303-21;
