ISO-10303-21;
HEADER;
/* Generated by software containing ST-Developer
 * from STEP Tools, Inc. (www.steptools.com) 
 */

FILE_DESCRIPTION(
/* description */ (''),
/* implementation_level */ '2;1');

FILE_NAME(
/* name */ '05_Bearing_Housing.step',
/* time_stamp */ '2026-10-08T19:41:06+09:00',
/* author */ ('Reaction Wheel Pendulum project'),
/* organization */ (''),
/* preprocessor_version */ 'ST-DEVELOPER v20.1',
/* originating_system */ 'Autodesk Inventor 2026',
/* authorisation */ '');

FILE_SCHEMA (('AUTOMOTIVE_DESIGN { 1 0 10303 214 3 1 1 }'));
ENDSEC;

DATA;
#10=MECHANICAL_DESIGN_GEOMETRIC_PRESENTATION_REPRESENTATION('',(#13),#477);
#11=SHAPE_REPRESENTATION_RELATIONSHIP('SRR','None',#484,#12);
#12=ADVANCED_BREP_SHAPE_REPRESENTATION('',(#14),#476);
#13=STYLED_ITEM('',(#493),#14);
#14=MANIFOLD_SOLID_BREP('\X2\30BD30EA30C330C9\X0\1',#272);
#15=FACE_BOUND('',#56,.T.);
#16=FACE_BOUND('',#59,.T.);
#17=FACE_BOUND('',#66,.T.);
#18=FACE_BOUND('',#67,.T.);
#19=FACE_BOUND('',#68,.T.);
#20=FACE_BOUND('',#69,.T.);
#21=FACE_BOUND('',#70,.T.);
#22=FACE_BOUND('',#72,.T.);
#23=FACE_BOUND('',#73,.T.);
#24=FACE_BOUND('',#74,.T.);
#25=FACE_BOUND('',#75,.T.);
#26=FACE_BOUND('',#76,.T.);
#27=PLANE('',#310);
#28=PLANE('',#315);
#29=PLANE('',#318);
#30=PLANE('',#319);
#31=PLANE('',#320);
#32=PLANE('',#321);
#33=PLANE('',#322);
#34=PLANE('',#323);
#35=FACE_OUTER_BOUND('',#50,.T.);
#36=FACE_OUTER_BOUND('',#51,.T.);
#37=FACE_OUTER_BOUND('',#52,.T.);
#38=FACE_OUTER_BOUND('',#53,.T.);
#39=FACE_OUTER_BOUND('',#54,.T.);
#40=FACE_OUTER_BOUND('',#55,.T.);
#41=FACE_OUTER_BOUND('',#57,.T.);
#42=FACE_OUTER_BOUND('',#58,.T.);
#43=FACE_OUTER_BOUND('',#60,.T.);
#44=FACE_OUTER_BOUND('',#61,.T.);
#45=FACE_OUTER_BOUND('',#62,.T.);
#46=FACE_OUTER_BOUND('',#63,.T.);
#47=FACE_OUTER_BOUND('',#64,.T.);
#48=FACE_OUTER_BOUND('',#65,.T.);
#49=FACE_OUTER_BOUND('',#71,.T.);
#50=EDGE_LOOP('',(#184,#185,#186,#187));
#51=EDGE_LOOP('',(#188,#189,#190,#191));
#52=EDGE_LOOP('',(#192,#193,#194,#195));
#53=EDGE_LOOP('',(#196,#197,#198,#199));
#54=EDGE_LOOP('',(#200,#201,#202,#203));
#55=EDGE_LOOP('',(#204));
#56=EDGE_LOOP('',(#205));
#57=EDGE_LOOP('',(#206,#207,#208,#209));
#58=EDGE_LOOP('',(#210));
#59=EDGE_LOOP('',(#211));
#60=EDGE_LOOP('',(#212,#213,#214,#215));
#61=EDGE_LOOP('',(#216,#217,#218,#219));
#62=EDGE_LOOP('',(#220,#221,#222,#223));
#63=EDGE_LOOP('',(#224,#225,#226,#227));
#64=EDGE_LOOP('',(#228,#229,#230,#231));
#65=EDGE_LOOP('',(#232,#233,#234,#235));
#66=EDGE_LOOP('',(#236));
#67=EDGE_LOOP('',(#237));
#68=EDGE_LOOP('',(#238));
#69=EDGE_LOOP('',(#239));
#70=EDGE_LOOP('',(#240));
#71=EDGE_LOOP('',(#241,#242,#243,#244));
#72=EDGE_LOOP('',(#245));
#73=EDGE_LOOP('',(#246));
#74=EDGE_LOOP('',(#247));
#75=EDGE_LOOP('',(#248));
#76=EDGE_LOOP('',(#249));
#77=LINE('',#408,#96);
#78=LINE('',#414,#97);
#79=LINE('',#420,#98);
#80=LINE('',#426,#99);
#81=LINE('',#432,#100);
#82=LINE('',#441,#101);
#83=LINE('',#447,#102);
#84=LINE('',#451,#103);
#85=LINE('',#453,#104);
#86=LINE('',#455,#105);
#87=LINE('',#456,#106);
#88=LINE('',#459,#107);
#89=LINE('',#461,#108);
#90=LINE('',#462,#109);
#91=LINE('',#465,#110);
#92=LINE('',#467,#111);
#93=LINE('',#468,#112);
#94=LINE('',#470,#113);
#95=LINE('',#471,#114);
#96=VECTOR('',#330,1.6);
#97=VECTOR('',#337,1.6);
#98=VECTOR('',#344,1.6);
#99=VECTOR('',#351,1.6);
#100=VECTOR('',#358,13.);
#101=VECTOR('',#369,13.);
#102=VECTOR('',#378,11.);
#103=VECTOR('',#381,10.);
#104=VECTOR('',#382,10.);
#105=VECTOR('',#383,10.);
#106=VECTOR('',#384,10.);
#107=VECTOR('',#387,10.);
#108=VECTOR('',#388,10.);
#109=VECTOR('',#389,10.);
#110=VECTOR('',#392,10.);
#111=VECTOR('',#393,10.);
#112=VECTOR('',#394,10.);
#113=VECTOR('',#397,10.);
#114=VECTOR('',#398,10.);
#115=CIRCLE('',#296,1.6);
#116=CIRCLE('',#297,1.6);
#117=CIRCLE('',#299,1.6);
#118=CIRCLE('',#300,1.6);
#119=CIRCLE('',#302,1.6);
#120=CIRCLE('',#303,1.6);
#121=CIRCLE('',#305,1.6);
#122=CIRCLE('',#306,1.6);
#123=CIRCLE('',#308,13.);
#124=CIRCLE('',#309,13.);
#125=CIRCLE('',#311,11.);
#126=CIRCLE('',#313,13.);
#127=CIRCLE('',#314,13.);
#128=CIRCLE('',#316,11.);
#129=VERTEX_POINT('',#405);
#130=VERTEX_POINT('',#407);
#131=VERTEX_POINT('',#411);
#132=VERTEX_POINT('',#413);
#133=VERTEX_POINT('',#417);
#134=VERTEX_POINT('',#419);
#135=VERTEX_POINT('',#423);
#136=VERTEX_POINT('',#425);
#137=VERTEX_POINT('',#429);
#138=VERTEX_POINT('',#431);
#139=VERTEX_POINT('',#435);
#140=VERTEX_POINT('',#438);
#141=VERTEX_POINT('',#440);
#142=VERTEX_POINT('',#444);
#143=VERTEX_POINT('',#449);
#144=VERTEX_POINT('',#450);
#145=VERTEX_POINT('',#452);
#146=VERTEX_POINT('',#454);
#147=VERTEX_POINT('',#458);
#148=VERTEX_POINT('',#460);
#149=VERTEX_POINT('',#464);
#150=VERTEX_POINT('',#466);
#151=EDGE_CURVE('',#129,#129,#115,.T.);
#152=EDGE_CURVE('',#129,#130,#77,.T.);
#153=EDGE_CURVE('',#130,#130,#116,.T.);
#154=EDGE_CURVE('',#131,#131,#117,.T.);
#155=EDGE_CURVE('',#131,#132,#78,.T.);
#156=EDGE_CURVE('',#132,#132,#118,.T.);
#157=EDGE_CURVE('',#133,#133,#119,.T.);
#158=EDGE_CURVE('',#133,#134,#79,.T.);
#159=EDGE_CURVE('',#134,#134,#120,.T.);
#160=EDGE_CURVE('',#135,#135,#121,.T.);
#161=EDGE_CURVE('',#135,#136,#80,.T.);
#162=EDGE_CURVE('',#136,#136,#122,.T.);
#163=EDGE_CURVE('',#137,#137,#123,.T.);
#164=EDGE_CURVE('',#137,#138,#81,.T.);
#165=EDGE_CURVE('',#138,#138,#124,.T.);
#166=EDGE_CURVE('',#139,#139,#125,.T.);
#167=EDGE_CURVE('',#140,#140,#126,.T.);
#168=EDGE_CURVE('',#140,#141,#82,.T.);
#169=EDGE_CURVE('',#141,#141,#127,.T.);
#170=EDGE_CURVE('',#142,#142,#128,.T.);
#171=EDGE_CURVE('',#142,#139,#83,.T.);
#172=EDGE_CURVE('',#143,#144,#84,.T.);
#173=EDGE_CURVE('',#144,#145,#85,.T.);
#174=EDGE_CURVE('',#146,#145,#86,.T.);
#175=EDGE_CURVE('',#143,#146,#87,.T.);
#176=EDGE_CURVE('',#147,#143,#88,.T.);
#177=EDGE_CURVE('',#148,#146,#89,.T.);
#178=EDGE_CURVE('',#147,#148,#90,.T.);
#179=EDGE_CURVE('',#149,#147,#91,.T.);
#180=EDGE_CURVE('',#150,#148,#92,.T.);
#181=EDGE_CURVE('',#149,#150,#93,.T.);
#182=EDGE_CURVE('',#144,#149,#94,.T.);
#183=EDGE_CURVE('',#145,#150,#95,.T.);
#184=ORIENTED_EDGE('',*,*,#151,.F.);
#185=ORIENTED_EDGE('',*,*,#152,.T.);
#186=ORIENTED_EDGE('',*,*,#153,.F.);
#187=ORIENTED_EDGE('',*,*,#152,.F.);
#188=ORIENTED_EDGE('',*,*,#154,.F.);
#189=ORIENTED_EDGE('',*,*,#155,.T.);
#190=ORIENTED_EDGE('',*,*,#156,.F.);
#191=ORIENTED_EDGE('',*,*,#155,.F.);
#192=ORIENTED_EDGE('',*,*,#157,.F.);
#193=ORIENTED_EDGE('',*,*,#158,.T.);
#194=ORIENTED_EDGE('',*,*,#159,.F.);
#195=ORIENTED_EDGE('',*,*,#158,.F.);
#196=ORIENTED_EDGE('',*,*,#160,.F.);
#197=ORIENTED_EDGE('',*,*,#161,.T.);
#198=ORIENTED_EDGE('',*,*,#162,.F.);
#199=ORIENTED_EDGE('',*,*,#161,.F.);
#200=ORIENTED_EDGE('',*,*,#163,.T.);
#201=ORIENTED_EDGE('',*,*,#164,.T.);
#202=ORIENTED_EDGE('',*,*,#165,.F.);
#203=ORIENTED_EDGE('',*,*,#164,.F.);
#204=ORIENTED_EDGE('',*,*,#163,.F.);
#205=ORIENTED_EDGE('',*,*,#166,.F.);
#206=ORIENTED_EDGE('',*,*,#167,.F.);
#207=ORIENTED_EDGE('',*,*,#168,.T.);
#208=ORIENTED_EDGE('',*,*,#169,.T.);
#209=ORIENTED_EDGE('',*,*,#168,.F.);
#210=ORIENTED_EDGE('',*,*,#169,.F.);
#211=ORIENTED_EDGE('',*,*,#170,.F.);
#212=ORIENTED_EDGE('',*,*,#170,.T.);
#213=ORIENTED_EDGE('',*,*,#171,.T.);
#214=ORIENTED_EDGE('',*,*,#166,.T.);
#215=ORIENTED_EDGE('',*,*,#171,.F.);
#216=ORIENTED_EDGE('',*,*,#172,.T.);
#217=ORIENTED_EDGE('',*,*,#173,.T.);
#218=ORIENTED_EDGE('',*,*,#174,.F.);
#219=ORIENTED_EDGE('',*,*,#175,.F.);
#220=ORIENTED_EDGE('',*,*,#176,.T.);
#221=ORIENTED_EDGE('',*,*,#175,.T.);
#222=ORIENTED_EDGE('',*,*,#177,.F.);
#223=ORIENTED_EDGE('',*,*,#178,.F.);
#224=ORIENTED_EDGE('',*,*,#179,.T.);
#225=ORIENTED_EDGE('',*,*,#178,.T.);
#226=ORIENTED_EDGE('',*,*,#180,.F.);
#227=ORIENTED_EDGE('',*,*,#181,.F.);
#228=ORIENTED_EDGE('',*,*,#182,.T.);
#229=ORIENTED_EDGE('',*,*,#181,.T.);
#230=ORIENTED_EDGE('',*,*,#183,.F.);
#231=ORIENTED_EDGE('',*,*,#173,.F.);
#232=ORIENTED_EDGE('',*,*,#183,.T.);
#233=ORIENTED_EDGE('',*,*,#180,.T.);
#234=ORIENTED_EDGE('',*,*,#177,.T.);
#235=ORIENTED_EDGE('',*,*,#174,.T.);
#236=ORIENTED_EDGE('',*,*,#153,.T.);
#237=ORIENTED_EDGE('',*,*,#156,.T.);
#238=ORIENTED_EDGE('',*,*,#159,.T.);
#239=ORIENTED_EDGE('',*,*,#162,.T.);
#240=ORIENTED_EDGE('',*,*,#165,.T.);
#241=ORIENTED_EDGE('',*,*,#182,.F.);
#242=ORIENTED_EDGE('',*,*,#172,.F.);
#243=ORIENTED_EDGE('',*,*,#176,.F.);
#244=ORIENTED_EDGE('',*,*,#179,.F.);
#245=ORIENTED_EDGE('',*,*,#151,.T.);
#246=ORIENTED_EDGE('',*,*,#154,.T.);
#247=ORIENTED_EDGE('',*,*,#157,.T.);
#248=ORIENTED_EDGE('',*,*,#160,.T.);
#249=ORIENTED_EDGE('',*,*,#167,.T.);
#250=CYLINDRICAL_SURFACE('',#295,1.6);
#251=CYLINDRICAL_SURFACE('',#298,1.6);
#252=CYLINDRICAL_SURFACE('',#301,1.6);
#253=CYLINDRICAL_SURFACE('',#304,1.6);
#254=CYLINDRICAL_SURFACE('',#307,13.);
#255=CYLINDRICAL_SURFACE('',#312,13.);
#256=CYLINDRICAL_SURFACE('',#317,11.);
#257=ADVANCED_FACE('',(#35),#250,.F.);
#258=ADVANCED_FACE('',(#36),#251,.F.);
#259=ADVANCED_FACE('',(#37),#252,.F.);
#260=ADVANCED_FACE('',(#38),#253,.F.);
#261=ADVANCED_FACE('',(#39),#254,.F.);
#262=ADVANCED_FACE('',(#40,#15),#27,.T.);
#263=ADVANCED_FACE('',(#41),#255,.F.);
#264=ADVANCED_FACE('',(#42,#16),#28,.F.);
#265=ADVANCED_FACE('',(#43),#256,.F.);
#266=ADVANCED_FACE('',(#44),#29,.T.);
#267=ADVANCED_FACE('',(#45),#30,.T.);
#268=ADVANCED_FACE('',(#46),#31,.T.);
#269=ADVANCED_FACE('',(#47),#32,.T.);
#270=ADVANCED_FACE('',(#48,#17,#18,#19,#20,#21),#33,.T.);
#271=ADVANCED_FACE('',(#49,#22,#23,#24,#25,#26),#34,.F.);
#272=CLOSED_SHELL('',(#257,#258,#259,#260,#261,#262,#263,#264,#265,#266,
#267,#268,#269,#270,#271));
#273=DERIVED_UNIT_ELEMENT(#276,1.);
#274=DERIVED_UNIT_ELEMENT(#479,-3.);
#275=DIMENSIONAL_EXPONENTS(0.,1.,0.,0.,0.,0.,0.);
#276=(
CONVERSION_BASED_UNIT('gram',#278)
MASS_UNIT()
NAMED_UNIT(#275)
);
#277=(
MASS_UNIT()
NAMED_UNIT(*)
SI_UNIT(.KILO.,.GRAM.)
);
#278=MASS_MEASURE_WITH_UNIT(MASS_MEASURE(0.001),#277);
#279=DERIVED_UNIT((#273,#274));
#280=MEASURE_REPRESENTATION_ITEM('density measure',
POSITIVE_RATIO_MEASURE(2.7),#279);
#281=PROPERTY_DEFINITION_REPRESENTATION(#286,#283);
#282=PROPERTY_DEFINITION_REPRESENTATION(#287,#284);
#283=REPRESENTATION('material name',(#285),#476);
#284=REPRESENTATION('density',(#280),#476);
#285=DESCRIPTIVE_REPRESENTATION_ITEM('\X2\30A230EB30DF30CB30A630E0\X0\ 
6061','\X2\30A230EB30DF30CB30A630E0\X0\ 6061');
#286=PROPERTY_DEFINITION('material property','material name',#486);
#287=PROPERTY_DEFINITION('material property','density of part',#486);
#288=DATE_TIME_ROLE('creation_date');
#289=APPLIED_DATE_AND_TIME_ASSIGNMENT(#290,#288,(#486));
#290=DATE_AND_TIME(#291,#292);
#291=CALENDAR_DATE(2026,8,10);
#292=LOCAL_TIME(0,0,0.,#293);
#293=COORDINATED_UNIVERSAL_TIME_OFFSET(0,0,.BEHIND.);
#294=AXIS2_PLACEMENT_3D('',#403,#324,#325);
#295=AXIS2_PLACEMENT_3D('',#404,#326,#327);
#296=AXIS2_PLACEMENT_3D('',#406,#328,#329);
#297=AXIS2_PLACEMENT_3D('',#409,#331,#332);
#298=AXIS2_PLACEMENT_3D('',#410,#333,#334);
#299=AXIS2_PLACEMENT_3D('',#412,#335,#336);
#300=AXIS2_PLACEMENT_3D('',#415,#338,#339);
#301=AXIS2_PLACEMENT_3D('',#416,#340,#341);
#302=AXIS2_PLACEMENT_3D('',#418,#342,#343);
#303=AXIS2_PLACEMENT_3D('',#421,#345,#346);
#304=AXIS2_PLACEMENT_3D('',#422,#347,#348);
#305=AXIS2_PLACEMENT_3D('',#424,#349,#350);
#306=AXIS2_PLACEMENT_3D('',#427,#352,#353);
#307=AXIS2_PLACEMENT_3D('',#428,#354,#355);
#308=AXIS2_PLACEMENT_3D('',#430,#356,#357);
#309=AXIS2_PLACEMENT_3D('',#433,#359,#360);
#310=AXIS2_PLACEMENT_3D('',#434,#361,#362);
#311=AXIS2_PLACEMENT_3D('',#436,#363,#364);
#312=AXIS2_PLACEMENT_3D('',#437,#365,#366);
#313=AXIS2_PLACEMENT_3D('',#439,#367,#368);
#314=AXIS2_PLACEMENT_3D('',#442,#370,#371);
#315=AXIS2_PLACEMENT_3D('',#443,#372,#373);
#316=AXIS2_PLACEMENT_3D('',#445,#374,#375);
#317=AXIS2_PLACEMENT_3D('',#446,#376,#377);
#318=AXIS2_PLACEMENT_3D('',#448,#379,#380);
#319=AXIS2_PLACEMENT_3D('',#457,#385,#386);
#320=AXIS2_PLACEMENT_3D('',#463,#390,#391);
#321=AXIS2_PLACEMENT_3D('',#469,#395,#396);
#322=AXIS2_PLACEMENT_3D('',#472,#399,#400);
#323=AXIS2_PLACEMENT_3D('',#473,#401,#402);
#324=DIRECTION('axis',(0.,0.,1.));
#325=DIRECTION('refdir',(1.,0.,0.));
#326=DIRECTION('center_axis',(0.,0.,1.));
#327=DIRECTION('ref_axis',(-1.,0.,0.));
#328=DIRECTION('center_axis',(0.,0.,1.));
#329=DIRECTION('ref_axis',(-1.,0.,0.));
#330=DIRECTION('',(0.,0.,1.));
#331=DIRECTION('center_axis',(0.,0.,-1.));
#332=DIRECTION('ref_axis',(-1.,0.,0.));
#333=DIRECTION('center_axis',(0.,0.,1.));
#334=DIRECTION('ref_axis',(-1.,0.,0.));
#335=DIRECTION('center_axis',(0.,0.,1.));
#336=DIRECTION('ref_axis',(-1.,0.,0.));
#337=DIRECTION('',(0.,0.,1.));
#338=DIRECTION('center_axis',(0.,0.,-1.));
#339=DIRECTION('ref_axis',(-1.,0.,0.));
#340=DIRECTION('center_axis',(0.,0.,1.));
#341=DIRECTION('ref_axis',(-1.,0.,0.));
#342=DIRECTION('center_axis',(0.,0.,1.));
#343=DIRECTION('ref_axis',(-1.,0.,0.));
#344=DIRECTION('',(0.,0.,1.));
#345=DIRECTION('center_axis',(0.,0.,-1.));
#346=DIRECTION('ref_axis',(-1.,0.,0.));
#347=DIRECTION('center_axis',(0.,0.,1.));
#348=DIRECTION('ref_axis',(-1.,0.,0.));
#349=DIRECTION('center_axis',(0.,0.,1.));
#350=DIRECTION('ref_axis',(-1.,0.,0.));
#351=DIRECTION('',(0.,0.,1.));
#352=DIRECTION('center_axis',(0.,0.,-1.));
#353=DIRECTION('ref_axis',(-1.,0.,0.));
#354=DIRECTION('center_axis',(0.,0.,1.));
#355=DIRECTION('ref_axis',(-1.,0.,0.));
#356=DIRECTION('center_axis',(0.,0.,-1.));
#357=DIRECTION('ref_axis',(-1.,0.,0.));
#358=DIRECTION('',(0.,0.,1.));
#359=DIRECTION('center_axis',(0.,0.,-1.));
#360=DIRECTION('ref_axis',(-1.,0.,0.));
#361=DIRECTION('center_axis',(0.,0.,1.));
#362=DIRECTION('ref_axis',(1.,0.,0.));
#363=DIRECTION('center_axis',(0.,0.,1.));
#364=DIRECTION('ref_axis',(-1.,0.,0.));
#365=DIRECTION('center_axis',(0.,0.,1.));
#366=DIRECTION('ref_axis',(-1.,0.,0.));
#367=DIRECTION('center_axis',(0.,0.,1.));
#368=DIRECTION('ref_axis',(-1.,0.,0.));
#369=DIRECTION('',(0.,0.,1.));
#370=DIRECTION('center_axis',(0.,0.,1.));
#371=DIRECTION('ref_axis',(-1.,0.,0.));
#372=DIRECTION('center_axis',(0.,0.,1.));
#373=DIRECTION('ref_axis',(1.,0.,0.));
#374=DIRECTION('center_axis',(0.,0.,-1.));
#375=DIRECTION('ref_axis',(-1.,0.,0.));
#376=DIRECTION('center_axis',(0.,0.,1.));
#377=DIRECTION('ref_axis',(-1.,0.,0.));
#378=DIRECTION('',(0.,0.,1.));
#379=DIRECTION('center_axis',(-1.,0.,0.));
#380=DIRECTION('ref_axis',(0.,-1.,0.));
#381=DIRECTION('',(0.,-1.,0.));
#382=DIRECTION('',(0.,0.,1.));
#383=DIRECTION('',(0.,-1.,0.));
#384=DIRECTION('',(0.,0.,1.));
#385=DIRECTION('center_axis',(0.,1.,0.));
#386=DIRECTION('ref_axis',(-1.,0.,0.));
#387=DIRECTION('',(-1.,0.,0.));
#388=DIRECTION('',(-1.,0.,0.));
#389=DIRECTION('',(0.,0.,1.));
#390=DIRECTION('center_axis',(1.,0.,0.));
#391=DIRECTION('ref_axis',(0.,1.,0.));
#392=DIRECTION('',(0.,1.,0.));
#393=DIRECTION('',(0.,1.,0.));
#394=DIRECTION('',(0.,0.,1.));
#395=DIRECTION('center_axis',(0.,-1.,0.));
#396=DIRECTION('ref_axis',(1.,0.,0.));
#397=DIRECTION('',(1.,0.,0.));
#398=DIRECTION('',(1.,0.,0.));
#399=DIRECTION('center_axis',(0.,0.,1.));
#400=DIRECTION('ref_axis',(1.,0.,0.));
#401=DIRECTION('center_axis',(0.,0.,1.));
#402=DIRECTION('ref_axis',(1.,0.,0.));
#403=CARTESIAN_POINT('',(0.,0.,0.));
#404=CARTESIAN_POINT('Origin',(15.,15.,6.));
#405=CARTESIAN_POINT('',(16.6,15.,6.));
#406=CARTESIAN_POINT('Origin',(15.,15.,6.));
#407=CARTESIAN_POINT('',(16.6,15.,34.));
#408=CARTESIAN_POINT('',(16.6,15.,6.));
#409=CARTESIAN_POINT('Origin',(15.,15.,34.));
#410=CARTESIAN_POINT('Origin',(15.,-15.,6.));
#411=CARTESIAN_POINT('',(16.6,-15.,6.));
#412=CARTESIAN_POINT('Origin',(15.,-15.,6.));
#413=CARTESIAN_POINT('',(16.6,-15.,34.));
#414=CARTESIAN_POINT('',(16.6,-15.,6.));
#415=CARTESIAN_POINT('Origin',(15.,-15.,34.));
#416=CARTESIAN_POINT('Origin',(-15.,15.,6.));
#417=CARTESIAN_POINT('',(-13.4,15.,6.));
#418=CARTESIAN_POINT('Origin',(-15.,15.,6.));
#419=CARTESIAN_POINT('',(-13.4,15.,34.));
#420=CARTESIAN_POINT('',(-13.4,15.,6.));
#421=CARTESIAN_POINT('Origin',(-15.,15.,34.));
#422=CARTESIAN_POINT('Origin',(-15.,-15.,6.));
#423=CARTESIAN_POINT('',(-13.4,-15.,6.));
#424=CARTESIAN_POINT('Origin',(-15.,-15.,6.));
#425=CARTESIAN_POINT('',(-13.4,-15.,34.));
#426=CARTESIAN_POINT('',(-13.4,-15.,6.));
#427=CARTESIAN_POINT('Origin',(-15.,-15.,34.));
#428=CARTESIAN_POINT('Origin',(0.,0.,26.));
#429=CARTESIAN_POINT('',(13.,1.59204083889156E-15,26.));
#430=CARTESIAN_POINT('Origin',(0.,0.,26.));
#431=CARTESIAN_POINT('',(13.,1.59204083889156E-15,34.));
#432=CARTESIAN_POINT('',(13.,1.59204083889156E-15,26.));
#433=CARTESIAN_POINT('Origin',(0.,0.,34.));
#434=CARTESIAN_POINT('Origin',(-1.3267006990763E-16,0.,26.));
#435=CARTESIAN_POINT('',(11.,1.34711147906209E-15,26.));
#436=CARTESIAN_POINT('Origin',(0.,0.,26.));
#437=CARTESIAN_POINT('Origin',(0.,0.,6.));
#438=CARTESIAN_POINT('',(13.,1.59204083889156E-15,6.));
#439=CARTESIAN_POINT('Origin',(0.,0.,6.));
#440=CARTESIAN_POINT('',(13.,1.59204083889156E-15,14.));
#441=CARTESIAN_POINT('',(13.,1.59204083889156E-15,6.));
#442=CARTESIAN_POINT('Origin',(0.,0.,14.));
#443=CARTESIAN_POINT('Origin',(-1.3267006990763E-16,0.,14.));
#444=CARTESIAN_POINT('',(11.,-1.34711147906209E-15,14.));
#445=CARTESIAN_POINT('Origin',(0.,0.,14.));
#446=CARTESIAN_POINT('Origin',(0.,0.,6.));
#447=CARTESIAN_POINT('',(11.,1.34711147906209E-15,6.));
#448=CARTESIAN_POINT('Origin',(-18.,18.,6.));
#449=CARTESIAN_POINT('',(-18.,18.,6.));
#450=CARTESIAN_POINT('',(-18.,-18.,6.));
#451=CARTESIAN_POINT('',(-18.,18.,6.));
#452=CARTESIAN_POINT('',(-18.,-18.,34.));
#453=CARTESIAN_POINT('',(-18.,-18.,6.));
#454=CARTESIAN_POINT('',(-18.,18.,34.));
#455=CARTESIAN_POINT('',(-18.,18.,34.));
#456=CARTESIAN_POINT('',(-18.,18.,6.));
#457=CARTESIAN_POINT('Origin',(18.,18.,6.));
#458=CARTESIAN_POINT('',(18.,18.,6.));
#459=CARTESIAN_POINT('',(18.,18.,6.));
#460=CARTESIAN_POINT('',(18.,18.,34.));
#461=CARTESIAN_POINT('',(18.,18.,34.));
#462=CARTESIAN_POINT('',(18.,18.,6.));
#463=CARTESIAN_POINT('Origin',(18.,-18.,6.));
#464=CARTESIAN_POINT('',(18.,-18.,6.));
#465=CARTESIAN_POINT('',(18.,-18.,6.));
#466=CARTESIAN_POINT('',(18.,-18.,34.));
#467=CARTESIAN_POINT('',(18.,-18.,34.));
#468=CARTESIAN_POINT('',(18.,-18.,6.));
#469=CARTESIAN_POINT('Origin',(-18.,-18.,6.));
#470=CARTESIAN_POINT('',(-18.,-18.,6.));
#471=CARTESIAN_POINT('',(-18.,-18.,34.));
#472=CARTESIAN_POINT('Origin',(0.,0.,34.));
#473=CARTESIAN_POINT('Origin',(0.,0.,6.));
#474=UNCERTAINTY_MEASURE_WITH_UNIT(LENGTH_MEASURE(0.01),#478,
'DISTANCE_ACCURACY_VALUE',
'Maximum model space distance between geometric entities at asserted c
onnectivities');
#475=UNCERTAINTY_MEASURE_WITH_UNIT(LENGTH_MEASURE(0.01),#478,
'DISTANCE_ACCURACY_VALUE',
'Maximum model space distance between geometric entities at asserted c
onnectivities');
#476=(
GEOMETRIC_REPRESENTATION_CONTEXT(3)
GLOBAL_UNCERTAINTY_ASSIGNED_CONTEXT((#474))
GLOBAL_UNIT_ASSIGNED_CONTEXT((#478,#480,#481))
REPRESENTATION_CONTEXT('','3D')
);
#477=(
GEOMETRIC_REPRESENTATION_CONTEXT(3)
GLOBAL_UNCERTAINTY_ASSIGNED_CONTEXT((#475))
GLOBAL_UNIT_ASSIGNED_CONTEXT((#478,#480,#481))
REPRESENTATION_CONTEXT('','3D')
);
#478=(
LENGTH_UNIT()
NAMED_UNIT(*)
SI_UNIT(.MILLI.,.METRE.)
);
#479=(
LENGTH_UNIT()
NAMED_UNIT(*)
SI_UNIT(.CENTI.,.METRE.)
);
#480=(
NAMED_UNIT(*)
PLANE_ANGLE_UNIT()
SI_UNIT($,.RADIAN.)
);
#481=(
NAMED_UNIT(*)
SI_UNIT($,.STERADIAN.)
SOLID_ANGLE_UNIT()
);
#482=SHAPE_DEFINITION_REPRESENTATION(#483,#484);
#483=PRODUCT_DEFINITION_SHAPE('',$,#486);
#484=SHAPE_REPRESENTATION('',(#294),#476);
#485=PRODUCT_DEFINITION_CONTEXT('part definition',#490,'design');
#486=PRODUCT_DEFINITION('05_Bearing_Housing','05_Bearing_Housing',#487,
#485);
#487=PRODUCT_DEFINITION_FORMATION('',$,#492);
#488=PRODUCT_RELATED_PRODUCT_CATEGORY('05_Bearing_Housing',
'05_Bearing_Housing',(#492));
#489=APPLICATION_PROTOCOL_DEFINITION('international standard',
'automotive_design',2009,#490);
#490=APPLICATION_CONTEXT(
'Core Data for Automotive Mechanical Design Process');
#491=PRODUCT_CONTEXT('part definition',#490,'mechanical');
#492=PRODUCT('05_Bearing_Housing','05_Bearing_Housing',$,(#491));
#493=PRESENTATION_STYLE_ASSIGNMENT((#494));
#494=SURFACE_STYLE_USAGE(.BOTH.,#497);
#495=SURFACE_STYLE_RENDERING_WITH_PROPERTIES($,#501,(#496));
#496=SURFACE_STYLE_TRANSPARENT(0.);
#497=SURFACE_SIDE_STYLE('',(#498,#495));
#498=SURFACE_STYLE_FILL_AREA(#499);
#499=FILL_AREA_STYLE('',(#500));
#500=FILL_AREA_STYLE_COLOUR('',#501);
#501=COLOUR_RGB('',0.996078431372549,0.996078431372549,1.);
ENDSEC;
END-ISO-10303-21;
