ISO-10303-21;
HEADER;
/* Generated by software containing ST-Developer
 * from STEP Tools, Inc. (www.steptools.com) 
 */

FILE_DESCRIPTION(
/* description */ (''),
/* implementation_level */ '2;1');

FILE_NAME(
/* name */ '07_Brake_Drum.step',
/* time_stamp */ '2026-10-08T19:41:06+09:00',
/* author */ ('Reaction Wheel Pendulum project'),
/* organization */ (''),
/* preprocessor_version */ 'ST-DEVELOPER v20.1',
/* originating_system */ 'Autodesk Inventor 2026',
/* authorisation */ '');

FILE_SCHEMA (('AUTOMOTIVE_DESIGN { 1 0 10303 214 3 1 1 }'));
ENDSEC;

DATA;
#10=MECHANICAL_DESIGN_GEOMETRIC_PRESENTATION_REPRESENTATION('',(#13),#1440);
#11=SHAPE_REPRESENTATION_RELATIONSHIP('SRR','None',#1447,#12);
#12=ADVANCED_BREP_SHAPE_REPRESENTATION('',(#14),#1439);
#13=STYLED_ITEM('',(#1456),#14);
#14=MANIFOLD_SOLID_BREP('\X2\30BD30EA30C330C9\X0\1',#843);
#15=FACE_BOUND('',#93,.T.);
#16=FACE_BOUND('',#94,.T.);
#17=FACE_BOUND('',#95,.T.);
#18=FACE_BOUND('',#96,.T.);
#19=FACE_BOUND('',#97,.T.);
#20=FACE_BOUND('',#103,.T.);
#21=FACE_BOUND('',#104,.T.);
#22=FACE_BOUND('',#105,.T.);
#23=FACE_BOUND('',#106,.T.);
#24=FACE_BOUND('',#107,.T.);
#25=PLANE('',#875);
#26=PLANE('',#901);
#27=PLANE('',#920);
#28=PLANE('',#921);
#29=PLANE('',#922);
#30=PLANE('',#923);
#31=PLANE('',#924);
#32=PLANE('',#925);
#33=PLANE('',#926);
#34=PLANE('',#927);
#35=PLANE('',#928);
#36=PLANE('',#929);
#37=PLANE('',#930);
#38=PLANE('',#931);
#39=PLANE('',#932);
#40=PLANE('',#939);
#41=PLANE('',#940);
#42=PLANE('',#941);
#43=PLANE('',#942);
#44=PLANE('',#943);
#45=PLANE('',#944);
#46=PLANE('',#945);
#47=FACE_OUTER_BOUND('',#89,.T.);
#48=FACE_OUTER_BOUND('',#90,.T.);
#49=FACE_OUTER_BOUND('',#91,.T.);
#50=FACE_OUTER_BOUND('',#92,.T.);
#51=FACE_OUTER_BOUND('',#98,.T.);
#52=FACE_OUTER_BOUND('',#99,.T.);
#53=FACE_OUTER_BOUND('',#100,.T.);
#54=FACE_OUTER_BOUND('',#101,.T.);
#55=FACE_OUTER_BOUND('',#102,.T.);
#56=FACE_OUTER_BOUND('',#108,.T.);
#57=FACE_OUTER_BOUND('',#109,.T.);
#58=FACE_OUTER_BOUND('',#110,.T.);
#59=FACE_OUTER_BOUND('',#111,.T.);
#60=FACE_OUTER_BOUND('',#112,.T.);
#61=FACE_OUTER_BOUND('',#113,.T.);
#62=FACE_OUTER_BOUND('',#114,.T.);
#63=FACE_OUTER_BOUND('',#115,.T.);
#64=FACE_OUTER_BOUND('',#116,.T.);
#65=FACE_OUTER_BOUND('',#117,.T.);
#66=FACE_OUTER_BOUND('',#118,.T.);
#67=FACE_OUTER_BOUND('',#119,.T.);
#68=FACE_OUTER_BOUND('',#120,.T.);
#69=FACE_OUTER_BOUND('',#121,.T.);
#70=FACE_OUTER_BOUND('',#122,.T.);
#71=FACE_OUTER_BOUND('',#123,.T.);
#72=FACE_OUTER_BOUND('',#124,.T.);
#73=FACE_OUTER_BOUND('',#125,.T.);
#74=FACE_OUTER_BOUND('',#126,.T.);
#75=FACE_OUTER_BOUND('',#127,.T.);
#76=FACE_OUTER_BOUND('',#128,.T.);
#77=FACE_OUTER_BOUND('',#129,.T.);
#78=FACE_OUTER_BOUND('',#130,.T.);
#79=FACE_OUTER_BOUND('',#131,.T.);
#80=FACE_OUTER_BOUND('',#132,.T.);
#81=FACE_OUTER_BOUND('',#133,.T.);
#82=FACE_OUTER_BOUND('',#134,.T.);
#83=FACE_OUTER_BOUND('',#135,.T.);
#84=FACE_OUTER_BOUND('',#136,.T.);
#85=FACE_OUTER_BOUND('',#137,.T.);
#86=FACE_OUTER_BOUND('',#138,.T.);
#87=FACE_OUTER_BOUND('',#139,.T.);
#88=FACE_OUTER_BOUND('',#140,.T.);
#89=EDGE_LOOP('',(#541,#542,#543,#544));
#90=EDGE_LOOP('',(#545,#546,#547,#548));
#91=EDGE_LOOP('',(#549,#550,#551,#552));
#92=EDGE_LOOP('',(#553,#554,#555,#556,#557,#558,#559,#560,#561,#562,#563,
#564,#565,#566,#567,#568));
#93=EDGE_LOOP('',(#569,#570,#571,#572,#573,#574,#575,#576));
#94=EDGE_LOOP('',(#577,#578,#579,#580));
#95=EDGE_LOOP('',(#581,#582,#583,#584));
#96=EDGE_LOOP('',(#585,#586,#587,#588));
#97=EDGE_LOOP('',(#589,#590,#591,#592));
#98=EDGE_LOOP('',(#593,#594,#595,#596));
#99=EDGE_LOOP('',(#597,#598,#599,#600));
#100=EDGE_LOOP('',(#601,#602,#603,#604));
#101=EDGE_LOOP('',(#605,#606,#607,#608));
#102=EDGE_LOOP('',(#609,#610,#611,#612,#613,#614,#615,#616,#617,#618,#619,
#620,#621,#622,#623,#624));
#103=EDGE_LOOP('',(#625,#626,#627,#628,#629,#630,#631,#632));
#104=EDGE_LOOP('',(#633,#634,#635,#636));
#105=EDGE_LOOP('',(#637,#638,#639,#640));
#106=EDGE_LOOP('',(#641,#642,#643,#644));
#107=EDGE_LOOP('',(#645,#646,#647,#648));
#108=EDGE_LOOP('',(#649,#650,#651,#652));
#109=EDGE_LOOP('',(#653,#654,#655,#656));
#110=EDGE_LOOP('',(#657,#658,#659,#660));
#111=EDGE_LOOP('',(#661,#662,#663,#664));
#112=EDGE_LOOP('',(#665,#666,#667,#668));
#113=EDGE_LOOP('',(#669,#670,#671,#672));
#114=EDGE_LOOP('',(#673,#674,#675,#676));
#115=EDGE_LOOP('',(#677,#678,#679,#680));
#116=EDGE_LOOP('',(#681,#682,#683,#684));
#117=EDGE_LOOP('',(#685,#686,#687,#688));
#118=EDGE_LOOP('',(#689,#690,#691,#692));
#119=EDGE_LOOP('',(#693,#694,#695,#696));
#120=EDGE_LOOP('',(#697,#698,#699,#700));
#121=EDGE_LOOP('',(#701,#702,#703,#704));
#122=EDGE_LOOP('',(#705,#706,#707,#708));
#123=EDGE_LOOP('',(#709,#710,#711,#712));
#124=EDGE_LOOP('',(#713,#714,#715,#716));
#125=EDGE_LOOP('',(#717,#718,#719,#720));
#126=EDGE_LOOP('',(#721,#722,#723,#724));
#127=EDGE_LOOP('',(#725,#726,#727,#728));
#128=EDGE_LOOP('',(#729,#730,#731,#732));
#129=EDGE_LOOP('',(#733,#734,#735,#736));
#130=EDGE_LOOP('',(#737,#738,#739,#740));
#131=EDGE_LOOP('',(#741,#742,#743,#744));
#132=EDGE_LOOP('',(#745,#746,#747,#748));
#133=EDGE_LOOP('',(#749,#750,#751,#752));
#134=EDGE_LOOP('',(#753,#754,#755,#756));
#135=EDGE_LOOP('',(#757,#758,#759,#760));
#136=EDGE_LOOP('',(#761,#762,#763,#764));
#137=EDGE_LOOP('',(#765,#766,#767,#768));
#138=EDGE_LOOP('',(#769,#770,#771,#772));
#139=EDGE_LOOP('',(#773,#774,#775,#776));
#140=EDGE_LOOP('',(#777,#778,#779,#780));
#141=CIRCLE('',#867,1.6);
#142=CIRCLE('',#868,1.6);
#143=CIRCLE('',#870,15.);
#144=CIRCLE('',#871,15.);
#145=CIRCLE('',#873,15.);
#146=CIRCLE('',#874,15.);
#147=CIRCLE('',#876,55.);
#148=CIRCLE('',#877,55.);
#149=CIRCLE('',#878,55.);
#150=CIRCLE('',#879,55.);
#151=CIRCLE('',#880,1.6);
#152=CIRCLE('',#881,15.);
#153=CIRCLE('',#882,1.6);
#154=CIRCLE('',#883,15.);
#155=CIRCLE('',#884,1.6);
#156=CIRCLE('',#885,49.);
#157=CIRCLE('',#886,20.);
#158=CIRCLE('',#887,49.);
#159=CIRCLE('',#888,20.);
#160=CIRCLE('',#889,20.);
#161=CIRCLE('',#890,49.);
#162=CIRCLE('',#891,20.);
#163=CIRCLE('',#892,49.);
#164=CIRCLE('',#894,1.6);
#165=CIRCLE('',#896,15.);
#166=CIRCLE('',#898,1.6);
#167=CIRCLE('',#900,15.);
#168=CIRCLE('',#902,55.);
#169=CIRCLE('',#903,55.);
#170=CIRCLE('',#904,55.);
#171=CIRCLE('',#905,55.);
#172=CIRCLE('',#906,1.6);
#173=CIRCLE('',#907,49.);
#174=CIRCLE('',#908,20.);
#175=CIRCLE('',#909,49.);
#176=CIRCLE('',#910,20.);
#177=CIRCLE('',#911,20.);
#178=CIRCLE('',#912,49.);
#179=CIRCLE('',#913,20.);
#180=CIRCLE('',#914,49.);
#181=LINE('',#1198,#261);
#182=LINE('',#1202,#262);
#183=LINE('',#1208,#263);
#184=LINE('',#1214,#264);
#185=LINE('',#1221,#265);
#186=LINE('',#1223,#266);
#187=LINE('',#1225,#267);
#188=LINE('',#1229,#268);
#189=LINE('',#1231,#269);
#190=LINE('',#1233,#270);
#191=LINE('',#1237,#271);
#192=LINE('',#1239,#272);
#193=LINE('',#1241,#273);
#194=LINE('',#1245,#274);
#195=LINE('',#1247,#275);
#196=LINE('',#1248,#276);
#197=LINE('',#1260,#277);
#198=LINE('',#1264,#278);
#199=LINE('',#1268,#279);
#200=LINE('',#1272,#280);
#201=LINE('',#1278,#281);
#202=LINE('',#1281,#282);
#203=LINE('',#1286,#283);
#204=LINE('',#1289,#284);
#205=LINE('',#1293,#285);
#206=LINE('',#1297,#286);
#207=LINE('',#1300,#287);
#208=LINE('',#1305,#288);
#209=LINE('',#1309,#289);
#210=LINE('',#1311,#290);
#211=LINE('',#1315,#291);
#212=LINE('',#1317,#292);
#213=LINE('',#1319,#293);
#214=LINE('',#1323,#294);
#215=LINE('',#1325,#295);
#216=LINE('',#1327,#296);
#217=LINE('',#1331,#297);
#218=LINE('',#1333,#298);
#219=LINE('',#1335,#299);
#220=LINE('',#1338,#300);
#221=LINE('',#1342,#301);
#222=LINE('',#1346,#302);
#223=LINE('',#1350,#303);
#224=LINE('',#1354,#304);
#225=LINE('',#1360,#305);
#226=LINE('',#1363,#306);
#227=LINE('',#1368,#307);
#228=LINE('',#1371,#308);
#229=LINE('',#1374,#309);
#230=LINE('',#1375,#310);
#231=LINE('',#1377,#311);
#232=LINE('',#1378,#312);
#233=LINE('',#1380,#313);
#234=LINE('',#1381,#314);
#235=LINE('',#1383,#315);
#236=LINE('',#1384,#316);
#237=LINE('',#1386,#317);
#238=LINE('',#1388,#318);
#239=LINE('',#1390,#319);
#240=LINE('',#1392,#320);
#241=LINE('',#1394,#321);
#242=LINE('',#1395,#322);
#243=LINE('',#1397,#323);
#244=LINE('',#1398,#324);
#245=LINE('',#1400,#325);
#246=LINE('',#1402,#326);
#247=LINE('',#1404,#327);
#248=LINE('',#1405,#328);
#249=LINE('',#1407,#329);
#250=LINE('',#1409,#330);
#251=LINE('',#1412,#331);
#252=LINE('',#1416,#332);
#253=LINE('',#1419,#333);
#254=LINE('',#1421,#334);
#255=LINE('',#1423,#335);
#256=LINE('',#1424,#336);
#257=LINE('',#1426,#337);
#258=LINE('',#1427,#338);
#259=LINE('',#1430,#339);
#260=LINE('',#1434,#340);
#261=VECTOR('',#952,10.);
#262=VECTOR('',#955,10.);
#263=VECTOR('',#962,10.);
#264=VECTOR('',#969,10.);
#265=VECTOR('',#976,10.);
#266=VECTOR('',#977,10.);
#267=VECTOR('',#978,10.);
#268=VECTOR('',#981,10.);
#269=VECTOR('',#982,10.);
#270=VECTOR('',#983,10.);
#271=VECTOR('',#986,10.);
#272=VECTOR('',#987,10.);
#273=VECTOR('',#988,10.);
#274=VECTOR('',#991,10.);
#275=VECTOR('',#992,10.);
#276=VECTOR('',#993,10.);
#277=VECTOR('',#1004,10.);
#278=VECTOR('',#1007,10.);
#279=VECTOR('',#1010,10.);
#280=VECTOR('',#1013,10.);
#281=VECTOR('',#1018,10.);
#282=VECTOR('',#1021,10.);
#283=VECTOR('',#1024,10.);
#284=VECTOR('',#1027,10.);
#285=VECTOR('',#1032,10.);
#286=VECTOR('',#1037,10.);
#287=VECTOR('',#1040,10.);
#288=VECTOR('',#1047,10.);
#289=VECTOR('',#1050,10.);
#290=VECTOR('',#1051,10.);
#291=VECTOR('',#1054,10.);
#292=VECTOR('',#1055,10.);
#293=VECTOR('',#1056,10.);
#294=VECTOR('',#1059,10.);
#295=VECTOR('',#1060,10.);
#296=VECTOR('',#1061,10.);
#297=VECTOR('',#1064,10.);
#298=VECTOR('',#1065,10.);
#299=VECTOR('',#1066,10.);
#300=VECTOR('',#1069,10.);
#301=VECTOR('',#1072,10.);
#302=VECTOR('',#1075,10.);
#303=VECTOR('',#1078,10.);
#304=VECTOR('',#1081,10.);
#305=VECTOR('',#1086,10.);
#306=VECTOR('',#1089,10.);
#307=VECTOR('',#1092,10.);
#308=VECTOR('',#1095,10.);
#309=VECTOR('',#1100,10.);
#310=VECTOR('',#1101,10.);
#311=VECTOR('',#1104,10.);
#312=VECTOR('',#1105,10.);
#313=VECTOR('',#1108,10.);
#314=VECTOR('',#1109,10.);
#315=VECTOR('',#1112,10.);
#316=VECTOR('',#1113,10.);
#317=VECTOR('',#1116,10.);
#318=VECTOR('',#1119,10.);
#319=VECTOR('',#1122,10.);
#320=VECTOR('',#1125,10.);
#321=VECTOR('',#1128,10.);
#322=VECTOR('',#1129,10.);
#323=VECTOR('',#1132,10.);
#324=VECTOR('',#1133,10.);
#325=VECTOR('',#1136,10.);
#326=VECTOR('',#1139,10.);
#327=VECTOR('',#1142,10.);
#328=VECTOR('',#1143,10.);
#329=VECTOR('',#1146,10.);
#330=VECTOR('',#1149,10.);
#331=VECTOR('',#1154,10.);
#332=VECTOR('',#1161,10.);
#333=VECTOR('',#1166,10.);
#334=VECTOR('',#1169,10.);
#335=VECTOR('',#1172,10.);
#336=VECTOR('',#1173,10.);
#337=VECTOR('',#1176,10.);
#338=VECTOR('',#1177,10.);
#339=VECTOR('',#1182,10.);
#340=VECTOR('',#1189,10.);
#341=VERTEX_POINT('',#1196);
#342=VERTEX_POINT('',#1197);
#343=VERTEX_POINT('',#1199);
#344=VERTEX_POINT('',#1201);
#345=VERTEX_POINT('',#1205);
#346=VERTEX_POINT('',#1207);
#347=VERTEX_POINT('',#1211);
#348=VERTEX_POINT('',#1213);
#349=VERTEX_POINT('',#1217);
#350=VERTEX_POINT('',#1218);
#351=VERTEX_POINT('',#1220);
#352=VERTEX_POINT('',#1222);
#353=VERTEX_POINT('',#1224);
#354=VERTEX_POINT('',#1226);
#355=VERTEX_POINT('',#1228);
#356=VERTEX_POINT('',#1230);
#357=VERTEX_POINT('',#1232);
#358=VERTEX_POINT('',#1234);
#359=VERTEX_POINT('',#1236);
#360=VERTEX_POINT('',#1238);
#361=VERTEX_POINT('',#1240);
#362=VERTEX_POINT('',#1242);
#363=VERTEX_POINT('',#1244);
#364=VERTEX_POINT('',#1246);
#365=VERTEX_POINT('',#1249);
#366=VERTEX_POINT('',#1251);
#367=VERTEX_POINT('',#1253);
#368=VERTEX_POINT('',#1255);
#369=VERTEX_POINT('',#1258);
#370=VERTEX_POINT('',#1259);
#371=VERTEX_POINT('',#1261);
#372=VERTEX_POINT('',#1263);
#373=VERTEX_POINT('',#1266);
#374=VERTEX_POINT('',#1267);
#375=VERTEX_POINT('',#1269);
#376=VERTEX_POINT('',#1271);
#377=VERTEX_POINT('',#1274);
#378=VERTEX_POINT('',#1275);
#379=VERTEX_POINT('',#1277);
#380=VERTEX_POINT('',#1279);
#381=VERTEX_POINT('',#1282);
#382=VERTEX_POINT('',#1283);
#383=VERTEX_POINT('',#1285);
#384=VERTEX_POINT('',#1287);
#385=VERTEX_POINT('',#1291);
#386=VERTEX_POINT('',#1295);
#387=VERTEX_POINT('',#1299);
#388=VERTEX_POINT('',#1303);
#389=VERTEX_POINT('',#1307);
#390=VERTEX_POINT('',#1308);
#391=VERTEX_POINT('',#1310);
#392=VERTEX_POINT('',#1312);
#393=VERTEX_POINT('',#1314);
#394=VERTEX_POINT('',#1316);
#395=VERTEX_POINT('',#1318);
#396=VERTEX_POINT('',#1320);
#397=VERTEX_POINT('',#1322);
#398=VERTEX_POINT('',#1324);
#399=VERTEX_POINT('',#1326);
#400=VERTEX_POINT('',#1328);
#401=VERTEX_POINT('',#1330);
#402=VERTEX_POINT('',#1332);
#403=VERTEX_POINT('',#1334);
#404=VERTEX_POINT('',#1336);
#405=VERTEX_POINT('',#1340);
#406=VERTEX_POINT('',#1341);
#407=VERTEX_POINT('',#1343);
#408=VERTEX_POINT('',#1345);
#409=VERTEX_POINT('',#1348);
#410=VERTEX_POINT('',#1349);
#411=VERTEX_POINT('',#1351);
#412=VERTEX_POINT('',#1353);
#413=VERTEX_POINT('',#1356);
#414=VERTEX_POINT('',#1357);
#415=VERTEX_POINT('',#1359);
#416=VERTEX_POINT('',#1361);
#417=VERTEX_POINT('',#1364);
#418=VERTEX_POINT('',#1365);
#419=VERTEX_POINT('',#1367);
#420=VERTEX_POINT('',#1369);
#421=EDGE_CURVE('',#341,#342,#181,.T.);
#422=EDGE_CURVE('',#343,#341,#141,.T.);
#423=EDGE_CURVE('',#344,#343,#182,.T.);
#424=EDGE_CURVE('',#342,#344,#142,.T.);
#425=EDGE_CURVE('',#345,#343,#143,.T.);
#426=EDGE_CURVE('',#345,#346,#183,.T.);
#427=EDGE_CURVE('',#344,#346,#144,.T.);
#428=EDGE_CURVE('',#347,#342,#145,.T.);
#429=EDGE_CURVE('',#347,#348,#184,.T.);
#430=EDGE_CURVE('',#341,#348,#146,.T.);
#431=EDGE_CURVE('',#349,#350,#147,.T.);
#432=EDGE_CURVE('',#350,#351,#185,.T.);
#433=EDGE_CURVE('',#351,#352,#186,.T.);
#434=EDGE_CURVE('',#352,#353,#187,.T.);
#435=EDGE_CURVE('',#353,#354,#148,.T.);
#436=EDGE_CURVE('',#354,#355,#188,.T.);
#437=EDGE_CURVE('',#355,#356,#189,.T.);
#438=EDGE_CURVE('',#356,#357,#190,.T.);
#439=EDGE_CURVE('',#357,#358,#149,.T.);
#440=EDGE_CURVE('',#358,#359,#191,.T.);
#441=EDGE_CURVE('',#359,#360,#192,.T.);
#442=EDGE_CURVE('',#360,#361,#193,.T.);
#443=EDGE_CURVE('',#361,#362,#150,.T.);
#444=EDGE_CURVE('',#362,#363,#194,.T.);
#445=EDGE_CURVE('',#363,#364,#195,.T.);
#446=EDGE_CURVE('',#364,#349,#196,.T.);
#447=EDGE_CURVE('',#346,#365,#151,.T.);
#448=EDGE_CURVE('',#365,#366,#152,.T.);
#449=EDGE_CURVE('',#366,#367,#153,.T.);
#450=EDGE_CURVE('',#367,#368,#154,.T.);
#451=EDGE_CURVE('',#368,#347,#155,.T.);
#452=EDGE_CURVE('',#369,#370,#197,.T.);
#453=EDGE_CURVE('',#370,#371,#156,.T.);
#454=EDGE_CURVE('',#371,#372,#198,.T.);
#455=EDGE_CURVE('',#372,#369,#157,.T.);
#456=EDGE_CURVE('',#373,#374,#199,.T.);
#457=EDGE_CURVE('',#374,#375,#158,.T.);
#458=EDGE_CURVE('',#375,#376,#200,.T.);
#459=EDGE_CURVE('',#376,#373,#159,.T.);
#460=EDGE_CURVE('',#377,#378,#160,.T.);
#461=EDGE_CURVE('',#378,#379,#201,.T.);
#462=EDGE_CURVE('',#379,#380,#161,.T.);
#463=EDGE_CURVE('',#380,#377,#202,.T.);
#464=EDGE_CURVE('',#381,#382,#162,.T.);
#465=EDGE_CURVE('',#382,#383,#203,.T.);
#466=EDGE_CURVE('',#383,#384,#163,.T.);
#467=EDGE_CURVE('',#384,#381,#204,.T.);
#468=EDGE_CURVE('',#385,#345,#164,.T.);
#469=EDGE_CURVE('',#365,#385,#205,.T.);
#470=EDGE_CURVE('',#386,#385,#165,.T.);
#471=EDGE_CURVE('',#386,#366,#206,.T.);
#472=EDGE_CURVE('',#367,#387,#207,.T.);
#473=EDGE_CURVE('',#387,#386,#166,.T.);
#474=EDGE_CURVE('',#388,#387,#167,.T.);
#475=EDGE_CURVE('',#388,#368,#208,.T.);
#476=EDGE_CURVE('',#389,#390,#209,.T.);
#477=EDGE_CURVE('',#391,#389,#210,.T.);
#478=EDGE_CURVE('',#391,#392,#168,.T.);
#479=EDGE_CURVE('',#393,#392,#211,.T.);
#480=EDGE_CURVE('',#394,#393,#212,.T.);
#481=EDGE_CURVE('',#395,#394,#213,.T.);
#482=EDGE_CURVE('',#395,#396,#169,.T.);
#483=EDGE_CURVE('',#397,#396,#214,.T.);
#484=EDGE_CURVE('',#398,#397,#215,.T.);
#485=EDGE_CURVE('',#399,#398,#216,.T.);
#486=EDGE_CURVE('',#399,#400,#170,.T.);
#487=EDGE_CURVE('',#401,#400,#217,.T.);
#488=EDGE_CURVE('',#402,#401,#218,.T.);
#489=EDGE_CURVE('',#403,#402,#219,.T.);
#490=EDGE_CURVE('',#403,#404,#171,.T.);
#491=EDGE_CURVE('',#390,#404,#220,.T.);
#492=EDGE_CURVE('',#348,#388,#172,.T.);
#493=EDGE_CURVE('',#405,#406,#221,.T.);
#494=EDGE_CURVE('',#405,#407,#173,.T.);
#495=EDGE_CURVE('',#408,#407,#222,.T.);
#496=EDGE_CURVE('',#408,#406,#174,.T.);
#497=EDGE_CURVE('',#409,#410,#223,.T.);
#498=EDGE_CURVE('',#409,#411,#175,.T.);
#499=EDGE_CURVE('',#412,#411,#224,.T.);
#500=EDGE_CURVE('',#412,#410,#176,.T.);
#501=EDGE_CURVE('',#413,#414,#177,.T.);
#502=EDGE_CURVE('',#415,#414,#225,.T.);
#503=EDGE_CURVE('',#415,#416,#178,.T.);
#504=EDGE_CURVE('',#413,#416,#226,.T.);
#505=EDGE_CURVE('',#417,#418,#179,.T.);
#506=EDGE_CURVE('',#419,#418,#227,.T.);
#507=EDGE_CURVE('',#419,#420,#180,.T.);
#508=EDGE_CURVE('',#417,#420,#228,.T.);
#509=EDGE_CURVE('',#410,#381,#229,.T.);
#510=EDGE_CURVE('',#382,#412,#230,.T.);
#511=EDGE_CURVE('',#373,#417,#231,.T.);
#512=EDGE_CURVE('',#418,#376,#232,.T.);
#513=EDGE_CURVE('',#406,#377,#233,.T.);
#514=EDGE_CURVE('',#378,#408,#234,.T.);
#515=EDGE_CURVE('',#369,#413,#235,.T.);
#516=EDGE_CURVE('',#414,#372,#236,.T.);
#517=EDGE_CURVE('',#370,#416,#237,.T.);
#518=EDGE_CURVE('',#379,#407,#238,.T.);
#519=EDGE_CURVE('',#374,#420,#239,.T.);
#520=EDGE_CURVE('',#383,#411,#240,.T.);
#521=EDGE_CURVE('',#389,#363,#241,.T.);
#522=EDGE_CURVE('',#390,#364,#242,.T.);
#523=EDGE_CURVE('',#399,#354,#243,.T.);
#524=EDGE_CURVE('',#398,#355,#244,.T.);
#525=EDGE_CURVE('',#349,#404,#245,.T.);
#526=EDGE_CURVE('',#409,#384,#246,.T.);
#527=EDGE_CURVE('',#357,#396,#247,.T.);
#528=EDGE_CURVE('',#397,#356,#248,.T.);
#529=EDGE_CURVE('',#415,#371,#249,.T.);
#530=EDGE_CURVE('',#391,#362,#250,.T.);
#531=EDGE_CURVE('',#405,#380,#251,.T.);
#532=EDGE_CURVE('',#361,#392,#252,.T.);
#533=EDGE_CURVE('',#395,#358,#253,.T.);
#534=EDGE_CURVE('',#353,#400,#254,.T.);
#535=EDGE_CURVE('',#394,#359,#255,.T.);
#536=EDGE_CURVE('',#393,#360,#256,.T.);
#537=EDGE_CURVE('',#403,#350,#257,.T.);
#538=EDGE_CURVE('',#402,#351,#258,.T.);
#539=EDGE_CURVE('',#401,#352,#259,.T.);
#540=EDGE_CURVE('',#419,#375,#260,.T.);
#541=ORIENTED_EDGE('',*,*,#421,.F.);
#542=ORIENTED_EDGE('',*,*,#422,.F.);
#543=ORIENTED_EDGE('',*,*,#423,.F.);
#544=ORIENTED_EDGE('',*,*,#424,.F.);
#545=ORIENTED_EDGE('',*,*,#423,.T.);
#546=ORIENTED_EDGE('',*,*,#425,.F.);
#547=ORIENTED_EDGE('',*,*,#426,.T.);
#548=ORIENTED_EDGE('',*,*,#427,.F.);
#549=ORIENTED_EDGE('',*,*,#421,.T.);
#550=ORIENTED_EDGE('',*,*,#428,.F.);
#551=ORIENTED_EDGE('',*,*,#429,.T.);
#552=ORIENTED_EDGE('',*,*,#430,.F.);
#553=ORIENTED_EDGE('',*,*,#431,.T.);
#554=ORIENTED_EDGE('',*,*,#432,.T.);
#555=ORIENTED_EDGE('',*,*,#433,.T.);
#556=ORIENTED_EDGE('',*,*,#434,.T.);
#557=ORIENTED_EDGE('',*,*,#435,.T.);
#558=ORIENTED_EDGE('',*,*,#436,.T.);
#559=ORIENTED_EDGE('',*,*,#437,.T.);
#560=ORIENTED_EDGE('',*,*,#438,.T.);
#561=ORIENTED_EDGE('',*,*,#439,.T.);
#562=ORIENTED_EDGE('',*,*,#440,.T.);
#563=ORIENTED_EDGE('',*,*,#441,.T.);
#564=ORIENTED_EDGE('',*,*,#442,.T.);
#565=ORIENTED_EDGE('',*,*,#443,.T.);
#566=ORIENTED_EDGE('',*,*,#444,.T.);
#567=ORIENTED_EDGE('',*,*,#445,.T.);
#568=ORIENTED_EDGE('',*,*,#446,.T.);
#569=ORIENTED_EDGE('',*,*,#424,.T.);
#570=ORIENTED_EDGE('',*,*,#427,.T.);
#571=ORIENTED_EDGE('',*,*,#447,.T.);
#572=ORIENTED_EDGE('',*,*,#448,.T.);
#573=ORIENTED_EDGE('',*,*,#449,.T.);
#574=ORIENTED_EDGE('',*,*,#450,.T.);
#575=ORIENTED_EDGE('',*,*,#451,.T.);
#576=ORIENTED_EDGE('',*,*,#428,.T.);
#577=ORIENTED_EDGE('',*,*,#452,.T.);
#578=ORIENTED_EDGE('',*,*,#453,.T.);
#579=ORIENTED_EDGE('',*,*,#454,.T.);
#580=ORIENTED_EDGE('',*,*,#455,.T.);
#581=ORIENTED_EDGE('',*,*,#456,.T.);
#582=ORIENTED_EDGE('',*,*,#457,.T.);
#583=ORIENTED_EDGE('',*,*,#458,.T.);
#584=ORIENTED_EDGE('',*,*,#459,.T.);
#585=ORIENTED_EDGE('',*,*,#460,.T.);
#586=ORIENTED_EDGE('',*,*,#461,.T.);
#587=ORIENTED_EDGE('',*,*,#462,.T.);
#588=ORIENTED_EDGE('',*,*,#463,.T.);
#589=ORIENTED_EDGE('',*,*,#464,.T.);
#590=ORIENTED_EDGE('',*,*,#465,.T.);
#591=ORIENTED_EDGE('',*,*,#466,.T.);
#592=ORIENTED_EDGE('',*,*,#467,.T.);
#593=ORIENTED_EDGE('',*,*,#426,.F.);
#594=ORIENTED_EDGE('',*,*,#468,.F.);
#595=ORIENTED_EDGE('',*,*,#469,.F.);
#596=ORIENTED_EDGE('',*,*,#447,.F.);
#597=ORIENTED_EDGE('',*,*,#469,.T.);
#598=ORIENTED_EDGE('',*,*,#470,.F.);
#599=ORIENTED_EDGE('',*,*,#471,.T.);
#600=ORIENTED_EDGE('',*,*,#448,.F.);
#601=ORIENTED_EDGE('',*,*,#472,.F.);
#602=ORIENTED_EDGE('',*,*,#449,.F.);
#603=ORIENTED_EDGE('',*,*,#471,.F.);
#604=ORIENTED_EDGE('',*,*,#473,.F.);
#605=ORIENTED_EDGE('',*,*,#472,.T.);
#606=ORIENTED_EDGE('',*,*,#474,.F.);
#607=ORIENTED_EDGE('',*,*,#475,.T.);
#608=ORIENTED_EDGE('',*,*,#450,.F.);
#609=ORIENTED_EDGE('',*,*,#476,.F.);
#610=ORIENTED_EDGE('',*,*,#477,.F.);
#611=ORIENTED_EDGE('',*,*,#478,.T.);
#612=ORIENTED_EDGE('',*,*,#479,.F.);
#613=ORIENTED_EDGE('',*,*,#480,.F.);
#614=ORIENTED_EDGE('',*,*,#481,.F.);
#615=ORIENTED_EDGE('',*,*,#482,.T.);
#616=ORIENTED_EDGE('',*,*,#483,.F.);
#617=ORIENTED_EDGE('',*,*,#484,.F.);
#618=ORIENTED_EDGE('',*,*,#485,.F.);
#619=ORIENTED_EDGE('',*,*,#486,.T.);
#620=ORIENTED_EDGE('',*,*,#487,.F.);
#621=ORIENTED_EDGE('',*,*,#488,.F.);
#622=ORIENTED_EDGE('',*,*,#489,.F.);
#623=ORIENTED_EDGE('',*,*,#490,.T.);
#624=ORIENTED_EDGE('',*,*,#491,.F.);
#625=ORIENTED_EDGE('',*,*,#422,.T.);
#626=ORIENTED_EDGE('',*,*,#430,.T.);
#627=ORIENTED_EDGE('',*,*,#492,.T.);
#628=ORIENTED_EDGE('',*,*,#474,.T.);
#629=ORIENTED_EDGE('',*,*,#473,.T.);
#630=ORIENTED_EDGE('',*,*,#470,.T.);
#631=ORIENTED_EDGE('',*,*,#468,.T.);
#632=ORIENTED_EDGE('',*,*,#425,.T.);
#633=ORIENTED_EDGE('',*,*,#493,.F.);
#634=ORIENTED_EDGE('',*,*,#494,.T.);
#635=ORIENTED_EDGE('',*,*,#495,.F.);
#636=ORIENTED_EDGE('',*,*,#496,.T.);
#637=ORIENTED_EDGE('',*,*,#497,.F.);
#638=ORIENTED_EDGE('',*,*,#498,.T.);
#639=ORIENTED_EDGE('',*,*,#499,.F.);
#640=ORIENTED_EDGE('',*,*,#500,.T.);
#641=ORIENTED_EDGE('',*,*,#501,.T.);
#642=ORIENTED_EDGE('',*,*,#502,.F.);
#643=ORIENTED_EDGE('',*,*,#503,.T.);
#644=ORIENTED_EDGE('',*,*,#504,.F.);
#645=ORIENTED_EDGE('',*,*,#505,.T.);
#646=ORIENTED_EDGE('',*,*,#506,.F.);
#647=ORIENTED_EDGE('',*,*,#507,.T.);
#648=ORIENTED_EDGE('',*,*,#508,.F.);
#649=ORIENTED_EDGE('',*,*,#429,.F.);
#650=ORIENTED_EDGE('',*,*,#451,.F.);
#651=ORIENTED_EDGE('',*,*,#475,.F.);
#652=ORIENTED_EDGE('',*,*,#492,.F.);
#653=ORIENTED_EDGE('',*,*,#509,.F.);
#654=ORIENTED_EDGE('',*,*,#500,.F.);
#655=ORIENTED_EDGE('',*,*,#510,.F.);
#656=ORIENTED_EDGE('',*,*,#464,.F.);
#657=ORIENTED_EDGE('',*,*,#511,.F.);
#658=ORIENTED_EDGE('',*,*,#459,.F.);
#659=ORIENTED_EDGE('',*,*,#512,.F.);
#660=ORIENTED_EDGE('',*,*,#505,.F.);
#661=ORIENTED_EDGE('',*,*,#513,.F.);
#662=ORIENTED_EDGE('',*,*,#496,.F.);
#663=ORIENTED_EDGE('',*,*,#514,.F.);
#664=ORIENTED_EDGE('',*,*,#460,.F.);
#665=ORIENTED_EDGE('',*,*,#515,.F.);
#666=ORIENTED_EDGE('',*,*,#455,.F.);
#667=ORIENTED_EDGE('',*,*,#516,.F.);
#668=ORIENTED_EDGE('',*,*,#501,.F.);
#669=ORIENTED_EDGE('',*,*,#515,.T.);
#670=ORIENTED_EDGE('',*,*,#504,.T.);
#671=ORIENTED_EDGE('',*,*,#517,.F.);
#672=ORIENTED_EDGE('',*,*,#452,.F.);
#673=ORIENTED_EDGE('',*,*,#514,.T.);
#674=ORIENTED_EDGE('',*,*,#495,.T.);
#675=ORIENTED_EDGE('',*,*,#518,.F.);
#676=ORIENTED_EDGE('',*,*,#461,.F.);
#677=ORIENTED_EDGE('',*,*,#511,.T.);
#678=ORIENTED_EDGE('',*,*,#508,.T.);
#679=ORIENTED_EDGE('',*,*,#519,.F.);
#680=ORIENTED_EDGE('',*,*,#456,.F.);
#681=ORIENTED_EDGE('',*,*,#510,.T.);
#682=ORIENTED_EDGE('',*,*,#499,.T.);
#683=ORIENTED_EDGE('',*,*,#520,.F.);
#684=ORIENTED_EDGE('',*,*,#465,.F.);
#685=ORIENTED_EDGE('',*,*,#445,.F.);
#686=ORIENTED_EDGE('',*,*,#521,.F.);
#687=ORIENTED_EDGE('',*,*,#476,.T.);
#688=ORIENTED_EDGE('',*,*,#522,.T.);
#689=ORIENTED_EDGE('',*,*,#523,.F.);
#690=ORIENTED_EDGE('',*,*,#485,.T.);
#691=ORIENTED_EDGE('',*,*,#524,.T.);
#692=ORIENTED_EDGE('',*,*,#436,.F.);
#693=ORIENTED_EDGE('',*,*,#525,.F.);
#694=ORIENTED_EDGE('',*,*,#446,.F.);
#695=ORIENTED_EDGE('',*,*,#522,.F.);
#696=ORIENTED_EDGE('',*,*,#491,.T.);
#697=ORIENTED_EDGE('',*,*,#509,.T.);
#698=ORIENTED_EDGE('',*,*,#467,.F.);
#699=ORIENTED_EDGE('',*,*,#526,.F.);
#700=ORIENTED_EDGE('',*,*,#497,.T.);
#701=ORIENTED_EDGE('',*,*,#527,.F.);
#702=ORIENTED_EDGE('',*,*,#438,.F.);
#703=ORIENTED_EDGE('',*,*,#528,.F.);
#704=ORIENTED_EDGE('',*,*,#483,.T.);
#705=ORIENTED_EDGE('',*,*,#516,.T.);
#706=ORIENTED_EDGE('',*,*,#454,.F.);
#707=ORIENTED_EDGE('',*,*,#529,.F.);
#708=ORIENTED_EDGE('',*,*,#502,.T.);
#709=ORIENTED_EDGE('',*,*,#530,.F.);
#710=ORIENTED_EDGE('',*,*,#477,.T.);
#711=ORIENTED_EDGE('',*,*,#521,.T.);
#712=ORIENTED_EDGE('',*,*,#444,.F.);
#713=ORIENTED_EDGE('',*,*,#437,.F.);
#714=ORIENTED_EDGE('',*,*,#524,.F.);
#715=ORIENTED_EDGE('',*,*,#484,.T.);
#716=ORIENTED_EDGE('',*,*,#528,.T.);
#717=ORIENTED_EDGE('',*,*,#513,.T.);
#718=ORIENTED_EDGE('',*,*,#463,.F.);
#719=ORIENTED_EDGE('',*,*,#531,.F.);
#720=ORIENTED_EDGE('',*,*,#493,.T.);
#721=ORIENTED_EDGE('',*,*,#518,.T.);
#722=ORIENTED_EDGE('',*,*,#494,.F.);
#723=ORIENTED_EDGE('',*,*,#531,.T.);
#724=ORIENTED_EDGE('',*,*,#462,.F.);
#725=ORIENTED_EDGE('',*,*,#526,.T.);
#726=ORIENTED_EDGE('',*,*,#466,.F.);
#727=ORIENTED_EDGE('',*,*,#520,.T.);
#728=ORIENTED_EDGE('',*,*,#498,.F.);
#729=ORIENTED_EDGE('',*,*,#530,.T.);
#730=ORIENTED_EDGE('',*,*,#443,.F.);
#731=ORIENTED_EDGE('',*,*,#532,.T.);
#732=ORIENTED_EDGE('',*,*,#478,.F.);
#733=ORIENTED_EDGE('',*,*,#529,.T.);
#734=ORIENTED_EDGE('',*,*,#453,.F.);
#735=ORIENTED_EDGE('',*,*,#517,.T.);
#736=ORIENTED_EDGE('',*,*,#503,.F.);
#737=ORIENTED_EDGE('',*,*,#527,.T.);
#738=ORIENTED_EDGE('',*,*,#482,.F.);
#739=ORIENTED_EDGE('',*,*,#533,.T.);
#740=ORIENTED_EDGE('',*,*,#439,.F.);
#741=ORIENTED_EDGE('',*,*,#523,.T.);
#742=ORIENTED_EDGE('',*,*,#435,.F.);
#743=ORIENTED_EDGE('',*,*,#534,.T.);
#744=ORIENTED_EDGE('',*,*,#486,.F.);
#745=ORIENTED_EDGE('',*,*,#441,.F.);
#746=ORIENTED_EDGE('',*,*,#535,.F.);
#747=ORIENTED_EDGE('',*,*,#480,.T.);
#748=ORIENTED_EDGE('',*,*,#536,.T.);
#749=ORIENTED_EDGE('',*,*,#537,.F.);
#750=ORIENTED_EDGE('',*,*,#489,.T.);
#751=ORIENTED_EDGE('',*,*,#538,.T.);
#752=ORIENTED_EDGE('',*,*,#432,.F.);
#753=ORIENTED_EDGE('',*,*,#532,.F.);
#754=ORIENTED_EDGE('',*,*,#442,.F.);
#755=ORIENTED_EDGE('',*,*,#536,.F.);
#756=ORIENTED_EDGE('',*,*,#479,.T.);
#757=ORIENTED_EDGE('',*,*,#534,.F.);
#758=ORIENTED_EDGE('',*,*,#434,.F.);
#759=ORIENTED_EDGE('',*,*,#539,.F.);
#760=ORIENTED_EDGE('',*,*,#487,.T.);
#761=ORIENTED_EDGE('',*,*,#533,.F.);
#762=ORIENTED_EDGE('',*,*,#481,.T.);
#763=ORIENTED_EDGE('',*,*,#535,.T.);
#764=ORIENTED_EDGE('',*,*,#440,.F.);
#765=ORIENTED_EDGE('',*,*,#433,.F.);
#766=ORIENTED_EDGE('',*,*,#538,.F.);
#767=ORIENTED_EDGE('',*,*,#488,.T.);
#768=ORIENTED_EDGE('',*,*,#539,.T.);
#769=ORIENTED_EDGE('',*,*,#512,.T.);
#770=ORIENTED_EDGE('',*,*,#458,.F.);
#771=ORIENTED_EDGE('',*,*,#540,.F.);
#772=ORIENTED_EDGE('',*,*,#506,.T.);
#773=ORIENTED_EDGE('',*,*,#519,.T.);
#774=ORIENTED_EDGE('',*,*,#507,.F.);
#775=ORIENTED_EDGE('',*,*,#540,.T.);
#776=ORIENTED_EDGE('',*,*,#457,.F.);
#777=ORIENTED_EDGE('',*,*,#525,.T.);
#778=ORIENTED_EDGE('',*,*,#490,.F.);
#779=ORIENTED_EDGE('',*,*,#537,.T.);
#780=ORIENTED_EDGE('',*,*,#431,.F.);
#781=CYLINDRICAL_SURFACE('',#866,1.6);
#782=CYLINDRICAL_SURFACE('',#869,15.);
#783=CYLINDRICAL_SURFACE('',#872,15.);
#784=CYLINDRICAL_SURFACE('',#893,1.6);
#785=CYLINDRICAL_SURFACE('',#895,15.);
#786=CYLINDRICAL_SURFACE('',#897,1.6);
#787=CYLINDRICAL_SURFACE('',#899,15.);
#788=CYLINDRICAL_SURFACE('',#915,1.6);
#789=CYLINDRICAL_SURFACE('',#916,20.);
#790=CYLINDRICAL_SURFACE('',#917,20.);
#791=CYLINDRICAL_SURFACE('',#918,20.);
#792=CYLINDRICAL_SURFACE('',#919,20.);
#793=CYLINDRICAL_SURFACE('',#933,49.);
#794=CYLINDRICAL_SURFACE('',#934,49.);
#795=CYLINDRICAL_SURFACE('',#935,55.);
#796=CYLINDRICAL_SURFACE('',#936,49.);
#797=CYLINDRICAL_SURFACE('',#937,55.);
#798=CYLINDRICAL_SURFACE('',#938,55.);
#799=CYLINDRICAL_SURFACE('',#946,49.);
#800=CYLINDRICAL_SURFACE('',#947,55.);
#801=ADVANCED_FACE('',(#47),#781,.F.);
#802=ADVANCED_FACE('',(#48),#782,.F.);
#803=ADVANCED_FACE('',(#49),#783,.F.);
#804=ADVANCED_FACE('',(#50,#15,#16,#17,#18,#19),#25,.T.);
#805=ADVANCED_FACE('',(#51),#784,.F.);
#806=ADVANCED_FACE('',(#52),#785,.F.);
#807=ADVANCED_FACE('',(#53),#786,.F.);
#808=ADVANCED_FACE('',(#54),#787,.F.);
#809=ADVANCED_FACE('',(#55,#20,#21,#22,#23,#24),#26,.F.);
#810=ADVANCED_FACE('',(#56),#788,.F.);
#811=ADVANCED_FACE('',(#57),#789,.T.);
#812=ADVANCED_FACE('',(#58),#790,.T.);
#813=ADVANCED_FACE('',(#59),#791,.T.);
#814=ADVANCED_FACE('',(#60),#792,.T.);
#815=ADVANCED_FACE('',(#61),#27,.T.);
#816=ADVANCED_FACE('',(#62),#28,.T.);
#817=ADVANCED_FACE('',(#63),#29,.T.);
#818=ADVANCED_FACE('',(#64),#30,.T.);
#819=ADVANCED_FACE('',(#65),#31,.T.);
#820=ADVANCED_FACE('',(#66),#32,.T.);
#821=ADVANCED_FACE('',(#67),#33,.T.);
#822=ADVANCED_FACE('',(#68),#34,.T.);
#823=ADVANCED_FACE('',(#69),#35,.T.);
#824=ADVANCED_FACE('',(#70),#36,.T.);
#825=ADVANCED_FACE('',(#71),#37,.T.);
#826=ADVANCED_FACE('',(#72),#38,.T.);
#827=ADVANCED_FACE('',(#73),#39,.T.);
#828=ADVANCED_FACE('',(#74),#793,.F.);
#829=ADVANCED_FACE('',(#75),#794,.F.);
#830=ADVANCED_FACE('',(#76),#795,.T.);
#831=ADVANCED_FACE('',(#77),#796,.F.);
#832=ADVANCED_FACE('',(#78),#797,.T.);
#833=ADVANCED_FACE('',(#79),#798,.T.);
#834=ADVANCED_FACE('',(#80),#40,.T.);
#835=ADVANCED_FACE('',(#81),#41,.T.);
#836=ADVANCED_FACE('',(#82),#42,.T.);
#837=ADVANCED_FACE('',(#83),#43,.T.);
#838=ADVANCED_FACE('',(#84),#44,.T.);
#839=ADVANCED_FACE('',(#85),#45,.T.);
#840=ADVANCED_FACE('',(#86),#46,.T.);
#841=ADVANCED_FACE('',(#87),#799,.F.);
#842=ADVANCED_FACE('',(#88),#800,.T.);
#843=CLOSED_SHELL('',(#801,#802,#803,#804,#805,#806,#807,#808,#809,#810,
#811,#812,#813,#814,#815,#816,#817,#818,#819,#820,#821,#822,#823,#824,#825,
#826,#827,#828,#829,#830,#831,#832,#833,#834,#835,#836,#837,#838,#839,#840,
#841,#842));
#844=DERIVED_UNIT_ELEMENT(#847,1.);
#845=DERIVED_UNIT_ELEMENT(#1442,-3.);
#846=DIMENSIONAL_EXPONENTS(0.,1.,0.,0.,0.,0.,0.);
#847=(
CONVERSION_BASED_UNIT('gram',#849)
MASS_UNIT()
NAMED_UNIT(#846)
);
#848=(
MASS_UNIT()
NAMED_UNIT(*)
SI_UNIT(.KILO.,.GRAM.)
);
#849=MASS_MEASURE_WITH_UNIT(MASS_MEASURE(0.001),#848);
#850=DERIVED_UNIT((#844,#845));
#851=MEASURE_REPRESENTATION_ITEM('density measure',
POSITIVE_RATIO_MEASURE(8.),#850);
#852=PROPERTY_DEFINITION_REPRESENTATION(#857,#854);
#853=PROPERTY_DEFINITION_REPRESENTATION(#858,#855);
#854=REPRESENTATION('material name',(#856),#1439);
#855=REPRESENTATION('density',(#851),#1439);
#856=DESCRIPTIVE_REPRESENTATION_ITEM('\X2\30B930C630F330EC30B992FC\X0\',
'\X2\30B930C630F330EC30B992FC\X0\');
#857=PROPERTY_DEFINITION('material property','material name',#1449);
#858=PROPERTY_DEFINITION('material property','density of part',#1449);
#859=DATE_TIME_ROLE('creation_date');
#860=APPLIED_DATE_AND_TIME_ASSIGNMENT(#861,#859,(#1449));
#861=DATE_AND_TIME(#862,#863);
#862=CALENDAR_DATE(2026,8,10);
#863=LOCAL_TIME(0,0,0.,#864);
#864=COORDINATED_UNIVERSAL_TIME_OFFSET(0,0,.BEHIND.);
#865=AXIS2_PLACEMENT_3D('',#1194,#948,#949);
#866=AXIS2_PLACEMENT_3D('',#1195,#950,#951);
#867=AXIS2_PLACEMENT_3D('',#1200,#953,#954);
#868=AXIS2_PLACEMENT_3D('',#1203,#956,#957);
#869=AXIS2_PLACEMENT_3D('',#1204,#958,#959);
#870=AXIS2_PLACEMENT_3D('',#1206,#960,#961);
#871=AXIS2_PLACEMENT_3D('',#1209,#963,#964);
#872=AXIS2_PLACEMENT_3D('',#1210,#965,#966);
#873=AXIS2_PLACEMENT_3D('',#1212,#967,#968);
#874=AXIS2_PLACEMENT_3D('',#1215,#970,#971);
#875=AXIS2_PLACEMENT_3D('',#1216,#972,#973);
#876=AXIS2_PLACEMENT_3D('',#1219,#974,#975);
#877=AXIS2_PLACEMENT_3D('',#1227,#979,#980);
#878=AXIS2_PLACEMENT_3D('',#1235,#984,#985);
#879=AXIS2_PLACEMENT_3D('',#1243,#989,#990);
#880=AXIS2_PLACEMENT_3D('',#1250,#994,#995);
#881=AXIS2_PLACEMENT_3D('',#1252,#996,#997);
#882=AXIS2_PLACEMENT_3D('',#1254,#998,#999);
#883=AXIS2_PLACEMENT_3D('',#1256,#1000,#1001);
#884=AXIS2_PLACEMENT_3D('',#1257,#1002,#1003);
#885=AXIS2_PLACEMENT_3D('',#1262,#1005,#1006);
#886=AXIS2_PLACEMENT_3D('',#1265,#1008,#1009);
#887=AXIS2_PLACEMENT_3D('',#1270,#1011,#1012);
#888=AXIS2_PLACEMENT_3D('',#1273,#1014,#1015);
#889=AXIS2_PLACEMENT_3D('',#1276,#1016,#1017);
#890=AXIS2_PLACEMENT_3D('',#1280,#1019,#1020);
#891=AXIS2_PLACEMENT_3D('',#1284,#1022,#1023);
#892=AXIS2_PLACEMENT_3D('',#1288,#1025,#1026);
#893=AXIS2_PLACEMENT_3D('',#1290,#1028,#1029);
#894=AXIS2_PLACEMENT_3D('',#1292,#1030,#1031);
#895=AXIS2_PLACEMENT_3D('',#1294,#1033,#1034);
#896=AXIS2_PLACEMENT_3D('',#1296,#1035,#1036);
#897=AXIS2_PLACEMENT_3D('',#1298,#1038,#1039);
#898=AXIS2_PLACEMENT_3D('',#1301,#1041,#1042);
#899=AXIS2_PLACEMENT_3D('',#1302,#1043,#1044);
#900=AXIS2_PLACEMENT_3D('',#1304,#1045,#1046);
#901=AXIS2_PLACEMENT_3D('',#1306,#1048,#1049);
#902=AXIS2_PLACEMENT_3D('',#1313,#1052,#1053);
#903=AXIS2_PLACEMENT_3D('',#1321,#1057,#1058);
#904=AXIS2_PLACEMENT_3D('',#1329,#1062,#1063);
#905=AXIS2_PLACEMENT_3D('',#1337,#1067,#1068);
#906=AXIS2_PLACEMENT_3D('',#1339,#1070,#1071);
#907=AXIS2_PLACEMENT_3D('',#1344,#1073,#1074);
#908=AXIS2_PLACEMENT_3D('',#1347,#1076,#1077);
#909=AXIS2_PLACEMENT_3D('',#1352,#1079,#1080);
#910=AXIS2_PLACEMENT_3D('',#1355,#1082,#1083);
#911=AXIS2_PLACEMENT_3D('',#1358,#1084,#1085);
#912=AXIS2_PLACEMENT_3D('',#1362,#1087,#1088);
#913=AXIS2_PLACEMENT_3D('',#1366,#1090,#1091);
#914=AXIS2_PLACEMENT_3D('',#1370,#1093,#1094);
#915=AXIS2_PLACEMENT_3D('',#1372,#1096,#1097);
#916=AXIS2_PLACEMENT_3D('',#1373,#1098,#1099);
#917=AXIS2_PLACEMENT_3D('',#1376,#1102,#1103);
#918=AXIS2_PLACEMENT_3D('',#1379,#1106,#1107);
#919=AXIS2_PLACEMENT_3D('',#1382,#1110,#1111);
#920=AXIS2_PLACEMENT_3D('',#1385,#1114,#1115);
#921=AXIS2_PLACEMENT_3D('',#1387,#1117,#1118);
#922=AXIS2_PLACEMENT_3D('',#1389,#1120,#1121);
#923=AXIS2_PLACEMENT_3D('',#1391,#1123,#1124);
#924=AXIS2_PLACEMENT_3D('',#1393,#1126,#1127);
#925=AXIS2_PLACEMENT_3D('',#1396,#1130,#1131);
#926=AXIS2_PLACEMENT_3D('',#1399,#1134,#1135);
#927=AXIS2_PLACEMENT_3D('',#1401,#1137,#1138);
#928=AXIS2_PLACEMENT_3D('',#1403,#1140,#1141);
#929=AXIS2_PLACEMENT_3D('',#1406,#1144,#1145);
#930=AXIS2_PLACEMENT_3D('',#1408,#1147,#1148);
#931=AXIS2_PLACEMENT_3D('',#1410,#1150,#1151);
#932=AXIS2_PLACEMENT_3D('',#1411,#1152,#1153);
#933=AXIS2_PLACEMENT_3D('',#1413,#1155,#1156);
#934=AXIS2_PLACEMENT_3D('',#1414,#1157,#1158);
#935=AXIS2_PLACEMENT_3D('',#1415,#1159,#1160);
#936=AXIS2_PLACEMENT_3D('',#1417,#1162,#1163);
#937=AXIS2_PLACEMENT_3D('',#1418,#1164,#1165);
#938=AXIS2_PLACEMENT_3D('',#1420,#1167,#1168);
#939=AXIS2_PLACEMENT_3D('',#1422,#1170,#1171);
#940=AXIS2_PLACEMENT_3D('',#1425,#1174,#1175);
#941=AXIS2_PLACEMENT_3D('',#1428,#1178,#1179);
#942=AXIS2_PLACEMENT_3D('',#1429,#1180,#1181);
#943=AXIS2_PLACEMENT_3D('',#1431,#1183,#1184);
#944=AXIS2_PLACEMENT_3D('',#1432,#1185,#1186);
#945=AXIS2_PLACEMENT_3D('',#1433,#1187,#1188);
#946=AXIS2_PLACEMENT_3D('',#1435,#1190,#1191);
#947=AXIS2_PLACEMENT_3D('',#1436,#1192,#1193);
#948=DIRECTION('axis',(0.,0.,1.));
#949=DIRECTION('refdir',(1.,0.,0.));
#950=DIRECTION('center_axis',(0.,0.,1.));
#951=DIRECTION('ref_axis',(-7.04481399828022E-16,-1.,0.));
#952=DIRECTION('',(0.,0.,1.));
#953=DIRECTION('center_axis',(0.,0.,1.));
#954=DIRECTION('ref_axis',(-1.,0.,0.));
#955=DIRECTION('',(0.,0.,-1.));
#956=DIRECTION('center_axis',(0.,0.,-1.));
#957=DIRECTION('ref_axis',(-1.,0.,0.));
#958=DIRECTION('center_axis',(0.,0.,1.));
#959=DIRECTION('ref_axis',(-1.,0.,0.));
#960=DIRECTION('center_axis',(0.,0.,1.));
#961=DIRECTION('ref_axis',(-1.,0.,0.));
#962=DIRECTION('',(0.,0.,1.));
#963=DIRECTION('center_axis',(0.,0.,-1.));
#964=DIRECTION('ref_axis',(-1.,0.,0.));
#965=DIRECTION('center_axis',(0.,0.,1.));
#966=DIRECTION('ref_axis',(-1.,0.,0.));
#967=DIRECTION('center_axis',(0.,0.,-1.));
#968=DIRECTION('ref_axis',(-1.,0.,0.));
#969=DIRECTION('',(0.,0.,-1.));
#970=DIRECTION('center_axis',(0.,0.,1.));
#971=DIRECTION('ref_axis',(-1.,0.,0.));
#972=DIRECTION('center_axis',(0.,0.,1.));
#973=DIRECTION('ref_axis',(1.,0.,0.));
#974=DIRECTION('center_axis',(0.,0.,1.));
#975=DIRECTION('ref_axis',(-1.,0.,0.));
#976=DIRECTION('',(-1.,0.,0.));
#977=DIRECTION('',(0.,-1.,0.));
#978=DIRECTION('',(1.,0.,0.));
#979=DIRECTION('center_axis',(0.,0.,1.));
#980=DIRECTION('ref_axis',(-1.,0.,0.));
#981=DIRECTION('',(0.,-1.,0.));
#982=DIRECTION('',(1.,0.,0.));
#983=DIRECTION('',(0.,1.,0.));
#984=DIRECTION('center_axis',(0.,0.,1.));
#985=DIRECTION('ref_axis',(-1.,0.,0.));
#986=DIRECTION('',(1.,0.,0.));
#987=DIRECTION('',(0.,1.,0.));
#988=DIRECTION('',(-1.,0.,0.));
#989=DIRECTION('center_axis',(0.,0.,1.));
#990=DIRECTION('ref_axis',(-1.,0.,0.));
#991=DIRECTION('',(0.,1.,0.));
#992=DIRECTION('',(-1.,0.,0.));
#993=DIRECTION('',(0.,-1.,0.));
#994=DIRECTION('center_axis',(0.,0.,-1.));
#995=DIRECTION('ref_axis',(-1.,0.,0.));
#996=DIRECTION('center_axis',(0.,0.,-1.));
#997=DIRECTION('ref_axis',(-1.,0.,0.));
#998=DIRECTION('center_axis',(0.,0.,-1.));
#999=DIRECTION('ref_axis',(-1.,0.,0.));
#1000=DIRECTION('center_axis',(0.,0.,-1.));
#1001=DIRECTION('ref_axis',(-1.,0.,0.));
#1002=DIRECTION('center_axis',(0.,0.,-1.));
#1003=DIRECTION('ref_axis',(-1.,0.,0.));
#1004=DIRECTION('',(1.,0.,0.));
#1005=DIRECTION('center_axis',(0.,0.,-1.));
#1006=DIRECTION('ref_axis',(-1.,0.,0.));
#1007=DIRECTION('',(0.,1.,0.));
#1008=DIRECTION('center_axis',(0.,0.,1.));
#1009=DIRECTION('ref_axis',(-1.,0.,0.));
#1010=DIRECTION('',(0.,-1.,0.));
#1011=DIRECTION('center_axis',(0.,0.,-1.));
#1012=DIRECTION('ref_axis',(-1.,0.,0.));
#1013=DIRECTION('',(1.,0.,0.));
#1014=DIRECTION('center_axis',(0.,0.,1.));
#1015=DIRECTION('ref_axis',(-1.,0.,0.));
#1016=DIRECTION('center_axis',(0.,0.,1.));
#1017=DIRECTION('ref_axis',(-1.,0.,0.));
#1018=DIRECTION('',(0.,1.,0.));
#1019=DIRECTION('center_axis',(0.,0.,-1.));
#1020=DIRECTION('ref_axis',(-1.,0.,0.));
#1021=DIRECTION('',(-1.,0.,0.));
#1022=DIRECTION('center_axis',(0.,0.,1.));
#1023=DIRECTION('ref_axis',(-1.,0.,0.));
#1024=DIRECTION('',(-1.,0.,0.));
#1025=DIRECTION('center_axis',(0.,0.,-1.));
#1026=DIRECTION('ref_axis',(-1.,0.,0.));
#1027=DIRECTION('',(0.,-1.,0.));
#1028=DIRECTION('center_axis',(0.,0.,1.));
#1029=DIRECTION('ref_axis',(-1.,0.,0.));
#1030=DIRECTION('center_axis',(0.,0.,1.));
#1031=DIRECTION('ref_axis',(-1.,0.,0.));
#1032=DIRECTION('',(0.,0.,-1.));
#1033=DIRECTION('center_axis',(0.,0.,1.));
#1034=DIRECTION('ref_axis',(-1.,0.,0.));
#1035=DIRECTION('center_axis',(0.,0.,1.));
#1036=DIRECTION('ref_axis',(-1.,0.,0.));
#1037=DIRECTION('',(0.,0.,1.));
#1038=DIRECTION('center_axis',(0.,0.,1.));
#1039=DIRECTION('ref_axis',(-7.04481399828022E-16,1.,0.));
#1040=DIRECTION('',(0.,0.,-1.));
#1041=DIRECTION('center_axis',(0.,0.,1.));
#1042=DIRECTION('ref_axis',(-1.,0.,0.));
#1043=DIRECTION('center_axis',(0.,0.,1.));
#1044=DIRECTION('ref_axis',(-1.,0.,0.));
#1045=DIRECTION('center_axis',(0.,0.,1.));
#1046=DIRECTION('ref_axis',(-1.,0.,0.));
#1047=DIRECTION('',(0.,0.,1.));
#1048=DIRECTION('center_axis',(0.,0.,1.));
#1049=DIRECTION('ref_axis',(1.,0.,0.));
#1050=DIRECTION('',(-1.,0.,0.));
#1051=DIRECTION('',(0.,1.,0.));
#1052=DIRECTION('center_axis',(0.,0.,-1.));
#1053=DIRECTION('ref_axis',(-1.,0.,0.));
#1054=DIRECTION('',(-1.,0.,0.));
#1055=DIRECTION('',(0.,1.,0.));
#1056=DIRECTION('',(1.,0.,0.));
#1057=DIRECTION('center_axis',(0.,0.,-1.));
#1058=DIRECTION('ref_axis',(-1.,0.,0.));
#1059=DIRECTION('',(0.,1.,0.));
#1060=DIRECTION('',(1.,0.,0.));
#1061=DIRECTION('',(0.,-1.,0.));
#1062=DIRECTION('center_axis',(0.,0.,-1.));
#1063=DIRECTION('ref_axis',(-1.,0.,0.));
#1064=DIRECTION('',(1.,0.,0.));
#1065=DIRECTION('',(0.,-1.,0.));
#1066=DIRECTION('',(-1.,0.,0.));
#1067=DIRECTION('center_axis',(0.,0.,-1.));
#1068=DIRECTION('ref_axis',(-1.,0.,0.));
#1069=DIRECTION('',(0.,-1.,0.));
#1070=DIRECTION('center_axis',(0.,0.,1.));
#1071=DIRECTION('ref_axis',(-1.,0.,0.));
#1072=DIRECTION('',(-1.,0.,0.));
#1073=DIRECTION('center_axis',(0.,0.,1.));
#1074=DIRECTION('ref_axis',(-1.,0.,0.));
#1075=DIRECTION('',(0.,1.,0.));
#1076=DIRECTION('center_axis',(0.,0.,-1.));
#1077=DIRECTION('ref_axis',(-1.,0.,0.));
#1078=DIRECTION('',(0.,-1.,0.));
#1079=DIRECTION('center_axis',(0.,0.,1.));
#1080=DIRECTION('ref_axis',(-1.,0.,0.));
#1081=DIRECTION('',(-1.,0.,0.));
#1082=DIRECTION('center_axis',(0.,0.,-1.));
#1083=DIRECTION('ref_axis',(-1.,0.,0.));
#1084=DIRECTION('center_axis',(0.,0.,-1.));
#1085=DIRECTION('ref_axis',(-1.,0.,0.));
#1086=DIRECTION('',(0.,1.,0.));
#1087=DIRECTION('center_axis',(0.,0.,1.));
#1088=DIRECTION('ref_axis',(-1.,0.,0.));
#1089=DIRECTION('',(1.,0.,0.));
#1090=DIRECTION('center_axis',(0.,0.,-1.));
#1091=DIRECTION('ref_axis',(-1.,0.,0.));
#1092=DIRECTION('',(1.,0.,0.));
#1093=DIRECTION('center_axis',(0.,0.,1.));
#1094=DIRECTION('ref_axis',(-1.,0.,0.));
#1095=DIRECTION('',(0.,-1.,0.));
#1096=DIRECTION('center_axis',(0.,0.,1.));
#1097=DIRECTION('ref_axis',(1.,-1.22464679914735E-16,0.));
#1098=DIRECTION('center_axis',(0.,0.,1.));
#1099=DIRECTION('ref_axis',(-1.,0.,0.));
#1100=DIRECTION('',(0.,0.,1.));
#1101=DIRECTION('',(0.,0.,-1.));
#1102=DIRECTION('center_axis',(0.,0.,1.));
#1103=DIRECTION('ref_axis',(-1.,0.,0.));
#1104=DIRECTION('',(0.,0.,-1.));
#1105=DIRECTION('',(0.,0.,1.));
#1106=DIRECTION('center_axis',(0.,0.,1.));
#1107=DIRECTION('ref_axis',(-1.,0.,0.));
#1108=DIRECTION('',(0.,0.,1.));
#1109=DIRECTION('',(0.,0.,-1.));
#1110=DIRECTION('center_axis',(0.,0.,1.));
#1111=DIRECTION('ref_axis',(-1.,0.,0.));
#1112=DIRECTION('',(0.,0.,-1.));
#1113=DIRECTION('',(0.,0.,1.));
#1114=DIRECTION('center_axis',(0.,-1.,0.));
#1115=DIRECTION('ref_axis',(1.,0.,0.));
#1116=DIRECTION('',(0.,0.,-1.));
#1117=DIRECTION('center_axis',(1.,0.,0.));
#1118=DIRECTION('ref_axis',(0.,1.,0.));
#1119=DIRECTION('',(0.,0.,-1.));
#1120=DIRECTION('center_axis',(-1.,0.,0.));
#1121=DIRECTION('ref_axis',(0.,-1.,0.));
#1122=DIRECTION('',(0.,0.,-1.));
#1123=DIRECTION('center_axis',(0.,1.,0.));
#1124=DIRECTION('ref_axis',(-1.,0.,0.));
#1125=DIRECTION('',(0.,0.,-1.));
#1126=DIRECTION('center_axis',(0.,1.,0.));
#1127=DIRECTION('ref_axis',(-1.,0.,0.));
#1128=DIRECTION('',(0.,0.,1.));
#1129=DIRECTION('',(0.,0.,1.));
#1130=DIRECTION('center_axis',(-1.,0.,0.));
#1131=DIRECTION('ref_axis',(0.,-1.,0.));
#1132=DIRECTION('',(0.,0.,1.));
#1133=DIRECTION('',(0.,0.,1.));
#1134=DIRECTION('center_axis',(-1.,0.,0.));
#1135=DIRECTION('ref_axis',(0.,-1.,0.));
#1136=DIRECTION('',(0.,0.,-1.));
#1137=DIRECTION('center_axis',(-1.,0.,0.));
#1138=DIRECTION('ref_axis',(0.,-1.,0.));
#1139=DIRECTION('',(0.,0.,1.));
#1140=DIRECTION('center_axis',(1.,0.,0.));
#1141=DIRECTION('ref_axis',(0.,1.,0.));
#1142=DIRECTION('',(0.,0.,-1.));
#1143=DIRECTION('',(0.,0.,1.));
#1144=DIRECTION('center_axis',(1.,0.,0.));
#1145=DIRECTION('ref_axis',(0.,1.,0.));
#1146=DIRECTION('',(0.,0.,1.));
#1147=DIRECTION('center_axis',(1.,0.,0.));
#1148=DIRECTION('ref_axis',(0.,1.,0.));
#1149=DIRECTION('',(0.,0.,1.));
#1150=DIRECTION('center_axis',(0.,-1.,0.));
#1151=DIRECTION('ref_axis',(1.,0.,0.));
#1152=DIRECTION('center_axis',(0.,1.,0.));
#1153=DIRECTION('ref_axis',(-1.,0.,0.));
#1154=DIRECTION('',(0.,0.,1.));
#1155=DIRECTION('center_axis',(0.,0.,1.));
#1156=DIRECTION('ref_axis',(-1.,0.,0.));
#1157=DIRECTION('center_axis',(0.,0.,1.));
#1158=DIRECTION('ref_axis',(-1.,0.,0.));
#1159=DIRECTION('center_axis',(0.,0.,1.));
#1160=DIRECTION('ref_axis',(-1.,0.,0.));
#1161=DIRECTION('',(0.,0.,-1.));
#1162=DIRECTION('center_axis',(0.,0.,1.));
#1163=DIRECTION('ref_axis',(-1.,0.,0.));
#1164=DIRECTION('center_axis',(0.,0.,1.));
#1165=DIRECTION('ref_axis',(-1.,0.,0.));
#1166=DIRECTION('',(0.,0.,1.));
#1167=DIRECTION('center_axis',(0.,0.,1.));
#1168=DIRECTION('ref_axis',(-1.,0.,0.));
#1169=DIRECTION('',(0.,0.,-1.));
#1170=DIRECTION('center_axis',(1.,0.,0.));
#1171=DIRECTION('ref_axis',(0.,1.,0.));
#1172=DIRECTION('',(0.,0.,1.));
#1173=DIRECTION('',(0.,0.,1.));
#1174=DIRECTION('center_axis',(0.,1.,0.));
#1175=DIRECTION('ref_axis',(-1.,0.,0.));
#1176=DIRECTION('',(0.,0.,1.));
#1177=DIRECTION('',(0.,0.,1.));
#1178=DIRECTION('center_axis',(0.,1.,0.));
#1179=DIRECTION('ref_axis',(-1.,0.,0.));
#1180=DIRECTION('center_axis',(0.,-1.,0.));
#1181=DIRECTION('ref_axis',(1.,0.,0.));
#1182=DIRECTION('',(0.,0.,1.));
#1183=DIRECTION('center_axis',(0.,-1.,0.));
#1184=DIRECTION('ref_axis',(1.,0.,0.));
#1185=DIRECTION('center_axis',(-1.,0.,0.));
#1186=DIRECTION('ref_axis',(0.,-1.,0.));
#1187=DIRECTION('center_axis',(0.,-1.,0.));
#1188=DIRECTION('ref_axis',(1.,0.,0.));
#1189=DIRECTION('',(0.,0.,1.));
#1190=DIRECTION('center_axis',(0.,0.,1.));
#1191=DIRECTION('ref_axis',(-1.,0.,0.));
#1192=DIRECTION('center_axis',(0.,0.,1.));
#1193=DIRECTION('ref_axis',(-1.,0.,0.));
#1194=CARTESIAN_POINT('',(0.,0.,0.));
#1195=CARTESIAN_POINT('Origin',(-2.93915231795365E-15,-16.,37.8));
#1196=CARTESIAN_POINT('',(1.20835567508081,-14.95125,37.8));
#1197=CARTESIAN_POINT('',(1.2083556750808,-14.95125,39.));
#1198=CARTESIAN_POINT('',(1.20835567508081,-14.95125,37.8));
#1199=CARTESIAN_POINT('',(-1.20835567508081,-14.95125,37.8));
#1200=CARTESIAN_POINT('Origin',(-2.93915231795365E-15,-16.,37.8));
#1201=CARTESIAN_POINT('',(-1.2083556750808,-14.95125,39.));
#1202=CARTESIAN_POINT('',(-1.20835567508081,-14.95125,37.8));
#1203=CARTESIAN_POINT('Origin',(-2.93915231795365E-15,-16.,39.));
#1204=CARTESIAN_POINT('Origin',(0.,0.,37.8));
#1205=CARTESIAN_POINT('',(-14.95125,-1.20835567508081,37.8));
#1206=CARTESIAN_POINT('Origin',(0.,0.,37.8));
#1207=CARTESIAN_POINT('',(-14.95125,-1.20835567508081,39.));
#1208=CARTESIAN_POINT('',(-14.95125,-1.20835567508081,37.8));
#1209=CARTESIAN_POINT('Origin',(0.,0.,39.));
#1210=CARTESIAN_POINT('Origin',(0.,0.,37.8));
#1211=CARTESIAN_POINT('',(14.95125,-1.20835567508081,39.));
#1212=CARTESIAN_POINT('Origin',(0.,0.,39.));
#1213=CARTESIAN_POINT('',(14.95125,-1.20835567508081,37.8));
#1214=CARTESIAN_POINT('',(14.95125,-1.20835567508081,37.8));
#1215=CARTESIAN_POINT('Origin',(0.,0.,37.8));
#1216=CARTESIAN_POINT('Origin',(-4.86761606027648E-15,0.,39.));
#1217=CARTESIAN_POINT('',(-1.5,54.9795416495991,39.));
#1218=CARTESIAN_POINT('',(-54.9795416495991,1.5,39.));
#1219=CARTESIAN_POINT('Origin',(0.,0.,39.));
#1220=CARTESIAN_POINT('',(-55.,1.5,39.));
#1221=CARTESIAN_POINT('',(55.,1.5,39.));
#1222=CARTESIAN_POINT('',(-55.,-1.5,39.));
#1223=CARTESIAN_POINT('',(-55.,1.5,39.));
#1224=CARTESIAN_POINT('',(-54.9795416495991,-1.5,39.));
#1225=CARTESIAN_POINT('',(-55.,-1.5,39.));
#1226=CARTESIAN_POINT('',(-1.5,-54.9795416495991,39.));
#1227=CARTESIAN_POINT('Origin',(0.,0.,39.));
#1228=CARTESIAN_POINT('',(-1.5,-55.,39.));
#1229=CARTESIAN_POINT('',(-1.5,55.,39.));
#1230=CARTESIAN_POINT('',(1.5,-55.,39.));
#1231=CARTESIAN_POINT('',(-1.5,-55.,39.));
#1232=CARTESIAN_POINT('',(1.5,-54.9795416495991,39.));
#1233=CARTESIAN_POINT('',(1.5,-55.,39.));
#1234=CARTESIAN_POINT('',(54.9795416495991,-1.5,39.));
#1235=CARTESIAN_POINT('Origin',(0.,0.,39.));
#1236=CARTESIAN_POINT('',(55.,-1.5,39.));
#1237=CARTESIAN_POINT('',(-55.,-1.5,39.));
#1238=CARTESIAN_POINT('',(55.,1.5,39.));
#1239=CARTESIAN_POINT('',(55.,-1.5,39.));
#1240=CARTESIAN_POINT('',(54.9795416495991,1.5,39.));
#1241=CARTESIAN_POINT('',(55.,1.5,39.));
#1242=CARTESIAN_POINT('',(1.5,54.9795416495991,39.));
#1243=CARTESIAN_POINT('Origin',(0.,0.,39.));
#1244=CARTESIAN_POINT('',(1.5,55.,39.));
#1245=CARTESIAN_POINT('',(1.5,-55.,39.));
#1246=CARTESIAN_POINT('',(-1.5,55.,39.));
#1247=CARTESIAN_POINT('',(1.5,55.,39.));
#1248=CARTESIAN_POINT('',(-1.5,55.,39.));
#1249=CARTESIAN_POINT('',(-14.95125,1.20835567508081,39.));
#1250=CARTESIAN_POINT('Origin',(-16.,1.95943487863577E-15,39.));
#1251=CARTESIAN_POINT('',(-1.20835567508081,14.95125,39.));
#1252=CARTESIAN_POINT('Origin',(0.,0.,39.));
#1253=CARTESIAN_POINT('',(1.20835567508081,14.95125,39.));
#1254=CARTESIAN_POINT('Origin',(9.79717439317883E-16,16.,39.));
#1255=CARTESIAN_POINT('',(14.95125,1.20835567508081,39.));
#1256=CARTESIAN_POINT('Origin',(0.,0.,39.));
#1257=CARTESIAN_POINT('Origin',(16.,0.,39.));
#1258=CARTESIAN_POINT('',(19.9436706751791,-1.5,39.));
#1259=CARTESIAN_POINT('',(48.9770354349873,-1.5,39.));
#1260=CARTESIAN_POINT('',(-55.,-1.5,39.));
#1261=CARTESIAN_POINT('',(1.5,-48.9770354349873,39.));
#1262=CARTESIAN_POINT('Origin',(0.,0.,39.));
#1263=CARTESIAN_POINT('',(1.5,-19.9436706751791,39.));
#1264=CARTESIAN_POINT('',(1.5,-55.,39.));
#1265=CARTESIAN_POINT('Origin',(0.,0.,39.));
#1266=CARTESIAN_POINT('',(-1.5,-19.9436706751791,39.));
#1267=CARTESIAN_POINT('',(-1.5,-48.9770354349873,39.));
#1268=CARTESIAN_POINT('',(-1.5,55.,39.));
#1269=CARTESIAN_POINT('',(-48.9770354349873,-1.5,39.));
#1270=CARTESIAN_POINT('Origin',(0.,0.,39.));
#1271=CARTESIAN_POINT('',(-19.9436706751791,-1.5,39.));
#1272=CARTESIAN_POINT('',(-55.,-1.5,39.));
#1273=CARTESIAN_POINT('Origin',(0.,0.,39.));
#1274=CARTESIAN_POINT('',(19.9436706751791,1.5,39.));
#1275=CARTESIAN_POINT('',(1.5,19.9436706751791,39.));
#1276=CARTESIAN_POINT('Origin',(0.,0.,39.));
#1277=CARTESIAN_POINT('',(1.5,48.9770354349873,39.));
#1278=CARTESIAN_POINT('',(1.5,-55.,39.));
#1279=CARTESIAN_POINT('',(48.9770354349873,1.5,39.));
#1280=CARTESIAN_POINT('Origin',(0.,0.,39.));
#1281=CARTESIAN_POINT('',(55.,1.5,39.));
#1282=CARTESIAN_POINT('',(-1.5,19.9436706751791,39.));
#1283=CARTESIAN_POINT('',(-19.9436706751791,1.5,39.));
#1284=CARTESIAN_POINT('Origin',(0.,0.,39.));
#1285=CARTESIAN_POINT('',(-48.9770354349873,1.5,39.));
#1286=CARTESIAN_POINT('',(55.,1.5,39.));
#1287=CARTESIAN_POINT('',(-1.5,48.9770354349873,39.));
#1288=CARTESIAN_POINT('Origin',(0.,0.,39.));
#1289=CARTESIAN_POINT('',(-1.5,55.,39.));
#1290=CARTESIAN_POINT('Origin',(-16.,1.95943487863577E-15,37.8));
#1291=CARTESIAN_POINT('',(-14.95125,1.20835567508081,37.8));
#1292=CARTESIAN_POINT('Origin',(-16.,1.95943487863577E-15,37.8));
#1293=CARTESIAN_POINT('',(-14.95125,1.20835567508081,37.8));
#1294=CARTESIAN_POINT('Origin',(0.,0.,37.8));
#1295=CARTESIAN_POINT('',(-1.2083556750808,14.95125,37.8));
#1296=CARTESIAN_POINT('Origin',(0.,0.,37.8));
#1297=CARTESIAN_POINT('',(-1.20835567508081,14.95125,37.8));
#1298=CARTESIAN_POINT('Origin',(9.79717439317883E-16,16.,37.8));
#1299=CARTESIAN_POINT('',(1.2083556750808,14.95125,37.8));
#1300=CARTESIAN_POINT('',(1.20835567508081,14.95125,37.8));
#1301=CARTESIAN_POINT('Origin',(9.79717439317883E-16,16.,37.8));
#1302=CARTESIAN_POINT('Origin',(0.,0.,37.8));
#1303=CARTESIAN_POINT('',(14.95125,1.20835567508081,37.8));
#1304=CARTESIAN_POINT('Origin',(0.,0.,37.8));
#1305=CARTESIAN_POINT('',(14.95125,1.20835567508081,37.8));
#1306=CARTESIAN_POINT('Origin',(-4.86761606027648E-15,0.,37.8));
#1307=CARTESIAN_POINT('',(1.5,55.,37.8));
#1308=CARTESIAN_POINT('',(-1.5,55.,37.8));
#1309=CARTESIAN_POINT('',(1.5,55.,37.8));
#1310=CARTESIAN_POINT('',(1.5,54.9795416495991,37.8));
#1311=CARTESIAN_POINT('',(1.5,-55.,37.8));
#1312=CARTESIAN_POINT('',(54.9795416495991,1.5,37.8));
#1313=CARTESIAN_POINT('Origin',(0.,0.,37.8));
#1314=CARTESIAN_POINT('',(55.,1.5,37.8));
#1315=CARTESIAN_POINT('',(55.,1.5,37.8));
#1316=CARTESIAN_POINT('',(55.,-1.5,37.8));
#1317=CARTESIAN_POINT('',(55.,-1.5,37.8));
#1318=CARTESIAN_POINT('',(54.9795416495991,-1.5,37.8));
#1319=CARTESIAN_POINT('',(-55.,-1.5,37.8));
#1320=CARTESIAN_POINT('',(1.5,-54.9795416495991,37.8));
#1321=CARTESIAN_POINT('Origin',(0.,0.,37.8));
#1322=CARTESIAN_POINT('',(1.5,-55.,37.8));
#1323=CARTESIAN_POINT('',(1.5,-55.,37.8));
#1324=CARTESIAN_POINT('',(-1.5,-55.,37.8));
#1325=CARTESIAN_POINT('',(-1.5,-55.,37.8));
#1326=CARTESIAN_POINT('',(-1.5,-54.9795416495991,37.8));
#1327=CARTESIAN_POINT('',(-1.5,55.,37.8));
#1328=CARTESIAN_POINT('',(-54.9795416495991,-1.5,37.8));
#1329=CARTESIAN_POINT('Origin',(0.,0.,37.8));
#1330=CARTESIAN_POINT('',(-55.,-1.5,37.8));
#1331=CARTESIAN_POINT('',(-55.,-1.5,37.8));
#1332=CARTESIAN_POINT('',(-55.,1.5,37.8));
#1333=CARTESIAN_POINT('',(-55.,1.5,37.8));
#1334=CARTESIAN_POINT('',(-54.9795416495991,1.5,37.8));
#1335=CARTESIAN_POINT('',(55.,1.5,37.8));
#1336=CARTESIAN_POINT('',(-1.5,54.9795416495991,37.8));
#1337=CARTESIAN_POINT('Origin',(0.,0.,37.8));
#1338=CARTESIAN_POINT('',(-1.5,55.,37.8));
#1339=CARTESIAN_POINT('Origin',(16.,0.,37.8));
#1340=CARTESIAN_POINT('',(48.9770354349873,1.5,37.8));
#1341=CARTESIAN_POINT('',(19.9436706751791,1.5,37.8));
#1342=CARTESIAN_POINT('',(55.,1.5,37.8));
#1343=CARTESIAN_POINT('',(1.5,48.9770354349873,37.8));
#1344=CARTESIAN_POINT('Origin',(0.,0.,37.8));
#1345=CARTESIAN_POINT('',(1.5,19.9436706751791,37.8));
#1346=CARTESIAN_POINT('',(1.5,-55.,37.8));
#1347=CARTESIAN_POINT('Origin',(0.,0.,37.8));
#1348=CARTESIAN_POINT('',(-1.5,48.9770354349873,37.8));
#1349=CARTESIAN_POINT('',(-1.5,19.9436706751791,37.8));
#1350=CARTESIAN_POINT('',(-1.5,55.,37.8));
#1351=CARTESIAN_POINT('',(-48.9770354349873,1.5,37.8));
#1352=CARTESIAN_POINT('Origin',(0.,0.,37.8));
#1353=CARTESIAN_POINT('',(-19.9436706751791,1.5,37.8));
#1354=CARTESIAN_POINT('',(55.,1.5,37.8));
#1355=CARTESIAN_POINT('Origin',(0.,0.,37.8));
#1356=CARTESIAN_POINT('',(19.9436706751791,-1.5,37.8));
#1357=CARTESIAN_POINT('',(1.5,-19.9436706751791,37.8));
#1358=CARTESIAN_POINT('Origin',(0.,0.,37.8));
#1359=CARTESIAN_POINT('',(1.5,-48.9770354349873,37.8));
#1360=CARTESIAN_POINT('',(1.5,-55.,37.8));
#1361=CARTESIAN_POINT('',(48.9770354349873,-1.5,37.8));
#1362=CARTESIAN_POINT('Origin',(0.,0.,37.8));
#1363=CARTESIAN_POINT('',(-55.,-1.5,37.8));
#1364=CARTESIAN_POINT('',(-1.5,-19.9436706751791,37.8));
#1365=CARTESIAN_POINT('',(-19.9436706751791,-1.5,37.8));
#1366=CARTESIAN_POINT('Origin',(0.,0.,37.8));
#1367=CARTESIAN_POINT('',(-48.9770354349873,-1.5,37.8));
#1368=CARTESIAN_POINT('',(-55.,-1.5,37.8));
#1369=CARTESIAN_POINT('',(-1.5,-48.9770354349873,37.8));
#1370=CARTESIAN_POINT('Origin',(0.,0.,37.8));
#1371=CARTESIAN_POINT('',(-1.5,55.,37.8));
#1372=CARTESIAN_POINT('Origin',(16.,0.,37.8));
#1373=CARTESIAN_POINT('Origin',(0.,0.,37.8));
#1374=CARTESIAN_POINT('',(-1.5,19.9436706751791,37.8));
#1375=CARTESIAN_POINT('',(-19.9436706751791,1.5,37.8));
#1376=CARTESIAN_POINT('Origin',(0.,0.,37.8));
#1377=CARTESIAN_POINT('',(-1.5,-19.9436706751791,37.8));
#1378=CARTESIAN_POINT('',(-19.9436706751791,-1.5,37.8));
#1379=CARTESIAN_POINT('Origin',(0.,0.,37.8));
#1380=CARTESIAN_POINT('',(19.9436706751791,1.5,37.8));
#1381=CARTESIAN_POINT('',(1.5,19.9436706751791,37.8));
#1382=CARTESIAN_POINT('Origin',(0.,0.,37.8));
#1383=CARTESIAN_POINT('',(19.9436706751791,-1.5,37.8));
#1384=CARTESIAN_POINT('',(1.5,-19.9436706751791,37.8));
#1385=CARTESIAN_POINT('Origin',(-55.,-1.5,37.8));
#1386=CARTESIAN_POINT('',(48.9770354349873,-1.5,37.8));
#1387=CARTESIAN_POINT('Origin',(1.5,-55.,37.8));
#1388=CARTESIAN_POINT('',(1.5,48.9770354349873,37.8));
#1389=CARTESIAN_POINT('Origin',(-1.5,55.,37.8));
#1390=CARTESIAN_POINT('',(-1.5,-48.9770354349873,37.8));
#1391=CARTESIAN_POINT('Origin',(55.,1.5,37.8));
#1392=CARTESIAN_POINT('',(-48.9770354349873,1.5,37.8));
#1393=CARTESIAN_POINT('Origin',(1.5,55.,37.8));
#1394=CARTESIAN_POINT('',(1.5,55.,37.8));
#1395=CARTESIAN_POINT('',(-1.5,55.,37.8));
#1396=CARTESIAN_POINT('Origin',(-1.5,55.,37.8));
#1397=CARTESIAN_POINT('',(-1.5,-54.9795416495991,37.8));
#1398=CARTESIAN_POINT('',(-1.5,-55.,37.8));
#1399=CARTESIAN_POINT('Origin',(-1.5,55.,37.8));
#1400=CARTESIAN_POINT('',(-1.5,54.9795416495991,37.8));
#1401=CARTESIAN_POINT('Origin',(-1.5,55.,37.8));
#1402=CARTESIAN_POINT('',(-1.5,48.9770354349873,37.8));
#1403=CARTESIAN_POINT('Origin',(1.5,-55.,37.8));
#1404=CARTESIAN_POINT('',(1.5,-54.9795416495991,37.8));
#1405=CARTESIAN_POINT('',(1.5,-55.,37.8));
#1406=CARTESIAN_POINT('Origin',(1.5,-55.,37.8));
#1407=CARTESIAN_POINT('',(1.5,-48.9770354349873,37.8));
#1408=CARTESIAN_POINT('Origin',(1.5,-55.,37.8));
#1409=CARTESIAN_POINT('',(1.5,54.9795416495991,37.8));
#1410=CARTESIAN_POINT('Origin',(-1.5,-55.,37.8));
#1411=CARTESIAN_POINT('Origin',(55.,1.5,37.8));
#1412=CARTESIAN_POINT('',(48.9770354349873,1.5,37.8));
#1413=CARTESIAN_POINT('Origin',(0.,0.,37.8));
#1414=CARTESIAN_POINT('Origin',(0.,0.,37.8));
#1415=CARTESIAN_POINT('Origin',(0.,0.,37.8));
#1416=CARTESIAN_POINT('',(54.9795416495991,1.5,37.8));
#1417=CARTESIAN_POINT('Origin',(0.,0.,37.8));
#1418=CARTESIAN_POINT('Origin',(0.,0.,37.8));
#1419=CARTESIAN_POINT('',(54.9795416495991,-1.5,37.8));
#1420=CARTESIAN_POINT('Origin',(0.,0.,37.8));
#1421=CARTESIAN_POINT('',(-54.9795416495991,-1.5,37.8));
#1422=CARTESIAN_POINT('Origin',(55.,-1.5,37.8));
#1423=CARTESIAN_POINT('',(55.,-1.5,37.8));
#1424=CARTESIAN_POINT('',(55.,1.5,37.8));
#1425=CARTESIAN_POINT('Origin',(55.,1.5,37.8));
#1426=CARTESIAN_POINT('',(-54.9795416495991,1.5,37.8));
#1427=CARTESIAN_POINT('',(-55.,1.5,37.8));
#1428=CARTESIAN_POINT('Origin',(55.,1.5,37.8));
#1429=CARTESIAN_POINT('Origin',(-55.,-1.5,37.8));
#1430=CARTESIAN_POINT('',(-55.,-1.5,37.8));
#1431=CARTESIAN_POINT('Origin',(-55.,-1.5,37.8));
#1432=CARTESIAN_POINT('Origin',(-55.,1.5,37.8));
#1433=CARTESIAN_POINT('Origin',(-55.,-1.5,37.8));
#1434=CARTESIAN_POINT('',(-48.9770354349873,-1.5,37.8));
#1435=CARTESIAN_POINT('Origin',(0.,0.,37.8));
#1436=CARTESIAN_POINT('Origin',(0.,0.,37.8));
#1437=UNCERTAINTY_MEASURE_WITH_UNIT(LENGTH_MEASURE(0.01),#1441,
'DISTANCE_ACCURACY_VALUE',
'Maximum model space distance between geometric entities at asserted c
onnectivities');
#1438=UNCERTAINTY_MEASURE_WITH_UNIT(LENGTH_MEASURE(0.01),#1441,
'DISTANCE_ACCURACY_VALUE',
'Maximum model space distance between geometric entities at asserted c
onnectivities');
#1439=(
GEOMETRIC_REPRESENTATION_CONTEXT(3)
GLOBAL_UNCERTAINTY_ASSIGNED_CONTEXT((#1437))
GLOBAL_UNIT_ASSIGNED_CONTEXT((#1441,#1443,#1444))
REPRESENTATION_CONTEXT('','3D')
);
#1440=(
GEOMETRIC_REPRESENTATION_CONTEXT(3)
GLOBAL_UNCERTAINTY_ASSIGNED_CONTEXT((#1438))
GLOBAL_UNIT_ASSIGNED_CONTEXT((#1441,#1443,#1444))
REPRESENTATION_CONTEXT('','3D')
);
#1441=(
LENGTH_UNIT()
NAMED_UNIT(*)
SI_UNIT(.MILLI.,.METRE.)
);
#1442=(
LENGTH_UNIT()
NAMED_UNIT(*)
SI_UNIT(.CENTI.,.METRE.)
);
#1443=(
NAMED_UNIT(*)
PLANE_ANGLE_UNIT()
SI_UNIT($,.RADIAN.)
);
#1444=(
NAMED_UNIT(*)
SI_UNIT($,.STERADIAN.)
SOLID_ANGLE_UNIT()
);
#1445=SHAPE_DEFINITION_REPRESENTATION(#1446,#1447);
#1446=PRODUCT_DEFINITION_SHAPE('',$,#1449);
#1447=SHAPE_REPRESENTATION('',(#865),#1439);
#1448=PRODUCT_DEFINITION_CONTEXT('part definition',#1453,'design');
#1449=PRODUCT_DEFINITION('07_Brake_Drum','07_Brake_Drum',#1450,#1448);
#1450=PRODUCT_DEFINITION_FORMATION('',$,#1455);
#1451=PRODUCT_RELATED_PRODUCT_CATEGORY('07_Brake_Drum','07_Brake_Drum',
(#1455));
#1452=APPLICATION_PROTOCOL_DEFINITION('international standard',
'automotive_design',2009,#1453);
#1453=APPLICATION_CONTEXT(
'Core Data for Automotive Mechanical Design Process');
#1454=PRODUCT_CONTEXT('part definition',#1453,'mechanical');
#1455=PRODUCT('07_Brake_Drum','07_Brake_Drum',$,(#1454));
#1456=PRESENTATION_STYLE_ASSIGNMENT((#1457));
#1457=SURFACE_STYLE_USAGE(.BOTH.,#1460);
#1458=SURFACE_STYLE_RENDERING_WITH_PROPERTIES($,#1464,(#1459));
#1459=SURFACE_STYLE_TRANSPARENT(0.);
#1460=SURFACE_SIDE_STYLE('',(#1461,#1458));
#1461=SURFACE_STYLE_FILL_AREA(#1462);
#1462=FILL_AREA_STYLE('',(#1463));
#1463=FILL_AREA_STYLE_COLOUR('',#1464);
#1464=COLOUR_RGB('',0.745098039215686,0.737254901960784,0.729411764705882);
ENDSEC;
END-ISO-10303-21;
