ISO-10303-21;
HEADER;
/* Generated by software containing ST-Developer
 * from STEP Tools, Inc. (www.steptools.com) 
 */

FILE_DESCRIPTION(
/* description */ (''),
/* implementation_level */ '2;1');

FILE_NAME(
/* name */ '09_Brake_Actuator_Bracket.step',
/* time_stamp */ '2026-10-08T19:41:06+09:00',
/* author */ ('Reaction Wheel Pendulum project'),
/* organization */ (''),
/* preprocessor_version */ 'ST-DEVELOPER v20.1',
/* originating_system */ 'Autodesk Inventor 2026',
/* authorisation */ '');

FILE_SCHEMA (('AUTOMOTIVE_DESIGN { 1 0 10303 214 3 1 1 }'));
ENDSEC;

DATA;
#10=MECHANICAL_DESIGN_GEOMETRIC_PRESENTATION_REPRESENTATION('',(#13),#648);
#11=SHAPE_REPRESENTATION_RELATIONSHIP('SRR','None',#655,#12);
#12=ADVANCED_BREP_SHAPE_REPRESENTATION('',(#14),#647);
#13=STYLED_ITEM('',(#664),#14);
#14=MANIFOLD_SOLID_BREP('\X2\30BD30EA30C330C9\X0\1',#379);
#15=FACE_BOUND('',#72,.T.);
#16=FACE_BOUND('',#73,.T.);
#17=FACE_BOUND('',#76,.T.);
#18=FACE_BOUND('',#77,.T.);
#19=FACE_BOUND('',#82,.T.);
#20=FACE_BOUND('',#83,.T.);
#21=FACE_BOUND('',#89,.T.);
#22=FACE_BOUND('',#90,.T.);
#23=PLANE('',#405);
#24=PLANE('',#409);
#25=PLANE('',#416);
#26=PLANE('',#423);
#27=PLANE('',#424);
#28=PLANE('',#425);
#29=PLANE('',#426);
#30=PLANE('',#427);
#31=PLANE('',#428);
#32=PLANE('',#429);
#33=PLANE('',#430);
#34=PLANE('',#431);
#35=PLANE('',#432);
#36=PLANE('',#433);
#37=PLANE('',#434);
#38=PLANE('',#435);
#39=FACE_OUTER_BOUND('',#61,.T.);
#40=FACE_OUTER_BOUND('',#62,.T.);
#41=FACE_OUTER_BOUND('',#63,.T.);
#42=FACE_OUTER_BOUND('',#64,.T.);
#43=FACE_OUTER_BOUND('',#65,.T.);
#44=FACE_OUTER_BOUND('',#66,.T.);
#45=FACE_OUTER_BOUND('',#67,.T.);
#46=FACE_OUTER_BOUND('',#68,.T.);
#47=FACE_OUTER_BOUND('',#69,.T.);
#48=FACE_OUTER_BOUND('',#70,.T.);
#49=FACE_OUTER_BOUND('',#71,.T.);
#50=FACE_OUTER_BOUND('',#74,.T.);
#51=FACE_OUTER_BOUND('',#75,.T.);
#52=FACE_OUTER_BOUND('',#78,.T.);
#53=FACE_OUTER_BOUND('',#79,.T.);
#54=FACE_OUTER_BOUND('',#80,.T.);
#55=FACE_OUTER_BOUND('',#81,.T.);
#56=FACE_OUTER_BOUND('',#84,.T.);
#57=FACE_OUTER_BOUND('',#85,.T.);
#58=FACE_OUTER_BOUND('',#86,.T.);
#59=FACE_OUTER_BOUND('',#87,.T.);
#60=FACE_OUTER_BOUND('',#88,.T.);
#61=EDGE_LOOP('',(#255,#256,#257,#258));
#62=EDGE_LOOP('',(#259));
#63=EDGE_LOOP('',(#260,#261,#262,#263));
#64=EDGE_LOOP('',(#264));
#65=EDGE_LOOP('',(#265,#266,#267,#268));
#66=EDGE_LOOP('',(#269,#270,#271,#272));
#67=EDGE_LOOP('',(#273));
#68=EDGE_LOOP('',(#274,#275,#276,#277));
#69=EDGE_LOOP('',(#278,#279,#280,#281));
#70=EDGE_LOOP('',(#282));
#71=EDGE_LOOP('',(#283,#284,#285,#286));
#72=EDGE_LOOP('',(#287));
#73=EDGE_LOOP('',(#288));
#74=EDGE_LOOP('',(#289,#290,#291,#292));
#75=EDGE_LOOP('',(#293,#294,#295,#296));
#76=EDGE_LOOP('',(#297));
#77=EDGE_LOOP('',(#298));
#78=EDGE_LOOP('',(#299,#300,#301,#302,#303,#304,#305,#306,#307,#308));
#79=EDGE_LOOP('',(#309,#310,#311,#312));
#80=EDGE_LOOP('',(#313,#314,#315,#316));
#81=EDGE_LOOP('',(#317,#318,#319,#320));
#82=EDGE_LOOP('',(#321));
#83=EDGE_LOOP('',(#322));
#84=EDGE_LOOP('',(#323,#324,#325,#326,#327,#328,#329,#330,#331,#332));
#85=EDGE_LOOP('',(#333,#334,#335,#336));
#86=EDGE_LOOP('',(#337,#338,#339,#340));
#87=EDGE_LOOP('',(#341,#342,#343,#344));
#88=EDGE_LOOP('',(#345,#346,#347,#348));
#89=EDGE_LOOP('',(#349));
#90=EDGE_LOOP('',(#350));
#91=LINE('',#547,#127);
#92=LINE('',#554,#128);
#93=LINE('',#561,#129);
#94=LINE('',#567,#130);
#95=LINE('',#574,#131);
#96=LINE('',#580,#132);
#97=LINE('',#586,#133);
#98=LINE('',#588,#134);
#99=LINE('',#590,#135);
#100=LINE('',#591,#136);
#101=LINE('',#594,#137);
#102=LINE('',#596,#138);
#103=LINE('',#597,#139);
#104=LINE('',#600,#140);
#105=LINE('',#602,#141);
#106=LINE('',#603,#142);
#107=LINE('',#606,#143);
#108=LINE('',#608,#144);
#109=LINE('',#610,#145);
#110=LINE('',#612,#146);
#111=LINE('',#614,#147);
#112=LINE('',#616,#148);
#113=LINE('',#617,#149);
#114=LINE('',#620,#150);
#115=LINE('',#622,#151);
#116=LINE('',#623,#152);
#117=LINE('',#626,#153);
#118=LINE('',#627,#154);
#119=LINE('',#630,#155);
#120=LINE('',#631,#156);
#121=LINE('',#634,#157);
#122=LINE('',#636,#158);
#123=LINE('',#637,#159);
#124=LINE('',#638,#160);
#125=LINE('',#641,#161);
#126=LINE('',#643,#162);
#127=VECTOR('',#442,1.25);
#128=VECTOR('',#451,1.25);
#129=VECTOR('',#460,1.5);
#130=VECTOR('',#467,1.5);
#131=VECTOR('',#476,1.5);
#132=VECTOR('',#483,1.5);
#133=VECTOR('',#490,10.);
#134=VECTOR('',#491,10.);
#135=VECTOR('',#492,10.);
#136=VECTOR('',#493,10.);
#137=VECTOR('',#496,10.);
#138=VECTOR('',#497,10.);
#139=VECTOR('',#498,10.);
#140=VECTOR('',#501,10.);
#141=VECTOR('',#502,10.);
#142=VECTOR('',#503,10.);
#143=VECTOR('',#506,10.);
#144=VECTOR('',#507,10.);
#145=VECTOR('',#508,10.);
#146=VECTOR('',#509,10.);
#147=VECTOR('',#510,10.);
#148=VECTOR('',#511,10.);
#149=VECTOR('',#512,10.);
#150=VECTOR('',#515,10.);
#151=VECTOR('',#516,10.);
#152=VECTOR('',#517,10.);
#153=VECTOR('',#520,10.);
#154=VECTOR('',#521,10.);
#155=VECTOR('',#524,10.);
#156=VECTOR('',#525,10.);
#157=VECTOR('',#528,10.);
#158=VECTOR('',#529,10.);
#159=VECTOR('',#530,10.);
#160=VECTOR('',#531,10.);
#161=VECTOR('',#536,10.);
#162=VECTOR('',#539,10.);
#163=CIRCLE('',#403,1.25);
#164=CIRCLE('',#404,1.25);
#165=CIRCLE('',#407,1.25);
#166=CIRCLE('',#408,1.25);
#167=CIRCLE('',#411,1.5);
#168=CIRCLE('',#412,1.5);
#169=CIRCLE('',#414,1.5);
#170=CIRCLE('',#415,1.5);
#171=CIRCLE('',#418,1.5);
#172=CIRCLE('',#419,1.5);
#173=CIRCLE('',#421,1.5);
#174=CIRCLE('',#422,1.5);
#175=VERTEX_POINT('',#544);
#176=VERTEX_POINT('',#546);
#177=VERTEX_POINT('',#551);
#178=VERTEX_POINT('',#553);
#179=VERTEX_POINT('',#558);
#180=VERTEX_POINT('',#560);
#181=VERTEX_POINT('',#564);
#182=VERTEX_POINT('',#566);
#183=VERTEX_POINT('',#571);
#184=VERTEX_POINT('',#573);
#185=VERTEX_POINT('',#577);
#186=VERTEX_POINT('',#579);
#187=VERTEX_POINT('',#584);
#188=VERTEX_POINT('',#585);
#189=VERTEX_POINT('',#587);
#190=VERTEX_POINT('',#589);
#191=VERTEX_POINT('',#593);
#192=VERTEX_POINT('',#595);
#193=VERTEX_POINT('',#599);
#194=VERTEX_POINT('',#601);
#195=VERTEX_POINT('',#605);
#196=VERTEX_POINT('',#607);
#197=VERTEX_POINT('',#609);
#198=VERTEX_POINT('',#611);
#199=VERTEX_POINT('',#613);
#200=VERTEX_POINT('',#615);
#201=VERTEX_POINT('',#619);
#202=VERTEX_POINT('',#621);
#203=VERTEX_POINT('',#625);
#204=VERTEX_POINT('',#629);
#205=VERTEX_POINT('',#633);
#206=VERTEX_POINT('',#635);
#207=EDGE_CURVE('',#175,#175,#163,.T.);
#208=EDGE_CURVE('',#175,#176,#91,.T.);
#209=EDGE_CURVE('',#176,#176,#164,.T.);
#210=EDGE_CURVE('',#177,#177,#165,.T.);
#211=EDGE_CURVE('',#177,#178,#92,.T.);
#212=EDGE_CURVE('',#178,#178,#166,.T.);
#213=EDGE_CURVE('',#179,#179,#167,.T.);
#214=EDGE_CURVE('',#179,#180,#93,.T.);
#215=EDGE_CURVE('',#180,#180,#168,.T.);
#216=EDGE_CURVE('',#181,#181,#169,.T.);
#217=EDGE_CURVE('',#181,#182,#94,.T.);
#218=EDGE_CURVE('',#182,#182,#170,.T.);
#219=EDGE_CURVE('',#183,#183,#171,.T.);
#220=EDGE_CURVE('',#183,#184,#95,.T.);
#221=EDGE_CURVE('',#184,#184,#172,.T.);
#222=EDGE_CURVE('',#185,#185,#173,.T.);
#223=EDGE_CURVE('',#185,#186,#96,.T.);
#224=EDGE_CURVE('',#186,#186,#174,.T.);
#225=EDGE_CURVE('',#187,#188,#97,.T.);
#226=EDGE_CURVE('',#189,#187,#98,.T.);
#227=EDGE_CURVE('',#190,#189,#99,.T.);
#228=EDGE_CURVE('',#188,#190,#100,.T.);
#229=EDGE_CURVE('',#189,#191,#101,.T.);
#230=EDGE_CURVE('',#192,#191,#102,.T.);
#231=EDGE_CURVE('',#190,#192,#103,.T.);
#232=EDGE_CURVE('',#191,#193,#104,.T.);
#233=EDGE_CURVE('',#193,#194,#105,.T.);
#234=EDGE_CURVE('',#194,#192,#106,.T.);
#235=EDGE_CURVE('',#195,#187,#107,.T.);
#236=EDGE_CURVE('',#196,#195,#108,.T.);
#237=EDGE_CURVE('',#197,#196,#109,.T.);
#238=EDGE_CURVE('',#197,#198,#110,.T.);
#239=EDGE_CURVE('',#199,#198,#111,.T.);
#240=EDGE_CURVE('',#199,#200,#112,.T.);
#241=EDGE_CURVE('',#200,#193,#113,.T.);
#242=EDGE_CURVE('',#198,#201,#114,.T.);
#243=EDGE_CURVE('',#202,#197,#115,.T.);
#244=EDGE_CURVE('',#201,#202,#116,.T.);
#245=EDGE_CURVE('',#203,#196,#117,.T.);
#246=EDGE_CURVE('',#202,#203,#118,.T.);
#247=EDGE_CURVE('',#204,#195,#119,.T.);
#248=EDGE_CURVE('',#204,#203,#120,.T.);
#249=EDGE_CURVE('',#205,#194,#121,.T.);
#250=EDGE_CURVE('',#205,#206,#122,.T.);
#251=EDGE_CURVE('',#206,#201,#123,.T.);
#252=EDGE_CURVE('',#204,#188,#124,.T.);
#253=EDGE_CURVE('',#206,#199,#125,.T.);
#254=EDGE_CURVE('',#200,#205,#126,.T.);
#255=ORIENTED_EDGE('',*,*,#207,.F.);
#256=ORIENTED_EDGE('',*,*,#208,.T.);
#257=ORIENTED_EDGE('',*,*,#209,.T.);
#258=ORIENTED_EDGE('',*,*,#208,.F.);
#259=ORIENTED_EDGE('',*,*,#209,.F.);
#260=ORIENTED_EDGE('',*,*,#210,.F.);
#261=ORIENTED_EDGE('',*,*,#211,.T.);
#262=ORIENTED_EDGE('',*,*,#212,.T.);
#263=ORIENTED_EDGE('',*,*,#211,.F.);
#264=ORIENTED_EDGE('',*,*,#212,.F.);
#265=ORIENTED_EDGE('',*,*,#213,.T.);
#266=ORIENTED_EDGE('',*,*,#214,.T.);
#267=ORIENTED_EDGE('',*,*,#215,.F.);
#268=ORIENTED_EDGE('',*,*,#214,.F.);
#269=ORIENTED_EDGE('',*,*,#216,.F.);
#270=ORIENTED_EDGE('',*,*,#217,.T.);
#271=ORIENTED_EDGE('',*,*,#218,.F.);
#272=ORIENTED_EDGE('',*,*,#217,.F.);
#273=ORIENTED_EDGE('',*,*,#213,.F.);
#274=ORIENTED_EDGE('',*,*,#219,.T.);
#275=ORIENTED_EDGE('',*,*,#220,.T.);
#276=ORIENTED_EDGE('',*,*,#221,.F.);
#277=ORIENTED_EDGE('',*,*,#220,.F.);
#278=ORIENTED_EDGE('',*,*,#222,.F.);
#279=ORIENTED_EDGE('',*,*,#223,.T.);
#280=ORIENTED_EDGE('',*,*,#224,.F.);
#281=ORIENTED_EDGE('',*,*,#223,.F.);
#282=ORIENTED_EDGE('',*,*,#219,.F.);
#283=ORIENTED_EDGE('',*,*,#225,.F.);
#284=ORIENTED_EDGE('',*,*,#226,.F.);
#285=ORIENTED_EDGE('',*,*,#227,.F.);
#286=ORIENTED_EDGE('',*,*,#228,.F.);
#287=ORIENTED_EDGE('',*,*,#216,.T.);
#288=ORIENTED_EDGE('',*,*,#222,.T.);
#289=ORIENTED_EDGE('',*,*,#227,.T.);
#290=ORIENTED_EDGE('',*,*,#229,.T.);
#291=ORIENTED_EDGE('',*,*,#230,.F.);
#292=ORIENTED_EDGE('',*,*,#231,.F.);
#293=ORIENTED_EDGE('',*,*,#232,.T.);
#294=ORIENTED_EDGE('',*,*,#233,.T.);
#295=ORIENTED_EDGE('',*,*,#234,.T.);
#296=ORIENTED_EDGE('',*,*,#230,.T.);
#297=ORIENTED_EDGE('',*,*,#218,.T.);
#298=ORIENTED_EDGE('',*,*,#224,.T.);
#299=ORIENTED_EDGE('',*,*,#232,.F.);
#300=ORIENTED_EDGE('',*,*,#229,.F.);
#301=ORIENTED_EDGE('',*,*,#226,.T.);
#302=ORIENTED_EDGE('',*,*,#235,.F.);
#303=ORIENTED_EDGE('',*,*,#236,.F.);
#304=ORIENTED_EDGE('',*,*,#237,.F.);
#305=ORIENTED_EDGE('',*,*,#238,.T.);
#306=ORIENTED_EDGE('',*,*,#239,.F.);
#307=ORIENTED_EDGE('',*,*,#240,.T.);
#308=ORIENTED_EDGE('',*,*,#241,.T.);
#309=ORIENTED_EDGE('',*,*,#242,.F.);
#310=ORIENTED_EDGE('',*,*,#238,.F.);
#311=ORIENTED_EDGE('',*,*,#243,.F.);
#312=ORIENTED_EDGE('',*,*,#244,.F.);
#313=ORIENTED_EDGE('',*,*,#243,.T.);
#314=ORIENTED_EDGE('',*,*,#237,.T.);
#315=ORIENTED_EDGE('',*,*,#245,.F.);
#316=ORIENTED_EDGE('',*,*,#246,.F.);
#317=ORIENTED_EDGE('',*,*,#247,.F.);
#318=ORIENTED_EDGE('',*,*,#248,.T.);
#319=ORIENTED_EDGE('',*,*,#245,.T.);
#320=ORIENTED_EDGE('',*,*,#236,.T.);
#321=ORIENTED_EDGE('',*,*,#215,.T.);
#322=ORIENTED_EDGE('',*,*,#221,.T.);
#323=ORIENTED_EDGE('',*,*,#234,.F.);
#324=ORIENTED_EDGE('',*,*,#249,.F.);
#325=ORIENTED_EDGE('',*,*,#250,.T.);
#326=ORIENTED_EDGE('',*,*,#251,.T.);
#327=ORIENTED_EDGE('',*,*,#244,.T.);
#328=ORIENTED_EDGE('',*,*,#246,.T.);
#329=ORIENTED_EDGE('',*,*,#248,.F.);
#330=ORIENTED_EDGE('',*,*,#252,.T.);
#331=ORIENTED_EDGE('',*,*,#228,.T.);
#332=ORIENTED_EDGE('',*,*,#231,.T.);
#333=ORIENTED_EDGE('',*,*,#225,.T.);
#334=ORIENTED_EDGE('',*,*,#252,.F.);
#335=ORIENTED_EDGE('',*,*,#247,.T.);
#336=ORIENTED_EDGE('',*,*,#235,.T.);
#337=ORIENTED_EDGE('',*,*,#242,.T.);
#338=ORIENTED_EDGE('',*,*,#251,.F.);
#339=ORIENTED_EDGE('',*,*,#253,.T.);
#340=ORIENTED_EDGE('',*,*,#239,.T.);
#341=ORIENTED_EDGE('',*,*,#254,.T.);
#342=ORIENTED_EDGE('',*,*,#249,.T.);
#343=ORIENTED_EDGE('',*,*,#233,.F.);
#344=ORIENTED_EDGE('',*,*,#241,.F.);
#345=ORIENTED_EDGE('',*,*,#240,.F.);
#346=ORIENTED_EDGE('',*,*,#253,.F.);
#347=ORIENTED_EDGE('',*,*,#250,.F.);
#348=ORIENTED_EDGE('',*,*,#254,.F.);
#349=ORIENTED_EDGE('',*,*,#207,.T.);
#350=ORIENTED_EDGE('',*,*,#210,.T.);
#351=CYLINDRICAL_SURFACE('',#402,1.25);
#352=CYLINDRICAL_SURFACE('',#406,1.25);
#353=CYLINDRICAL_SURFACE('',#410,1.5);
#354=CYLINDRICAL_SURFACE('',#413,1.5);
#355=CYLINDRICAL_SURFACE('',#417,1.5);
#356=CYLINDRICAL_SURFACE('',#420,1.5);
#357=ADVANCED_FACE('',(#39),#351,.F.);
#358=ADVANCED_FACE('',(#40),#23,.F.);
#359=ADVANCED_FACE('',(#41),#352,.F.);
#360=ADVANCED_FACE('',(#42),#24,.F.);
#361=ADVANCED_FACE('',(#43),#353,.F.);
#362=ADVANCED_FACE('',(#44),#354,.F.);
#363=ADVANCED_FACE('',(#45),#25,.T.);
#364=ADVANCED_FACE('',(#46),#355,.F.);
#365=ADVANCED_FACE('',(#47),#356,.F.);
#366=ADVANCED_FACE('',(#48),#26,.T.);
#367=ADVANCED_FACE('',(#49,#15,#16),#27,.F.);
#368=ADVANCED_FACE('',(#50),#28,.T.);
#369=ADVANCED_FACE('',(#51,#17,#18),#29,.T.);
#370=ADVANCED_FACE('',(#52),#30,.T.);
#371=ADVANCED_FACE('',(#53),#31,.F.);
#372=ADVANCED_FACE('',(#54),#32,.T.);
#373=ADVANCED_FACE('',(#55,#19,#20),#33,.T.);
#374=ADVANCED_FACE('',(#56),#34,.T.);
#375=ADVANCED_FACE('',(#57),#35,.T.);
#376=ADVANCED_FACE('',(#58),#36,.T.);
#377=ADVANCED_FACE('',(#59),#37,.T.);
#378=ADVANCED_FACE('',(#60,#21,#22),#38,.F.);
#379=CLOSED_SHELL('',(#357,#358,#359,#360,#361,#362,#363,#364,#365,#366,
#367,#368,#369,#370,#371,#372,#373,#374,#375,#376,#377,#378));
#380=DERIVED_UNIT_ELEMENT(#383,1.);
#381=DERIVED_UNIT_ELEMENT(#650,-3.);
#382=DIMENSIONAL_EXPONENTS(0.,1.,0.,0.,0.,0.,0.);
#383=(
CONVERSION_BASED_UNIT('gram',#385)
MASS_UNIT()
NAMED_UNIT(#382)
);
#384=(
MASS_UNIT()
NAMED_UNIT(*)
SI_UNIT(.KILO.,.GRAM.)
);
#385=MASS_MEASURE_WITH_UNIT(MASS_MEASURE(0.001),#384);
#386=DERIVED_UNIT((#380,#381));
#387=MEASURE_REPRESENTATION_ITEM('density measure',
POSITIVE_RATIO_MEASURE(2.7),#386);
#388=PROPERTY_DEFINITION_REPRESENTATION(#393,#390);
#389=PROPERTY_DEFINITION_REPRESENTATION(#394,#391);
#390=REPRESENTATION('material name',(#392),#647);
#391=REPRESENTATION('density',(#387),#647);
#392=DESCRIPTIVE_REPRESENTATION_ITEM('\X2\30A230EB30DF30CB30A630E0\X0\ 
6061','\X2\30A230EB30DF30CB30A630E0\X0\ 6061');
#393=PROPERTY_DEFINITION('material property','material name',#657);
#394=PROPERTY_DEFINITION('material property','density of part',#657);
#395=DATE_TIME_ROLE('creation_date');
#396=APPLIED_DATE_AND_TIME_ASSIGNMENT(#397,#395,(#657));
#397=DATE_AND_TIME(#398,#399);
#398=CALENDAR_DATE(2026,8,10);
#399=LOCAL_TIME(0,0,0.,#400);
#400=COORDINATED_UNIVERSAL_TIME_OFFSET(0,0,.BEHIND.);
#401=AXIS2_PLACEMENT_3D('',#542,#436,#437);
#402=AXIS2_PLACEMENT_3D('',#543,#438,#439);
#403=AXIS2_PLACEMENT_3D('',#545,#440,#441);
#404=AXIS2_PLACEMENT_3D('',#548,#443,#444);
#405=AXIS2_PLACEMENT_3D('',#549,#445,#446);
#406=AXIS2_PLACEMENT_3D('',#550,#447,#448);
#407=AXIS2_PLACEMENT_3D('',#552,#449,#450);
#408=AXIS2_PLACEMENT_3D('',#555,#452,#453);
#409=AXIS2_PLACEMENT_3D('',#556,#454,#455);
#410=AXIS2_PLACEMENT_3D('',#557,#456,#457);
#411=AXIS2_PLACEMENT_3D('',#559,#458,#459);
#412=AXIS2_PLACEMENT_3D('',#562,#461,#462);
#413=AXIS2_PLACEMENT_3D('',#563,#463,#464);
#414=AXIS2_PLACEMENT_3D('',#565,#465,#466);
#415=AXIS2_PLACEMENT_3D('',#568,#468,#469);
#416=AXIS2_PLACEMENT_3D('',#569,#470,#471);
#417=AXIS2_PLACEMENT_3D('',#570,#472,#473);
#418=AXIS2_PLACEMENT_3D('',#572,#474,#475);
#419=AXIS2_PLACEMENT_3D('',#575,#477,#478);
#420=AXIS2_PLACEMENT_3D('',#576,#479,#480);
#421=AXIS2_PLACEMENT_3D('',#578,#481,#482);
#422=AXIS2_PLACEMENT_3D('',#581,#484,#485);
#423=AXIS2_PLACEMENT_3D('',#582,#486,#487);
#424=AXIS2_PLACEMENT_3D('',#583,#488,#489);
#425=AXIS2_PLACEMENT_3D('',#592,#494,#495);
#426=AXIS2_PLACEMENT_3D('',#598,#499,#500);
#427=AXIS2_PLACEMENT_3D('',#604,#504,#505);
#428=AXIS2_PLACEMENT_3D('',#618,#513,#514);
#429=AXIS2_PLACEMENT_3D('',#624,#518,#519);
#430=AXIS2_PLACEMENT_3D('',#628,#522,#523);
#431=AXIS2_PLACEMENT_3D('',#632,#526,#527);
#432=AXIS2_PLACEMENT_3D('',#639,#532,#533);
#433=AXIS2_PLACEMENT_3D('',#640,#534,#535);
#434=AXIS2_PLACEMENT_3D('',#642,#537,#538);
#435=AXIS2_PLACEMENT_3D('',#644,#540,#541);
#436=DIRECTION('axis',(0.,0.,1.));
#437=DIRECTION('refdir',(1.,0.,0.));
#438=DIRECTION('center_axis',(0.,0.,1.));
#439=DIRECTION('ref_axis',(-1.,0.,0.));
#440=DIRECTION('center_axis',(0.,0.,1.));
#441=DIRECTION('ref_axis',(-1.,0.,0.));
#442=DIRECTION('',(0.,0.,1.));
#443=DIRECTION('center_axis',(0.,0.,1.));
#444=DIRECTION('ref_axis',(-1.,0.,0.));
#445=DIRECTION('center_axis',(0.,0.,1.));
#446=DIRECTION('ref_axis',(1.,0.,0.));
#447=DIRECTION('center_axis',(0.,0.,1.));
#448=DIRECTION('ref_axis',(-1.,0.,0.));
#449=DIRECTION('center_axis',(0.,0.,1.));
#450=DIRECTION('ref_axis',(-1.,0.,0.));
#451=DIRECTION('',(0.,0.,1.));
#452=DIRECTION('center_axis',(0.,0.,1.));
#453=DIRECTION('ref_axis',(-1.,0.,0.));
#454=DIRECTION('center_axis',(0.,0.,1.));
#455=DIRECTION('ref_axis',(1.,0.,0.));
#456=DIRECTION('center_axis',(0.,0.,1.));
#457=DIRECTION('ref_axis',(-1.,0.,0.));
#458=DIRECTION('center_axis',(0.,0.,-1.));
#459=DIRECTION('ref_axis',(-1.,0.,0.));
#460=DIRECTION('',(0.,0.,1.));
#461=DIRECTION('center_axis',(0.,0.,-1.));
#462=DIRECTION('ref_axis',(-1.,0.,0.));
#463=DIRECTION('center_axis',(0.,0.,1.));
#464=DIRECTION('ref_axis',(-1.,0.,0.));
#465=DIRECTION('center_axis',(0.,0.,1.));
#466=DIRECTION('ref_axis',(-1.,0.,0.));
#467=DIRECTION('',(0.,0.,1.));
#468=DIRECTION('center_axis',(0.,0.,-1.));
#469=DIRECTION('ref_axis',(-1.,0.,0.));
#470=DIRECTION('center_axis',(0.,0.,1.));
#471=DIRECTION('ref_axis',(1.,0.,0.));
#472=DIRECTION('center_axis',(0.,0.,1.));
#473=DIRECTION('ref_axis',(-1.,0.,0.));
#474=DIRECTION('center_axis',(0.,0.,-1.));
#475=DIRECTION('ref_axis',(-1.,0.,0.));
#476=DIRECTION('',(0.,0.,1.));
#477=DIRECTION('center_axis',(0.,0.,-1.));
#478=DIRECTION('ref_axis',(-1.,0.,0.));
#479=DIRECTION('center_axis',(0.,0.,1.));
#480=DIRECTION('ref_axis',(-1.,0.,0.));
#481=DIRECTION('center_axis',(0.,0.,1.));
#482=DIRECTION('ref_axis',(-1.,0.,0.));
#483=DIRECTION('',(0.,0.,1.));
#484=DIRECTION('center_axis',(0.,0.,-1.));
#485=DIRECTION('ref_axis',(-1.,0.,0.));
#486=DIRECTION('center_axis',(0.,0.,1.));
#487=DIRECTION('ref_axis',(1.,0.,0.));
#488=DIRECTION('center_axis',(0.,0.,1.));
#489=DIRECTION('ref_axis',(1.,0.,0.));
#490=DIRECTION('',(0.,1.,0.));
#491=DIRECTION('',(1.,0.,0.));
#492=DIRECTION('',(0.,-1.,0.));
#493=DIRECTION('',(-1.,0.,0.));
#494=DIRECTION('center_axis',(-1.,0.,0.));
#495=DIRECTION('ref_axis',(0.,-1.,0.));
#496=DIRECTION('',(0.,0.,1.));
#497=DIRECTION('',(0.,-1.,0.));
#498=DIRECTION('',(0.,0.,1.));
#499=DIRECTION('center_axis',(0.,0.,1.));
#500=DIRECTION('ref_axis',(1.,0.,0.));
#501=DIRECTION('',(1.,0.,0.));
#502=DIRECTION('',(0.,1.,0.));
#503=DIRECTION('',(-1.,0.,0.));
#504=DIRECTION('center_axis',(0.,-1.,0.));
#505=DIRECTION('ref_axis',(1.,0.,0.));
#506=DIRECTION('',(0.,0.,1.));
#507=DIRECTION('',(1.,0.,0.));
#508=DIRECTION('',(0.,0.,1.));
#509=DIRECTION('',(1.,0.,0.));
#510=DIRECTION('',(0.,0.,1.));
#511=DIRECTION('',(1.,0.,0.));
#512=DIRECTION('',(0.,0.,1.));
#513=DIRECTION('center_axis',(0.,0.,1.));
#514=DIRECTION('ref_axis',(1.,0.,0.));
#515=DIRECTION('',(0.,1.,0.));
#516=DIRECTION('',(0.,-1.,0.));
#517=DIRECTION('',(-1.,0.,0.));
#518=DIRECTION('center_axis',(-1.,0.,0.));
#519=DIRECTION('ref_axis',(0.,-1.,0.));
#520=DIRECTION('',(0.,-1.,0.));
#521=DIRECTION('',(0.,0.,1.));
#522=DIRECTION('center_axis',(0.,0.,1.));
#523=DIRECTION('ref_axis',(1.,0.,0.));
#524=DIRECTION('',(0.,-1.,0.));
#525=DIRECTION('',(-1.,0.,0.));
#526=DIRECTION('center_axis',(0.,1.,0.));
#527=DIRECTION('ref_axis',(-1.,0.,0.));
#528=DIRECTION('',(0.,0.,1.));
#529=DIRECTION('',(-1.,0.,0.));
#530=DIRECTION('',(0.,0.,1.));
#531=DIRECTION('',(0.,0.,1.));
#532=DIRECTION('center_axis',(-1.,0.,0.));
#533=DIRECTION('ref_axis',(0.,-1.,0.));
#534=DIRECTION('center_axis',(-1.,0.,0.));
#535=DIRECTION('ref_axis',(0.,-1.,0.));
#536=DIRECTION('',(0.,-1.,0.));
#537=DIRECTION('center_axis',(1.,0.,0.));
#538=DIRECTION('ref_axis',(0.,1.,0.));
#539=DIRECTION('',(0.,1.,0.));
#540=DIRECTION('center_axis',(0.,0.,1.));
#541=DIRECTION('ref_axis',(1.,0.,0.));
#542=CARTESIAN_POINT('',(0.,0.,0.));
#543=CARTESIAN_POINT('Origin',(70.,8.,4.));
#544=CARTESIAN_POINT('',(71.25,8.,4.));
#545=CARTESIAN_POINT('Origin',(70.,8.,4.));
#546=CARTESIAN_POINT('',(71.25,8.,29.));
#547=CARTESIAN_POINT('',(71.25,8.,4.));
#548=CARTESIAN_POINT('Origin',(70.,8.,29.));
#549=CARTESIAN_POINT('Origin',(70.,8.,29.));
#550=CARTESIAN_POINT('Origin',(70.,-8.,4.));
#551=CARTESIAN_POINT('',(71.25,-8.,4.));
#552=CARTESIAN_POINT('Origin',(70.,-8.,4.));
#553=CARTESIAN_POINT('',(71.25,-8.,29.));
#554=CARTESIAN_POINT('',(71.25,-8.,4.));
#555=CARTESIAN_POINT('Origin',(70.,-8.,29.));
#556=CARTESIAN_POINT('Origin',(70.,-8.,29.));
#557=CARTESIAN_POINT('Origin',(60.,10.,29.));
#558=CARTESIAN_POINT('',(61.5,10.,29.));
#559=CARTESIAN_POINT('Origin',(60.,10.,29.));
#560=CARTESIAN_POINT('',(61.5,10.,32.));
#561=CARTESIAN_POINT('',(61.5,10.,29.));
#562=CARTESIAN_POINT('Origin',(60.,10.,32.));
#563=CARTESIAN_POINT('Origin',(60.,10.,29.));
#564=CARTESIAN_POINT('',(61.5,10.,45.));
#565=CARTESIAN_POINT('Origin',(60.,10.,45.));
#566=CARTESIAN_POINT('',(61.5,10.,49.));
#567=CARTESIAN_POINT('',(61.5,10.,29.));
#568=CARTESIAN_POINT('Origin',(60.,10.,49.));
#569=CARTESIAN_POINT('Origin',(60.,10.,29.));
#570=CARTESIAN_POINT('Origin',(60.,-10.,29.));
#571=CARTESIAN_POINT('',(61.5,-10.,29.));
#572=CARTESIAN_POINT('Origin',(60.,-10.,29.));
#573=CARTESIAN_POINT('',(61.5,-10.,32.));
#574=CARTESIAN_POINT('',(61.5,-10.,29.));
#575=CARTESIAN_POINT('Origin',(60.,-10.,32.));
#576=CARTESIAN_POINT('Origin',(60.,-10.,29.));
#577=CARTESIAN_POINT('',(61.5,-10.,45.));
#578=CARTESIAN_POINT('Origin',(60.,-10.,45.));
#579=CARTESIAN_POINT('',(61.5,-10.,49.));
#580=CARTESIAN_POINT('',(61.5,-10.,29.));
#581=CARTESIAN_POINT('Origin',(60.,-10.,49.));
#582=CARTESIAN_POINT('Origin',(60.,-10.,29.));
#583=CARTESIAN_POINT('Origin',(59.,0.,45.));
#584=CARTESIAN_POINT('',(67.,-14.,45.));
#585=CARTESIAN_POINT('',(67.,14.,45.));
#586=CARTESIAN_POINT('',(67.,7.,45.));
#587=CARTESIAN_POINT('',(50.,-14.,45.));
#588=CARTESIAN_POINT('',(50.,-14.,45.));
#589=CARTESIAN_POINT('',(50.,14.,45.));
#590=CARTESIAN_POINT('',(50.,14.,45.));
#591=CARTESIAN_POINT('',(68.,14.,45.));
#592=CARTESIAN_POINT('Origin',(50.,14.,45.));
#593=CARTESIAN_POINT('',(50.,-14.,49.));
#594=CARTESIAN_POINT('',(50.,-14.,45.));
#595=CARTESIAN_POINT('',(50.,14.,49.));
#596=CARTESIAN_POINT('',(50.,14.,49.));
#597=CARTESIAN_POINT('',(50.,14.,45.));
#598=CARTESIAN_POINT('Origin',(70.,0.,49.));
#599=CARTESIAN_POINT('',(73.,-14.,49.));
#600=CARTESIAN_POINT('',(50.,-14.,49.));
#601=CARTESIAN_POINT('',(73.,14.,49.));
#602=CARTESIAN_POINT('',(73.,-14.,49.));
#603=CARTESIAN_POINT('',(73.,14.,49.));
#604=CARTESIAN_POINT('Origin',(67.,-14.,4.));
#605=CARTESIAN_POINT('',(67.,-14.,32.));
#606=CARTESIAN_POINT('',(67.,-14.,4.));
#607=CARTESIAN_POINT('',(50.,-14.,32.));
#608=CARTESIAN_POINT('',(50.,-14.,32.));
#609=CARTESIAN_POINT('',(50.,-14.,28.));
#610=CARTESIAN_POINT('',(50.,-14.,28.));
#611=CARTESIAN_POINT('',(67.,-14.,28.));
#612=CARTESIAN_POINT('',(50.,-14.,28.));
#613=CARTESIAN_POINT('',(67.,-14.,4.));
#614=CARTESIAN_POINT('',(67.,-14.,4.));
#615=CARTESIAN_POINT('',(73.,-14.,4.));
#616=CARTESIAN_POINT('',(67.,-14.,4.));
#617=CARTESIAN_POINT('',(73.,-14.,4.));
#618=CARTESIAN_POINT('Origin',(59.,0.,28.));
#619=CARTESIAN_POINT('',(67.,14.,28.));
#620=CARTESIAN_POINT('',(67.,7.,28.));
#621=CARTESIAN_POINT('',(50.,14.,28.));
#622=CARTESIAN_POINT('',(50.,14.,28.));
#623=CARTESIAN_POINT('',(68.,14.,28.));
#624=CARTESIAN_POINT('Origin',(50.,14.,28.));
#625=CARTESIAN_POINT('',(50.,14.,32.));
#626=CARTESIAN_POINT('',(50.,14.,32.));
#627=CARTESIAN_POINT('',(50.,14.,28.));
#628=CARTESIAN_POINT('Origin',(59.,0.,32.));
#629=CARTESIAN_POINT('',(67.,14.,32.));
#630=CARTESIAN_POINT('',(67.,7.,32.));
#631=CARTESIAN_POINT('',(68.,14.,32.));
#632=CARTESIAN_POINT('Origin',(73.,14.,4.));
#633=CARTESIAN_POINT('',(73.,14.,4.));
#634=CARTESIAN_POINT('',(73.,14.,4.));
#635=CARTESIAN_POINT('',(67.,14.,4.));
#636=CARTESIAN_POINT('',(73.,14.,4.));
#637=CARTESIAN_POINT('',(67.,14.,4.));
#638=CARTESIAN_POINT('',(67.,14.,4.));
#639=CARTESIAN_POINT('Origin',(67.,14.,4.));
#640=CARTESIAN_POINT('Origin',(67.,14.,4.));
#641=CARTESIAN_POINT('',(67.,14.,4.));
#642=CARTESIAN_POINT('Origin',(73.,-14.,4.));
#643=CARTESIAN_POINT('',(73.,-14.,4.));
#644=CARTESIAN_POINT('Origin',(70.,0.,4.));
#645=UNCERTAINTY_MEASURE_WITH_UNIT(LENGTH_MEASURE(0.01),#649,
'DISTANCE_ACCURACY_VALUE',
'Maximum model space distance between geometric entities at asserted c
onnectivities');
#646=UNCERTAINTY_MEASURE_WITH_UNIT(LENGTH_MEASURE(0.01),#649,
'DISTANCE_ACCURACY_VALUE',
'Maximum model space distance between geometric entities at asserted c
onnectivities');
#647=(
GEOMETRIC_REPRESENTATION_CONTEXT(3)
GLOBAL_UNCERTAINTY_ASSIGNED_CONTEXT((#645))
GLOBAL_UNIT_ASSIGNED_CONTEXT((#649,#651,#652))
REPRESENTATION_CONTEXT('','3D')
);
#648=(
GEOMETRIC_REPRESENTATION_CONTEXT(3)
GLOBAL_UNCERTAINTY_ASSIGNED_CONTEXT((#646))
GLOBAL_UNIT_ASSIGNED_CONTEXT((#649,#651,#652))
REPRESENTATION_CONTEXT('','3D')
);
#649=(
LENGTH_UNIT()
NAMED_UNIT(*)
SI_UNIT(.MILLI.,.METRE.)
);
#650=(
LENGTH_UNIT()
NAMED_UNIT(*)
SI_UNIT(.CENTI.,.METRE.)
);
#651=(
NAMED_UNIT(*)
PLANE_ANGLE_UNIT()
SI_UNIT($,.RADIAN.)
);
#652=(
NAMED_UNIT(*)
SI_UNIT($,.STERADIAN.)
SOLID_ANGLE_UNIT()
);
#653=SHAPE_DEFINITION_REPRESENTATION(#654,#655);
#654=PRODUCT_DEFINITION_SHAPE('',$,#657);
#655=SHAPE_REPRESENTATION('',(#401),#647);
#656=PRODUCT_DEFINITION_CONTEXT('part definition',#661,'design');
#657=PRODUCT_DEFINITION('09_Brake_Actuator_Bracket',
'09_Brake_Actuator_Bracket',#658,#656);
#658=PRODUCT_DEFINITION_FORMATION('',$,#663);
#659=PRODUCT_RELATED_PRODUCT_CATEGORY('09_Brake_Actuator_Bracket',
'09_Brake_Actuator_Bracket',(#663));
#660=APPLICATION_PROTOCOL_DEFINITION('international standard',
'automotive_design',2009,#661);
#661=APPLICATION_CONTEXT(
'Core Data for Automotive Mechanical Design Process');
#662=PRODUCT_CONTEXT('part definition',#661,'mechanical');
#663=PRODUCT('09_Brake_Actuator_Bracket','09_Brake_Actuator_Bracket',$,
(#662));
#664=PRESENTATION_STYLE_ASSIGNMENT((#665));
#665=SURFACE_STYLE_USAGE(.BOTH.,#668);
#666=SURFACE_STYLE_RENDERING_WITH_PROPERTIES($,#672,(#667));
#667=SURFACE_STYLE_TRANSPARENT(0.);
#668=SURFACE_SIDE_STYLE('',(#669,#666));
#669=SURFACE_STYLE_FILL_AREA(#670);
#670=FILL_AREA_STYLE('',(#671));
#671=FILL_AREA_STYLE_COLOUR('',#672);
#672=COLOUR_RGB('',0.996078431372549,0.996078431372549,1.);
ENDSEC;
END-ISO-10303-21;
