ISO-10303-21;
HEADER;
/* Generated by software containing ST-Developer
 * from STEP Tools, Inc. (www.steptools.com) 
 */

FILE_DESCRIPTION(
/* description */ (''),
/* implementation_level */ '2;1');

FILE_NAME(
/* name */ '10_Encoder_Mount.step',
/* time_stamp */ '2026-10-08T19:41:07+09:00',
/* author */ ('Reaction Wheel Pendulum project'),
/* organization */ (''),
/* preprocessor_version */ 'ST-DEVELOPER v20.1',
/* originating_system */ 'Autodesk Inventor 2026',
/* authorisation */ '');

FILE_SCHEMA (('AUTOMOTIVE_DESIGN { 1 0 10303 214 3 1 1 }'));
ENDSEC;

DATA;
#10=MECHANICAL_DESIGN_GEOMETRIC_PRESENTATION_REPRESENTATION('',(#13),#494);
#11=SHAPE_REPRESENTATION_RELATIONSHIP('SRR','None',#501,#12);
#12=ADVANCED_BREP_SHAPE_REPRESENTATION('',(#14),#493);
#13=STYLED_ITEM('',(#510),#14);
#14=MANIFOLD_SOLID_BREP('\X2\30BD30EA30C330C9\X0\1',#285);
#15=FACE_BOUND('',#55,.T.);
#16=FACE_BOUND('',#58,.T.);
#17=FACE_BOUND('',#59,.T.);
#18=FACE_BOUND('',#60,.T.);
#19=FACE_BOUND('',#61,.T.);
#20=FACE_BOUND('',#62,.T.);
#21=FACE_BOUND('',#63,.T.);
#22=FACE_BOUND('',#69,.T.);
#23=FACE_BOUND('',#70,.T.);
#24=FACE_BOUND('',#71,.T.);
#25=FACE_BOUND('',#72,.T.);
#26=FACE_BOUND('',#73,.T.);
#27=PLANE('',#323);
#28=PLANE('',#324);
#29=PLANE('',#325);
#30=PLANE('',#326);
#31=PLANE('',#329);
#32=PLANE('',#330);
#33=PLANE('',#335);
#34=FACE_OUTER_BOUND('',#48,.T.);
#35=FACE_OUTER_BOUND('',#49,.T.);
#36=FACE_OUTER_BOUND('',#50,.T.);
#37=FACE_OUTER_BOUND('',#51,.T.);
#38=FACE_OUTER_BOUND('',#52,.T.);
#39=FACE_OUTER_BOUND('',#53,.T.);
#40=FACE_OUTER_BOUND('',#54,.T.);
#41=FACE_OUTER_BOUND('',#56,.T.);
#42=FACE_OUTER_BOUND('',#57,.T.);
#43=FACE_OUTER_BOUND('',#64,.T.);
#44=FACE_OUTER_BOUND('',#65,.T.);
#45=FACE_OUTER_BOUND('',#66,.T.);
#46=FACE_OUTER_BOUND('',#67,.T.);
#47=FACE_OUTER_BOUND('',#68,.T.);
#48=EDGE_LOOP('',(#192,#193,#194,#195));
#49=EDGE_LOOP('',(#196,#197,#198,#199));
#50=EDGE_LOOP('',(#200,#201,#202,#203));
#51=EDGE_LOOP('',(#204,#205,#206,#207));
#52=EDGE_LOOP('',(#208,#209,#210,#211));
#53=EDGE_LOOP('',(#212,#213,#214,#215));
#54=EDGE_LOOP('',(#216,#217,#218,#219));
#55=EDGE_LOOP('',(#220));
#56=EDGE_LOOP('',(#221,#222,#223,#224,#225,#226));
#57=EDGE_LOOP('',(#227,#228,#229,#230));
#58=EDGE_LOOP('',(#231));
#59=EDGE_LOOP('',(#232));
#60=EDGE_LOOP('',(#233));
#61=EDGE_LOOP('',(#234));
#62=EDGE_LOOP('',(#235));
#63=EDGE_LOOP('',(#236));
#64=EDGE_LOOP('',(#237,#238,#239,#240,#241,#242));
#65=EDGE_LOOP('',(#243,#244,#245,#246));
#66=EDGE_LOOP('',(#247,#248,#249,#250));
#67=EDGE_LOOP('',(#251,#252,#253,#254));
#68=EDGE_LOOP('',(#255,#256,#257,#258));
#69=EDGE_LOOP('',(#259));
#70=EDGE_LOOP('',(#260));
#71=EDGE_LOOP('',(#261));
#72=EDGE_LOOP('',(#262));
#73=EDGE_LOOP('',(#263));
#74=LINE('',#421,#96);
#75=LINE('',#427,#97);
#76=LINE('',#433,#98);
#77=LINE('',#439,#99);
#78=LINE('',#445,#100);
#79=LINE('',#450,#101);
#80=LINE('',#452,#102);
#81=LINE('',#454,#103);
#82=LINE('',#455,#104);
#83=LINE('',#458,#105);
#84=LINE('',#460,#106);
#85=LINE('',#461,#107);
#86=LINE('',#465,#108);
#87=LINE('',#467,#109);
#88=LINE('',#468,#110);
#89=LINE('',#469,#111);
#90=LINE('',#473,#112);
#91=LINE('',#475,#113);
#92=LINE('',#480,#114);
#93=LINE('',#481,#115);
#94=LINE('',#482,#116);
#95=LINE('',#487,#117);
#96=VECTOR('',#342,2.10000000000001);
#97=VECTOR('',#349,1.1);
#98=VECTOR('',#356,1.1);
#99=VECTOR('',#363,1.1);
#100=VECTOR('',#370,1.1);
#101=VECTOR('',#375,10.);
#102=VECTOR('',#376,10.);
#103=VECTOR('',#377,10.);
#104=VECTOR('',#378,10.);
#105=VECTOR('',#381,10.);
#106=VECTOR('',#382,10.);
#107=VECTOR('',#383,10.);
#108=VECTOR('',#386,10.);
#109=VECTOR('',#387,10.);
#110=VECTOR('',#388,10.);
#111=VECTOR('',#389,10.);
#112=VECTOR('',#392,10.);
#113=VECTOR('',#395,10.);
#114=VECTOR('',#400,10.);
#115=VECTOR('',#401,10.);
#116=VECTOR('',#402,10.);
#117=VECTOR('',#409,8.);
#118=CIRCLE('',#309,2.10000000000001);
#119=CIRCLE('',#310,2.10000000000001);
#120=CIRCLE('',#312,1.1);
#121=CIRCLE('',#313,1.1);
#122=CIRCLE('',#315,1.1);
#123=CIRCLE('',#316,1.1);
#124=CIRCLE('',#318,1.1);
#125=CIRCLE('',#319,1.1);
#126=CIRCLE('',#321,1.1);
#127=CIRCLE('',#322,1.1);
#128=CIRCLE('',#327,15.);
#129=CIRCLE('',#328,8.);
#130=CIRCLE('',#332,8.);
#131=CIRCLE('',#334,15.);
#132=VERTEX_POINT('',#418);
#133=VERTEX_POINT('',#420);
#134=VERTEX_POINT('',#424);
#135=VERTEX_POINT('',#426);
#136=VERTEX_POINT('',#430);
#137=VERTEX_POINT('',#432);
#138=VERTEX_POINT('',#436);
#139=VERTEX_POINT('',#438);
#140=VERTEX_POINT('',#442);
#141=VERTEX_POINT('',#444);
#142=VERTEX_POINT('',#448);
#143=VERTEX_POINT('',#449);
#144=VERTEX_POINT('',#451);
#145=VERTEX_POINT('',#453);
#146=VERTEX_POINT('',#457);
#147=VERTEX_POINT('',#459);
#148=VERTEX_POINT('',#463);
#149=VERTEX_POINT('',#464);
#150=VERTEX_POINT('',#466);
#151=VERTEX_POINT('',#471);
#152=VERTEX_POINT('',#472);
#153=VERTEX_POINT('',#476);
#154=VERTEX_POINT('',#479);
#155=VERTEX_POINT('',#485);
#156=EDGE_CURVE('',#132,#132,#118,.T.);
#157=EDGE_CURVE('',#132,#133,#74,.T.);
#158=EDGE_CURVE('',#133,#133,#119,.T.);
#159=EDGE_CURVE('',#134,#134,#120,.T.);
#160=EDGE_CURVE('',#134,#135,#75,.T.);
#161=EDGE_CURVE('',#135,#135,#121,.T.);
#162=EDGE_CURVE('',#136,#136,#122,.T.);
#163=EDGE_CURVE('',#136,#137,#76,.T.);
#164=EDGE_CURVE('',#137,#137,#123,.T.);
#165=EDGE_CURVE('',#138,#138,#124,.T.);
#166=EDGE_CURVE('',#138,#139,#77,.T.);
#167=EDGE_CURVE('',#139,#139,#125,.T.);
#168=EDGE_CURVE('',#140,#140,#126,.T.);
#169=EDGE_CURVE('',#140,#141,#78,.T.);
#170=EDGE_CURVE('',#141,#141,#127,.T.);
#171=EDGE_CURVE('',#142,#143,#79,.T.);
#172=EDGE_CURVE('',#144,#142,#80,.T.);
#173=EDGE_CURVE('',#144,#145,#81,.T.);
#174=EDGE_CURVE('',#145,#143,#82,.T.);
#175=EDGE_CURVE('',#146,#144,#83,.T.);
#176=EDGE_CURVE('',#147,#146,#84,.T.);
#177=EDGE_CURVE('',#145,#147,#85,.T.);
#178=EDGE_CURVE('',#148,#149,#86,.T.);
#179=EDGE_CURVE('',#150,#148,#87,.T.);
#180=EDGE_CURVE('',#150,#143,#88,.T.);
#181=EDGE_CURVE('',#147,#149,#89,.T.);
#182=EDGE_CURVE('',#151,#152,#90,.T.);
#183=EDGE_CURVE('',#152,#148,#128,.T.);
#184=EDGE_CURVE('',#149,#151,#91,.T.);
#185=EDGE_CURVE('',#153,#153,#129,.T.);
#186=EDGE_CURVE('',#142,#154,#92,.T.);
#187=EDGE_CURVE('',#152,#154,#93,.T.);
#188=EDGE_CURVE('',#146,#151,#94,.T.);
#189=EDGE_CURVE('',#155,#155,#130,.T.);
#190=EDGE_CURVE('',#155,#153,#95,.T.);
#191=EDGE_CURVE('',#150,#154,#131,.T.);
#192=ORIENTED_EDGE('',*,*,#156,.F.);
#193=ORIENTED_EDGE('',*,*,#157,.T.);
#194=ORIENTED_EDGE('',*,*,#158,.F.);
#195=ORIENTED_EDGE('',*,*,#157,.F.);
#196=ORIENTED_EDGE('',*,*,#159,.F.);
#197=ORIENTED_EDGE('',*,*,#160,.T.);
#198=ORIENTED_EDGE('',*,*,#161,.F.);
#199=ORIENTED_EDGE('',*,*,#160,.F.);
#200=ORIENTED_EDGE('',*,*,#162,.F.);
#201=ORIENTED_EDGE('',*,*,#163,.T.);
#202=ORIENTED_EDGE('',*,*,#164,.F.);
#203=ORIENTED_EDGE('',*,*,#163,.F.);
#204=ORIENTED_EDGE('',*,*,#165,.F.);
#205=ORIENTED_EDGE('',*,*,#166,.T.);
#206=ORIENTED_EDGE('',*,*,#167,.F.);
#207=ORIENTED_EDGE('',*,*,#166,.F.);
#208=ORIENTED_EDGE('',*,*,#168,.F.);
#209=ORIENTED_EDGE('',*,*,#169,.T.);
#210=ORIENTED_EDGE('',*,*,#170,.F.);
#211=ORIENTED_EDGE('',*,*,#169,.F.);
#212=ORIENTED_EDGE('',*,*,#171,.F.);
#213=ORIENTED_EDGE('',*,*,#172,.F.);
#214=ORIENTED_EDGE('',*,*,#173,.T.);
#215=ORIENTED_EDGE('',*,*,#174,.T.);
#216=ORIENTED_EDGE('',*,*,#175,.F.);
#217=ORIENTED_EDGE('',*,*,#176,.F.);
#218=ORIENTED_EDGE('',*,*,#177,.F.);
#219=ORIENTED_EDGE('',*,*,#173,.F.);
#220=ORIENTED_EDGE('',*,*,#156,.T.);
#221=ORIENTED_EDGE('',*,*,#178,.F.);
#222=ORIENTED_EDGE('',*,*,#179,.F.);
#223=ORIENTED_EDGE('',*,*,#180,.T.);
#224=ORIENTED_EDGE('',*,*,#174,.F.);
#225=ORIENTED_EDGE('',*,*,#177,.T.);
#226=ORIENTED_EDGE('',*,*,#181,.T.);
#227=ORIENTED_EDGE('',*,*,#182,.T.);
#228=ORIENTED_EDGE('',*,*,#183,.T.);
#229=ORIENTED_EDGE('',*,*,#178,.T.);
#230=ORIENTED_EDGE('',*,*,#184,.T.);
#231=ORIENTED_EDGE('',*,*,#158,.T.);
#232=ORIENTED_EDGE('',*,*,#161,.T.);
#233=ORIENTED_EDGE('',*,*,#164,.T.);
#234=ORIENTED_EDGE('',*,*,#167,.T.);
#235=ORIENTED_EDGE('',*,*,#170,.T.);
#236=ORIENTED_EDGE('',*,*,#185,.T.);
#237=ORIENTED_EDGE('',*,*,#186,.T.);
#238=ORIENTED_EDGE('',*,*,#187,.F.);
#239=ORIENTED_EDGE('',*,*,#182,.F.);
#240=ORIENTED_EDGE('',*,*,#188,.F.);
#241=ORIENTED_EDGE('',*,*,#175,.T.);
#242=ORIENTED_EDGE('',*,*,#172,.T.);
#243=ORIENTED_EDGE('',*,*,#188,.T.);
#244=ORIENTED_EDGE('',*,*,#184,.F.);
#245=ORIENTED_EDGE('',*,*,#181,.F.);
#246=ORIENTED_EDGE('',*,*,#176,.T.);
#247=ORIENTED_EDGE('',*,*,#189,.F.);
#248=ORIENTED_EDGE('',*,*,#190,.T.);
#249=ORIENTED_EDGE('',*,*,#185,.F.);
#250=ORIENTED_EDGE('',*,*,#190,.F.);
#251=ORIENTED_EDGE('',*,*,#179,.T.);
#252=ORIENTED_EDGE('',*,*,#183,.F.);
#253=ORIENTED_EDGE('',*,*,#187,.T.);
#254=ORIENTED_EDGE('',*,*,#191,.F.);
#255=ORIENTED_EDGE('',*,*,#171,.T.);
#256=ORIENTED_EDGE('',*,*,#180,.F.);
#257=ORIENTED_EDGE('',*,*,#191,.T.);
#258=ORIENTED_EDGE('',*,*,#186,.F.);
#259=ORIENTED_EDGE('',*,*,#159,.T.);
#260=ORIENTED_EDGE('',*,*,#162,.T.);
#261=ORIENTED_EDGE('',*,*,#165,.T.);
#262=ORIENTED_EDGE('',*,*,#168,.T.);
#263=ORIENTED_EDGE('',*,*,#189,.T.);
#264=CYLINDRICAL_SURFACE('',#308,2.10000000000001);
#265=CYLINDRICAL_SURFACE('',#311,1.1);
#266=CYLINDRICAL_SURFACE('',#314,1.1);
#267=CYLINDRICAL_SURFACE('',#317,1.1);
#268=CYLINDRICAL_SURFACE('',#320,1.1);
#269=CYLINDRICAL_SURFACE('',#331,8.);
#270=CYLINDRICAL_SURFACE('',#333,15.);
#271=ADVANCED_FACE('',(#34),#264,.F.);
#272=ADVANCED_FACE('',(#35),#265,.F.);
#273=ADVANCED_FACE('',(#36),#266,.F.);
#274=ADVANCED_FACE('',(#37),#267,.F.);
#275=ADVANCED_FACE('',(#38),#268,.F.);
#276=ADVANCED_FACE('',(#39),#27,.T.);
#277=ADVANCED_FACE('',(#40,#15),#28,.F.);
#278=ADVANCED_FACE('',(#41),#29,.T.);
#279=ADVANCED_FACE('',(#42,#16,#17,#18,#19,#20,#21),#30,.T.);
#280=ADVANCED_FACE('',(#43),#31,.T.);
#281=ADVANCED_FACE('',(#44),#32,.T.);
#282=ADVANCED_FACE('',(#45),#269,.F.);
#283=ADVANCED_FACE('',(#46),#270,.T.);
#284=ADVANCED_FACE('',(#47,#22,#23,#24,#25,#26),#33,.F.);
#285=CLOSED_SHELL('',(#271,#272,#273,#274,#275,#276,#277,#278,#279,#280,
#281,#282,#283,#284));
#286=DERIVED_UNIT_ELEMENT(#289,1.);
#287=DERIVED_UNIT_ELEMENT(#496,-3.);
#288=DIMENSIONAL_EXPONENTS(0.,1.,0.,0.,0.,0.,0.);
#289=(
CONVERSION_BASED_UNIT('gram',#291)
MASS_UNIT()
NAMED_UNIT(#288)
);
#290=(
MASS_UNIT()
NAMED_UNIT(*)
SI_UNIT(.KILO.,.GRAM.)
);
#291=MASS_MEASURE_WITH_UNIT(MASS_MEASURE(0.001),#290);
#292=DERIVED_UNIT((#286,#287));
#293=MEASURE_REPRESENTATION_ITEM('density measure',
POSITIVE_RATIO_MEASURE(1.541),#292);
#294=PROPERTY_DEFINITION_REPRESENTATION(#299,#296);
#295=PROPERTY_DEFINITION_REPRESENTATION(#300,#297);
#296=REPRESENTATION('material name',(#298),#493);
#297=REPRESENTATION('density',(#293),#493);
#298=DESCRIPTIVE_REPRESENTATION_ITEM('PET \X2\30D730E930B930C130C330AF\X0\',
'PET \X2\30D730E930B930C130C330AF\X0\');
#299=PROPERTY_DEFINITION('material property','material name',#503);
#300=PROPERTY_DEFINITION('material property','density of part',#503);
#301=DATE_TIME_ROLE('creation_date');
#302=APPLIED_DATE_AND_TIME_ASSIGNMENT(#303,#301,(#503));
#303=DATE_AND_TIME(#304,#305);
#304=CALENDAR_DATE(2026,8,10);
#305=LOCAL_TIME(0,0,0.,#306);
#306=COORDINATED_UNIVERSAL_TIME_OFFSET(0,0,.BEHIND.);
#307=AXIS2_PLACEMENT_3D('',#416,#336,#337);
#308=AXIS2_PLACEMENT_3D('',#417,#338,#339);
#309=AXIS2_PLACEMENT_3D('',#419,#340,#341);
#310=AXIS2_PLACEMENT_3D('',#422,#343,#344);
#311=AXIS2_PLACEMENT_3D('',#423,#345,#346);
#312=AXIS2_PLACEMENT_3D('',#425,#347,#348);
#313=AXIS2_PLACEMENT_3D('',#428,#350,#351);
#314=AXIS2_PLACEMENT_3D('',#429,#352,#353);
#315=AXIS2_PLACEMENT_3D('',#431,#354,#355);
#316=AXIS2_PLACEMENT_3D('',#434,#357,#358);
#317=AXIS2_PLACEMENT_3D('',#435,#359,#360);
#318=AXIS2_PLACEMENT_3D('',#437,#361,#362);
#319=AXIS2_PLACEMENT_3D('',#440,#364,#365);
#320=AXIS2_PLACEMENT_3D('',#441,#366,#367);
#321=AXIS2_PLACEMENT_3D('',#443,#368,#369);
#322=AXIS2_PLACEMENT_3D('',#446,#371,#372);
#323=AXIS2_PLACEMENT_3D('',#447,#373,#374);
#324=AXIS2_PLACEMENT_3D('',#456,#379,#380);
#325=AXIS2_PLACEMENT_3D('',#462,#384,#385);
#326=AXIS2_PLACEMENT_3D('',#470,#390,#391);
#327=AXIS2_PLACEMENT_3D('',#474,#393,#394);
#328=AXIS2_PLACEMENT_3D('',#477,#396,#397);
#329=AXIS2_PLACEMENT_3D('',#478,#398,#399);
#330=AXIS2_PLACEMENT_3D('',#483,#403,#404);
#331=AXIS2_PLACEMENT_3D('',#484,#405,#406);
#332=AXIS2_PLACEMENT_3D('',#486,#407,#408);
#333=AXIS2_PLACEMENT_3D('',#488,#410,#411);
#334=AXIS2_PLACEMENT_3D('',#489,#412,#413);
#335=AXIS2_PLACEMENT_3D('',#490,#414,#415);
#336=DIRECTION('axis',(0.,0.,1.));
#337=DIRECTION('refdir',(1.,0.,0.));
#338=DIRECTION('center_axis',(0.,0.,1.));
#339=DIRECTION('ref_axis',(-1.,0.,0.));
#340=DIRECTION('center_axis',(0.,0.,1.));
#341=DIRECTION('ref_axis',(-1.,0.,0.));
#342=DIRECTION('',(0.,0.,1.));
#343=DIRECTION('center_axis',(0.,0.,-1.));
#344=DIRECTION('ref_axis',(-1.,0.,0.));
#345=DIRECTION('center_axis',(0.,0.,1.));
#346=DIRECTION('ref_axis',(-1.,0.,0.));
#347=DIRECTION('center_axis',(0.,0.,1.));
#348=DIRECTION('ref_axis',(-1.,0.,0.));
#349=DIRECTION('',(0.,0.,1.));
#350=DIRECTION('center_axis',(0.,0.,-1.));
#351=DIRECTION('ref_axis',(-1.,0.,0.));
#352=DIRECTION('center_axis',(0.,0.,1.));
#353=DIRECTION('ref_axis',(-1.,0.,0.));
#354=DIRECTION('center_axis',(0.,0.,1.));
#355=DIRECTION('ref_axis',(-1.,0.,0.));
#356=DIRECTION('',(0.,0.,1.));
#357=DIRECTION('center_axis',(0.,0.,-1.));
#358=DIRECTION('ref_axis',(-1.,0.,0.));
#359=DIRECTION('center_axis',(0.,0.,1.));
#360=DIRECTION('ref_axis',(-1.,0.,0.));
#361=DIRECTION('center_axis',(0.,0.,1.));
#362=DIRECTION('ref_axis',(-1.,0.,0.));
#363=DIRECTION('',(0.,0.,1.));
#364=DIRECTION('center_axis',(0.,0.,-1.));
#365=DIRECTION('ref_axis',(-1.,0.,0.));
#366=DIRECTION('center_axis',(0.,0.,1.));
#367=DIRECTION('ref_axis',(-1.,0.,0.));
#368=DIRECTION('center_axis',(0.,0.,1.));
#369=DIRECTION('ref_axis',(-1.,0.,0.));
#370=DIRECTION('',(0.,0.,1.));
#371=DIRECTION('center_axis',(0.,0.,-1.));
#372=DIRECTION('ref_axis',(-1.,0.,0.));
#373=DIRECTION('center_axis',(1.,0.,0.));
#374=DIRECTION('ref_axis',(0.,1.,0.));
#375=DIRECTION('',(0.,1.,0.));
#376=DIRECTION('',(0.,0.,1.));
#377=DIRECTION('',(0.,1.,0.));
#378=DIRECTION('',(0.,0.,1.));
#379=DIRECTION('center_axis',(0.,0.,1.));
#380=DIRECTION('ref_axis',(1.,0.,0.));
#381=DIRECTION('',(1.,0.,0.));
#382=DIRECTION('',(0.,-1.,0.));
#383=DIRECTION('',(-1.,0.,0.));
#384=DIRECTION('center_axis',(0.,1.,0.));
#385=DIRECTION('ref_axis',(-1.,0.,0.));
#386=DIRECTION('',(-1.,0.,0.));
#387=DIRECTION('',(0.,0.,1.));
#388=DIRECTION('',(-1.,0.,0.));
#389=DIRECTION('',(0.,0.,1.));
#390=DIRECTION('center_axis',(0.,0.,1.));
#391=DIRECTION('ref_axis',(1.,0.,0.));
#392=DIRECTION('',(1.,0.,0.));
#393=DIRECTION('center_axis',(0.,0.,1.));
#394=DIRECTION('ref_axis',(-1.,0.,0.));
#395=DIRECTION('',(0.,-1.,0.));
#396=DIRECTION('center_axis',(0.,0.,-1.));
#397=DIRECTION('ref_axis',(-1.,0.,0.));
#398=DIRECTION('center_axis',(0.,-1.,0.));
#399=DIRECTION('ref_axis',(1.,0.,0.));
#400=DIRECTION('',(1.,0.,0.));
#401=DIRECTION('',(0.,0.,-1.));
#402=DIRECTION('',(0.,0.,1.));
#403=DIRECTION('center_axis',(-1.,0.,0.));
#404=DIRECTION('ref_axis',(0.,-1.,0.));
#405=DIRECTION('center_axis',(0.,0.,1.));
#406=DIRECTION('ref_axis',(-1.,0.,0.));
#407=DIRECTION('center_axis',(0.,0.,1.));
#408=DIRECTION('ref_axis',(-1.,0.,0.));
#409=DIRECTION('',(0.,0.,1.));
#410=DIRECTION('center_axis',(0.,0.,1.));
#411=DIRECTION('ref_axis',(1.,1.22464679914735E-16,0.));
#412=DIRECTION('center_axis',(0.,0.,-1.));
#413=DIRECTION('ref_axis',(-1.,0.,0.));
#414=DIRECTION('center_axis',(0.,0.,1.));
#415=DIRECTION('ref_axis',(1.,0.,0.));
#416=CARTESIAN_POINT('',(0.,0.,0.));
#417=CARTESIAN_POINT('Origin',(-86.,0.,3.));
#418=CARTESIAN_POINT('',(-83.9,2.57175827820945E-16,3.));
#419=CARTESIAN_POINT('Origin',(-86.,0.,3.));
#420=CARTESIAN_POINT('',(-83.9,2.57175827820945E-16,65.));
#421=CARTESIAN_POINT('',(-83.9,2.57175827820945E-16,3.));
#422=CARTESIAN_POINT('Origin',(-86.,0.,65.));
#423=CARTESIAN_POINT('Origin',(7.5,7.5,63.));
#424=CARTESIAN_POINT('',(8.6,7.5,63.));
#425=CARTESIAN_POINT('Origin',(7.5,7.5,63.));
#426=CARTESIAN_POINT('',(8.6,7.5,65.));
#427=CARTESIAN_POINT('',(8.6,7.5,63.));
#428=CARTESIAN_POINT('Origin',(7.5,7.5,65.));
#429=CARTESIAN_POINT('Origin',(7.5,-7.5,63.));
#430=CARTESIAN_POINT('',(8.6,-7.5,63.));
#431=CARTESIAN_POINT('Origin',(7.5,-7.5,63.));
#432=CARTESIAN_POINT('',(8.6,-7.5,65.));
#433=CARTESIAN_POINT('',(8.6,-7.5,63.));
#434=CARTESIAN_POINT('Origin',(7.5,-7.5,65.));
#435=CARTESIAN_POINT('Origin',(-7.5,7.5,63.));
#436=CARTESIAN_POINT('',(-6.4,7.5,63.));
#437=CARTESIAN_POINT('Origin',(-7.5,7.5,63.));
#438=CARTESIAN_POINT('',(-6.4,7.5,65.));
#439=CARTESIAN_POINT('',(-6.4,7.5,63.));
#440=CARTESIAN_POINT('Origin',(-7.5,7.5,65.));
#441=CARTESIAN_POINT('Origin',(-7.5,-7.5,63.));
#442=CARTESIAN_POINT('',(-6.4,-7.5,63.));
#443=CARTESIAN_POINT('Origin',(-7.5,-7.5,63.));
#444=CARTESIAN_POINT('',(-6.4,-7.5,65.));
#445=CARTESIAN_POINT('',(-6.4,-7.5,63.));
#446=CARTESIAN_POINT('Origin',(-7.5,-7.5,65.));
#447=CARTESIAN_POINT('Origin',(-83.,-5.,3.));
#448=CARTESIAN_POINT('',(-83.,-5.,63.));
#449=CARTESIAN_POINT('',(-83.,5.,63.));
#450=CARTESIAN_POINT('',(-83.,-2.5,63.));
#451=CARTESIAN_POINT('',(-83.,-5.,3.));
#452=CARTESIAN_POINT('',(-83.,-5.,3.));
#453=CARTESIAN_POINT('',(-83.,5.,3.));
#454=CARTESIAN_POINT('',(-83.,-5.,3.));
#455=CARTESIAN_POINT('',(-83.,5.,3.));
#456=CARTESIAN_POINT('Origin',(-86.,0.,3.));
#457=CARTESIAN_POINT('',(-89.,-5.,3.));
#458=CARTESIAN_POINT('',(-89.,-5.,3.));
#459=CARTESIAN_POINT('',(-89.,5.,3.));
#460=CARTESIAN_POINT('',(-89.,5.,3.));
#461=CARTESIAN_POINT('',(-83.,5.,3.));
#462=CARTESIAN_POINT('Origin',(-13.,5.,63.));
#463=CARTESIAN_POINT('',(-14.142135623731,5.,65.));
#464=CARTESIAN_POINT('',(-89.,5.,65.));
#465=CARTESIAN_POINT('',(-13.,5.,65.));
#466=CARTESIAN_POINT('',(-14.142135623731,5.,63.));
#467=CARTESIAN_POINT('',(-14.142135623731,5.,63.));
#468=CARTESIAN_POINT('',(-13.,5.,63.));
#469=CARTESIAN_POINT('',(-89.,5.,63.));
#470=CARTESIAN_POINT('Origin',(-1.13994576067134E-15,-2.46716227694479E-16,
65.));
#471=CARTESIAN_POINT('',(-89.,-5.,65.));
#472=CARTESIAN_POINT('',(-14.142135623731,-5.,65.));
#473=CARTESIAN_POINT('',(-89.,-5.,65.));
#474=CARTESIAN_POINT('Origin',(0.,0.,65.));
#475=CARTESIAN_POINT('',(-89.,5.,65.));
#476=CARTESIAN_POINT('',(8.,9.79717439317883E-16,65.));
#477=CARTESIAN_POINT('Origin',(0.,0.,65.));
#478=CARTESIAN_POINT('Origin',(-89.,-5.,63.));
#479=CARTESIAN_POINT('',(-14.142135623731,-5.,63.));
#480=CARTESIAN_POINT('',(-89.,-5.,63.));
#481=CARTESIAN_POINT('',(-14.142135623731,-5.,63.));
#482=CARTESIAN_POINT('',(-89.,-5.,3.));
#483=CARTESIAN_POINT('Origin',(-89.,5.,63.));
#484=CARTESIAN_POINT('Origin',(0.,0.,63.));
#485=CARTESIAN_POINT('',(8.,9.79717439317883E-16,63.));
#486=CARTESIAN_POINT('Origin',(0.,0.,63.));
#487=CARTESIAN_POINT('',(8.,9.79717439317883E-16,63.));
#488=CARTESIAN_POINT('Origin',(0.,0.,63.));
#489=CARTESIAN_POINT('Origin',(0.,0.,63.));
#490=CARTESIAN_POINT('Origin',(-1.13994576067134E-15,-2.46716227694479E-16,
63.));
#491=UNCERTAINTY_MEASURE_WITH_UNIT(LENGTH_MEASURE(0.01),#495,
'DISTANCE_ACCURACY_VALUE',
'Maximum model space distance between geometric entities at asserted c
onnectivities');
#492=UNCERTAINTY_MEASURE_WITH_UNIT(LENGTH_MEASURE(0.01),#495,
'DISTANCE_ACCURACY_VALUE',
'Maximum model space distance between geometric entities at asserted c
onnectivities');
#493=(
GEOMETRIC_REPRESENTATION_CONTEXT(3)
GLOBAL_UNCERTAINTY_ASSIGNED_CONTEXT((#491))
GLOBAL_UNIT_ASSIGNED_CONTEXT((#495,#497,#498))
REPRESENTATION_CONTEXT('','3D')
);
#494=(
GEOMETRIC_REPRESENTATION_CONTEXT(3)
GLOBAL_UNCERTAINTY_ASSIGNED_CONTEXT((#492))
GLOBAL_UNIT_ASSIGNED_CONTEXT((#495,#497,#498))
REPRESENTATION_CONTEXT('','3D')
);
#495=(
LENGTH_UNIT()
NAMED_UNIT(*)
SI_UNIT(.MILLI.,.METRE.)
);
#496=(
LENGTH_UNIT()
NAMED_UNIT(*)
SI_UNIT(.CENTI.,.METRE.)
);
#497=(
NAMED_UNIT(*)
PLANE_ANGLE_UNIT()
SI_UNIT($,.RADIAN.)
);
#498=(
NAMED_UNIT(*)
SI_UNIT($,.STERADIAN.)
SOLID_ANGLE_UNIT()
);
#499=SHAPE_DEFINITION_REPRESENTATION(#500,#501);
#500=PRODUCT_DEFINITION_SHAPE('',$,#503);
#501=SHAPE_REPRESENTATION('',(#307),#493);
#502=PRODUCT_DEFINITION_CONTEXT('part definition',#507,'design');
#503=PRODUCT_DEFINITION('10_Encoder_Mount','10_Encoder_Mount',#504,#502);
#504=PRODUCT_DEFINITION_FORMATION('',$,#509);
#505=PRODUCT_RELATED_PRODUCT_CATEGORY('10_Encoder_Mount',
'10_Encoder_Mount',(#509));
#506=APPLICATION_PROTOCOL_DEFINITION('international standard',
'automotive_design',2009,#507);
#507=APPLICATION_CONTEXT(
'Core Data for Automotive Mechanical Design Process');
#508=PRODUCT_CONTEXT('part definition',#507,'mechanical');
#509=PRODUCT('10_Encoder_Mount','10_Encoder_Mount',$,(#508));
#510=PRESENTATION_STYLE_ASSIGNMENT((#511));
#511=SURFACE_STYLE_USAGE(.BOTH.,#514);
#512=SURFACE_STYLE_RENDERING_WITH_PROPERTIES($,#518,(#513));
#513=SURFACE_STYLE_TRANSPARENT(0.53999999165535);
#514=SURFACE_SIDE_STYLE('',(#515,#512));
#515=SURFACE_STYLE_FILL_AREA(#516);
#516=FILL_AREA_STYLE('',(#517));
#517=FILL_AREA_STYLE_COLOUR('',#518);
#518=COLOUR_RGB('',0.8,0.8,0.8);
ENDSEC;
END-ISO-10303-21;
