ISO-10303-21;
HEADER;
/* Generated by software containing ST-Developer
 * from STEP Tools, Inc. (www.steptools.com) 
 */

FILE_DESCRIPTION(
/* description */ (''),
/* implementation_level */ '2;1');

FILE_NAME(
/* name */ '13_Torsional_Coupling.step',
/* time_stamp */ '2026-10-08T19:41:07+09:00',
/* author */ ('Reaction Wheel Pendulum project'),
/* organization */ (''),
/* preprocessor_version */ 'ST-DEVELOPER v20.1',
/* originating_system */ 'Autodesk Inventor 2026',
/* authorisation */ '');

FILE_SCHEMA (('AUTOMOTIVE_DESIGN { 1 0 10303 214 3 1 1 }'));
ENDSEC;

DATA;
#10=MECHANICAL_DESIGN_GEOMETRIC_PRESENTATION_REPRESENTATION('',(#13),#224);
#11=SHAPE_REPRESENTATION_RELATIONSHIP('SRR','None',#231,#12);
#12=ADVANCED_BREP_SHAPE_REPRESENTATION('',(#14),#223);
#13=STYLED_ITEM('',(#240),#14);
#14=MANIFOLD_SOLID_BREP('\X2\30BD30EA30C330C9\X0\1',#115);
#15=FACE_BOUND('',#33,.T.);
#16=FACE_BOUND('',#35,.T.);
#17=FACE_BOUND('',#40,.T.);
#18=FACE_BOUND('',#42,.T.);
#19=PLANE('',#141);
#20=PLANE('',#143);
#21=PLANE('',#152);
#22=PLANE('',#153);
#23=FACE_OUTER_BOUND('',#31,.T.);
#24=FACE_OUTER_BOUND('',#32,.T.);
#25=FACE_OUTER_BOUND('',#34,.T.);
#26=FACE_OUTER_BOUND('',#36,.T.);
#27=FACE_OUTER_BOUND('',#37,.T.);
#28=FACE_OUTER_BOUND('',#38,.T.);
#29=FACE_OUTER_BOUND('',#39,.T.);
#30=FACE_OUTER_BOUND('',#41,.T.);
#31=EDGE_LOOP('',(#79,#80,#81,#82));
#32=EDGE_LOOP('',(#83));
#33=EDGE_LOOP('',(#84));
#34=EDGE_LOOP('',(#85));
#35=EDGE_LOOP('',(#86));
#36=EDGE_LOOP('',(#87,#88,#89,#90));
#37=EDGE_LOOP('',(#91,#92,#93,#94));
#38=EDGE_LOOP('',(#95,#96,#97,#98));
#39=EDGE_LOOP('',(#99));
#40=EDGE_LOOP('',(#100));
#41=EDGE_LOOP('',(#101));
#42=EDGE_LOOP('',(#102));
#43=LINE('',#197,#47);
#44=LINE('',#207,#48);
#45=LINE('',#212,#49);
#46=LINE('',#217,#50);
#47=VECTOR('',#160,5.5);
#48=VECTOR('',#173,5.);
#49=VECTOR('',#180,3.);
#50=VECTOR('',#185,12.7);
#51=CIRCLE('',#139,5.5);
#52=CIRCLE('',#140,5.5);
#53=CIRCLE('',#142,3.);
#54=CIRCLE('',#144,5.);
#55=CIRCLE('',#146,5.);
#56=CIRCLE('',#148,3.);
#57=CIRCLE('',#150,12.7);
#58=CIRCLE('',#151,12.7);
#59=VERTEX_POINT('',#194);
#60=VERTEX_POINT('',#196);
#61=VERTEX_POINT('',#200);
#62=VERTEX_POINT('',#203);
#63=VERTEX_POINT('',#206);
#64=VERTEX_POINT('',#210);
#65=VERTEX_POINT('',#214);
#66=VERTEX_POINT('',#216);
#67=EDGE_CURVE('',#59,#59,#51,.T.);
#68=EDGE_CURVE('',#59,#60,#43,.T.);
#69=EDGE_CURVE('',#60,#60,#52,.T.);
#70=EDGE_CURVE('',#61,#61,#53,.T.);
#71=EDGE_CURVE('',#62,#62,#54,.T.);
#72=EDGE_CURVE('',#62,#63,#44,.T.);
#73=EDGE_CURVE('',#63,#63,#55,.T.);
#74=EDGE_CURVE('',#64,#64,#56,.T.);
#75=EDGE_CURVE('',#64,#61,#45,.T.);
#76=EDGE_CURVE('',#65,#65,#57,.T.);
#77=EDGE_CURVE('',#65,#66,#46,.T.);
#78=EDGE_CURVE('',#66,#66,#58,.T.);
#79=ORIENTED_EDGE('',*,*,#67,.T.);
#80=ORIENTED_EDGE('',*,*,#68,.T.);
#81=ORIENTED_EDGE('',*,*,#69,.T.);
#82=ORIENTED_EDGE('',*,*,#68,.F.);
#83=ORIENTED_EDGE('',*,*,#67,.F.);
#84=ORIENTED_EDGE('',*,*,#70,.F.);
#85=ORIENTED_EDGE('',*,*,#69,.F.);
#86=ORIENTED_EDGE('',*,*,#71,.F.);
#87=ORIENTED_EDGE('',*,*,#71,.T.);
#88=ORIENTED_EDGE('',*,*,#72,.T.);
#89=ORIENTED_EDGE('',*,*,#73,.F.);
#90=ORIENTED_EDGE('',*,*,#72,.F.);
#91=ORIENTED_EDGE('',*,*,#74,.F.);
#92=ORIENTED_EDGE('',*,*,#75,.T.);
#93=ORIENTED_EDGE('',*,*,#70,.T.);
#94=ORIENTED_EDGE('',*,*,#75,.F.);
#95=ORIENTED_EDGE('',*,*,#76,.F.);
#96=ORIENTED_EDGE('',*,*,#77,.T.);
#97=ORIENTED_EDGE('',*,*,#78,.F.);
#98=ORIENTED_EDGE('',*,*,#77,.F.);
#99=ORIENTED_EDGE('',*,*,#78,.T.);
#100=ORIENTED_EDGE('',*,*,#74,.T.);
#101=ORIENTED_EDGE('',*,*,#76,.T.);
#102=ORIENTED_EDGE('',*,*,#73,.T.);
#103=CYLINDRICAL_SURFACE('',#138,5.5);
#104=CYLINDRICAL_SURFACE('',#145,5.);
#105=CYLINDRICAL_SURFACE('',#147,3.);
#106=CYLINDRICAL_SURFACE('',#149,12.7);
#107=ADVANCED_FACE('',(#23),#103,.F.);
#108=ADVANCED_FACE('',(#24,#15),#19,.T.);
#109=ADVANCED_FACE('',(#25,#16),#20,.F.);
#110=ADVANCED_FACE('',(#26),#104,.F.);
#111=ADVANCED_FACE('',(#27),#105,.F.);
#112=ADVANCED_FACE('',(#28),#106,.T.);
#113=ADVANCED_FACE('',(#29,#17),#21,.F.);
#114=ADVANCED_FACE('',(#30,#18),#22,.T.);
#115=CLOSED_SHELL('',(#107,#108,#109,#110,#111,#112,#113,#114));
#116=DERIVED_UNIT_ELEMENT(#119,1.);
#117=DERIVED_UNIT_ELEMENT(#226,-3.);
#118=DIMENSIONAL_EXPONENTS(0.,1.,0.,0.,0.,0.,0.);
#119=(
CONVERSION_BASED_UNIT('gram',#121)
MASS_UNIT()
NAMED_UNIT(#118)
);
#120=(
MASS_UNIT()
NAMED_UNIT(*)
SI_UNIT(.KILO.,.GRAM.)
);
#121=MASS_MEASURE_WITH_UNIT(MASS_MEASURE(0.001),#120);
#122=DERIVED_UNIT((#116,#117));
#123=MEASURE_REPRESENTATION_ITEM('density measure',
POSITIVE_RATIO_MEASURE(2.7),#122);
#124=PROPERTY_DEFINITION_REPRESENTATION(#129,#126);
#125=PROPERTY_DEFINITION_REPRESENTATION(#130,#127);
#126=REPRESENTATION('material name',(#128),#223);
#127=REPRESENTATION('density',(#123),#223);
#128=DESCRIPTIVE_REPRESENTATION_ITEM('\X2\30A230EB30DF30CB30A630E0\X0\ 
6061','\X2\30A230EB30DF30CB30A630E0\X0\ 6061');
#129=PROPERTY_DEFINITION('material property','material name',#233);
#130=PROPERTY_DEFINITION('material property','density of part',#233);
#131=DATE_TIME_ROLE('creation_date');
#132=APPLIED_DATE_AND_TIME_ASSIGNMENT(#133,#131,(#233));
#133=DATE_AND_TIME(#134,#135);
#134=CALENDAR_DATE(2026,8,10);
#135=LOCAL_TIME(0,0,0.,#136);
#136=COORDINATED_UNIVERSAL_TIME_OFFSET(0,0,.BEHIND.);
#137=AXIS2_PLACEMENT_3D('',#192,#154,#155);
#138=AXIS2_PLACEMENT_3D('',#193,#156,#157);
#139=AXIS2_PLACEMENT_3D('',#195,#158,#159);
#140=AXIS2_PLACEMENT_3D('',#198,#161,#162);
#141=AXIS2_PLACEMENT_3D('',#199,#163,#164);
#142=AXIS2_PLACEMENT_3D('',#201,#165,#166);
#143=AXIS2_PLACEMENT_3D('',#202,#167,#168);
#144=AXIS2_PLACEMENT_3D('',#204,#169,#170);
#145=AXIS2_PLACEMENT_3D('',#205,#171,#172);
#146=AXIS2_PLACEMENT_3D('',#208,#174,#175);
#147=AXIS2_PLACEMENT_3D('',#209,#176,#177);
#148=AXIS2_PLACEMENT_3D('',#211,#178,#179);
#149=AXIS2_PLACEMENT_3D('',#213,#181,#182);
#150=AXIS2_PLACEMENT_3D('',#215,#183,#184);
#151=AXIS2_PLACEMENT_3D('',#218,#186,#187);
#152=AXIS2_PLACEMENT_3D('',#219,#188,#189);
#153=AXIS2_PLACEMENT_3D('',#220,#190,#191);
#154=DIRECTION('axis',(0.,0.,1.));
#155=DIRECTION('refdir',(1.,0.,0.));
#156=DIRECTION('center_axis',(0.,0.,1.));
#157=DIRECTION('ref_axis',(-1.,0.,0.));
#158=DIRECTION('center_axis',(0.,0.,-1.));
#159=DIRECTION('ref_axis',(-1.,0.,0.));
#160=DIRECTION('',(0.,0.,1.));
#161=DIRECTION('center_axis',(0.,0.,1.));
#162=DIRECTION('ref_axis',(-1.,0.,0.));
#163=DIRECTION('center_axis',(0.,0.,1.));
#164=DIRECTION('ref_axis',(1.,0.,0.));
#165=DIRECTION('center_axis',(0.,0.,1.));
#166=DIRECTION('ref_axis',(-1.,0.,0.));
#167=DIRECTION('center_axis',(0.,0.,1.));
#168=DIRECTION('ref_axis',(1.,0.,0.));
#169=DIRECTION('center_axis',(0.,0.,-1.));
#170=DIRECTION('ref_axis',(-1.,0.,0.));
#171=DIRECTION('center_axis',(0.,0.,1.));
#172=DIRECTION('ref_axis',(-1.,0.,0.));
#173=DIRECTION('',(0.,0.,1.));
#174=DIRECTION('center_axis',(0.,0.,-1.));
#175=DIRECTION('ref_axis',(-1.,0.,0.));
#176=DIRECTION('center_axis',(0.,0.,1.));
#177=DIRECTION('ref_axis',(-1.,0.,0.));
#178=DIRECTION('center_axis',(0.,0.,1.));
#179=DIRECTION('ref_axis',(-1.,0.,0.));
#180=DIRECTION('',(0.,0.,1.));
#181=DIRECTION('center_axis',(0.,0.,1.));
#182=DIRECTION('ref_axis',(-1.,0.,0.));
#183=DIRECTION('center_axis',(0.,0.,1.));
#184=DIRECTION('ref_axis',(-1.,0.,0.));
#185=DIRECTION('',(0.,0.,-1.));
#186=DIRECTION('center_axis',(0.,0.,-1.));
#187=DIRECTION('ref_axis',(-1.,0.,0.));
#188=DIRECTION('center_axis',(0.,0.,1.));
#189=DIRECTION('ref_axis',(1.,0.,0.));
#190=DIRECTION('center_axis',(0.,0.,1.));
#191=DIRECTION('ref_axis',(1.,0.,0.));
#192=CARTESIAN_POINT('',(0.,0.,0.));
#193=CARTESIAN_POINT('Origin',(0.,0.,-29.15));
#194=CARTESIAN_POINT('',(5.5,6.73555739531044E-16,-29.15));
#195=CARTESIAN_POINT('Origin',(0.,0.,-29.15));
#196=CARTESIAN_POINT('',(5.5,6.73555739531044E-16,-17.55));
#197=CARTESIAN_POINT('',(5.5,6.73555739531044E-16,-29.15));
#198=CARTESIAN_POINT('Origin',(0.,0.,-17.55));
#199=CARTESIAN_POINT('Origin',(-2.24345254752611E-16,0.,-29.15));
#200=CARTESIAN_POINT('',(3.,3.67394039744206E-16,-29.15));
#201=CARTESIAN_POINT('Origin',(0.,0.,-29.15));
#202=CARTESIAN_POINT('Origin',(-2.24345254752611E-16,0.,-17.55));
#203=CARTESIAN_POINT('',(5.,6.12323399573677E-16,-17.55));
#204=CARTESIAN_POINT('Origin',(0.,0.,-17.55));
#205=CARTESIAN_POINT('Origin',(0.,0.,-17.55));
#206=CARTESIAN_POINT('',(5.,6.12323399573677E-16,-5.7));
#207=CARTESIAN_POINT('',(5.,6.12323399573677E-16,-17.55));
#208=CARTESIAN_POINT('Origin',(0.,0.,-5.70000000000001));
#209=CARTESIAN_POINT('Origin',(0.,0.,-41.));
#210=CARTESIAN_POINT('',(3.,3.67394039744206E-16,-41.));
#211=CARTESIAN_POINT('Origin',(0.,0.,-41.));
#212=CARTESIAN_POINT('',(3.,3.67394039744206E-16,-41.));
#213=CARTESIAN_POINT('Origin',(0.,0.,-41.));
#214=CARTESIAN_POINT('',(12.7,1.55530143491714E-15,-5.70000000000001));
#215=CARTESIAN_POINT('Origin',(0.,0.,-5.70000000000001));
#216=CARTESIAN_POINT('',(12.7,1.55530143491714E-15,-41.));
#217=CARTESIAN_POINT('',(12.7,1.55530143491714E-15,-41.));
#218=CARTESIAN_POINT('Origin',(0.,0.,-41.));
#219=CARTESIAN_POINT('Origin',(-1.29519693020651E-15,2.91397119324188E-16,
-41.));
#220=CARTESIAN_POINT('Origin',(-1.29519693020651E-15,2.91397119324188E-16,
-5.70000000000001));
#221=UNCERTAINTY_MEASURE_WITH_UNIT(LENGTH_MEASURE(0.01),#225,
'DISTANCE_ACCURACY_VALUE',
'Maximum model space distance between geometric entities at asserted c
onnectivities');
#222=UNCERTAINTY_MEASURE_WITH_UNIT(LENGTH_MEASURE(0.01),#225,
'DISTANCE_ACCURACY_VALUE',
'Maximum model space distance between geometric entities at asserted c
onnectivities');
#223=(
GEOMETRIC_REPRESENTATION_CONTEXT(3)
GLOBAL_UNCERTAINTY_ASSIGNED_CONTEXT((#221))
GLOBAL_UNIT_ASSIGNED_CONTEXT((#225,#227,#228))
REPRESENTATION_CONTEXT('','3D')
);
#224=(
GEOMETRIC_REPRESENTATION_CONTEXT(3)
GLOBAL_UNCERTAINTY_ASSIGNED_CONTEXT((#222))
GLOBAL_UNIT_ASSIGNED_CONTEXT((#225,#227,#228))
REPRESENTATION_CONTEXT('','3D')
);
#225=(
LENGTH_UNIT()
NAMED_UNIT(*)
SI_UNIT(.MILLI.,.METRE.)
);
#226=(
LENGTH_UNIT()
NAMED_UNIT(*)
SI_UNIT(.CENTI.,.METRE.)
);
#227=(
NAMED_UNIT(*)
PLANE_ANGLE_UNIT()
SI_UNIT($,.RADIAN.)
);
#228=(
NAMED_UNIT(*)
SI_UNIT($,.STERADIAN.)
SOLID_ANGLE_UNIT()
);
#229=SHAPE_DEFINITION_REPRESENTATION(#230,#231);
#230=PRODUCT_DEFINITION_SHAPE('',$,#233);
#231=SHAPE_REPRESENTATION('',(#137),#223);
#232=PRODUCT_DEFINITION_CONTEXT('part definition',#237,'design');
#233=PRODUCT_DEFINITION('13_Torsional_Coupling','13_Torsional_Coupling',
#234,#232);
#234=PRODUCT_DEFINITION_FORMATION('',$,#239);
#235=PRODUCT_RELATED_PRODUCT_CATEGORY('13_Torsional_Coupling',
'13_Torsional_Coupling',(#239));
#236=APPLICATION_PROTOCOL_DEFINITION('international standard',
'automotive_design',2009,#237);
#237=APPLICATION_CONTEXT(
'Core Data for Automotive Mechanical Design Process');
#238=PRODUCT_CONTEXT('part definition',#237,'mechanical');
#239=PRODUCT('13_Torsional_Coupling','13_Torsional_Coupling',$,(#238));
#240=PRESENTATION_STYLE_ASSIGNMENT((#241));
#241=SURFACE_STYLE_USAGE(.BOTH.,#244);
#242=SURFACE_STYLE_RENDERING_WITH_PROPERTIES($,#248,(#243));
#243=SURFACE_STYLE_TRANSPARENT(0.);
#244=SURFACE_SIDE_STYLE('',(#245,#242));
#245=SURFACE_STYLE_FILL_AREA(#246);
#246=FILL_AREA_STYLE('',(#247));
#247=FILL_AREA_STYLE_COLOUR('',#248);
#248=COLOUR_RGB('',0.996078431372549,0.996078431372549,1.);
ENDSEC;
END-ISO-10303-21;
