ISO-10303-21;
HEADER;
/* Generated by software containing ST-Developer
 * from STEP Tools, Inc. (www.steptools.com) 
 */

FILE_DESCRIPTION(
/* description */ (''),
/* implementation_level */ '2;1');

FILE_NAME(
/* name */ '13B_Coupling_Sleeve_5_6.step',
/* time_stamp */ '2026-10-08T19:41:07+09:00',
/* author */ ('Reaction Wheel Pendulum project'),
/* organization */ (''),
/* preprocessor_version */ 'ST-DEVELOPER v20.1',
/* originating_system */ 'Autodesk Inventor 2026',
/* authorisation */ '');

FILE_SCHEMA (('AUTOMOTIVE_DESIGN { 1 0 10303 214 3 1 1 }'));
ENDSEC;

DATA;
#10=MECHANICAL_DESIGN_GEOMETRIC_PRESENTATION_REPRESENTATION('',(#13),#196);
#11=SHAPE_REPRESENTATION_RELATIONSHIP('SRR','None',#203,#12);
#12=ADVANCED_BREP_SHAPE_REPRESENTATION('',(#14),#195);
#13=STYLED_ITEM('',(#212),#14);
#14=MANIFOLD_SOLID_BREP('\X2\30BD30EA30C330C9\X0\1',#103);
#15=CYLINDRICAL_SURFACE('',#131,2.5);
#16=CYLINDRICAL_SURFACE('',#133,3.);
#17=CIRCLE('',#129,3.);
#18=CIRCLE('',#130,2.5);
#19=CIRCLE('',#132,2.5);
#20=CIRCLE('',#134,3.);
#21=FACE_OUTER_BOUND('',#27,.T.);
#22=FACE_OUTER_BOUND('',#28,.T.);
#23=FACE_OUTER_BOUND('',#29,.T.);
#24=FACE_OUTER_BOUND('',#30,.T.);
#25=FACE_OUTER_BOUND('',#31,.T.);
#26=FACE_OUTER_BOUND('',#32,.T.);
#27=EDGE_LOOP('',(#69,#70,#71,#72));
#28=EDGE_LOOP('',(#73,#74,#75,#76));
#29=EDGE_LOOP('',(#77,#78,#79,#80));
#30=EDGE_LOOP('',(#81,#82,#83,#84));
#31=EDGE_LOOP('',(#85,#86,#87,#88));
#32=EDGE_LOOP('',(#89,#90,#91,#92));
#33=LINE('',#170,#41);
#34=LINE('',#172,#42);
#35=LINE('',#174,#43);
#36=LINE('',#175,#44);
#37=LINE('',#179,#45);
#38=LINE('',#181,#46);
#39=LINE('',#183,#47);
#40=LINE('',#184,#48);
#41=VECTOR('',#140,10.);
#42=VECTOR('',#141,10.);
#43=VECTOR('',#142,10.);
#44=VECTOR('',#143,10.);
#45=VECTOR('',#146,10.);
#46=VECTOR('',#147,10.);
#47=VECTOR('',#148,10.);
#48=VECTOR('',#149,10.);
#49=VERTEX_POINT('',#168);
#50=VERTEX_POINT('',#169);
#51=VERTEX_POINT('',#171);
#52=VERTEX_POINT('',#173);
#53=VERTEX_POINT('',#177);
#54=VERTEX_POINT('',#178);
#55=VERTEX_POINT('',#180);
#56=VERTEX_POINT('',#182);
#57=EDGE_CURVE('',#49,#50,#33,.T.);
#58=EDGE_CURVE('',#51,#49,#34,.T.);
#59=EDGE_CURVE('',#52,#51,#35,.T.);
#60=EDGE_CURVE('',#50,#52,#36,.T.);
#61=EDGE_CURVE('',#53,#54,#37,.T.);
#62=EDGE_CURVE('',#55,#53,#38,.T.);
#63=EDGE_CURVE('',#56,#55,#39,.T.);
#64=EDGE_CURVE('',#54,#56,#40,.T.);
#65=EDGE_CURVE('',#56,#51,#17,.T.);
#66=EDGE_CURVE('',#49,#54,#18,.T.);
#67=EDGE_CURVE('',#53,#50,#19,.T.);
#68=EDGE_CURVE('',#52,#55,#20,.T.);
#69=ORIENTED_EDGE('',*,*,#57,.F.);
#70=ORIENTED_EDGE('',*,*,#58,.F.);
#71=ORIENTED_EDGE('',*,*,#59,.F.);
#72=ORIENTED_EDGE('',*,*,#60,.F.);
#73=ORIENTED_EDGE('',*,*,#61,.F.);
#74=ORIENTED_EDGE('',*,*,#62,.F.);
#75=ORIENTED_EDGE('',*,*,#63,.F.);
#76=ORIENTED_EDGE('',*,*,#64,.F.);
#77=ORIENTED_EDGE('',*,*,#64,.T.);
#78=ORIENTED_EDGE('',*,*,#65,.T.);
#79=ORIENTED_EDGE('',*,*,#58,.T.);
#80=ORIENTED_EDGE('',*,*,#66,.T.);
#81=ORIENTED_EDGE('',*,*,#61,.T.);
#82=ORIENTED_EDGE('',*,*,#66,.F.);
#83=ORIENTED_EDGE('',*,*,#57,.T.);
#84=ORIENTED_EDGE('',*,*,#67,.F.);
#85=ORIENTED_EDGE('',*,*,#63,.T.);
#86=ORIENTED_EDGE('',*,*,#68,.F.);
#87=ORIENTED_EDGE('',*,*,#59,.T.);
#88=ORIENTED_EDGE('',*,*,#65,.F.);
#89=ORIENTED_EDGE('',*,*,#62,.T.);
#90=ORIENTED_EDGE('',*,*,#67,.T.);
#91=ORIENTED_EDGE('',*,*,#60,.T.);
#92=ORIENTED_EDGE('',*,*,#68,.T.);
#93=PLANE('',#126);
#94=PLANE('',#127);
#95=PLANE('',#128);
#96=PLANE('',#135);
#97=ADVANCED_FACE('',(#21),#93,.F.);
#98=ADVANCED_FACE('',(#22),#94,.F.);
#99=ADVANCED_FACE('',(#23),#95,.T.);
#100=ADVANCED_FACE('',(#24),#15,.F.);
#101=ADVANCED_FACE('',(#25),#16,.T.);
#102=ADVANCED_FACE('',(#26),#96,.F.);
#103=CLOSED_SHELL('',(#97,#98,#99,#100,#101,#102));
#104=DERIVED_UNIT_ELEMENT(#107,1.);
#105=DERIVED_UNIT_ELEMENT(#198,-3.);
#106=DIMENSIONAL_EXPONENTS(0.,1.,0.,0.,0.,0.,0.);
#107=(
CONVERSION_BASED_UNIT('gram',#109)
MASS_UNIT()
NAMED_UNIT(#106)
);
#108=(
MASS_UNIT()
NAMED_UNIT(*)
SI_UNIT(.KILO.,.GRAM.)
);
#109=MASS_MEASURE_WITH_UNIT(MASS_MEASURE(0.001),#108);
#110=DERIVED_UNIT((#104,#105));
#111=MEASURE_REPRESENTATION_ITEM('density measure',
POSITIVE_RATIO_MEASURE(7.73),#110);
#112=PROPERTY_DEFINITION_REPRESENTATION(#117,#114);
#113=PROPERTY_DEFINITION_REPRESENTATION(#118,#115);
#114=REPRESENTATION('material name',(#116),#195);
#115=REPRESENTATION('density',(#111),#195);
#116=DESCRIPTIVE_REPRESENTATION_ITEM('\X2\92FC3001540891D192FC\X0\',
'\X2\92FC3001540891D192FC\X0\');
#117=PROPERTY_DEFINITION('material property','material name',#205);
#118=PROPERTY_DEFINITION('material property','density of part',#205);
#119=DATE_TIME_ROLE('creation_date');
#120=APPLIED_DATE_AND_TIME_ASSIGNMENT(#121,#119,(#205));
#121=DATE_AND_TIME(#122,#123);
#122=CALENDAR_DATE(2026,8,10);
#123=LOCAL_TIME(0,0,0.,#124);
#124=COORDINATED_UNIVERSAL_TIME_OFFSET(0,0,.BEHIND.);
#125=AXIS2_PLACEMENT_3D('',#166,#136,#137);
#126=AXIS2_PLACEMENT_3D('',#167,#138,#139);
#127=AXIS2_PLACEMENT_3D('',#176,#144,#145);
#128=AXIS2_PLACEMENT_3D('',#185,#150,#151);
#129=AXIS2_PLACEMENT_3D('',#186,#152,#153);
#130=AXIS2_PLACEMENT_3D('',#187,#154,#155);
#131=AXIS2_PLACEMENT_3D('',#188,#156,#157);
#132=AXIS2_PLACEMENT_3D('',#189,#158,#159);
#133=AXIS2_PLACEMENT_3D('',#190,#160,#161);
#134=AXIS2_PLACEMENT_3D('',#191,#162,#163);
#135=AXIS2_PLACEMENT_3D('',#192,#164,#165);
#136=DIRECTION('axis',(0.,0.,1.));
#137=DIRECTION('refdir',(1.,0.,0.));
#138=DIRECTION('center_axis',(1.,0.,0.));
#139=DIRECTION('ref_axis',(0.,1.,0.));
#140=DIRECTION('',(0.,0.,-1.));
#141=DIRECTION('',(0.,-1.,0.));
#142=DIRECTION('',(0.,0.,1.));
#143=DIRECTION('',(0.,1.,0.));
#144=DIRECTION('center_axis',(-1.,0.,0.));
#145=DIRECTION('ref_axis',(0.,-1.,0.));
#146=DIRECTION('',(0.,0.,1.));
#147=DIRECTION('',(0.,-1.,0.));
#148=DIRECTION('',(0.,0.,-1.));
#149=DIRECTION('',(0.,1.,0.));
#150=DIRECTION('center_axis',(0.,0.,1.));
#151=DIRECTION('ref_axis',(1.,0.,0.));
#152=DIRECTION('center_axis',(0.,0.,1.));
#153=DIRECTION('ref_axis',(-1.,0.,0.));
#154=DIRECTION('center_axis',(0.,0.,-1.));
#155=DIRECTION('ref_axis',(-1.,0.,0.));
#156=DIRECTION('center_axis',(0.,0.,1.));
#157=DIRECTION('ref_axis',(-5.0532154980743E-16,-1.,0.));
#158=DIRECTION('center_axis',(0.,0.,1.));
#159=DIRECTION('ref_axis',(-1.,0.,0.));
#160=DIRECTION('center_axis',(0.,0.,1.));
#161=DIRECTION('ref_axis',(-5.0532154980743E-16,-1.,0.));
#162=DIRECTION('center_axis',(0.,0.,-1.));
#163=DIRECTION('ref_axis',(-1.,0.,0.));
#164=DIRECTION('center_axis',(0.,0.,1.));
#165=DIRECTION('ref_axis',(1.,0.,0.));
#166=CARTESIAN_POINT('',(0.,0.,0.));
#167=CARTESIAN_POINT('Origin',(0.15,1.5,-41.));
#168=CARTESIAN_POINT('',(0.15,2.49549594269356,-30.3));
#169=CARTESIAN_POINT('',(0.15,2.49549594269356,-41.));
#170=CARTESIAN_POINT('',(0.15,2.49549594269356,-41.));
#171=CARTESIAN_POINT('',(0.15,2.99624765331573,-30.3));
#172=CARTESIAN_POINT('',(0.15,0.75,-30.3));
#173=CARTESIAN_POINT('',(0.15,2.99624765331573,-41.));
#174=CARTESIAN_POINT('',(0.15,2.99624765331573,-41.));
#175=CARTESIAN_POINT('',(0.15,0.75,-41.));
#176=CARTESIAN_POINT('Origin',(-0.15,4.5,-41.));
#177=CARTESIAN_POINT('',(-0.15,2.49549594269356,-41.));
#178=CARTESIAN_POINT('',(-0.15,2.49549594269356,-30.3));
#179=CARTESIAN_POINT('',(-0.15,2.49549594269356,-41.));
#180=CARTESIAN_POINT('',(-0.15,2.99624765331573,-41.));
#181=CARTESIAN_POINT('',(-0.15,2.25,-41.));
#182=CARTESIAN_POINT('',(-0.15,2.99624765331573,-30.3));
#183=CARTESIAN_POINT('',(-0.15,2.99624765331573,-41.));
#184=CARTESIAN_POINT('',(-0.15,2.25,-30.3));
#185=CARTESIAN_POINT('Origin',(-1.84813812287733E-16,0.,-30.3));
#186=CARTESIAN_POINT('Origin',(0.,0.,-30.3));
#187=CARTESIAN_POINT('Origin',(0.,0.,-30.3));
#188=CARTESIAN_POINT('Origin',(0.,0.,-41.));
#189=CARTESIAN_POINT('Origin',(0.,0.,-41.));
#190=CARTESIAN_POINT('Origin',(0.,0.,-41.));
#191=CARTESIAN_POINT('Origin',(0.,0.,-41.));
#192=CARTESIAN_POINT('Origin',(-1.84813812287733E-16,0.,-41.));
#193=UNCERTAINTY_MEASURE_WITH_UNIT(LENGTH_MEASURE(0.01),#197,
'DISTANCE_ACCURACY_VALUE',
'Maximum model space distance between geometric entities at asserted c
onnectivities');
#194=UNCERTAINTY_MEASURE_WITH_UNIT(LENGTH_MEASURE(0.01),#197,
'DISTANCE_ACCURACY_VALUE',
'Maximum model space distance between geometric entities at asserted c
onnectivities');
#195=(
GEOMETRIC_REPRESENTATION_CONTEXT(3)
GLOBAL_UNCERTAINTY_ASSIGNED_CONTEXT((#193))
GLOBAL_UNIT_ASSIGNED_CONTEXT((#197,#199,#200))
REPRESENTATION_CONTEXT('','3D')
);
#196=(
GEOMETRIC_REPRESENTATION_CONTEXT(3)
GLOBAL_UNCERTAINTY_ASSIGNED_CONTEXT((#194))
GLOBAL_UNIT_ASSIGNED_CONTEXT((#197,#199,#200))
REPRESENTATION_CONTEXT('','3D')
);
#197=(
LENGTH_UNIT()
NAMED_UNIT(*)
SI_UNIT(.MILLI.,.METRE.)
);
#198=(
LENGTH_UNIT()
NAMED_UNIT(*)
SI_UNIT(.CENTI.,.METRE.)
);
#199=(
NAMED_UNIT(*)
PLANE_ANGLE_UNIT()
SI_UNIT($,.RADIAN.)
);
#200=(
NAMED_UNIT(*)
SI_UNIT($,.STERADIAN.)
SOLID_ANGLE_UNIT()
);
#201=SHAPE_DEFINITION_REPRESENTATION(#202,#203);
#202=PRODUCT_DEFINITION_SHAPE('',$,#205);
#203=SHAPE_REPRESENTATION('',(#125),#195);
#204=PRODUCT_DEFINITION_CONTEXT('part definition',#209,'design');
#205=PRODUCT_DEFINITION('13B_Coupling_Sleeve_5_6',
'13B_Coupling_Sleeve_5_6',#206,#204);
#206=PRODUCT_DEFINITION_FORMATION('',$,#211);
#207=PRODUCT_RELATED_PRODUCT_CATEGORY('13B_Coupling_Sleeve_5_6',
'13B_Coupling_Sleeve_5_6',(#211));
#208=APPLICATION_PROTOCOL_DEFINITION('international standard',
'automotive_design',2009,#209);
#209=APPLICATION_CONTEXT(
'Core Data for Automotive Mechanical Design Process');
#210=PRODUCT_CONTEXT('part definition',#209,'mechanical');
#211=PRODUCT('13B_Coupling_Sleeve_5_6','13B_Coupling_Sleeve_5_6',$,(#210));
#212=PRESENTATION_STYLE_ASSIGNMENT((#213));
#213=SURFACE_STYLE_USAGE(.BOTH.,#216);
#214=SURFACE_STYLE_RENDERING_WITH_PROPERTIES($,#220,(#215));
#215=SURFACE_STYLE_TRANSPARENT(0.);
#216=SURFACE_SIDE_STYLE('',(#217,#214));
#217=SURFACE_STYLE_FILL_AREA(#218);
#218=FILL_AREA_STYLE('',(#219));
#219=FILL_AREA_STYLE_COLOUR('',#220);
#220=COLOUR_RGB('',0.745098039215686,0.737254901960784,0.729411764705882);
ENDSEC;
END-ISO-10303-21;
