ISO-10303-21;
HEADER;
/* Generated by software containing ST-Developer
 * from STEP Tools, Inc. (www.steptools.com) 
 */

FILE_DESCRIPTION(
/* description */ (''),
/* implementation_level */ '2;1');

FILE_NAME(
/* name */ '15_Motor_4221G024BXTH.step',
/* time_stamp */ '2026-10-08T19:41:08+09:00',
/* author */ ('Reaction Wheel Pendulum project'),
/* organization */ (''),
/* preprocessor_version */ 'ST-DEVELOPER v20.1',
/* originating_system */ 'Autodesk Inventor 2026',
/* authorisation */ '');

FILE_SCHEMA (('AUTOMOTIVE_DESIGN { 1 0 10303 214 3 1 1 }'));
ENDSEC;

DATA;
#10=MECHANICAL_DESIGN_GEOMETRIC_PRESENTATION_REPRESENTATION('',(#13),#455);
#11=SHAPE_REPRESENTATION_RELATIONSHIP('SRR','None',#462,#12);
#12=ADVANCED_BREP_SHAPE_REPRESENTATION('',(#14),#454);
#13=STYLED_ITEM('',(#471),#14);
#14=MANIFOLD_SOLID_BREP('\X2\30BD30EA30C330C9\X0\1',#242);
#15=FACE_BOUND('',#68,.T.);
#16=FACE_BOUND('',#72,.T.);
#17=FACE_BOUND('',#73,.T.);
#18=FACE_BOUND('',#74,.T.);
#19=FACE_BOUND('',#75,.T.);
#20=FACE_BOUND('',#76,.T.);
#21=FACE_BOUND('',#77,.T.);
#22=FACE_BOUND('',#78,.T.);
#23=PLANE('',#268);
#24=PLANE('',#272);
#25=PLANE('',#276);
#26=PLANE('',#280);
#27=PLANE('',#284);
#28=PLANE('',#288);
#29=PLANE('',#292);
#30=PLANE('',#296);
#31=PLANE('',#300);
#32=PLANE('',#301);
#33=FACE_OUTER_BOUND('',#52,.T.);
#34=FACE_OUTER_BOUND('',#53,.T.);
#35=FACE_OUTER_BOUND('',#54,.T.);
#36=FACE_OUTER_BOUND('',#55,.T.);
#37=FACE_OUTER_BOUND('',#56,.T.);
#38=FACE_OUTER_BOUND('',#57,.T.);
#39=FACE_OUTER_BOUND('',#58,.T.);
#40=FACE_OUTER_BOUND('',#59,.T.);
#41=FACE_OUTER_BOUND('',#60,.T.);
#42=FACE_OUTER_BOUND('',#61,.T.);
#43=FACE_OUTER_BOUND('',#62,.T.);
#44=FACE_OUTER_BOUND('',#63,.T.);
#45=FACE_OUTER_BOUND('',#64,.T.);
#46=FACE_OUTER_BOUND('',#65,.T.);
#47=FACE_OUTER_BOUND('',#66,.T.);
#48=FACE_OUTER_BOUND('',#67,.T.);
#49=FACE_OUTER_BOUND('',#69,.T.);
#50=FACE_OUTER_BOUND('',#70,.T.);
#51=FACE_OUTER_BOUND('',#71,.T.);
#52=EDGE_LOOP('',(#160,#161,#162,#163));
#53=EDGE_LOOP('',(#164));
#54=EDGE_LOOP('',(#165,#166,#167,#168));
#55=EDGE_LOOP('',(#169));
#56=EDGE_LOOP('',(#170,#171,#172,#173));
#57=EDGE_LOOP('',(#174));
#58=EDGE_LOOP('',(#175,#176,#177,#178));
#59=EDGE_LOOP('',(#179));
#60=EDGE_LOOP('',(#180,#181,#182,#183));
#61=EDGE_LOOP('',(#184));
#62=EDGE_LOOP('',(#185,#186,#187,#188));
#63=EDGE_LOOP('',(#189));
#64=EDGE_LOOP('',(#190,#191,#192,#193));
#65=EDGE_LOOP('',(#194));
#66=EDGE_LOOP('',(#195,#196,#197,#198));
#67=EDGE_LOOP('',(#199));
#68=EDGE_LOOP('',(#200));
#69=EDGE_LOOP('',(#201,#202,#203,#204));
#70=EDGE_LOOP('',(#205));
#71=EDGE_LOOP('',(#206));
#72=EDGE_LOOP('',(#207));
#73=EDGE_LOOP('',(#208));
#74=EDGE_LOOP('',(#209));
#75=EDGE_LOOP('',(#210));
#76=EDGE_LOOP('',(#211));
#77=EDGE_LOOP('',(#212));
#78=EDGE_LOOP('',(#213));
#79=LINE('',#392,#88);
#80=LINE('',#399,#89);
#81=LINE('',#406,#90);
#82=LINE('',#413,#91);
#83=LINE('',#420,#92);
#84=LINE('',#427,#93);
#85=LINE('',#434,#94);
#86=LINE('',#441,#95);
#87=LINE('',#448,#96);
#88=VECTOR('',#308,1.25);
#89=VECTOR('',#317,1.25);
#90=VECTOR('',#326,1.25);
#91=VECTOR('',#335,1.25);
#92=VECTOR('',#344,1.25);
#93=VECTOR('',#353,1.25);
#94=VECTOR('',#362,2.6);
#95=VECTOR('',#371,8.);
#96=VECTOR('',#380,21.);
#97=CIRCLE('',#266,1.25);
#98=CIRCLE('',#267,1.25);
#99=CIRCLE('',#270,1.25);
#100=CIRCLE('',#271,1.25);
#101=CIRCLE('',#274,1.25);
#102=CIRCLE('',#275,1.25);
#103=CIRCLE('',#278,1.25);
#104=CIRCLE('',#279,1.25);
#105=CIRCLE('',#282,1.25);
#106=CIRCLE('',#283,1.25);
#107=CIRCLE('',#286,1.25);
#108=CIRCLE('',#287,1.25);
#109=CIRCLE('',#290,2.6);
#110=CIRCLE('',#291,2.6);
#111=CIRCLE('',#294,8.);
#112=CIRCLE('',#295,8.);
#113=CIRCLE('',#298,21.);
#114=CIRCLE('',#299,21.);
#115=VERTEX_POINT('',#389);
#116=VERTEX_POINT('',#391);
#117=VERTEX_POINT('',#396);
#118=VERTEX_POINT('',#398);
#119=VERTEX_POINT('',#403);
#120=VERTEX_POINT('',#405);
#121=VERTEX_POINT('',#410);
#122=VERTEX_POINT('',#412);
#123=VERTEX_POINT('',#417);
#124=VERTEX_POINT('',#419);
#125=VERTEX_POINT('',#424);
#126=VERTEX_POINT('',#426);
#127=VERTEX_POINT('',#431);
#128=VERTEX_POINT('',#433);
#129=VERTEX_POINT('',#438);
#130=VERTEX_POINT('',#440);
#131=VERTEX_POINT('',#445);
#132=VERTEX_POINT('',#447);
#133=EDGE_CURVE('',#115,#115,#97,.T.);
#134=EDGE_CURVE('',#115,#116,#79,.T.);
#135=EDGE_CURVE('',#116,#116,#98,.T.);
#136=EDGE_CURVE('',#117,#117,#99,.T.);
#137=EDGE_CURVE('',#117,#118,#80,.T.);
#138=EDGE_CURVE('',#118,#118,#100,.T.);
#139=EDGE_CURVE('',#119,#119,#101,.T.);
#140=EDGE_CURVE('',#119,#120,#81,.T.);
#141=EDGE_CURVE('',#120,#120,#102,.T.);
#142=EDGE_CURVE('',#121,#121,#103,.T.);
#143=EDGE_CURVE('',#121,#122,#82,.T.);
#144=EDGE_CURVE('',#122,#122,#104,.T.);
#145=EDGE_CURVE('',#123,#123,#105,.T.);
#146=EDGE_CURVE('',#123,#124,#83,.T.);
#147=EDGE_CURVE('',#124,#124,#106,.T.);
#148=EDGE_CURVE('',#125,#125,#107,.T.);
#149=EDGE_CURVE('',#125,#126,#84,.T.);
#150=EDGE_CURVE('',#126,#126,#108,.T.);
#151=EDGE_CURVE('',#127,#127,#109,.T.);
#152=EDGE_CURVE('',#127,#128,#85,.T.);
#153=EDGE_CURVE('',#128,#128,#110,.T.);
#154=EDGE_CURVE('',#129,#129,#111,.T.);
#155=EDGE_CURVE('',#129,#130,#86,.T.);
#156=EDGE_CURVE('',#130,#130,#112,.T.);
#157=EDGE_CURVE('',#131,#131,#113,.T.);
#158=EDGE_CURVE('',#131,#132,#87,.T.);
#159=EDGE_CURVE('',#132,#132,#114,.T.);
#160=ORIENTED_EDGE('',*,*,#133,.T.);
#161=ORIENTED_EDGE('',*,*,#134,.T.);
#162=ORIENTED_EDGE('',*,*,#135,.F.);
#163=ORIENTED_EDGE('',*,*,#134,.F.);
#164=ORIENTED_EDGE('',*,*,#133,.F.);
#165=ORIENTED_EDGE('',*,*,#136,.T.);
#166=ORIENTED_EDGE('',*,*,#137,.T.);
#167=ORIENTED_EDGE('',*,*,#138,.F.);
#168=ORIENTED_EDGE('',*,*,#137,.F.);
#169=ORIENTED_EDGE('',*,*,#136,.F.);
#170=ORIENTED_EDGE('',*,*,#139,.T.);
#171=ORIENTED_EDGE('',*,*,#140,.T.);
#172=ORIENTED_EDGE('',*,*,#141,.F.);
#173=ORIENTED_EDGE('',*,*,#140,.F.);
#174=ORIENTED_EDGE('',*,*,#139,.F.);
#175=ORIENTED_EDGE('',*,*,#142,.T.);
#176=ORIENTED_EDGE('',*,*,#143,.T.);
#177=ORIENTED_EDGE('',*,*,#144,.F.);
#178=ORIENTED_EDGE('',*,*,#143,.F.);
#179=ORIENTED_EDGE('',*,*,#142,.F.);
#180=ORIENTED_EDGE('',*,*,#145,.T.);
#181=ORIENTED_EDGE('',*,*,#146,.T.);
#182=ORIENTED_EDGE('',*,*,#147,.F.);
#183=ORIENTED_EDGE('',*,*,#146,.F.);
#184=ORIENTED_EDGE('',*,*,#145,.F.);
#185=ORIENTED_EDGE('',*,*,#148,.T.);
#186=ORIENTED_EDGE('',*,*,#149,.T.);
#187=ORIENTED_EDGE('',*,*,#150,.F.);
#188=ORIENTED_EDGE('',*,*,#149,.F.);
#189=ORIENTED_EDGE('',*,*,#148,.F.);
#190=ORIENTED_EDGE('',*,*,#151,.T.);
#191=ORIENTED_EDGE('',*,*,#152,.T.);
#192=ORIENTED_EDGE('',*,*,#153,.F.);
#193=ORIENTED_EDGE('',*,*,#152,.F.);
#194=ORIENTED_EDGE('',*,*,#151,.F.);
#195=ORIENTED_EDGE('',*,*,#154,.F.);
#196=ORIENTED_EDGE('',*,*,#155,.T.);
#197=ORIENTED_EDGE('',*,*,#156,.F.);
#198=ORIENTED_EDGE('',*,*,#155,.F.);
#199=ORIENTED_EDGE('',*,*,#154,.T.);
#200=ORIENTED_EDGE('',*,*,#153,.T.);
#201=ORIENTED_EDGE('',*,*,#157,.F.);
#202=ORIENTED_EDGE('',*,*,#158,.T.);
#203=ORIENTED_EDGE('',*,*,#159,.F.);
#204=ORIENTED_EDGE('',*,*,#158,.F.);
#205=ORIENTED_EDGE('',*,*,#159,.T.);
#206=ORIENTED_EDGE('',*,*,#157,.T.);
#207=ORIENTED_EDGE('',*,*,#135,.T.);
#208=ORIENTED_EDGE('',*,*,#138,.T.);
#209=ORIENTED_EDGE('',*,*,#141,.T.);
#210=ORIENTED_EDGE('',*,*,#144,.T.);
#211=ORIENTED_EDGE('',*,*,#147,.T.);
#212=ORIENTED_EDGE('',*,*,#150,.T.);
#213=ORIENTED_EDGE('',*,*,#156,.T.);
#214=CYLINDRICAL_SURFACE('',#265,1.25);
#215=CYLINDRICAL_SURFACE('',#269,1.25);
#216=CYLINDRICAL_SURFACE('',#273,1.25);
#217=CYLINDRICAL_SURFACE('',#277,1.25);
#218=CYLINDRICAL_SURFACE('',#281,1.25);
#219=CYLINDRICAL_SURFACE('',#285,1.25);
#220=CYLINDRICAL_SURFACE('',#289,2.6);
#221=CYLINDRICAL_SURFACE('',#293,8.);
#222=CYLINDRICAL_SURFACE('',#297,21.);
#223=ADVANCED_FACE('',(#33),#214,.F.);
#224=ADVANCED_FACE('',(#34),#23,.T.);
#225=ADVANCED_FACE('',(#35),#215,.F.);
#226=ADVANCED_FACE('',(#36),#24,.T.);
#227=ADVANCED_FACE('',(#37),#216,.F.);
#228=ADVANCED_FACE('',(#38),#25,.T.);
#229=ADVANCED_FACE('',(#39),#217,.F.);
#230=ADVANCED_FACE('',(#40),#26,.T.);
#231=ADVANCED_FACE('',(#41),#218,.F.);
#232=ADVANCED_FACE('',(#42),#27,.T.);
#233=ADVANCED_FACE('',(#43),#219,.F.);
#234=ADVANCED_FACE('',(#44),#28,.T.);
#235=ADVANCED_FACE('',(#45),#220,.F.);
#236=ADVANCED_FACE('',(#46),#29,.T.);
#237=ADVANCED_FACE('',(#47),#221,.T.);
#238=ADVANCED_FACE('',(#48,#15),#30,.T.);
#239=ADVANCED_FACE('',(#49),#222,.T.);
#240=ADVANCED_FACE('',(#50),#31,.F.);
#241=ADVANCED_FACE('',(#51,#16,#17,#18,#19,#20,#21,#22),#32,.T.);
#242=CLOSED_SHELL('',(#223,#224,#225,#226,#227,#228,#229,#230,#231,#232,
#233,#234,#235,#236,#237,#238,#239,#240,#241));
#243=DERIVED_UNIT_ELEMENT(#246,1.);
#244=DERIVED_UNIT_ELEMENT(#457,-3.);
#245=DIMENSIONAL_EXPONENTS(0.,1.,0.,0.,0.,0.,0.);
#246=(
CONVERSION_BASED_UNIT('gram',#248)
MASS_UNIT()
NAMED_UNIT(#245)
);
#247=(
MASS_UNIT()
NAMED_UNIT(*)
SI_UNIT(.KILO.,.GRAM.)
);
#248=MASS_MEASURE_WITH_UNIT(MASS_MEASURE(0.001),#247);
#249=DERIVED_UNIT((#243,#244));
#250=MEASURE_REPRESENTATION_ITEM('density measure',
POSITIVE_RATIO_MEASURE(7.73),#249);
#251=PROPERTY_DEFINITION_REPRESENTATION(#256,#253);
#252=PROPERTY_DEFINITION_REPRESENTATION(#257,#254);
#253=REPRESENTATION('material name',(#255),#454);
#254=REPRESENTATION('density',(#250),#454);
#255=DESCRIPTIVE_REPRESENTATION_ITEM('\X2\92FC3001540891D192FC\X0\',
'\X2\92FC3001540891D192FC\X0\');
#256=PROPERTY_DEFINITION('material property','material name',#464);
#257=PROPERTY_DEFINITION('material property','density of part',#464);
#258=DATE_TIME_ROLE('creation_date');
#259=APPLIED_DATE_AND_TIME_ASSIGNMENT(#260,#258,(#464));
#260=DATE_AND_TIME(#261,#262);
#261=CALENDAR_DATE(2026,8,10);
#262=LOCAL_TIME(0,0,0.,#263);
#263=COORDINATED_UNIVERSAL_TIME_OFFSET(0,0,.BEHIND.);
#264=AXIS2_PLACEMENT_3D('',#387,#302,#303);
#265=AXIS2_PLACEMENT_3D('',#388,#304,#305);
#266=AXIS2_PLACEMENT_3D('',#390,#306,#307);
#267=AXIS2_PLACEMENT_3D('',#393,#309,#310);
#268=AXIS2_PLACEMENT_3D('',#394,#311,#312);
#269=AXIS2_PLACEMENT_3D('',#395,#313,#314);
#270=AXIS2_PLACEMENT_3D('',#397,#315,#316);
#271=AXIS2_PLACEMENT_3D('',#400,#318,#319);
#272=AXIS2_PLACEMENT_3D('',#401,#320,#321);
#273=AXIS2_PLACEMENT_3D('',#402,#322,#323);
#274=AXIS2_PLACEMENT_3D('',#404,#324,#325);
#275=AXIS2_PLACEMENT_3D('',#407,#327,#328);
#276=AXIS2_PLACEMENT_3D('',#408,#329,#330);
#277=AXIS2_PLACEMENT_3D('',#409,#331,#332);
#278=AXIS2_PLACEMENT_3D('',#411,#333,#334);
#279=AXIS2_PLACEMENT_3D('',#414,#336,#337);
#280=AXIS2_PLACEMENT_3D('',#415,#338,#339);
#281=AXIS2_PLACEMENT_3D('',#416,#340,#341);
#282=AXIS2_PLACEMENT_3D('',#418,#342,#343);
#283=AXIS2_PLACEMENT_3D('',#421,#345,#346);
#284=AXIS2_PLACEMENT_3D('',#422,#347,#348);
#285=AXIS2_PLACEMENT_3D('',#423,#349,#350);
#286=AXIS2_PLACEMENT_3D('',#425,#351,#352);
#287=AXIS2_PLACEMENT_3D('',#428,#354,#355);
#288=AXIS2_PLACEMENT_3D('',#429,#356,#357);
#289=AXIS2_PLACEMENT_3D('',#430,#358,#359);
#290=AXIS2_PLACEMENT_3D('',#432,#360,#361);
#291=AXIS2_PLACEMENT_3D('',#435,#363,#364);
#292=AXIS2_PLACEMENT_3D('',#436,#365,#366);
#293=AXIS2_PLACEMENT_3D('',#437,#367,#368);
#294=AXIS2_PLACEMENT_3D('',#439,#369,#370);
#295=AXIS2_PLACEMENT_3D('',#442,#372,#373);
#296=AXIS2_PLACEMENT_3D('',#443,#374,#375);
#297=AXIS2_PLACEMENT_3D('',#444,#376,#377);
#298=AXIS2_PLACEMENT_3D('',#446,#378,#379);
#299=AXIS2_PLACEMENT_3D('',#449,#381,#382);
#300=AXIS2_PLACEMENT_3D('',#450,#383,#384);
#301=AXIS2_PLACEMENT_3D('',#451,#385,#386);
#302=DIRECTION('axis',(0.,0.,1.));
#303=DIRECTION('refdir',(1.,0.,0.));
#304=DIRECTION('center_axis',(0.,0.,1.));
#305=DIRECTION('ref_axis',(-1.,0.,0.));
#306=DIRECTION('center_axis',(0.,0.,-1.));
#307=DIRECTION('ref_axis',(-1.,0.,0.));
#308=DIRECTION('',(0.,0.,1.));
#309=DIRECTION('center_axis',(0.,0.,-1.));
#310=DIRECTION('ref_axis',(-1.,0.,0.));
#311=DIRECTION('center_axis',(0.,0.,1.));
#312=DIRECTION('ref_axis',(1.,0.,0.));
#313=DIRECTION('center_axis',(0.,0.,1.));
#314=DIRECTION('ref_axis',(-1.,0.,0.));
#315=DIRECTION('center_axis',(0.,0.,-1.));
#316=DIRECTION('ref_axis',(-1.,0.,0.));
#317=DIRECTION('',(0.,0.,1.));
#318=DIRECTION('center_axis',(0.,0.,-1.));
#319=DIRECTION('ref_axis',(-1.,0.,0.));
#320=DIRECTION('center_axis',(0.,0.,1.));
#321=DIRECTION('ref_axis',(1.,0.,0.));
#322=DIRECTION('center_axis',(0.,0.,1.));
#323=DIRECTION('ref_axis',(-1.,0.,0.));
#324=DIRECTION('center_axis',(0.,0.,-1.));
#325=DIRECTION('ref_axis',(-1.,0.,0.));
#326=DIRECTION('',(0.,0.,1.));
#327=DIRECTION('center_axis',(0.,0.,-1.));
#328=DIRECTION('ref_axis',(-1.,0.,0.));
#329=DIRECTION('center_axis',(0.,0.,1.));
#330=DIRECTION('ref_axis',(1.,0.,0.));
#331=DIRECTION('center_axis',(0.,0.,1.));
#332=DIRECTION('ref_axis',(-1.,0.,0.));
#333=DIRECTION('center_axis',(0.,0.,-1.));
#334=DIRECTION('ref_axis',(-1.,0.,0.));
#335=DIRECTION('',(0.,0.,1.));
#336=DIRECTION('center_axis',(0.,0.,-1.));
#337=DIRECTION('ref_axis',(-1.,0.,0.));
#338=DIRECTION('center_axis',(0.,0.,1.));
#339=DIRECTION('ref_axis',(1.,0.,0.));
#340=DIRECTION('center_axis',(0.,0.,1.));
#341=DIRECTION('ref_axis',(-1.,0.,0.));
#342=DIRECTION('center_axis',(0.,0.,-1.));
#343=DIRECTION('ref_axis',(-1.,0.,0.));
#344=DIRECTION('',(0.,0.,1.));
#345=DIRECTION('center_axis',(0.,0.,-1.));
#346=DIRECTION('ref_axis',(-1.,0.,0.));
#347=DIRECTION('center_axis',(0.,0.,1.));
#348=DIRECTION('ref_axis',(1.,0.,0.));
#349=DIRECTION('center_axis',(0.,0.,1.));
#350=DIRECTION('ref_axis',(-1.,0.,0.));
#351=DIRECTION('center_axis',(0.,0.,-1.));
#352=DIRECTION('ref_axis',(-1.,0.,0.));
#353=DIRECTION('',(0.,0.,1.));
#354=DIRECTION('center_axis',(0.,0.,-1.));
#355=DIRECTION('ref_axis',(-1.,0.,0.));
#356=DIRECTION('center_axis',(0.,0.,1.));
#357=DIRECTION('ref_axis',(1.,0.,0.));
#358=DIRECTION('center_axis',(0.,0.,1.));
#359=DIRECTION('ref_axis',(-1.,0.,0.));
#360=DIRECTION('center_axis',(0.,0.,-1.));
#361=DIRECTION('ref_axis',(-1.,0.,0.));
#362=DIRECTION('',(0.,0.,1.));
#363=DIRECTION('center_axis',(0.,0.,-1.));
#364=DIRECTION('ref_axis',(-1.,0.,0.));
#365=DIRECTION('center_axis',(0.,0.,1.));
#366=DIRECTION('ref_axis',(1.,0.,0.));
#367=DIRECTION('center_axis',(0.,0.,1.));
#368=DIRECTION('ref_axis',(-1.,0.,0.));
#369=DIRECTION('center_axis',(0.,0.,1.));
#370=DIRECTION('ref_axis',(-1.,0.,0.));
#371=DIRECTION('',(0.,0.,-1.));
#372=DIRECTION('center_axis',(0.,0.,-1.));
#373=DIRECTION('ref_axis',(-1.,0.,0.));
#374=DIRECTION('center_axis',(0.,0.,1.));
#375=DIRECTION('ref_axis',(1.,0.,0.));
#376=DIRECTION('center_axis',(0.,0.,1.));
#377=DIRECTION('ref_axis',(-1.,0.,0.));
#378=DIRECTION('center_axis',(0.,0.,1.));
#379=DIRECTION('ref_axis',(-1.,0.,0.));
#380=DIRECTION('',(0.,0.,-1.));
#381=DIRECTION('center_axis',(0.,0.,-1.));
#382=DIRECTION('ref_axis',(-1.,0.,0.));
#383=DIRECTION('center_axis',(0.,0.,1.));
#384=DIRECTION('ref_axis',(1.,0.,0.));
#385=DIRECTION('center_axis',(0.,0.,1.));
#386=DIRECTION('ref_axis',(1.,0.,0.));
#387=CARTESIAN_POINT('',(0.,0.,0.));
#388=CARTESIAN_POINT('Origin',(9.52627944162883,5.49999999999999,-46.3));
#389=CARTESIAN_POINT('',(10.7762794416288,5.49999999999999,-46.3));
#390=CARTESIAN_POINT('Origin',(9.52627944162883,5.49999999999999,-46.3));
#391=CARTESIAN_POINT('',(10.7762794416288,5.49999999999999,-43.3));
#392=CARTESIAN_POINT('',(10.7762794416288,5.49999999999999,-46.3));
#393=CARTESIAN_POINT('Origin',(9.52627944162883,5.49999999999999,-43.3));
#394=CARTESIAN_POINT('Origin',(9.52627944162883,5.49999999999999,-46.3));
#395=CARTESIAN_POINT('Origin',(9.52627944162882,-5.50000000000001,-46.3));
#396=CARTESIAN_POINT('',(10.7762794416288,-5.50000000000001,-46.3));
#397=CARTESIAN_POINT('Origin',(9.52627944162882,-5.50000000000001,-46.3));
#398=CARTESIAN_POINT('',(10.7762794416288,-5.50000000000001,-43.3));
#399=CARTESIAN_POINT('',(10.7762794416288,-5.50000000000001,-46.3));
#400=CARTESIAN_POINT('Origin',(9.52627944162882,-5.50000000000001,-43.3));
#401=CARTESIAN_POINT('Origin',(9.52627944162882,-5.50000000000001,-46.3));
#402=CARTESIAN_POINT('Origin',(-2.02066721859313E-15,-11.,-46.3));
#403=CARTESIAN_POINT('',(1.25,-11.,-46.3));
#404=CARTESIAN_POINT('Origin',(-2.02066721859313E-15,-11.,-46.3));
#405=CARTESIAN_POINT('',(1.25,-11.,-43.3));
#406=CARTESIAN_POINT('',(1.25,-11.,-46.3));
#407=CARTESIAN_POINT('Origin',(-2.02066721859313E-15,-11.,-43.3));
#408=CARTESIAN_POINT('Origin',(-2.1222428551459E-15,-11.,-46.3));
#409=CARTESIAN_POINT('Origin',(-9.52627944162882,-5.5,-46.3));
#410=CARTESIAN_POINT('',(-8.27627944162882,-5.5,-46.3));
#411=CARTESIAN_POINT('Origin',(-9.52627944162882,-5.5,-46.3));
#412=CARTESIAN_POINT('',(-8.27627944162882,-5.5,-43.3));
#413=CARTESIAN_POINT('',(-8.27627944162882,-5.5,-46.3));
#414=CARTESIAN_POINT('Origin',(-9.52627944162882,-5.5,-43.3));
#415=CARTESIAN_POINT('Origin',(-9.52627944162882,-5.5,-46.3));
#416=CARTESIAN_POINT('Origin',(-9.52627944162883,5.5,-46.3));
#417=CARTESIAN_POINT('',(-8.27627944162883,5.5,-46.3));
#418=CARTESIAN_POINT('Origin',(-9.52627944162883,5.5,-46.3));
#419=CARTESIAN_POINT('',(-8.27627944162883,5.5,-43.3));
#420=CARTESIAN_POINT('',(-8.27627944162883,5.5,-46.3));
#421=CARTESIAN_POINT('Origin',(-9.52627944162883,5.5,-43.3));
#422=CARTESIAN_POINT('Origin',(-9.52627944162883,5.5,-46.3));
#423=CARTESIAN_POINT('Origin',(6.73555739531044E-16,11.,-46.3));
#424=CARTESIAN_POINT('',(1.25,11.,-46.3));
#425=CARTESIAN_POINT('Origin',(6.73555739531044E-16,11.,-46.3));
#426=CARTESIAN_POINT('',(1.25,11.,-43.3));
#427=CARTESIAN_POINT('',(1.25,11.,-46.3));
#428=CARTESIAN_POINT('Origin',(6.73555739531044E-16,11.,-43.3));
#429=CARTESIAN_POINT('Origin',(6.18909718008881E-16,11.,-46.3));
#430=CARTESIAN_POINT('Origin',(0.,0.,-43.3));
#431=CARTESIAN_POINT('',(2.6,3.18408167778312E-16,-43.3));
#432=CARTESIAN_POINT('Origin',(0.,0.,-43.3));
#433=CARTESIAN_POINT('',(2.6,3.18408167778312E-16,-41.8));
#434=CARTESIAN_POINT('',(2.6,3.18408167778312E-16,-43.3));
#435=CARTESIAN_POINT('Origin',(0.,0.,-41.8));
#436=CARTESIAN_POINT('Origin',(-1.15494192236747E-16,0.,-43.3));
#437=CARTESIAN_POINT('Origin',(0.,0.,-43.3));
#438=CARTESIAN_POINT('',(8.,9.79717439317883E-16,-41.8));
#439=CARTESIAN_POINT('Origin',(0.,0.,-41.8));
#440=CARTESIAN_POINT('',(8.,9.79717439317883E-16,-43.3));
#441=CARTESIAN_POINT('',(8.,9.79717439317883E-16,-43.3));
#442=CARTESIAN_POINT('Origin',(0.,0.,-43.3));
#443=CARTESIAN_POINT('Origin',(-7.7553251033388E-16,-1.15648231731787E-16,
-41.8));
#444=CARTESIAN_POINT('Origin',(0.,0.,-65.3));
#445=CARTESIAN_POINT('',(21.,2.57175827820944E-15,-43.3));
#446=CARTESIAN_POINT('Origin',(0.,0.,-43.3));
#447=CARTESIAN_POINT('',(21.,2.57175827820944E-15,-65.3));
#448=CARTESIAN_POINT('',(21.,2.57175827820944E-15,-65.3));
#449=CARTESIAN_POINT('Origin',(0.,0.,-65.3));
#450=CARTESIAN_POINT('Origin',(-9.19216697549299E-16,0.,-65.3));
#451=CARTESIAN_POINT('Origin',(-9.19216697549299E-16,0.,-43.3));
#452=UNCERTAINTY_MEASURE_WITH_UNIT(LENGTH_MEASURE(0.01),#456,
'DISTANCE_ACCURACY_VALUE',
'Maximum model space distance between geometric entities at asserted c
onnectivities');
#453=UNCERTAINTY_MEASURE_WITH_UNIT(LENGTH_MEASURE(0.01),#456,
'DISTANCE_ACCURACY_VALUE',
'Maximum model space distance between geometric entities at asserted c
onnectivities');
#454=(
GEOMETRIC_REPRESENTATION_CONTEXT(3)
GLOBAL_UNCERTAINTY_ASSIGNED_CONTEXT((#452))
GLOBAL_UNIT_ASSIGNED_CONTEXT((#456,#458,#459))
REPRESENTATION_CONTEXT('','3D')
);
#455=(
GEOMETRIC_REPRESENTATION_CONTEXT(3)
GLOBAL_UNCERTAINTY_ASSIGNED_CONTEXT((#453))
GLOBAL_UNIT_ASSIGNED_CONTEXT((#456,#458,#459))
REPRESENTATION_CONTEXT('','3D')
);
#456=(
LENGTH_UNIT()
NAMED_UNIT(*)
SI_UNIT(.MILLI.,.METRE.)
);
#457=(
LENGTH_UNIT()
NAMED_UNIT(*)
SI_UNIT(.CENTI.,.METRE.)
);
#458=(
NAMED_UNIT(*)
PLANE_ANGLE_UNIT()
SI_UNIT($,.RADIAN.)
);
#459=(
NAMED_UNIT(*)
SI_UNIT($,.STERADIAN.)
SOLID_ANGLE_UNIT()
);
#460=SHAPE_DEFINITION_REPRESENTATION(#461,#462);
#461=PRODUCT_DEFINITION_SHAPE('',$,#464);
#462=SHAPE_REPRESENTATION('',(#264),#454);
#463=PRODUCT_DEFINITION_CONTEXT('part definition',#468,'design');
#464=PRODUCT_DEFINITION('15_Motor_4221G024BXTH','15_Motor_4221G024BXTH',
#465,#463);
#465=PRODUCT_DEFINITION_FORMATION('',$,#470);
#466=PRODUCT_RELATED_PRODUCT_CATEGORY('15_Motor_4221G024BXTH',
'15_Motor_4221G024BXTH',(#470));
#467=APPLICATION_PROTOCOL_DEFINITION('international standard',
'automotive_design',2009,#468);
#468=APPLICATION_CONTEXT(
'Core Data for Automotive Mechanical Design Process');
#469=PRODUCT_CONTEXT('part definition',#468,'mechanical');
#470=PRODUCT('15_Motor_4221G024BXTH','15_Motor_4221G024BXTH',$,(#469));
#471=PRESENTATION_STYLE_ASSIGNMENT((#472));
#472=SURFACE_STYLE_USAGE(.BOTH.,#475);
#473=SURFACE_STYLE_RENDERING_WITH_PROPERTIES($,#479,(#474));
#474=SURFACE_STYLE_TRANSPARENT(0.);
#475=SURFACE_SIDE_STYLE('',(#476,#473));
#476=SURFACE_STYLE_FILL_AREA(#477);
#477=FILL_AREA_STYLE('',(#478));
#478=FILL_AREA_STYLE_COLOUR('',#479);
#479=COLOUR_RGB('',0.745098039215686,0.737254901960784,0.729411764705882);
ENDSEC;
END-ISO-10303-21;
