ISO-10303-21;
HEADER;
/* Generated by software containing ST-Developer
 * from STEP Tools, Inc. (www.steptools.com) 
 */

FILE_DESCRIPTION(
/* description */ (''),
/* implementation_level */ '2;1');

FILE_NAME(
/* name */ '17_Bearing_Retainer_Rear.step',
/* time_stamp */ '2026-10-08T19:41:08+09:00',
/* author */ ('Reaction Wheel Pendulum project'),
/* organization */ (''),
/* preprocessor_version */ 'ST-DEVELOPER v20.1',
/* originating_system */ 'Autodesk Inventor 2026',
/* authorisation */ '');

FILE_SCHEMA (('AUTOMOTIVE_DESIGN { 1 0 10303 214 3 1 1 }'));
ENDSEC;

DATA;
#10=MECHANICAL_DESIGN_GEOMETRIC_PRESENTATION_REPRESENTATION('',(#13),#387);
#11=SHAPE_REPRESENTATION_RELATIONSHIP('SRR','None',#394,#12);
#12=ADVANCED_BREP_SHAPE_REPRESENTATION('',(#14),#386);
#13=STYLED_ITEM('',(#403),#14);
#14=MANIFOLD_SOLID_BREP('\X2\30BD30EA30C330C9\X0\1',#222);
#15=FACE_BOUND('',#52,.T.);
#16=FACE_BOUND('',#53,.T.);
#17=FACE_BOUND('',#54,.T.);
#18=FACE_BOUND('',#55,.T.);
#19=FACE_BOUND('',#56,.T.);
#20=FACE_BOUND('',#58,.T.);
#21=FACE_BOUND('',#59,.T.);
#22=FACE_BOUND('',#60,.T.);
#23=FACE_BOUND('',#61,.T.);
#24=FACE_BOUND('',#62,.T.);
#25=PLANE('',#260);
#26=PLANE('',#261);
#27=PLANE('',#262);
#28=PLANE('',#263);
#29=PLANE('',#264);
#30=PLANE('',#265);
#31=FACE_OUTER_BOUND('',#42,.T.);
#32=FACE_OUTER_BOUND('',#43,.T.);
#33=FACE_OUTER_BOUND('',#44,.T.);
#34=FACE_OUTER_BOUND('',#45,.T.);
#35=FACE_OUTER_BOUND('',#46,.T.);
#36=FACE_OUTER_BOUND('',#47,.T.);
#37=FACE_OUTER_BOUND('',#48,.T.);
#38=FACE_OUTER_BOUND('',#49,.T.);
#39=FACE_OUTER_BOUND('',#50,.T.);
#40=FACE_OUTER_BOUND('',#51,.T.);
#41=FACE_OUTER_BOUND('',#57,.T.);
#42=EDGE_LOOP('',(#152,#153,#154,#155));
#43=EDGE_LOOP('',(#156,#157,#158,#159));
#44=EDGE_LOOP('',(#160,#161,#162,#163));
#45=EDGE_LOOP('',(#164,#165,#166,#167));
#46=EDGE_LOOP('',(#168,#169,#170,#171));
#47=EDGE_LOOP('',(#172,#173,#174,#175));
#48=EDGE_LOOP('',(#176,#177,#178,#179));
#49=EDGE_LOOP('',(#180,#181,#182,#183));
#50=EDGE_LOOP('',(#184,#185,#186,#187));
#51=EDGE_LOOP('',(#188,#189,#190,#191));
#52=EDGE_LOOP('',(#192));
#53=EDGE_LOOP('',(#193));
#54=EDGE_LOOP('',(#194));
#55=EDGE_LOOP('',(#195));
#56=EDGE_LOOP('',(#196));
#57=EDGE_LOOP('',(#197,#198,#199,#200));
#58=EDGE_LOOP('',(#201));
#59=EDGE_LOOP('',(#202));
#60=EDGE_LOOP('',(#203));
#61=EDGE_LOOP('',(#204));
#62=EDGE_LOOP('',(#205));
#63=LINE('',#332,#80);
#64=LINE('',#338,#81);
#65=LINE('',#344,#82);
#66=LINE('',#350,#83);
#67=LINE('',#356,#84);
#68=LINE('',#361,#85);
#69=LINE('',#363,#86);
#70=LINE('',#365,#87);
#71=LINE('',#366,#88);
#72=LINE('',#369,#89);
#73=LINE('',#371,#90);
#74=LINE('',#372,#91);
#75=LINE('',#375,#92);
#76=LINE('',#377,#93);
#77=LINE('',#378,#94);
#78=LINE('',#380,#95);
#79=LINE('',#381,#96);
#80=VECTOR('',#272,1.6);
#81=VECTOR('',#279,1.6);
#82=VECTOR('',#286,1.6);
#83=VECTOR('',#293,1.6);
#84=VECTOR('',#300,6.);
#85=VECTOR('',#305,10.);
#86=VECTOR('',#306,10.);
#87=VECTOR('',#307,10.);
#88=VECTOR('',#308,10.);
#89=VECTOR('',#311,10.);
#90=VECTOR('',#312,10.);
#91=VECTOR('',#313,10.);
#92=VECTOR('',#316,10.);
#93=VECTOR('',#317,10.);
#94=VECTOR('',#318,10.);
#95=VECTOR('',#321,10.);
#96=VECTOR('',#322,10.);
#97=CIRCLE('',#246,1.6);
#98=CIRCLE('',#247,1.6);
#99=CIRCLE('',#249,1.6);
#100=CIRCLE('',#250,1.6);
#101=CIRCLE('',#252,1.6);
#102=CIRCLE('',#253,1.6);
#103=CIRCLE('',#255,1.6);
#104=CIRCLE('',#256,1.6);
#105=CIRCLE('',#258,6.);
#106=CIRCLE('',#259,6.);
#107=VERTEX_POINT('',#329);
#108=VERTEX_POINT('',#331);
#109=VERTEX_POINT('',#335);
#110=VERTEX_POINT('',#337);
#111=VERTEX_POINT('',#341);
#112=VERTEX_POINT('',#343);
#113=VERTEX_POINT('',#347);
#114=VERTEX_POINT('',#349);
#115=VERTEX_POINT('',#353);
#116=VERTEX_POINT('',#355);
#117=VERTEX_POINT('',#359);
#118=VERTEX_POINT('',#360);
#119=VERTEX_POINT('',#362);
#120=VERTEX_POINT('',#364);
#121=VERTEX_POINT('',#368);
#122=VERTEX_POINT('',#370);
#123=VERTEX_POINT('',#374);
#124=VERTEX_POINT('',#376);
#125=EDGE_CURVE('',#107,#107,#97,.T.);
#126=EDGE_CURVE('',#107,#108,#63,.T.);
#127=EDGE_CURVE('',#108,#108,#98,.T.);
#128=EDGE_CURVE('',#109,#109,#99,.T.);
#129=EDGE_CURVE('',#109,#110,#64,.T.);
#130=EDGE_CURVE('',#110,#110,#100,.T.);
#131=EDGE_CURVE('',#111,#111,#101,.T.);
#132=EDGE_CURVE('',#111,#112,#65,.T.);
#133=EDGE_CURVE('',#112,#112,#102,.T.);
#134=EDGE_CURVE('',#113,#113,#103,.T.);
#135=EDGE_CURVE('',#113,#114,#66,.T.);
#136=EDGE_CURVE('',#114,#114,#104,.T.);
#137=EDGE_CURVE('',#115,#115,#105,.T.);
#138=EDGE_CURVE('',#115,#116,#67,.T.);
#139=EDGE_CURVE('',#116,#116,#106,.T.);
#140=EDGE_CURVE('',#117,#118,#68,.T.);
#141=EDGE_CURVE('',#118,#119,#69,.T.);
#142=EDGE_CURVE('',#120,#119,#70,.T.);
#143=EDGE_CURVE('',#117,#120,#71,.T.);
#144=EDGE_CURVE('',#121,#117,#72,.T.);
#145=EDGE_CURVE('',#122,#120,#73,.T.);
#146=EDGE_CURVE('',#121,#122,#74,.T.);
#147=EDGE_CURVE('',#123,#121,#75,.T.);
#148=EDGE_CURVE('',#124,#122,#76,.T.);
#149=EDGE_CURVE('',#123,#124,#77,.T.);
#150=EDGE_CURVE('',#118,#123,#78,.T.);
#151=EDGE_CURVE('',#119,#124,#79,.T.);
#152=ORIENTED_EDGE('',*,*,#125,.F.);
#153=ORIENTED_EDGE('',*,*,#126,.T.);
#154=ORIENTED_EDGE('',*,*,#127,.F.);
#155=ORIENTED_EDGE('',*,*,#126,.F.);
#156=ORIENTED_EDGE('',*,*,#128,.F.);
#157=ORIENTED_EDGE('',*,*,#129,.T.);
#158=ORIENTED_EDGE('',*,*,#130,.F.);
#159=ORIENTED_EDGE('',*,*,#129,.F.);
#160=ORIENTED_EDGE('',*,*,#131,.F.);
#161=ORIENTED_EDGE('',*,*,#132,.T.);
#162=ORIENTED_EDGE('',*,*,#133,.F.);
#163=ORIENTED_EDGE('',*,*,#132,.F.);
#164=ORIENTED_EDGE('',*,*,#134,.F.);
#165=ORIENTED_EDGE('',*,*,#135,.T.);
#166=ORIENTED_EDGE('',*,*,#136,.F.);
#167=ORIENTED_EDGE('',*,*,#135,.F.);
#168=ORIENTED_EDGE('',*,*,#137,.F.);
#169=ORIENTED_EDGE('',*,*,#138,.T.);
#170=ORIENTED_EDGE('',*,*,#139,.F.);
#171=ORIENTED_EDGE('',*,*,#138,.F.);
#172=ORIENTED_EDGE('',*,*,#140,.T.);
#173=ORIENTED_EDGE('',*,*,#141,.T.);
#174=ORIENTED_EDGE('',*,*,#142,.F.);
#175=ORIENTED_EDGE('',*,*,#143,.F.);
#176=ORIENTED_EDGE('',*,*,#144,.T.);
#177=ORIENTED_EDGE('',*,*,#143,.T.);
#178=ORIENTED_EDGE('',*,*,#145,.F.);
#179=ORIENTED_EDGE('',*,*,#146,.F.);
#180=ORIENTED_EDGE('',*,*,#147,.T.);
#181=ORIENTED_EDGE('',*,*,#146,.T.);
#182=ORIENTED_EDGE('',*,*,#148,.F.);
#183=ORIENTED_EDGE('',*,*,#149,.F.);
#184=ORIENTED_EDGE('',*,*,#150,.T.);
#185=ORIENTED_EDGE('',*,*,#149,.T.);
#186=ORIENTED_EDGE('',*,*,#151,.F.);
#187=ORIENTED_EDGE('',*,*,#141,.F.);
#188=ORIENTED_EDGE('',*,*,#151,.T.);
#189=ORIENTED_EDGE('',*,*,#148,.T.);
#190=ORIENTED_EDGE('',*,*,#145,.T.);
#191=ORIENTED_EDGE('',*,*,#142,.T.);
#192=ORIENTED_EDGE('',*,*,#127,.T.);
#193=ORIENTED_EDGE('',*,*,#130,.T.);
#194=ORIENTED_EDGE('',*,*,#133,.T.);
#195=ORIENTED_EDGE('',*,*,#136,.T.);
#196=ORIENTED_EDGE('',*,*,#139,.T.);
#197=ORIENTED_EDGE('',*,*,#150,.F.);
#198=ORIENTED_EDGE('',*,*,#140,.F.);
#199=ORIENTED_EDGE('',*,*,#144,.F.);
#200=ORIENTED_EDGE('',*,*,#147,.F.);
#201=ORIENTED_EDGE('',*,*,#125,.T.);
#202=ORIENTED_EDGE('',*,*,#128,.T.);
#203=ORIENTED_EDGE('',*,*,#131,.T.);
#204=ORIENTED_EDGE('',*,*,#134,.T.);
#205=ORIENTED_EDGE('',*,*,#137,.T.);
#206=CYLINDRICAL_SURFACE('',#245,1.6);
#207=CYLINDRICAL_SURFACE('',#248,1.6);
#208=CYLINDRICAL_SURFACE('',#251,1.6);
#209=CYLINDRICAL_SURFACE('',#254,1.6);
#210=CYLINDRICAL_SURFACE('',#257,6.);
#211=ADVANCED_FACE('',(#31),#206,.F.);
#212=ADVANCED_FACE('',(#32),#207,.F.);
#213=ADVANCED_FACE('',(#33),#208,.F.);
#214=ADVANCED_FACE('',(#34),#209,.F.);
#215=ADVANCED_FACE('',(#35),#210,.F.);
#216=ADVANCED_FACE('',(#36),#25,.T.);
#217=ADVANCED_FACE('',(#37),#26,.T.);
#218=ADVANCED_FACE('',(#38),#27,.T.);
#219=ADVANCED_FACE('',(#39),#28,.T.);
#220=ADVANCED_FACE('',(#40,#15,#16,#17,#18,#19),#29,.T.);
#221=ADVANCED_FACE('',(#41,#20,#21,#22,#23,#24),#30,.F.);
#222=CLOSED_SHELL('',(#211,#212,#213,#214,#215,#216,#217,#218,#219,#220,
#221));
#223=DERIVED_UNIT_ELEMENT(#226,1.);
#224=DERIVED_UNIT_ELEMENT(#389,-3.);
#225=DIMENSIONAL_EXPONENTS(0.,1.,0.,0.,0.,0.,0.);
#226=(
CONVERSION_BASED_UNIT('gram',#228)
MASS_UNIT()
NAMED_UNIT(#225)
);
#227=(
MASS_UNIT()
NAMED_UNIT(*)
SI_UNIT(.KILO.,.GRAM.)
);
#228=MASS_MEASURE_WITH_UNIT(MASS_MEASURE(0.001),#227);
#229=DERIVED_UNIT((#223,#224));
#230=MEASURE_REPRESENTATION_ITEM('density measure',
POSITIVE_RATIO_MEASURE(2.7),#229);
#231=PROPERTY_DEFINITION_REPRESENTATION(#236,#233);
#232=PROPERTY_DEFINITION_REPRESENTATION(#237,#234);
#233=REPRESENTATION('material name',(#235),#386);
#234=REPRESENTATION('density',(#230),#386);
#235=DESCRIPTIVE_REPRESENTATION_ITEM('\X2\30A230EB30DF30CB30A630E0\X0\ 
6061','\X2\30A230EB30DF30CB30A630E0\X0\ 6061');
#236=PROPERTY_DEFINITION('material property','material name',#396);
#237=PROPERTY_DEFINITION('material property','density of part',#396);
#238=DATE_TIME_ROLE('creation_date');
#239=APPLIED_DATE_AND_TIME_ASSIGNMENT(#240,#238,(#396));
#240=DATE_AND_TIME(#241,#242);
#241=CALENDAR_DATE(2026,8,10);
#242=LOCAL_TIME(0,0,0.,#243);
#243=COORDINATED_UNIVERSAL_TIME_OFFSET(0,0,.BEHIND.);
#244=AXIS2_PLACEMENT_3D('',#327,#266,#267);
#245=AXIS2_PLACEMENT_3D('',#328,#268,#269);
#246=AXIS2_PLACEMENT_3D('',#330,#270,#271);
#247=AXIS2_PLACEMENT_3D('',#333,#273,#274);
#248=AXIS2_PLACEMENT_3D('',#334,#275,#276);
#249=AXIS2_PLACEMENT_3D('',#336,#277,#278);
#250=AXIS2_PLACEMENT_3D('',#339,#280,#281);
#251=AXIS2_PLACEMENT_3D('',#340,#282,#283);
#252=AXIS2_PLACEMENT_3D('',#342,#284,#285);
#253=AXIS2_PLACEMENT_3D('',#345,#287,#288);
#254=AXIS2_PLACEMENT_3D('',#346,#289,#290);
#255=AXIS2_PLACEMENT_3D('',#348,#291,#292);
#256=AXIS2_PLACEMENT_3D('',#351,#294,#295);
#257=AXIS2_PLACEMENT_3D('',#352,#296,#297);
#258=AXIS2_PLACEMENT_3D('',#354,#298,#299);
#259=AXIS2_PLACEMENT_3D('',#357,#301,#302);
#260=AXIS2_PLACEMENT_3D('',#358,#303,#304);
#261=AXIS2_PLACEMENT_3D('',#367,#309,#310);
#262=AXIS2_PLACEMENT_3D('',#373,#314,#315);
#263=AXIS2_PLACEMENT_3D('',#379,#319,#320);
#264=AXIS2_PLACEMENT_3D('',#382,#323,#324);
#265=AXIS2_PLACEMENT_3D('',#383,#325,#326);
#266=DIRECTION('axis',(0.,0.,1.));
#267=DIRECTION('refdir',(1.,0.,0.));
#268=DIRECTION('center_axis',(0.,0.,1.));
#269=DIRECTION('ref_axis',(-1.,0.,0.));
#270=DIRECTION('center_axis',(0.,0.,1.));
#271=DIRECTION('ref_axis',(-1.,0.,0.));
#272=DIRECTION('',(0.,0.,1.));
#273=DIRECTION('center_axis',(0.,0.,-1.));
#274=DIRECTION('ref_axis',(-1.,0.,0.));
#275=DIRECTION('center_axis',(0.,0.,1.));
#276=DIRECTION('ref_axis',(-1.,0.,0.));
#277=DIRECTION('center_axis',(0.,0.,1.));
#278=DIRECTION('ref_axis',(-1.,0.,0.));
#279=DIRECTION('',(0.,0.,1.));
#280=DIRECTION('center_axis',(0.,0.,-1.));
#281=DIRECTION('ref_axis',(-1.,0.,0.));
#282=DIRECTION('center_axis',(0.,0.,1.));
#283=DIRECTION('ref_axis',(-1.,0.,0.));
#284=DIRECTION('center_axis',(0.,0.,1.));
#285=DIRECTION('ref_axis',(-1.,0.,0.));
#286=DIRECTION('',(0.,0.,1.));
#287=DIRECTION('center_axis',(0.,0.,-1.));
#288=DIRECTION('ref_axis',(-1.,0.,0.));
#289=DIRECTION('center_axis',(0.,0.,1.));
#290=DIRECTION('ref_axis',(-1.,0.,0.));
#291=DIRECTION('center_axis',(0.,0.,1.));
#292=DIRECTION('ref_axis',(-1.,0.,0.));
#293=DIRECTION('',(0.,0.,1.));
#294=DIRECTION('center_axis',(0.,0.,-1.));
#295=DIRECTION('ref_axis',(-1.,0.,0.));
#296=DIRECTION('center_axis',(0.,0.,1.));
#297=DIRECTION('ref_axis',(-1.,0.,0.));
#298=DIRECTION('center_axis',(0.,0.,1.));
#299=DIRECTION('ref_axis',(-1.,0.,0.));
#300=DIRECTION('',(0.,0.,1.));
#301=DIRECTION('center_axis',(0.,0.,-1.));
#302=DIRECTION('ref_axis',(-1.,0.,0.));
#303=DIRECTION('center_axis',(-1.,0.,0.));
#304=DIRECTION('ref_axis',(0.,-1.,0.));
#305=DIRECTION('',(0.,-1.,0.));
#306=DIRECTION('',(0.,0.,1.));
#307=DIRECTION('',(0.,-1.,0.));
#308=DIRECTION('',(0.,0.,1.));
#309=DIRECTION('center_axis',(0.,1.,0.));
#310=DIRECTION('ref_axis',(-1.,0.,0.));
#311=DIRECTION('',(-1.,0.,0.));
#312=DIRECTION('',(-1.,0.,0.));
#313=DIRECTION('',(0.,0.,1.));
#314=DIRECTION('center_axis',(1.,0.,0.));
#315=DIRECTION('ref_axis',(0.,1.,0.));
#316=DIRECTION('',(0.,1.,0.));
#317=DIRECTION('',(0.,1.,0.));
#318=DIRECTION('',(0.,0.,1.));
#319=DIRECTION('center_axis',(0.,-1.,0.));
#320=DIRECTION('ref_axis',(1.,0.,0.));
#321=DIRECTION('',(1.,0.,0.));
#322=DIRECTION('',(1.,0.,0.));
#323=DIRECTION('center_axis',(0.,0.,1.));
#324=DIRECTION('ref_axis',(1.,0.,0.));
#325=DIRECTION('center_axis',(0.,0.,1.));
#326=DIRECTION('ref_axis',(1.,0.,0.));
#327=CARTESIAN_POINT('',(0.,0.,0.));
#328=CARTESIAN_POINT('Origin',(15.,15.,4.));
#329=CARTESIAN_POINT('',(16.6,15.,4.));
#330=CARTESIAN_POINT('Origin',(15.,15.,4.));
#331=CARTESIAN_POINT('',(16.6,15.,6.));
#332=CARTESIAN_POINT('',(16.6,15.,4.));
#333=CARTESIAN_POINT('Origin',(15.,15.,6.));
#334=CARTESIAN_POINT('Origin',(15.,-15.,4.));
#335=CARTESIAN_POINT('',(16.6,-15.,4.));
#336=CARTESIAN_POINT('Origin',(15.,-15.,4.));
#337=CARTESIAN_POINT('',(16.6,-15.,6.));
#338=CARTESIAN_POINT('',(16.6,-15.,4.));
#339=CARTESIAN_POINT('Origin',(15.,-15.,6.));
#340=CARTESIAN_POINT('Origin',(-15.,15.,4.));
#341=CARTESIAN_POINT('',(-13.4,15.,4.));
#342=CARTESIAN_POINT('Origin',(-15.,15.,4.));
#343=CARTESIAN_POINT('',(-13.4,15.,6.));
#344=CARTESIAN_POINT('',(-13.4,15.,4.));
#345=CARTESIAN_POINT('Origin',(-15.,15.,6.));
#346=CARTESIAN_POINT('Origin',(-15.,-15.,4.));
#347=CARTESIAN_POINT('',(-13.4,-15.,4.));
#348=CARTESIAN_POINT('Origin',(-15.,-15.,4.));
#349=CARTESIAN_POINT('',(-13.4,-15.,6.));
#350=CARTESIAN_POINT('',(-13.4,-15.,4.));
#351=CARTESIAN_POINT('Origin',(-15.,-15.,6.));
#352=CARTESIAN_POINT('Origin',(0.,0.,4.));
#353=CARTESIAN_POINT('',(6.,7.34788079488412E-16,4.));
#354=CARTESIAN_POINT('Origin',(0.,0.,4.));
#355=CARTESIAN_POINT('',(6.,7.34788079488412E-16,6.));
#356=CARTESIAN_POINT('',(6.,7.34788079488412E-16,4.));
#357=CARTESIAN_POINT('Origin',(0.,0.,6.));
#358=CARTESIAN_POINT('Origin',(-20.,20.,4.));
#359=CARTESIAN_POINT('',(-20.,20.,4.));
#360=CARTESIAN_POINT('',(-20.,-20.,4.));
#361=CARTESIAN_POINT('',(-20.,20.,4.));
#362=CARTESIAN_POINT('',(-20.,-20.,6.));
#363=CARTESIAN_POINT('',(-20.,-20.,4.));
#364=CARTESIAN_POINT('',(-20.,20.,6.));
#365=CARTESIAN_POINT('',(-20.,20.,6.));
#366=CARTESIAN_POINT('',(-20.,20.,4.));
#367=CARTESIAN_POINT('Origin',(20.,20.,4.));
#368=CARTESIAN_POINT('',(20.,20.,4.));
#369=CARTESIAN_POINT('',(20.,20.,4.));
#370=CARTESIAN_POINT('',(20.,20.,6.));
#371=CARTESIAN_POINT('',(20.,20.,6.));
#372=CARTESIAN_POINT('',(20.,20.,4.));
#373=CARTESIAN_POINT('Origin',(20.,-20.,4.));
#374=CARTESIAN_POINT('',(20.,-20.,4.));
#375=CARTESIAN_POINT('',(20.,-20.,4.));
#376=CARTESIAN_POINT('',(20.,-20.,6.));
#377=CARTESIAN_POINT('',(20.,-20.,6.));
#378=CARTESIAN_POINT('',(20.,-20.,4.));
#379=CARTESIAN_POINT('Origin',(-20.,-20.,4.));
#380=CARTESIAN_POINT('',(-20.,-20.,4.));
#381=CARTESIAN_POINT('',(-20.,-20.,6.));
#382=CARTESIAN_POINT('Origin',(0.,0.,6.));
#383=CARTESIAN_POINT('Origin',(0.,0.,4.));
#384=UNCERTAINTY_MEASURE_WITH_UNIT(LENGTH_MEASURE(0.01),#388,
'DISTANCE_ACCURACY_VALUE',
'Maximum model space distance between geometric entities at asserted c
onnectivities');
#385=UNCERTAINTY_MEASURE_WITH_UNIT(LENGTH_MEASURE(0.01),#388,
'DISTANCE_ACCURACY_VALUE',
'Maximum model space distance between geometric entities at asserted c
onnectivities');
#386=(
GEOMETRIC_REPRESENTATION_CONTEXT(3)
GLOBAL_UNCERTAINTY_ASSIGNED_CONTEXT((#384))
GLOBAL_UNIT_ASSIGNED_CONTEXT((#388,#390,#391))
REPRESENTATION_CONTEXT('','3D')
);
#387=(
GEOMETRIC_REPRESENTATION_CONTEXT(3)
GLOBAL_UNCERTAINTY_ASSIGNED_CONTEXT((#385))
GLOBAL_UNIT_ASSIGNED_CONTEXT((#388,#390,#391))
REPRESENTATION_CONTEXT('','3D')
);
#388=(
LENGTH_UNIT()
NAMED_UNIT(*)
SI_UNIT(.MILLI.,.METRE.)
);
#389=(
LENGTH_UNIT()
NAMED_UNIT(*)
SI_UNIT(.CENTI.,.METRE.)
);
#390=(
NAMED_UNIT(*)
PLANE_ANGLE_UNIT()
SI_UNIT($,.RADIAN.)
);
#391=(
NAMED_UNIT(*)
SI_UNIT($,.STERADIAN.)
SOLID_ANGLE_UNIT()
);
#392=SHAPE_DEFINITION_REPRESENTATION(#393,#394);
#393=PRODUCT_DEFINITION_SHAPE('',$,#396);
#394=SHAPE_REPRESENTATION('',(#244),#386);
#395=PRODUCT_DEFINITION_CONTEXT('part definition',#400,'design');
#396=PRODUCT_DEFINITION('17_Bearing_Retainer_Rear',
'17_Bearing_Retainer_Rear',#397,#395);
#397=PRODUCT_DEFINITION_FORMATION('',$,#402);
#398=PRODUCT_RELATED_PRODUCT_CATEGORY('17_Bearing_Retainer_Rear',
'17_Bearing_Retainer_Rear',(#402));
#399=APPLICATION_PROTOCOL_DEFINITION('international standard',
'automotive_design',2009,#400);
#400=APPLICATION_CONTEXT(
'Core Data for Automotive Mechanical Design Process');
#401=PRODUCT_CONTEXT('part definition',#400,'mechanical');
#402=PRODUCT('17_Bearing_Retainer_Rear','17_Bearing_Retainer_Rear',$,(#401));
#403=PRESENTATION_STYLE_ASSIGNMENT((#404));
#404=SURFACE_STYLE_USAGE(.BOTH.,#407);
#405=SURFACE_STYLE_RENDERING_WITH_PROPERTIES($,#411,(#406));
#406=SURFACE_STYLE_TRANSPARENT(0.);
#407=SURFACE_SIDE_STYLE('',(#408,#405));
#408=SURFACE_STYLE_FILL_AREA(#409);
#409=FILL_AREA_STYLE('',(#410));
#410=FILL_AREA_STYLE_COLOUR('',#411);
#411=COLOUR_RGB('',0.996078431372549,0.996078431372549,1.);
ENDSEC;
END-ISO-10303-21;
