ISO-10303-21;
HEADER;
/* Generated by software containing ST-Developer
 * from STEP Tools, Inc. (www.steptools.com) 
 */

FILE_DESCRIPTION(
/* description */ (''),
/* implementation_level */ '2;1');

FILE_NAME(
/* name */ '24B_Upper_Pad_Carrier.step',
/* time_stamp */ '2026-10-08T19:41:10+09:00',
/* author */ ('Reaction Wheel Pendulum project'),
/* organization */ (''),
/* preprocessor_version */ 'ST-DEVELOPER v20.1',
/* originating_system */ 'Autodesk Inventor 2026',
/* authorisation */ '');

FILE_SCHEMA (('AUTOMOTIVE_DESIGN { 1 0 10303 214 3 1 1 }'));
ENDSEC;

DATA;
#10=MECHANICAL_DESIGN_GEOMETRIC_PRESENTATION_REPRESENTATION('',(#13),#426);
#11=SHAPE_REPRESENTATION_RELATIONSHIP('SRR','None',#433,#12);
#12=ADVANCED_BREP_SHAPE_REPRESENTATION('',(#14),#425);
#13=STYLED_ITEM('',(#442),#14);
#14=MANIFOLD_SOLID_BREP('\X2\30BD30EA30C330C9\X0\1',#252);
#15=FACE_BOUND('',#51,.T.);
#16=FACE_BOUND('',#52,.T.);
#17=FACE_BOUND('',#58,.T.);
#18=FACE_BOUND('',#59,.T.);
#19=PLANE('',#281);
#20=PLANE('',#282);
#21=PLANE('',#283);
#22=PLANE('',#284);
#23=PLANE('',#285);
#24=PLANE('',#286);
#25=PLANE('',#287);
#26=PLANE('',#288);
#27=PLANE('',#289);
#28=PLANE('',#290);
#29=PLANE('',#291);
#30=FACE_OUTER_BOUND('',#43,.T.);
#31=FACE_OUTER_BOUND('',#44,.T.);
#32=FACE_OUTER_BOUND('',#45,.T.);
#33=FACE_OUTER_BOUND('',#46,.T.);
#34=FACE_OUTER_BOUND('',#47,.T.);
#35=FACE_OUTER_BOUND('',#48,.T.);
#36=FACE_OUTER_BOUND('',#49,.T.);
#37=FACE_OUTER_BOUND('',#50,.T.);
#38=FACE_OUTER_BOUND('',#53,.T.);
#39=FACE_OUTER_BOUND('',#54,.T.);
#40=FACE_OUTER_BOUND('',#55,.T.);
#41=FACE_OUTER_BOUND('',#56,.T.);
#42=FACE_OUTER_BOUND('',#57,.T.);
#43=EDGE_LOOP('',(#173,#174,#175,#176));
#44=EDGE_LOOP('',(#177,#178,#179,#180));
#45=EDGE_LOOP('',(#181,#182,#183,#184));
#46=EDGE_LOOP('',(#185,#186,#187,#188,#189));
#47=EDGE_LOOP('',(#190,#191,#192));
#48=EDGE_LOOP('',(#193,#194,#195,#196));
#49=EDGE_LOOP('',(#197,#198,#199));
#50=EDGE_LOOP('',(#200,#201,#202,#203,#204,#205,#206,#207,#208));
#51=EDGE_LOOP('',(#209));
#52=EDGE_LOOP('',(#210));
#53=EDGE_LOOP('',(#211,#212,#213,#214));
#54=EDGE_LOOP('',(#215,#216,#217,#218));
#55=EDGE_LOOP('',(#219,#220,#221,#222,#223,#224,#225,#226));
#56=EDGE_LOOP('',(#227,#228,#229,#230));
#57=EDGE_LOOP('',(#231,#232,#233,#234));
#58=EDGE_LOOP('',(#235));
#59=EDGE_LOOP('',(#236));
#60=LINE('',#361,#88);
#61=LINE('',#367,#89);
#62=LINE('',#372,#90);
#63=LINE('',#374,#91);
#64=LINE('',#376,#92);
#65=LINE('',#377,#93);
#66=LINE('',#380,#94);
#67=LINE('',#382,#95);
#68=LINE('',#384,#96);
#69=LINE('',#385,#97);
#70=LINE('',#387,#98);
#71=LINE('',#390,#99);
#72=LINE('',#392,#100);
#73=LINE('',#393,#101);
#74=LINE('',#395,#102);
#75=LINE('',#398,#103);
#76=LINE('',#400,#104);
#77=LINE('',#402,#105);
#78=LINE('',#404,#106);
#79=LINE('',#405,#107);
#80=LINE('',#409,#108);
#81=LINE('',#410,#109);
#82=LINE('',#411,#110);
#83=LINE('',#414,#111);
#84=LINE('',#415,#112);
#85=LINE('',#418,#113);
#86=LINE('',#419,#114);
#87=LINE('',#421,#115);
#88=VECTOR('',#298,1.6);
#89=VECTOR('',#305,1.6);
#90=VECTOR('',#310,10.);
#91=VECTOR('',#311,10.);
#92=VECTOR('',#312,10.);
#93=VECTOR('',#313,10.);
#94=VECTOR('',#316,10.);
#95=VECTOR('',#317,10.);
#96=VECTOR('',#318,10.);
#97=VECTOR('',#319,10.);
#98=VECTOR('',#322,10.);
#99=VECTOR('',#325,10.);
#100=VECTOR('',#326,10.);
#101=VECTOR('',#327,10.);
#102=VECTOR('',#330,10.);
#103=VECTOR('',#333,10.);
#104=VECTOR('',#334,10.);
#105=VECTOR('',#335,10.);
#106=VECTOR('',#336,10.);
#107=VECTOR('',#337,10.);
#108=VECTOR('',#340,10.);
#109=VECTOR('',#341,10.);
#110=VECTOR('',#342,10.);
#111=VECTOR('',#345,10.);
#112=VECTOR('',#346,10.);
#113=VECTOR('',#349,10.);
#114=VECTOR('',#350,10.);
#115=VECTOR('',#353,10.);
#116=CIRCLE('',#276,1.6);
#117=CIRCLE('',#277,1.6);
#118=CIRCLE('',#279,1.6);
#119=CIRCLE('',#280,1.6);
#120=VERTEX_POINT('',#358);
#121=VERTEX_POINT('',#360);
#122=VERTEX_POINT('',#364);
#123=VERTEX_POINT('',#366);
#124=VERTEX_POINT('',#370);
#125=VERTEX_POINT('',#371);
#126=VERTEX_POINT('',#373);
#127=VERTEX_POINT('',#375);
#128=VERTEX_POINT('',#379);
#129=VERTEX_POINT('',#381);
#130=VERTEX_POINT('',#383);
#131=VERTEX_POINT('',#389);
#132=VERTEX_POINT('',#391);
#133=VERTEX_POINT('',#397);
#134=VERTEX_POINT('',#399);
#135=VERTEX_POINT('',#401);
#136=VERTEX_POINT('',#403);
#137=VERTEX_POINT('',#407);
#138=VERTEX_POINT('',#408);
#139=VERTEX_POINT('',#413);
#140=VERTEX_POINT('',#417);
#141=EDGE_CURVE('',#120,#120,#116,.T.);
#142=EDGE_CURVE('',#120,#121,#60,.T.);
#143=EDGE_CURVE('',#121,#121,#117,.T.);
#144=EDGE_CURVE('',#122,#122,#118,.T.);
#145=EDGE_CURVE('',#122,#123,#61,.T.);
#146=EDGE_CURVE('',#123,#123,#119,.T.);
#147=EDGE_CURVE('',#124,#125,#62,.T.);
#148=EDGE_CURVE('',#124,#126,#63,.T.);
#149=EDGE_CURVE('',#126,#127,#64,.T.);
#150=EDGE_CURVE('',#125,#127,#65,.T.);
#151=EDGE_CURVE('',#126,#128,#66,.T.);
#152=EDGE_CURVE('',#129,#128,#67,.T.);
#153=EDGE_CURVE('',#130,#129,#68,.T.);
#154=EDGE_CURVE('',#127,#130,#69,.T.);
#155=EDGE_CURVE('',#128,#124,#70,.T.);
#156=EDGE_CURVE('',#129,#131,#71,.T.);
#157=EDGE_CURVE('',#132,#131,#72,.T.);
#158=EDGE_CURVE('',#130,#132,#73,.T.);
#159=EDGE_CURVE('',#131,#128,#74,.T.);
#160=EDGE_CURVE('',#125,#133,#75,.T.);
#161=EDGE_CURVE('',#133,#134,#76,.T.);
#162=EDGE_CURVE('',#134,#135,#77,.T.);
#163=EDGE_CURVE('',#135,#136,#78,.T.);
#164=EDGE_CURVE('',#136,#132,#79,.T.);
#165=EDGE_CURVE('',#137,#138,#80,.T.);
#166=EDGE_CURVE('',#138,#135,#81,.T.);
#167=EDGE_CURVE('',#137,#134,#82,.T.);
#168=EDGE_CURVE('',#139,#137,#83,.T.);
#169=EDGE_CURVE('',#139,#133,#84,.T.);
#170=EDGE_CURVE('',#140,#136,#85,.T.);
#171=EDGE_CURVE('',#140,#139,#86,.T.);
#172=EDGE_CURVE('',#138,#140,#87,.T.);
#173=ORIENTED_EDGE('',*,*,#141,.F.);
#174=ORIENTED_EDGE('',*,*,#142,.T.);
#175=ORIENTED_EDGE('',*,*,#143,.F.);
#176=ORIENTED_EDGE('',*,*,#142,.F.);
#177=ORIENTED_EDGE('',*,*,#144,.F.);
#178=ORIENTED_EDGE('',*,*,#145,.T.);
#179=ORIENTED_EDGE('',*,*,#146,.F.);
#180=ORIENTED_EDGE('',*,*,#145,.F.);
#181=ORIENTED_EDGE('',*,*,#147,.F.);
#182=ORIENTED_EDGE('',*,*,#148,.T.);
#183=ORIENTED_EDGE('',*,*,#149,.T.);
#184=ORIENTED_EDGE('',*,*,#150,.F.);
#185=ORIENTED_EDGE('',*,*,#151,.T.);
#186=ORIENTED_EDGE('',*,*,#152,.F.);
#187=ORIENTED_EDGE('',*,*,#153,.F.);
#188=ORIENTED_EDGE('',*,*,#154,.F.);
#189=ORIENTED_EDGE('',*,*,#149,.F.);
#190=ORIENTED_EDGE('',*,*,#155,.F.);
#191=ORIENTED_EDGE('',*,*,#151,.F.);
#192=ORIENTED_EDGE('',*,*,#148,.F.);
#193=ORIENTED_EDGE('',*,*,#153,.T.);
#194=ORIENTED_EDGE('',*,*,#156,.T.);
#195=ORIENTED_EDGE('',*,*,#157,.F.);
#196=ORIENTED_EDGE('',*,*,#158,.F.);
#197=ORIENTED_EDGE('',*,*,#152,.T.);
#198=ORIENTED_EDGE('',*,*,#159,.F.);
#199=ORIENTED_EDGE('',*,*,#156,.F.);
#200=ORIENTED_EDGE('',*,*,#157,.T.);
#201=ORIENTED_EDGE('',*,*,#159,.T.);
#202=ORIENTED_EDGE('',*,*,#155,.T.);
#203=ORIENTED_EDGE('',*,*,#147,.T.);
#204=ORIENTED_EDGE('',*,*,#160,.T.);
#205=ORIENTED_EDGE('',*,*,#161,.T.);
#206=ORIENTED_EDGE('',*,*,#162,.T.);
#207=ORIENTED_EDGE('',*,*,#163,.T.);
#208=ORIENTED_EDGE('',*,*,#164,.T.);
#209=ORIENTED_EDGE('',*,*,#143,.T.);
#210=ORIENTED_EDGE('',*,*,#146,.T.);
#211=ORIENTED_EDGE('',*,*,#165,.T.);
#212=ORIENTED_EDGE('',*,*,#166,.T.);
#213=ORIENTED_EDGE('',*,*,#162,.F.);
#214=ORIENTED_EDGE('',*,*,#167,.F.);
#215=ORIENTED_EDGE('',*,*,#168,.T.);
#216=ORIENTED_EDGE('',*,*,#167,.T.);
#217=ORIENTED_EDGE('',*,*,#161,.F.);
#218=ORIENTED_EDGE('',*,*,#169,.F.);
#219=ORIENTED_EDGE('',*,*,#158,.T.);
#220=ORIENTED_EDGE('',*,*,#164,.F.);
#221=ORIENTED_EDGE('',*,*,#170,.F.);
#222=ORIENTED_EDGE('',*,*,#171,.T.);
#223=ORIENTED_EDGE('',*,*,#169,.T.);
#224=ORIENTED_EDGE('',*,*,#160,.F.);
#225=ORIENTED_EDGE('',*,*,#150,.T.);
#226=ORIENTED_EDGE('',*,*,#154,.T.);
#227=ORIENTED_EDGE('',*,*,#172,.T.);
#228=ORIENTED_EDGE('',*,*,#170,.T.);
#229=ORIENTED_EDGE('',*,*,#163,.F.);
#230=ORIENTED_EDGE('',*,*,#166,.F.);
#231=ORIENTED_EDGE('',*,*,#171,.F.);
#232=ORIENTED_EDGE('',*,*,#172,.F.);
#233=ORIENTED_EDGE('',*,*,#165,.F.);
#234=ORIENTED_EDGE('',*,*,#168,.F.);
#235=ORIENTED_EDGE('',*,*,#141,.T.);
#236=ORIENTED_EDGE('',*,*,#144,.T.);
#237=CYLINDRICAL_SURFACE('',#275,1.6);
#238=CYLINDRICAL_SURFACE('',#278,1.6);
#239=ADVANCED_FACE('',(#30),#237,.F.);
#240=ADVANCED_FACE('',(#31),#238,.F.);
#241=ADVANCED_FACE('',(#32),#19,.T.);
#242=ADVANCED_FACE('',(#33),#20,.T.);
#243=ADVANCED_FACE('',(#34),#21,.F.);
#244=ADVANCED_FACE('',(#35),#22,.F.);
#245=ADVANCED_FACE('',(#36),#23,.F.);
#246=ADVANCED_FACE('',(#37,#15,#16),#24,.T.);
#247=ADVANCED_FACE('',(#38),#25,.T.);
#248=ADVANCED_FACE('',(#39),#26,.T.);
#249=ADVANCED_FACE('',(#40),#27,.T.);
#250=ADVANCED_FACE('',(#41),#28,.T.);
#251=ADVANCED_FACE('',(#42,#17,#18),#29,.F.);
#252=CLOSED_SHELL('',(#239,#240,#241,#242,#243,#244,#245,#246,#247,#248,
#249,#250,#251));
#253=DERIVED_UNIT_ELEMENT(#256,1.);
#254=DERIVED_UNIT_ELEMENT(#428,-3.);
#255=DIMENSIONAL_EXPONENTS(0.,1.,0.,0.,0.,0.,0.);
#256=(
CONVERSION_BASED_UNIT('gram',#258)
MASS_UNIT()
NAMED_UNIT(#255)
);
#257=(
MASS_UNIT()
NAMED_UNIT(*)
SI_UNIT(.KILO.,.GRAM.)
);
#258=MASS_MEASURE_WITH_UNIT(MASS_MEASURE(0.001),#257);
#259=DERIVED_UNIT((#253,#254));
#260=MEASURE_REPRESENTATION_ITEM('density measure',
POSITIVE_RATIO_MEASURE(2.7),#259);
#261=PROPERTY_DEFINITION_REPRESENTATION(#266,#263);
#262=PROPERTY_DEFINITION_REPRESENTATION(#267,#264);
#263=REPRESENTATION('material name',(#265),#425);
#264=REPRESENTATION('density',(#260),#425);
#265=DESCRIPTIVE_REPRESENTATION_ITEM('\X2\30A230EB30DF30CB30A630E0\X0\ 
6061','\X2\30A230EB30DF30CB30A630E0\X0\ 6061');
#266=PROPERTY_DEFINITION('material property','material name',#435);
#267=PROPERTY_DEFINITION('material property','density of part',#435);
#268=DATE_TIME_ROLE('creation_date');
#269=APPLIED_DATE_AND_TIME_ASSIGNMENT(#270,#268,(#435));
#270=DATE_AND_TIME(#271,#272);
#271=CALENDAR_DATE(2026,8,10);
#272=LOCAL_TIME(0,0,0.,#273);
#273=COORDINATED_UNIVERSAL_TIME_OFFSET(0,0,.BEHIND.);
#274=AXIS2_PLACEMENT_3D('',#356,#292,#293);
#275=AXIS2_PLACEMENT_3D('',#357,#294,#295);
#276=AXIS2_PLACEMENT_3D('',#359,#296,#297);
#277=AXIS2_PLACEMENT_3D('',#362,#299,#300);
#278=AXIS2_PLACEMENT_3D('',#363,#301,#302);
#279=AXIS2_PLACEMENT_3D('',#365,#303,#304);
#280=AXIS2_PLACEMENT_3D('',#368,#306,#307);
#281=AXIS2_PLACEMENT_3D('',#369,#308,#309);
#282=AXIS2_PLACEMENT_3D('',#378,#314,#315);
#283=AXIS2_PLACEMENT_3D('',#386,#320,#321);
#284=AXIS2_PLACEMENT_3D('',#388,#323,#324);
#285=AXIS2_PLACEMENT_3D('',#394,#328,#329);
#286=AXIS2_PLACEMENT_3D('',#396,#331,#332);
#287=AXIS2_PLACEMENT_3D('',#406,#338,#339);
#288=AXIS2_PLACEMENT_3D('',#412,#343,#344);
#289=AXIS2_PLACEMENT_3D('',#416,#347,#348);
#290=AXIS2_PLACEMENT_3D('',#420,#351,#352);
#291=AXIS2_PLACEMENT_3D('',#422,#354,#355);
#292=DIRECTION('axis',(0.,0.,1.));
#293=DIRECTION('refdir',(1.,0.,0.));
#294=DIRECTION('center_axis',(0.,0.,1.));
#295=DIRECTION('ref_axis',(-1.,0.,0.));
#296=DIRECTION('center_axis',(0.,0.,1.));
#297=DIRECTION('ref_axis',(-1.,0.,0.));
#298=DIRECTION('',(0.,0.,1.));
#299=DIRECTION('center_axis',(0.,0.,-1.));
#300=DIRECTION('ref_axis',(-1.,0.,0.));
#301=DIRECTION('center_axis',(0.,0.,1.));
#302=DIRECTION('ref_axis',(-1.,0.,0.));
#303=DIRECTION('center_axis',(0.,0.,1.));
#304=DIRECTION('ref_axis',(-1.,0.,0.));
#305=DIRECTION('',(0.,0.,1.));
#306=DIRECTION('center_axis',(0.,0.,-1.));
#307=DIRECTION('ref_axis',(-1.,0.,0.));
#308=DIRECTION('center_axis',(0.,1.,0.));
#309=DIRECTION('ref_axis',(0.,0.,1.));
#310=DIRECTION('',(1.,0.,0.));
#311=DIRECTION('',(0.,0.,1.));
#312=DIRECTION('',(1.,0.,0.));
#313=DIRECTION('',(0.,0.,1.));
#314=DIRECTION('center_axis',(0.,-0.0349785821756185,0.999388062160532));
#315=DIRECTION('ref_axis',(0.,-0.999388062160532,-0.0349785821756185));
#316=DIRECTION('',(0.,-0.999388062160532,-0.0349785821756185));
#317=DIRECTION('',(0.,0.999388062160532,0.0349785821756185));
#318=DIRECTION('',(-1.,0.,0.));
#319=DIRECTION('',(0.,-0.999388062160532,-0.0349785821756185));
#320=DIRECTION('center_axis',(1.,0.,0.));
#321=DIRECTION('ref_axis',(0.,0.,-1.));
#322=DIRECTION('',(0.,1.,0.));
#323=DIRECTION('center_axis',(0.,-1.,0.));
#324=DIRECTION('ref_axis',(1.,0.,0.));
#325=DIRECTION('',(0.,0.,1.));
#326=DIRECTION('',(-1.,0.,0.));
#327=DIRECTION('',(0.,0.,1.));
#328=DIRECTION('center_axis',(-1.,0.,0.));
#329=DIRECTION('ref_axis',(0.,-1.,0.));
#330=DIRECTION('',(0.,1.,0.));
#331=DIRECTION('center_axis',(0.,0.,1.));
#332=DIRECTION('ref_axis',(1.,0.,0.));
#333=DIRECTION('',(0.,1.,0.));
#334=DIRECTION('',(-1.,0.,0.));
#335=DIRECTION('',(0.,-1.,0.));
#336=DIRECTION('',(1.,0.,0.));
#337=DIRECTION('',(0.,1.,0.));
#338=DIRECTION('center_axis',(-1.,0.,0.));
#339=DIRECTION('ref_axis',(0.,-1.,0.));
#340=DIRECTION('',(0.,-1.,0.));
#341=DIRECTION('',(0.,0.,1.));
#342=DIRECTION('',(0.,0.,1.));
#343=DIRECTION('center_axis',(0.,1.,0.));
#344=DIRECTION('ref_axis',(-1.,0.,0.));
#345=DIRECTION('',(-1.,0.,0.));
#346=DIRECTION('',(0.,0.,1.));
#347=DIRECTION('center_axis',(1.,0.,0.));
#348=DIRECTION('ref_axis',(0.,1.,0.));
#349=DIRECTION('',(0.,0.,1.));
#350=DIRECTION('',(0.,1.,0.));
#351=DIRECTION('center_axis',(0.,-1.,0.));
#352=DIRECTION('ref_axis',(1.,0.,0.));
#353=DIRECTION('',(1.,0.,0.));
#354=DIRECTION('center_axis',(0.,0.,1.));
#355=DIRECTION('ref_axis',(1.,0.,0.));
#356=CARTESIAN_POINT('',(0.,0.,0.));
#357=CARTESIAN_POINT('Origin',(60.,10.,41.35));
#358=CARTESIAN_POINT('',(61.6,10.,41.35));
#359=CARTESIAN_POINT('Origin',(60.,10.,41.35));
#360=CARTESIAN_POINT('',(61.6,10.,43.));
#361=CARTESIAN_POINT('',(61.6,10.,41.35));
#362=CARTESIAN_POINT('Origin',(60.,10.,43.));
#363=CARTESIAN_POINT('Origin',(60.,-10.,41.35));
#364=CARTESIAN_POINT('',(61.6,-10.,41.35));
#365=CARTESIAN_POINT('Origin',(60.,-10.,41.35));
#366=CARTESIAN_POINT('',(61.6,-10.,43.));
#367=CARTESIAN_POINT('',(61.6,-10.,41.35));
#368=CARTESIAN_POINT('Origin',(60.,-10.,43.));
#369=CARTESIAN_POINT('Origin',(55.,6.,41.35));
#370=CARTESIAN_POINT('',(55.,6.,43.));
#371=CARTESIAN_POINT('',(65.,6.,43.));
#372=CARTESIAN_POINT('',(60.,6.,43.));
#373=CARTESIAN_POINT('',(55.,6.,43.21));
#374=CARTESIAN_POINT('',(55.,6.,41.35));
#375=CARTESIAN_POINT('',(65.,6.,43.21));
#376=CARTESIAN_POINT('',(55.,6.,43.21));
#377=CARTESIAN_POINT('',(65.,6.,41.35));
#378=CARTESIAN_POINT('Origin',(55.,6.,43.21));
#379=CARTESIAN_POINT('',(55.,2.54796184151473E-13,43.));
#380=CARTESIAN_POINT('',(55.,6.,43.21));
#381=CARTESIAN_POINT('',(55.,-6.,42.79));
#382=CARTESIAN_POINT('',(55.,5.9648680366551,43.2087703812829));
#383=CARTESIAN_POINT('',(65.,-6.,42.79));
#384=CARTESIAN_POINT('',(55.,-6.,42.79));
#385=CARTESIAN_POINT('',(65.,6.,43.21));
#386=CARTESIAN_POINT('Origin',(55.,0.092282854528022,42.17683693761));
#387=CARTESIAN_POINT('',(55.,3.,43.));
#388=CARTESIAN_POINT('Origin',(55.,-6.,41.2));
#389=CARTESIAN_POINT('',(55.,-6.,43.));
#390=CARTESIAN_POINT('',(55.,-6.,41.2));
#391=CARTESIAN_POINT('',(65.,-6.,43.));
#392=CARTESIAN_POINT('',(55.,-6.,43.));
#393=CARTESIAN_POINT('',(65.,-6.,41.275));
#394=CARTESIAN_POINT('Origin',(55.,6.,41.2));
#395=CARTESIAN_POINT('',(55.,3.,43.));
#396=CARTESIAN_POINT('Origin',(55.,0.,43.));
#397=CARTESIAN_POINT('',(65.,14.,43.));
#398=CARTESIAN_POINT('',(65.,-14.,43.));
#399=CARTESIAN_POINT('',(45.,14.,43.));
#400=CARTESIAN_POINT('',(65.,14.,43.));
#401=CARTESIAN_POINT('',(45.,-14.,43.));
#402=CARTESIAN_POINT('',(45.,14.,43.));
#403=CARTESIAN_POINT('',(65.,-14.,43.));
#404=CARTESIAN_POINT('',(45.,-14.,43.));
#405=CARTESIAN_POINT('',(65.,-14.,43.));
#406=CARTESIAN_POINT('Origin',(45.,14.,41.35));
#407=CARTESIAN_POINT('',(45.,14.,41.35));
#408=CARTESIAN_POINT('',(45.,-14.,41.35));
#409=CARTESIAN_POINT('',(45.,14.,41.35));
#410=CARTESIAN_POINT('',(45.,-14.,41.35));
#411=CARTESIAN_POINT('',(45.,14.,41.35));
#412=CARTESIAN_POINT('Origin',(65.,14.,41.35));
#413=CARTESIAN_POINT('',(65.,14.,41.35));
#414=CARTESIAN_POINT('',(65.,14.,41.35));
#415=CARTESIAN_POINT('',(65.,14.,41.35));
#416=CARTESIAN_POINT('Origin',(65.,-14.,41.35));
#417=CARTESIAN_POINT('',(65.,-14.,41.35));
#418=CARTESIAN_POINT('',(65.,-14.,41.35));
#419=CARTESIAN_POINT('',(65.,-14.,41.35));
#420=CARTESIAN_POINT('Origin',(45.,-14.,41.35));
#421=CARTESIAN_POINT('',(45.,-14.,41.35));
#422=CARTESIAN_POINT('Origin',(55.,0.,41.35));
#423=UNCERTAINTY_MEASURE_WITH_UNIT(LENGTH_MEASURE(0.01),#427,
'DISTANCE_ACCURACY_VALUE',
'Maximum model space distance between geometric entities at asserted c
onnectivities');
#424=UNCERTAINTY_MEASURE_WITH_UNIT(LENGTH_MEASURE(0.01),#427,
'DISTANCE_ACCURACY_VALUE',
'Maximum model space distance between geometric entities at asserted c
onnectivities');
#425=(
GEOMETRIC_REPRESENTATION_CONTEXT(3)
GLOBAL_UNCERTAINTY_ASSIGNED_CONTEXT((#423))
GLOBAL_UNIT_ASSIGNED_CONTEXT((#427,#429,#430))
REPRESENTATION_CONTEXT('','3D')
);
#426=(
GEOMETRIC_REPRESENTATION_CONTEXT(3)
GLOBAL_UNCERTAINTY_ASSIGNED_CONTEXT((#424))
GLOBAL_UNIT_ASSIGNED_CONTEXT((#427,#429,#430))
REPRESENTATION_CONTEXT('','3D')
);
#427=(
LENGTH_UNIT()
NAMED_UNIT(*)
SI_UNIT(.MILLI.,.METRE.)
);
#428=(
LENGTH_UNIT()
NAMED_UNIT(*)
SI_UNIT(.CENTI.,.METRE.)
);
#429=(
NAMED_UNIT(*)
PLANE_ANGLE_UNIT()
SI_UNIT($,.RADIAN.)
);
#430=(
NAMED_UNIT(*)
SI_UNIT($,.STERADIAN.)
SOLID_ANGLE_UNIT()
);
#431=SHAPE_DEFINITION_REPRESENTATION(#432,#433);
#432=PRODUCT_DEFINITION_SHAPE('',$,#435);
#433=SHAPE_REPRESENTATION('',(#274),#425);
#434=PRODUCT_DEFINITION_CONTEXT('part definition',#439,'design');
#435=PRODUCT_DEFINITION('24B_Upper_Pad_Carrier','24B_Upper_Pad_Carrier',
#436,#434);
#436=PRODUCT_DEFINITION_FORMATION('',$,#441);
#437=PRODUCT_RELATED_PRODUCT_CATEGORY('24B_Upper_Pad_Carrier',
'24B_Upper_Pad_Carrier',(#441));
#438=APPLICATION_PROTOCOL_DEFINITION('international standard',
'automotive_design',2009,#439);
#439=APPLICATION_CONTEXT(
'Core Data for Automotive Mechanical Design Process');
#440=PRODUCT_CONTEXT('part definition',#439,'mechanical');
#441=PRODUCT('24B_Upper_Pad_Carrier','24B_Upper_Pad_Carrier',$,(#440));
#442=PRESENTATION_STYLE_ASSIGNMENT((#443));
#443=SURFACE_STYLE_USAGE(.BOTH.,#446);
#444=SURFACE_STYLE_RENDERING_WITH_PROPERTIES($,#450,(#445));
#445=SURFACE_STYLE_TRANSPARENT(0.);
#446=SURFACE_SIDE_STYLE('',(#447,#444));
#447=SURFACE_STYLE_FILL_AREA(#448);
#448=FILL_AREA_STYLE('',(#449));
#449=FILL_AREA_STYLE_COLOUR('',#450);
#450=COLOUR_RGB('',0.996078431372549,0.996078431372549,1.);
ENDSEC;
END-ISO-10303-21;
