ISO-10303-21;
HEADER;
/* Generated by software containing ST-Developer
 * from STEP Tools, Inc. (www.steptools.com) 
 */

FILE_DESCRIPTION(
/* description */ (''),
/* implementation_level */ '2;1');

FILE_NAME(
/* name */ '30_Dual_Wedge_Slider.step',
/* time_stamp */ '2026-10-08T19:41:11+09:00',
/* author */ ('Reaction Wheel Pendulum project'),
/* organization */ (''),
/* preprocessor_version */ 'ST-DEVELOPER v20.1',
/* originating_system */ 'Autodesk Inventor 2026',
/* authorisation */ '');

FILE_SCHEMA (('AUTOMOTIVE_DESIGN { 1 0 10303 214 3 1 1 }'));
ENDSEC;

DATA;
#10=MECHANICAL_DESIGN_GEOMETRIC_PRESENTATION_REPRESENTATION('',(#13),#1032);
#11=SHAPE_REPRESENTATION_RELATIONSHIP('SRR','None',#1039,#12);
#12=ADVANCED_BREP_SHAPE_REPRESENTATION('',(#14),#1031);
#13=STYLED_ITEM('',(#1048),#14);
#14=MANIFOLD_SOLID_BREP('\X2\30BD30EA30C330C9\X0\1',#641);
#15=FACE_OUTER_BOUND('',#47,.T.);
#16=FACE_OUTER_BOUND('',#48,.T.);
#17=FACE_OUTER_BOUND('',#49,.T.);
#18=FACE_OUTER_BOUND('',#50,.T.);
#19=FACE_OUTER_BOUND('',#51,.T.);
#20=FACE_OUTER_BOUND('',#52,.T.);
#21=FACE_OUTER_BOUND('',#53,.T.);
#22=FACE_OUTER_BOUND('',#54,.T.);
#23=FACE_OUTER_BOUND('',#55,.T.);
#24=FACE_OUTER_BOUND('',#56,.T.);
#25=FACE_OUTER_BOUND('',#57,.T.);
#26=FACE_OUTER_BOUND('',#58,.T.);
#27=FACE_OUTER_BOUND('',#59,.T.);
#28=FACE_OUTER_BOUND('',#60,.T.);
#29=FACE_OUTER_BOUND('',#61,.T.);
#30=FACE_OUTER_BOUND('',#62,.T.);
#31=FACE_OUTER_BOUND('',#63,.T.);
#32=FACE_OUTER_BOUND('',#64,.T.);
#33=FACE_OUTER_BOUND('',#65,.T.);
#34=FACE_OUTER_BOUND('',#66,.T.);
#35=FACE_OUTER_BOUND('',#67,.T.);
#36=FACE_OUTER_BOUND('',#68,.T.);
#37=FACE_OUTER_BOUND('',#69,.T.);
#38=FACE_OUTER_BOUND('',#70,.T.);
#39=FACE_OUTER_BOUND('',#71,.T.);
#40=FACE_OUTER_BOUND('',#72,.T.);
#41=FACE_OUTER_BOUND('',#73,.T.);
#42=FACE_OUTER_BOUND('',#74,.T.);
#43=FACE_OUTER_BOUND('',#75,.T.);
#44=FACE_OUTER_BOUND('',#76,.T.);
#45=FACE_OUTER_BOUND('',#77,.T.);
#46=FACE_OUTER_BOUND('',#78,.T.);
#47=EDGE_LOOP('',(#401,#402,#403,#404));
#48=EDGE_LOOP('',(#405,#406,#407,#408));
#49=EDGE_LOOP('',(#409,#410,#411,#412));
#50=EDGE_LOOP('',(#413,#414,#415,#416,#417,#418,#419,#420));
#51=EDGE_LOOP('',(#421,#422,#423,#424,#425,#426));
#52=EDGE_LOOP('',(#427,#428,#429,#430));
#53=EDGE_LOOP('',(#431,#432,#433,#434));
#54=EDGE_LOOP('',(#435,#436,#437,#438));
#55=EDGE_LOOP('',(#439,#440,#441,#442));
#56=EDGE_LOOP('',(#443,#444,#445,#446));
#57=EDGE_LOOP('',(#447,#448,#449,#450));
#58=EDGE_LOOP('',(#451,#452,#453,#454,#455,#456,#457,#458));
#59=EDGE_LOOP('',(#459,#460,#461,#462));
#60=EDGE_LOOP('',(#463,#464,#465,#466));
#61=EDGE_LOOP('',(#467,#468,#469,#470,#471,#472,#473,#474,#475,#476,#477,
#478));
#62=EDGE_LOOP('',(#479,#480,#481,#482));
#63=EDGE_LOOP('',(#483,#484,#485,#486,#487,#488));
#64=EDGE_LOOP('',(#489,#490,#491,#492,#493));
#65=EDGE_LOOP('',(#494,#495,#496,#497));
#66=EDGE_LOOP('',(#498,#499,#500,#501));
#67=EDGE_LOOP('',(#502,#503,#504,#505,#506));
#68=EDGE_LOOP('',(#507,#508,#509,#510,#511,#512,#513,#514));
#69=EDGE_LOOP('',(#515,#516,#517,#518,#519,#520,#521,#522,#523,#524,#525,
#526));
#70=EDGE_LOOP('',(#527,#528,#529,#530,#531));
#71=EDGE_LOOP('',(#532,#533,#534,#535,#536,#537));
#72=EDGE_LOOP('',(#538,#539,#540,#541));
#73=EDGE_LOOP('',(#542,#543,#544,#545,#546,#547,#548,#549));
#74=EDGE_LOOP('',(#550,#551,#552,#553,#554,#555));
#75=EDGE_LOOP('',(#556,#557,#558,#559,#560,#561,#562,#563));
#76=EDGE_LOOP('',(#564,#565,#566,#567));
#77=EDGE_LOOP('',(#568,#569,#570,#571,#572));
#78=EDGE_LOOP('',(#573,#574,#575,#576));
#79=LINE('',#854,#167);
#80=LINE('',#856,#168);
#81=LINE('',#858,#169);
#82=LINE('',#859,#170);
#83=LINE('',#863,#171);
#84=LINE('',#864,#172);
#85=LINE('',#865,#173);
#86=LINE('',#869,#174);
#87=LINE('',#870,#175);
#88=LINE('',#871,#176);
#89=LINE('',#875,#177);
#90=LINE('',#877,#178);
#91=LINE('',#879,#179);
#92=LINE('',#881,#180);
#93=LINE('',#883,#181);
#94=LINE('',#885,#182);
#95=LINE('',#887,#183);
#96=LINE('',#888,#184);
#97=LINE('',#891,#185);
#98=LINE('',#893,#186);
#99=LINE('',#895,#187);
#100=LINE('',#897,#188);
#101=LINE('',#898,#189);
#102=LINE('',#902,#190);
#103=LINE('',#904,#191);
#104=LINE('',#906,#192);
#105=LINE('',#907,#193);
#106=LINE('',#911,#194);
#107=LINE('',#913,#195);
#108=LINE('',#915,#196);
#109=LINE('',#916,#197);
#110=LINE('',#920,#198);
#111=LINE('',#922,#199);
#112=LINE('',#924,#200);
#113=LINE('',#925,#201);
#114=LINE('',#927,#202);
#115=LINE('',#928,#203);
#116=LINE('',#932,#204);
#117=LINE('',#934,#205);
#118=LINE('',#936,#206);
#119=LINE('',#937,#207);
#120=LINE('',#939,#208);
#121=LINE('',#940,#209);
#122=LINE('',#943,#210);
#123=LINE('',#945,#211);
#124=LINE('',#947,#212);
#125=LINE('',#949,#213);
#126=LINE('',#950,#214);
#127=LINE('',#953,#215);
#128=LINE('',#954,#216);
#129=LINE('',#957,#217);
#130=LINE('',#958,#218);
#131=LINE('',#961,#219);
#132=LINE('',#963,#220);
#133=LINE('',#964,#221);
#134=LINE('',#965,#222);
#135=LINE('',#967,#223);
#136=LINE('',#969,#224);
#137=LINE('',#970,#225);
#138=LINE('',#973,#226);
#139=LINE('',#974,#227);
#140=LINE('',#977,#228);
#141=LINE('',#978,#229);
#142=LINE('',#980,#230);
#143=LINE('',#981,#231);
#144=LINE('',#984,#232);
#145=LINE('',#985,#233);
#146=LINE('',#987,#234);
#147=LINE('',#990,#235);
#148=LINE('',#992,#236);
#149=LINE('',#993,#237);
#150=LINE('',#996,#238);
#151=LINE('',#997,#239);
#152=LINE('',#999,#240);
#153=LINE('',#1000,#241);
#154=LINE('',#1003,#242);
#155=LINE('',#1004,#243);
#156=LINE('',#1007,#244);
#157=LINE('',#1008,#245);
#158=LINE('',#1010,#246);
#159=LINE('',#1012,#247);
#160=LINE('',#1016,#248);
#161=LINE('',#1018,#249);
#162=LINE('',#1019,#250);
#163=LINE('',#1022,#251);
#164=LINE('',#1023,#252);
#165=LINE('',#1024,#253);
#166=LINE('',#1026,#254);
#167=VECTOR('',#700,10.);
#168=VECTOR('',#701,10.);
#169=VECTOR('',#702,10.);
#170=VECTOR('',#703,10.);
#171=VECTOR('',#706,10.);
#172=VECTOR('',#707,10.);
#173=VECTOR('',#708,10.);
#174=VECTOR('',#711,10.);
#175=VECTOR('',#712,10.);
#176=VECTOR('',#713,10.);
#177=VECTOR('',#716,10.);
#178=VECTOR('',#717,10.);
#179=VECTOR('',#718,10.);
#180=VECTOR('',#719,10.);
#181=VECTOR('',#720,10.);
#182=VECTOR('',#721,10.);
#183=VECTOR('',#722,10.);
#184=VECTOR('',#723,10.);
#185=VECTOR('',#726,10.);
#186=VECTOR('',#727,10.);
#187=VECTOR('',#728,10.);
#188=VECTOR('',#729,10.);
#189=VECTOR('',#730,10.);
#190=VECTOR('',#733,10.);
#191=VECTOR('',#734,10.);
#192=VECTOR('',#735,10.);
#193=VECTOR('',#736,10.);
#194=VECTOR('',#739,10.);
#195=VECTOR('',#740,10.);
#196=VECTOR('',#741,10.);
#197=VECTOR('',#742,10.);
#198=VECTOR('',#745,10.);
#199=VECTOR('',#746,10.);
#200=VECTOR('',#747,10.);
#201=VECTOR('',#748,10.);
#202=VECTOR('',#751,10.);
#203=VECTOR('',#752,10.);
#204=VECTOR('',#755,10.);
#205=VECTOR('',#756,10.);
#206=VECTOR('',#757,10.);
#207=VECTOR('',#758,10.);
#208=VECTOR('',#761,10.);
#209=VECTOR('',#762,10.);
#210=VECTOR('',#765,10.);
#211=VECTOR('',#766,10.);
#212=VECTOR('',#767,10.);
#213=VECTOR('',#768,10.);
#214=VECTOR('',#769,10.);
#215=VECTOR('',#772,10.);
#216=VECTOR('',#773,10.);
#217=VECTOR('',#776,10.);
#218=VECTOR('',#777,10.);
#219=VECTOR('',#780,10.);
#220=VECTOR('',#781,10.);
#221=VECTOR('',#782,10.);
#222=VECTOR('',#783,10.);
#223=VECTOR('',#784,10.);
#224=VECTOR('',#785,10.);
#225=VECTOR('',#786,10.);
#226=VECTOR('',#789,10.);
#227=VECTOR('',#790,10.);
#228=VECTOR('',#793,10.);
#229=VECTOR('',#794,10.);
#230=VECTOR('',#795,10.);
#231=VECTOR('',#796,10.);
#232=VECTOR('',#799,10.);
#233=VECTOR('',#800,10.);
#234=VECTOR('',#803,10.);
#235=VECTOR('',#806,10.);
#236=VECTOR('',#807,10.);
#237=VECTOR('',#808,10.);
#238=VECTOR('',#811,10.);
#239=VECTOR('',#812,10.);
#240=VECTOR('',#815,10.);
#241=VECTOR('',#816,10.);
#242=VECTOR('',#819,10.);
#243=VECTOR('',#820,10.);
#244=VECTOR('',#823,10.);
#245=VECTOR('',#824,10.);
#246=VECTOR('',#827,10.);
#247=VECTOR('',#830,10.);
#248=VECTOR('',#835,10.);
#249=VECTOR('',#836,10.);
#250=VECTOR('',#837,10.);
#251=VECTOR('',#840,10.);
#252=VECTOR('',#841,10.);
#253=VECTOR('',#842,10.);
#254=VECTOR('',#845,10.);
#255=VERTEX_POINT('',#852);
#256=VERTEX_POINT('',#853);
#257=VERTEX_POINT('',#855);
#258=VERTEX_POINT('',#857);
#259=VERTEX_POINT('',#861);
#260=VERTEX_POINT('',#862);
#261=VERTEX_POINT('',#867);
#262=VERTEX_POINT('',#868);
#263=VERTEX_POINT('',#873);
#264=VERTEX_POINT('',#874);
#265=VERTEX_POINT('',#876);
#266=VERTEX_POINT('',#878);
#267=VERTEX_POINT('',#880);
#268=VERTEX_POINT('',#882);
#269=VERTEX_POINT('',#884);
#270=VERTEX_POINT('',#886);
#271=VERTEX_POINT('',#890);
#272=VERTEX_POINT('',#892);
#273=VERTEX_POINT('',#894);
#274=VERTEX_POINT('',#896);
#275=VERTEX_POINT('',#900);
#276=VERTEX_POINT('',#901);
#277=VERTEX_POINT('',#903);
#278=VERTEX_POINT('',#905);
#279=VERTEX_POINT('',#909);
#280=VERTEX_POINT('',#910);
#281=VERTEX_POINT('',#912);
#282=VERTEX_POINT('',#914);
#283=VERTEX_POINT('',#918);
#284=VERTEX_POINT('',#919);
#285=VERTEX_POINT('',#921);
#286=VERTEX_POINT('',#923);
#287=VERTEX_POINT('',#930);
#288=VERTEX_POINT('',#931);
#289=VERTEX_POINT('',#933);
#290=VERTEX_POINT('',#935);
#291=VERTEX_POINT('',#942);
#292=VERTEX_POINT('',#944);
#293=VERTEX_POINT('',#946);
#294=VERTEX_POINT('',#948);
#295=VERTEX_POINT('',#952);
#296=VERTEX_POINT('',#956);
#297=VERTEX_POINT('',#960);
#298=VERTEX_POINT('',#962);
#299=VERTEX_POINT('',#966);
#300=VERTEX_POINT('',#968);
#301=VERTEX_POINT('',#972);
#302=VERTEX_POINT('',#976);
#303=VERTEX_POINT('',#979);
#304=VERTEX_POINT('',#983);
#305=VERTEX_POINT('',#989);
#306=VERTEX_POINT('',#991);
#307=VERTEX_POINT('',#995);
#308=VERTEX_POINT('',#1002);
#309=VERTEX_POINT('',#1006);
#310=VERTEX_POINT('',#1015);
#311=VERTEX_POINT('',#1017);
#312=VERTEX_POINT('',#1021);
#313=EDGE_CURVE('',#255,#256,#79,.T.);
#314=EDGE_CURVE('',#255,#257,#80,.T.);
#315=EDGE_CURVE('',#257,#258,#81,.T.);
#316=EDGE_CURVE('',#258,#256,#82,.T.);
#317=EDGE_CURVE('',#259,#260,#83,.T.);
#318=EDGE_CURVE('',#260,#258,#84,.T.);
#319=EDGE_CURVE('',#259,#257,#85,.T.);
#320=EDGE_CURVE('',#261,#262,#86,.T.);
#321=EDGE_CURVE('',#260,#261,#87,.T.);
#322=EDGE_CURVE('',#262,#259,#88,.T.);
#323=EDGE_CURVE('',#263,#264,#89,.T.);
#324=EDGE_CURVE('',#265,#263,#90,.T.);
#325=EDGE_CURVE('',#266,#265,#91,.T.);
#326=EDGE_CURVE('',#266,#267,#92,.T.);
#327=EDGE_CURVE('',#267,#268,#93,.T.);
#328=EDGE_CURVE('',#269,#268,#94,.T.);
#329=EDGE_CURVE('',#270,#269,#95,.T.);
#330=EDGE_CURVE('',#270,#264,#96,.T.);
#331=EDGE_CURVE('',#271,#262,#97,.T.);
#332=EDGE_CURVE('',#271,#272,#98,.T.);
#333=EDGE_CURVE('',#272,#273,#99,.T.);
#334=EDGE_CURVE('',#274,#273,#100,.T.);
#335=EDGE_CURVE('',#274,#261,#101,.T.);
#336=EDGE_CURVE('',#275,#276,#102,.T.);
#337=EDGE_CURVE('',#277,#275,#103,.T.);
#338=EDGE_CURVE('',#278,#277,#104,.T.);
#339=EDGE_CURVE('',#276,#278,#105,.T.);
#340=EDGE_CURVE('',#279,#280,#106,.T.);
#341=EDGE_CURVE('',#281,#279,#107,.T.);
#342=EDGE_CURVE('',#282,#281,#108,.T.);
#343=EDGE_CURVE('',#280,#282,#109,.T.);
#344=EDGE_CURVE('',#283,#284,#110,.T.);
#345=EDGE_CURVE('',#283,#285,#111,.T.);
#346=EDGE_CURVE('',#286,#285,#112,.T.);
#347=EDGE_CURVE('',#284,#286,#113,.T.);
#348=EDGE_CURVE('',#276,#283,#114,.T.);
#349=EDGE_CURVE('',#285,#278,#115,.T.);
#350=EDGE_CURVE('',#287,#288,#116,.T.);
#351=EDGE_CURVE('',#289,#287,#117,.T.);
#352=EDGE_CURVE('',#290,#289,#118,.T.);
#353=EDGE_CURVE('',#290,#288,#119,.T.);
#354=EDGE_CURVE('',#288,#279,#120,.T.);
#355=EDGE_CURVE('',#281,#290,#121,.T.);
#356=EDGE_CURVE('',#289,#291,#122,.T.);
#357=EDGE_CURVE('',#292,#291,#123,.T.);
#358=EDGE_CURVE('',#293,#292,#124,.T.);
#359=EDGE_CURVE('',#293,#294,#125,.T.);
#360=EDGE_CURVE('',#294,#282,#126,.T.);
#361=EDGE_CURVE('',#287,#295,#127,.T.);
#362=EDGE_CURVE('',#291,#295,#128,.T.);
#363=EDGE_CURVE('',#294,#296,#129,.T.);
#364=EDGE_CURVE('',#296,#280,#130,.T.);
#365=EDGE_CURVE('',#284,#297,#131,.T.);
#366=EDGE_CURVE('',#298,#297,#132,.T.);
#367=EDGE_CURVE('',#272,#298,#133,.T.);
#368=EDGE_CURVE('',#267,#271,#134,.T.);
#369=EDGE_CURVE('',#299,#266,#135,.T.);
#370=EDGE_CURVE('',#299,#300,#136,.T.);
#371=EDGE_CURVE('',#300,#275,#137,.T.);
#372=EDGE_CURVE('',#286,#301,#138,.T.);
#373=EDGE_CURVE('',#297,#301,#139,.T.);
#374=EDGE_CURVE('',#302,#269,#140,.T.);
#375=EDGE_CURVE('',#302,#293,#141,.T.);
#376=EDGE_CURVE('',#303,#292,#142,.T.);
#377=EDGE_CURVE('',#303,#270,#143,.T.);
#378=EDGE_CURVE('',#295,#304,#144,.T.);
#379=EDGE_CURVE('',#303,#304,#145,.T.);
#380=EDGE_CURVE('',#296,#302,#146,.T.);
#381=EDGE_CURVE('',#305,#304,#147,.T.);
#382=EDGE_CURVE('',#306,#305,#148,.T.);
#383=EDGE_CURVE('',#306,#303,#149,.T.);
#384=EDGE_CURVE('',#264,#307,#150,.T.);
#385=EDGE_CURVE('',#307,#306,#151,.T.);
#386=EDGE_CURVE('',#256,#307,#152,.T.);
#387=EDGE_CURVE('',#263,#274,#153,.T.);
#388=EDGE_CURVE('',#268,#308,#154,.T.);
#389=EDGE_CURVE('',#308,#305,#155,.T.);
#390=EDGE_CURVE('',#273,#309,#156,.T.);
#391=EDGE_CURVE('',#265,#309,#157,.T.);
#392=EDGE_CURVE('',#255,#308,#158,.T.);
#393=EDGE_CURVE('',#309,#298,#159,.T.);
#394=EDGE_CURVE('',#310,#309,#160,.T.);
#395=EDGE_CURVE('',#311,#310,#161,.T.);
#396=EDGE_CURVE('',#311,#299,#162,.T.);
#397=EDGE_CURVE('',#312,#277,#163,.T.);
#398=EDGE_CURVE('',#312,#311,#164,.T.);
#399=EDGE_CURVE('',#301,#310,#165,.T.);
#400=EDGE_CURVE('',#300,#312,#166,.T.);
#401=ORIENTED_EDGE('',*,*,#313,.F.);
#402=ORIENTED_EDGE('',*,*,#314,.T.);
#403=ORIENTED_EDGE('',*,*,#315,.T.);
#404=ORIENTED_EDGE('',*,*,#316,.T.);
#405=ORIENTED_EDGE('',*,*,#317,.T.);
#406=ORIENTED_EDGE('',*,*,#318,.T.);
#407=ORIENTED_EDGE('',*,*,#315,.F.);
#408=ORIENTED_EDGE('',*,*,#319,.F.);
#409=ORIENTED_EDGE('',*,*,#320,.F.);
#410=ORIENTED_EDGE('',*,*,#321,.F.);
#411=ORIENTED_EDGE('',*,*,#317,.F.);
#412=ORIENTED_EDGE('',*,*,#322,.F.);
#413=ORIENTED_EDGE('',*,*,#323,.F.);
#414=ORIENTED_EDGE('',*,*,#324,.F.);
#415=ORIENTED_EDGE('',*,*,#325,.F.);
#416=ORIENTED_EDGE('',*,*,#326,.T.);
#417=ORIENTED_EDGE('',*,*,#327,.T.);
#418=ORIENTED_EDGE('',*,*,#328,.F.);
#419=ORIENTED_EDGE('',*,*,#329,.F.);
#420=ORIENTED_EDGE('',*,*,#330,.T.);
#421=ORIENTED_EDGE('',*,*,#320,.T.);
#422=ORIENTED_EDGE('',*,*,#331,.F.);
#423=ORIENTED_EDGE('',*,*,#332,.T.);
#424=ORIENTED_EDGE('',*,*,#333,.T.);
#425=ORIENTED_EDGE('',*,*,#334,.F.);
#426=ORIENTED_EDGE('',*,*,#335,.T.);
#427=ORIENTED_EDGE('',*,*,#336,.F.);
#428=ORIENTED_EDGE('',*,*,#337,.F.);
#429=ORIENTED_EDGE('',*,*,#338,.F.);
#430=ORIENTED_EDGE('',*,*,#339,.F.);
#431=ORIENTED_EDGE('',*,*,#340,.F.);
#432=ORIENTED_EDGE('',*,*,#341,.F.);
#433=ORIENTED_EDGE('',*,*,#342,.F.);
#434=ORIENTED_EDGE('',*,*,#343,.F.);
#435=ORIENTED_EDGE('',*,*,#344,.F.);
#436=ORIENTED_EDGE('',*,*,#345,.T.);
#437=ORIENTED_EDGE('',*,*,#346,.F.);
#438=ORIENTED_EDGE('',*,*,#347,.F.);
#439=ORIENTED_EDGE('',*,*,#348,.F.);
#440=ORIENTED_EDGE('',*,*,#339,.T.);
#441=ORIENTED_EDGE('',*,*,#349,.F.);
#442=ORIENTED_EDGE('',*,*,#345,.F.);
#443=ORIENTED_EDGE('',*,*,#350,.F.);
#444=ORIENTED_EDGE('',*,*,#351,.F.);
#445=ORIENTED_EDGE('',*,*,#352,.F.);
#446=ORIENTED_EDGE('',*,*,#353,.T.);
#447=ORIENTED_EDGE('',*,*,#354,.F.);
#448=ORIENTED_EDGE('',*,*,#353,.F.);
#449=ORIENTED_EDGE('',*,*,#355,.F.);
#450=ORIENTED_EDGE('',*,*,#341,.T.);
#451=ORIENTED_EDGE('',*,*,#342,.T.);
#452=ORIENTED_EDGE('',*,*,#355,.T.);
#453=ORIENTED_EDGE('',*,*,#352,.T.);
#454=ORIENTED_EDGE('',*,*,#356,.T.);
#455=ORIENTED_EDGE('',*,*,#357,.F.);
#456=ORIENTED_EDGE('',*,*,#358,.F.);
#457=ORIENTED_EDGE('',*,*,#359,.T.);
#458=ORIENTED_EDGE('',*,*,#360,.T.);
#459=ORIENTED_EDGE('',*,*,#351,.T.);
#460=ORIENTED_EDGE('',*,*,#361,.T.);
#461=ORIENTED_EDGE('',*,*,#362,.F.);
#462=ORIENTED_EDGE('',*,*,#356,.F.);
#463=ORIENTED_EDGE('',*,*,#343,.T.);
#464=ORIENTED_EDGE('',*,*,#360,.F.);
#465=ORIENTED_EDGE('',*,*,#363,.T.);
#466=ORIENTED_EDGE('',*,*,#364,.T.);
#467=ORIENTED_EDGE('',*,*,#336,.T.);
#468=ORIENTED_EDGE('',*,*,#348,.T.);
#469=ORIENTED_EDGE('',*,*,#344,.T.);
#470=ORIENTED_EDGE('',*,*,#365,.T.);
#471=ORIENTED_EDGE('',*,*,#366,.F.);
#472=ORIENTED_EDGE('',*,*,#367,.F.);
#473=ORIENTED_EDGE('',*,*,#332,.F.);
#474=ORIENTED_EDGE('',*,*,#368,.F.);
#475=ORIENTED_EDGE('',*,*,#326,.F.);
#476=ORIENTED_EDGE('',*,*,#369,.F.);
#477=ORIENTED_EDGE('',*,*,#370,.T.);
#478=ORIENTED_EDGE('',*,*,#371,.T.);
#479=ORIENTED_EDGE('',*,*,#347,.T.);
#480=ORIENTED_EDGE('',*,*,#372,.T.);
#481=ORIENTED_EDGE('',*,*,#373,.F.);
#482=ORIENTED_EDGE('',*,*,#365,.F.);
#483=ORIENTED_EDGE('',*,*,#329,.T.);
#484=ORIENTED_EDGE('',*,*,#374,.F.);
#485=ORIENTED_EDGE('',*,*,#375,.T.);
#486=ORIENTED_EDGE('',*,*,#358,.T.);
#487=ORIENTED_EDGE('',*,*,#376,.F.);
#488=ORIENTED_EDGE('',*,*,#377,.T.);
#489=ORIENTED_EDGE('',*,*,#357,.T.);
#490=ORIENTED_EDGE('',*,*,#362,.T.);
#491=ORIENTED_EDGE('',*,*,#378,.T.);
#492=ORIENTED_EDGE('',*,*,#379,.F.);
#493=ORIENTED_EDGE('',*,*,#376,.T.);
#494=ORIENTED_EDGE('',*,*,#359,.F.);
#495=ORIENTED_EDGE('',*,*,#375,.F.);
#496=ORIENTED_EDGE('',*,*,#380,.F.);
#497=ORIENTED_EDGE('',*,*,#363,.F.);
#498=ORIENTED_EDGE('',*,*,#379,.T.);
#499=ORIENTED_EDGE('',*,*,#381,.F.);
#500=ORIENTED_EDGE('',*,*,#382,.F.);
#501=ORIENTED_EDGE('',*,*,#383,.T.);
#502=ORIENTED_EDGE('',*,*,#384,.F.);
#503=ORIENTED_EDGE('',*,*,#330,.F.);
#504=ORIENTED_EDGE('',*,*,#377,.F.);
#505=ORIENTED_EDGE('',*,*,#383,.F.);
#506=ORIENTED_EDGE('',*,*,#385,.F.);
#507=ORIENTED_EDGE('',*,*,#323,.T.);
#508=ORIENTED_EDGE('',*,*,#384,.T.);
#509=ORIENTED_EDGE('',*,*,#386,.F.);
#510=ORIENTED_EDGE('',*,*,#316,.F.);
#511=ORIENTED_EDGE('',*,*,#318,.F.);
#512=ORIENTED_EDGE('',*,*,#321,.T.);
#513=ORIENTED_EDGE('',*,*,#335,.F.);
#514=ORIENTED_EDGE('',*,*,#387,.F.);
#515=ORIENTED_EDGE('',*,*,#340,.T.);
#516=ORIENTED_EDGE('',*,*,#364,.F.);
#517=ORIENTED_EDGE('',*,*,#380,.T.);
#518=ORIENTED_EDGE('',*,*,#374,.T.);
#519=ORIENTED_EDGE('',*,*,#328,.T.);
#520=ORIENTED_EDGE('',*,*,#388,.T.);
#521=ORIENTED_EDGE('',*,*,#389,.T.);
#522=ORIENTED_EDGE('',*,*,#381,.T.);
#523=ORIENTED_EDGE('',*,*,#378,.F.);
#524=ORIENTED_EDGE('',*,*,#361,.F.);
#525=ORIENTED_EDGE('',*,*,#350,.T.);
#526=ORIENTED_EDGE('',*,*,#354,.T.);
#527=ORIENTED_EDGE('',*,*,#387,.T.);
#528=ORIENTED_EDGE('',*,*,#334,.T.);
#529=ORIENTED_EDGE('',*,*,#390,.T.);
#530=ORIENTED_EDGE('',*,*,#391,.F.);
#531=ORIENTED_EDGE('',*,*,#324,.T.);
#532=ORIENTED_EDGE('',*,*,#313,.T.);
#533=ORIENTED_EDGE('',*,*,#386,.T.);
#534=ORIENTED_EDGE('',*,*,#385,.T.);
#535=ORIENTED_EDGE('',*,*,#382,.T.);
#536=ORIENTED_EDGE('',*,*,#389,.F.);
#537=ORIENTED_EDGE('',*,*,#392,.F.);
#538=ORIENTED_EDGE('',*,*,#393,.F.);
#539=ORIENTED_EDGE('',*,*,#390,.F.);
#540=ORIENTED_EDGE('',*,*,#333,.F.);
#541=ORIENTED_EDGE('',*,*,#367,.T.);
#542=ORIENTED_EDGE('',*,*,#327,.F.);
#543=ORIENTED_EDGE('',*,*,#368,.T.);
#544=ORIENTED_EDGE('',*,*,#331,.T.);
#545=ORIENTED_EDGE('',*,*,#322,.T.);
#546=ORIENTED_EDGE('',*,*,#319,.T.);
#547=ORIENTED_EDGE('',*,*,#314,.F.);
#548=ORIENTED_EDGE('',*,*,#392,.T.);
#549=ORIENTED_EDGE('',*,*,#388,.F.);
#550=ORIENTED_EDGE('',*,*,#391,.T.);
#551=ORIENTED_EDGE('',*,*,#394,.F.);
#552=ORIENTED_EDGE('',*,*,#395,.F.);
#553=ORIENTED_EDGE('',*,*,#396,.T.);
#554=ORIENTED_EDGE('',*,*,#369,.T.);
#555=ORIENTED_EDGE('',*,*,#325,.T.);
#556=ORIENTED_EDGE('',*,*,#338,.T.);
#557=ORIENTED_EDGE('',*,*,#397,.F.);
#558=ORIENTED_EDGE('',*,*,#398,.T.);
#559=ORIENTED_EDGE('',*,*,#395,.T.);
#560=ORIENTED_EDGE('',*,*,#399,.F.);
#561=ORIENTED_EDGE('',*,*,#372,.F.);
#562=ORIENTED_EDGE('',*,*,#346,.T.);
#563=ORIENTED_EDGE('',*,*,#349,.T.);
#564=ORIENTED_EDGE('',*,*,#337,.T.);
#565=ORIENTED_EDGE('',*,*,#371,.F.);
#566=ORIENTED_EDGE('',*,*,#400,.T.);
#567=ORIENTED_EDGE('',*,*,#397,.T.);
#568=ORIENTED_EDGE('',*,*,#366,.T.);
#569=ORIENTED_EDGE('',*,*,#373,.T.);
#570=ORIENTED_EDGE('',*,*,#399,.T.);
#571=ORIENTED_EDGE('',*,*,#394,.T.);
#572=ORIENTED_EDGE('',*,*,#393,.T.);
#573=ORIENTED_EDGE('',*,*,#370,.F.);
#574=ORIENTED_EDGE('',*,*,#396,.F.);
#575=ORIENTED_EDGE('',*,*,#398,.F.);
#576=ORIENTED_EDGE('',*,*,#400,.F.);
#577=PLANE('',#664);
#578=PLANE('',#665);
#579=PLANE('',#666);
#580=PLANE('',#667);
#581=PLANE('',#668);
#582=PLANE('',#669);
#583=PLANE('',#670);
#584=PLANE('',#671);
#585=PLANE('',#672);
#586=PLANE('',#673);
#587=PLANE('',#674);
#588=PLANE('',#675);
#589=PLANE('',#676);
#590=PLANE('',#677);
#591=PLANE('',#678);
#592=PLANE('',#679);
#593=PLANE('',#680);
#594=PLANE('',#681);
#595=PLANE('',#682);
#596=PLANE('',#683);
#597=PLANE('',#684);
#598=PLANE('',#685);
#599=PLANE('',#686);
#600=PLANE('',#687);
#601=PLANE('',#688);
#602=PLANE('',#689);
#603=PLANE('',#690);
#604=PLANE('',#691);
#605=PLANE('',#692);
#606=PLANE('',#693);
#607=PLANE('',#694);
#608=PLANE('',#695);
#609=ADVANCED_FACE('',(#15),#577,.T.);
#610=ADVANCED_FACE('',(#16),#578,.T.);
#611=ADVANCED_FACE('',(#17),#579,.F.);
#612=ADVANCED_FACE('',(#18),#580,.T.);
#613=ADVANCED_FACE('',(#19),#581,.T.);
#614=ADVANCED_FACE('',(#20),#582,.F.);
#615=ADVANCED_FACE('',(#21),#583,.F.);
#616=ADVANCED_FACE('',(#22),#584,.F.);
#617=ADVANCED_FACE('',(#23),#585,.F.);
#618=ADVANCED_FACE('',(#24),#586,.F.);
#619=ADVANCED_FACE('',(#25),#587,.F.);
#620=ADVANCED_FACE('',(#26),#588,.T.);
#621=ADVANCED_FACE('',(#27),#589,.T.);
#622=ADVANCED_FACE('',(#28),#590,.T.);
#623=ADVANCED_FACE('',(#29),#591,.T.);
#624=ADVANCED_FACE('',(#30),#592,.T.);
#625=ADVANCED_FACE('',(#31),#593,.T.);
#626=ADVANCED_FACE('',(#32),#594,.T.);
#627=ADVANCED_FACE('',(#33),#595,.F.);
#628=ADVANCED_FACE('',(#34),#596,.T.);
#629=ADVANCED_FACE('',(#35),#597,.F.);
#630=ADVANCED_FACE('',(#36),#598,.T.);
#631=ADVANCED_FACE('',(#37),#599,.T.);
#632=ADVANCED_FACE('',(#38),#600,.T.);
#633=ADVANCED_FACE('',(#39),#601,.T.);
#634=ADVANCED_FACE('',(#40),#602,.T.);
#635=ADVANCED_FACE('',(#41),#603,.T.);
#636=ADVANCED_FACE('',(#42),#604,.T.);
#637=ADVANCED_FACE('',(#43),#605,.T.);
#638=ADVANCED_FACE('',(#44),#606,.T.);
#639=ADVANCED_FACE('',(#45),#607,.T.);
#640=ADVANCED_FACE('',(#46),#608,.F.);
#641=CLOSED_SHELL('',(#609,#610,#611,#612,#613,#614,#615,#616,#617,#618,
#619,#620,#621,#622,#623,#624,#625,#626,#627,#628,#629,#630,#631,#632,#633,
#634,#635,#636,#637,#638,#639,#640));
#642=DERIVED_UNIT_ELEMENT(#645,1.);
#643=DERIVED_UNIT_ELEMENT(#1034,-3.);
#644=DIMENSIONAL_EXPONENTS(0.,1.,0.,0.,0.,0.,0.);
#645=(
CONVERSION_BASED_UNIT('gram',#647)
MASS_UNIT()
NAMED_UNIT(#644)
);
#646=(
MASS_UNIT()
NAMED_UNIT(*)
SI_UNIT(.KILO.,.GRAM.)
);
#647=MASS_MEASURE_WITH_UNIT(MASS_MEASURE(0.001),#646);
#648=DERIVED_UNIT((#642,#643));
#649=MEASURE_REPRESENTATION_ITEM('density measure',
POSITIVE_RATIO_MEASURE(2.7),#648);
#650=PROPERTY_DEFINITION_REPRESENTATION(#655,#652);
#651=PROPERTY_DEFINITION_REPRESENTATION(#656,#653);
#652=REPRESENTATION('material name',(#654),#1031);
#653=REPRESENTATION('density',(#649),#1031);
#654=DESCRIPTIVE_REPRESENTATION_ITEM('\X2\30A230EB30DF30CB30A630E0\X0\ 
6061','\X2\30A230EB30DF30CB30A630E0\X0\ 6061');
#655=PROPERTY_DEFINITION('material property','material name',#1041);
#656=PROPERTY_DEFINITION('material property','density of part',#1041);
#657=DATE_TIME_ROLE('creation_date');
#658=APPLIED_DATE_AND_TIME_ASSIGNMENT(#659,#657,(#1041));
#659=DATE_AND_TIME(#660,#661);
#660=CALENDAR_DATE(2026,8,10);
#661=LOCAL_TIME(0,0,0.,#662);
#662=COORDINATED_UNIVERSAL_TIME_OFFSET(0,0,.BEHIND.);
#663=AXIS2_PLACEMENT_3D('',#850,#696,#697);
#664=AXIS2_PLACEMENT_3D('',#851,#698,#699);
#665=AXIS2_PLACEMENT_3D('',#860,#704,#705);
#666=AXIS2_PLACEMENT_3D('',#866,#709,#710);
#667=AXIS2_PLACEMENT_3D('',#872,#714,#715);
#668=AXIS2_PLACEMENT_3D('',#889,#724,#725);
#669=AXIS2_PLACEMENT_3D('',#899,#731,#732);
#670=AXIS2_PLACEMENT_3D('',#908,#737,#738);
#671=AXIS2_PLACEMENT_3D('',#917,#743,#744);
#672=AXIS2_PLACEMENT_3D('',#926,#749,#750);
#673=AXIS2_PLACEMENT_3D('',#929,#753,#754);
#674=AXIS2_PLACEMENT_3D('',#938,#759,#760);
#675=AXIS2_PLACEMENT_3D('',#941,#763,#764);
#676=AXIS2_PLACEMENT_3D('',#951,#770,#771);
#677=AXIS2_PLACEMENT_3D('',#955,#774,#775);
#678=AXIS2_PLACEMENT_3D('',#959,#778,#779);
#679=AXIS2_PLACEMENT_3D('',#971,#787,#788);
#680=AXIS2_PLACEMENT_3D('',#975,#791,#792);
#681=AXIS2_PLACEMENT_3D('',#982,#797,#798);
#682=AXIS2_PLACEMENT_3D('',#986,#801,#802);
#683=AXIS2_PLACEMENT_3D('',#988,#804,#805);
#684=AXIS2_PLACEMENT_3D('',#994,#809,#810);
#685=AXIS2_PLACEMENT_3D('',#998,#813,#814);
#686=AXIS2_PLACEMENT_3D('',#1001,#817,#818);
#687=AXIS2_PLACEMENT_3D('',#1005,#821,#822);
#688=AXIS2_PLACEMENT_3D('',#1009,#825,#826);
#689=AXIS2_PLACEMENT_3D('',#1011,#828,#829);
#690=AXIS2_PLACEMENT_3D('',#1013,#831,#832);
#691=AXIS2_PLACEMENT_3D('',#1014,#833,#834);
#692=AXIS2_PLACEMENT_3D('',#1020,#838,#839);
#693=AXIS2_PLACEMENT_3D('',#1025,#843,#844);
#694=AXIS2_PLACEMENT_3D('',#1027,#846,#847);
#695=AXIS2_PLACEMENT_3D('',#1028,#848,#849);
#696=DIRECTION('axis',(0.,0.,1.));
#697=DIRECTION('refdir',(1.,0.,0.));
#698=DIRECTION('center_axis',(0.,0.,1.));
#699=DIRECTION('ref_axis',(1.,0.,0.));
#700=DIRECTION('',(0.,1.,0.));
#701=DIRECTION('',(1.,0.,0.));
#702=DIRECTION('',(0.,1.,0.));
#703=DIRECTION('',(-1.,0.,0.));
#704=DIRECTION('center_axis',(1.,0.,0.));
#705=DIRECTION('ref_axis',(0.,1.,0.));
#706=DIRECTION('',(0.,1.,0.));
#707=DIRECTION('',(0.,0.,1.));
#708=DIRECTION('',(0.,0.,1.));
#709=DIRECTION('center_axis',(0.,0.,1.));
#710=DIRECTION('ref_axis',(1.,0.,0.));
#711=DIRECTION('',(0.,-1.,0.));
#712=DIRECTION('',(-1.,0.,0.));
#713=DIRECTION('',(1.,0.,0.));
#714=DIRECTION('center_axis',(-1.,0.,0.));
#715=DIRECTION('ref_axis',(0.,-1.,0.));
#716=DIRECTION('',(0.,0.,1.));
#717=DIRECTION('',(0.,-1.,0.));
#718=DIRECTION('',(0.,0.,1.));
#719=DIRECTION('',(0.,-1.,0.));
#720=DIRECTION('',(0.,0.,1.));
#721=DIRECTION('',(0.,-1.,0.));
#722=DIRECTION('',(0.,0.,1.));
#723=DIRECTION('',(0.,-1.,0.));
#724=DIRECTION('center_axis',(1.,0.,0.));
#725=DIRECTION('ref_axis',(0.,1.,0.));
#726=DIRECTION('',(0.,0.,1.));
#727=DIRECTION('',(0.,1.,0.));
#728=DIRECTION('',(0.,0.,1.));
#729=DIRECTION('',(0.,1.,0.));
#730=DIRECTION('',(0.,0.,1.));
#731=DIRECTION('center_axis',(-1.,0.,0.));
#732=DIRECTION('ref_axis',(0.,-1.,0.));
#733=DIRECTION('',(0.,-1.,0.));
#734=DIRECTION('',(0.,0.,-1.));
#735=DIRECTION('',(0.,0.997894170502771,-0.0648631210826804));
#736=DIRECTION('',(0.,0.,1.));
#737=DIRECTION('center_axis',(-1.,0.,0.));
#738=DIRECTION('ref_axis',(0.,-1.,0.));
#739=DIRECTION('',(0.,1.,0.));
#740=DIRECTION('',(0.,0.,1.));
#741=DIRECTION('',(0.,-0.999388062160532,-0.0349785821756185));
#742=DIRECTION('',(0.,0.,-1.));
#743=DIRECTION('center_axis',(1.,0.,0.));
#744=DIRECTION('ref_axis',(0.,1.,0.));
#745=DIRECTION('',(0.,1.,0.));
#746=DIRECTION('',(0.,0.,1.));
#747=DIRECTION('',(0.,-0.997894170502771,0.0648631210826804));
#748=DIRECTION('',(0.,0.,1.));
#749=DIRECTION('center_axis',(0.,-1.,0.));
#750=DIRECTION('ref_axis',(1.,0.,0.));
#751=DIRECTION('',(1.,0.,0.));
#752=DIRECTION('',(-1.,0.,0.));
#753=DIRECTION('center_axis',(1.,0.,0.));
#754=DIRECTION('ref_axis',(0.,1.,0.));
#755=DIRECTION('',(0.,-1.,0.));
#756=DIRECTION('',(0.,0.,1.));
#757=DIRECTION('',(0.,0.999388062160532,0.0349785821756185));
#758=DIRECTION('',(0.,0.,1.));
#759=DIRECTION('center_axis',(0.,-1.,0.));
#760=DIRECTION('ref_axis',(1.,0.,0.));
#761=DIRECTION('',(-1.,0.,0.));
#762=DIRECTION('',(1.,0.,0.));
#763=DIRECTION('center_axis',(0.,0.0349785821756185,-0.999388062160532));
#764=DIRECTION('ref_axis',(0.,0.999388062160532,0.0349785821756185));
#765=DIRECTION('',(1.,0.,0.));
#766=DIRECTION('',(0.,0.999388062160532,0.0349785821756185));
#767=DIRECTION('',(1.,0.,0.));
#768=DIRECTION('',(0.,0.999388062160532,0.0349785821756185));
#769=DIRECTION('',(1.,0.,0.));
#770=DIRECTION('center_axis',(0.,1.,0.));
#771=DIRECTION('ref_axis',(0.,0.,1.));
#772=DIRECTION('',(1.,0.,0.));
#773=DIRECTION('',(0.,0.,1.));
#774=DIRECTION('center_axis',(0.,1.,0.));
#775=DIRECTION('ref_axis',(0.,0.,1.));
#776=DIRECTION('',(0.,0.,1.));
#777=DIRECTION('',(1.,0.,0.));
#778=DIRECTION('center_axis',(0.,0.,-1.));
#779=DIRECTION('ref_axis',(0.,1.,0.));
#780=DIRECTION('',(1.,0.,0.));
#781=DIRECTION('',(0.,1.,0.));
#782=DIRECTION('',(-1.,0.,0.));
#783=DIRECTION('',(1.,0.,0.));
#784=DIRECTION('',(1.,0.,0.));
#785=DIRECTION('',(0.,1.,0.));
#786=DIRECTION('',(1.,0.,0.));
#787=DIRECTION('center_axis',(0.,1.,0.));
#788=DIRECTION('ref_axis',(0.,0.,1.));
#789=DIRECTION('',(1.,0.,0.));
#790=DIRECTION('',(0.,0.,1.));
#791=DIRECTION('center_axis',(0.,-1.,0.));
#792=DIRECTION('ref_axis',(0.,0.,-1.));
#793=DIRECTION('',(1.,0.,0.));
#794=DIRECTION('',(0.,0.,-1.));
#795=DIRECTION('',(0.,0.,-1.));
#796=DIRECTION('',(-1.,0.,0.));
#797=DIRECTION('center_axis',(1.,0.,0.));
#798=DIRECTION('ref_axis',(0.,0.,-1.));
#799=DIRECTION('',(0.,-1.,0.));
#800=DIRECTION('',(0.,0.,1.));
#801=DIRECTION('center_axis',(1.,0.,0.));
#802=DIRECTION('ref_axis',(0.,0.,-1.));
#803=DIRECTION('',(0.,-1.,0.));
#804=DIRECTION('center_axis',(0.,1.,0.));
#805=DIRECTION('ref_axis',(-1.,0.,0.));
#806=DIRECTION('',(-1.,0.,0.));
#807=DIRECTION('',(0.,0.,1.));
#808=DIRECTION('',(-1.,0.,0.));
#809=DIRECTION('center_axis',(0.,0.,1.));
#810=DIRECTION('ref_axis',(1.,0.,0.));
#811=DIRECTION('',(1.,0.,0.));
#812=DIRECTION('',(0.,1.,0.));
#813=DIRECTION('center_axis',(0.,1.,0.));
#814=DIRECTION('ref_axis',(-1.,0.,0.));
#815=DIRECTION('',(0.,0.,1.));
#816=DIRECTION('',(1.,0.,0.));
#817=DIRECTION('center_axis',(0.,0.,1.));
#818=DIRECTION('ref_axis',(1.,0.,0.));
#819=DIRECTION('',(1.,0.,0.));
#820=DIRECTION('',(0.,1.,0.));
#821=DIRECTION('center_axis',(0.,0.,1.));
#822=DIRECTION('ref_axis',(1.,0.,0.));
#823=DIRECTION('',(-1.,0.,0.));
#824=DIRECTION('',(1.,0.,0.));
#825=DIRECTION('center_axis',(1.,0.,0.));
#826=DIRECTION('ref_axis',(0.,1.,0.));
#827=DIRECTION('',(0.,0.,1.));
#828=DIRECTION('center_axis',(0.,1.,0.));
#829=DIRECTION('ref_axis',(-1.,0.,0.));
#830=DIRECTION('',(0.,0.,-1.));
#831=DIRECTION('center_axis',(0.,-1.,0.));
#832=DIRECTION('ref_axis',(1.,0.,0.));
#833=DIRECTION('center_axis',(0.,-1.,0.));
#834=DIRECTION('ref_axis',(0.,0.,-1.));
#835=DIRECTION('',(0.,0.,-1.));
#836=DIRECTION('',(1.,0.,0.));
#837=DIRECTION('',(0.,0.,-1.));
#838=DIRECTION('center_axis',(0.,0.0648631210826804,0.997894170502771));
#839=DIRECTION('ref_axis',(0.,-0.997894170502771,0.0648631210826804));
#840=DIRECTION('',(1.,0.,0.));
#841=DIRECTION('',(0.,-0.997894170502771,0.0648631210826804));
#842=DIRECTION('',(0.,-0.997894170502771,0.0648631210826804));
#843=DIRECTION('center_axis',(0.,1.,0.));
#844=DIRECTION('ref_axis',(0.,0.,1.));
#845=DIRECTION('',(0.,0.,1.));
#846=DIRECTION('center_axis',(1.,0.,0.));
#847=DIRECTION('ref_axis',(0.,0.,-1.));
#848=DIRECTION('center_axis',(1.,0.,0.));
#849=DIRECTION('ref_axis',(0.,0.,-1.));
#850=CARTESIAN_POINT('',(0.,0.,0.));
#851=CARTESIAN_POINT('Origin',(68.,-29.,42.));
#852=CARTESIAN_POINT('',(66.,-30.,42.));
#853=CARTESIAN_POINT('',(66.,-28.,42.));
#854=CARTESIAN_POINT('',(66.,-29.5,42.));
#855=CARTESIAN_POINT('',(72.,-30.,42.));
#856=CARTESIAN_POINT('',(64.,-30.,42.));
#857=CARTESIAN_POINT('',(72.,-28.,42.));
#858=CARTESIAN_POINT('',(72.,-30.,42.));
#859=CARTESIAN_POINT('',(72.,-28.,42.));
#860=CARTESIAN_POINT('Origin',(72.,-30.,40.));
#861=CARTESIAN_POINT('',(72.,-30.,40.));
#862=CARTESIAN_POINT('',(72.,-28.,40.));
#863=CARTESIAN_POINT('',(72.,-30.,40.));
#864=CARTESIAN_POINT('',(72.,-28.,40.));
#865=CARTESIAN_POINT('',(72.,-30.,40.));
#866=CARTESIAN_POINT('Origin',(68.,-29.,40.));
#867=CARTESIAN_POINT('',(66.,-28.,40.));
#868=CARTESIAN_POINT('',(66.,-30.,40.));
#869=CARTESIAN_POINT('',(66.,-29.5,40.));
#870=CARTESIAN_POINT('',(72.,-28.,40.));
#871=CARTESIAN_POINT('',(64.,-30.,40.));
#872=CARTESIAN_POINT('Origin',(64.,-6.,32.));
#873=CARTESIAN_POINT('',(64.,-28.,32.5));
#874=CARTESIAN_POINT('',(64.,-28.,44.5));
#875=CARTESIAN_POINT('',(64.,-28.,32.));
#876=CARTESIAN_POINT('',(64.,-6.,32.5));
#877=CARTESIAN_POINT('',(64.,-6.,32.5));
#878=CARTESIAN_POINT('',(64.,-6.,32.));
#879=CARTESIAN_POINT('',(64.,-6.,32.945));
#880=CARTESIAN_POINT('',(64.,-30.,32.));
#881=CARTESIAN_POINT('',(64.,-6.,32.));
#882=CARTESIAN_POINT('',(64.,-30.,45.));
#883=CARTESIAN_POINT('',(64.,-30.,32.));
#884=CARTESIAN_POINT('',(64.,-6.,45.));
#885=CARTESIAN_POINT('',(64.,-6.,45.));
#886=CARTESIAN_POINT('',(64.,-6.,44.5));
#887=CARTESIAN_POINT('',(64.,-6.,44.5));
#888=CARTESIAN_POINT('',(64.,-6.,44.5));
#889=CARTESIAN_POINT('Origin',(66.,-30.,32.));
#890=CARTESIAN_POINT('',(66.,-30.,32.));
#891=CARTESIAN_POINT('',(66.,-30.,32.));
#892=CARTESIAN_POINT('',(66.,-6.,32.));
#893=CARTESIAN_POINT('',(66.,-30.,32.));
#894=CARTESIAN_POINT('',(66.,-6.,32.5));
#895=CARTESIAN_POINT('',(66.,-6.,32.));
#896=CARTESIAN_POINT('',(66.,-28.,32.5));
#897=CARTESIAN_POINT('',(66.,-30.,32.5));
#898=CARTESIAN_POINT('',(66.,-28.,32.));
#899=CARTESIAN_POINT('Origin',(58.3,11.9,31.));
#900=CARTESIAN_POINT('',(58.3,6.,32.));
#901=CARTESIAN_POINT('',(58.3,-1.7,32.));
#902=CARTESIAN_POINT('',(58.3,2.95,32.));
#903=CARTESIAN_POINT('',(58.3,6.,33.11));
#904=CARTESIAN_POINT('',(58.3,6.,31.5));
#905=CARTESIAN_POINT('',(58.3,-1.7,33.6105));
#906=CARTESIAN_POINT('',(58.3,9.00587517737559,32.9146181134706));
#907=CARTESIAN_POINT('',(58.3,-1.7,31.));
#908=CARTESIAN_POINT('Origin',(58.3,11.9,31.));
#909=CARTESIAN_POINT('',(58.3,-1.7,45.));
#910=CARTESIAN_POINT('',(58.3,6.,45.));
#911=CARTESIAN_POINT('',(58.3,-8.55,45.));
#912=CARTESIAN_POINT('',(58.3,-1.7,42.9405));
#913=CARTESIAN_POINT('',(58.3,-1.7,31.));
#914=CARTESIAN_POINT('',(58.3,6.,43.21));
#915=CARTESIAN_POINT('',(58.3,2.73297710304877,43.0956541986067));
#916=CARTESIAN_POINT('',(58.3,6.,37.105));
#917=CARTESIAN_POINT('Origin',(61.7,-1.7,31.));
#918=CARTESIAN_POINT('',(61.7,-1.7,32.));
#919=CARTESIAN_POINT('',(61.7,6.,32.));
#920=CARTESIAN_POINT('',(61.7,-3.85,32.));
#921=CARTESIAN_POINT('',(61.7,-1.7,33.6105));
#922=CARTESIAN_POINT('',(61.7,-1.7,31.));
#923=CARTESIAN_POINT('',(61.7,6.,33.11));
#924=CARTESIAN_POINT('',(61.7,2.23448430381638,33.3547585202519));
#925=CARTESIAN_POINT('',(61.7,6.,31.5));
#926=CARTESIAN_POINT('Origin',(58.3,-1.7,31.));
#927=CARTESIAN_POINT('',(56.65,-1.7,32.));
#928=CARTESIAN_POINT('',(56.65,-1.7,33.6105));
#929=CARTESIAN_POINT('Origin',(61.7,-1.7,31.));
#930=CARTESIAN_POINT('',(61.7,6.,45.));
#931=CARTESIAN_POINT('',(61.7,-1.7,45.));
#932=CARTESIAN_POINT('',(61.7,-15.35,45.));
#933=CARTESIAN_POINT('',(61.7,6.,43.21));
#934=CARTESIAN_POINT('',(61.7,6.,37.105));
#935=CARTESIAN_POINT('',(61.7,-1.7,42.9405));
#936=CARTESIAN_POINT('',(61.7,-4.05870308871632,42.8579453918949));
#937=CARTESIAN_POINT('',(61.7,-1.7,31.));
#938=CARTESIAN_POINT('Origin',(58.3,-1.7,31.));
#939=CARTESIAN_POINT('',(61.65,-1.7,45.));
#940=CARTESIAN_POINT('',(56.65,-1.7,42.9405));
#941=CARTESIAN_POINT('Origin',(55.,-6.,42.79));
#942=CARTESIAN_POINT('',(65.,6.,43.21));
#943=CARTESIAN_POINT('',(55.,6.,43.21));
#944=CARTESIAN_POINT('',(65.,-6.,42.79));
#945=CARTESIAN_POINT('',(65.,-6.,42.79));
#946=CARTESIAN_POINT('',(55.,-6.,42.79));
#947=CARTESIAN_POINT('',(55.,-6.,42.79));
#948=CARTESIAN_POINT('',(55.,6.,43.21));
#949=CARTESIAN_POINT('',(55.,-6.,42.79));
#950=CARTESIAN_POINT('',(55.,6.,43.21));
#951=CARTESIAN_POINT('Origin',(55.,6.,43.21));
#952=CARTESIAN_POINT('',(65.,6.,45.));
#953=CARTESIAN_POINT('',(55.,6.,45.));
#954=CARTESIAN_POINT('',(65.,6.,43.21));
#955=CARTESIAN_POINT('Origin',(55.,6.,43.21));
#956=CARTESIAN_POINT('',(55.,6.,45.));
#957=CARTESIAN_POINT('',(55.,6.,43.21));
#958=CARTESIAN_POINT('',(55.,6.,45.));
#959=CARTESIAN_POINT('Origin',(55.,-6.,32.));
#960=CARTESIAN_POINT('',(65.,6.,32.));
#961=CARTESIAN_POINT('',(55.,6.,32.));
#962=CARTESIAN_POINT('',(65.,-6.,32.));
#963=CARTESIAN_POINT('',(65.,-6.,32.));
#964=CARTESIAN_POINT('',(66.,-6.,32.));
#965=CARTESIAN_POINT('',(64.,-30.,32.));
#966=CARTESIAN_POINT('',(55.,-6.,32.));
#967=CARTESIAN_POINT('',(55.,-6.,32.));
#968=CARTESIAN_POINT('',(55.,6.,32.));
#969=CARTESIAN_POINT('',(55.,-6.,32.));
#970=CARTESIAN_POINT('',(55.,6.,32.));
#971=CARTESIAN_POINT('Origin',(55.,6.,32.));
#972=CARTESIAN_POINT('',(65.,6.,33.11));
#973=CARTESIAN_POINT('',(55.,6.,33.11));
#974=CARTESIAN_POINT('',(65.,6.,32.));
#975=CARTESIAN_POINT('Origin',(55.,-6.,45.));
#976=CARTESIAN_POINT('',(55.,-6.,45.));
#977=CARTESIAN_POINT('',(55.,-6.,45.));
#978=CARTESIAN_POINT('',(55.,-6.,45.));
#979=CARTESIAN_POINT('',(65.,-6.,44.5));
#980=CARTESIAN_POINT('',(65.,-6.,45.));
#981=CARTESIAN_POINT('',(66.,-6.,44.5));
#982=CARTESIAN_POINT('Origin',(65.,-0.0899763884268678,43.99816306239));
#983=CARTESIAN_POINT('',(65.,-6.,45.));
#984=CARTESIAN_POINT('',(65.,6.,45.));
#985=CARTESIAN_POINT('',(65.,-6.,44.249081531195));
#986=CARTESIAN_POINT('Origin',(55.,-0.0899763884268682,43.99816306239));
#987=CARTESIAN_POINT('',(55.,6.,45.));
#988=CARTESIAN_POINT('Origin',(66.,-6.,44.5));
#989=CARTESIAN_POINT('',(66.,-6.,45.));
#990=CARTESIAN_POINT('',(66.,-6.,45.));
#991=CARTESIAN_POINT('',(66.,-6.,44.5));
#992=CARTESIAN_POINT('',(66.,-6.,44.5));
#993=CARTESIAN_POINT('',(66.,-6.,44.5));
#994=CARTESIAN_POINT('Origin',(65.,-18.,44.5));
#995=CARTESIAN_POINT('',(66.,-28.,44.5));
#996=CARTESIAN_POINT('',(65.5,-28.,44.5));
#997=CARTESIAN_POINT('',(66.,-30.,44.5));
#998=CARTESIAN_POINT('Origin',(66.,-28.,32.));
#999=CARTESIAN_POINT('',(66.,-28.,32.));
#1000=CARTESIAN_POINT('',(65.5,-28.,32.5));
#1001=CARTESIAN_POINT('Origin',(65.,-29.,45.));
#1002=CARTESIAN_POINT('',(66.,-30.,45.));
#1003=CARTESIAN_POINT('',(64.,-30.,45.));
#1004=CARTESIAN_POINT('',(66.,-30.,45.));
#1005=CARTESIAN_POINT('Origin',(65.,-18.,32.5));
#1006=CARTESIAN_POINT('',(65.,-6.,32.5));
#1007=CARTESIAN_POINT('',(66.,-6.,32.5));
#1008=CARTESIAN_POINT('',(60.,-6.,32.5));
#1009=CARTESIAN_POINT('Origin',(66.,-30.,32.));
#1010=CARTESIAN_POINT('',(66.,-30.,32.));
#1011=CARTESIAN_POINT('Origin',(66.,-6.,32.));
#1012=CARTESIAN_POINT('',(65.,-6.,33.89));
#1013=CARTESIAN_POINT('Origin',(64.,-30.,32.));
#1014=CARTESIAN_POINT('Origin',(55.,-6.,33.89));
#1015=CARTESIAN_POINT('',(65.,-6.,33.89));
#1016=CARTESIAN_POINT('',(65.,-6.,33.89));
#1017=CARTESIAN_POINT('',(55.,-6.,33.89));
#1018=CARTESIAN_POINT('',(55.,-6.,33.89));
#1019=CARTESIAN_POINT('',(55.,-6.,33.89));
#1020=CARTESIAN_POINT('Origin',(55.,6.,33.11));
#1021=CARTESIAN_POINT('',(55.,6.,33.11));
#1022=CARTESIAN_POINT('',(55.,6.,33.11));
#1023=CARTESIAN_POINT('',(55.,6.,33.11));
#1024=CARTESIAN_POINT('',(65.,6.,33.11));
#1025=CARTESIAN_POINT('Origin',(55.,6.,32.));
#1026=CARTESIAN_POINT('',(55.,6.,32.));
#1027=CARTESIAN_POINT('Origin',(65.,-0.173170916456,32.7563308201194));
#1028=CARTESIAN_POINT('Origin',(55.,-0.173170916456,32.7563308201194));
#1029=UNCERTAINTY_MEASURE_WITH_UNIT(LENGTH_MEASURE(0.01),#1033,
'DISTANCE_ACCURACY_VALUE',
'Maximum model space distance between geometric entities at asserted c
onnectivities');
#1030=UNCERTAINTY_MEASURE_WITH_UNIT(LENGTH_MEASURE(0.01),#1033,
'DISTANCE_ACCURACY_VALUE',
'Maximum model space distance between geometric entities at asserted c
onnectivities');
#1031=(
GEOMETRIC_REPRESENTATION_CONTEXT(3)
GLOBAL_UNCERTAINTY_ASSIGNED_CONTEXT((#1029))
GLOBAL_UNIT_ASSIGNED_CONTEXT((#1033,#1035,#1036))
REPRESENTATION_CONTEXT('','3D')
);
#1032=(
GEOMETRIC_REPRESENTATION_CONTEXT(3)
GLOBAL_UNCERTAINTY_ASSIGNED_CONTEXT((#1030))
GLOBAL_UNIT_ASSIGNED_CONTEXT((#1033,#1035,#1036))
REPRESENTATION_CONTEXT('','3D')
);
#1033=(
LENGTH_UNIT()
NAMED_UNIT(*)
SI_UNIT(.MILLI.,.METRE.)
);
#1034=(
LENGTH_UNIT()
NAMED_UNIT(*)
SI_UNIT(.CENTI.,.METRE.)
);
#1035=(
NAMED_UNIT(*)
PLANE_ANGLE_UNIT()
SI_UNIT($,.RADIAN.)
);
#1036=(
NAMED_UNIT(*)
SI_UNIT($,.STERADIAN.)
SOLID_ANGLE_UNIT()
);
#1037=SHAPE_DEFINITION_REPRESENTATION(#1038,#1039);
#1038=PRODUCT_DEFINITION_SHAPE('',$,#1041);
#1039=SHAPE_REPRESENTATION('',(#663),#1031);
#1040=PRODUCT_DEFINITION_CONTEXT('part definition',#1045,'design');
#1041=PRODUCT_DEFINITION('30_Dual_Wedge_Slider','30_Dual_Wedge_Slider',
#1042,#1040);
#1042=PRODUCT_DEFINITION_FORMATION('',$,#1047);
#1043=PRODUCT_RELATED_PRODUCT_CATEGORY('30_Dual_Wedge_Slider',
'30_Dual_Wedge_Slider',(#1047));
#1044=APPLICATION_PROTOCOL_DEFINITION('international standard',
'automotive_design',2009,#1045);
#1045=APPLICATION_CONTEXT(
'Core Data for Automotive Mechanical Design Process');
#1046=PRODUCT_CONTEXT('part definition',#1045,'mechanical');
#1047=PRODUCT('30_Dual_Wedge_Slider','30_Dual_Wedge_Slider',$,(#1046));
#1048=PRESENTATION_STYLE_ASSIGNMENT((#1049));
#1049=SURFACE_STYLE_USAGE(.BOTH.,#1052);
#1050=SURFACE_STYLE_RENDERING_WITH_PROPERTIES($,#1056,(#1051));
#1051=SURFACE_STYLE_TRANSPARENT(0.);
#1052=SURFACE_SIDE_STYLE('',(#1053,#1050));
#1053=SURFACE_STYLE_FILL_AREA(#1054);
#1054=FILL_AREA_STYLE('',(#1055));
#1055=FILL_AREA_STYLE_COLOUR('',#1056);
#1056=COLOUR_RGB('',0.996078431372549,0.996078431372549,1.);
ENDSEC;
END-ISO-10303-21;
