ISO-10303-21;
HEADER;
/* Generated by software containing ST-Developer
 * from STEP Tools, Inc. (www.steptools.com) 
 */

FILE_DESCRIPTION(
/* description */ (''),
/* implementation_level */ '2;1');

FILE_NAME(
/* name */ '31_Actuator_PQ12_Body_Envelope.step',
/* time_stamp */ '2026-10-08T19:41:12+09:00',
/* author */ ('Reaction Wheel Pendulum project'),
/* organization */ (''),
/* preprocessor_version */ 'ST-DEVELOPER v20.1',
/* originating_system */ 'Autodesk Inventor 2026',
/* authorisation */ '');

FILE_SCHEMA (('AUTOMOTIVE_DESIGN { 1 0 10303 214 3 1 1 }'));
ENDSEC;

DATA;
#10=MECHANICAL_DESIGN_GEOMETRIC_PRESENTATION_REPRESENTATION('',(#13),#373);
#11=SHAPE_REPRESENTATION_RELATIONSHIP('SRR','None',#380,#12);
#12=ADVANCED_BREP_SHAPE_REPRESENTATION('',(#14),#372);
#13=STYLED_ITEM('',(#389),#14);
#14=MANIFOLD_SOLID_BREP('\X2\30BD30EA30C330C9\X0\1',#220);
#15=FACE_BOUND('',#46,.T.);
#16=FACE_BOUND('',#48,.T.);
#17=FACE_BOUND('',#53,.T.);
#18=PLANE('',#246);
#19=PLANE('',#247);
#20=PLANE('',#248);
#21=PLANE('',#249);
#22=PLANE('',#250);
#23=PLANE('',#251);
#24=PLANE('',#252);
#25=PLANE('',#253);
#26=PLANE('',#254);
#27=PLANE('',#255);
#28=PLANE('',#256);
#29=FACE_OUTER_BOUND('',#41,.T.);
#30=FACE_OUTER_BOUND('',#42,.T.);
#31=FACE_OUTER_BOUND('',#43,.T.);
#32=FACE_OUTER_BOUND('',#44,.T.);
#33=FACE_OUTER_BOUND('',#45,.T.);
#34=FACE_OUTER_BOUND('',#47,.T.);
#35=FACE_OUTER_BOUND('',#49,.T.);
#36=FACE_OUTER_BOUND('',#50,.T.);
#37=FACE_OUTER_BOUND('',#51,.T.);
#38=FACE_OUTER_BOUND('',#52,.T.);
#39=FACE_OUTER_BOUND('',#54,.T.);
#40=FACE_OUTER_BOUND('',#55,.T.);
#41=EDGE_LOOP('',(#153,#154,#155,#156));
#42=EDGE_LOOP('',(#157,#158,#159,#160));
#43=EDGE_LOOP('',(#161,#162,#163,#164));
#44=EDGE_LOOP('',(#165,#166,#167,#168));
#45=EDGE_LOOP('',(#169,#170,#171,#172));
#46=EDGE_LOOP('',(#173));
#47=EDGE_LOOP('',(#174,#175,#176,#177));
#48=EDGE_LOOP('',(#178));
#49=EDGE_LOOP('',(#179,#180,#181,#182));
#50=EDGE_LOOP('',(#183,#184,#185,#186));
#51=EDGE_LOOP('',(#187,#188,#189,#190));
#52=EDGE_LOOP('',(#191,#192,#193,#194));
#53=EDGE_LOOP('',(#195,#196,#197,#198));
#54=EDGE_LOOP('',(#199,#200,#201,#202));
#55=EDGE_LOOP('',(#203,#204,#205,#206));
#56=LINE('',#317,#81);
#57=LINE('',#322,#82);
#58=LINE('',#324,#83);
#59=LINE('',#326,#84);
#60=LINE('',#327,#85);
#61=LINE('',#331,#86);
#62=LINE('',#333,#87);
#63=LINE('',#335,#88);
#64=LINE('',#336,#89);
#65=LINE('',#338,#90);
#66=LINE('',#339,#91);
#67=LINE('',#341,#92);
#68=LINE('',#343,#93);
#69=LINE('',#347,#94);
#70=LINE('',#349,#95);
#71=LINE('',#351,#96);
#72=LINE('',#352,#97);
#73=LINE('',#355,#98);
#74=LINE('',#357,#99);
#75=LINE('',#358,#100);
#76=LINE('',#361,#101);
#77=LINE('',#363,#102);
#78=LINE('',#364,#103);
#79=LINE('',#366,#104);
#80=LINE('',#367,#105);
#81=VECTOR('',#263,1.5);
#82=VECTOR('',#268,10.);
#83=VECTOR('',#269,10.);
#84=VECTOR('',#270,10.);
#85=VECTOR('',#271,10.);
#86=VECTOR('',#274,10.);
#87=VECTOR('',#275,10.);
#88=VECTOR('',#276,10.);
#89=VECTOR('',#277,10.);
#90=VECTOR('',#280,10.);
#91=VECTOR('',#281,10.);
#92=VECTOR('',#284,10.);
#93=VECTOR('',#287,10.);
#94=VECTOR('',#290,10.);
#95=VECTOR('',#291,10.);
#96=VECTOR('',#292,10.);
#97=VECTOR('',#293,10.);
#98=VECTOR('',#296,10.);
#99=VECTOR('',#297,10.);
#100=VECTOR('',#298,10.);
#101=VECTOR('',#301,10.);
#102=VECTOR('',#302,10.);
#103=VECTOR('',#303,10.);
#104=VECTOR('',#306,10.);
#105=VECTOR('',#307,10.);
#106=CIRCLE('',#244,1.5);
#107=CIRCLE('',#245,1.5);
#108=VERTEX_POINT('',#314);
#109=VERTEX_POINT('',#316);
#110=VERTEX_POINT('',#320);
#111=VERTEX_POINT('',#321);
#112=VERTEX_POINT('',#323);
#113=VERTEX_POINT('',#325);
#114=VERTEX_POINT('',#329);
#115=VERTEX_POINT('',#330);
#116=VERTEX_POINT('',#332);
#117=VERTEX_POINT('',#334);
#118=VERTEX_POINT('',#345);
#119=VERTEX_POINT('',#346);
#120=VERTEX_POINT('',#348);
#121=VERTEX_POINT('',#350);
#122=VERTEX_POINT('',#354);
#123=VERTEX_POINT('',#356);
#124=VERTEX_POINT('',#360);
#125=VERTEX_POINT('',#362);
#126=EDGE_CURVE('',#108,#108,#106,.T.);
#127=EDGE_CURVE('',#108,#109,#56,.T.);
#128=EDGE_CURVE('',#109,#109,#107,.T.);
#129=EDGE_CURVE('',#110,#111,#57,.T.);
#130=EDGE_CURVE('',#111,#112,#58,.T.);
#131=EDGE_CURVE('',#113,#112,#59,.T.);
#132=EDGE_CURVE('',#110,#113,#60,.T.);
#133=EDGE_CURVE('',#114,#115,#61,.T.);
#134=EDGE_CURVE('',#116,#115,#62,.T.);
#135=EDGE_CURVE('',#117,#116,#63,.T.);
#136=EDGE_CURVE('',#114,#117,#64,.T.);
#137=EDGE_CURVE('',#111,#114,#65,.T.);
#138=EDGE_CURVE('',#112,#117,#66,.T.);
#139=EDGE_CURVE('',#113,#116,#67,.T.);
#140=EDGE_CURVE('',#115,#110,#68,.T.);
#141=EDGE_CURVE('',#118,#119,#69,.T.);
#142=EDGE_CURVE('',#119,#120,#70,.T.);
#143=EDGE_CURVE('',#121,#120,#71,.T.);
#144=EDGE_CURVE('',#118,#121,#72,.T.);
#145=EDGE_CURVE('',#122,#118,#73,.T.);
#146=EDGE_CURVE('',#123,#121,#74,.T.);
#147=EDGE_CURVE('',#122,#123,#75,.T.);
#148=EDGE_CURVE('',#124,#122,#76,.T.);
#149=EDGE_CURVE('',#125,#123,#77,.T.);
#150=EDGE_CURVE('',#124,#125,#78,.T.);
#151=EDGE_CURVE('',#119,#124,#79,.T.);
#152=EDGE_CURVE('',#120,#125,#80,.T.);
#153=ORIENTED_EDGE('',*,*,#126,.F.);
#154=ORIENTED_EDGE('',*,*,#127,.T.);
#155=ORIENTED_EDGE('',*,*,#128,.F.);
#156=ORIENTED_EDGE('',*,*,#127,.F.);
#157=ORIENTED_EDGE('',*,*,#129,.T.);
#158=ORIENTED_EDGE('',*,*,#130,.T.);
#159=ORIENTED_EDGE('',*,*,#131,.F.);
#160=ORIENTED_EDGE('',*,*,#132,.F.);
#161=ORIENTED_EDGE('',*,*,#133,.T.);
#162=ORIENTED_EDGE('',*,*,#134,.F.);
#163=ORIENTED_EDGE('',*,*,#135,.F.);
#164=ORIENTED_EDGE('',*,*,#136,.F.);
#165=ORIENTED_EDGE('',*,*,#137,.T.);
#166=ORIENTED_EDGE('',*,*,#136,.T.);
#167=ORIENTED_EDGE('',*,*,#138,.F.);
#168=ORIENTED_EDGE('',*,*,#130,.F.);
#169=ORIENTED_EDGE('',*,*,#138,.T.);
#170=ORIENTED_EDGE('',*,*,#135,.T.);
#171=ORIENTED_EDGE('',*,*,#139,.F.);
#172=ORIENTED_EDGE('',*,*,#131,.T.);
#173=ORIENTED_EDGE('',*,*,#128,.T.);
#174=ORIENTED_EDGE('',*,*,#137,.F.);
#175=ORIENTED_EDGE('',*,*,#129,.F.);
#176=ORIENTED_EDGE('',*,*,#140,.F.);
#177=ORIENTED_EDGE('',*,*,#133,.F.);
#178=ORIENTED_EDGE('',*,*,#126,.T.);
#179=ORIENTED_EDGE('',*,*,#141,.T.);
#180=ORIENTED_EDGE('',*,*,#142,.T.);
#181=ORIENTED_EDGE('',*,*,#143,.F.);
#182=ORIENTED_EDGE('',*,*,#144,.F.);
#183=ORIENTED_EDGE('',*,*,#145,.T.);
#184=ORIENTED_EDGE('',*,*,#144,.T.);
#185=ORIENTED_EDGE('',*,*,#146,.F.);
#186=ORIENTED_EDGE('',*,*,#147,.F.);
#187=ORIENTED_EDGE('',*,*,#148,.T.);
#188=ORIENTED_EDGE('',*,*,#147,.T.);
#189=ORIENTED_EDGE('',*,*,#149,.F.);
#190=ORIENTED_EDGE('',*,*,#150,.F.);
#191=ORIENTED_EDGE('',*,*,#151,.T.);
#192=ORIENTED_EDGE('',*,*,#150,.T.);
#193=ORIENTED_EDGE('',*,*,#152,.F.);
#194=ORIENTED_EDGE('',*,*,#142,.F.);
#195=ORIENTED_EDGE('',*,*,#134,.T.);
#196=ORIENTED_EDGE('',*,*,#140,.T.);
#197=ORIENTED_EDGE('',*,*,#132,.T.);
#198=ORIENTED_EDGE('',*,*,#139,.T.);
#199=ORIENTED_EDGE('',*,*,#152,.T.);
#200=ORIENTED_EDGE('',*,*,#149,.T.);
#201=ORIENTED_EDGE('',*,*,#146,.T.);
#202=ORIENTED_EDGE('',*,*,#143,.T.);
#203=ORIENTED_EDGE('',*,*,#151,.F.);
#204=ORIENTED_EDGE('',*,*,#141,.F.);
#205=ORIENTED_EDGE('',*,*,#145,.F.);
#206=ORIENTED_EDGE('',*,*,#148,.F.);
#207=CYLINDRICAL_SURFACE('',#243,1.5);
#208=ADVANCED_FACE('',(#29),#207,.F.);
#209=ADVANCED_FACE('',(#30),#18,.T.);
#210=ADVANCED_FACE('',(#31),#19,.T.);
#211=ADVANCED_FACE('',(#32),#20,.T.);
#212=ADVANCED_FACE('',(#33,#15),#21,.T.);
#213=ADVANCED_FACE('',(#34,#16),#22,.F.);
#214=ADVANCED_FACE('',(#35),#23,.T.);
#215=ADVANCED_FACE('',(#36),#24,.T.);
#216=ADVANCED_FACE('',(#37),#25,.T.);
#217=ADVANCED_FACE('',(#38,#17),#26,.T.);
#218=ADVANCED_FACE('',(#39),#27,.T.);
#219=ADVANCED_FACE('',(#40),#28,.F.);
#220=CLOSED_SHELL('',(#208,#209,#210,#211,#212,#213,#214,#215,#216,#217,
#218,#219));
#221=DERIVED_UNIT_ELEMENT(#224,1.);
#222=DERIVED_UNIT_ELEMENT(#375,-3.);
#223=DIMENSIONAL_EXPONENTS(0.,1.,0.,0.,0.,0.,0.);
#224=(
CONVERSION_BASED_UNIT('gram',#226)
MASS_UNIT()
NAMED_UNIT(#223)
);
#225=(
MASS_UNIT()
NAMED_UNIT(*)
SI_UNIT(.KILO.,.GRAM.)
);
#226=MASS_MEASURE_WITH_UNIT(MASS_MEASURE(0.001),#225);
#227=DERIVED_UNIT((#221,#222));
#228=MEASURE_REPRESENTATION_ITEM('density measure',
POSITIVE_RATIO_MEASURE(1.541),#227);
#229=PROPERTY_DEFINITION_REPRESENTATION(#234,#231);
#230=PROPERTY_DEFINITION_REPRESENTATION(#235,#232);
#231=REPRESENTATION('material name',(#233),#372);
#232=REPRESENTATION('density',(#228),#372);
#233=DESCRIPTIVE_REPRESENTATION_ITEM('PET \X2\30D730E930B930C130C330AF\X0\',
'PET \X2\30D730E930B930C130C330AF\X0\');
#234=PROPERTY_DEFINITION('material property','material name',#382);
#235=PROPERTY_DEFINITION('material property','density of part',#382);
#236=DATE_TIME_ROLE('creation_date');
#237=APPLIED_DATE_AND_TIME_ASSIGNMENT(#238,#236,(#382));
#238=DATE_AND_TIME(#239,#240);
#239=CALENDAR_DATE(2026,8,10);
#240=LOCAL_TIME(0,0,0.,#241);
#241=COORDINATED_UNIVERSAL_TIME_OFFSET(0,0,.BEHIND.);
#242=AXIS2_PLACEMENT_3D('',#312,#257,#258);
#243=AXIS2_PLACEMENT_3D('',#313,#259,#260);
#244=AXIS2_PLACEMENT_3D('',#315,#261,#262);
#245=AXIS2_PLACEMENT_3D('',#318,#264,#265);
#246=AXIS2_PLACEMENT_3D('',#319,#266,#267);
#247=AXIS2_PLACEMENT_3D('',#328,#272,#273);
#248=AXIS2_PLACEMENT_3D('',#337,#278,#279);
#249=AXIS2_PLACEMENT_3D('',#340,#282,#283);
#250=AXIS2_PLACEMENT_3D('',#342,#285,#286);
#251=AXIS2_PLACEMENT_3D('',#344,#288,#289);
#252=AXIS2_PLACEMENT_3D('',#353,#294,#295);
#253=AXIS2_PLACEMENT_3D('',#359,#299,#300);
#254=AXIS2_PLACEMENT_3D('',#365,#304,#305);
#255=AXIS2_PLACEMENT_3D('',#368,#308,#309);
#256=AXIS2_PLACEMENT_3D('',#369,#310,#311);
#257=DIRECTION('axis',(0.,0.,1.));
#258=DIRECTION('refdir',(1.,0.,0.));
#259=DIRECTION('center_axis',(0.,0.,1.));
#260=DIRECTION('ref_axis',(-1.,0.,0.));
#261=DIRECTION('center_axis',(0.,0.,1.));
#262=DIRECTION('ref_axis',(-1.,0.,0.));
#263=DIRECTION('',(0.,0.,1.));
#264=DIRECTION('center_axis',(0.,0.,-1.));
#265=DIRECTION('ref_axis',(-1.,0.,0.));
#266=DIRECTION('center_axis',(-1.,0.,0.));
#267=DIRECTION('ref_axis',(0.,-1.,0.));
#268=DIRECTION('',(0.,-1.,0.));
#269=DIRECTION('',(0.,0.,1.));
#270=DIRECTION('',(0.,-1.,0.));
#271=DIRECTION('',(0.,0.,1.));
#272=DIRECTION('center_axis',(1.,0.,0.));
#273=DIRECTION('ref_axis',(0.,1.,0.));
#274=DIRECTION('',(0.,1.,0.));
#275=DIRECTION('',(0.,0.,-1.));
#276=DIRECTION('',(0.,1.,0.));
#277=DIRECTION('',(0.,0.,1.));
#278=DIRECTION('center_axis',(0.,-1.,0.));
#279=DIRECTION('ref_axis',(1.,0.,0.));
#280=DIRECTION('',(1.,0.,0.));
#281=DIRECTION('',(1.,0.,0.));
#282=DIRECTION('center_axis',(0.,0.,1.));
#283=DIRECTION('ref_axis',(1.,0.,0.));
#284=DIRECTION('',(1.,0.,0.));
#285=DIRECTION('center_axis',(0.,0.,1.));
#286=DIRECTION('ref_axis',(1.,0.,0.));
#287=DIRECTION('',(-1.,0.,0.));
#288=DIRECTION('center_axis',(-1.,0.,0.));
#289=DIRECTION('ref_axis',(0.,-1.,0.));
#290=DIRECTION('',(0.,-1.,0.));
#291=DIRECTION('',(0.,0.,1.));
#292=DIRECTION('',(0.,-1.,0.));
#293=DIRECTION('',(0.,0.,1.));
#294=DIRECTION('center_axis',(0.,1.,0.));
#295=DIRECTION('ref_axis',(-1.,0.,0.));
#296=DIRECTION('',(-1.,0.,0.));
#297=DIRECTION('',(-1.,0.,0.));
#298=DIRECTION('',(0.,0.,1.));
#299=DIRECTION('center_axis',(1.,0.,0.));
#300=DIRECTION('ref_axis',(0.,1.,0.));
#301=DIRECTION('',(0.,1.,0.));
#302=DIRECTION('',(0.,1.,0.));
#303=DIRECTION('',(0.,0.,1.));
#304=DIRECTION('center_axis',(0.,-1.,0.));
#305=DIRECTION('ref_axis',(1.,0.,0.));
#306=DIRECTION('',(1.,0.,0.));
#307=DIRECTION('',(1.,0.,0.));
#308=DIRECTION('center_axis',(0.,0.,1.));
#309=DIRECTION('ref_axis',(1.,0.,0.));
#310=DIRECTION('center_axis',(0.,0.,1.));
#311=DIRECTION('ref_axis',(1.,0.,0.));
#312=CARTESIAN_POINT('',(0.,0.,0.));
#313=CARTESIAN_POINT('Origin',(62.5,-82.,33.5));
#314=CARTESIAN_POINT('',(64.,-82.,33.5));
#315=CARTESIAN_POINT('Origin',(62.5,-82.,33.5));
#316=CARTESIAN_POINT('',(64.,-82.,43.5));
#317=CARTESIAN_POINT('',(64.,-82.,33.5));
#318=CARTESIAN_POINT('Origin',(62.5,-82.,43.5));
#319=CARTESIAN_POINT('Origin',(59.5,-79.5,33.5));
#320=CARTESIAN_POINT('',(59.5,-79.5,33.5));
#321=CARTESIAN_POINT('',(59.5,-84.,33.5));
#322=CARTESIAN_POINT('',(59.5,-79.5,33.5));
#323=CARTESIAN_POINT('',(59.5,-84.,43.5));
#324=CARTESIAN_POINT('',(59.5,-84.,33.5));
#325=CARTESIAN_POINT('',(59.5,-79.5,43.5));
#326=CARTESIAN_POINT('',(59.5,-79.5,43.5));
#327=CARTESIAN_POINT('',(59.5,-79.5,32.25));
#328=CARTESIAN_POINT('Origin',(65.5,-84.,33.5));
#329=CARTESIAN_POINT('',(65.5,-84.,33.5));
#330=CARTESIAN_POINT('',(65.5,-79.5,33.5));
#331=CARTESIAN_POINT('',(65.5,-84.,33.5));
#332=CARTESIAN_POINT('',(65.5,-79.5,43.5));
#333=CARTESIAN_POINT('',(65.5,-79.5,32.25));
#334=CARTESIAN_POINT('',(65.5,-84.,43.5));
#335=CARTESIAN_POINT('',(65.5,-84.,43.5));
#336=CARTESIAN_POINT('',(65.5,-84.,33.5));
#337=CARTESIAN_POINT('Origin',(59.5,-84.,33.5));
#338=CARTESIAN_POINT('',(59.5,-84.,33.5));
#339=CARTESIAN_POINT('',(59.5,-84.,43.5));
#340=CARTESIAN_POINT('Origin',(62.5,-81.75,43.5));
#341=CARTESIAN_POINT('',(58.125,-79.5,43.5));
#342=CARTESIAN_POINT('Origin',(62.5,-81.75,33.5));
#343=CARTESIAN_POINT('',(58.125,-79.5,33.5));
#344=CARTESIAN_POINT('Origin',(53.75,-43.,31.));
#345=CARTESIAN_POINT('',(53.75,-43.,31.));
#346=CARTESIAN_POINT('',(53.75,-79.5,31.));
#347=CARTESIAN_POINT('',(53.75,-43.,31.));
#348=CARTESIAN_POINT('',(53.75,-79.5,46.));
#349=CARTESIAN_POINT('',(53.75,-79.5,31.));
#350=CARTESIAN_POINT('',(53.75,-43.,46.));
#351=CARTESIAN_POINT('',(53.75,-43.,46.));
#352=CARTESIAN_POINT('',(53.75,-43.,31.));
#353=CARTESIAN_POINT('Origin',(75.25,-43.,31.));
#354=CARTESIAN_POINT('',(75.25,-43.,31.));
#355=CARTESIAN_POINT('',(75.25,-43.,31.));
#356=CARTESIAN_POINT('',(75.25,-43.,46.));
#357=CARTESIAN_POINT('',(75.25,-43.,46.));
#358=CARTESIAN_POINT('',(75.25,-43.,31.));
#359=CARTESIAN_POINT('Origin',(75.25,-79.5,31.));
#360=CARTESIAN_POINT('',(75.25,-79.5,31.));
#361=CARTESIAN_POINT('',(75.25,-79.5,31.));
#362=CARTESIAN_POINT('',(75.25,-79.5,46.));
#363=CARTESIAN_POINT('',(75.25,-79.5,46.));
#364=CARTESIAN_POINT('',(75.25,-79.5,31.));
#365=CARTESIAN_POINT('Origin',(53.75,-79.5,31.));
#366=CARTESIAN_POINT('',(53.75,-79.5,31.));
#367=CARTESIAN_POINT('',(53.75,-79.5,46.));
#368=CARTESIAN_POINT('Origin',(64.5,-61.25,46.));
#369=CARTESIAN_POINT('Origin',(64.5,-61.25,31.));
#370=UNCERTAINTY_MEASURE_WITH_UNIT(LENGTH_MEASURE(0.01),#374,
'DISTANCE_ACCURACY_VALUE',
'Maximum model space distance between geometric entities at asserted c
onnectivities');
#371=UNCERTAINTY_MEASURE_WITH_UNIT(LENGTH_MEASURE(0.01),#374,
'DISTANCE_ACCURACY_VALUE',
'Maximum model space distance between geometric entities at asserted c
onnectivities');
#372=(
GEOMETRIC_REPRESENTATION_CONTEXT(3)
GLOBAL_UNCERTAINTY_ASSIGNED_CONTEXT((#370))
GLOBAL_UNIT_ASSIGNED_CONTEXT((#374,#376,#377))
REPRESENTATION_CONTEXT('','3D')
);
#373=(
GEOMETRIC_REPRESENTATION_CONTEXT(3)
GLOBAL_UNCERTAINTY_ASSIGNED_CONTEXT((#371))
GLOBAL_UNIT_ASSIGNED_CONTEXT((#374,#376,#377))
REPRESENTATION_CONTEXT('','3D')
);
#374=(
LENGTH_UNIT()
NAMED_UNIT(*)
SI_UNIT(.MILLI.,.METRE.)
);
#375=(
LENGTH_UNIT()
NAMED_UNIT(*)
SI_UNIT(.CENTI.,.METRE.)
);
#376=(
NAMED_UNIT(*)
PLANE_ANGLE_UNIT()
SI_UNIT($,.RADIAN.)
);
#377=(
NAMED_UNIT(*)
SI_UNIT($,.STERADIAN.)
SOLID_ANGLE_UNIT()
);
#378=SHAPE_DEFINITION_REPRESENTATION(#379,#380);
#379=PRODUCT_DEFINITION_SHAPE('',$,#382);
#380=SHAPE_REPRESENTATION('',(#242),#372);
#381=PRODUCT_DEFINITION_CONTEXT('part definition',#386,'design');
#382=PRODUCT_DEFINITION('31_Actuator_PQ12_Body_Envelope',
'31_Actuator_PQ12_Body_Envelope',#383,#381);
#383=PRODUCT_DEFINITION_FORMATION('',$,#388);
#384=PRODUCT_RELATED_PRODUCT_CATEGORY('31_Actuator_PQ12_Body_Envelope',
'31_Actuator_PQ12_Body_Envelope',(#388));
#385=APPLICATION_PROTOCOL_DEFINITION('international standard',
'automotive_design',2009,#386);
#386=APPLICATION_CONTEXT(
'Core Data for Automotive Mechanical Design Process');
#387=PRODUCT_CONTEXT('part definition',#386,'mechanical');
#388=PRODUCT('31_Actuator_PQ12_Body_Envelope',
'31_Actuator_PQ12_Body_Envelope',$,(#387));
#389=PRESENTATION_STYLE_ASSIGNMENT((#390));
#390=SURFACE_STYLE_USAGE(.BOTH.,#393);
#391=SURFACE_STYLE_RENDERING_WITH_PROPERTIES($,#397,(#392));
#392=SURFACE_STYLE_TRANSPARENT(0.53999999165535);
#393=SURFACE_SIDE_STYLE('',(#394,#391));
#394=SURFACE_STYLE_FILL_AREA(#395);
#395=FILL_AREA_STYLE('',(#396));
#396=FILL_AREA_STYLE_COLOUR('',#397);
#397=COLOUR_RGB('',0.8,0.8,0.8);
ENDSEC;
END-ISO-10303-21;
