ISO-10303-21;
HEADER;
/* Generated by software containing ST-Developer
 * from STEP Tools, Inc. (www.steptools.com) 
 */

FILE_DESCRIPTION(
/* description */ (''),
/* implementation_level */ '2;1');

FILE_NAME(
/* name */ '33_Actuator_Clevis.step',
/* time_stamp */ '2026-10-08T19:41:12+09:00',
/* author */ ('Reaction Wheel Pendulum project'),
/* organization */ (''),
/* preprocessor_version */ 'ST-DEVELOPER v20.1',
/* originating_system */ 'Autodesk Inventor 2026',
/* authorisation */ '');

FILE_SCHEMA (('AUTOMOTIVE_DESIGN { 1 0 10303 214 3 1 1 }'));
ENDSEC;

DATA;
#10=MECHANICAL_DESIGN_GEOMETRIC_PRESENTATION_REPRESENTATION('',(#19,#20,
#21),#630);
#11=SHAPE_REPRESENTATION_RELATIONSHIP('SRR','None',#637,#12);
#12=ADVANCED_BREP_SHAPE_REPRESENTATION('',(#22,#23,#24),#629);
#13=CIRCLE('',#411,1.5);
#14=CIRCLE('',#412,1.5);
#15=CIRCLE('',#420,1.5);
#16=CIRCLE('',#424,1.5);
#17=CYLINDRICAL_SURFACE('',#410,1.5);
#18=CYLINDRICAL_SURFACE('',#425,1.5);
#19=STYLED_ITEM('',(#646),#22);
#20=STYLED_ITEM('',(#646),#23);
#21=STYLED_ITEM('',(#646),#24);
#22=MANIFOLD_SOLID_BREP('\X2\30BD30EA30C330C9\X0\1',#375);
#23=MANIFOLD_SOLID_BREP('\X2\30BD30EA30C330C9\X0\1',#376);
#24=MANIFOLD_SOLID_BREP('\X2\30BD30EA30C330C9\X0\1',#377);
#25=FACE_OUTER_BOUND('',#47,.T.);
#26=FACE_OUTER_BOUND('',#48,.T.);
#27=FACE_OUTER_BOUND('',#49,.T.);
#28=FACE_OUTER_BOUND('',#50,.T.);
#29=FACE_OUTER_BOUND('',#51,.T.);
#30=FACE_OUTER_BOUND('',#52,.T.);
#31=FACE_OUTER_BOUND('',#53,.T.);
#32=FACE_OUTER_BOUND('',#54,.T.);
#33=FACE_OUTER_BOUND('',#55,.T.);
#34=FACE_OUTER_BOUND('',#56,.T.);
#35=FACE_OUTER_BOUND('',#57,.T.);
#36=FACE_OUTER_BOUND('',#58,.T.);
#37=FACE_OUTER_BOUND('',#59,.T.);
#38=FACE_OUTER_BOUND('',#60,.T.);
#39=FACE_OUTER_BOUND('',#61,.T.);
#40=FACE_OUTER_BOUND('',#62,.T.);
#41=FACE_OUTER_BOUND('',#63,.T.);
#42=FACE_OUTER_BOUND('',#64,.T.);
#43=FACE_OUTER_BOUND('',#65,.T.);
#44=FACE_OUTER_BOUND('',#66,.T.);
#45=FACE_OUTER_BOUND('',#67,.T.);
#46=FACE_OUTER_BOUND('',#68,.T.);
#47=EDGE_LOOP('',(#237,#238,#239,#240));
#48=EDGE_LOOP('',(#241,#242,#243,#244));
#49=EDGE_LOOP('',(#245,#246,#247,#248));
#50=EDGE_LOOP('',(#249,#250,#251,#252));
#51=EDGE_LOOP('',(#253,#254,#255,#256));
#52=EDGE_LOOP('',(#257,#258,#259,#260));
#53=EDGE_LOOP('',(#261,#262,#263,#264,#265,#266,#267,#268));
#54=EDGE_LOOP('',(#269,#270,#271,#272,#273,#274,#275,#276));
#55=EDGE_LOOP('',(#277,#278,#279,#280));
#56=EDGE_LOOP('',(#281,#282,#283,#284));
#57=EDGE_LOOP('',(#285,#286,#287,#288));
#58=EDGE_LOOP('',(#289,#290,#291,#292));
#59=EDGE_LOOP('',(#293,#294,#295,#296));
#60=EDGE_LOOP('',(#297,#298,#299,#300));
#61=EDGE_LOOP('',(#301,#302,#303,#304));
#62=EDGE_LOOP('',(#305,#306,#307,#308));
#63=EDGE_LOOP('',(#309,#310,#311,#312));
#64=EDGE_LOOP('',(#313,#314,#315,#316));
#65=EDGE_LOOP('',(#317,#318,#319,#320));
#66=EDGE_LOOP('',(#321,#322,#323,#324));
#67=EDGE_LOOP('',(#325,#326,#327,#328));
#68=EDGE_LOOP('',(#329,#330,#331,#332));
#69=LINE('',#528,#113);
#70=LINE('',#530,#114);
#71=LINE('',#532,#115);
#72=LINE('',#533,#116);
#73=LINE('',#537,#117);
#74=LINE('',#539,#118);
#75=LINE('',#541,#119);
#76=LINE('',#542,#120);
#77=LINE('',#546,#121);
#78=LINE('',#548,#122);
#79=LINE('',#550,#123);
#80=LINE('',#551,#124);
#81=LINE('',#555,#125);
#82=LINE('',#557,#126);
#83=LINE('',#559,#127);
#84=LINE('',#560,#128);
#85=LINE('',#562,#129);
#86=LINE('',#563,#130);
#87=LINE('',#565,#131);
#88=LINE('',#566,#132);
#89=LINE('',#568,#133);
#90=LINE('',#569,#134);
#91=LINE('',#571,#135);
#92=LINE('',#572,#136);
#93=LINE('',#578,#137);
#94=LINE('',#582,#138);
#95=LINE('',#586,#139);
#96=LINE('',#588,#140);
#97=LINE('',#589,#141);
#98=LINE('',#592,#142);
#99=LINE('',#593,#143);
#100=LINE('',#596,#144);
#101=LINE('',#597,#145);
#102=LINE('',#599,#146);
#103=LINE('',#604,#147);
#104=LINE('',#606,#148);
#105=LINE('',#608,#149);
#106=LINE('',#609,#150);
#107=LINE('',#614,#151);
#108=LINE('',#615,#152);
#109=LINE('',#618,#153);
#110=LINE('',#619,#154);
#111=LINE('',#622,#155);
#112=LINE('',#623,#156);
#113=VECTOR('',#430,10.);
#114=VECTOR('',#431,10.);
#115=VECTOR('',#432,10.);
#116=VECTOR('',#433,10.);
#117=VECTOR('',#436,10.);
#118=VECTOR('',#437,10.);
#119=VECTOR('',#438,10.);
#120=VECTOR('',#439,10.);
#121=VECTOR('',#442,10.);
#122=VECTOR('',#443,10.);
#123=VECTOR('',#444,10.);
#124=VECTOR('',#445,10.);
#125=VECTOR('',#448,10.);
#126=VECTOR('',#449,10.);
#127=VECTOR('',#450,10.);
#128=VECTOR('',#451,10.);
#129=VECTOR('',#454,10.);
#130=VECTOR('',#455,10.);
#131=VECTOR('',#458,10.);
#132=VECTOR('',#459,10.);
#133=VECTOR('',#462,10.);
#134=VECTOR('',#463,10.);
#135=VECTOR('',#466,10.);
#136=VECTOR('',#467,10.);
#137=VECTOR('',#474,10.);
#138=VECTOR('',#477,10.);
#139=VECTOR('',#482,10.);
#140=VECTOR('',#483,10.);
#141=VECTOR('',#484,10.);
#142=VECTOR('',#487,10.);
#143=VECTOR('',#488,10.);
#144=VECTOR('',#491,10.);
#145=VECTOR('',#492,10.);
#146=VECTOR('',#495,10.);
#147=VECTOR('',#500,10.);
#148=VECTOR('',#501,10.);
#149=VECTOR('',#502,10.);
#150=VECTOR('',#503,10.);
#151=VECTOR('',#508,10.);
#152=VECTOR('',#509,10.);
#153=VECTOR('',#512,10.);
#154=VECTOR('',#513,10.);
#155=VECTOR('',#516,10.);
#156=VECTOR('',#517,10.);
#157=VERTEX_POINT('',#526);
#158=VERTEX_POINT('',#527);
#159=VERTEX_POINT('',#529);
#160=VERTEX_POINT('',#531);
#161=VERTEX_POINT('',#535);
#162=VERTEX_POINT('',#536);
#163=VERTEX_POINT('',#538);
#164=VERTEX_POINT('',#540);
#165=VERTEX_POINT('',#544);
#166=VERTEX_POINT('',#545);
#167=VERTEX_POINT('',#547);
#168=VERTEX_POINT('',#549);
#169=VERTEX_POINT('',#553);
#170=VERTEX_POINT('',#554);
#171=VERTEX_POINT('',#556);
#172=VERTEX_POINT('',#558);
#173=VERTEX_POINT('',#576);
#174=VERTEX_POINT('',#577);
#175=VERTEX_POINT('',#579);
#176=VERTEX_POINT('',#581);
#177=VERTEX_POINT('',#585);
#178=VERTEX_POINT('',#587);
#179=VERTEX_POINT('',#591);
#180=VERTEX_POINT('',#595);
#181=VERTEX_POINT('',#602);
#182=VERTEX_POINT('',#603);
#183=VERTEX_POINT('',#605);
#184=VERTEX_POINT('',#607);
#185=VERTEX_POINT('',#611);
#186=VERTEX_POINT('',#613);
#187=VERTEX_POINT('',#617);
#188=VERTEX_POINT('',#621);
#189=EDGE_CURVE('',#157,#158,#69,.T.);
#190=EDGE_CURVE('',#158,#159,#70,.T.);
#191=EDGE_CURVE('',#160,#159,#71,.T.);
#192=EDGE_CURVE('',#157,#160,#72,.T.);
#193=EDGE_CURVE('',#161,#162,#73,.T.);
#194=EDGE_CURVE('',#161,#163,#74,.T.);
#195=EDGE_CURVE('',#164,#163,#75,.T.);
#196=EDGE_CURVE('',#162,#164,#76,.T.);
#197=EDGE_CURVE('',#165,#166,#77,.T.);
#198=EDGE_CURVE('',#166,#167,#78,.T.);
#199=EDGE_CURVE('',#168,#167,#79,.T.);
#200=EDGE_CURVE('',#165,#168,#80,.T.);
#201=EDGE_CURVE('',#169,#170,#81,.T.);
#202=EDGE_CURVE('',#170,#171,#82,.T.);
#203=EDGE_CURVE('',#172,#171,#83,.T.);
#204=EDGE_CURVE('',#169,#172,#84,.T.);
#205=EDGE_CURVE('',#170,#165,#85,.T.);
#206=EDGE_CURVE('',#166,#169,#86,.T.);
#207=EDGE_CURVE('',#162,#168,#87,.T.);
#208=EDGE_CURVE('',#167,#161,#88,.T.);
#209=EDGE_CURVE('',#158,#163,#89,.T.);
#210=EDGE_CURVE('',#159,#172,#90,.T.);
#211=EDGE_CURVE('',#164,#157,#91,.T.);
#212=EDGE_CURVE('',#171,#160,#92,.T.);
#213=EDGE_CURVE('',#173,#174,#93,.T.);
#214=EDGE_CURVE('',#175,#173,#13,.T.);
#215=EDGE_CURVE('',#176,#175,#94,.T.);
#216=EDGE_CURVE('',#174,#176,#14,.T.);
#217=EDGE_CURVE('',#173,#177,#95,.T.);
#218=EDGE_CURVE('',#177,#178,#96,.T.);
#219=EDGE_CURVE('',#178,#175,#97,.T.);
#220=EDGE_CURVE('',#174,#179,#98,.T.);
#221=EDGE_CURVE('',#179,#177,#99,.T.);
#222=EDGE_CURVE('',#180,#176,#100,.T.);
#223=EDGE_CURVE('',#179,#180,#101,.T.);
#224=EDGE_CURVE('',#180,#178,#102,.T.);
#225=EDGE_CURVE('',#181,#182,#103,.T.);
#226=EDGE_CURVE('',#182,#183,#104,.T.);
#227=EDGE_CURVE('',#183,#184,#105,.T.);
#228=EDGE_CURVE('',#181,#184,#106,.T.);
#229=EDGE_CURVE('',#182,#185,#15,.T.);
#230=EDGE_CURVE('',#186,#185,#107,.T.);
#231=EDGE_CURVE('',#183,#186,#108,.T.);
#232=EDGE_CURVE('',#186,#187,#109,.T.);
#233=EDGE_CURVE('',#184,#187,#110,.T.);
#234=EDGE_CURVE('',#185,#188,#111,.T.);
#235=EDGE_CURVE('',#187,#188,#112,.T.);
#236=EDGE_CURVE('',#188,#181,#16,.T.);
#237=ORIENTED_EDGE('',*,*,#189,.T.);
#238=ORIENTED_EDGE('',*,*,#190,.T.);
#239=ORIENTED_EDGE('',*,*,#191,.F.);
#240=ORIENTED_EDGE('',*,*,#192,.F.);
#241=ORIENTED_EDGE('',*,*,#193,.F.);
#242=ORIENTED_EDGE('',*,*,#194,.T.);
#243=ORIENTED_EDGE('',*,*,#195,.F.);
#244=ORIENTED_EDGE('',*,*,#196,.F.);
#245=ORIENTED_EDGE('',*,*,#197,.T.);
#246=ORIENTED_EDGE('',*,*,#198,.T.);
#247=ORIENTED_EDGE('',*,*,#199,.F.);
#248=ORIENTED_EDGE('',*,*,#200,.F.);
#249=ORIENTED_EDGE('',*,*,#201,.T.);
#250=ORIENTED_EDGE('',*,*,#202,.T.);
#251=ORIENTED_EDGE('',*,*,#203,.F.);
#252=ORIENTED_EDGE('',*,*,#204,.F.);
#253=ORIENTED_EDGE('',*,*,#205,.F.);
#254=ORIENTED_EDGE('',*,*,#201,.F.);
#255=ORIENTED_EDGE('',*,*,#206,.F.);
#256=ORIENTED_EDGE('',*,*,#197,.F.);
#257=ORIENTED_EDGE('',*,*,#193,.T.);
#258=ORIENTED_EDGE('',*,*,#207,.T.);
#259=ORIENTED_EDGE('',*,*,#199,.T.);
#260=ORIENTED_EDGE('',*,*,#208,.T.);
#261=ORIENTED_EDGE('',*,*,#209,.T.);
#262=ORIENTED_EDGE('',*,*,#194,.F.);
#263=ORIENTED_EDGE('',*,*,#208,.F.);
#264=ORIENTED_EDGE('',*,*,#198,.F.);
#265=ORIENTED_EDGE('',*,*,#206,.T.);
#266=ORIENTED_EDGE('',*,*,#204,.T.);
#267=ORIENTED_EDGE('',*,*,#210,.F.);
#268=ORIENTED_EDGE('',*,*,#190,.F.);
#269=ORIENTED_EDGE('',*,*,#211,.T.);
#270=ORIENTED_EDGE('',*,*,#192,.T.);
#271=ORIENTED_EDGE('',*,*,#212,.F.);
#272=ORIENTED_EDGE('',*,*,#202,.F.);
#273=ORIENTED_EDGE('',*,*,#205,.T.);
#274=ORIENTED_EDGE('',*,*,#200,.T.);
#275=ORIENTED_EDGE('',*,*,#207,.F.);
#276=ORIENTED_EDGE('',*,*,#196,.T.);
#277=ORIENTED_EDGE('',*,*,#210,.T.);
#278=ORIENTED_EDGE('',*,*,#203,.T.);
#279=ORIENTED_EDGE('',*,*,#212,.T.);
#280=ORIENTED_EDGE('',*,*,#191,.T.);
#281=ORIENTED_EDGE('',*,*,#211,.F.);
#282=ORIENTED_EDGE('',*,*,#195,.T.);
#283=ORIENTED_EDGE('',*,*,#209,.F.);
#284=ORIENTED_EDGE('',*,*,#189,.F.);
#285=ORIENTED_EDGE('',*,*,#213,.F.);
#286=ORIENTED_EDGE('',*,*,#214,.F.);
#287=ORIENTED_EDGE('',*,*,#215,.F.);
#288=ORIENTED_EDGE('',*,*,#216,.F.);
#289=ORIENTED_EDGE('',*,*,#214,.T.);
#290=ORIENTED_EDGE('',*,*,#217,.T.);
#291=ORIENTED_EDGE('',*,*,#218,.T.);
#292=ORIENTED_EDGE('',*,*,#219,.T.);
#293=ORIENTED_EDGE('',*,*,#213,.T.);
#294=ORIENTED_EDGE('',*,*,#220,.T.);
#295=ORIENTED_EDGE('',*,*,#221,.T.);
#296=ORIENTED_EDGE('',*,*,#217,.F.);
#297=ORIENTED_EDGE('',*,*,#216,.T.);
#298=ORIENTED_EDGE('',*,*,#222,.F.);
#299=ORIENTED_EDGE('',*,*,#223,.F.);
#300=ORIENTED_EDGE('',*,*,#220,.F.);
#301=ORIENTED_EDGE('',*,*,#215,.T.);
#302=ORIENTED_EDGE('',*,*,#219,.F.);
#303=ORIENTED_EDGE('',*,*,#224,.F.);
#304=ORIENTED_EDGE('',*,*,#222,.T.);
#305=ORIENTED_EDGE('',*,*,#223,.T.);
#306=ORIENTED_EDGE('',*,*,#224,.T.);
#307=ORIENTED_EDGE('',*,*,#218,.F.);
#308=ORIENTED_EDGE('',*,*,#221,.F.);
#309=ORIENTED_EDGE('',*,*,#225,.T.);
#310=ORIENTED_EDGE('',*,*,#226,.T.);
#311=ORIENTED_EDGE('',*,*,#227,.T.);
#312=ORIENTED_EDGE('',*,*,#228,.F.);
#313=ORIENTED_EDGE('',*,*,#229,.T.);
#314=ORIENTED_EDGE('',*,*,#230,.F.);
#315=ORIENTED_EDGE('',*,*,#231,.F.);
#316=ORIENTED_EDGE('',*,*,#226,.F.);
#317=ORIENTED_EDGE('',*,*,#231,.T.);
#318=ORIENTED_EDGE('',*,*,#232,.T.);
#319=ORIENTED_EDGE('',*,*,#233,.F.);
#320=ORIENTED_EDGE('',*,*,#227,.F.);
#321=ORIENTED_EDGE('',*,*,#234,.T.);
#322=ORIENTED_EDGE('',*,*,#235,.F.);
#323=ORIENTED_EDGE('',*,*,#232,.F.);
#324=ORIENTED_EDGE('',*,*,#230,.T.);
#325=ORIENTED_EDGE('',*,*,#236,.T.);
#326=ORIENTED_EDGE('',*,*,#228,.T.);
#327=ORIENTED_EDGE('',*,*,#233,.T.);
#328=ORIENTED_EDGE('',*,*,#235,.T.);
#329=ORIENTED_EDGE('',*,*,#234,.F.);
#330=ORIENTED_EDGE('',*,*,#229,.F.);
#331=ORIENTED_EDGE('',*,*,#225,.F.);
#332=ORIENTED_EDGE('',*,*,#236,.F.);
#333=PLANE('',#400);
#334=PLANE('',#401);
#335=PLANE('',#402);
#336=PLANE('',#403);
#337=PLANE('',#404);
#338=PLANE('',#405);
#339=PLANE('',#406);
#340=PLANE('',#407);
#341=PLANE('',#408);
#342=PLANE('',#409);
#343=PLANE('',#413);
#344=PLANE('',#414);
#345=PLANE('',#415);
#346=PLANE('',#416);
#347=PLANE('',#417);
#348=PLANE('',#418);
#349=PLANE('',#419);
#350=PLANE('',#421);
#351=PLANE('',#422);
#352=PLANE('',#423);
#353=ADVANCED_FACE('',(#25),#333,.T.);
#354=ADVANCED_FACE('',(#26),#334,.T.);
#355=ADVANCED_FACE('',(#27),#335,.T.);
#356=ADVANCED_FACE('',(#28),#336,.T.);
#357=ADVANCED_FACE('',(#29),#337,.F.);
#358=ADVANCED_FACE('',(#30),#338,.T.);
#359=ADVANCED_FACE('',(#31),#339,.T.);
#360=ADVANCED_FACE('',(#32),#340,.T.);
#361=ADVANCED_FACE('',(#33),#341,.T.);
#362=ADVANCED_FACE('',(#34),#342,.F.);
#363=ADVANCED_FACE('',(#35),#17,.F.);
#364=ADVANCED_FACE('',(#36),#343,.T.);
#365=ADVANCED_FACE('',(#37),#344,.T.);
#366=ADVANCED_FACE('',(#38),#345,.F.);
#367=ADVANCED_FACE('',(#39),#346,.T.);
#368=ADVANCED_FACE('',(#40),#347,.T.);
#369=ADVANCED_FACE('',(#41),#348,.T.);
#370=ADVANCED_FACE('',(#42),#349,.F.);
#371=ADVANCED_FACE('',(#43),#350,.T.);
#372=ADVANCED_FACE('',(#44),#351,.T.);
#373=ADVANCED_FACE('',(#45),#352,.T.);
#374=ADVANCED_FACE('',(#46),#18,.F.);
#375=CLOSED_SHELL('',(#353,#354,#355,#356,#357,#358,#359,#360,#361,#362));
#376=CLOSED_SHELL('',(#363,#364,#365,#366,#367,#368));
#377=CLOSED_SHELL('',(#369,#370,#371,#372,#373,#374));
#378=DERIVED_UNIT_ELEMENT(#381,1.);
#379=DERIVED_UNIT_ELEMENT(#632,-3.);
#380=DIMENSIONAL_EXPONENTS(0.,1.,0.,0.,0.,0.,0.);
#381=(
CONVERSION_BASED_UNIT('gram',#383)
MASS_UNIT()
NAMED_UNIT(#380)
);
#382=(
MASS_UNIT()
NAMED_UNIT(*)
SI_UNIT(.KILO.,.GRAM.)
);
#383=MASS_MEASURE_WITH_UNIT(MASS_MEASURE(0.001),#382);
#384=DERIVED_UNIT((#378,#379));
#385=MEASURE_REPRESENTATION_ITEM('density measure',
POSITIVE_RATIO_MEASURE(2.7),#384);
#386=PROPERTY_DEFINITION_REPRESENTATION(#391,#388);
#387=PROPERTY_DEFINITION_REPRESENTATION(#392,#389);
#388=REPRESENTATION('material name',(#390),#629);
#389=REPRESENTATION('density',(#385),#629);
#390=DESCRIPTIVE_REPRESENTATION_ITEM('\X2\30A230EB30DF30CB30A630E0\X0\ 
6061','\X2\30A230EB30DF30CB30A630E0\X0\ 6061');
#391=PROPERTY_DEFINITION('material property','material name',#639);
#392=PROPERTY_DEFINITION('material property','density of part',#639);
#393=DATE_TIME_ROLE('creation_date');
#394=APPLIED_DATE_AND_TIME_ASSIGNMENT(#395,#393,(#639));
#395=DATE_AND_TIME(#396,#397);
#396=CALENDAR_DATE(2026,8,10);
#397=LOCAL_TIME(0,0,0.,#398);
#398=COORDINATED_UNIVERSAL_TIME_OFFSET(0,0,.BEHIND.);
#399=AXIS2_PLACEMENT_3D('',#524,#426,#427);
#400=AXIS2_PLACEMENT_3D('',#525,#428,#429);
#401=AXIS2_PLACEMENT_3D('',#534,#434,#435);
#402=AXIS2_PLACEMENT_3D('',#543,#440,#441);
#403=AXIS2_PLACEMENT_3D('',#552,#446,#447);
#404=AXIS2_PLACEMENT_3D('',#561,#452,#453);
#405=AXIS2_PLACEMENT_3D('',#564,#456,#457);
#406=AXIS2_PLACEMENT_3D('',#567,#460,#461);
#407=AXIS2_PLACEMENT_3D('',#570,#464,#465);
#408=AXIS2_PLACEMENT_3D('',#573,#468,#469);
#409=AXIS2_PLACEMENT_3D('',#574,#470,#471);
#410=AXIS2_PLACEMENT_3D('',#575,#472,#473);
#411=AXIS2_PLACEMENT_3D('',#580,#475,#476);
#412=AXIS2_PLACEMENT_3D('',#583,#478,#479);
#413=AXIS2_PLACEMENT_3D('',#584,#480,#481);
#414=AXIS2_PLACEMENT_3D('',#590,#485,#486);
#415=AXIS2_PLACEMENT_3D('',#594,#489,#490);
#416=AXIS2_PLACEMENT_3D('',#598,#493,#494);
#417=AXIS2_PLACEMENT_3D('',#600,#496,#497);
#418=AXIS2_PLACEMENT_3D('',#601,#498,#499);
#419=AXIS2_PLACEMENT_3D('',#610,#504,#505);
#420=AXIS2_PLACEMENT_3D('',#612,#506,#507);
#421=AXIS2_PLACEMENT_3D('',#616,#510,#511);
#422=AXIS2_PLACEMENT_3D('',#620,#514,#515);
#423=AXIS2_PLACEMENT_3D('',#624,#518,#519);
#424=AXIS2_PLACEMENT_3D('',#625,#520,#521);
#425=AXIS2_PLACEMENT_3D('',#626,#522,#523);
#426=DIRECTION('axis',(0.,0.,1.));
#427=DIRECTION('refdir',(1.,0.,0.));
#428=DIRECTION('center_axis',(-1.,0.,0.));
#429=DIRECTION('ref_axis',(0.,-1.,0.));
#430=DIRECTION('',(0.,-1.,0.));
#431=DIRECTION('',(0.,0.,1.));
#432=DIRECTION('',(0.,-1.,0.));
#433=DIRECTION('',(0.,0.,1.));
#434=DIRECTION('center_axis',(-1.,0.,0.));
#435=DIRECTION('ref_axis',(0.,-1.,0.));
#436=DIRECTION('',(0.,1.,0.));
#437=DIRECTION('',(0.,0.,1.));
#438=DIRECTION('',(0.,-1.,0.));
#439=DIRECTION('',(0.,0.,1.));
#440=DIRECTION('center_axis',(-1.,0.,0.));
#441=DIRECTION('ref_axis',(0.,-1.,0.));
#442=DIRECTION('',(0.,-1.,0.));
#443=DIRECTION('',(0.,0.,1.));
#444=DIRECTION('',(0.,-1.,0.));
#445=DIRECTION('',(0.,0.,1.));
#446=DIRECTION('center_axis',(1.,0.,0.));
#447=DIRECTION('ref_axis',(0.,1.,0.));
#448=DIRECTION('',(0.,1.,0.));
#449=DIRECTION('',(0.,0.,1.));
#450=DIRECTION('',(0.,1.,0.));
#451=DIRECTION('',(0.,0.,1.));
#452=DIRECTION('center_axis',(0.,0.,1.));
#453=DIRECTION('ref_axis',(1.,0.,0.));
#454=DIRECTION('',(-1.,0.,0.));
#455=DIRECTION('',(1.,0.,0.));
#456=DIRECTION('center_axis',(0.,0.,1.));
#457=DIRECTION('ref_axis',(1.,0.,0.));
#458=DIRECTION('',(-1.,0.,0.));
#459=DIRECTION('',(1.,0.,0.));
#460=DIRECTION('center_axis',(0.,-1.,0.));
#461=DIRECTION('ref_axis',(1.,0.,0.));
#462=DIRECTION('',(1.,0.,0.));
#463=DIRECTION('',(1.,0.,0.));
#464=DIRECTION('center_axis',(0.,1.,0.));
#465=DIRECTION('ref_axis',(-1.,0.,0.));
#466=DIRECTION('',(-1.,0.,0.));
#467=DIRECTION('',(-1.,0.,0.));
#468=DIRECTION('center_axis',(0.,0.,1.));
#469=DIRECTION('ref_axis',(1.,0.,0.));
#470=DIRECTION('center_axis',(0.,0.,1.));
#471=DIRECTION('ref_axis',(1.,0.,0.));
#472=DIRECTION('center_axis',(0.,0.,1.));
#473=DIRECTION('ref_axis',(-1.,0.,0.));
#474=DIRECTION('',(0.,0.,-1.));
#475=DIRECTION('center_axis',(0.,0.,-1.));
#476=DIRECTION('ref_axis',(-1.,0.,0.));
#477=DIRECTION('',(0.,0.,1.));
#478=DIRECTION('center_axis',(0.,0.,1.));
#479=DIRECTION('ref_axis',(-1.,0.,0.));
#480=DIRECTION('center_axis',(0.,0.,1.));
#481=DIRECTION('ref_axis',(1.,0.,0.));
#482=DIRECTION('',(-1.,0.,0.));
#483=DIRECTION('',(0.,-1.,0.));
#484=DIRECTION('',(1.,0.,0.));
#485=DIRECTION('center_axis',(0.,1.,0.));
#486=DIRECTION('ref_axis',(-1.,0.,0.));
#487=DIRECTION('',(-1.,0.,0.));
#488=DIRECTION('',(0.,0.,1.));
#489=DIRECTION('center_axis',(0.,0.,1.));
#490=DIRECTION('ref_axis',(1.,0.,0.));
#491=DIRECTION('',(1.,0.,0.));
#492=DIRECTION('',(0.,-1.,0.));
#493=DIRECTION('center_axis',(0.,-1.,0.));
#494=DIRECTION('ref_axis',(1.,0.,0.));
#495=DIRECTION('',(0.,0.,1.));
#496=DIRECTION('center_axis',(-1.,0.,0.));
#497=DIRECTION('ref_axis',(0.,-1.,0.));
#498=DIRECTION('center_axis',(0.,1.,0.));
#499=DIRECTION('ref_axis',(-1.,0.,0.));
#500=DIRECTION('',(0.,0.,-1.));
#501=DIRECTION('',(-1.,0.,0.));
#502=DIRECTION('',(0.,0.,1.));
#503=DIRECTION('',(-1.,0.,0.));
#504=DIRECTION('center_axis',(0.,0.,1.));
#505=DIRECTION('ref_axis',(1.,0.,0.));
#506=DIRECTION('center_axis',(0.,0.,1.));
#507=DIRECTION('ref_axis',(-1.,0.,0.));
#508=DIRECTION('',(1.,0.,0.));
#509=DIRECTION('',(0.,-1.,0.));
#510=DIRECTION('center_axis',(-1.,0.,0.));
#511=DIRECTION('ref_axis',(0.,-1.,0.));
#512=DIRECTION('',(0.,0.,1.));
#513=DIRECTION('',(0.,-1.,0.));
#514=DIRECTION('center_axis',(0.,-1.,0.));
#515=DIRECTION('ref_axis',(1.,0.,0.));
#516=DIRECTION('',(0.,0.,1.));
#517=DIRECTION('',(1.,0.,0.));
#518=DIRECTION('center_axis',(0.,0.,1.));
#519=DIRECTION('ref_axis',(1.,0.,0.));
#520=DIRECTION('center_axis',(0.,0.,-1.));
#521=DIRECTION('ref_axis',(-1.,0.,0.));
#522=DIRECTION('center_axis',(0.,0.,1.));
#523=DIRECTION('ref_axis',(-1.,0.,0.));
#524=CARTESIAN_POINT('',(0.,0.,0.));
#525=CARTESIAN_POINT('Origin',(66.,-30.,41.));
#526=CARTESIAN_POINT('',(66.,-30.,41.));
#527=CARTESIAN_POINT('',(66.,-31.5,41.));
#528=CARTESIAN_POINT('',(66.,-30.,41.));
#529=CARTESIAN_POINT('',(66.,-31.5,43.));
#530=CARTESIAN_POINT('',(66.,-31.5,41.));
#531=CARTESIAN_POINT('',(66.,-30.,43.));
#532=CARTESIAN_POINT('',(66.,-30.,43.));
#533=CARTESIAN_POINT('',(66.,-30.,41.));
#534=CARTESIAN_POINT('Origin',(68.,-30.,36.));
#535=CARTESIAN_POINT('',(68.,-31.5,36.));
#536=CARTESIAN_POINT('',(68.,-30.,36.));
#537=CARTESIAN_POINT('',(68.,-30.375,36.));
#538=CARTESIAN_POINT('',(68.,-31.5,41.));
#539=CARTESIAN_POINT('',(68.,-31.5,36.));
#540=CARTESIAN_POINT('',(68.,-30.,41.));
#541=CARTESIAN_POINT('',(68.,-30.,41.));
#542=CARTESIAN_POINT('',(68.,-30.,36.));
#543=CARTESIAN_POINT('Origin',(66.,-30.,34.));
#544=CARTESIAN_POINT('',(66.,-30.,34.));
#545=CARTESIAN_POINT('',(66.,-31.5,34.));
#546=CARTESIAN_POINT('',(66.,-30.,34.));
#547=CARTESIAN_POINT('',(66.,-31.5,36.));
#548=CARTESIAN_POINT('',(66.,-31.5,34.));
#549=CARTESIAN_POINT('',(66.,-30.,36.));
#550=CARTESIAN_POINT('',(66.,-30.,36.));
#551=CARTESIAN_POINT('',(66.,-30.,34.));
#552=CARTESIAN_POINT('Origin',(69.,-31.5,34.));
#553=CARTESIAN_POINT('',(69.,-31.5,34.));
#554=CARTESIAN_POINT('',(69.,-30.,34.));
#555=CARTESIAN_POINT('',(69.,-31.5,34.));
#556=CARTESIAN_POINT('',(69.,-30.,43.));
#557=CARTESIAN_POINT('',(69.,-30.,34.));
#558=CARTESIAN_POINT('',(69.,-31.5,43.));
#559=CARTESIAN_POINT('',(69.,-31.5,43.));
#560=CARTESIAN_POINT('',(69.,-31.5,34.));
#561=CARTESIAN_POINT('Origin',(65.,-30.75,34.));
#562=CARTESIAN_POINT('',(69.,-30.,34.));
#563=CARTESIAN_POINT('',(62.5,-31.5,34.));
#564=CARTESIAN_POINT('Origin',(65.,-30.75,36.));
#565=CARTESIAN_POINT('',(67.5,-30.,36.));
#566=CARTESIAN_POINT('',(62.5,-31.5,36.));
#567=CARTESIAN_POINT('Origin',(62.5,-31.5,34.));
#568=CARTESIAN_POINT('',(66.,-31.5,41.));
#569=CARTESIAN_POINT('',(62.5,-31.5,43.));
#570=CARTESIAN_POINT('Origin',(67.5,-30.,34.));
#571=CARTESIAN_POINT('',(67.5,-30.,41.));
#572=CARTESIAN_POINT('',(69.,-30.,43.));
#573=CARTESIAN_POINT('Origin',(65.,-30.75,43.));
#574=CARTESIAN_POINT('Origin',(65.,-30.75,41.));
#575=CARTESIAN_POINT('Origin',(65.,-31.,34.));
#576=CARTESIAN_POINT('',(63.8819660112501,-30.,36.));
#577=CARTESIAN_POINT('',(63.8819660112501,-30.,34.));
#578=CARTESIAN_POINT('',(63.8819660112501,-30.,34.));
#579=CARTESIAN_POINT('',(63.5857864376269,-31.5,36.));
#580=CARTESIAN_POINT('Origin',(65.,-31.,36.));
#581=CARTESIAN_POINT('',(63.5857864376269,-31.5,34.));
#582=CARTESIAN_POINT('',(63.5857864376269,-31.5,34.));
#583=CARTESIAN_POINT('Origin',(65.,-31.,34.));
#584=CARTESIAN_POINT('Origin',(65.,-30.75,36.));
#585=CARTESIAN_POINT('',(62.5,-30.,36.));
#586=CARTESIAN_POINT('',(67.5,-30.,36.));
#587=CARTESIAN_POINT('',(62.5,-31.5,36.));
#588=CARTESIAN_POINT('',(62.5,-30.,36.));
#589=CARTESIAN_POINT('',(62.5,-31.5,36.));
#590=CARTESIAN_POINT('Origin',(67.5,-30.,34.));
#591=CARTESIAN_POINT('',(62.5,-30.,34.));
#592=CARTESIAN_POINT('',(67.5,-30.,34.));
#593=CARTESIAN_POINT('',(62.5,-30.,34.));
#594=CARTESIAN_POINT('Origin',(65.,-30.75,34.));
#595=CARTESIAN_POINT('',(62.5,-31.5,34.));
#596=CARTESIAN_POINT('',(62.5,-31.5,34.));
#597=CARTESIAN_POINT('',(62.5,-30.,34.));
#598=CARTESIAN_POINT('Origin',(62.5,-31.5,34.));
#599=CARTESIAN_POINT('',(62.5,-31.5,34.));
#600=CARTESIAN_POINT('Origin',(62.5,-30.,34.));
#601=CARTESIAN_POINT('Origin',(67.5,-30.,34.));
#602=CARTESIAN_POINT('',(63.8819660112501,-30.,43.));
#603=CARTESIAN_POINT('',(63.8819660112501,-30.,41.));
#604=CARTESIAN_POINT('',(63.8819660112501,-30.,34.));
#605=CARTESIAN_POINT('',(62.5,-30.,41.));
#606=CARTESIAN_POINT('',(67.5,-30.,41.));
#607=CARTESIAN_POINT('',(62.5,-30.,43.));
#608=CARTESIAN_POINT('',(62.5,-30.,41.));
#609=CARTESIAN_POINT('',(67.5,-30.,43.));
#610=CARTESIAN_POINT('Origin',(65.,-30.75,41.));
#611=CARTESIAN_POINT('',(63.5857864376269,-31.5,41.));
#612=CARTESIAN_POINT('Origin',(65.,-31.,41.));
#613=CARTESIAN_POINT('',(62.5,-31.5,41.));
#614=CARTESIAN_POINT('',(62.5,-31.5,41.));
#615=CARTESIAN_POINT('',(62.5,-30.,41.));
#616=CARTESIAN_POINT('Origin',(62.5,-30.,41.));
#617=CARTESIAN_POINT('',(62.5,-31.5,43.));
#618=CARTESIAN_POINT('',(62.5,-31.5,41.));
#619=CARTESIAN_POINT('',(62.5,-30.,43.));
#620=CARTESIAN_POINT('Origin',(62.5,-31.5,34.));
#621=CARTESIAN_POINT('',(63.5857864376269,-31.5,43.));
#622=CARTESIAN_POINT('',(63.5857864376269,-31.5,34.));
#623=CARTESIAN_POINT('',(62.5,-31.5,43.));
#624=CARTESIAN_POINT('Origin',(65.,-30.75,43.));
#625=CARTESIAN_POINT('Origin',(65.,-31.,43.));
#626=CARTESIAN_POINT('Origin',(65.,-31.,34.));
#627=UNCERTAINTY_MEASURE_WITH_UNIT(LENGTH_MEASURE(0.01),#631,
'DISTANCE_ACCURACY_VALUE',
'Maximum model space distance between geometric entities at asserted c
onnectivities');
#628=UNCERTAINTY_MEASURE_WITH_UNIT(LENGTH_MEASURE(0.01),#631,
'DISTANCE_ACCURACY_VALUE',
'Maximum model space distance between geometric entities at asserted c
onnectivities');
#629=(
GEOMETRIC_REPRESENTATION_CONTEXT(3)
GLOBAL_UNCERTAINTY_ASSIGNED_CONTEXT((#627))
GLOBAL_UNIT_ASSIGNED_CONTEXT((#631,#633,#634))
REPRESENTATION_CONTEXT('','3D')
);
#630=(
GEOMETRIC_REPRESENTATION_CONTEXT(3)
GLOBAL_UNCERTAINTY_ASSIGNED_CONTEXT((#628))
GLOBAL_UNIT_ASSIGNED_CONTEXT((#631,#633,#634))
REPRESENTATION_CONTEXT('','3D')
);
#631=(
LENGTH_UNIT()
NAMED_UNIT(*)
SI_UNIT(.MILLI.,.METRE.)
);
#632=(
LENGTH_UNIT()
NAMED_UNIT(*)
SI_UNIT(.CENTI.,.METRE.)
);
#633=(
NAMED_UNIT(*)
PLANE_ANGLE_UNIT()
SI_UNIT($,.RADIAN.)
);
#634=(
NAMED_UNIT(*)
SI_UNIT($,.STERADIAN.)
SOLID_ANGLE_UNIT()
);
#635=SHAPE_DEFINITION_REPRESENTATION(#636,#637);
#636=PRODUCT_DEFINITION_SHAPE('',$,#639);
#637=SHAPE_REPRESENTATION('',(#399),#629);
#638=PRODUCT_DEFINITION_CONTEXT('part definition',#643,'design');
#639=PRODUCT_DEFINITION('33_Actuator_Clevis','33_Actuator_Clevis',#640,
#638);
#640=PRODUCT_DEFINITION_FORMATION('',$,#645);
#641=PRODUCT_RELATED_PRODUCT_CATEGORY('33_Actuator_Clevis',
'33_Actuator_Clevis',(#645));
#642=APPLICATION_PROTOCOL_DEFINITION('international standard',
'automotive_design',2009,#643);
#643=APPLICATION_CONTEXT(
'Core Data for Automotive Mechanical Design Process');
#644=PRODUCT_CONTEXT('part definition',#643,'mechanical');
#645=PRODUCT('33_Actuator_Clevis','33_Actuator_Clevis',$,(#644));
#646=PRESENTATION_STYLE_ASSIGNMENT((#647));
#647=SURFACE_STYLE_USAGE(.BOTH.,#650);
#648=SURFACE_STYLE_RENDERING_WITH_PROPERTIES($,#654,(#649));
#649=SURFACE_STYLE_TRANSPARENT(0.);
#650=SURFACE_SIDE_STYLE('',(#651,#648));
#651=SURFACE_STYLE_FILL_AREA(#652);
#652=FILL_AREA_STYLE('',(#653));
#653=FILL_AREA_STYLE_COLOUR('',#654);
#654=COLOUR_RGB('',0.996078431372549,0.996078431372549,1.);
ENDSEC;
END-ISO-10303-21;
