ISO-10303-21;
HEADER;
/* Generated by software containing ST-Developer
 * from STEP Tools, Inc. (www.steptools.com) 
 */

FILE_DESCRIPTION(
/* description */ (''),
/* implementation_level */ '2;1');

FILE_NAME(
/* name */ '34_Actuator_Mount.step',
/* time_stamp */ '2026-10-08T19:41:12+09:00',
/* author */ ('Reaction Wheel Pendulum project'),
/* organization */ (''),
/* preprocessor_version */ 'ST-DEVELOPER v20.1',
/* originating_system */ 'Autodesk Inventor 2026',
/* authorisation */ '');

FILE_SCHEMA (('AUTOMOTIVE_DESIGN { 1 0 10303 214 3 1 1 }'));
ENDSEC;

DATA;
#10=MECHANICAL_DESIGN_GEOMETRIC_PRESENTATION_REPRESENTATION('',(#13),#554);
#11=SHAPE_REPRESENTATION_RELATIONSHIP('SRR','None',#561,#12);
#12=ADVANCED_BREP_SHAPE_REPRESENTATION('',(#14),#553);
#13=STYLED_ITEM('',(#570),#14);
#14=MANIFOLD_SOLID_BREP('\X2\30BD30EA30C330C9\X0\1',#333);
#15=FACE_BOUND('',#62,.T.);
#16=FACE_BOUND('',#68,.T.);
#17=FACE_BOUND('',#74,.T.);
#18=FACE_BOUND('',#75,.T.);
#19=FACE_BOUND('',#77,.T.);
#20=FACE_BOUND('',#78,.T.);
#21=PLANE('',#362);
#22=PLANE('',#363);
#23=PLANE('',#364);
#24=PLANE('',#365);
#25=PLANE('',#366);
#26=PLANE('',#367);
#27=PLANE('',#368);
#28=PLANE('',#369);
#29=PLANE('',#370);
#30=PLANE('',#371);
#31=PLANE('',#372);
#32=PLANE('',#373);
#33=PLANE('',#374);
#34=PLANE('',#375);
#35=PLANE('',#376);
#36=PLANE('',#377);
#37=FACE_OUTER_BOUND('',#55,.T.);
#38=FACE_OUTER_BOUND('',#56,.T.);
#39=FACE_OUTER_BOUND('',#57,.T.);
#40=FACE_OUTER_BOUND('',#58,.T.);
#41=FACE_OUTER_BOUND('',#59,.T.);
#42=FACE_OUTER_BOUND('',#60,.T.);
#43=FACE_OUTER_BOUND('',#61,.T.);
#44=FACE_OUTER_BOUND('',#63,.T.);
#45=FACE_OUTER_BOUND('',#64,.T.);
#46=FACE_OUTER_BOUND('',#65,.T.);
#47=FACE_OUTER_BOUND('',#66,.T.);
#48=FACE_OUTER_BOUND('',#67,.T.);
#49=FACE_OUTER_BOUND('',#69,.T.);
#50=FACE_OUTER_BOUND('',#70,.T.);
#51=FACE_OUTER_BOUND('',#71,.T.);
#52=FACE_OUTER_BOUND('',#72,.T.);
#53=FACE_OUTER_BOUND('',#73,.T.);
#54=FACE_OUTER_BOUND('',#76,.T.);
#55=EDGE_LOOP('',(#229,#230,#231,#232));
#56=EDGE_LOOP('',(#233,#234,#235,#236));
#57=EDGE_LOOP('',(#237,#238,#239,#240));
#58=EDGE_LOOP('',(#241,#242,#243,#244));
#59=EDGE_LOOP('',(#245,#246,#247,#248));
#60=EDGE_LOOP('',(#249,#250,#251,#252));
#61=EDGE_LOOP('',(#253,#254,#255,#256));
#62=EDGE_LOOP('',(#257));
#63=EDGE_LOOP('',(#258,#259,#260,#261));
#64=EDGE_LOOP('',(#262,#263,#264,#265));
#65=EDGE_LOOP('',(#266,#267,#268,#269));
#66=EDGE_LOOP('',(#270,#271,#272,#273));
#67=EDGE_LOOP('',(#274,#275,#276,#277));
#68=EDGE_LOOP('',(#278));
#69=EDGE_LOOP('',(#279,#280,#281,#282));
#70=EDGE_LOOP('',(#283,#284,#285,#286));
#71=EDGE_LOOP('',(#287,#288,#289,#290));
#72=EDGE_LOOP('',(#291,#292,#293,#294));
#73=EDGE_LOOP('',(#295,#296,#297,#298));
#74=EDGE_LOOP('',(#299));
#75=EDGE_LOOP('',(#300));
#76=EDGE_LOOP('',(#301,#302,#303,#304));
#77=EDGE_LOOP('',(#305,#306,#307,#308));
#78=EDGE_LOOP('',(#309,#310,#311,#312));
#79=LINE('',#467,#117);
#80=LINE('',#473,#118);
#81=LINE('',#478,#119);
#82=LINE('',#480,#120);
#83=LINE('',#482,#121);
#84=LINE('',#483,#122);
#85=LINE('',#486,#123);
#86=LINE('',#488,#124);
#87=LINE('',#489,#125);
#88=LINE('',#492,#126);
#89=LINE('',#494,#127);
#90=LINE('',#495,#128);
#91=LINE('',#497,#129);
#92=LINE('',#498,#130);
#93=LINE('',#503,#131);
#94=LINE('',#505,#132);
#95=LINE('',#507,#133);
#96=LINE('',#508,#134);
#97=LINE('',#511,#135);
#98=LINE('',#513,#136);
#99=LINE('',#514,#137);
#100=LINE('',#517,#138);
#101=LINE('',#519,#139);
#102=LINE('',#520,#140);
#103=LINE('',#522,#141);
#104=LINE('',#523,#142);
#105=LINE('',#528,#143);
#106=LINE('',#530,#144);
#107=LINE('',#532,#145);
#108=LINE('',#533,#146);
#109=LINE('',#536,#147);
#110=LINE('',#538,#148);
#111=LINE('',#539,#149);
#112=LINE('',#542,#150);
#113=LINE('',#544,#151);
#114=LINE('',#545,#152);
#115=LINE('',#547,#153);
#116=LINE('',#548,#154);
#117=VECTOR('',#384,1.6);
#118=VECTOR('',#391,1.6);
#119=VECTOR('',#396,10.);
#120=VECTOR('',#397,10.);
#121=VECTOR('',#398,10.);
#122=VECTOR('',#399,10.);
#123=VECTOR('',#402,10.);
#124=VECTOR('',#403,10.);
#125=VECTOR('',#404,10.);
#126=VECTOR('',#407,10.);
#127=VECTOR('',#408,10.);
#128=VECTOR('',#409,10.);
#129=VECTOR('',#412,10.);
#130=VECTOR('',#413,10.);
#131=VECTOR('',#418,10.);
#132=VECTOR('',#419,10.);
#133=VECTOR('',#420,10.);
#134=VECTOR('',#421,10.);
#135=VECTOR('',#424,10.);
#136=VECTOR('',#425,10.);
#137=VECTOR('',#426,10.);
#138=VECTOR('',#429,10.);
#139=VECTOR('',#430,10.);
#140=VECTOR('',#431,10.);
#141=VECTOR('',#434,10.);
#142=VECTOR('',#435,10.);
#143=VECTOR('',#440,10.);
#144=VECTOR('',#441,10.);
#145=VECTOR('',#442,10.);
#146=VECTOR('',#443,10.);
#147=VECTOR('',#446,10.);
#148=VECTOR('',#447,10.);
#149=VECTOR('',#448,10.);
#150=VECTOR('',#451,10.);
#151=VECTOR('',#452,10.);
#152=VECTOR('',#453,10.);
#153=VECTOR('',#456,10.);
#154=VECTOR('',#457,10.);
#155=CIRCLE('',#357,1.6);
#156=CIRCLE('',#358,1.6);
#157=CIRCLE('',#360,1.6);
#158=CIRCLE('',#361,1.6);
#159=VERTEX_POINT('',#464);
#160=VERTEX_POINT('',#466);
#161=VERTEX_POINT('',#470);
#162=VERTEX_POINT('',#472);
#163=VERTEX_POINT('',#476);
#164=VERTEX_POINT('',#477);
#165=VERTEX_POINT('',#479);
#166=VERTEX_POINT('',#481);
#167=VERTEX_POINT('',#485);
#168=VERTEX_POINT('',#487);
#169=VERTEX_POINT('',#491);
#170=VERTEX_POINT('',#493);
#171=VERTEX_POINT('',#501);
#172=VERTEX_POINT('',#502);
#173=VERTEX_POINT('',#504);
#174=VERTEX_POINT('',#506);
#175=VERTEX_POINT('',#510);
#176=VERTEX_POINT('',#512);
#177=VERTEX_POINT('',#516);
#178=VERTEX_POINT('',#518);
#179=VERTEX_POINT('',#526);
#180=VERTEX_POINT('',#527);
#181=VERTEX_POINT('',#529);
#182=VERTEX_POINT('',#531);
#183=VERTEX_POINT('',#535);
#184=VERTEX_POINT('',#537);
#185=VERTEX_POINT('',#541);
#186=VERTEX_POINT('',#543);
#187=EDGE_CURVE('',#159,#159,#155,.T.);
#188=EDGE_CURVE('',#159,#160,#79,.T.);
#189=EDGE_CURVE('',#160,#160,#156,.T.);
#190=EDGE_CURVE('',#161,#161,#157,.T.);
#191=EDGE_CURVE('',#161,#162,#80,.T.);
#192=EDGE_CURVE('',#162,#162,#158,.T.);
#193=EDGE_CURVE('',#163,#164,#81,.T.);
#194=EDGE_CURVE('',#164,#165,#82,.T.);
#195=EDGE_CURVE('',#166,#165,#83,.T.);
#196=EDGE_CURVE('',#163,#166,#84,.T.);
#197=EDGE_CURVE('',#167,#163,#85,.T.);
#198=EDGE_CURVE('',#168,#166,#86,.T.);
#199=EDGE_CURVE('',#167,#168,#87,.T.);
#200=EDGE_CURVE('',#169,#167,#88,.T.);
#201=EDGE_CURVE('',#170,#168,#89,.T.);
#202=EDGE_CURVE('',#169,#170,#90,.T.);
#203=EDGE_CURVE('',#164,#169,#91,.T.);
#204=EDGE_CURVE('',#165,#170,#92,.T.);
#205=EDGE_CURVE('',#171,#172,#93,.T.);
#206=EDGE_CURVE('',#172,#173,#94,.T.);
#207=EDGE_CURVE('',#174,#173,#95,.T.);
#208=EDGE_CURVE('',#171,#174,#96,.T.);
#209=EDGE_CURVE('',#175,#171,#97,.T.);
#210=EDGE_CURVE('',#176,#174,#98,.T.);
#211=EDGE_CURVE('',#175,#176,#99,.T.);
#212=EDGE_CURVE('',#177,#175,#100,.T.);
#213=EDGE_CURVE('',#178,#176,#101,.T.);
#214=EDGE_CURVE('',#177,#178,#102,.T.);
#215=EDGE_CURVE('',#172,#177,#103,.T.);
#216=EDGE_CURVE('',#173,#178,#104,.T.);
#217=EDGE_CURVE('',#179,#180,#105,.T.);
#218=EDGE_CURVE('',#180,#181,#106,.T.);
#219=EDGE_CURVE('',#182,#181,#107,.T.);
#220=EDGE_CURVE('',#179,#182,#108,.T.);
#221=EDGE_CURVE('',#183,#179,#109,.T.);
#222=EDGE_CURVE('',#184,#182,#110,.T.);
#223=EDGE_CURVE('',#183,#184,#111,.T.);
#224=EDGE_CURVE('',#185,#183,#112,.T.);
#225=EDGE_CURVE('',#186,#184,#113,.T.);
#226=EDGE_CURVE('',#185,#186,#114,.T.);
#227=EDGE_CURVE('',#180,#185,#115,.T.);
#228=EDGE_CURVE('',#181,#186,#116,.T.);
#229=ORIENTED_EDGE('',*,*,#187,.F.);
#230=ORIENTED_EDGE('',*,*,#188,.T.);
#231=ORIENTED_EDGE('',*,*,#189,.F.);
#232=ORIENTED_EDGE('',*,*,#188,.F.);
#233=ORIENTED_EDGE('',*,*,#190,.F.);
#234=ORIENTED_EDGE('',*,*,#191,.T.);
#235=ORIENTED_EDGE('',*,*,#192,.F.);
#236=ORIENTED_EDGE('',*,*,#191,.F.);
#237=ORIENTED_EDGE('',*,*,#193,.T.);
#238=ORIENTED_EDGE('',*,*,#194,.T.);
#239=ORIENTED_EDGE('',*,*,#195,.F.);
#240=ORIENTED_EDGE('',*,*,#196,.F.);
#241=ORIENTED_EDGE('',*,*,#197,.T.);
#242=ORIENTED_EDGE('',*,*,#196,.T.);
#243=ORIENTED_EDGE('',*,*,#198,.F.);
#244=ORIENTED_EDGE('',*,*,#199,.F.);
#245=ORIENTED_EDGE('',*,*,#200,.T.);
#246=ORIENTED_EDGE('',*,*,#199,.T.);
#247=ORIENTED_EDGE('',*,*,#201,.F.);
#248=ORIENTED_EDGE('',*,*,#202,.F.);
#249=ORIENTED_EDGE('',*,*,#203,.T.);
#250=ORIENTED_EDGE('',*,*,#202,.T.);
#251=ORIENTED_EDGE('',*,*,#204,.F.);
#252=ORIENTED_EDGE('',*,*,#194,.F.);
#253=ORIENTED_EDGE('',*,*,#203,.F.);
#254=ORIENTED_EDGE('',*,*,#193,.F.);
#255=ORIENTED_EDGE('',*,*,#197,.F.);
#256=ORIENTED_EDGE('',*,*,#200,.F.);
#257=ORIENTED_EDGE('',*,*,#187,.T.);
#258=ORIENTED_EDGE('',*,*,#205,.T.);
#259=ORIENTED_EDGE('',*,*,#206,.T.);
#260=ORIENTED_EDGE('',*,*,#207,.F.);
#261=ORIENTED_EDGE('',*,*,#208,.F.);
#262=ORIENTED_EDGE('',*,*,#209,.T.);
#263=ORIENTED_EDGE('',*,*,#208,.T.);
#264=ORIENTED_EDGE('',*,*,#210,.F.);
#265=ORIENTED_EDGE('',*,*,#211,.F.);
#266=ORIENTED_EDGE('',*,*,#212,.T.);
#267=ORIENTED_EDGE('',*,*,#211,.T.);
#268=ORIENTED_EDGE('',*,*,#213,.F.);
#269=ORIENTED_EDGE('',*,*,#214,.F.);
#270=ORIENTED_EDGE('',*,*,#215,.T.);
#271=ORIENTED_EDGE('',*,*,#214,.T.);
#272=ORIENTED_EDGE('',*,*,#216,.F.);
#273=ORIENTED_EDGE('',*,*,#206,.F.);
#274=ORIENTED_EDGE('',*,*,#215,.F.);
#275=ORIENTED_EDGE('',*,*,#205,.F.);
#276=ORIENTED_EDGE('',*,*,#209,.F.);
#277=ORIENTED_EDGE('',*,*,#212,.F.);
#278=ORIENTED_EDGE('',*,*,#190,.T.);
#279=ORIENTED_EDGE('',*,*,#217,.T.);
#280=ORIENTED_EDGE('',*,*,#218,.T.);
#281=ORIENTED_EDGE('',*,*,#219,.F.);
#282=ORIENTED_EDGE('',*,*,#220,.F.);
#283=ORIENTED_EDGE('',*,*,#221,.T.);
#284=ORIENTED_EDGE('',*,*,#220,.T.);
#285=ORIENTED_EDGE('',*,*,#222,.F.);
#286=ORIENTED_EDGE('',*,*,#223,.F.);
#287=ORIENTED_EDGE('',*,*,#224,.T.);
#288=ORIENTED_EDGE('',*,*,#223,.T.);
#289=ORIENTED_EDGE('',*,*,#225,.F.);
#290=ORIENTED_EDGE('',*,*,#226,.F.);
#291=ORIENTED_EDGE('',*,*,#227,.T.);
#292=ORIENTED_EDGE('',*,*,#226,.T.);
#293=ORIENTED_EDGE('',*,*,#228,.F.);
#294=ORIENTED_EDGE('',*,*,#218,.F.);
#295=ORIENTED_EDGE('',*,*,#228,.T.);
#296=ORIENTED_EDGE('',*,*,#225,.T.);
#297=ORIENTED_EDGE('',*,*,#222,.T.);
#298=ORIENTED_EDGE('',*,*,#219,.T.);
#299=ORIENTED_EDGE('',*,*,#189,.T.);
#300=ORIENTED_EDGE('',*,*,#192,.T.);
#301=ORIENTED_EDGE('',*,*,#227,.F.);
#302=ORIENTED_EDGE('',*,*,#217,.F.);
#303=ORIENTED_EDGE('',*,*,#221,.F.);
#304=ORIENTED_EDGE('',*,*,#224,.F.);
#305=ORIENTED_EDGE('',*,*,#195,.T.);
#306=ORIENTED_EDGE('',*,*,#204,.T.);
#307=ORIENTED_EDGE('',*,*,#201,.T.);
#308=ORIENTED_EDGE('',*,*,#198,.T.);
#309=ORIENTED_EDGE('',*,*,#207,.T.);
#310=ORIENTED_EDGE('',*,*,#216,.T.);
#311=ORIENTED_EDGE('',*,*,#213,.T.);
#312=ORIENTED_EDGE('',*,*,#210,.T.);
#313=CYLINDRICAL_SURFACE('',#356,1.6);
#314=CYLINDRICAL_SURFACE('',#359,1.6);
#315=ADVANCED_FACE('',(#37),#313,.F.);
#316=ADVANCED_FACE('',(#38),#314,.F.);
#317=ADVANCED_FACE('',(#39),#21,.T.);
#318=ADVANCED_FACE('',(#40),#22,.T.);
#319=ADVANCED_FACE('',(#41),#23,.T.);
#320=ADVANCED_FACE('',(#42),#24,.T.);
#321=ADVANCED_FACE('',(#43,#15),#25,.F.);
#322=ADVANCED_FACE('',(#44),#26,.T.);
#323=ADVANCED_FACE('',(#45),#27,.T.);
#324=ADVANCED_FACE('',(#46),#28,.T.);
#325=ADVANCED_FACE('',(#47),#29,.T.);
#326=ADVANCED_FACE('',(#48,#16),#30,.F.);
#327=ADVANCED_FACE('',(#49),#31,.T.);
#328=ADVANCED_FACE('',(#50),#32,.T.);
#329=ADVANCED_FACE('',(#51),#33,.T.);
#330=ADVANCED_FACE('',(#52),#34,.T.);
#331=ADVANCED_FACE('',(#53,#17,#18),#35,.T.);
#332=ADVANCED_FACE('',(#54,#19,#20),#36,.F.);
#333=CLOSED_SHELL('',(#315,#316,#317,#318,#319,#320,#321,#322,#323,#324,
#325,#326,#327,#328,#329,#330,#331,#332));
#334=DERIVED_UNIT_ELEMENT(#337,1.);
#335=DERIVED_UNIT_ELEMENT(#556,-3.);
#336=DIMENSIONAL_EXPONENTS(0.,1.,0.,0.,0.,0.,0.);
#337=(
CONVERSION_BASED_UNIT('gram',#339)
MASS_UNIT()
NAMED_UNIT(#336)
);
#338=(
MASS_UNIT()
NAMED_UNIT(*)
SI_UNIT(.KILO.,.GRAM.)
);
#339=MASS_MEASURE_WITH_UNIT(MASS_MEASURE(0.001),#338);
#340=DERIVED_UNIT((#334,#335));
#341=MEASURE_REPRESENTATION_ITEM('density measure',
POSITIVE_RATIO_MEASURE(2.7),#340);
#342=PROPERTY_DEFINITION_REPRESENTATION(#347,#344);
#343=PROPERTY_DEFINITION_REPRESENTATION(#348,#345);
#344=REPRESENTATION('material name',(#346),#553);
#345=REPRESENTATION('density',(#341),#553);
#346=DESCRIPTIVE_REPRESENTATION_ITEM('\X2\30A230EB30DF30CB30A630E0\X0\ 
6061','\X2\30A230EB30DF30CB30A630E0\X0\ 6061');
#347=PROPERTY_DEFINITION('material property','material name',#563);
#348=PROPERTY_DEFINITION('material property','density of part',#563);
#349=DATE_TIME_ROLE('creation_date');
#350=APPLIED_DATE_AND_TIME_ASSIGNMENT(#351,#349,(#563));
#351=DATE_AND_TIME(#352,#353);
#352=CALENDAR_DATE(2026,8,10);
#353=LOCAL_TIME(0,0,0.,#354);
#354=COORDINATED_UNIVERSAL_TIME_OFFSET(0,0,.BEHIND.);
#355=AXIS2_PLACEMENT_3D('',#462,#378,#379);
#356=AXIS2_PLACEMENT_3D('',#463,#380,#381);
#357=AXIS2_PLACEMENT_3D('',#465,#382,#383);
#358=AXIS2_PLACEMENT_3D('',#468,#385,#386);
#359=AXIS2_PLACEMENT_3D('',#469,#387,#388);
#360=AXIS2_PLACEMENT_3D('',#471,#389,#390);
#361=AXIS2_PLACEMENT_3D('',#474,#392,#393);
#362=AXIS2_PLACEMENT_3D('',#475,#394,#395);
#363=AXIS2_PLACEMENT_3D('',#484,#400,#401);
#364=AXIS2_PLACEMENT_3D('',#490,#405,#406);
#365=AXIS2_PLACEMENT_3D('',#496,#410,#411);
#366=AXIS2_PLACEMENT_3D('',#499,#414,#415);
#367=AXIS2_PLACEMENT_3D('',#500,#416,#417);
#368=AXIS2_PLACEMENT_3D('',#509,#422,#423);
#369=AXIS2_PLACEMENT_3D('',#515,#427,#428);
#370=AXIS2_PLACEMENT_3D('',#521,#432,#433);
#371=AXIS2_PLACEMENT_3D('',#524,#436,#437);
#372=AXIS2_PLACEMENT_3D('',#525,#438,#439);
#373=AXIS2_PLACEMENT_3D('',#534,#444,#445);
#374=AXIS2_PLACEMENT_3D('',#540,#449,#450);
#375=AXIS2_PLACEMENT_3D('',#546,#454,#455);
#376=AXIS2_PLACEMENT_3D('',#549,#458,#459);
#377=AXIS2_PLACEMENT_3D('',#550,#460,#461);
#378=DIRECTION('axis',(0.,0.,1.));
#379=DIRECTION('refdir',(1.,0.,0.));
#380=DIRECTION('center_axis',(0.,0.,1.));
#381=DIRECTION('ref_axis',(-1.,0.,0.));
#382=DIRECTION('center_axis',(0.,0.,1.));
#383=DIRECTION('ref_axis',(-1.,0.,0.));
#384=DIRECTION('',(0.,0.,1.));
#385=DIRECTION('center_axis',(0.,0.,-1.));
#386=DIRECTION('ref_axis',(-1.,0.,0.));
#387=DIRECTION('center_axis',(0.,0.,1.));
#388=DIRECTION('ref_axis',(-1.,0.,0.));
#389=DIRECTION('center_axis',(0.,0.,1.));
#390=DIRECTION('ref_axis',(-1.,0.,0.));
#391=DIRECTION('',(0.,0.,1.));
#392=DIRECTION('center_axis',(0.,0.,-1.));
#393=DIRECTION('ref_axis',(-1.,0.,0.));
#394=DIRECTION('center_axis',(-1.,0.,0.));
#395=DIRECTION('ref_axis',(0.,-1.,0.));
#396=DIRECTION('',(0.,-1.,0.));
#397=DIRECTION('',(0.,0.,1.));
#398=DIRECTION('',(0.,-1.,0.));
#399=DIRECTION('',(0.,0.,1.));
#400=DIRECTION('center_axis',(0.,1.,0.));
#401=DIRECTION('ref_axis',(-1.,0.,0.));
#402=DIRECTION('',(-1.,0.,0.));
#403=DIRECTION('',(-1.,0.,0.));
#404=DIRECTION('',(0.,0.,1.));
#405=DIRECTION('center_axis',(1.,0.,0.));
#406=DIRECTION('ref_axis',(0.,1.,0.));
#407=DIRECTION('',(0.,1.,0.));
#408=DIRECTION('',(0.,1.,0.));
#409=DIRECTION('',(0.,0.,1.));
#410=DIRECTION('center_axis',(0.,-1.,0.));
#411=DIRECTION('ref_axis',(1.,0.,0.));
#412=DIRECTION('',(1.,0.,0.));
#413=DIRECTION('',(1.,0.,0.));
#414=DIRECTION('center_axis',(0.,0.,1.));
#415=DIRECTION('ref_axis',(1.,0.,0.));
#416=DIRECTION('center_axis',(-1.,0.,0.));
#417=DIRECTION('ref_axis',(0.,-1.,0.));
#418=DIRECTION('',(0.,-1.,0.));
#419=DIRECTION('',(0.,0.,1.));
#420=DIRECTION('',(0.,-1.,0.));
#421=DIRECTION('',(0.,0.,1.));
#422=DIRECTION('center_axis',(0.,1.,0.));
#423=DIRECTION('ref_axis',(-1.,0.,0.));
#424=DIRECTION('',(-1.,0.,0.));
#425=DIRECTION('',(-1.,0.,0.));
#426=DIRECTION('',(0.,0.,1.));
#427=DIRECTION('center_axis',(1.,0.,0.));
#428=DIRECTION('ref_axis',(0.,1.,0.));
#429=DIRECTION('',(0.,1.,0.));
#430=DIRECTION('',(0.,1.,0.));
#431=DIRECTION('',(0.,0.,1.));
#432=DIRECTION('center_axis',(0.,-1.,0.));
#433=DIRECTION('ref_axis',(1.,0.,0.));
#434=DIRECTION('',(1.,0.,0.));
#435=DIRECTION('',(1.,0.,0.));
#436=DIRECTION('center_axis',(0.,0.,1.));
#437=DIRECTION('ref_axis',(1.,0.,0.));
#438=DIRECTION('center_axis',(-1.,0.,0.));
#439=DIRECTION('ref_axis',(0.,-1.,0.));
#440=DIRECTION('',(0.,-1.,0.));
#441=DIRECTION('',(0.,0.,1.));
#442=DIRECTION('',(0.,-1.,0.));
#443=DIRECTION('',(0.,0.,1.));
#444=DIRECTION('center_axis',(0.,1.,0.));
#445=DIRECTION('ref_axis',(-1.,0.,0.));
#446=DIRECTION('',(-1.,0.,0.));
#447=DIRECTION('',(-1.,0.,0.));
#448=DIRECTION('',(0.,0.,1.));
#449=DIRECTION('center_axis',(1.,0.,0.));
#450=DIRECTION('ref_axis',(0.,1.,0.));
#451=DIRECTION('',(0.,1.,0.));
#452=DIRECTION('',(0.,1.,0.));
#453=DIRECTION('',(0.,0.,1.));
#454=DIRECTION('center_axis',(0.,-1.,0.));
#455=DIRECTION('ref_axis',(1.,0.,0.));
#456=DIRECTION('',(1.,0.,0.));
#457=DIRECTION('',(1.,0.,0.));
#458=DIRECTION('center_axis',(0.,0.,1.));
#459=DIRECTION('ref_axis',(1.,0.,0.));
#460=DIRECTION('center_axis',(0.,0.,1.));
#461=DIRECTION('ref_axis',(1.,0.,0.));
#462=CARTESIAN_POINT('',(0.,0.,0.));
#463=CARTESIAN_POINT('Origin',(78.,-40.,3.));
#464=CARTESIAN_POINT('',(79.6,-40.,3.));
#465=CARTESIAN_POINT('Origin',(78.,-40.,3.));
#466=CARTESIAN_POINT('',(79.6,-40.,31.));
#467=CARTESIAN_POINT('',(79.6,-40.,3.));
#468=CARTESIAN_POINT('Origin',(78.,-40.,31.));
#469=CARTESIAN_POINT('Origin',(78.,-85.,3.));
#470=CARTESIAN_POINT('',(79.6,-85.,3.));
#471=CARTESIAN_POINT('Origin',(78.,-85.,3.));
#472=CARTESIAN_POINT('',(79.6,-85.,31.));
#473=CARTESIAN_POINT('',(79.6,-85.,3.));
#474=CARTESIAN_POINT('Origin',(78.,-85.,31.));
#475=CARTESIAN_POINT('Origin',(75.5,-37.5,3.));
#476=CARTESIAN_POINT('',(75.5,-37.5,3.));
#477=CARTESIAN_POINT('',(75.5,-42.5,3.));
#478=CARTESIAN_POINT('',(75.5,-37.5,3.));
#479=CARTESIAN_POINT('',(75.5,-42.5,29.));
#480=CARTESIAN_POINT('',(75.5,-42.5,3.));
#481=CARTESIAN_POINT('',(75.5,-37.5,29.));
#482=CARTESIAN_POINT('',(75.5,-50.25,29.));
#483=CARTESIAN_POINT('',(75.5,-37.5,3.));
#484=CARTESIAN_POINT('Origin',(80.5,-37.5,3.));
#485=CARTESIAN_POINT('',(80.5,-37.5,3.));
#486=CARTESIAN_POINT('',(80.5,-37.5,3.));
#487=CARTESIAN_POINT('',(80.5,-37.5,29.));
#488=CARTESIAN_POINT('',(72.75,-37.5,29.));
#489=CARTESIAN_POINT('',(80.5,-37.5,3.));
#490=CARTESIAN_POINT('Origin',(80.5,-42.5,3.));
#491=CARTESIAN_POINT('',(80.5,-42.5,3.));
#492=CARTESIAN_POINT('',(80.5,-42.5,3.));
#493=CARTESIAN_POINT('',(80.5,-42.5,29.));
#494=CARTESIAN_POINT('',(80.5,-52.75,29.));
#495=CARTESIAN_POINT('',(80.5,-42.5,3.));
#496=CARTESIAN_POINT('Origin',(75.5,-42.5,3.));
#497=CARTESIAN_POINT('',(75.5,-42.5,3.));
#498=CARTESIAN_POINT('',(70.25,-42.5,29.));
#499=CARTESIAN_POINT('Origin',(78.,-40.,3.));
#500=CARTESIAN_POINT('Origin',(75.5,-82.5,3.));
#501=CARTESIAN_POINT('',(75.5,-82.5,3.));
#502=CARTESIAN_POINT('',(75.5,-87.5,3.));
#503=CARTESIAN_POINT('',(75.5,-82.5,3.));
#504=CARTESIAN_POINT('',(75.5,-87.5,29.));
#505=CARTESIAN_POINT('',(75.5,-87.5,3.));
#506=CARTESIAN_POINT('',(75.5,-82.5,29.));
#507=CARTESIAN_POINT('',(75.5,-72.75,29.));
#508=CARTESIAN_POINT('',(75.5,-82.5,3.));
#509=CARTESIAN_POINT('Origin',(80.5,-82.5,3.));
#510=CARTESIAN_POINT('',(80.5,-82.5,3.));
#511=CARTESIAN_POINT('',(80.5,-82.5,3.));
#512=CARTESIAN_POINT('',(80.5,-82.5,29.));
#513=CARTESIAN_POINT('',(72.75,-82.5,29.));
#514=CARTESIAN_POINT('',(80.5,-82.5,3.));
#515=CARTESIAN_POINT('Origin',(80.5,-87.5,3.));
#516=CARTESIAN_POINT('',(80.5,-87.5,3.));
#517=CARTESIAN_POINT('',(80.5,-87.5,3.));
#518=CARTESIAN_POINT('',(80.5,-87.5,29.));
#519=CARTESIAN_POINT('',(80.5,-75.25,29.));
#520=CARTESIAN_POINT('',(80.5,-87.5,3.));
#521=CARTESIAN_POINT('Origin',(75.5,-87.5,3.));
#522=CARTESIAN_POINT('',(75.5,-87.5,3.));
#523=CARTESIAN_POINT('',(70.25,-87.5,29.));
#524=CARTESIAN_POINT('Origin',(78.,-85.,3.));
#525=CARTESIAN_POINT('Origin',(49.,-35.,29.));
#526=CARTESIAN_POINT('',(49.,-35.,29.));
#527=CARTESIAN_POINT('',(49.,-91.,29.));
#528=CARTESIAN_POINT('',(49.,-35.,29.));
#529=CARTESIAN_POINT('',(49.,-91.,31.));
#530=CARTESIAN_POINT('',(49.,-91.,29.));
#531=CARTESIAN_POINT('',(49.,-35.,31.));
#532=CARTESIAN_POINT('',(49.,-35.,31.));
#533=CARTESIAN_POINT('',(49.,-35.,29.));
#534=CARTESIAN_POINT('Origin',(81.,-35.,29.));
#535=CARTESIAN_POINT('',(81.,-35.,29.));
#536=CARTESIAN_POINT('',(81.,-35.,29.));
#537=CARTESIAN_POINT('',(81.,-35.,31.));
#538=CARTESIAN_POINT('',(81.,-35.,31.));
#539=CARTESIAN_POINT('',(81.,-35.,29.));
#540=CARTESIAN_POINT('Origin',(81.,-91.,29.));
#541=CARTESIAN_POINT('',(81.,-91.,29.));
#542=CARTESIAN_POINT('',(81.,-91.,29.));
#543=CARTESIAN_POINT('',(81.,-91.,31.));
#544=CARTESIAN_POINT('',(81.,-91.,31.));
#545=CARTESIAN_POINT('',(81.,-91.,29.));
#546=CARTESIAN_POINT('Origin',(49.,-91.,29.));
#547=CARTESIAN_POINT('',(49.,-91.,29.));
#548=CARTESIAN_POINT('',(49.,-91.,31.));
#549=CARTESIAN_POINT('Origin',(65.,-63.,31.));
#550=CARTESIAN_POINT('Origin',(65.,-63.,29.));
#551=UNCERTAINTY_MEASURE_WITH_UNIT(LENGTH_MEASURE(0.01),#555,
'DISTANCE_ACCURACY_VALUE',
'Maximum model space distance between geometric entities at asserted c
onnectivities');
#552=UNCERTAINTY_MEASURE_WITH_UNIT(LENGTH_MEASURE(0.01),#555,
'DISTANCE_ACCURACY_VALUE',
'Maximum model space distance between geometric entities at asserted c
onnectivities');
#553=(
GEOMETRIC_REPRESENTATION_CONTEXT(3)
GLOBAL_UNCERTAINTY_ASSIGNED_CONTEXT((#551))
GLOBAL_UNIT_ASSIGNED_CONTEXT((#555,#557,#558))
REPRESENTATION_CONTEXT('','3D')
);
#554=(
GEOMETRIC_REPRESENTATION_CONTEXT(3)
GLOBAL_UNCERTAINTY_ASSIGNED_CONTEXT((#552))
GLOBAL_UNIT_ASSIGNED_CONTEXT((#555,#557,#558))
REPRESENTATION_CONTEXT('','3D')
);
#555=(
LENGTH_UNIT()
NAMED_UNIT(*)
SI_UNIT(.MILLI.,.METRE.)
);
#556=(
LENGTH_UNIT()
NAMED_UNIT(*)
SI_UNIT(.CENTI.,.METRE.)
);
#557=(
NAMED_UNIT(*)
PLANE_ANGLE_UNIT()
SI_UNIT($,.RADIAN.)
);
#558=(
NAMED_UNIT(*)
SI_UNIT($,.STERADIAN.)
SOLID_ANGLE_UNIT()
);
#559=SHAPE_DEFINITION_REPRESENTATION(#560,#561);
#560=PRODUCT_DEFINITION_SHAPE('',$,#563);
#561=SHAPE_REPRESENTATION('',(#355),#553);
#562=PRODUCT_DEFINITION_CONTEXT('part definition',#567,'design');
#563=PRODUCT_DEFINITION('34_Actuator_Mount','34_Actuator_Mount',#564,#562);
#564=PRODUCT_DEFINITION_FORMATION('',$,#569);
#565=PRODUCT_RELATED_PRODUCT_CATEGORY('34_Actuator_Mount',
'34_Actuator_Mount',(#569));
#566=APPLICATION_PROTOCOL_DEFINITION('international standard',
'automotive_design',2009,#567);
#567=APPLICATION_CONTEXT(
'Core Data for Automotive Mechanical Design Process');
#568=PRODUCT_CONTEXT('part definition',#567,'mechanical');
#569=PRODUCT('34_Actuator_Mount','34_Actuator_Mount',$,(#568));
#570=PRESENTATION_STYLE_ASSIGNMENT((#571));
#571=SURFACE_STYLE_USAGE(.BOTH.,#574);
#572=SURFACE_STYLE_RENDERING_WITH_PROPERTIES($,#578,(#573));
#573=SURFACE_STYLE_TRANSPARENT(0.);
#574=SURFACE_SIDE_STYLE('',(#575,#572));
#575=SURFACE_STYLE_FILL_AREA(#576);
#576=FILL_AREA_STYLE('',(#577));
#577=FILL_AREA_STYLE_COLOUR('',#578);
#578=COLOUR_RGB('',0.996078431372549,0.996078431372549,1.);
ENDSEC;
END-ISO-10303-21;
