ISO-10303-21;
HEADER;
/* Generated by software containing ST-Developer
 * from STEP Tools, Inc. (www.steptools.com) 
 */

FILE_DESCRIPTION(
/* description */ (''),
/* implementation_level */ '2;1');

FILE_NAME(
/* name */ '35_Slider_Stops.step',
/* time_stamp */ '2026-10-08T19:41:12+09:00',
/* author */ ('Reaction Wheel Pendulum project'),
/* organization */ (''),
/* preprocessor_version */ 'ST-DEVELOPER v20.1',
/* originating_system */ 'Autodesk Inventor 2026',
/* authorisation */ '');

FILE_SCHEMA (('AUTOMOTIVE_DESIGN { 1 0 10303 214 3 1 1 }'));
ENDSEC;

DATA;
#10=MECHANICAL_DESIGN_GEOMETRIC_PRESENTATION_REPRESENTATION('',(#13),#489);
#11=SHAPE_REPRESENTATION_RELATIONSHIP('SRR','None',#496,#12);
#12=ADVANCED_BREP_SHAPE_REPRESENTATION('',(#14),#488);
#13=STYLED_ITEM('',(#505),#14);
#14=MANIFOLD_SOLID_BREP('\X2\30BD30EA30C330C9\X0\1',#296);
#15=FACE_OUTER_BOUND('',#30,.T.);
#16=FACE_OUTER_BOUND('',#31,.T.);
#17=FACE_OUTER_BOUND('',#32,.T.);
#18=FACE_OUTER_BOUND('',#33,.T.);
#19=FACE_OUTER_BOUND('',#34,.T.);
#20=FACE_OUTER_BOUND('',#35,.T.);
#21=FACE_OUTER_BOUND('',#36,.T.);
#22=FACE_OUTER_BOUND('',#37,.T.);
#23=FACE_OUTER_BOUND('',#38,.T.);
#24=FACE_OUTER_BOUND('',#39,.T.);
#25=FACE_OUTER_BOUND('',#40,.T.);
#26=FACE_OUTER_BOUND('',#41,.T.);
#27=FACE_OUTER_BOUND('',#42,.T.);
#28=FACE_OUTER_BOUND('',#43,.T.);
#29=FACE_OUTER_BOUND('',#44,.T.);
#30=EDGE_LOOP('',(#188,#189,#190,#191));
#31=EDGE_LOOP('',(#192,#193,#194,#195));
#32=EDGE_LOOP('',(#196,#197,#198,#199));
#33=EDGE_LOOP('',(#200,#201,#202,#203,#204,#205));
#34=EDGE_LOOP('',(#206,#207,#208,#209,#210,#211,#212,#213));
#35=EDGE_LOOP('',(#214,#215,#216,#217,#218,#219));
#36=EDGE_LOOP('',(#220,#221,#222,#223,#224,#225,#226,#227));
#37=EDGE_LOOP('',(#228,#229,#230,#231));
#38=EDGE_LOOP('',(#232,#233,#234,#235));
#39=EDGE_LOOP('',(#236,#237,#238,#239));
#40=EDGE_LOOP('',(#240,#241,#242,#243,#244,#245,#246,#247));
#41=EDGE_LOOP('',(#248,#249,#250,#251));
#42=EDGE_LOOP('',(#252,#253,#254,#255));
#43=EDGE_LOOP('',(#256,#257,#258,#259,#260,#261));
#44=EDGE_LOOP('',(#262,#263,#264,#265));
#45=LINE('',#409,#84);
#46=LINE('',#411,#85);
#47=LINE('',#413,#86);
#48=LINE('',#414,#87);
#49=LINE('',#417,#88);
#50=LINE('',#419,#89);
#51=LINE('',#420,#90);
#52=LINE('',#423,#91);
#53=LINE('',#424,#92);
#54=LINE('',#427,#93);
#55=LINE('',#429,#94);
#56=LINE('',#431,#95);
#57=LINE('',#432,#96);
#58=LINE('',#436,#97);
#59=LINE('',#437,#98);
#60=LINE('',#439,#99);
#61=LINE('',#441,#100);
#62=LINE('',#443,#101);
#63=LINE('',#445,#102);
#64=LINE('',#446,#103);
#65=LINE('',#449,#104);
#66=LINE('',#451,#105);
#67=LINE('',#452,#106);
#68=LINE('',#455,#107);
#69=LINE('',#457,#108);
#70=LINE('',#458,#109);
#71=LINE('',#461,#110);
#72=LINE('',#462,#111);
#73=LINE('',#465,#112);
#74=LINE('',#466,#113);
#75=LINE('',#468,#114);
#76=LINE('',#471,#115);
#77=LINE('',#473,#116);
#78=LINE('',#474,#117);
#79=LINE('',#477,#118);
#80=LINE('',#478,#119);
#81=LINE('',#481,#120);
#82=LINE('',#482,#121);
#83=LINE('',#484,#122);
#84=VECTOR('',#338,10.);
#85=VECTOR('',#339,10.);
#86=VECTOR('',#340,10.);
#87=VECTOR('',#341,10.);
#88=VECTOR('',#344,10.);
#89=VECTOR('',#345,10.);
#90=VECTOR('',#346,10.);
#91=VECTOR('',#349,10.);
#92=VECTOR('',#350,10.);
#93=VECTOR('',#353,10.);
#94=VECTOR('',#354,10.);
#95=VECTOR('',#355,10.);
#96=VECTOR('',#356,10.);
#97=VECTOR('',#359,10.);
#98=VECTOR('',#360,10.);
#99=VECTOR('',#361,10.);
#100=VECTOR('',#362,10.);
#101=VECTOR('',#363,10.);
#102=VECTOR('',#364,10.);
#103=VECTOR('',#365,10.);
#104=VECTOR('',#368,10.);
#105=VECTOR('',#369,10.);
#106=VECTOR('',#370,10.);
#107=VECTOR('',#373,10.);
#108=VECTOR('',#374,10.);
#109=VECTOR('',#375,10.);
#110=VECTOR('',#378,10.);
#111=VECTOR('',#379,10.);
#112=VECTOR('',#382,10.);
#113=VECTOR('',#383,10.);
#114=VECTOR('',#386,10.);
#115=VECTOR('',#389,10.);
#116=VECTOR('',#390,10.);
#117=VECTOR('',#391,10.);
#118=VECTOR('',#394,10.);
#119=VECTOR('',#395,10.);
#120=VECTOR('',#398,10.);
#121=VECTOR('',#399,10.);
#122=VECTOR('',#402,10.);
#123=VERTEX_POINT('',#407);
#124=VERTEX_POINT('',#408);
#125=VERTEX_POINT('',#410);
#126=VERTEX_POINT('',#412);
#127=VERTEX_POINT('',#416);
#128=VERTEX_POINT('',#418);
#129=VERTEX_POINT('',#422);
#130=VERTEX_POINT('',#426);
#131=VERTEX_POINT('',#428);
#132=VERTEX_POINT('',#430);
#133=VERTEX_POINT('',#434);
#134=VERTEX_POINT('',#435);
#135=VERTEX_POINT('',#438);
#136=VERTEX_POINT('',#440);
#137=VERTEX_POINT('',#442);
#138=VERTEX_POINT('',#444);
#139=VERTEX_POINT('',#448);
#140=VERTEX_POINT('',#450);
#141=VERTEX_POINT('',#454);
#142=VERTEX_POINT('',#456);
#143=VERTEX_POINT('',#460);
#144=VERTEX_POINT('',#464);
#145=VERTEX_POINT('',#470);
#146=VERTEX_POINT('',#472);
#147=VERTEX_POINT('',#476);
#148=VERTEX_POINT('',#480);
#149=EDGE_CURVE('',#123,#124,#45,.T.);
#150=EDGE_CURVE('',#124,#125,#46,.T.);
#151=EDGE_CURVE('',#126,#125,#47,.T.);
#152=EDGE_CURVE('',#123,#126,#48,.T.);
#153=EDGE_CURVE('',#124,#127,#49,.T.);
#154=EDGE_CURVE('',#127,#128,#50,.T.);
#155=EDGE_CURVE('',#125,#128,#51,.T.);
#156=EDGE_CURVE('',#129,#123,#52,.T.);
#157=EDGE_CURVE('',#127,#129,#53,.T.);
#158=EDGE_CURVE('',#130,#128,#54,.T.);
#159=EDGE_CURVE('',#129,#131,#55,.T.);
#160=EDGE_CURVE('',#132,#131,#56,.T.);
#161=EDGE_CURVE('',#130,#132,#57,.T.);
#162=EDGE_CURVE('',#133,#134,#58,.T.);
#163=EDGE_CURVE('',#133,#132,#59,.T.);
#164=EDGE_CURVE('',#131,#135,#60,.T.);
#165=EDGE_CURVE('',#136,#135,#61,.T.);
#166=EDGE_CURVE('',#137,#136,#62,.T.);
#167=EDGE_CURVE('',#137,#138,#63,.T.);
#168=EDGE_CURVE('',#134,#138,#64,.T.);
#169=EDGE_CURVE('',#139,#130,#65,.T.);
#170=EDGE_CURVE('',#140,#139,#66,.T.);
#171=EDGE_CURVE('',#126,#140,#67,.T.);
#172=EDGE_CURVE('',#140,#141,#68,.T.);
#173=EDGE_CURVE('',#142,#141,#69,.T.);
#174=EDGE_CURVE('',#135,#142,#70,.T.);
#175=EDGE_CURVE('',#143,#142,#71,.T.);
#176=EDGE_CURVE('',#136,#143,#72,.T.);
#177=EDGE_CURVE('',#144,#143,#73,.T.);
#178=EDGE_CURVE('',#137,#144,#74,.T.);
#179=EDGE_CURVE('',#141,#144,#75,.T.);
#180=EDGE_CURVE('',#139,#145,#76,.T.);
#181=EDGE_CURVE('',#146,#145,#77,.T.);
#182=EDGE_CURVE('',#138,#146,#78,.T.);
#183=EDGE_CURVE('',#147,#146,#79,.T.);
#184=EDGE_CURVE('',#134,#147,#80,.T.);
#185=EDGE_CURVE('',#148,#147,#81,.T.);
#186=EDGE_CURVE('',#133,#148,#82,.T.);
#187=EDGE_CURVE('',#145,#148,#83,.T.);
#188=ORIENTED_EDGE('',*,*,#149,.T.);
#189=ORIENTED_EDGE('',*,*,#150,.T.);
#190=ORIENTED_EDGE('',*,*,#151,.F.);
#191=ORIENTED_EDGE('',*,*,#152,.F.);
#192=ORIENTED_EDGE('',*,*,#153,.T.);
#193=ORIENTED_EDGE('',*,*,#154,.T.);
#194=ORIENTED_EDGE('',*,*,#155,.F.);
#195=ORIENTED_EDGE('',*,*,#150,.F.);
#196=ORIENTED_EDGE('',*,*,#153,.F.);
#197=ORIENTED_EDGE('',*,*,#149,.F.);
#198=ORIENTED_EDGE('',*,*,#156,.F.);
#199=ORIENTED_EDGE('',*,*,#157,.F.);
#200=ORIENTED_EDGE('',*,*,#158,.T.);
#201=ORIENTED_EDGE('',*,*,#154,.F.);
#202=ORIENTED_EDGE('',*,*,#157,.T.);
#203=ORIENTED_EDGE('',*,*,#159,.T.);
#204=ORIENTED_EDGE('',*,*,#160,.F.);
#205=ORIENTED_EDGE('',*,*,#161,.F.);
#206=ORIENTED_EDGE('',*,*,#162,.F.);
#207=ORIENTED_EDGE('',*,*,#163,.T.);
#208=ORIENTED_EDGE('',*,*,#160,.T.);
#209=ORIENTED_EDGE('',*,*,#164,.T.);
#210=ORIENTED_EDGE('',*,*,#165,.F.);
#211=ORIENTED_EDGE('',*,*,#166,.F.);
#212=ORIENTED_EDGE('',*,*,#167,.T.);
#213=ORIENTED_EDGE('',*,*,#168,.F.);
#214=ORIENTED_EDGE('',*,*,#155,.T.);
#215=ORIENTED_EDGE('',*,*,#158,.F.);
#216=ORIENTED_EDGE('',*,*,#169,.F.);
#217=ORIENTED_EDGE('',*,*,#170,.F.);
#218=ORIENTED_EDGE('',*,*,#171,.F.);
#219=ORIENTED_EDGE('',*,*,#151,.T.);
#220=ORIENTED_EDGE('',*,*,#172,.T.);
#221=ORIENTED_EDGE('',*,*,#173,.F.);
#222=ORIENTED_EDGE('',*,*,#174,.F.);
#223=ORIENTED_EDGE('',*,*,#164,.F.);
#224=ORIENTED_EDGE('',*,*,#159,.F.);
#225=ORIENTED_EDGE('',*,*,#156,.T.);
#226=ORIENTED_EDGE('',*,*,#152,.T.);
#227=ORIENTED_EDGE('',*,*,#171,.T.);
#228=ORIENTED_EDGE('',*,*,#165,.T.);
#229=ORIENTED_EDGE('',*,*,#174,.T.);
#230=ORIENTED_EDGE('',*,*,#175,.F.);
#231=ORIENTED_EDGE('',*,*,#176,.F.);
#232=ORIENTED_EDGE('',*,*,#166,.T.);
#233=ORIENTED_EDGE('',*,*,#176,.T.);
#234=ORIENTED_EDGE('',*,*,#177,.F.);
#235=ORIENTED_EDGE('',*,*,#178,.F.);
#236=ORIENTED_EDGE('',*,*,#177,.T.);
#237=ORIENTED_EDGE('',*,*,#175,.T.);
#238=ORIENTED_EDGE('',*,*,#173,.T.);
#239=ORIENTED_EDGE('',*,*,#179,.T.);
#240=ORIENTED_EDGE('',*,*,#180,.T.);
#241=ORIENTED_EDGE('',*,*,#181,.F.);
#242=ORIENTED_EDGE('',*,*,#182,.F.);
#243=ORIENTED_EDGE('',*,*,#167,.F.);
#244=ORIENTED_EDGE('',*,*,#178,.T.);
#245=ORIENTED_EDGE('',*,*,#179,.F.);
#246=ORIENTED_EDGE('',*,*,#172,.F.);
#247=ORIENTED_EDGE('',*,*,#170,.T.);
#248=ORIENTED_EDGE('',*,*,#168,.T.);
#249=ORIENTED_EDGE('',*,*,#182,.T.);
#250=ORIENTED_EDGE('',*,*,#183,.F.);
#251=ORIENTED_EDGE('',*,*,#184,.F.);
#252=ORIENTED_EDGE('',*,*,#162,.T.);
#253=ORIENTED_EDGE('',*,*,#184,.T.);
#254=ORIENTED_EDGE('',*,*,#185,.F.);
#255=ORIENTED_EDGE('',*,*,#186,.F.);
#256=ORIENTED_EDGE('',*,*,#186,.T.);
#257=ORIENTED_EDGE('',*,*,#187,.F.);
#258=ORIENTED_EDGE('',*,*,#180,.F.);
#259=ORIENTED_EDGE('',*,*,#169,.T.);
#260=ORIENTED_EDGE('',*,*,#161,.T.);
#261=ORIENTED_EDGE('',*,*,#163,.F.);
#262=ORIENTED_EDGE('',*,*,#187,.T.);
#263=ORIENTED_EDGE('',*,*,#185,.T.);
#264=ORIENTED_EDGE('',*,*,#183,.T.);
#265=ORIENTED_EDGE('',*,*,#181,.T.);
#266=PLANE('',#319);
#267=PLANE('',#320);
#268=PLANE('',#321);
#269=PLANE('',#322);
#270=PLANE('',#323);
#271=PLANE('',#324);
#272=PLANE('',#325);
#273=PLANE('',#326);
#274=PLANE('',#327);
#275=PLANE('',#328);
#276=PLANE('',#329);
#277=PLANE('',#330);
#278=PLANE('',#331);
#279=PLANE('',#332);
#280=PLANE('',#333);
#281=ADVANCED_FACE('',(#15),#266,.T.);
#282=ADVANCED_FACE('',(#16),#267,.T.);
#283=ADVANCED_FACE('',(#17),#268,.F.);
#284=ADVANCED_FACE('',(#18),#269,.T.);
#285=ADVANCED_FACE('',(#19),#270,.T.);
#286=ADVANCED_FACE('',(#20),#271,.F.);
#287=ADVANCED_FACE('',(#21),#272,.T.);
#288=ADVANCED_FACE('',(#22),#273,.T.);
#289=ADVANCED_FACE('',(#23),#274,.T.);
#290=ADVANCED_FACE('',(#24),#275,.T.);
#291=ADVANCED_FACE('',(#25),#276,.T.);
#292=ADVANCED_FACE('',(#26),#277,.T.);
#293=ADVANCED_FACE('',(#27),#278,.T.);
#294=ADVANCED_FACE('',(#28),#279,.T.);
#295=ADVANCED_FACE('',(#29),#280,.T.);
#296=CLOSED_SHELL('',(#281,#282,#283,#284,#285,#286,#287,#288,#289,#290,
#291,#292,#293,#294,#295));
#297=DERIVED_UNIT_ELEMENT(#300,1.);
#298=DERIVED_UNIT_ELEMENT(#491,-3.);
#299=DIMENSIONAL_EXPONENTS(0.,1.,0.,0.,0.,0.,0.);
#300=(
CONVERSION_BASED_UNIT('gram',#302)
MASS_UNIT()
NAMED_UNIT(#299)
);
#301=(
MASS_UNIT()
NAMED_UNIT(*)
SI_UNIT(.KILO.,.GRAM.)
);
#302=MASS_MEASURE_WITH_UNIT(MASS_MEASURE(0.001),#301);
#303=DERIVED_UNIT((#297,#298));
#304=MEASURE_REPRESENTATION_ITEM('density measure',
POSITIVE_RATIO_MEASURE(2.7),#303);
#305=PROPERTY_DEFINITION_REPRESENTATION(#310,#307);
#306=PROPERTY_DEFINITION_REPRESENTATION(#311,#308);
#307=REPRESENTATION('material name',(#309),#488);
#308=REPRESENTATION('density',(#304),#488);
#309=DESCRIPTIVE_REPRESENTATION_ITEM('\X2\30A230EB30DF30CB30A630E0\X0\ 
6061','\X2\30A230EB30DF30CB30A630E0\X0\ 6061');
#310=PROPERTY_DEFINITION('material property','material name',#498);
#311=PROPERTY_DEFINITION('material property','density of part',#498);
#312=DATE_TIME_ROLE('creation_date');
#313=APPLIED_DATE_AND_TIME_ASSIGNMENT(#314,#312,(#498));
#314=DATE_AND_TIME(#315,#316);
#315=CALENDAR_DATE(2026,8,10);
#316=LOCAL_TIME(0,0,0.,#317);
#317=COORDINATED_UNIVERSAL_TIME_OFFSET(0,0,.BEHIND.);
#318=AXIS2_PLACEMENT_3D('',#405,#334,#335);
#319=AXIS2_PLACEMENT_3D('',#406,#336,#337);
#320=AXIS2_PLACEMENT_3D('',#415,#342,#343);
#321=AXIS2_PLACEMENT_3D('',#421,#347,#348);
#322=AXIS2_PLACEMENT_3D('',#425,#351,#352);
#323=AXIS2_PLACEMENT_3D('',#433,#357,#358);
#324=AXIS2_PLACEMENT_3D('',#447,#366,#367);
#325=AXIS2_PLACEMENT_3D('',#453,#371,#372);
#326=AXIS2_PLACEMENT_3D('',#459,#376,#377);
#327=AXIS2_PLACEMENT_3D('',#463,#380,#381);
#328=AXIS2_PLACEMENT_3D('',#467,#384,#385);
#329=AXIS2_PLACEMENT_3D('',#469,#387,#388);
#330=AXIS2_PLACEMENT_3D('',#475,#392,#393);
#331=AXIS2_PLACEMENT_3D('',#479,#396,#397);
#332=AXIS2_PLACEMENT_3D('',#483,#400,#401);
#333=AXIS2_PLACEMENT_3D('',#485,#403,#404);
#334=DIRECTION('axis',(0.,0.,1.));
#335=DIRECTION('refdir',(1.,0.,0.));
#336=DIRECTION('center_axis',(-1.,0.,0.));
#337=DIRECTION('ref_axis',(0.,-1.,0.));
#338=DIRECTION('',(0.,-1.,0.));
#339=DIRECTION('',(0.,0.,1.));
#340=DIRECTION('',(0.,-1.,0.));
#341=DIRECTION('',(0.,0.,1.));
#342=DIRECTION('center_axis',(0.,-1.,0.));
#343=DIRECTION('ref_axis',(1.,0.,0.));
#344=DIRECTION('',(1.,0.,0.));
#345=DIRECTION('',(0.,0.,1.));
#346=DIRECTION('',(1.,0.,0.));
#347=DIRECTION('center_axis',(0.,0.,1.));
#348=DIRECTION('ref_axis',(1.,0.,0.));
#349=DIRECTION('',(-1.,0.,0.));
#350=DIRECTION('',(0.,1.,0.));
#351=DIRECTION('center_axis',(1.,0.,0.));
#352=DIRECTION('ref_axis',(0.,1.,0.));
#353=DIRECTION('',(0.,1.,0.));
#354=DIRECTION('',(0.,0.,1.));
#355=DIRECTION('',(0.,1.,0.));
#356=DIRECTION('',(0.,0.,1.));
#357=DIRECTION('center_axis',(0.,0.,1.));
#358=DIRECTION('ref_axis',(1.,0.,0.));
#359=DIRECTION('',(0.,1.,0.));
#360=DIRECTION('',(1.,0.,0.));
#361=DIRECTION('',(-1.,0.,0.));
#362=DIRECTION('',(0.,1.,0.));
#363=DIRECTION('',(1.,0.,0.));
#364=DIRECTION('',(0.,-1.,0.));
#365=DIRECTION('',(-1.,0.,0.));
#366=DIRECTION('center_axis',(0.,0.,1.));
#367=DIRECTION('ref_axis',(1.,0.,0.));
#368=DIRECTION('',(1.,0.,0.));
#369=DIRECTION('',(0.,-1.,0.));
#370=DIRECTION('',(-1.,0.,0.));
#371=DIRECTION('center_axis',(0.,1.,0.));
#372=DIRECTION('ref_axis',(-1.,0.,0.));
#373=DIRECTION('',(0.,0.,1.));
#374=DIRECTION('',(-1.,0.,0.));
#375=DIRECTION('',(0.,0.,1.));
#376=DIRECTION('center_axis',(1.,0.,0.));
#377=DIRECTION('ref_axis',(0.,1.,0.));
#378=DIRECTION('',(0.,1.,0.));
#379=DIRECTION('',(0.,0.,1.));
#380=DIRECTION('center_axis',(0.,-1.,0.));
#381=DIRECTION('ref_axis',(1.,0.,0.));
#382=DIRECTION('',(1.,0.,0.));
#383=DIRECTION('',(0.,0.,1.));
#384=DIRECTION('center_axis',(0.,0.,1.));
#385=DIRECTION('ref_axis',(1.,0.,0.));
#386=DIRECTION('',(0.,-1.,0.));
#387=DIRECTION('center_axis',(-1.,0.,0.));
#388=DIRECTION('ref_axis',(0.,-1.,0.));
#389=DIRECTION('',(0.,0.,1.));
#390=DIRECTION('',(0.,-1.,0.));
#391=DIRECTION('',(0.,0.,1.));
#392=DIRECTION('center_axis',(0.,1.,0.));
#393=DIRECTION('ref_axis',(-1.,0.,0.));
#394=DIRECTION('',(-1.,0.,0.));
#395=DIRECTION('',(0.,0.,1.));
#396=DIRECTION('center_axis',(1.,0.,0.));
#397=DIRECTION('ref_axis',(0.,1.,0.));
#398=DIRECTION('',(0.,1.,0.));
#399=DIRECTION('',(0.,0.,1.));
#400=DIRECTION('center_axis',(0.,-1.,0.));
#401=DIRECTION('ref_axis',(1.,0.,0.));
#402=DIRECTION('',(1.,0.,0.));
#403=DIRECTION('center_axis',(0.,0.,1.));
#404=DIRECTION('ref_axis',(1.,0.,0.));
#405=CARTESIAN_POINT('',(0.,0.,0.));
#406=CARTESIAN_POINT('Origin',(72.,-16.,4.));
#407=CARTESIAN_POINT('',(72.,-16.,4.));
#408=CARTESIAN_POINT('',(72.,-18.,4.));
#409=CARTESIAN_POINT('',(72.,-16.,4.));
#410=CARTESIAN_POINT('',(72.,-18.,27.));
#411=CARTESIAN_POINT('',(72.,-18.,4.));
#412=CARTESIAN_POINT('',(72.,-16.,27.));
#413=CARTESIAN_POINT('',(72.,-20.,27.));
#414=CARTESIAN_POINT('',(72.,-16.,4.));
#415=CARTESIAN_POINT('Origin',(72.,-18.,4.));
#416=CARTESIAN_POINT('',(74.,-18.,4.));
#417=CARTESIAN_POINT('',(72.,-18.,4.));
#418=CARTESIAN_POINT('',(74.,-18.,27.));
#419=CARTESIAN_POINT('',(74.,-18.,4.));
#420=CARTESIAN_POINT('',(72.,-18.,27.));
#421=CARTESIAN_POINT('Origin',(73.,-17.,4.));
#422=CARTESIAN_POINT('',(74.,-16.,4.));
#423=CARTESIAN_POINT('',(74.,-16.,4.));
#424=CARTESIAN_POINT('',(74.,-18.,4.));
#425=CARTESIAN_POINT('Origin',(74.,-32.,27.));
#426=CARTESIAN_POINT('',(74.,-32.,27.));
#427=CARTESIAN_POINT('',(74.,-32.,27.));
#428=CARTESIAN_POINT('',(74.,-16.,29.));
#429=CARTESIAN_POINT('',(74.,-16.,27.));
#430=CARTESIAN_POINT('',(74.,-32.,29.));
#431=CARTESIAN_POINT('',(74.,-32.,29.));
#432=CARTESIAN_POINT('',(74.,-32.,27.));
#433=CARTESIAN_POINT('Origin',(72.,-24.,29.));
#434=CARTESIAN_POINT('',(72.,-32.,29.));
#435=CARTESIAN_POINT('',(72.,-30.,29.));
#436=CARTESIAN_POINT('',(72.,-32.,29.));
#437=CARTESIAN_POINT('',(70.,-32.,29.));
#438=CARTESIAN_POINT('',(72.,-16.,29.));
#439=CARTESIAN_POINT('',(74.,-16.,29.));
#440=CARTESIAN_POINT('',(72.,-18.,29.));
#441=CARTESIAN_POINT('',(72.,-18.,29.));
#442=CARTESIAN_POINT('',(70.,-18.,29.));
#443=CARTESIAN_POINT('',(70.,-18.,29.));
#444=CARTESIAN_POINT('',(70.,-30.,29.));
#445=CARTESIAN_POINT('',(70.,-16.,29.));
#446=CARTESIAN_POINT('',(72.,-30.,29.));
#447=CARTESIAN_POINT('Origin',(72.,-24.,27.));
#448=CARTESIAN_POINT('',(70.,-32.,27.));
#449=CARTESIAN_POINT('',(70.,-32.,27.));
#450=CARTESIAN_POINT('',(70.,-16.,27.));
#451=CARTESIAN_POINT('',(70.,-16.,27.));
#452=CARTESIAN_POINT('',(74.,-16.,27.));
#453=CARTESIAN_POINT('Origin',(72.,-16.,29.));
#454=CARTESIAN_POINT('',(70.,-16.,42.));
#455=CARTESIAN_POINT('',(70.,-16.,29.));
#456=CARTESIAN_POINT('',(72.,-16.,42.));
#457=CARTESIAN_POINT('',(72.,-16.,42.));
#458=CARTESIAN_POINT('',(72.,-16.,29.));
#459=CARTESIAN_POINT('Origin',(72.,-18.,29.));
#460=CARTESIAN_POINT('',(72.,-18.,42.));
#461=CARTESIAN_POINT('',(72.,-18.,42.));
#462=CARTESIAN_POINT('',(72.,-18.,29.));
#463=CARTESIAN_POINT('Origin',(70.,-18.,29.));
#464=CARTESIAN_POINT('',(70.,-18.,42.));
#465=CARTESIAN_POINT('',(70.,-18.,42.));
#466=CARTESIAN_POINT('',(70.,-18.,29.));
#467=CARTESIAN_POINT('Origin',(71.,-17.,42.));
#468=CARTESIAN_POINT('',(70.,-16.,42.));
#469=CARTESIAN_POINT('Origin',(70.,-30.,29.));
#470=CARTESIAN_POINT('',(70.,-32.,42.));
#471=CARTESIAN_POINT('',(70.,-32.,27.));
#472=CARTESIAN_POINT('',(70.,-30.,42.));
#473=CARTESIAN_POINT('',(70.,-30.,42.));
#474=CARTESIAN_POINT('',(70.,-30.,29.));
#475=CARTESIAN_POINT('Origin',(72.,-30.,29.));
#476=CARTESIAN_POINT('',(72.,-30.,42.));
#477=CARTESIAN_POINT('',(72.,-30.,42.));
#478=CARTESIAN_POINT('',(72.,-30.,29.));
#479=CARTESIAN_POINT('Origin',(72.,-32.,29.));
#480=CARTESIAN_POINT('',(72.,-32.,42.));
#481=CARTESIAN_POINT('',(72.,-32.,42.));
#482=CARTESIAN_POINT('',(72.,-32.,29.));
#483=CARTESIAN_POINT('Origin',(70.,-32.,29.));
#484=CARTESIAN_POINT('',(70.,-32.,42.));
#485=CARTESIAN_POINT('Origin',(71.,-31.,42.));
#486=UNCERTAINTY_MEASURE_WITH_UNIT(LENGTH_MEASURE(0.01),#490,
'DISTANCE_ACCURACY_VALUE',
'Maximum model space distance between geometric entities at asserted c
onnectivities');
#487=UNCERTAINTY_MEASURE_WITH_UNIT(LENGTH_MEASURE(0.01),#490,
'DISTANCE_ACCURACY_VALUE',
'Maximum model space distance between geometric entities at asserted c
onnectivities');
#488=(
GEOMETRIC_REPRESENTATION_CONTEXT(3)
GLOBAL_UNCERTAINTY_ASSIGNED_CONTEXT((#486))
GLOBAL_UNIT_ASSIGNED_CONTEXT((#490,#492,#493))
REPRESENTATION_CONTEXT('','3D')
);
#489=(
GEOMETRIC_REPRESENTATION_CONTEXT(3)
GLOBAL_UNCERTAINTY_ASSIGNED_CONTEXT((#487))
GLOBAL_UNIT_ASSIGNED_CONTEXT((#490,#492,#493))
REPRESENTATION_CONTEXT('','3D')
);
#490=(
LENGTH_UNIT()
NAMED_UNIT(*)
SI_UNIT(.MILLI.,.METRE.)
);
#491=(
LENGTH_UNIT()
NAMED_UNIT(*)
SI_UNIT(.CENTI.,.METRE.)
);
#492=(
NAMED_UNIT(*)
PLANE_ANGLE_UNIT()
SI_UNIT($,.RADIAN.)
);
#493=(
NAMED_UNIT(*)
SI_UNIT($,.STERADIAN.)
SOLID_ANGLE_UNIT()
);
#494=SHAPE_DEFINITION_REPRESENTATION(#495,#496);
#495=PRODUCT_DEFINITION_SHAPE('',$,#498);
#496=SHAPE_REPRESENTATION('',(#318),#488);
#497=PRODUCT_DEFINITION_CONTEXT('part definition',#502,'design');
#498=PRODUCT_DEFINITION('35_Slider_Stops','35_Slider_Stops',#499,#497);
#499=PRODUCT_DEFINITION_FORMATION('',$,#504);
#500=PRODUCT_RELATED_PRODUCT_CATEGORY('35_Slider_Stops',
'35_Slider_Stops',(#504));
#501=APPLICATION_PROTOCOL_DEFINITION('international standard',
'automotive_design',2009,#502);
#502=APPLICATION_CONTEXT(
'Core Data for Automotive Mechanical Design Process');
#503=PRODUCT_CONTEXT('part definition',#502,'mechanical');
#504=PRODUCT('35_Slider_Stops','35_Slider_Stops',$,(#503));
#505=PRESENTATION_STYLE_ASSIGNMENT((#506));
#506=SURFACE_STYLE_USAGE(.BOTH.,#509);
#507=SURFACE_STYLE_RENDERING_WITH_PROPERTIES($,#513,(#508));
#508=SURFACE_STYLE_TRANSPARENT(0.);
#509=SURFACE_SIDE_STYLE('',(#510,#507));
#510=SURFACE_STYLE_FILL_AREA(#511);
#511=FILL_AREA_STYLE('',(#512));
#512=FILL_AREA_STYLE_COLOUR('',#513);
#513=COLOUR_RGB('',0.996078431372549,0.996078431372549,1.);
ENDSEC;
END-ISO-10303-21;
