ISO-10303-21;
HEADER;
/* Generated by software containing ST-Developer
 * from STEP Tools, Inc. (www.steptools.com) 
 */

FILE_DESCRIPTION(
/* description */ (''),
/* implementation_level */ '2;1');

FILE_NAME(
/* name */ '40_Shared_Module_Dock.step',
/* time_stamp */ '2026-10-08T19:41:14+09:00',
/* author */ ('Reaction Wheel Pendulum project'),
/* organization */ (''),
/* preprocessor_version */ 'ST-DEVELOPER v20.1',
/* originating_system */ 'Autodesk Inventor 2026',
/* authorisation */ '');

FILE_SCHEMA (('AUTOMOTIVE_DESIGN { 1 0 10303 214 3 1 1 }'));
ENDSEC;

DATA;
#10=MECHANICAL_DESIGN_GEOMETRIC_PRESENTATION_REPRESENTATION('',(#48,#49),
#1936);
#11=SHAPE_REPRESENTATION_RELATIONSHIP('SRR','None',#1943,#12);
#12=ADVANCED_BREP_SHAPE_REPRESENTATION('',(#50,#51),#1935);
#13=FACE_BOUND('',#132,.T.);
#14=FACE_BOUND('',#133,.T.);
#15=FACE_BOUND('',#134,.T.);
#16=FACE_BOUND('',#135,.T.);
#17=FACE_BOUND('',#136,.T.);
#18=FACE_BOUND('',#137,.T.);
#19=FACE_BOUND('',#138,.T.);
#20=FACE_BOUND('',#173,.T.);
#21=FACE_BOUND('',#174,.T.);
#22=FACE_BOUND('',#175,.T.);
#23=FACE_BOUND('',#176,.T.);
#24=FACE_BOUND('',#177,.T.);
#25=FACE_BOUND('',#178,.T.);
#26=FACE_BOUND('',#179,.T.);
#27=CIRCLE('',#1233,1.6);
#28=CIRCLE('',#1234,1.6);
#29=CIRCLE('',#1236,1.6);
#30=CIRCLE('',#1237,1.6);
#31=CIRCLE('',#1239,1.6);
#32=CIRCLE('',#1240,1.6);
#33=CIRCLE('',#1242,1.6);
#34=CIRCLE('',#1243,1.6);
#35=CIRCLE('',#1245,1.6);
#36=CIRCLE('',#1246,1.6);
#37=CIRCLE('',#1248,1.6);
#38=CIRCLE('',#1249,1.6);
#39=CIRCLE('',#1251,7.);
#40=CIRCLE('',#1252,7.);
#41=CYLINDRICAL_SURFACE('',#1232,1.6);
#42=CYLINDRICAL_SURFACE('',#1235,1.6);
#43=CYLINDRICAL_SURFACE('',#1238,1.6);
#44=CYLINDRICAL_SURFACE('',#1241,1.6);
#45=CYLINDRICAL_SURFACE('',#1244,1.6);
#46=CYLINDRICAL_SURFACE('',#1247,1.6);
#47=CYLINDRICAL_SURFACE('',#1250,7.);
#48=STYLED_ITEM('',(#1952),#50);
#49=STYLED_ITEM('',(#1952),#51);
#50=MANIFOLD_SOLID_BREP('\X2\30BD30EA30C330C9\X0\1',#1202);
#51=MANIFOLD_SOLID_BREP('\X2\30BD30EA30C330C9\X0\1',#1203);
#52=FACE_OUTER_BOUND('',#111,.T.);
#53=FACE_OUTER_BOUND('',#112,.T.);
#54=FACE_OUTER_BOUND('',#113,.T.);
#55=FACE_OUTER_BOUND('',#114,.T.);
#56=FACE_OUTER_BOUND('',#115,.T.);
#57=FACE_OUTER_BOUND('',#116,.T.);
#58=FACE_OUTER_BOUND('',#117,.T.);
#59=FACE_OUTER_BOUND('',#118,.T.);
#60=FACE_OUTER_BOUND('',#119,.T.);
#61=FACE_OUTER_BOUND('',#120,.T.);
#62=FACE_OUTER_BOUND('',#121,.T.);
#63=FACE_OUTER_BOUND('',#122,.T.);
#64=FACE_OUTER_BOUND('',#123,.T.);
#65=FACE_OUTER_BOUND('',#124,.T.);
#66=FACE_OUTER_BOUND('',#125,.T.);
#67=FACE_OUTER_BOUND('',#126,.T.);
#68=FACE_OUTER_BOUND('',#127,.T.);
#69=FACE_OUTER_BOUND('',#128,.T.);
#70=FACE_OUTER_BOUND('',#129,.T.);
#71=FACE_OUTER_BOUND('',#130,.T.);
#72=FACE_OUTER_BOUND('',#131,.T.);
#73=FACE_OUTER_BOUND('',#139,.T.);
#74=FACE_OUTER_BOUND('',#140,.T.);
#75=FACE_OUTER_BOUND('',#141,.T.);
#76=FACE_OUTER_BOUND('',#142,.T.);
#77=FACE_OUTER_BOUND('',#143,.T.);
#78=FACE_OUTER_BOUND('',#144,.T.);
#79=FACE_OUTER_BOUND('',#145,.T.);
#80=FACE_OUTER_BOUND('',#146,.T.);
#81=FACE_OUTER_BOUND('',#147,.T.);
#82=FACE_OUTER_BOUND('',#148,.T.);
#83=FACE_OUTER_BOUND('',#149,.T.);
#84=FACE_OUTER_BOUND('',#150,.T.);
#85=FACE_OUTER_BOUND('',#151,.T.);
#86=FACE_OUTER_BOUND('',#152,.T.);
#87=FACE_OUTER_BOUND('',#153,.T.);
#88=FACE_OUTER_BOUND('',#154,.T.);
#89=FACE_OUTER_BOUND('',#155,.T.);
#90=FACE_OUTER_BOUND('',#156,.T.);
#91=FACE_OUTER_BOUND('',#157,.T.);
#92=FACE_OUTER_BOUND('',#158,.T.);
#93=FACE_OUTER_BOUND('',#159,.T.);
#94=FACE_OUTER_BOUND('',#160,.T.);
#95=FACE_OUTER_BOUND('',#161,.T.);
#96=FACE_OUTER_BOUND('',#162,.T.);
#97=FACE_OUTER_BOUND('',#163,.T.);
#98=FACE_OUTER_BOUND('',#164,.T.);
#99=FACE_OUTER_BOUND('',#165,.T.);
#100=FACE_OUTER_BOUND('',#166,.T.);
#101=FACE_OUTER_BOUND('',#167,.T.);
#102=FACE_OUTER_BOUND('',#168,.T.);
#103=FACE_OUTER_BOUND('',#169,.T.);
#104=FACE_OUTER_BOUND('',#170,.T.);
#105=FACE_OUTER_BOUND('',#171,.T.);
#106=FACE_OUTER_BOUND('',#172,.T.);
#107=FACE_OUTER_BOUND('',#180,.T.);
#108=FACE_OUTER_BOUND('',#181,.T.);
#109=FACE_OUTER_BOUND('',#182,.T.);
#110=FACE_OUTER_BOUND('',#183,.T.);
#111=EDGE_LOOP('',(#761,#762,#763,#764));
#112=EDGE_LOOP('',(#765,#766,#767,#768));
#113=EDGE_LOOP('',(#769,#770,#771,#772));
#114=EDGE_LOOP('',(#773,#774,#775,#776));
#115=EDGE_LOOP('',(#777,#778,#779,#780));
#116=EDGE_LOOP('',(#781,#782,#783,#784));
#117=EDGE_LOOP('',(#785,#786,#787,#788));
#118=EDGE_LOOP('',(#789,#790,#791,#792));
#119=EDGE_LOOP('',(#793,#794,#795,#796));
#120=EDGE_LOOP('',(#797,#798,#799,#800));
#121=EDGE_LOOP('',(#801,#802,#803,#804));
#122=EDGE_LOOP('',(#805,#806,#807,#808));
#123=EDGE_LOOP('',(#809,#810,#811,#812));
#124=EDGE_LOOP('',(#813,#814,#815,#816));
#125=EDGE_LOOP('',(#817,#818,#819,#820));
#126=EDGE_LOOP('',(#821,#822,#823,#824));
#127=EDGE_LOOP('',(#825,#826,#827,#828));
#128=EDGE_LOOP('',(#829,#830,#831,#832));
#129=EDGE_LOOP('',(#833,#834,#835,#836));
#130=EDGE_LOOP('',(#837,#838,#839,#840));
#131=EDGE_LOOP('',(#841,#842,#843,#844,#845,#846,#847,#848,#849,#850,#851,
#852,#853,#854,#855,#856,#857,#858,#859,#860,#861,#862,#863,#864,#865,#866,
#867,#868,#869,#870,#871,#872,#873,#874,#875,#876,#877,#878,#879,#880,#881,
#882,#883,#884));
#132=EDGE_LOOP('',(#885));
#133=EDGE_LOOP('',(#886));
#134=EDGE_LOOP('',(#887));
#135=EDGE_LOOP('',(#888));
#136=EDGE_LOOP('',(#889));
#137=EDGE_LOOP('',(#890));
#138=EDGE_LOOP('',(#891));
#139=EDGE_LOOP('',(#892,#893,#894,#895));
#140=EDGE_LOOP('',(#896,#897,#898,#899));
#141=EDGE_LOOP('',(#900,#901,#902,#903));
#142=EDGE_LOOP('',(#904,#905,#906,#907));
#143=EDGE_LOOP('',(#908,#909,#910,#911));
#144=EDGE_LOOP('',(#912,#913,#914,#915));
#145=EDGE_LOOP('',(#916,#917,#918,#919));
#146=EDGE_LOOP('',(#920,#921,#922,#923));
#147=EDGE_LOOP('',(#924,#925,#926,#927));
#148=EDGE_LOOP('',(#928,#929,#930,#931));
#149=EDGE_LOOP('',(#932,#933,#934,#935));
#150=EDGE_LOOP('',(#936,#937,#938,#939));
#151=EDGE_LOOP('',(#940,#941,#942,#943));
#152=EDGE_LOOP('',(#944,#945,#946,#947));
#153=EDGE_LOOP('',(#948,#949,#950,#951));
#154=EDGE_LOOP('',(#952,#953,#954,#955));
#155=EDGE_LOOP('',(#956,#957,#958,#959));
#156=EDGE_LOOP('',(#960,#961,#962,#963));
#157=EDGE_LOOP('',(#964,#965,#966,#967));
#158=EDGE_LOOP('',(#968,#969,#970,#971));
#159=EDGE_LOOP('',(#972,#973,#974,#975));
#160=EDGE_LOOP('',(#976,#977,#978,#979));
#161=EDGE_LOOP('',(#980,#981,#982,#983));
#162=EDGE_LOOP('',(#984,#985,#986,#987));
#163=EDGE_LOOP('',(#988,#989,#990,#991));
#164=EDGE_LOOP('',(#992,#993,#994,#995));
#165=EDGE_LOOP('',(#996,#997,#998,#999));
#166=EDGE_LOOP('',(#1000,#1001,#1002,#1003));
#167=EDGE_LOOP('',(#1004,#1005,#1006,#1007));
#168=EDGE_LOOP('',(#1008,#1009,#1010,#1011));
#169=EDGE_LOOP('',(#1012,#1013,#1014,#1015));
#170=EDGE_LOOP('',(#1016,#1017,#1018,#1019));
#171=EDGE_LOOP('',(#1020,#1021,#1022,#1023));
#172=EDGE_LOOP('',(#1024,#1025,#1026,#1027,#1028,#1029,#1030,#1031,#1032,
#1033,#1034,#1035,#1036,#1037,#1038,#1039,#1040,#1041,#1042,#1043,#1044,
#1045,#1046,#1047,#1048,#1049,#1050,#1051,#1052,#1053,#1054,#1055,#1056,
#1057,#1058,#1059,#1060,#1061,#1062,#1063,#1064,#1065,#1066,#1067));
#173=EDGE_LOOP('',(#1068));
#174=EDGE_LOOP('',(#1069));
#175=EDGE_LOOP('',(#1070));
#176=EDGE_LOOP('',(#1071));
#177=EDGE_LOOP('',(#1072));
#178=EDGE_LOOP('',(#1073));
#179=EDGE_LOOP('',(#1074));
#180=EDGE_LOOP('',(#1075,#1076,#1077,#1078));
#181=EDGE_LOOP('',(#1079,#1080,#1081,#1082));
#182=EDGE_LOOP('',(#1083,#1084,#1085,#1086));
#183=EDGE_LOOP('',(#1087,#1088,#1089,#1090));
#184=LINE('',#1602,#335);
#185=LINE('',#1604,#336);
#186=LINE('',#1606,#337);
#187=LINE('',#1607,#338);
#188=LINE('',#1610,#339);
#189=LINE('',#1612,#340);
#190=LINE('',#1613,#341);
#191=LINE('',#1616,#342);
#192=LINE('',#1618,#343);
#193=LINE('',#1619,#344);
#194=LINE('',#1621,#345);
#195=LINE('',#1622,#346);
#196=LINE('',#1629,#347);
#197=LINE('',#1635,#348);
#198=LINE('',#1641,#349);
#199=LINE('',#1647,#350);
#200=LINE('',#1653,#351);
#201=LINE('',#1659,#352);
#202=LINE('',#1665,#353);
#203=LINE('',#1670,#354);
#204=LINE('',#1672,#355);
#205=LINE('',#1674,#356);
#206=LINE('',#1675,#357);
#207=LINE('',#1679,#358);
#208=LINE('',#1681,#359);
#209=LINE('',#1683,#360);
#210=LINE('',#1684,#361);
#211=LINE('',#1688,#362);
#212=LINE('',#1690,#363);
#213=LINE('',#1692,#364);
#214=LINE('',#1693,#365);
#215=LINE('',#1695,#366);
#216=LINE('',#1696,#367);
#217=LINE('',#1700,#368);
#218=LINE('',#1702,#369);
#219=LINE('',#1704,#370);
#220=LINE('',#1705,#371);
#221=LINE('',#1707,#372);
#222=LINE('',#1708,#373);
#223=LINE('',#1711,#374);
#224=LINE('',#1713,#375);
#225=LINE('',#1714,#376);
#226=LINE('',#1717,#377);
#227=LINE('',#1719,#378);
#228=LINE('',#1721,#379);
#229=LINE('',#1723,#380);
#230=LINE('',#1725,#381);
#231=LINE('',#1727,#382);
#232=LINE('',#1729,#383);
#233=LINE('',#1731,#384);
#234=LINE('',#1733,#385);
#235=LINE('',#1735,#386);
#236=LINE('',#1737,#387);
#237=LINE('',#1739,#388);
#238=LINE('',#1741,#389);
#239=LINE('',#1743,#390);
#240=LINE('',#1745,#391);
#241=LINE('',#1747,#392);
#242=LINE('',#1749,#393);
#243=LINE('',#1751,#394);
#244=LINE('',#1753,#395);
#245=LINE('',#1755,#396);
#246=LINE('',#1757,#397);
#247=LINE('',#1759,#398);
#248=LINE('',#1761,#399);
#249=LINE('',#1763,#400);
#250=LINE('',#1765,#401);
#251=LINE('',#1767,#402);
#252=LINE('',#1769,#403);
#253=LINE('',#1771,#404);
#254=LINE('',#1773,#405);
#255=LINE('',#1775,#406);
#256=LINE('',#1777,#407);
#257=LINE('',#1779,#408);
#258=LINE('',#1781,#409);
#259=LINE('',#1783,#410);
#260=LINE('',#1784,#411);
#261=LINE('',#1786,#412);
#262=LINE('',#1787,#413);
#263=LINE('',#1790,#414);
#264=LINE('',#1791,#415);
#265=LINE('',#1794,#416);
#266=LINE('',#1796,#417);
#267=LINE('',#1797,#418);
#268=LINE('',#1800,#419);
#269=LINE('',#1802,#420);
#270=LINE('',#1803,#421);
#271=LINE('',#1806,#422);
#272=LINE('',#1808,#423);
#273=LINE('',#1809,#424);
#274=LINE('',#1812,#425);
#275=LINE('',#1813,#426);
#276=LINE('',#1816,#427);
#277=LINE('',#1817,#428);
#278=LINE('',#1819,#429);
#279=LINE('',#1822,#430);
#280=LINE('',#1823,#431);
#281=LINE('',#1826,#432);
#282=LINE('',#1827,#433);
#283=LINE('',#1830,#434);
#284=LINE('',#1831,#435);
#285=LINE('',#1834,#436);
#286=LINE('',#1836,#437);
#287=LINE('',#1837,#438);
#288=LINE('',#1840,#439);
#289=LINE('',#1842,#440);
#290=LINE('',#1843,#441);
#291=LINE('',#1846,#442);
#292=LINE('',#1848,#443);
#293=LINE('',#1849,#444);
#294=LINE('',#1852,#445);
#295=LINE('',#1853,#446);
#296=LINE('',#1856,#447);
#297=LINE('',#1857,#448);
#298=LINE('',#1859,#449);
#299=LINE('',#1862,#450);
#300=LINE('',#1863,#451);
#301=LINE('',#1866,#452);
#302=LINE('',#1867,#453);
#303=LINE('',#1870,#454);
#304=LINE('',#1871,#455);
#305=LINE('',#1874,#456);
#306=LINE('',#1875,#457);
#307=LINE('',#1878,#458);
#308=LINE('',#1879,#459);
#309=LINE('',#1882,#460);
#310=LINE('',#1884,#461);
#311=LINE('',#1885,#462);
#312=LINE('',#1888,#463);
#313=LINE('',#1890,#464);
#314=LINE('',#1891,#465);
#315=LINE('',#1894,#466);
#316=LINE('',#1895,#467);
#317=LINE('',#1898,#468);
#318=LINE('',#1899,#469);
#319=LINE('',#1902,#470);
#320=LINE('',#1903,#471);
#321=LINE('',#1905,#472);
#322=LINE('',#1908,#473);
#323=LINE('',#1909,#474);
#324=LINE('',#1911,#475);
#325=LINE('',#1913,#476);
#326=LINE('',#1916,#477);
#327=LINE('',#1917,#478);
#328=LINE('',#1919,#479);
#329=LINE('',#1921,#480);
#330=LINE('',#1923,#481);
#331=LINE('',#1925,#482);
#332=LINE('',#1926,#483);
#333=LINE('',#1927,#484);
#334=LINE('',#1930,#485);
#335=VECTOR('',#1303,10.);
#336=VECTOR('',#1304,10.);
#337=VECTOR('',#1305,10.);
#338=VECTOR('',#1306,10.);
#339=VECTOR('',#1309,10.);
#340=VECTOR('',#1310,10.);
#341=VECTOR('',#1311,10.);
#342=VECTOR('',#1314,10.);
#343=VECTOR('',#1315,10.);
#344=VECTOR('',#1316,10.);
#345=VECTOR('',#1319,10.);
#346=VECTOR('',#1320,10.);
#347=VECTOR('',#1329,1.6);
#348=VECTOR('',#1336,1.6);
#349=VECTOR('',#1343,1.6);
#350=VECTOR('',#1350,1.6);
#351=VECTOR('',#1357,1.6);
#352=VECTOR('',#1364,1.6);
#353=VECTOR('',#1371,7.);
#354=VECTOR('',#1376,10.);
#355=VECTOR('',#1377,10.);
#356=VECTOR('',#1378,10.);
#357=VECTOR('',#1379,10.);
#358=VECTOR('',#1382,10.);
#359=VECTOR('',#1383,10.);
#360=VECTOR('',#1384,10.);
#361=VECTOR('',#1385,10.);
#362=VECTOR('',#1388,10.);
#363=VECTOR('',#1389,10.);
#364=VECTOR('',#1390,10.);
#365=VECTOR('',#1391,10.);
#366=VECTOR('',#1394,10.);
#367=VECTOR('',#1395,10.);
#368=VECTOR('',#1398,10.);
#369=VECTOR('',#1399,10.);
#370=VECTOR('',#1400,10.);
#371=VECTOR('',#1401,10.);
#372=VECTOR('',#1404,10.);
#373=VECTOR('',#1405,10.);
#374=VECTOR('',#1408,10.);
#375=VECTOR('',#1409,10.);
#376=VECTOR('',#1410,10.);
#377=VECTOR('',#1413,10.);
#378=VECTOR('',#1414,10.);
#379=VECTOR('',#1415,10.);
#380=VECTOR('',#1416,10.);
#381=VECTOR('',#1417,10.);
#382=VECTOR('',#1418,10.);
#383=VECTOR('',#1419,10.);
#384=VECTOR('',#1420,10.);
#385=VECTOR('',#1421,10.);
#386=VECTOR('',#1422,10.);
#387=VECTOR('',#1423,10.);
#388=VECTOR('',#1424,10.);
#389=VECTOR('',#1425,10.);
#390=VECTOR('',#1426,10.);
#391=VECTOR('',#1427,10.);
#392=VECTOR('',#1428,10.);
#393=VECTOR('',#1429,10.);
#394=VECTOR('',#1430,10.);
#395=VECTOR('',#1431,10.);
#396=VECTOR('',#1432,10.);
#397=VECTOR('',#1433,10.);
#398=VECTOR('',#1434,10.);
#399=VECTOR('',#1435,10.);
#400=VECTOR('',#1436,10.);
#401=VECTOR('',#1437,10.);
#402=VECTOR('',#1438,10.);
#403=VECTOR('',#1439,10.);
#404=VECTOR('',#1440,10.);
#405=VECTOR('',#1441,10.);
#406=VECTOR('',#1442,10.);
#407=VECTOR('',#1443,10.);
#408=VECTOR('',#1444,10.);
#409=VECTOR('',#1445,10.);
#410=VECTOR('',#1446,10.);
#411=VECTOR('',#1447,10.);
#412=VECTOR('',#1448,10.);
#413=VECTOR('',#1449,10.);
#414=VECTOR('',#1452,10.);
#415=VECTOR('',#1453,10.);
#416=VECTOR('',#1456,10.);
#417=VECTOR('',#1457,10.);
#418=VECTOR('',#1458,10.);
#419=VECTOR('',#1461,10.);
#420=VECTOR('',#1462,10.);
#421=VECTOR('',#1463,10.);
#422=VECTOR('',#1466,10.);
#423=VECTOR('',#1467,10.);
#424=VECTOR('',#1468,10.);
#425=VECTOR('',#1471,10.);
#426=VECTOR('',#1472,10.);
#427=VECTOR('',#1475,10.);
#428=VECTOR('',#1476,10.);
#429=VECTOR('',#1479,10.);
#430=VECTOR('',#1482,10.);
#431=VECTOR('',#1483,10.);
#432=VECTOR('',#1486,10.);
#433=VECTOR('',#1487,10.);
#434=VECTOR('',#1490,10.);
#435=VECTOR('',#1491,10.);
#436=VECTOR('',#1494,10.);
#437=VECTOR('',#1495,10.);
#438=VECTOR('',#1496,10.);
#439=VECTOR('',#1499,10.);
#440=VECTOR('',#1500,10.);
#441=VECTOR('',#1501,10.);
#442=VECTOR('',#1504,10.);
#443=VECTOR('',#1505,10.);
#444=VECTOR('',#1506,10.);
#445=VECTOR('',#1509,10.);
#446=VECTOR('',#1510,10.);
#447=VECTOR('',#1513,10.);
#448=VECTOR('',#1514,10.);
#449=VECTOR('',#1517,10.);
#450=VECTOR('',#1520,10.);
#451=VECTOR('',#1521,10.);
#452=VECTOR('',#1524,10.);
#453=VECTOR('',#1525,10.);
#454=VECTOR('',#1528,10.);
#455=VECTOR('',#1529,10.);
#456=VECTOR('',#1532,10.);
#457=VECTOR('',#1533,10.);
#458=VECTOR('',#1536,10.);
#459=VECTOR('',#1537,10.);
#460=VECTOR('',#1540,10.);
#461=VECTOR('',#1541,10.);
#462=VECTOR('',#1542,10.);
#463=VECTOR('',#1545,10.);
#464=VECTOR('',#1546,10.);
#465=VECTOR('',#1547,10.);
#466=VECTOR('',#1550,10.);
#467=VECTOR('',#1551,10.);
#468=VECTOR('',#1554,10.);
#469=VECTOR('',#1555,10.);
#470=VECTOR('',#1558,10.);
#471=VECTOR('',#1559,10.);
#472=VECTOR('',#1562,10.);
#473=VECTOR('',#1565,10.);
#474=VECTOR('',#1566,10.);
#475=VECTOR('',#1569,10.);
#476=VECTOR('',#1572,10.);
#477=VECTOR('',#1575,10.);
#478=VECTOR('',#1576,10.);
#479=VECTOR('',#1579,10.);
#480=VECTOR('',#1582,10.);
#481=VECTOR('',#1585,10.);
#482=VECTOR('',#1586,10.);
#483=VECTOR('',#1587,10.);
#484=VECTOR('',#1588,10.);
#485=VECTOR('',#1593,10.);
#486=VERTEX_POINT('',#1600);
#487=VERTEX_POINT('',#1601);
#488=VERTEX_POINT('',#1603);
#489=VERTEX_POINT('',#1605);
#490=VERTEX_POINT('',#1609);
#491=VERTEX_POINT('',#1611);
#492=VERTEX_POINT('',#1615);
#493=VERTEX_POINT('',#1617);
#494=VERTEX_POINT('',#1626);
#495=VERTEX_POINT('',#1628);
#496=VERTEX_POINT('',#1632);
#497=VERTEX_POINT('',#1634);
#498=VERTEX_POINT('',#1638);
#499=VERTEX_POINT('',#1640);
#500=VERTEX_POINT('',#1644);
#501=VERTEX_POINT('',#1646);
#502=VERTEX_POINT('',#1650);
#503=VERTEX_POINT('',#1652);
#504=VERTEX_POINT('',#1656);
#505=VERTEX_POINT('',#1658);
#506=VERTEX_POINT('',#1662);
#507=VERTEX_POINT('',#1664);
#508=VERTEX_POINT('',#1668);
#509=VERTEX_POINT('',#1669);
#510=VERTEX_POINT('',#1671);
#511=VERTEX_POINT('',#1673);
#512=VERTEX_POINT('',#1677);
#513=VERTEX_POINT('',#1678);
#514=VERTEX_POINT('',#1680);
#515=VERTEX_POINT('',#1682);
#516=VERTEX_POINT('',#1686);
#517=VERTEX_POINT('',#1687);
#518=VERTEX_POINT('',#1689);
#519=VERTEX_POINT('',#1691);
#520=VERTEX_POINT('',#1698);
#521=VERTEX_POINT('',#1699);
#522=VERTEX_POINT('',#1701);
#523=VERTEX_POINT('',#1703);
#524=VERTEX_POINT('',#1710);
#525=VERTEX_POINT('',#1712);
#526=VERTEX_POINT('',#1716);
#527=VERTEX_POINT('',#1718);
#528=VERTEX_POINT('',#1720);
#529=VERTEX_POINT('',#1722);
#530=VERTEX_POINT('',#1724);
#531=VERTEX_POINT('',#1726);
#532=VERTEX_POINT('',#1728);
#533=VERTEX_POINT('',#1730);
#534=VERTEX_POINT('',#1732);
#535=VERTEX_POINT('',#1734);
#536=VERTEX_POINT('',#1736);
#537=VERTEX_POINT('',#1738);
#538=VERTEX_POINT('',#1740);
#539=VERTEX_POINT('',#1742);
#540=VERTEX_POINT('',#1744);
#541=VERTEX_POINT('',#1746);
#542=VERTEX_POINT('',#1748);
#543=VERTEX_POINT('',#1750);
#544=VERTEX_POINT('',#1752);
#545=VERTEX_POINT('',#1754);
#546=VERTEX_POINT('',#1756);
#547=VERTEX_POINT('',#1758);
#548=VERTEX_POINT('',#1760);
#549=VERTEX_POINT('',#1762);
#550=VERTEX_POINT('',#1764);
#551=VERTEX_POINT('',#1766);
#552=VERTEX_POINT('',#1768);
#553=VERTEX_POINT('',#1770);
#554=VERTEX_POINT('',#1772);
#555=VERTEX_POINT('',#1774);
#556=VERTEX_POINT('',#1776);
#557=VERTEX_POINT('',#1778);
#558=VERTEX_POINT('',#1780);
#559=VERTEX_POINT('',#1782);
#560=VERTEX_POINT('',#1785);
#561=VERTEX_POINT('',#1789);
#562=VERTEX_POINT('',#1793);
#563=VERTEX_POINT('',#1795);
#564=VERTEX_POINT('',#1799);
#565=VERTEX_POINT('',#1801);
#566=VERTEX_POINT('',#1805);
#567=VERTEX_POINT('',#1807);
#568=VERTEX_POINT('',#1811);
#569=VERTEX_POINT('',#1815);
#570=VERTEX_POINT('',#1821);
#571=VERTEX_POINT('',#1825);
#572=VERTEX_POINT('',#1829);
#573=VERTEX_POINT('',#1833);
#574=VERTEX_POINT('',#1835);
#575=VERTEX_POINT('',#1839);
#576=VERTEX_POINT('',#1841);
#577=VERTEX_POINT('',#1845);
#578=VERTEX_POINT('',#1847);
#579=VERTEX_POINT('',#1851);
#580=VERTEX_POINT('',#1855);
#581=VERTEX_POINT('',#1861);
#582=VERTEX_POINT('',#1865);
#583=VERTEX_POINT('',#1869);
#584=VERTEX_POINT('',#1873);
#585=VERTEX_POINT('',#1877);
#586=VERTEX_POINT('',#1881);
#587=VERTEX_POINT('',#1883);
#588=VERTEX_POINT('',#1887);
#589=VERTEX_POINT('',#1889);
#590=VERTEX_POINT('',#1893);
#591=VERTEX_POINT('',#1897);
#592=VERTEX_POINT('',#1901);
#593=VERTEX_POINT('',#1907);
#594=VERTEX_POINT('',#1915);
#595=VERTEX_POINT('',#1924);
#596=EDGE_CURVE('',#486,#487,#184,.T.);
#597=EDGE_CURVE('',#487,#488,#185,.T.);
#598=EDGE_CURVE('',#489,#488,#186,.T.);
#599=EDGE_CURVE('',#486,#489,#187,.T.);
#600=EDGE_CURVE('',#490,#486,#188,.T.);
#601=EDGE_CURVE('',#491,#489,#189,.T.);
#602=EDGE_CURVE('',#490,#491,#190,.T.);
#603=EDGE_CURVE('',#492,#490,#191,.T.);
#604=EDGE_CURVE('',#493,#491,#192,.T.);
#605=EDGE_CURVE('',#492,#493,#193,.T.);
#606=EDGE_CURVE('',#487,#492,#194,.T.);
#607=EDGE_CURVE('',#488,#493,#195,.T.);
#608=EDGE_CURVE('',#494,#494,#27,.T.);
#609=EDGE_CURVE('',#494,#495,#196,.T.);
#610=EDGE_CURVE('',#495,#495,#28,.T.);
#611=EDGE_CURVE('',#496,#496,#29,.T.);
#612=EDGE_CURVE('',#496,#497,#197,.T.);
#613=EDGE_CURVE('',#497,#497,#30,.T.);
#614=EDGE_CURVE('',#498,#498,#31,.T.);
#615=EDGE_CURVE('',#498,#499,#198,.T.);
#616=EDGE_CURVE('',#499,#499,#32,.T.);
#617=EDGE_CURVE('',#500,#500,#33,.T.);
#618=EDGE_CURVE('',#500,#501,#199,.T.);
#619=EDGE_CURVE('',#501,#501,#34,.T.);
#620=EDGE_CURVE('',#502,#502,#35,.T.);
#621=EDGE_CURVE('',#502,#503,#200,.T.);
#622=EDGE_CURVE('',#503,#503,#36,.T.);
#623=EDGE_CURVE('',#504,#504,#37,.T.);
#624=EDGE_CURVE('',#504,#505,#201,.T.);
#625=EDGE_CURVE('',#505,#505,#38,.T.);
#626=EDGE_CURVE('',#506,#506,#39,.T.);
#627=EDGE_CURVE('',#506,#507,#202,.T.);
#628=EDGE_CURVE('',#507,#507,#40,.T.);
#629=EDGE_CURVE('',#508,#509,#203,.T.);
#630=EDGE_CURVE('',#510,#508,#204,.T.);
#631=EDGE_CURVE('',#511,#510,#205,.T.);
#632=EDGE_CURVE('',#511,#509,#206,.T.);
#633=EDGE_CURVE('',#512,#513,#207,.T.);
#634=EDGE_CURVE('',#512,#514,#208,.T.);
#635=EDGE_CURVE('',#514,#515,#209,.T.);
#636=EDGE_CURVE('',#513,#515,#210,.T.);
#637=EDGE_CURVE('',#516,#517,#211,.T.);
#638=EDGE_CURVE('',#516,#518,#212,.T.);
#639=EDGE_CURVE('',#518,#519,#213,.T.);
#640=EDGE_CURVE('',#517,#519,#214,.T.);
#641=EDGE_CURVE('',#518,#511,#215,.T.);
#642=EDGE_CURVE('',#519,#510,#216,.T.);
#643=EDGE_CURVE('',#520,#521,#217,.T.);
#644=EDGE_CURVE('',#522,#520,#218,.T.);
#645=EDGE_CURVE('',#523,#522,#219,.T.);
#646=EDGE_CURVE('',#523,#521,#220,.T.);
#647=EDGE_CURVE('',#514,#523,#221,.T.);
#648=EDGE_CURVE('',#515,#522,#222,.T.);
#649=EDGE_CURVE('',#521,#524,#223,.T.);
#650=EDGE_CURVE('',#524,#525,#224,.T.);
#651=EDGE_CURVE('',#520,#525,#225,.T.);
#652=EDGE_CURVE('',#508,#526,#226,.T.);
#653=EDGE_CURVE('',#526,#527,#227,.T.);
#654=EDGE_CURVE('',#527,#528,#228,.T.);
#655=EDGE_CURVE('',#528,#529,#229,.T.);
#656=EDGE_CURVE('',#529,#530,#230,.T.);
#657=EDGE_CURVE('',#530,#531,#231,.T.);
#658=EDGE_CURVE('',#531,#532,#232,.T.);
#659=EDGE_CURVE('',#532,#533,#233,.T.);
#660=EDGE_CURVE('',#533,#534,#234,.T.);
#661=EDGE_CURVE('',#534,#535,#235,.T.);
#662=EDGE_CURVE('',#535,#536,#236,.T.);
#663=EDGE_CURVE('',#536,#537,#237,.T.);
#664=EDGE_CURVE('',#537,#538,#238,.T.);
#665=EDGE_CURVE('',#538,#539,#239,.T.);
#666=EDGE_CURVE('',#539,#540,#240,.T.);
#667=EDGE_CURVE('',#540,#541,#241,.T.);
#668=EDGE_CURVE('',#541,#542,#242,.T.);
#669=EDGE_CURVE('',#542,#543,#243,.T.);
#670=EDGE_CURVE('',#543,#544,#244,.T.);
#671=EDGE_CURVE('',#544,#545,#245,.T.);
#672=EDGE_CURVE('',#545,#546,#246,.T.);
#673=EDGE_CURVE('',#546,#547,#247,.T.);
#674=EDGE_CURVE('',#547,#548,#248,.T.);
#675=EDGE_CURVE('',#548,#549,#249,.T.);
#676=EDGE_CURVE('',#549,#550,#250,.T.);
#677=EDGE_CURVE('',#550,#551,#251,.T.);
#678=EDGE_CURVE('',#551,#552,#252,.T.);
#679=EDGE_CURVE('',#552,#553,#253,.T.);
#680=EDGE_CURVE('',#553,#554,#254,.T.);
#681=EDGE_CURVE('',#554,#555,#255,.T.);
#682=EDGE_CURVE('',#555,#556,#256,.T.);
#683=EDGE_CURVE('',#556,#557,#257,.T.);
#684=EDGE_CURVE('',#557,#558,#258,.T.);
#685=EDGE_CURVE('',#558,#559,#259,.T.);
#686=EDGE_CURVE('',#559,#513,#260,.T.);
#687=EDGE_CURVE('',#525,#560,#261,.T.);
#688=EDGE_CURVE('',#560,#517,#262,.T.);
#689=EDGE_CURVE('',#561,#560,#263,.T.);
#690=EDGE_CURVE('',#561,#516,#264,.T.);
#691=EDGE_CURVE('',#532,#562,#265,.T.);
#692=EDGE_CURVE('',#563,#531,#266,.T.);
#693=EDGE_CURVE('',#563,#562,#267,.T.);
#694=EDGE_CURVE('',#564,#529,#268,.T.);
#695=EDGE_CURVE('',#564,#565,#269,.T.);
#696=EDGE_CURVE('',#565,#530,#270,.T.);
#697=EDGE_CURVE('',#538,#566,#271,.T.);
#698=EDGE_CURVE('',#567,#537,#272,.T.);
#699=EDGE_CURVE('',#567,#566,#273,.T.);
#700=EDGE_CURVE('',#568,#567,#274,.T.);
#701=EDGE_CURVE('',#568,#536,#275,.T.);
#702=EDGE_CURVE('',#569,#535,#276,.T.);
#703=EDGE_CURVE('',#569,#568,#277,.T.);
#704=EDGE_CURVE('',#565,#563,#278,.T.);
#705=EDGE_CURVE('',#566,#570,#279,.T.);
#706=EDGE_CURVE('',#570,#539,#280,.T.);
#707=EDGE_CURVE('',#571,#534,#281,.T.);
#708=EDGE_CURVE('',#571,#569,#282,.T.);
#709=EDGE_CURVE('',#528,#572,#283,.T.);
#710=EDGE_CURVE('',#572,#564,#284,.T.);
#711=EDGE_CURVE('',#556,#573,#285,.T.);
#712=EDGE_CURVE('',#574,#555,#286,.T.);
#713=EDGE_CURVE('',#574,#573,#287,.T.);
#714=EDGE_CURVE('',#575,#553,#288,.T.);
#715=EDGE_CURVE('',#575,#576,#289,.T.);
#716=EDGE_CURVE('',#576,#554,#290,.T.);
#717=EDGE_CURVE('',#550,#577,#291,.T.);
#718=EDGE_CURVE('',#578,#549,#292,.T.);
#719=EDGE_CURVE('',#578,#577,#293,.T.);
#720=EDGE_CURVE('',#579,#578,#294,.T.);
#721=EDGE_CURVE('',#579,#548,#295,.T.);
#722=EDGE_CURVE('',#580,#547,#296,.T.);
#723=EDGE_CURVE('',#580,#579,#297,.T.);
#724=EDGE_CURVE('',#576,#574,#298,.T.);
#725=EDGE_CURVE('',#577,#581,#299,.T.);
#726=EDGE_CURVE('',#581,#551,#300,.T.);
#727=EDGE_CURVE('',#546,#582,#301,.T.);
#728=EDGE_CURVE('',#582,#580,#302,.T.);
#729=EDGE_CURVE('',#583,#552,#303,.T.);
#730=EDGE_CURVE('',#583,#575,#304,.T.);
#731=EDGE_CURVE('',#584,#527,#305,.T.);
#732=EDGE_CURVE('',#584,#572,#306,.T.);
#733=EDGE_CURVE('',#570,#585,#307,.T.);
#734=EDGE_CURVE('',#585,#540,#308,.T.);
#735=EDGE_CURVE('',#586,#544,#309,.T.);
#736=EDGE_CURVE('',#586,#587,#310,.T.);
#737=EDGE_CURVE('',#587,#545,#311,.T.);
#738=EDGE_CURVE('',#559,#588,#312,.T.);
#739=EDGE_CURVE('',#589,#558,#313,.T.);
#740=EDGE_CURVE('',#589,#588,#314,.T.);
#741=EDGE_CURVE('',#590,#557,#315,.T.);
#742=EDGE_CURVE('',#590,#589,#316,.T.);
#743=EDGE_CURVE('',#541,#591,#317,.T.);
#744=EDGE_CURVE('',#585,#591,#318,.T.);
#745=EDGE_CURVE('',#592,#526,#319,.T.);
#746=EDGE_CURVE('',#592,#584,#320,.T.);
#747=EDGE_CURVE('',#587,#582,#321,.T.);
#748=EDGE_CURVE('',#591,#593,#322,.T.);
#749=EDGE_CURVE('',#593,#542,#323,.T.);
#750=EDGE_CURVE('',#509,#592,#324,.T.);
#751=EDGE_CURVE('',#573,#590,#325,.T.);
#752=EDGE_CURVE('',#594,#571,#326,.T.);
#753=EDGE_CURVE('',#594,#533,#327,.T.);
#754=EDGE_CURVE('',#562,#594,#328,.T.);
#755=EDGE_CURVE('',#581,#583,#329,.T.);
#756=EDGE_CURVE('',#588,#512,#330,.T.);
#757=EDGE_CURVE('',#595,#586,#331,.T.);
#758=EDGE_CURVE('',#593,#595,#332,.T.);
#759=EDGE_CURVE('',#524,#561,#333,.T.);
#760=EDGE_CURVE('',#595,#543,#334,.T.);
#761=ORIENTED_EDGE('',*,*,#596,.T.);
#762=ORIENTED_EDGE('',*,*,#597,.T.);
#763=ORIENTED_EDGE('',*,*,#598,.F.);
#764=ORIENTED_EDGE('',*,*,#599,.F.);
#765=ORIENTED_EDGE('',*,*,#600,.T.);
#766=ORIENTED_EDGE('',*,*,#599,.T.);
#767=ORIENTED_EDGE('',*,*,#601,.F.);
#768=ORIENTED_EDGE('',*,*,#602,.F.);
#769=ORIENTED_EDGE('',*,*,#603,.T.);
#770=ORIENTED_EDGE('',*,*,#602,.T.);
#771=ORIENTED_EDGE('',*,*,#604,.F.);
#772=ORIENTED_EDGE('',*,*,#605,.F.);
#773=ORIENTED_EDGE('',*,*,#606,.T.);
#774=ORIENTED_EDGE('',*,*,#605,.T.);
#775=ORIENTED_EDGE('',*,*,#607,.F.);
#776=ORIENTED_EDGE('',*,*,#597,.F.);
#777=ORIENTED_EDGE('',*,*,#607,.T.);
#778=ORIENTED_EDGE('',*,*,#604,.T.);
#779=ORIENTED_EDGE('',*,*,#601,.T.);
#780=ORIENTED_EDGE('',*,*,#598,.T.);
#781=ORIENTED_EDGE('',*,*,#606,.F.);
#782=ORIENTED_EDGE('',*,*,#596,.F.);
#783=ORIENTED_EDGE('',*,*,#600,.F.);
#784=ORIENTED_EDGE('',*,*,#603,.F.);
#785=ORIENTED_EDGE('',*,*,#608,.F.);
#786=ORIENTED_EDGE('',*,*,#609,.T.);
#787=ORIENTED_EDGE('',*,*,#610,.F.);
#788=ORIENTED_EDGE('',*,*,#609,.F.);
#789=ORIENTED_EDGE('',*,*,#611,.F.);
#790=ORIENTED_EDGE('',*,*,#612,.T.);
#791=ORIENTED_EDGE('',*,*,#613,.F.);
#792=ORIENTED_EDGE('',*,*,#612,.F.);
#793=ORIENTED_EDGE('',*,*,#614,.F.);
#794=ORIENTED_EDGE('',*,*,#615,.T.);
#795=ORIENTED_EDGE('',*,*,#616,.F.);
#796=ORIENTED_EDGE('',*,*,#615,.F.);
#797=ORIENTED_EDGE('',*,*,#617,.F.);
#798=ORIENTED_EDGE('',*,*,#618,.T.);
#799=ORIENTED_EDGE('',*,*,#619,.F.);
#800=ORIENTED_EDGE('',*,*,#618,.F.);
#801=ORIENTED_EDGE('',*,*,#620,.F.);
#802=ORIENTED_EDGE('',*,*,#621,.T.);
#803=ORIENTED_EDGE('',*,*,#622,.F.);
#804=ORIENTED_EDGE('',*,*,#621,.F.);
#805=ORIENTED_EDGE('',*,*,#623,.F.);
#806=ORIENTED_EDGE('',*,*,#624,.T.);
#807=ORIENTED_EDGE('',*,*,#625,.F.);
#808=ORIENTED_EDGE('',*,*,#624,.F.);
#809=ORIENTED_EDGE('',*,*,#626,.F.);
#810=ORIENTED_EDGE('',*,*,#627,.T.);
#811=ORIENTED_EDGE('',*,*,#628,.F.);
#812=ORIENTED_EDGE('',*,*,#627,.F.);
#813=ORIENTED_EDGE('',*,*,#629,.F.);
#814=ORIENTED_EDGE('',*,*,#630,.F.);
#815=ORIENTED_EDGE('',*,*,#631,.F.);
#816=ORIENTED_EDGE('',*,*,#632,.T.);
#817=ORIENTED_EDGE('',*,*,#633,.F.);
#818=ORIENTED_EDGE('',*,*,#634,.T.);
#819=ORIENTED_EDGE('',*,*,#635,.T.);
#820=ORIENTED_EDGE('',*,*,#636,.F.);
#821=ORIENTED_EDGE('',*,*,#637,.F.);
#822=ORIENTED_EDGE('',*,*,#638,.T.);
#823=ORIENTED_EDGE('',*,*,#639,.T.);
#824=ORIENTED_EDGE('',*,*,#640,.F.);
#825=ORIENTED_EDGE('',*,*,#641,.T.);
#826=ORIENTED_EDGE('',*,*,#631,.T.);
#827=ORIENTED_EDGE('',*,*,#642,.F.);
#828=ORIENTED_EDGE('',*,*,#639,.F.);
#829=ORIENTED_EDGE('',*,*,#643,.F.);
#830=ORIENTED_EDGE('',*,*,#644,.F.);
#831=ORIENTED_EDGE('',*,*,#645,.F.);
#832=ORIENTED_EDGE('',*,*,#646,.T.);
#833=ORIENTED_EDGE('',*,*,#647,.T.);
#834=ORIENTED_EDGE('',*,*,#645,.T.);
#835=ORIENTED_EDGE('',*,*,#648,.F.);
#836=ORIENTED_EDGE('',*,*,#635,.F.);
#837=ORIENTED_EDGE('',*,*,#643,.T.);
#838=ORIENTED_EDGE('',*,*,#649,.T.);
#839=ORIENTED_EDGE('',*,*,#650,.T.);
#840=ORIENTED_EDGE('',*,*,#651,.F.);
#841=ORIENTED_EDGE('',*,*,#652,.T.);
#842=ORIENTED_EDGE('',*,*,#653,.T.);
#843=ORIENTED_EDGE('',*,*,#654,.T.);
#844=ORIENTED_EDGE('',*,*,#655,.T.);
#845=ORIENTED_EDGE('',*,*,#656,.T.);
#846=ORIENTED_EDGE('',*,*,#657,.T.);
#847=ORIENTED_EDGE('',*,*,#658,.T.);
#848=ORIENTED_EDGE('',*,*,#659,.T.);
#849=ORIENTED_EDGE('',*,*,#660,.T.);
#850=ORIENTED_EDGE('',*,*,#661,.T.);
#851=ORIENTED_EDGE('',*,*,#662,.T.);
#852=ORIENTED_EDGE('',*,*,#663,.T.);
#853=ORIENTED_EDGE('',*,*,#664,.T.);
#854=ORIENTED_EDGE('',*,*,#665,.T.);
#855=ORIENTED_EDGE('',*,*,#666,.T.);
#856=ORIENTED_EDGE('',*,*,#667,.T.);
#857=ORIENTED_EDGE('',*,*,#668,.T.);
#858=ORIENTED_EDGE('',*,*,#669,.T.);
#859=ORIENTED_EDGE('',*,*,#670,.T.);
#860=ORIENTED_EDGE('',*,*,#671,.T.);
#861=ORIENTED_EDGE('',*,*,#672,.T.);
#862=ORIENTED_EDGE('',*,*,#673,.T.);
#863=ORIENTED_EDGE('',*,*,#674,.T.);
#864=ORIENTED_EDGE('',*,*,#675,.T.);
#865=ORIENTED_EDGE('',*,*,#676,.T.);
#866=ORIENTED_EDGE('',*,*,#677,.T.);
#867=ORIENTED_EDGE('',*,*,#678,.T.);
#868=ORIENTED_EDGE('',*,*,#679,.T.);
#869=ORIENTED_EDGE('',*,*,#680,.T.);
#870=ORIENTED_EDGE('',*,*,#681,.T.);
#871=ORIENTED_EDGE('',*,*,#682,.T.);
#872=ORIENTED_EDGE('',*,*,#683,.T.);
#873=ORIENTED_EDGE('',*,*,#684,.T.);
#874=ORIENTED_EDGE('',*,*,#685,.T.);
#875=ORIENTED_EDGE('',*,*,#686,.T.);
#876=ORIENTED_EDGE('',*,*,#636,.T.);
#877=ORIENTED_EDGE('',*,*,#648,.T.);
#878=ORIENTED_EDGE('',*,*,#644,.T.);
#879=ORIENTED_EDGE('',*,*,#651,.T.);
#880=ORIENTED_EDGE('',*,*,#687,.T.);
#881=ORIENTED_EDGE('',*,*,#688,.T.);
#882=ORIENTED_EDGE('',*,*,#640,.T.);
#883=ORIENTED_EDGE('',*,*,#642,.T.);
#884=ORIENTED_EDGE('',*,*,#630,.T.);
#885=ORIENTED_EDGE('',*,*,#610,.T.);
#886=ORIENTED_EDGE('',*,*,#613,.T.);
#887=ORIENTED_EDGE('',*,*,#616,.T.);
#888=ORIENTED_EDGE('',*,*,#619,.T.);
#889=ORIENTED_EDGE('',*,*,#622,.T.);
#890=ORIENTED_EDGE('',*,*,#625,.T.);
#891=ORIENTED_EDGE('',*,*,#628,.T.);
#892=ORIENTED_EDGE('',*,*,#637,.T.);
#893=ORIENTED_EDGE('',*,*,#688,.F.);
#894=ORIENTED_EDGE('',*,*,#689,.F.);
#895=ORIENTED_EDGE('',*,*,#690,.T.);
#896=ORIENTED_EDGE('',*,*,#691,.F.);
#897=ORIENTED_EDGE('',*,*,#658,.F.);
#898=ORIENTED_EDGE('',*,*,#692,.F.);
#899=ORIENTED_EDGE('',*,*,#693,.T.);
#900=ORIENTED_EDGE('',*,*,#694,.F.);
#901=ORIENTED_EDGE('',*,*,#695,.T.);
#902=ORIENTED_EDGE('',*,*,#696,.T.);
#903=ORIENTED_EDGE('',*,*,#656,.F.);
#904=ORIENTED_EDGE('',*,*,#697,.F.);
#905=ORIENTED_EDGE('',*,*,#664,.F.);
#906=ORIENTED_EDGE('',*,*,#698,.F.);
#907=ORIENTED_EDGE('',*,*,#699,.T.);
#908=ORIENTED_EDGE('',*,*,#700,.T.);
#909=ORIENTED_EDGE('',*,*,#698,.T.);
#910=ORIENTED_EDGE('',*,*,#663,.F.);
#911=ORIENTED_EDGE('',*,*,#701,.F.);
#912=ORIENTED_EDGE('',*,*,#702,.F.);
#913=ORIENTED_EDGE('',*,*,#703,.T.);
#914=ORIENTED_EDGE('',*,*,#701,.T.);
#915=ORIENTED_EDGE('',*,*,#662,.F.);
#916=ORIENTED_EDGE('',*,*,#704,.T.);
#917=ORIENTED_EDGE('',*,*,#692,.T.);
#918=ORIENTED_EDGE('',*,*,#657,.F.);
#919=ORIENTED_EDGE('',*,*,#696,.F.);
#920=ORIENTED_EDGE('',*,*,#697,.T.);
#921=ORIENTED_EDGE('',*,*,#705,.T.);
#922=ORIENTED_EDGE('',*,*,#706,.T.);
#923=ORIENTED_EDGE('',*,*,#665,.F.);
#924=ORIENTED_EDGE('',*,*,#702,.T.);
#925=ORIENTED_EDGE('',*,*,#661,.F.);
#926=ORIENTED_EDGE('',*,*,#707,.F.);
#927=ORIENTED_EDGE('',*,*,#708,.T.);
#928=ORIENTED_EDGE('',*,*,#694,.T.);
#929=ORIENTED_EDGE('',*,*,#655,.F.);
#930=ORIENTED_EDGE('',*,*,#709,.T.);
#931=ORIENTED_EDGE('',*,*,#710,.T.);
#932=ORIENTED_EDGE('',*,*,#711,.F.);
#933=ORIENTED_EDGE('',*,*,#682,.F.);
#934=ORIENTED_EDGE('',*,*,#712,.F.);
#935=ORIENTED_EDGE('',*,*,#713,.T.);
#936=ORIENTED_EDGE('',*,*,#714,.F.);
#937=ORIENTED_EDGE('',*,*,#715,.T.);
#938=ORIENTED_EDGE('',*,*,#716,.T.);
#939=ORIENTED_EDGE('',*,*,#680,.F.);
#940=ORIENTED_EDGE('',*,*,#717,.F.);
#941=ORIENTED_EDGE('',*,*,#676,.F.);
#942=ORIENTED_EDGE('',*,*,#718,.F.);
#943=ORIENTED_EDGE('',*,*,#719,.T.);
#944=ORIENTED_EDGE('',*,*,#720,.T.);
#945=ORIENTED_EDGE('',*,*,#718,.T.);
#946=ORIENTED_EDGE('',*,*,#675,.F.);
#947=ORIENTED_EDGE('',*,*,#721,.F.);
#948=ORIENTED_EDGE('',*,*,#722,.F.);
#949=ORIENTED_EDGE('',*,*,#723,.T.);
#950=ORIENTED_EDGE('',*,*,#721,.T.);
#951=ORIENTED_EDGE('',*,*,#674,.F.);
#952=ORIENTED_EDGE('',*,*,#724,.T.);
#953=ORIENTED_EDGE('',*,*,#712,.T.);
#954=ORIENTED_EDGE('',*,*,#681,.F.);
#955=ORIENTED_EDGE('',*,*,#716,.F.);
#956=ORIENTED_EDGE('',*,*,#717,.T.);
#957=ORIENTED_EDGE('',*,*,#725,.T.);
#958=ORIENTED_EDGE('',*,*,#726,.T.);
#959=ORIENTED_EDGE('',*,*,#677,.F.);
#960=ORIENTED_EDGE('',*,*,#722,.T.);
#961=ORIENTED_EDGE('',*,*,#673,.F.);
#962=ORIENTED_EDGE('',*,*,#727,.T.);
#963=ORIENTED_EDGE('',*,*,#728,.T.);
#964=ORIENTED_EDGE('',*,*,#714,.T.);
#965=ORIENTED_EDGE('',*,*,#679,.F.);
#966=ORIENTED_EDGE('',*,*,#729,.F.);
#967=ORIENTED_EDGE('',*,*,#730,.T.);
#968=ORIENTED_EDGE('',*,*,#709,.F.);
#969=ORIENTED_EDGE('',*,*,#654,.F.);
#970=ORIENTED_EDGE('',*,*,#731,.F.);
#971=ORIENTED_EDGE('',*,*,#732,.T.);
#972=ORIENTED_EDGE('',*,*,#706,.F.);
#973=ORIENTED_EDGE('',*,*,#733,.T.);
#974=ORIENTED_EDGE('',*,*,#734,.T.);
#975=ORIENTED_EDGE('',*,*,#666,.F.);
#976=ORIENTED_EDGE('',*,*,#735,.F.);
#977=ORIENTED_EDGE('',*,*,#736,.T.);
#978=ORIENTED_EDGE('',*,*,#737,.T.);
#979=ORIENTED_EDGE('',*,*,#671,.F.);
#980=ORIENTED_EDGE('',*,*,#738,.F.);
#981=ORIENTED_EDGE('',*,*,#685,.F.);
#982=ORIENTED_EDGE('',*,*,#739,.F.);
#983=ORIENTED_EDGE('',*,*,#740,.T.);
#984=ORIENTED_EDGE('',*,*,#741,.F.);
#985=ORIENTED_EDGE('',*,*,#742,.T.);
#986=ORIENTED_EDGE('',*,*,#739,.T.);
#987=ORIENTED_EDGE('',*,*,#684,.F.);
#988=ORIENTED_EDGE('',*,*,#743,.F.);
#989=ORIENTED_EDGE('',*,*,#667,.F.);
#990=ORIENTED_EDGE('',*,*,#734,.F.);
#991=ORIENTED_EDGE('',*,*,#744,.T.);
#992=ORIENTED_EDGE('',*,*,#745,.F.);
#993=ORIENTED_EDGE('',*,*,#746,.T.);
#994=ORIENTED_EDGE('',*,*,#731,.T.);
#995=ORIENTED_EDGE('',*,*,#653,.F.);
#996=ORIENTED_EDGE('',*,*,#727,.F.);
#997=ORIENTED_EDGE('',*,*,#672,.F.);
#998=ORIENTED_EDGE('',*,*,#737,.F.);
#999=ORIENTED_EDGE('',*,*,#747,.T.);
#1000=ORIENTED_EDGE('',*,*,#743,.T.);
#1001=ORIENTED_EDGE('',*,*,#748,.T.);
#1002=ORIENTED_EDGE('',*,*,#749,.T.);
#1003=ORIENTED_EDGE('',*,*,#668,.F.);
#1004=ORIENTED_EDGE('',*,*,#629,.T.);
#1005=ORIENTED_EDGE('',*,*,#750,.T.);
#1006=ORIENTED_EDGE('',*,*,#745,.T.);
#1007=ORIENTED_EDGE('',*,*,#652,.F.);
#1008=ORIENTED_EDGE('',*,*,#711,.T.);
#1009=ORIENTED_EDGE('',*,*,#751,.T.);
#1010=ORIENTED_EDGE('',*,*,#741,.T.);
#1011=ORIENTED_EDGE('',*,*,#683,.F.);
#1012=ORIENTED_EDGE('',*,*,#752,.T.);
#1013=ORIENTED_EDGE('',*,*,#707,.T.);
#1014=ORIENTED_EDGE('',*,*,#660,.F.);
#1015=ORIENTED_EDGE('',*,*,#753,.F.);
#1016=ORIENTED_EDGE('',*,*,#691,.T.);
#1017=ORIENTED_EDGE('',*,*,#754,.T.);
#1018=ORIENTED_EDGE('',*,*,#753,.T.);
#1019=ORIENTED_EDGE('',*,*,#659,.F.);
#1020=ORIENTED_EDGE('',*,*,#755,.T.);
#1021=ORIENTED_EDGE('',*,*,#729,.T.);
#1022=ORIENTED_EDGE('',*,*,#678,.F.);
#1023=ORIENTED_EDGE('',*,*,#726,.F.);
#1024=ORIENTED_EDGE('',*,*,#756,.F.);
#1025=ORIENTED_EDGE('',*,*,#740,.F.);
#1026=ORIENTED_EDGE('',*,*,#742,.F.);
#1027=ORIENTED_EDGE('',*,*,#751,.F.);
#1028=ORIENTED_EDGE('',*,*,#713,.F.);
#1029=ORIENTED_EDGE('',*,*,#724,.F.);
#1030=ORIENTED_EDGE('',*,*,#715,.F.);
#1031=ORIENTED_EDGE('',*,*,#730,.F.);
#1032=ORIENTED_EDGE('',*,*,#755,.F.);
#1033=ORIENTED_EDGE('',*,*,#725,.F.);
#1034=ORIENTED_EDGE('',*,*,#719,.F.);
#1035=ORIENTED_EDGE('',*,*,#720,.F.);
#1036=ORIENTED_EDGE('',*,*,#723,.F.);
#1037=ORIENTED_EDGE('',*,*,#728,.F.);
#1038=ORIENTED_EDGE('',*,*,#747,.F.);
#1039=ORIENTED_EDGE('',*,*,#736,.F.);
#1040=ORIENTED_EDGE('',*,*,#757,.F.);
#1041=ORIENTED_EDGE('',*,*,#758,.F.);
#1042=ORIENTED_EDGE('',*,*,#748,.F.);
#1043=ORIENTED_EDGE('',*,*,#744,.F.);
#1044=ORIENTED_EDGE('',*,*,#733,.F.);
#1045=ORIENTED_EDGE('',*,*,#705,.F.);
#1046=ORIENTED_EDGE('',*,*,#699,.F.);
#1047=ORIENTED_EDGE('',*,*,#700,.F.);
#1048=ORIENTED_EDGE('',*,*,#703,.F.);
#1049=ORIENTED_EDGE('',*,*,#708,.F.);
#1050=ORIENTED_EDGE('',*,*,#752,.F.);
#1051=ORIENTED_EDGE('',*,*,#754,.F.);
#1052=ORIENTED_EDGE('',*,*,#693,.F.);
#1053=ORIENTED_EDGE('',*,*,#704,.F.);
#1054=ORIENTED_EDGE('',*,*,#695,.F.);
#1055=ORIENTED_EDGE('',*,*,#710,.F.);
#1056=ORIENTED_EDGE('',*,*,#732,.F.);
#1057=ORIENTED_EDGE('',*,*,#746,.F.);
#1058=ORIENTED_EDGE('',*,*,#750,.F.);
#1059=ORIENTED_EDGE('',*,*,#632,.F.);
#1060=ORIENTED_EDGE('',*,*,#641,.F.);
#1061=ORIENTED_EDGE('',*,*,#638,.F.);
#1062=ORIENTED_EDGE('',*,*,#690,.F.);
#1063=ORIENTED_EDGE('',*,*,#759,.F.);
#1064=ORIENTED_EDGE('',*,*,#649,.F.);
#1065=ORIENTED_EDGE('',*,*,#646,.F.);
#1066=ORIENTED_EDGE('',*,*,#647,.F.);
#1067=ORIENTED_EDGE('',*,*,#634,.F.);
#1068=ORIENTED_EDGE('',*,*,#608,.T.);
#1069=ORIENTED_EDGE('',*,*,#611,.T.);
#1070=ORIENTED_EDGE('',*,*,#614,.T.);
#1071=ORIENTED_EDGE('',*,*,#617,.T.);
#1072=ORIENTED_EDGE('',*,*,#620,.T.);
#1073=ORIENTED_EDGE('',*,*,#623,.T.);
#1074=ORIENTED_EDGE('',*,*,#626,.T.);
#1075=ORIENTED_EDGE('',*,*,#633,.T.);
#1076=ORIENTED_EDGE('',*,*,#686,.F.);
#1077=ORIENTED_EDGE('',*,*,#738,.T.);
#1078=ORIENTED_EDGE('',*,*,#756,.T.);
#1079=ORIENTED_EDGE('',*,*,#758,.T.);
#1080=ORIENTED_EDGE('',*,*,#760,.T.);
#1081=ORIENTED_EDGE('',*,*,#669,.F.);
#1082=ORIENTED_EDGE('',*,*,#749,.F.);
#1083=ORIENTED_EDGE('',*,*,#759,.T.);
#1084=ORIENTED_EDGE('',*,*,#689,.T.);
#1085=ORIENTED_EDGE('',*,*,#687,.F.);
#1086=ORIENTED_EDGE('',*,*,#650,.F.);
#1087=ORIENTED_EDGE('',*,*,#735,.T.);
#1088=ORIENTED_EDGE('',*,*,#670,.F.);
#1089=ORIENTED_EDGE('',*,*,#760,.F.);
#1090=ORIENTED_EDGE('',*,*,#757,.T.);
#1091=PLANE('',#1226);
#1092=PLANE('',#1227);
#1093=PLANE('',#1228);
#1094=PLANE('',#1229);
#1095=PLANE('',#1230);
#1096=PLANE('',#1231);
#1097=PLANE('',#1253);
#1098=PLANE('',#1254);
#1099=PLANE('',#1255);
#1100=PLANE('',#1256);
#1101=PLANE('',#1257);
#1102=PLANE('',#1258);
#1103=PLANE('',#1259);
#1104=PLANE('',#1260);
#1105=PLANE('',#1261);
#1106=PLANE('',#1262);
#1107=PLANE('',#1263);
#1108=PLANE('',#1264);
#1109=PLANE('',#1265);
#1110=PLANE('',#1266);
#1111=PLANE('',#1267);
#1112=PLANE('',#1268);
#1113=PLANE('',#1269);
#1114=PLANE('',#1270);
#1115=PLANE('',#1271);
#1116=PLANE('',#1272);
#1117=PLANE('',#1273);
#1118=PLANE('',#1274);
#1119=PLANE('',#1275);
#1120=PLANE('',#1276);
#1121=PLANE('',#1277);
#1122=PLANE('',#1278);
#1123=PLANE('',#1279);
#1124=PLANE('',#1280);
#1125=PLANE('',#1281);
#1126=PLANE('',#1282);
#1127=PLANE('',#1283);
#1128=PLANE('',#1284);
#1129=PLANE('',#1285);
#1130=PLANE('',#1286);
#1131=PLANE('',#1287);
#1132=PLANE('',#1288);
#1133=PLANE('',#1289);
#1134=PLANE('',#1290);
#1135=PLANE('',#1291);
#1136=PLANE('',#1292);
#1137=PLANE('',#1293);
#1138=PLANE('',#1294);
#1139=PLANE('',#1295);
#1140=PLANE('',#1296);
#1141=PLANE('',#1297);
#1142=PLANE('',#1298);
#1143=ADVANCED_FACE('',(#52),#1091,.T.);
#1144=ADVANCED_FACE('',(#53),#1092,.T.);
#1145=ADVANCED_FACE('',(#54),#1093,.T.);
#1146=ADVANCED_FACE('',(#55),#1094,.T.);
#1147=ADVANCED_FACE('',(#56),#1095,.T.);
#1148=ADVANCED_FACE('',(#57),#1096,.F.);
#1149=ADVANCED_FACE('',(#58),#41,.F.);
#1150=ADVANCED_FACE('',(#59),#42,.F.);
#1151=ADVANCED_FACE('',(#60),#43,.F.);
#1152=ADVANCED_FACE('',(#61),#44,.F.);
#1153=ADVANCED_FACE('',(#62),#45,.F.);
#1154=ADVANCED_FACE('',(#63),#46,.F.);
#1155=ADVANCED_FACE('',(#64),#47,.F.);
#1156=ADVANCED_FACE('',(#65),#1097,.T.);
#1157=ADVANCED_FACE('',(#66),#1098,.T.);
#1158=ADVANCED_FACE('',(#67),#1099,.T.);
#1159=ADVANCED_FACE('',(#68),#1100,.T.);
#1160=ADVANCED_FACE('',(#69),#1101,.T.);
#1161=ADVANCED_FACE('',(#70),#1102,.T.);
#1162=ADVANCED_FACE('',(#71),#1103,.T.);
#1163=ADVANCED_FACE('',(#72,#13,#14,#15,#16,#17,#18,#19),#1104,.T.);
#1164=ADVANCED_FACE('',(#73),#1105,.T.);
#1165=ADVANCED_FACE('',(#74),#1106,.T.);
#1166=ADVANCED_FACE('',(#75),#1107,.T.);
#1167=ADVANCED_FACE('',(#76),#1108,.T.);
#1168=ADVANCED_FACE('',(#77),#1109,.T.);
#1169=ADVANCED_FACE('',(#78),#1110,.T.);
#1170=ADVANCED_FACE('',(#79),#1111,.T.);
#1171=ADVANCED_FACE('',(#80),#1112,.T.);
#1172=ADVANCED_FACE('',(#81),#1113,.T.);
#1173=ADVANCED_FACE('',(#82),#1114,.T.);
#1174=ADVANCED_FACE('',(#83),#1115,.T.);
#1175=ADVANCED_FACE('',(#84),#1116,.T.);
#1176=ADVANCED_FACE('',(#85),#1117,.T.);
#1177=ADVANCED_FACE('',(#86),#1118,.T.);
#1178=ADVANCED_FACE('',(#87),#1119,.T.);
#1179=ADVANCED_FACE('',(#88),#1120,.T.);
#1180=ADVANCED_FACE('',(#89),#1121,.T.);
#1181=ADVANCED_FACE('',(#90),#1122,.T.);
#1182=ADVANCED_FACE('',(#91),#1123,.T.);
#1183=ADVANCED_FACE('',(#92),#1124,.T.);
#1184=ADVANCED_FACE('',(#93),#1125,.T.);
#1185=ADVANCED_FACE('',(#94),#1126,.T.);
#1186=ADVANCED_FACE('',(#95),#1127,.T.);
#1187=ADVANCED_FACE('',(#96),#1128,.T.);
#1188=ADVANCED_FACE('',(#97),#1129,.T.);
#1189=ADVANCED_FACE('',(#98),#1130,.T.);
#1190=ADVANCED_FACE('',(#99),#1131,.T.);
#1191=ADVANCED_FACE('',(#100),#1132,.T.);
#1192=ADVANCED_FACE('',(#101),#1133,.T.);
#1193=ADVANCED_FACE('',(#102),#1134,.T.);
#1194=ADVANCED_FACE('',(#103),#1135,.T.);
#1195=ADVANCED_FACE('',(#104),#1136,.T.);
#1196=ADVANCED_FACE('',(#105),#1137,.T.);
#1197=ADVANCED_FACE('',(#106,#20,#21,#22,#23,#24,#25,#26),#1138,.F.);
#1198=ADVANCED_FACE('',(#107),#1139,.T.);
#1199=ADVANCED_FACE('',(#108),#1140,.T.);
#1200=ADVANCED_FACE('',(#109),#1141,.T.);
#1201=ADVANCED_FACE('',(#110),#1142,.T.);
#1202=CLOSED_SHELL('',(#1143,#1144,#1145,#1146,#1147,#1148));
#1203=CLOSED_SHELL('',(#1149,#1150,#1151,#1152,#1153,#1154,#1155,#1156,
#1157,#1158,#1159,#1160,#1161,#1162,#1163,#1164,#1165,#1166,#1167,#1168,
#1169,#1170,#1171,#1172,#1173,#1174,#1175,#1176,#1177,#1178,#1179,#1180,
#1181,#1182,#1183,#1184,#1185,#1186,#1187,#1188,#1189,#1190,#1191,#1192,
#1193,#1194,#1195,#1196,#1197,#1198,#1199,#1200,#1201));
#1204=DERIVED_UNIT_ELEMENT(#1207,1.);
#1205=DERIVED_UNIT_ELEMENT(#1938,-3.);
#1206=DIMENSIONAL_EXPONENTS(0.,1.,0.,0.,0.,0.,0.);
#1207=(
CONVERSION_BASED_UNIT('gram',#1209)
MASS_UNIT()
NAMED_UNIT(#1206)
);
#1208=(
MASS_UNIT()
NAMED_UNIT(*)
SI_UNIT(.KILO.,.GRAM.)
);
#1209=MASS_MEASURE_WITH_UNIT(MASS_MEASURE(0.001),#1208);
#1210=DERIVED_UNIT((#1204,#1205));
#1211=MEASURE_REPRESENTATION_ITEM('density measure',
POSITIVE_RATIO_MEASURE(1.541),#1210);
#1212=PROPERTY_DEFINITION_REPRESENTATION(#1217,#1214);
#1213=PROPERTY_DEFINITION_REPRESENTATION(#1218,#1215);
#1214=REPRESENTATION('material name',(#1216),#1935);
#1215=REPRESENTATION('density',(#1211),#1935);
#1216=DESCRIPTIVE_REPRESENTATION_ITEM('PET \X2\30D730E930B930C130C330AF\X0\',
'PET \X2\30D730E930B930C130C330AF\X0\');
#1217=PROPERTY_DEFINITION('material property','material name',#1945);
#1218=PROPERTY_DEFINITION('material property','density of part',#1945);
#1219=DATE_TIME_ROLE('creation_date');
#1220=APPLIED_DATE_AND_TIME_ASSIGNMENT(#1221,#1219,(#1945));
#1221=DATE_AND_TIME(#1222,#1223);
#1222=CALENDAR_DATE(2026,8,10);
#1223=LOCAL_TIME(0,0,0.,#1224);
#1224=COORDINATED_UNIVERSAL_TIME_OFFSET(0,0,.BEHIND.);
#1225=AXIS2_PLACEMENT_3D('',#1598,#1299,#1300);
#1226=AXIS2_PLACEMENT_3D('',#1599,#1301,#1302);
#1227=AXIS2_PLACEMENT_3D('',#1608,#1307,#1308);
#1228=AXIS2_PLACEMENT_3D('',#1614,#1312,#1313);
#1229=AXIS2_PLACEMENT_3D('',#1620,#1317,#1318);
#1230=AXIS2_PLACEMENT_3D('',#1623,#1321,#1322);
#1231=AXIS2_PLACEMENT_3D('',#1624,#1323,#1324);
#1232=AXIS2_PLACEMENT_3D('',#1625,#1325,#1326);
#1233=AXIS2_PLACEMENT_3D('',#1627,#1327,#1328);
#1234=AXIS2_PLACEMENT_3D('',#1630,#1330,#1331);
#1235=AXIS2_PLACEMENT_3D('',#1631,#1332,#1333);
#1236=AXIS2_PLACEMENT_3D('',#1633,#1334,#1335);
#1237=AXIS2_PLACEMENT_3D('',#1636,#1337,#1338);
#1238=AXIS2_PLACEMENT_3D('',#1637,#1339,#1340);
#1239=AXIS2_PLACEMENT_3D('',#1639,#1341,#1342);
#1240=AXIS2_PLACEMENT_3D('',#1642,#1344,#1345);
#1241=AXIS2_PLACEMENT_3D('',#1643,#1346,#1347);
#1242=AXIS2_PLACEMENT_3D('',#1645,#1348,#1349);
#1243=AXIS2_PLACEMENT_3D('',#1648,#1351,#1352);
#1244=AXIS2_PLACEMENT_3D('',#1649,#1353,#1354);
#1245=AXIS2_PLACEMENT_3D('',#1651,#1355,#1356);
#1246=AXIS2_PLACEMENT_3D('',#1654,#1358,#1359);
#1247=AXIS2_PLACEMENT_3D('',#1655,#1360,#1361);
#1248=AXIS2_PLACEMENT_3D('',#1657,#1362,#1363);
#1249=AXIS2_PLACEMENT_3D('',#1660,#1365,#1366);
#1250=AXIS2_PLACEMENT_3D('',#1661,#1367,#1368);
#1251=AXIS2_PLACEMENT_3D('',#1663,#1369,#1370);
#1252=AXIS2_PLACEMENT_3D('',#1666,#1372,#1373);
#1253=AXIS2_PLACEMENT_3D('',#1667,#1374,#1375);
#1254=AXIS2_PLACEMENT_3D('',#1676,#1380,#1381);
#1255=AXIS2_PLACEMENT_3D('',#1685,#1386,#1387);
#1256=AXIS2_PLACEMENT_3D('',#1694,#1392,#1393);
#1257=AXIS2_PLACEMENT_3D('',#1697,#1396,#1397);
#1258=AXIS2_PLACEMENT_3D('',#1706,#1402,#1403);
#1259=AXIS2_PLACEMENT_3D('',#1709,#1406,#1407);
#1260=AXIS2_PLACEMENT_3D('',#1715,#1411,#1412);
#1261=AXIS2_PLACEMENT_3D('',#1788,#1450,#1451);
#1262=AXIS2_PLACEMENT_3D('',#1792,#1454,#1455);
#1263=AXIS2_PLACEMENT_3D('',#1798,#1459,#1460);
#1264=AXIS2_PLACEMENT_3D('',#1804,#1464,#1465);
#1265=AXIS2_PLACEMENT_3D('',#1810,#1469,#1470);
#1266=AXIS2_PLACEMENT_3D('',#1814,#1473,#1474);
#1267=AXIS2_PLACEMENT_3D('',#1818,#1477,#1478);
#1268=AXIS2_PLACEMENT_3D('',#1820,#1480,#1481);
#1269=AXIS2_PLACEMENT_3D('',#1824,#1484,#1485);
#1270=AXIS2_PLACEMENT_3D('',#1828,#1488,#1489);
#1271=AXIS2_PLACEMENT_3D('',#1832,#1492,#1493);
#1272=AXIS2_PLACEMENT_3D('',#1838,#1497,#1498);
#1273=AXIS2_PLACEMENT_3D('',#1844,#1502,#1503);
#1274=AXIS2_PLACEMENT_3D('',#1850,#1507,#1508);
#1275=AXIS2_PLACEMENT_3D('',#1854,#1511,#1512);
#1276=AXIS2_PLACEMENT_3D('',#1858,#1515,#1516);
#1277=AXIS2_PLACEMENT_3D('',#1860,#1518,#1519);
#1278=AXIS2_PLACEMENT_3D('',#1864,#1522,#1523);
#1279=AXIS2_PLACEMENT_3D('',#1868,#1526,#1527);
#1280=AXIS2_PLACEMENT_3D('',#1872,#1530,#1531);
#1281=AXIS2_PLACEMENT_3D('',#1876,#1534,#1535);
#1282=AXIS2_PLACEMENT_3D('',#1880,#1538,#1539);
#1283=AXIS2_PLACEMENT_3D('',#1886,#1543,#1544);
#1284=AXIS2_PLACEMENT_3D('',#1892,#1548,#1549);
#1285=AXIS2_PLACEMENT_3D('',#1896,#1552,#1553);
#1286=AXIS2_PLACEMENT_3D('',#1900,#1556,#1557);
#1287=AXIS2_PLACEMENT_3D('',#1904,#1560,#1561);
#1288=AXIS2_PLACEMENT_3D('',#1906,#1563,#1564);
#1289=AXIS2_PLACEMENT_3D('',#1910,#1567,#1568);
#1290=AXIS2_PLACEMENT_3D('',#1912,#1570,#1571);
#1291=AXIS2_PLACEMENT_3D('',#1914,#1573,#1574);
#1292=AXIS2_PLACEMENT_3D('',#1918,#1577,#1578);
#1293=AXIS2_PLACEMENT_3D('',#1920,#1580,#1581);
#1294=AXIS2_PLACEMENT_3D('',#1922,#1583,#1584);
#1295=AXIS2_PLACEMENT_3D('',#1928,#1589,#1590);
#1296=AXIS2_PLACEMENT_3D('',#1929,#1591,#1592);
#1297=AXIS2_PLACEMENT_3D('',#1931,#1594,#1595);
#1298=AXIS2_PLACEMENT_3D('',#1932,#1596,#1597);
#1299=DIRECTION('axis',(0.,0.,1.));
#1300=DIRECTION('refdir',(1.,0.,0.));
#1301=DIRECTION('center_axis',(-1.,0.,0.));
#1302=DIRECTION('ref_axis',(0.,-1.,0.));
#1303=DIRECTION('',(0.,-1.,0.));
#1304=DIRECTION('',(0.,0.,1.));
#1305=DIRECTION('',(0.,-1.,0.));
#1306=DIRECTION('',(0.,0.,1.));
#1307=DIRECTION('center_axis',(0.,1.,0.));
#1308=DIRECTION('ref_axis',(-1.,0.,0.));
#1309=DIRECTION('',(-1.,0.,0.));
#1310=DIRECTION('',(-1.,0.,0.));
#1311=DIRECTION('',(0.,0.,1.));
#1312=DIRECTION('center_axis',(1.,0.,0.));
#1313=DIRECTION('ref_axis',(0.,1.,0.));
#1314=DIRECTION('',(0.,1.,0.));
#1315=DIRECTION('',(0.,1.,0.));
#1316=DIRECTION('',(0.,0.,1.));
#1317=DIRECTION('center_axis',(0.,-1.,0.));
#1318=DIRECTION('ref_axis',(1.,0.,0.));
#1319=DIRECTION('',(1.,0.,0.));
#1320=DIRECTION('',(1.,0.,0.));
#1321=DIRECTION('center_axis',(0.,0.,1.));
#1322=DIRECTION('ref_axis',(1.,0.,0.));
#1323=DIRECTION('center_axis',(0.,0.,1.));
#1324=DIRECTION('ref_axis',(1.,0.,0.));
#1325=DIRECTION('center_axis',(0.,0.,1.));
#1326=DIRECTION('ref_axis',(-1.,0.,0.));
#1327=DIRECTION('center_axis',(0.,0.,1.));
#1328=DIRECTION('ref_axis',(-1.,0.,0.));
#1329=DIRECTION('',(0.,0.,1.));
#1330=DIRECTION('center_axis',(0.,0.,-1.));
#1331=DIRECTION('ref_axis',(-1.,0.,0.));
#1332=DIRECTION('center_axis',(0.,0.,1.));
#1333=DIRECTION('ref_axis',(-1.,0.,0.));
#1334=DIRECTION('center_axis',(0.,0.,1.));
#1335=DIRECTION('ref_axis',(-1.,0.,0.));
#1336=DIRECTION('',(0.,0.,1.));
#1337=DIRECTION('center_axis',(0.,0.,-1.));
#1338=DIRECTION('ref_axis',(-1.,0.,0.));
#1339=DIRECTION('center_axis',(0.,0.,1.));
#1340=DIRECTION('ref_axis',(-1.,0.,0.));
#1341=DIRECTION('center_axis',(0.,0.,1.));
#1342=DIRECTION('ref_axis',(-1.,0.,0.));
#1343=DIRECTION('',(0.,0.,1.));
#1344=DIRECTION('center_axis',(0.,0.,-1.));
#1345=DIRECTION('ref_axis',(-1.,0.,0.));
#1346=DIRECTION('center_axis',(0.,0.,1.));
#1347=DIRECTION('ref_axis',(-1.,0.,0.));
#1348=DIRECTION('center_axis',(0.,0.,1.));
#1349=DIRECTION('ref_axis',(-1.,0.,0.));
#1350=DIRECTION('',(0.,0.,1.));
#1351=DIRECTION('center_axis',(0.,0.,-1.));
#1352=DIRECTION('ref_axis',(-1.,0.,0.));
#1353=DIRECTION('center_axis',(0.,0.,1.));
#1354=DIRECTION('ref_axis',(-1.,0.,0.));
#1355=DIRECTION('center_axis',(0.,0.,1.));
#1356=DIRECTION('ref_axis',(-1.,0.,0.));
#1357=DIRECTION('',(0.,0.,1.));
#1358=DIRECTION('center_axis',(0.,0.,-1.));
#1359=DIRECTION('ref_axis',(-1.,0.,0.));
#1360=DIRECTION('center_axis',(0.,0.,1.));
#1361=DIRECTION('ref_axis',(-1.,0.,0.));
#1362=DIRECTION('center_axis',(0.,0.,1.));
#1363=DIRECTION('ref_axis',(-1.,0.,0.));
#1364=DIRECTION('',(0.,0.,1.));
#1365=DIRECTION('center_axis',(0.,0.,-1.));
#1366=DIRECTION('ref_axis',(-1.,0.,0.));
#1367=DIRECTION('center_axis',(0.,0.,1.));
#1368=DIRECTION('ref_axis',(-1.,0.,0.));
#1369=DIRECTION('center_axis',(0.,0.,1.));
#1370=DIRECTION('ref_axis',(-1.,0.,0.));
#1371=DIRECTION('',(0.,0.,1.));
#1372=DIRECTION('center_axis',(0.,0.,-1.));
#1373=DIRECTION('ref_axis',(-1.,0.,0.));
#1374=DIRECTION('center_axis',(-1.,0.,0.));
#1375=DIRECTION('ref_axis',(0.,-1.,0.));
#1376=DIRECTION('',(0.,0.,-1.));
#1377=DIRECTION('',(0.,-1.,0.));
#1378=DIRECTION('',(0.,0.,1.));
#1379=DIRECTION('',(0.,-1.,0.));
#1380=DIRECTION('center_axis',(-1.,0.,0.));
#1381=DIRECTION('ref_axis',(0.,-1.,0.));
#1382=DIRECTION('',(0.,0.,1.));
#1383=DIRECTION('',(0.,-1.,0.));
#1384=DIRECTION('',(0.,0.,1.));
#1385=DIRECTION('',(0.,-1.,0.));
#1386=DIRECTION('center_axis',(1.,0.,0.));
#1387=DIRECTION('ref_axis',(0.,1.,0.));
#1388=DIRECTION('',(0.,0.,1.));
#1389=DIRECTION('',(0.,1.,0.));
#1390=DIRECTION('',(0.,0.,1.));
#1391=DIRECTION('',(0.,1.,0.));
#1392=DIRECTION('center_axis',(0.,1.,0.));
#1393=DIRECTION('ref_axis',(-1.,0.,0.));
#1394=DIRECTION('',(-1.,0.,0.));
#1395=DIRECTION('',(-1.,0.,0.));
#1396=DIRECTION('center_axis',(1.,0.,0.));
#1397=DIRECTION('ref_axis',(0.,1.,0.));
#1398=DIRECTION('',(0.,0.,-1.));
#1399=DIRECTION('',(0.,1.,0.));
#1400=DIRECTION('',(0.,0.,1.));
#1401=DIRECTION('',(0.,1.,0.));
#1402=DIRECTION('center_axis',(0.,-1.,0.));
#1403=DIRECTION('ref_axis',(1.,0.,0.));
#1404=DIRECTION('',(1.,0.,0.));
#1405=DIRECTION('',(1.,0.,0.));
#1406=DIRECTION('center_axis',(0.,-1.,0.));
#1407=DIRECTION('ref_axis',(1.,0.,0.));
#1408=DIRECTION('',(1.,0.,0.));
#1409=DIRECTION('',(0.,0.,1.));
#1410=DIRECTION('',(1.,0.,0.));
#1411=DIRECTION('center_axis',(0.,0.,1.));
#1412=DIRECTION('ref_axis',(1.,0.,0.));
#1413=DIRECTION('',(-1.,0.,0.));
#1414=DIRECTION('',(0.,1.,0.));
#1415=DIRECTION('',(-1.,0.,0.));
#1416=DIRECTION('',(0.,1.,0.));
#1417=DIRECTION('',(1.,0.,0.));
#1418=DIRECTION('',(0.,1.,0.));
#1419=DIRECTION('',(-1.,0.,0.));
#1420=DIRECTION('',(0.,1.,0.));
#1421=DIRECTION('',(-1.,0.,0.));
#1422=DIRECTION('',(0.,-1.,0.));
#1423=DIRECTION('',(-1.,0.,0.));
#1424=DIRECTION('',(0.,-1.,0.));
#1425=DIRECTION('',(1.,0.,0.));
#1426=DIRECTION('',(0.,-1.,0.));
#1427=DIRECTION('',(-1.,0.,0.));
#1428=DIRECTION('',(0.,-1.,0.));
#1429=DIRECTION('',(-1.,0.,0.));
#1430=DIRECTION('',(0.,-1.,0.));
#1431=DIRECTION('',(1.,0.,0.));
#1432=DIRECTION('',(0.,-1.,0.));
#1433=DIRECTION('',(1.,0.,0.));
#1434=DIRECTION('',(0.,-1.,0.));
#1435=DIRECTION('',(-1.,0.,0.));
#1436=DIRECTION('',(0.,-1.,0.));
#1437=DIRECTION('',(1.,0.,0.));
#1438=DIRECTION('',(0.,-1.,0.));
#1439=DIRECTION('',(1.,0.,0.));
#1440=DIRECTION('',(0.,1.,0.));
#1441=DIRECTION('',(1.,0.,0.));
#1442=DIRECTION('',(0.,1.,0.));
#1443=DIRECTION('',(-1.,0.,0.));
#1444=DIRECTION('',(0.,1.,0.));
#1445=DIRECTION('',(1.,0.,0.));
#1446=DIRECTION('',(0.,1.,0.));
#1447=DIRECTION('',(1.,0.,0.));
#1448=DIRECTION('',(0.,1.,0.));
#1449=DIRECTION('',(-1.,0.,0.));
#1450=DIRECTION('center_axis',(0.,1.,0.));
#1451=DIRECTION('ref_axis',(-1.,0.,0.));
#1452=DIRECTION('',(0.,0.,1.));
#1453=DIRECTION('',(-1.,0.,0.));
#1454=DIRECTION('center_axis',(0.,1.,0.));
#1455=DIRECTION('ref_axis',(-1.,0.,0.));
#1456=DIRECTION('',(0.,0.,-1.));
#1457=DIRECTION('',(0.,0.,1.));
#1458=DIRECTION('',(-1.,0.,0.));
#1459=DIRECTION('center_axis',(0.,-1.,0.));
#1460=DIRECTION('ref_axis',(1.,0.,0.));
#1461=DIRECTION('',(0.,0.,1.));
#1462=DIRECTION('',(1.,0.,0.));
#1463=DIRECTION('',(0.,0.,1.));
#1464=DIRECTION('center_axis',(0.,-1.,0.));
#1465=DIRECTION('ref_axis',(1.,0.,0.));
#1466=DIRECTION('',(0.,0.,-1.));
#1467=DIRECTION('',(0.,0.,1.));
#1468=DIRECTION('',(1.,0.,0.));
#1469=DIRECTION('center_axis',(-1.,0.,0.));
#1470=DIRECTION('ref_axis',(0.,-1.,0.));
#1471=DIRECTION('',(0.,-1.,0.));
#1472=DIRECTION('',(0.,0.,1.));
#1473=DIRECTION('center_axis',(0.,1.,0.));
#1474=DIRECTION('ref_axis',(-1.,0.,0.));
#1475=DIRECTION('',(0.,0.,1.));
#1476=DIRECTION('',(-1.,0.,0.));
#1477=DIRECTION('center_axis',(1.,0.,0.));
#1478=DIRECTION('ref_axis',(0.,1.,0.));
#1479=DIRECTION('',(0.,1.,0.));
#1480=DIRECTION('center_axis',(-1.,0.,0.));
#1481=DIRECTION('ref_axis',(0.,-1.,0.));
#1482=DIRECTION('',(0.,-1.,0.));
#1483=DIRECTION('',(0.,0.,1.));
#1484=DIRECTION('center_axis',(-1.,0.,0.));
#1485=DIRECTION('ref_axis',(0.,-1.,0.));
#1486=DIRECTION('',(0.,0.,1.));
#1487=DIRECTION('',(0.,-1.,0.));
#1488=DIRECTION('center_axis',(1.,0.,0.));
#1489=DIRECTION('ref_axis',(0.,1.,0.));
#1490=DIRECTION('',(0.,0.,-1.));
#1491=DIRECTION('',(0.,1.,0.));
#1492=DIRECTION('center_axis',(0.,1.,0.));
#1493=DIRECTION('ref_axis',(-1.,0.,0.));
#1494=DIRECTION('',(0.,0.,-1.));
#1495=DIRECTION('',(0.,0.,1.));
#1496=DIRECTION('',(-1.,0.,0.));
#1497=DIRECTION('center_axis',(0.,-1.,0.));
#1498=DIRECTION('ref_axis',(1.,0.,0.));
#1499=DIRECTION('',(0.,0.,1.));
#1500=DIRECTION('',(1.,0.,0.));
#1501=DIRECTION('',(0.,0.,1.));
#1502=DIRECTION('center_axis',(0.,-1.,0.));
#1503=DIRECTION('ref_axis',(1.,0.,0.));
#1504=DIRECTION('',(0.,0.,-1.));
#1505=DIRECTION('',(0.,0.,1.));
#1506=DIRECTION('',(1.,0.,0.));
#1507=DIRECTION('center_axis',(-1.,0.,0.));
#1508=DIRECTION('ref_axis',(0.,-1.,0.));
#1509=DIRECTION('',(0.,-1.,0.));
#1510=DIRECTION('',(0.,0.,1.));
#1511=DIRECTION('center_axis',(0.,1.,0.));
#1512=DIRECTION('ref_axis',(-1.,0.,0.));
#1513=DIRECTION('',(0.,0.,1.));
#1514=DIRECTION('',(-1.,0.,0.));
#1515=DIRECTION('center_axis',(1.,0.,0.));
#1516=DIRECTION('ref_axis',(0.,1.,0.));
#1517=DIRECTION('',(0.,1.,0.));
#1518=DIRECTION('center_axis',(-1.,0.,0.));
#1519=DIRECTION('ref_axis',(0.,-1.,0.));
#1520=DIRECTION('',(0.,-1.,0.));
#1521=DIRECTION('',(0.,0.,1.));
#1522=DIRECTION('center_axis',(-1.,0.,0.));
#1523=DIRECTION('ref_axis',(0.,-1.,0.));
#1524=DIRECTION('',(0.,0.,-1.));
#1525=DIRECTION('',(0.,-1.,0.));
#1526=DIRECTION('center_axis',(1.,0.,0.));
#1527=DIRECTION('ref_axis',(0.,1.,0.));
#1528=DIRECTION('',(0.,0.,1.));
#1529=DIRECTION('',(0.,1.,0.));
#1530=DIRECTION('center_axis',(0.,1.,0.));
#1531=DIRECTION('ref_axis',(-1.,0.,0.));
#1532=DIRECTION('',(0.,0.,1.));
#1533=DIRECTION('',(-1.,0.,0.));
#1534=DIRECTION('center_axis',(0.,1.,0.));
#1535=DIRECTION('ref_axis',(-1.,0.,0.));
#1536=DIRECTION('',(-1.,0.,0.));
#1537=DIRECTION('',(0.,0.,1.));
#1538=DIRECTION('center_axis',(-1.,0.,0.));
#1539=DIRECTION('ref_axis',(0.,-1.,0.));
#1540=DIRECTION('',(0.,0.,1.));
#1541=DIRECTION('',(0.,-1.,0.));
#1542=DIRECTION('',(0.,0.,1.));
#1543=DIRECTION('center_axis',(1.,0.,0.));
#1544=DIRECTION('ref_axis',(0.,1.,0.));
#1545=DIRECTION('',(0.,0.,-1.));
#1546=DIRECTION('',(0.,0.,1.));
#1547=DIRECTION('',(0.,1.,0.));
#1548=DIRECTION('center_axis',(0.,-1.,0.));
#1549=DIRECTION('ref_axis',(1.,0.,0.));
#1550=DIRECTION('',(0.,0.,1.));
#1551=DIRECTION('',(1.,0.,0.));
#1552=DIRECTION('center_axis',(-1.,0.,0.));
#1553=DIRECTION('ref_axis',(0.,-1.,0.));
#1554=DIRECTION('',(0.,0.,-1.));
#1555=DIRECTION('',(0.,-1.,0.));
#1556=DIRECTION('center_axis',(1.,0.,0.));
#1557=DIRECTION('ref_axis',(0.,1.,0.));
#1558=DIRECTION('',(0.,0.,1.));
#1559=DIRECTION('',(0.,1.,0.));
#1560=DIRECTION('center_axis',(0.,-1.,0.));
#1561=DIRECTION('ref_axis',(1.,0.,0.));
#1562=DIRECTION('',(1.,0.,0.));
#1563=DIRECTION('center_axis',(0.,1.,0.));
#1564=DIRECTION('ref_axis',(-1.,0.,0.));
#1565=DIRECTION('',(-1.,0.,0.));
#1566=DIRECTION('',(0.,0.,1.));
#1567=DIRECTION('center_axis',(0.,1.,0.));
#1568=DIRECTION('ref_axis',(-1.,0.,0.));
#1569=DIRECTION('',(-1.,0.,0.));
#1570=DIRECTION('center_axis',(1.,0.,0.));
#1571=DIRECTION('ref_axis',(0.,1.,0.));
#1572=DIRECTION('',(0.,1.,0.));
#1573=DIRECTION('center_axis',(0.,1.,0.));
#1574=DIRECTION('ref_axis',(-1.,0.,0.));
#1575=DIRECTION('',(-1.,0.,0.));
#1576=DIRECTION('',(0.,0.,1.));
#1577=DIRECTION('center_axis',(1.,0.,0.));
#1578=DIRECTION('ref_axis',(0.,1.,0.));
#1579=DIRECTION('',(0.,1.,0.));
#1580=DIRECTION('center_axis',(0.,-1.,0.));
#1581=DIRECTION('ref_axis',(1.,0.,0.));
#1582=DIRECTION('',(1.,0.,0.));
#1583=DIRECTION('center_axis',(0.,0.,1.));
#1584=DIRECTION('ref_axis',(1.,0.,0.));
#1585=DIRECTION('',(1.,0.,0.));
#1586=DIRECTION('',(1.,0.,0.));
#1587=DIRECTION('',(0.,-1.,0.));
#1588=DIRECTION('',(0.,1.,0.));
#1589=DIRECTION('center_axis',(0.,-1.,0.));
#1590=DIRECTION('ref_axis',(1.,0.,0.));
#1591=DIRECTION('center_axis',(-1.,0.,0.));
#1592=DIRECTION('ref_axis',(0.,-1.,0.));
#1593=DIRECTION('',(0.,0.,1.));
#1594=DIRECTION('center_axis',(1.,0.,0.));
#1595=DIRECTION('ref_axis',(0.,1.,0.));
#1596=DIRECTION('center_axis',(0.,-1.,0.));
#1597=DIRECTION('ref_axis',(1.,0.,0.));
#1598=CARTESIAN_POINT('',(0.,0.,0.));
#1599=CARTESIAN_POINT('Origin',(75.,-40.,0.));
#1600=CARTESIAN_POINT('',(75.,-40.,0.));
#1601=CARTESIAN_POINT('',(75.,-85.,0.));
#1602=CARTESIAN_POINT('',(75.,-40.,0.));
#1603=CARTESIAN_POINT('',(75.,-85.,3.));
#1604=CARTESIAN_POINT('',(75.,-85.,0.));
#1605=CARTESIAN_POINT('',(75.,-40.,3.));
#1606=CARTESIAN_POINT('',(75.,-40.,3.));
#1607=CARTESIAN_POINT('',(75.,-40.,0.));
#1608=CARTESIAN_POINT('Origin',(81.,-40.,0.));
#1609=CARTESIAN_POINT('',(81.,-40.,0.));
#1610=CARTESIAN_POINT('',(81.,-40.,0.));
#1611=CARTESIAN_POINT('',(81.,-40.,3.));
#1612=CARTESIAN_POINT('',(81.,-40.,3.));
#1613=CARTESIAN_POINT('',(81.,-40.,0.));
#1614=CARTESIAN_POINT('Origin',(81.,-85.,0.));
#1615=CARTESIAN_POINT('',(81.,-85.,0.));
#1616=CARTESIAN_POINT('',(81.,-85.,0.));
#1617=CARTESIAN_POINT('',(81.,-85.,3.));
#1618=CARTESIAN_POINT('',(81.,-85.,3.));
#1619=CARTESIAN_POINT('',(81.,-85.,0.));
#1620=CARTESIAN_POINT('Origin',(75.,-85.,0.));
#1621=CARTESIAN_POINT('',(75.,-85.,0.));
#1622=CARTESIAN_POINT('',(75.,-85.,3.));
#1623=CARTESIAN_POINT('Origin',(78.,-62.5,3.));
#1624=CARTESIAN_POINT('Origin',(78.,-62.5,0.));
#1625=CARTESIAN_POINT('Origin',(70.,8.,0.));
#1626=CARTESIAN_POINT('',(71.6,8.,0.));
#1627=CARTESIAN_POINT('Origin',(70.,8.,0.));
#1628=CARTESIAN_POINT('',(71.6,8.,3.));
#1629=CARTESIAN_POINT('',(71.6,8.,0.));
#1630=CARTESIAN_POINT('Origin',(70.,8.,3.));
#1631=CARTESIAN_POINT('Origin',(70.,-8.,0.));
#1632=CARTESIAN_POINT('',(71.6,-8.,0.));
#1633=CARTESIAN_POINT('Origin',(70.,-8.,0.));
#1634=CARTESIAN_POINT('',(71.6,-8.,3.));
#1635=CARTESIAN_POINT('',(71.6,-8.,0.));
#1636=CARTESIAN_POINT('Origin',(70.,-8.,3.));
#1637=CARTESIAN_POINT('Origin',(15.,15.,0.));
#1638=CARTESIAN_POINT('',(16.6,15.,0.));
#1639=CARTESIAN_POINT('Origin',(15.,15.,0.));
#1640=CARTESIAN_POINT('',(16.6,15.,3.));
#1641=CARTESIAN_POINT('',(16.6,15.,0.));
#1642=CARTESIAN_POINT('Origin',(15.,15.,3.));
#1643=CARTESIAN_POINT('Origin',(15.,-15.,0.));
#1644=CARTESIAN_POINT('',(16.6,-15.,0.));
#1645=CARTESIAN_POINT('Origin',(15.,-15.,0.));
#1646=CARTESIAN_POINT('',(16.6,-15.,3.));
#1647=CARTESIAN_POINT('',(16.6,-15.,0.));
#1648=CARTESIAN_POINT('Origin',(15.,-15.,3.));
#1649=CARTESIAN_POINT('Origin',(-15.,15.,0.));
#1650=CARTESIAN_POINT('',(-13.4,15.,0.));
#1651=CARTESIAN_POINT('Origin',(-15.,15.,0.));
#1652=CARTESIAN_POINT('',(-13.4,15.,3.));
#1653=CARTESIAN_POINT('',(-13.4,15.,0.));
#1654=CARTESIAN_POINT('Origin',(-15.,15.,3.));
#1655=CARTESIAN_POINT('Origin',(-15.,-15.,0.));
#1656=CARTESIAN_POINT('',(-13.4,-15.,0.));
#1657=CARTESIAN_POINT('Origin',(-15.,-15.,0.));
#1658=CARTESIAN_POINT('',(-13.4,-15.,3.));
#1659=CARTESIAN_POINT('',(-13.4,-15.,0.));
#1660=CARTESIAN_POINT('Origin',(-15.,-15.,3.));
#1661=CARTESIAN_POINT('Origin',(0.,0.,0.));
#1662=CARTESIAN_POINT('',(7.,8.57252759403147E-16,0.));
#1663=CARTESIAN_POINT('Origin',(0.,0.,0.));
#1664=CARTESIAN_POINT('',(7.,8.57252759403147E-16,3.));
#1665=CARTESIAN_POINT('',(7.,8.57252759403147E-16,0.));
#1666=CARTESIAN_POINT('Origin',(0.,0.,3.));
#1667=CARTESIAN_POINT('Origin',(62.,14.,0.));
#1668=CARTESIAN_POINT('',(62.,3.,3.));
#1669=CARTESIAN_POINT('',(62.,3.,0.));
#1670=CARTESIAN_POINT('',(62.,3.,0.));
#1671=CARTESIAN_POINT('',(62.,14.,3.));
#1672=CARTESIAN_POINT('',(62.,14.,3.));
#1673=CARTESIAN_POINT('',(62.,14.,0.));
#1674=CARTESIAN_POINT('',(62.,14.,0.));
#1675=CARTESIAN_POINT('',(62.,14.,0.));
#1676=CARTESIAN_POINT('Origin',(62.,14.,0.));
#1677=CARTESIAN_POINT('',(62.,-3.,0.));
#1678=CARTESIAN_POINT('',(62.,-3.,3.));
#1679=CARTESIAN_POINT('',(62.,-3.,0.));
#1680=CARTESIAN_POINT('',(62.,-28.,0.));
#1681=CARTESIAN_POINT('',(62.,14.,0.));
#1682=CARTESIAN_POINT('',(62.,-28.,3.));
#1683=CARTESIAN_POINT('',(62.,-28.,0.));
#1684=CARTESIAN_POINT('',(62.,14.,3.));
#1685=CARTESIAN_POINT('Origin',(78.,-28.,0.));
#1686=CARTESIAN_POINT('',(78.,3.,0.));
#1687=CARTESIAN_POINT('',(78.,3.,3.));
#1688=CARTESIAN_POINT('',(78.,3.,0.));
#1689=CARTESIAN_POINT('',(78.,14.,0.));
#1690=CARTESIAN_POINT('',(78.,-28.,0.));
#1691=CARTESIAN_POINT('',(78.,14.,3.));
#1692=CARTESIAN_POINT('',(78.,14.,0.));
#1693=CARTESIAN_POINT('',(78.,-28.,3.));
#1694=CARTESIAN_POINT('Origin',(78.,14.,0.));
#1695=CARTESIAN_POINT('',(78.,14.,0.));
#1696=CARTESIAN_POINT('',(78.,14.,3.));
#1697=CARTESIAN_POINT('Origin',(78.,-28.,0.));
#1698=CARTESIAN_POINT('',(78.,-3.,3.));
#1699=CARTESIAN_POINT('',(78.,-3.,0.));
#1700=CARTESIAN_POINT('',(78.,-3.,0.));
#1701=CARTESIAN_POINT('',(78.,-28.,3.));
#1702=CARTESIAN_POINT('',(78.,-28.,3.));
#1703=CARTESIAN_POINT('',(78.,-28.,0.));
#1704=CARTESIAN_POINT('',(78.,-28.,0.));
#1705=CARTESIAN_POINT('',(78.,-28.,0.));
#1706=CARTESIAN_POINT('Origin',(62.,-28.,0.));
#1707=CARTESIAN_POINT('',(62.,-28.,0.));
#1708=CARTESIAN_POINT('',(62.,-28.,3.));
#1709=CARTESIAN_POINT('Origin',(-90.,-3.,0.));
#1710=CARTESIAN_POINT('',(90.,-3.,0.));
#1711=CARTESIAN_POINT('',(-90.,-3.,0.));
#1712=CARTESIAN_POINT('',(90.,-3.,3.));
#1713=CARTESIAN_POINT('',(90.,-3.,0.));
#1714=CARTESIAN_POINT('',(-90.,-3.,3.));
#1715=CARTESIAN_POINT('Origin',(0.,0.,3.));
#1716=CARTESIAN_POINT('',(20.,3.,3.));
#1717=CARTESIAN_POINT('',(90.,3.,3.));
#1718=CARTESIAN_POINT('',(20.,20.,3.));
#1719=CARTESIAN_POINT('',(20.,-20.,3.));
#1720=CARTESIAN_POINT('',(3.,20.,3.));
#1721=CARTESIAN_POINT('',(20.,20.,3.));
#1722=CARTESIAN_POINT('',(3.,58.,3.));
#1723=CARTESIAN_POINT('',(3.,-90.,3.));
#1724=CARTESIAN_POINT('',(62.5,58.,3.));
#1725=CARTESIAN_POINT('',(-62.5,58.,3.));
#1726=CARTESIAN_POINT('',(62.5,62.,3.));
#1727=CARTESIAN_POINT('',(62.5,58.,3.));
#1728=CARTESIAN_POINT('',(3.,62.,3.));
#1729=CARTESIAN_POINT('',(62.5,62.,3.));
#1730=CARTESIAN_POINT('',(3.,90.,3.));
#1731=CARTESIAN_POINT('',(3.,-90.,3.));
#1732=CARTESIAN_POINT('',(-3.,90.,3.));
#1733=CARTESIAN_POINT('',(3.,90.,3.));
#1734=CARTESIAN_POINT('',(-3.,62.,3.));
#1735=CARTESIAN_POINT('',(-3.,90.,3.));
#1736=CARTESIAN_POINT('',(-62.5,62.,3.));
#1737=CARTESIAN_POINT('',(62.5,62.,3.));
#1738=CARTESIAN_POINT('',(-62.5,58.,3.));
#1739=CARTESIAN_POINT('',(-62.5,62.,3.));
#1740=CARTESIAN_POINT('',(-3.,58.,3.));
#1741=CARTESIAN_POINT('',(-62.5,58.,3.));
#1742=CARTESIAN_POINT('',(-3.,20.,3.));
#1743=CARTESIAN_POINT('',(-3.,90.,3.));
#1744=CARTESIAN_POINT('',(-20.,20.,3.));
#1745=CARTESIAN_POINT('',(20.,20.,3.));
#1746=CARTESIAN_POINT('',(-20.,3.,3.));
#1747=CARTESIAN_POINT('',(-20.,20.,3.));
#1748=CARTESIAN_POINT('',(-90.,3.,3.));
#1749=CARTESIAN_POINT('',(90.,3.,3.));
#1750=CARTESIAN_POINT('',(-90.,-3.,3.));
#1751=CARTESIAN_POINT('',(-90.,3.,3.));
#1752=CARTESIAN_POINT('',(-20.,-3.,3.));
#1753=CARTESIAN_POINT('',(-90.,-3.,3.));
#1754=CARTESIAN_POINT('',(-20.,-20.,3.));
#1755=CARTESIAN_POINT('',(-20.,20.,3.));
#1756=CARTESIAN_POINT('',(-3.,-20.,3.));
#1757=CARTESIAN_POINT('',(-20.,-20.,3.));
#1758=CARTESIAN_POINT('',(-3.,-58.,3.));
#1759=CARTESIAN_POINT('',(-3.,90.,3.));
#1760=CARTESIAN_POINT('',(-62.5,-58.,3.));
#1761=CARTESIAN_POINT('',(62.5,-58.,3.));
#1762=CARTESIAN_POINT('',(-62.5,-62.,3.));
#1763=CARTESIAN_POINT('',(-62.5,-58.,3.));
#1764=CARTESIAN_POINT('',(-3.,-62.,3.));
#1765=CARTESIAN_POINT('',(-62.5,-62.,3.));
#1766=CARTESIAN_POINT('',(-3.,-90.,3.));
#1767=CARTESIAN_POINT('',(-3.,90.,3.));
#1768=CARTESIAN_POINT('',(3.,-90.,3.));
#1769=CARTESIAN_POINT('',(-3.,-90.,3.));
#1770=CARTESIAN_POINT('',(3.,-62.,3.));
#1771=CARTESIAN_POINT('',(3.,-90.,3.));
#1772=CARTESIAN_POINT('',(62.5,-62.,3.));
#1773=CARTESIAN_POINT('',(-62.5,-62.,3.));
#1774=CARTESIAN_POINT('',(62.5,-58.,3.));
#1775=CARTESIAN_POINT('',(62.5,-62.,3.));
#1776=CARTESIAN_POINT('',(3.,-58.,3.));
#1777=CARTESIAN_POINT('',(62.5,-58.,3.));
#1778=CARTESIAN_POINT('',(3.,-20.,3.));
#1779=CARTESIAN_POINT('',(3.,-90.,3.));
#1780=CARTESIAN_POINT('',(20.,-20.,3.));
#1781=CARTESIAN_POINT('',(-20.,-20.,3.));
#1782=CARTESIAN_POINT('',(20.,-3.,3.));
#1783=CARTESIAN_POINT('',(20.,-20.,3.));
#1784=CARTESIAN_POINT('',(-90.,-3.,3.));
#1785=CARTESIAN_POINT('',(90.,3.,3.));
#1786=CARTESIAN_POINT('',(90.,-3.,3.));
#1787=CARTESIAN_POINT('',(90.,3.,3.));
#1788=CARTESIAN_POINT('Origin',(90.,3.,0.));
#1789=CARTESIAN_POINT('',(90.,3.,0.));
#1790=CARTESIAN_POINT('',(90.,3.,0.));
#1791=CARTESIAN_POINT('',(90.,3.,0.));
#1792=CARTESIAN_POINT('Origin',(62.5,62.,0.));
#1793=CARTESIAN_POINT('',(3.,62.,0.));
#1794=CARTESIAN_POINT('',(3.,62.,0.));
#1795=CARTESIAN_POINT('',(62.5,62.,0.));
#1796=CARTESIAN_POINT('',(62.5,62.,0.));
#1797=CARTESIAN_POINT('',(62.5,62.,0.));
#1798=CARTESIAN_POINT('Origin',(-62.5,58.,0.));
#1799=CARTESIAN_POINT('',(3.,58.,0.));
#1800=CARTESIAN_POINT('',(3.,58.,0.));
#1801=CARTESIAN_POINT('',(62.5,58.,0.));
#1802=CARTESIAN_POINT('',(-62.5,58.,0.));
#1803=CARTESIAN_POINT('',(62.5,58.,0.));
#1804=CARTESIAN_POINT('Origin',(-62.5,58.,0.));
#1805=CARTESIAN_POINT('',(-3.,58.,0.));
#1806=CARTESIAN_POINT('',(-3.,58.,0.));
#1807=CARTESIAN_POINT('',(-62.5,58.,0.));
#1808=CARTESIAN_POINT('',(-62.5,58.,0.));
#1809=CARTESIAN_POINT('',(-62.5,58.,0.));
#1810=CARTESIAN_POINT('Origin',(-62.5,62.,0.));
#1811=CARTESIAN_POINT('',(-62.5,62.,0.));
#1812=CARTESIAN_POINT('',(-62.5,62.,0.));
#1813=CARTESIAN_POINT('',(-62.5,62.,0.));
#1814=CARTESIAN_POINT('Origin',(62.5,62.,0.));
#1815=CARTESIAN_POINT('',(-3.,62.,0.));
#1816=CARTESIAN_POINT('',(-3.,62.,0.));
#1817=CARTESIAN_POINT('',(62.5,62.,0.));
#1818=CARTESIAN_POINT('Origin',(62.5,58.,0.));
#1819=CARTESIAN_POINT('',(62.5,58.,0.));
#1820=CARTESIAN_POINT('Origin',(-3.,90.,0.));
#1821=CARTESIAN_POINT('',(-3.,20.,0.));
#1822=CARTESIAN_POINT('',(-3.,90.,0.));
#1823=CARTESIAN_POINT('',(-3.,20.,0.));
#1824=CARTESIAN_POINT('Origin',(-3.,90.,0.));
#1825=CARTESIAN_POINT('',(-3.,90.,0.));
#1826=CARTESIAN_POINT('',(-3.,90.,0.));
#1827=CARTESIAN_POINT('',(-3.,90.,0.));
#1828=CARTESIAN_POINT('Origin',(3.,-90.,0.));
#1829=CARTESIAN_POINT('',(3.,20.,0.));
#1830=CARTESIAN_POINT('',(3.,20.,0.));
#1831=CARTESIAN_POINT('',(3.,-90.,0.));
#1832=CARTESIAN_POINT('Origin',(62.5,-58.,0.));
#1833=CARTESIAN_POINT('',(3.,-58.,0.));
#1834=CARTESIAN_POINT('',(3.,-58.,0.));
#1835=CARTESIAN_POINT('',(62.5,-58.,0.));
#1836=CARTESIAN_POINT('',(62.5,-58.,0.));
#1837=CARTESIAN_POINT('',(62.5,-58.,0.));
#1838=CARTESIAN_POINT('Origin',(-62.5,-62.,0.));
#1839=CARTESIAN_POINT('',(3.,-62.,0.));
#1840=CARTESIAN_POINT('',(3.,-62.,0.));
#1841=CARTESIAN_POINT('',(62.5,-62.,0.));
#1842=CARTESIAN_POINT('',(-62.5,-62.,0.));
#1843=CARTESIAN_POINT('',(62.5,-62.,0.));
#1844=CARTESIAN_POINT('Origin',(-62.5,-62.,0.));
#1845=CARTESIAN_POINT('',(-3.,-62.,0.));
#1846=CARTESIAN_POINT('',(-3.,-62.,0.));
#1847=CARTESIAN_POINT('',(-62.5,-62.,0.));
#1848=CARTESIAN_POINT('',(-62.5,-62.,0.));
#1849=CARTESIAN_POINT('',(-62.5,-62.,0.));
#1850=CARTESIAN_POINT('Origin',(-62.5,-58.,0.));
#1851=CARTESIAN_POINT('',(-62.5,-58.,0.));
#1852=CARTESIAN_POINT('',(-62.5,-58.,0.));
#1853=CARTESIAN_POINT('',(-62.5,-58.,0.));
#1854=CARTESIAN_POINT('Origin',(62.5,-58.,0.));
#1855=CARTESIAN_POINT('',(-3.,-58.,0.));
#1856=CARTESIAN_POINT('',(-3.,-58.,0.));
#1857=CARTESIAN_POINT('',(62.5,-58.,0.));
#1858=CARTESIAN_POINT('Origin',(62.5,-62.,0.));
#1859=CARTESIAN_POINT('',(62.5,-62.,0.));
#1860=CARTESIAN_POINT('Origin',(-3.,90.,0.));
#1861=CARTESIAN_POINT('',(-3.,-90.,0.));
#1862=CARTESIAN_POINT('',(-3.,90.,0.));
#1863=CARTESIAN_POINT('',(-3.,-90.,0.));
#1864=CARTESIAN_POINT('Origin',(-3.,90.,0.));
#1865=CARTESIAN_POINT('',(-3.,-20.,0.));
#1866=CARTESIAN_POINT('',(-3.,-20.,0.));
#1867=CARTESIAN_POINT('',(-3.,90.,0.));
#1868=CARTESIAN_POINT('Origin',(3.,-90.,0.));
#1869=CARTESIAN_POINT('',(3.,-90.,0.));
#1870=CARTESIAN_POINT('',(3.,-90.,0.));
#1871=CARTESIAN_POINT('',(3.,-90.,0.));
#1872=CARTESIAN_POINT('Origin',(20.,20.,0.));
#1873=CARTESIAN_POINT('',(20.,20.,0.));
#1874=CARTESIAN_POINT('',(20.,20.,0.));
#1875=CARTESIAN_POINT('',(20.,20.,0.));
#1876=CARTESIAN_POINT('Origin',(20.,20.,0.));
#1877=CARTESIAN_POINT('',(-20.,20.,0.));
#1878=CARTESIAN_POINT('',(20.,20.,0.));
#1879=CARTESIAN_POINT('',(-20.,20.,0.));
#1880=CARTESIAN_POINT('Origin',(-20.,20.,0.));
#1881=CARTESIAN_POINT('',(-20.,-3.,0.));
#1882=CARTESIAN_POINT('',(-20.,-3.,0.));
#1883=CARTESIAN_POINT('',(-20.,-20.,0.));
#1884=CARTESIAN_POINT('',(-20.,20.,0.));
#1885=CARTESIAN_POINT('',(-20.,-20.,0.));
#1886=CARTESIAN_POINT('Origin',(20.,-20.,0.));
#1887=CARTESIAN_POINT('',(20.,-3.,0.));
#1888=CARTESIAN_POINT('',(20.,-3.,0.));
#1889=CARTESIAN_POINT('',(20.,-20.,0.));
#1890=CARTESIAN_POINT('',(20.,-20.,0.));
#1891=CARTESIAN_POINT('',(20.,-20.,0.));
#1892=CARTESIAN_POINT('Origin',(-20.,-20.,0.));
#1893=CARTESIAN_POINT('',(3.,-20.,0.));
#1894=CARTESIAN_POINT('',(3.,-20.,0.));
#1895=CARTESIAN_POINT('',(-20.,-20.,0.));
#1896=CARTESIAN_POINT('Origin',(-20.,20.,0.));
#1897=CARTESIAN_POINT('',(-20.,3.,0.));
#1898=CARTESIAN_POINT('',(-20.,3.,0.));
#1899=CARTESIAN_POINT('',(-20.,20.,0.));
#1900=CARTESIAN_POINT('Origin',(20.,-20.,0.));
#1901=CARTESIAN_POINT('',(20.,3.,0.));
#1902=CARTESIAN_POINT('',(20.,3.,0.));
#1903=CARTESIAN_POINT('',(20.,-20.,0.));
#1904=CARTESIAN_POINT('Origin',(-20.,-20.,0.));
#1905=CARTESIAN_POINT('',(-20.,-20.,0.));
#1906=CARTESIAN_POINT('Origin',(90.,3.,0.));
#1907=CARTESIAN_POINT('',(-90.,3.,0.));
#1908=CARTESIAN_POINT('',(90.,3.,0.));
#1909=CARTESIAN_POINT('',(-90.,3.,0.));
#1910=CARTESIAN_POINT('Origin',(90.,3.,0.));
#1911=CARTESIAN_POINT('',(90.,3.,0.));
#1912=CARTESIAN_POINT('Origin',(3.,-90.,0.));
#1913=CARTESIAN_POINT('',(3.,-90.,0.));
#1914=CARTESIAN_POINT('Origin',(3.,90.,0.));
#1915=CARTESIAN_POINT('',(3.,90.,0.));
#1916=CARTESIAN_POINT('',(3.,90.,0.));
#1917=CARTESIAN_POINT('',(3.,90.,0.));
#1918=CARTESIAN_POINT('Origin',(3.,-90.,0.));
#1919=CARTESIAN_POINT('',(3.,-90.,0.));
#1920=CARTESIAN_POINT('Origin',(-3.,-90.,0.));
#1921=CARTESIAN_POINT('',(-3.,-90.,0.));
#1922=CARTESIAN_POINT('Origin',(0.,0.,0.));
#1923=CARTESIAN_POINT('',(-90.,-3.,0.));
#1924=CARTESIAN_POINT('',(-90.,-3.,0.));
#1925=CARTESIAN_POINT('',(-90.,-3.,0.));
#1926=CARTESIAN_POINT('',(-90.,3.,0.));
#1927=CARTESIAN_POINT('',(90.,-3.,0.));
#1928=CARTESIAN_POINT('Origin',(-90.,-3.,0.));
#1929=CARTESIAN_POINT('Origin',(-90.,3.,0.));
#1930=CARTESIAN_POINT('',(-90.,-3.,0.));
#1931=CARTESIAN_POINT('Origin',(90.,-3.,0.));
#1932=CARTESIAN_POINT('Origin',(-90.,-3.,0.));
#1933=UNCERTAINTY_MEASURE_WITH_UNIT(LENGTH_MEASURE(0.01),#1937,
'DISTANCE_ACCURACY_VALUE',
'Maximum model space distance between geometric entities at asserted c
onnectivities');
#1934=UNCERTAINTY_MEASURE_WITH_UNIT(LENGTH_MEASURE(0.01),#1937,
'DISTANCE_ACCURACY_VALUE',
'Maximum model space distance between geometric entities at asserted c
onnectivities');
#1935=(
GEOMETRIC_REPRESENTATION_CONTEXT(3)
GLOBAL_UNCERTAINTY_ASSIGNED_CONTEXT((#1933))
GLOBAL_UNIT_ASSIGNED_CONTEXT((#1937,#1939,#1940))
REPRESENTATION_CONTEXT('','3D')
);
#1936=(
GEOMETRIC_REPRESENTATION_CONTEXT(3)
GLOBAL_UNCERTAINTY_ASSIGNED_CONTEXT((#1934))
GLOBAL_UNIT_ASSIGNED_CONTEXT((#1937,#1939,#1940))
REPRESENTATION_CONTEXT('','3D')
);
#1937=(
LENGTH_UNIT()
NAMED_UNIT(*)
SI_UNIT(.MILLI.,.METRE.)
);
#1938=(
LENGTH_UNIT()
NAMED_UNIT(*)
SI_UNIT(.CENTI.,.METRE.)
);
#1939=(
NAMED_UNIT(*)
PLANE_ANGLE_UNIT()
SI_UNIT($,.RADIAN.)
);
#1940=(
NAMED_UNIT(*)
SI_UNIT($,.STERADIAN.)
SOLID_ANGLE_UNIT()
);
#1941=SHAPE_DEFINITION_REPRESENTATION(#1942,#1943);
#1942=PRODUCT_DEFINITION_SHAPE('',$,#1945);
#1943=SHAPE_REPRESENTATION('',(#1225),#1935);
#1944=PRODUCT_DEFINITION_CONTEXT('part definition',#1949,'design');
#1945=PRODUCT_DEFINITION('40_Shared_Module_Dock',
'40_Shared_Module_Dock',#1946,#1944);
#1946=PRODUCT_DEFINITION_FORMATION('',$,#1951);
#1947=PRODUCT_RELATED_PRODUCT_CATEGORY('40_Shared_Module_Dock',
'40_Shared_Module_Dock',(#1951));
#1948=APPLICATION_PROTOCOL_DEFINITION('international standard',
'automotive_design',2009,#1949);
#1949=APPLICATION_CONTEXT(
'Core Data for Automotive Mechanical Design Process');
#1950=PRODUCT_CONTEXT('part definition',#1949,'mechanical');
#1951=PRODUCT('40_Shared_Module_Dock','40_Shared_Module_Dock',$,(#1950));
#1952=PRESENTATION_STYLE_ASSIGNMENT((#1953));
#1953=SURFACE_STYLE_USAGE(.BOTH.,#1956);
#1954=SURFACE_STYLE_RENDERING_WITH_PROPERTIES($,#1960,(#1955));
#1955=SURFACE_STYLE_TRANSPARENT(0.53999999165535);
#1956=SURFACE_SIDE_STYLE('',(#1957,#1954));
#1957=SURFACE_STYLE_FILL_AREA(#1958);
#1958=FILL_AREA_STYLE('',(#1959));
#1959=FILL_AREA_STYLE_COLOUR('',#1960);
#1960=COLOUR_RGB('',0.8,0.8,0.8);
ENDSEC;
END-ISO-10303-21;
